<svg width="51" height="87" viewBox="0 0 51 87" fill="none" xmlns="http://www.w3.org/2000/svg">
<path d="M48.9806 2.10393C50.2048 3.31638 50.8926 4.96059 50.8926 6.67499C50.8926 8.3894 50.2048 10.0336 48.9806 11.2461L16.6554 43.25L48.9806 75.2539C50.1701 76.4733 50.8284 78.1065 50.8135 79.8017C50.7986 81.4969 50.1118 83.1185 48.901 84.3173C47.6903 85.516 46.0524 86.196 44.3401 86.2107C42.6279 86.2254 40.9783 85.5737 39.7467 84.396L2.80457 47.821C1.58032 46.6086 0.892579 44.9644 0.892579 43.25C0.892579 41.5356 1.58032 39.8914 2.80457 38.6789L39.7467 2.10393C40.9713 0.891848 42.632 0.210938 44.3636 0.210938C46.0952 0.210938 47.756 0.891848 48.9806 2.10393Z" fill="white"/>
</svg>
