<svg width="52" height="72" viewBox="0 0 52 72" fill="none" xmlns="http://www.w3.org/2000/svg">
<g filter="url(#filter0_d_771_47754)">
<path d="M6.4845 28.2514L6.48541 20.6645C6.4845 19.1005 6.40042 17.4777 6.53702 15.9204C6.8769 12.0461 8.63186 8.38402 11.3388 5.61246C14.4843 2.39173 18.9298 0.60206 23.4059 0.554199C23.9577 0.558651 24.5187 0.547522 25.0685 0.596799C29.0575 0.954489 32.8183 2.73464 35.6236 5.58837L36.999 7.10686C37.4474 7.77317 37.9196 8.41428 38.3184 9.11438C39.3298 10.8896 40.0086 13.0296 40.2245 15.0603C40.4092 16.7993 40.3262 18.5914 40.3268 20.3384L40.3148 28.2437L36.1023 28.2498L36.0826 21.0409L36.0825 17.9748C36.0823 17.4158 36.1104 16.8383 36.0644 16.2822C35.854 13.7383 34.7344 11.0869 32.98 9.22376C31.2035 7.33706 28.9764 5.91126 26.4277 5.3345C25.5667 5.13962 24.704 5.07607 23.8246 5.05017C22.8113 5.05614 21.8178 5.09843 20.8193 5.29281C18.2532 5.79246 15.9965 7.14228 14.1734 8.98335C12.3475 10.8272 11.1354 13.3953 10.8741 15.9808C10.8086 16.63 10.824 17.292 10.8224 17.9441L10.8222 20.895L10.8199 28.2513L6.4845 28.2514Z" fill="#0F0A14"/>
<path d="M10.8165 28.253L23.4143 28.2306L36.0988 28.2516L40.3114 28.2454C41.047 28.2415 41.8623 28.1739 42.587 28.2888C43.5006 28.4335 44.4306 28.9388 45.0827 29.5863C46.1258 30.6223 46.4404 31.8477 46.4344 33.2816L46.4303 33.65L46.4531 61.621C46.4597 63.0828 46.3411 64.2583 45.2694 65.3542C44.2999 66.3456 43.2681 66.5431 41.9346 66.5464L23.4676 66.5471L9.64787 66.5411L6.03049 66.5359C5.25936 66.5336 4.31985 66.6284 3.57584 66.4165L3.49499 66.3922C3.08094 66.2705 2.7191 66.0975 2.3433 65.889C2.33207 65.8518 2.04996 65.6582 2.0025 65.6175C1.77899 65.4256 1.55709 65.2089 1.37799 64.9747C1.02434 64.5117 0.788279 63.9734 0.664024 63.4053L0.642976 63.3062C0.519733 62.7589 0.546951 62.1947 0.545635 61.6361L0.560612 33.6435L0.562434 32.2495C0.569011 31.125 0.768751 30.1485 1.60393 29.3354C2.04065 28.9102 2.58776 28.557 3.17828 28.3906C4.18507 28.1071 5.43987 28.2461 6.48107 28.2531L10.8165 28.253Z" fill="#8EDCE8"/>
<path d="M23.3855 33.705C23.9997 33.6119 24.7347 33.6887 25.3601 33.6895L29.7877 33.6924L41.1003 33.6702L46.4338 33.6475L46.4567 61.6184L23.4602 61.6292L23.4271 57.032L23.3897 57.0157L20.3112 57.0308C20.224 56.8341 20.3848 56.0834 20.4083 55.831L21.1739 48.9344C20.4375 48.6888 19.7494 48.3195 19.1671 47.8023C17.9229 46.6974 17.1872 45.2278 17.1026 43.5587C17.0184 41.8965 17.6139 40.3389 18.7227 39.1075C19.9586 37.7349 21.5798 37.1449 23.3844 37.0426L23.3855 33.705Z" fill="#5E93B7"/>
<path d="M23.3844 37.0433C23.7238 37.0418 24.0806 37.0248 24.4177 37.0659C25.6813 37.2199 26.9576 37.8704 27.8589 38.7623C28.8317 39.7249 29.3455 40.8794 29.6355 42.1996C29.9677 43.7118 29.5461 45.4328 28.7123 46.7116C28.024 47.7671 27.0917 48.4867 25.9098 48.9169L26.7565 57.036L23.4271 57.0327L23.3897 57.0164L20.3112 57.0315C20.224 56.8348 20.3848 56.0841 20.4083 55.8317L21.1739 48.9352C20.4375 48.6895 19.7494 48.3202 19.1671 47.803C17.9229 46.6981 17.1872 45.2285 17.1026 43.5594C17.0184 41.8972 17.6139 40.3396 18.7227 39.1082C19.9586 37.7357 21.5798 37.1456 23.3844 37.0433Z" fill="#0F0A14"/>
</g>
<defs>
<filter id="filter0_d_771_47754" x="0.543945" y="0.554199" width="50.9131" height="71.001" filterUnits="userSpaceOnUse" color-interpolation-filters="sRGB">
<feFlood flood-opacity="0" result="BackgroundImageFix"/>
<feColorMatrix in="SourceAlpha" type="matrix" values="0 0 0 0 0 0 0 0 0 0 0 0 0 0 0 0 0 0 127 0" result="hardAlpha"/>
<feOffset dx="5" dy="5"/>
<feComposite in2="hardAlpha" operator="out"/>
<feColorMatrix type="matrix" values="0 0 0 0 0 0 0 0 0 0 0 0 0 0 0 0 0 0 0.25 0"/>
<feBlend mode="normal" in2="BackgroundImageFix" result="effect1_dropShadow_771_47754"/>
<feBlend mode="normal" in="SourceGraphic" in2="effect1_dropShadow_771_47754" result="shape"/>
</filter>
</defs>
</svg>
