<svg width="92" height="101" viewBox="0 0 92 101" fill="none" xmlns="http://www.w3.org/2000/svg">
<path d="M76.7173 16.4903C82.3632 23.3683 84.3352 29.1884 85.9408 37.5745L85.9794 37.7759C86.2509 39.4539 86.1982 41.2461 86.1982 42.9427C86.1969 52.8527 82.6472 61.793 76.7769 69.7561C77.3334 70.4069 77.8085 71.1445 78.3262 71.8281L85.4998 80.5658C87.3669 82.7926 89.6317 85.1021 90.574 87.9047C93.2769 95.9421 83.52 103.897 76.2535 98.9928C72.1071 96.1943 65.3214 86.1599 61.3404 82.0048C60.2228 82.1747 59.0123 82.8467 57.9298 83.2327C56.3602 83.7928 54.7558 84.2374 53.1383 84.6337C43.3699 86.9129 33.3496 85.8305 24.3942 81.2861C-33.955 46.2522 24.3943 -33.4084 76.7173 16.4903Z" fill="#0F0A14"/>
<path d="M72.9376 74.2749C74.1186 75.4932 75.1403 77.0103 76.2238 78.3306L81.5534 84.7951C82.7691 86.2769 84.4072 87.9153 85.1837 89.6763C86.6005 92.8878 82.2228 95.3787 79.4938 94.2068C78.097 93.3469 77.0637 91.897 76.0362 90.6427L66.3408 78.9617C68.6905 77.5472 70.8324 76.0362 72.9376 74.2749Z" fill="#F2C38F"/>
<path d="M41.8293 7.0548L41.9049 7.04547C60.0767 5.97228 74.4017 16.849 79.2893 33.9081C82.5845 45.4098 79.4775 58.0796 71.5151 67C64.1514 75.2507 55.7878 79.4196 44.7802 80.0411L44.5206 80.0446C42.1323 80.0736 39.7472 79.9974 37.3885 79.6026C24.1708 77.3913 11.3942 66.9003 7.35302 53.9683C4.28658 44.1555 5.37682 33.2753 10.9689 24.6187C17.8549 13.9591 28.8725 7.16482 41.8293 7.0548Z" fill="#BD4A46"/>
<path d="M41.633 13.7609C67.6942 12.0755 82.2498 42.7696 65.7312 62.3267C60.3961 68.6429 52.9571 71.9291 44.7976 72.5927C34.8882 72.8572 25.9019 68.7529 19.7748 60.9723C12.6488 51.9229 11.7098 38.5601 17.3086 28.5041C22.2731 19.5866 31.605 14.4133 41.633 13.7609Z" fill="#0F0A14"/>
<path d="M41.8311 19.594L41.954 19.5795C56.7502 18.5237 69.0533 31.9212 66.897 46.4405C65.2672 57.4127 55.928 66.1153 44.8229 66.8388C31.7825 67.5205 20.3232 57.1727 19.4684 44.1497C18.587 30.7216 28.7295 20.4375 41.8311 19.594Z" fill="white"/>
</svg>
