<svg width="78" height="105" viewBox="0 0 78 105" fill="none" xmlns="http://www.w3.org/2000/svg">
<g filter="url(#filter0_d_170_16278)">
<path d="M20.3607 74.3057L37.2873 92.9947L53.6517 74.6921L53.9215 74.7401C59.0961 75.7041 68.2043 77.8497 71.415 82.9706C72.3221 84.4189 72.5409 85.9416 72.2545 87.6757C71.9362 89.5753 70.293 91.3769 68.9284 92.4103C56.4909 101.83 30.4755 101.039 16.2445 97.7279C11.3966 96.5998 3.83881 94.2536 0.975012 89.5114C0.245734 88.3041 -0.0323854 87.1973 0.184051 85.7413C0.466134 83.8418 1.89526 82.2471 3.20183 81.1468C7.97854 77.1221 14.6916 75.7884 20.3607 74.3057Z" fill="#0F0A14"/>
<path d="M17.7697 74.8553C7.833 63.2692 -1.04143 49.9785 0.0991408 33.9648C0.80558 24.0457 5.83376 14.6679 13.2831 8.23842C20.3519 2.13767 30.2894 -0.659352 39.4666 0.130967C49.0775 0.958982 58.0468 5.83722 64.1968 13.2819C70.2007 20.5495 73.3679 29.8966 72.4762 39.3594C71.1842 53.1218 63.011 65.1589 54.1683 75.2292L36.2763 92.9384L17.7697 74.8553Z" fill="#BD4A46"/>
<path d="M34.1825 17.0028C38.6043 16.7583 42.9538 17.5616 46.6594 20.0484C50.772 22.8092 53.7605 27.3484 54.6721 32.1412C55.5933 36.9839 54.3973 42.2337 51.534 46.2626C48.0727 51.1339 43.5411 53.269 37.7325 54.2523C33.4051 54.395 29.1888 53.7958 25.5388 51.3155C21.0438 48.2621 18.0866 43.7133 17.183 38.4167C16.3989 33.8216 17.8127 28.4747 20.5971 24.7463C23.9182 20.2994 28.75 17.895 34.1825 17.0028Z" fill="#FEFEFE"/>
</g>
<defs>
<filter id="filter0_d_170_16278" x="0" y="0" width="77.6248" height="105" filterUnits="userSpaceOnUse" color-interpolation-filters="sRGB">
<feFlood flood-opacity="0" result="BackgroundImageFix"/>
<feColorMatrix in="SourceAlpha" type="matrix" values="0 0 0 0 0 0 0 0 0 0 0 0 0 0 0 0 0 0 127 0" result="hardAlpha"/>
<feOffset dx="5" dy="5"/>
<feComposite in2="hardAlpha" operator="out"/>
<feColorMatrix type="matrix" values="0 0 0 0 0 0 0 0 0 0 0 0 0 0 0 0 0 0 0.25 0"/>
<feBlend mode="normal" in2="BackgroundImageFix" result="effect1_dropShadow_170_16278"/>
<feBlend mode="normal" in="SourceGraphic" in2="effect1_dropShadow_170_16278" result="shape"/>
</filter>
</defs>
</svg>
