<svg width="51" height="87" viewBox="0 0 51 87" fill="none" xmlns="http://www.w3.org/2000/svg">
<path d="M2.38856 2.10393C1.16431 3.31638 0.476562 4.96059 0.476562 6.67499C0.476562 8.3894 1.16431 10.0336 2.38856 11.2461L34.7137 43.25L2.38856 75.2539C1.199 76.4733 0.54078 78.1065 0.555659 79.8017C0.570538 81.4969 1.25733 83.1185 2.46811 84.3173C3.67888 85.516 5.31677 86.196 7.029 86.2107C8.74124 86.2254 10.3908 85.5737 11.6225 84.396L48.5646 47.821C49.7888 46.6086 50.4766 44.9644 50.4766 43.25C50.4766 41.5356 49.7888 39.8914 48.5646 38.6789L11.6225 2.10393C10.3978 0.891848 8.73712 0.210938 7.0055 0.210938C5.27389 0.210938 3.61318 0.891848 2.38856 2.10393Z" fill="white"/>
</svg>
