<svg width="24" height="25" viewBox="0 0 24 25" fill="none" xmlns="http://www.w3.org/2000/svg">
<path d="M10.247 1.87744C10.1084 1.73715 9.94334 1.62577 9.76138 1.54975C9.57942 1.47372 9.38418 1.43458 9.18698 1.43458C8.98978 1.43458 8.79454 1.47372 8.61258 1.54975C8.43063 1.62577 8.26557 1.73715 8.12698 1.87744L1.76698 8.23744C1.62669 8.37603 1.51531 8.54109 1.43929 8.72304C1.36327 8.905 1.32412 9.10024 1.32412 9.29744C1.32412 9.49464 1.36327 9.68988 1.43929 9.87184C1.51531 10.0538 1.62669 10.2189 1.76698 10.3574L13.787 22.3774C14.377 22.9674 15.327 22.9674 15.907 22.3774L22.267 16.0174C22.857 15.4274 22.857 14.4774 22.267 13.8974L10.247 1.87744ZM14.137 20.6074L3.53698 10.0074C3.44428 9.91493 3.37073 9.80504 3.32055 9.68406C3.27037 9.56309 3.24454 9.43341 3.24454 9.30244C3.24454 9.17147 3.27037 9.04179 3.32055 8.92082C3.37073 8.79984 3.44428 8.68995 3.53698 8.59744L8.48698 3.64744C8.5795 3.55474 8.68938 3.48119 8.81036 3.43101C8.93133 3.38083 9.06101 3.355 9.19198 3.355C9.32295 3.355 9.45263 3.38083 9.57361 3.43101C9.69458 3.48119 9.80447 3.55474 9.89698 3.64744L20.507 14.2574C20.897 14.6474 20.897 15.2774 20.507 15.6674L15.557 20.6174C15.167 20.9974 14.527 20.9974 14.137 20.6074ZM17.627 1.52744C16.057 0.69744 14.077 0.0974402 11.827 0.14744C11.647 0.14744 11.567 0.36744 11.687 0.49744L15.167 3.97744L16.497 2.64744C19.587 4.10744 21.837 7.01744 22.387 10.5074C22.447 10.9174 22.827 11.1974 23.247 11.1274C23.657 11.0674 23.937 10.6774 23.867 10.2674C23.267 6.46744 20.907 3.26744 17.627 1.52744ZM8.86698 20.2874L7.53698 21.6174C5.98906 20.8864 4.64325 19.7882 3.61669 18.4183C2.59014 17.0484 1.91395 15.4483 1.64698 13.7574C1.63284 13.6595 1.59913 13.5655 1.54786 13.4808C1.49658 13.3962 1.4288 13.3228 1.34855 13.2649C1.26829 13.2071 1.17721 13.166 1.08073 13.1441C0.984253 13.1222 0.884351 13.1199 0.786981 13.1374C0.376981 13.1974 0.0969811 13.5874 0.166981 13.9974C0.766981 17.8074 3.12698 21.0074 6.40698 22.7474C7.97698 23.5774 9.95698 24.1774 12.207 24.1274C12.387 24.1274 12.467 23.9074 12.347 23.7774L8.86698 20.2874Z" fill="white"/>
</svg>
