<svg width="86" height="74" viewBox="0 0 86 74" fill="none" xmlns="http://www.w3.org/2000/svg">
<g filter="url(#filter0_d_1072_44406)">
<path d="M49.0312 5.49126L75.4779 1.26001C76.2641 1.14555 77.2343 0.861316 78.0278 0.950715L78.1019 0.95828C78.9135 1.05017 79.5952 1.59939 79.9203 2.23876L79.953 2.30238C80.2402 2.87335 80.1031 3.663 80.1034 4.27135L80.1008 15.0043L80.0586 22.7728C79.9989 21.8652 80.1966 20.9438 80.0242 20.0362L80.0108 19.9594C79.9873 19.8774 79.913 19.8233 79.848 19.7655C79.5922 19.7603 79.7373 20.0471 79.5699 20.1543L79.4584 20.2733C79.4383 20.351 79.4097 20.4153 79.369 20.4869L79.3166 20.4807C78.7863 20.4207 78.3962 20.7443 77.7948 20.5999L77.6998 20.5807C77.2838 20.4924 76.2517 20.3153 75.9356 20.1046L75.8844 20.1039C75.2013 20.0897 75.3446 20.3791 74.9958 20.0308L74.9022 21.8014C74.9009 22.1731 74.9388 22.5672 74.8354 22.9292C74.7303 22.2168 74.8583 18.3884 74.7659 18.2372L74.7523 17.3383L49.2458 21.3754L49.1304 21.3405C48.9806 20.7943 49.0501 20.1271 49.0488 19.5645L49.0312 5.49126Z" fill="white"/>
<path d="M80.1003 15.0039L80.1082 46.9737C80.1084 48.5937 80.2484 50.2769 79.8751 51.8699C78.6191 57.2305 73.3593 61.2888 67.2193 62.0179C62.5656 62.5703 57.653 60.9564 54.3658 58.0746C43.4806 48.5323 54.3508 32.5625 68.8883 35.5007C70.4708 35.8204 73.5697 36.8763 74.7535 37.9631L74.7669 18.2368C74.8587 18.388 74.7306 22.2164 74.8357 22.9288C74.9391 22.5668 74.9012 22.1728 74.9025 21.8011L74.9962 20.0305C75.3449 20.3787 75.2017 20.0893 75.8848 20.1035L75.9359 20.1042C76.2521 20.3149 77.2841 20.492 77.7002 20.5803L77.7952 20.5996C78.3965 20.7439 78.7867 20.4203 79.3169 20.4803L79.3694 20.4865C79.4101 20.4149 79.4387 20.3506 79.4587 20.2729L79.5702 20.1539C79.7376 20.0467 79.5925 19.7599 79.8483 19.7651C79.9133 19.823 79.9876 19.877 80.0111 19.959L80.0245 20.0358C80.1969 20.9434 79.9992 21.8648 80.0589 22.7724L80.1003 15.0039Z" fill="white"/>
<path d="M52.2851 20.9305L30.9574 24.3502L31.0024 52.6641C31.0021 54.1318 31.1181 55.6741 30.903 57.1288C30.1456 62.2482 25.4305 66.593 19.7774 67.8552C12.1996 69.5471 4.35143 65.8653 1.77792 59.4042C-1.68773 50.7035 6.35712 41.7649 16.7682 42.293C20.0135 42.4576 23.6243 43.4469 25.8462 45.6169L25.8097 11.5581C25.8102 11.249 25.7776 10.8818 25.8613 10.583L25.8773 10.5291C26.3541 8.80574 27.9474 8.90298 29.5783 8.67473L52.2851 4.97266C52.2851 20.9305 52.2851 4.97266 52.2851 20.9305Z" fill="white"/>
</g>
<defs>
<filter id="filter0_d_1072_44406" x="0.960938" y="0.933594" width="84.1758" height="72.332" filterUnits="userSpaceOnUse" color-interpolation-filters="sRGB">
<feFlood flood-opacity="0" result="BackgroundImageFix"/>
<feColorMatrix in="SourceAlpha" type="matrix" values="0 0 0 0 0 0 0 0 0 0 0 0 0 0 0 0 0 0 127 0" result="hardAlpha"/>
<feOffset dx="5" dy="5"/>
<feComposite in2="hardAlpha" operator="out"/>
<feColorMatrix type="matrix" values="0 0 0 0 0 0 0 0 0 0 0 0 0 0 0 0 0 0 0.25 0"/>
<feBlend mode="normal" in2="BackgroundImageFix" result="effect1_dropShadow_1072_44406"/>
<feBlend mode="normal" in="SourceGraphic" in2="effect1_dropShadow_1072_44406" result="shape"/>
</filter>
</defs>
</svg>
