<svg width="86" height="85" viewBox="0 0 86 85" fill="none" xmlns="http://www.w3.org/2000/svg">
<g filter="url(#filter0_d_1217_44144)">
<path fill-rule="evenodd" clip-rule="evenodd" d="M74.4481 58.0162C73.6277 58.9506 72.1481 58.9418 71.2411 58.0865C70.3372 57.2282 70.3496 55.8427 71.1452 54.8936C73.9681 51.5316 75.5015 47.3623 75.4943 43.0683C75.5015 38.7742 73.9681 34.6049 71.1452 31.2429C70.3496 30.2938 70.3372 28.9083 71.2411 28.05C72.1481 27.1947 73.6277 27.1888 74.4481 28.1203C78.1337 32.3199 80.147 37.6093 80.1376 43.0683C80.1376 48.751 78.0017 53.9592 74.4481 58.0162ZM67.8299 51.7622C67.0684 52.7377 65.5825 52.7289 64.6756 51.8706C63.7686 51.0124 63.7964 49.6327 64.4898 48.6104C65.6145 46.9581 66.2111 45.0336 66.2078 43.0683C66.2078 41.0266 65.5763 39.1226 64.4898 37.5261C63.7964 36.5068 63.7686 35.1241 64.6756 34.2659C65.5825 33.4076 67.0684 33.3988 67.833 34.3743C69.7274 36.8055 70.8511 39.8168 70.8511 43.0683C70.8563 46.198 69.797 49.2462 67.8299 51.7622Z" fill="white"/>
<path d="M51.7276 14.1396C51.6351 13.4316 51.3429 12.7602 50.8818 12.1961C50.4207 11.632 49.8077 11.196 49.1073 10.9339C48.4069 10.6718 47.6448 10.5933 46.9013 10.7067C46.1578 10.82 45.4602 11.121 44.8819 11.5781L23.8416 28.1906C23.4651 28.4881 22.9904 28.6511 22.5001 28.6513H6.2011C3.30853 28.6513 0.960938 30.8753 0.960938 33.6156V51.4872C0.960938 54.2275 3.30853 56.4515 6.2011 56.4515H22.5001C22.9904 56.4517 23.4651 56.6147 23.8416 56.9122L44.8861 73.5208C45.4641 73.9767 46.161 74.2768 46.9036 74.3897C47.6463 74.5027 48.4073 74.4243 49.1069 74.1627C49.8066 73.9012 50.419 73.4661 50.8801 72.9032C51.3412 72.3402 51.6339 71.6702 51.7276 70.9632L52.1259 67.921C54.3477 51.0741 54.3477 34.0287 52.1259 17.1818L51.7276 14.1396Z" fill="white"/>
</g>
<rect x="59.1992" y="0.316406" width="10" height="91.9243" rx="5" transform="rotate(30 59.1992 0.316406)" fill="#084061"/>
<defs>
<filter id="filter0_d_1217_44144" x="0.960938" y="10.6562" width="84.1758" height="68.7832" filterUnits="userSpaceOnUse" color-interpolation-filters="sRGB">
<feFlood flood-opacity="0" result="BackgroundImageFix"/>
<feColorMatrix in="SourceAlpha" type="matrix" values="0 0 0 0 0 0 0 0 0 0 0 0 0 0 0 0 0 0 127 0" result="hardAlpha"/>
<feOffset dx="5" dy="5"/>
<feComposite in2="hardAlpha" operator="out"/>
<feColorMatrix type="matrix" values="0 0 0 0 0 0 0 0 0 0 0 0 0 0 0 0 0 0 0.25 0"/>
<feBlend mode="normal" in2="BackgroundImageFix" result="effect1_dropShadow_1217_44144"/>
<feBlend mode="normal" in="SourceGraphic" in2="effect1_dropShadow_1217_44144" result="shape"/>
</filter>
</defs>
</svg>
