<svg width="86" height="73" viewBox="0 0 86 73" fill="none" xmlns="http://www.w3.org/2000/svg">
<g filter="url(#filter0_d_1072_44414)">
<path d="M37.0008 28.5662L35.7594 28.634C33.4621 28.6456 31.1298 28.0121 29.2579 26.8685C28.744 26.5545 28.2666 26.194 27.8191 25.8128C26.5 24.6893 25.0886 21.999 24.5703 20.4684C24.5855 17.4492 24.5898 18.3519 24.5858 17.4492C24.5771 15.49 25.2749 15.1098 26.5939 13.5138C26.9789 13.0479 27.4193 12.6157 27.8877 12.2107C29.9481 10.4296 32.8007 9.39461 35.7238 9.39064C38.6375 9.38667 41.4878 10.4154 43.5484 12.1812C44.0002 12.5683 44.4246 12.9829 44.7996 13.4269C45.7903 14.5998 46.4615 15.9872 46.7435 17.4142C46.835 17.8772 46.8992 18.3551 46.8997 18.825C46.9008 19.3676 46.8698 19.9068 46.7784 20.4443C46.4789 22.2062 45.5996 23.9003 44.2541 25.2556C44.0452 25.4661 43.8129 25.6641 43.5856 25.8601C43.3318 26.0789 43.0648 26.2744 42.7859 26.4687C41.4702 27.3851 39.9309 28.0328 38.2864 28.3754C37.8754 28.461 37.4246 28.5468 37.0008 28.5662Z" fill="#084061"/>
<path d="M14.7435 52.8237L11.5724 55.5829C10.4645 54.5903 9.38001 53.6061 8.39498 52.5207C3.69655 47.3433 1.06589 41.0005 0.963956 34.4252C0.862648 27.9001 3.31416 21.5593 7.87615 16.3406C9.00656 15.0474 10.2573 13.887 11.5662 12.7305L14.6863 15.4585C13.3418 16.6858 12.0185 17.9076 10.8815 19.2857C7.24645 23.6913 5.30681 29.2622 5.49391 34.6576C5.72421 41.3025 8.84702 48.0551 14.5321 52.6565L14.7435 52.8237Z" fill="white"/>
<path d="M34.7952 1.46992C35.4179 1.20617 36.1582 1.03897 36.8291 0.895891C39.7042 0.283235 42.921 0.38908 45.7281 1.21108C47.5787 1.75299 49.3756 2.59462 50.8694 3.68464C51.7933 4.35875 52.5819 5.12046 53.3763 5.90266C54.6827 7.54686 55.7559 9.28411 56.2228 11.2509C56.4918 12.3833 56.547 13.512 56.5376 14.6637L56.5352 17.5562L56.5368 21.375L56.5254 24.3183L56.5266 30.4711L50.9524 30.4811L30.0756 30.4836L24.5752 30.4734L24.5664 27.2981L24.5554 24.3079L24.543 23.8796C24.594 23.5049 24.5591 23.0953 24.5605 22.717L24.5676 20.4711L31.4863 20.4855C32.4475 20.4889 33.5795 20.5913 34.5169 20.4526C34.8109 20.4091 35.1016 20.2352 35.3139 20.0633C35.6808 19.7664 35.8685 19.4036 35.8735 18.9741C35.8788 18.5252 35.7223 18.15 35.3409 17.8349C35.1234 17.6553 34.8167 17.5143 34.5171 17.4741C34.1755 17.4283 33.799 17.4522 33.4538 17.4509L31.5462 17.4462L24.5831 17.4524L24.5724 15.2266C24.5716 14.3326 24.5617 13.4473 24.6915 12.5579C24.9573 10.736 25.6407 9.01096 26.6673 7.40336C28.0207 5.28381 30.1648 3.49962 32.6121 2.31977C33.3153 1.98068 34.0184 1.6639 34.7952 1.46992Z" fill="white"/>
<path d="M50.9427 17.5351L48.1148 17.5405C47.6838 17.5406 47.1869 17.5869 46.7693 17.5089L46.6984 17.4943C46.4078 17.4363 46.1499 17.3297 45.9279 17.1546C45.5823 16.8822 45.4212 16.5363 45.4143 16.1386C45.4069 15.7143 45.5562 15.3623 45.9116 15.0599C46.1549 14.8529 46.4551 14.6924 46.7916 14.6239C47.1548 14.55 47.6296 14.5961 48.0025 14.5977L50.6352 14.613L56.5401 14.6329L56.5378 17.5255L50.9427 17.5351Z" fill="#084061"/>
<path d="M24.5547 24.3226L31.3803 24.3245L33.4729 24.3239C33.8852 24.3228 34.3185 24.2834 34.7145 24.3969L34.7903 24.4183C35.2232 24.5486 35.6085 24.856 35.7948 25.2162C36.0068 25.6257 36.0414 26.0393 35.8272 26.4534C35.6367 26.8216 35.2229 27.1439 34.7727 27.2632C34.4691 27.3436 34.0464 27.3089 33.7274 27.311L31.6443 27.3122L24.5657 27.3128L24.5547 24.3226Z" fill="#084061"/>
<path d="M48.6211 24.3381L56.5243 24.3164L56.5255 30.4692L50.9513 30.4792C50.8689 29.844 50.9318 29.143 50.9298 28.5004L50.9182 24.3571L48.7037 24.343L48.6211 24.3381Z" fill="white"/>
<path d="M50.9411 17.5643L56.5362 17.5547L56.5378 21.3735L56.5264 24.3167L48.6232 24.3384C47.8017 24.3432 46.9236 24.4553 46.2623 23.9519C45.9238 23.6943 45.7423 23.3555 45.7282 22.9689C45.7116 22.515 45.8163 22.1247 46.2003 21.7909C46.4075 21.6108 46.6806 21.4532 46.9707 21.3958C47.3699 21.3168 47.8546 21.3596 48.2628 21.3596L50.9403 21.3659L50.9411 17.5643Z" fill="#084061"/>
<path d="M50.9423 17.5643L56.5373 17.5547L56.5389 21.3735L50.9414 21.3659L50.9423 17.5643Z" fill="white"/>
<path d="M34.8008 1.46992C35.4234 1.20617 36.1637 1.03897 36.8347 0.895891C39.7098 0.283235 42.9266 0.38908 45.7337 1.21108C47.5843 1.75299 49.3811 2.59462 50.8749 3.68464C51.7989 4.35875 52.5875 5.12046 53.3818 5.90266C54.6883 7.54686 55.7615 9.28411 56.2284 11.2509C56.4973 12.3833 56.5526 13.512 56.5431 14.6637L50.6382 14.6438C50.3624 12.002 49.3672 9.7556 47.6347 7.56884C45.2781 4.59444 41.5722 2.71583 37.5593 1.87964C36.649 1.68993 35.7191 1.61898 34.8008 1.46992Z" fill="white"/>
<path d="M36.2787 55.0547C38.1792 55.4793 40.1953 55.6522 42.1515 55.4718C42.9939 55.394 43.8153 55.2285 44.6471 55.0984L44.6502 67.8114L36.2773 67.8296L36.2787 55.0547Z" fill="white"/>
<path d="M62.5812 18.3828L62.9136 18.6566C67.7578 22.7887 70.3864 28.3404 70.4234 34.1851C70.4609 40.0896 67.737 45.5446 62.9271 49.7278L62.1434 49.0401L59.8899 47.0567C63.7821 43.6837 65.9451 39.007 65.9505 34.2714C65.9551 30.2314 64.5178 26.3267 61.605 23.1316C60.9317 22.3929 60.1568 21.7355 59.3867 21.073L62.5812 18.3828Z" fill="white"/>
<path d="M18.1267 18.4414L21.3713 21.1971L21.1154 21.4133C19.9371 22.4268 18.8665 23.5308 17.9927 24.7535C15.9834 27.5649 14.9932 30.9076 15.0043 34.1911C15.0169 37.9865 16.5286 41.8612 19.164 44.9021C19.8293 45.6698 20.5827 46.3564 21.372 47.0295C21.2192 47.2772 20.8801 47.5085 20.6492 47.7133L18.17 49.8111C13.5102 45.9044 10.5226 40.3145 10.4105 34.6891C10.3226 30.281 11.5994 25.8412 14.4968 22.1577C15.5622 20.8033 16.8083 19.6155 18.1267 18.4414Z" fill="white"/>
<path d="M69.5801 18.7824C69.3762 18.3944 69.0019 18.0238 68.6948 17.6907L66.1662 15.1997C66.5077 14.8112 66.9622 14.4789 67.3658 14.1381L69.2843 12.5C69.5342 12.7209 69.79 12.981 70.0691 13.1728L70.1416 13.2216C71.2555 14.2827 72.3658 15.3026 73.3563 16.4557C78.1263 22.0084 80.5019 28.7924 80.092 35.6871C79.7228 41.8985 76.9971 47.8133 72.553 52.7061C71.5404 53.8209 70.3813 54.8157 69.2662 55.8525L66.0586 53.0892C67.6795 51.7323 69.1564 50.2831 70.426 48.6697C73.6431 44.5815 75.4425 39.6333 75.5252 34.7009C75.6012 30.1648 74.3768 25.9383 71.9714 21.913C71.3816 20.9263 70.6635 19.7476 69.7685 18.9402L69.5801 18.7824Z" fill="white"/>
<path d="M50.9527 30.4827L56.5269 30.4727L56.5057 38.1173C56.4989 39.629 56.5833 41.1936 56.4545 42.6997C56.1675 46.0588 54.6301 49.1292 51.8459 51.5172C49.8807 53.2027 47.3432 54.4973 44.6469 55.1022C43.8151 55.2323 42.9937 55.3978 42.1513 55.4755C40.1951 55.656 38.179 55.4831 36.2785 55.0585C33.6933 54.4401 31.2059 53.2641 29.3052 51.6249C26.7853 49.4517 25.0462 46.533 24.6712 43.4612C24.4637 41.7604 24.5792 39.966 24.5766 38.2558L24.5755 30.475L30.0758 30.4851L30.0845 37.3249L30.0891 40.3261C30.092 41.6329 30.1155 42.8935 30.5387 44.1605C31.036 45.6497 32.0427 46.9823 33.3113 48.0695C35.2542 49.7347 37.8494 50.6503 40.5973 50.6417C43.3821 50.6331 46.0236 49.6056 47.9631 47.9089C49.2236 46.8062 50.1336 45.4308 50.5806 43.9302C51.0316 42.4166 50.9497 40.9115 50.9511 39.363L50.9486 33.3991C50.9479 32.4431 50.8695 31.4328 50.9527 30.4827Z" fill="white"/>
<path d="M30.0742 30.4868L50.9511 30.4844C50.8679 31.4345 50.9462 32.4448 50.947 33.4008L50.9495 39.3647C50.9481 40.9132 51.0299 42.4182 50.579 43.9319C50.1319 45.4324 49.222 46.8079 47.9615 47.9106C46.022 49.6073 43.3805 50.6348 40.5956 50.6434C37.8478 50.652 35.2526 49.7364 33.3096 48.0712C32.041 46.984 31.0344 45.6514 30.5371 44.1622C30.1138 42.8952 30.0904 41.6346 30.0875 40.3278L30.0829 37.3265L30.0742 30.4868Z" fill="white"/>
<path d="M50.9427 30.2733L48.1148 30.2788C47.6838 30.2789 47.1869 30.3252 46.7693 30.2472L46.6984 30.2326C46.4078 30.1745 46.1499 30.0679 45.9279 29.8929C45.5823 29.6205 45.4212 29.2745 45.4143 28.8769C45.4069 28.4526 45.5562 28.1006 45.9116 27.7982C46.1549 27.5912 46.4551 27.4307 46.7916 27.3622C47.1548 27.2883 47.6296 27.3344 48.0025 27.336L50.6352 27.3513L56.5401 27.3712L56.5378 30.2637L50.9427 30.2733Z" fill="#084061"/>
<path d="M24.5547 30.2952L31.3803 30.2972L33.4729 30.2965C33.8852 30.2954 34.3185 30.2561 34.7145 30.3696L34.7903 30.3909C35.2232 30.5212 35.6085 30.8286 35.7948 31.1888C36.0068 31.5983 36.0414 32.012 35.8272 32.4261C35.6367 32.7943 35.2229 33.1165 34.7727 33.2358C34.4691 33.3163 34.0464 33.2816 33.7274 33.2836L31.6443 33.2849L24.5657 33.2854L24.5547 30.2952Z" fill="#084061"/>
</g>
<defs>
<filter id="filter0_d_1072_44414" x="0.960938" y="0.503906" width="84.1758" height="72.3242" filterUnits="userSpaceOnUse" color-interpolation-filters="sRGB">
<feFlood flood-opacity="0" result="BackgroundImageFix"/>
<feColorMatrix in="SourceAlpha" type="matrix" values="0 0 0 0 0 0 0 0 0 0 0 0 0 0 0 0 0 0 127 0" result="hardAlpha"/>
<feOffset dx="5" dy="5"/>
<feComposite in2="hardAlpha" operator="out"/>
<feColorMatrix type="matrix" values="0 0 0 0 0 0 0 0 0 0 0 0 0 0 0 0 0 0 0.25 0"/>
<feBlend mode="normal" in2="BackgroundImageFix" result="effect1_dropShadow_1072_44414"/>
<feBlend mode="normal" in="SourceGraphic" in2="effect1_dropShadow_1072_44414" result="shape"/>
</filter>
</defs>
</svg>
