<svg width="86" height="73" viewBox="0 0 86 73" fill="none" xmlns="http://www.w3.org/2000/svg">
<g filter="url(#filter0_d_1072_44403)">
<path fill-rule="evenodd" clip-rule="evenodd" d="M74.4483 50.4057C73.6279 51.3921 72.1483 51.3828 71.2413 50.48C70.3374 49.574 70.3498 48.1115 71.1453 47.1097C73.9683 43.5608 75.5017 39.1599 75.4945 34.6272C75.5017 30.0945 73.9683 25.6936 71.1453 22.1447C70.3498 21.1429 70.3374 19.6804 71.2413 18.7744C72.1483 17.8715 73.6279 17.8653 74.4483 18.8486C78.1339 23.2816 80.1472 28.8648 80.1378 34.6272C80.1378 40.6257 78.0019 46.1233 74.4483 50.4057ZM67.8301 43.8043C67.0686 44.8339 65.5827 44.8246 64.6757 43.9187C63.7687 43.0127 63.7966 41.5564 64.49 40.4773C65.6147 38.7332 66.2112 36.7018 66.208 34.6272C66.208 32.472 65.5765 30.4622 64.49 28.7771C63.7966 27.7011 63.7687 26.2416 64.6757 25.3357C65.5827 24.4297 67.0686 24.4204 67.8332 25.4501C69.7276 28.0164 70.8513 31.195 70.8513 34.6272C70.8565 37.9308 69.7972 41.1485 67.8301 43.8043Z" fill="white"/>
<path d="M51.7278 4.09103C51.6352 3.34364 51.343 2.63497 50.882 2.03953C50.4209 1.44409 49.8079 0.983845 49.1074 0.707185C48.407 0.430525 47.645 0.347661 46.9014 0.467303C46.1579 0.586945 45.4603 0.904675 44.882 1.3871L23.8416 18.9228C23.4651 19.2368 22.9904 19.4089 22.5002 19.4091H6.20111C3.30854 19.4091 0.960938 21.7567 0.960938 24.6493V43.5139C0.960938 46.4065 3.30854 48.7541 6.20111 48.7541H22.5002C22.9904 48.7543 23.4651 48.9264 23.8416 49.2404L44.8862 66.7719C45.4643 67.2531 46.1611 67.57 46.9038 67.6892C47.6464 67.8084 48.4074 67.7256 49.1071 67.4496C49.8067 67.1735 50.4192 66.7142 50.8803 66.12C51.3414 65.5258 51.6341 64.8185 51.7278 64.0722L52.126 60.861C54.3479 43.0779 54.3479 25.0853 52.126 7.30221L51.7278 4.09103Z" fill="white"/>
</g>
<defs>
<filter id="filter0_d_1072_44403" x="0.960938" y="0.414062" width="84.1758" height="72.3281" filterUnits="userSpaceOnUse" color-interpolation-filters="sRGB">
<feFlood flood-opacity="0" result="BackgroundImageFix"/>
<feColorMatrix in="SourceAlpha" type="matrix" values="0 0 0 0 0 0 0 0 0 0 0 0 0 0 0 0 0 0 127 0" result="hardAlpha"/>
<feOffset dx="5" dy="5"/>
<feComposite in2="hardAlpha" operator="out"/>
<feColorMatrix type="matrix" values="0 0 0 0 0 0 0 0 0 0 0 0 0 0 0 0 0 0 0.25 0"/>
<feBlend mode="normal" in2="BackgroundImageFix" result="effect1_dropShadow_1072_44403"/>
<feBlend mode="normal" in="SourceGraphic" in2="effect1_dropShadow_1072_44403" result="shape"/>
</filter>
</defs>
</svg>
