<?xml version="1.0" encoding="utf-8"?>
<!-- Generator: Adobe Illustrator 28.1.0, SVG Export Plug-In . SVG Version: 6.00 Build 0)  -->
<svg version="1.1" id="Слой_1" xmlns="http://www.w3.org/2000/svg" xmlns:xlink="http://www.w3.org/1999/xlink" x="0px" y="0px"
	 width="1920px" height="1080px" viewBox="0 0 1920 1080" style="enable-background:new 0 0 1920 1080;" xml:space="preserve">
<style type="text/css">
	.st0{clip-path:url(#SVGID_00000018947819469044522390000013310822437645875848_);}
	.st1{fill:#FFFFFF;}
	.st2{fill:#053157;}
	.st3{fill:#053F6C;}
	.st4{fill:#4B307D;}
	.st5{fill:#052748;}
	.st6{fill:#1C92B8;}
	.st7{fill:#62E2FB;}
	.st8{fill:#3F9411;}
	.st9{fill:#5CC51D;}
	.st10{fill:#2599C5;}
	.st11{fill:#44D1CF;}
	.st12{fill:#44CFD0;}
	.st13{fill:#5D3E9A;}
	.st14{fill:#EB8CD5;}
	.st15{fill:#7546AA;}
	.st16{fill:#D067BE;}
	.st17{fill:#723D95;}
	.st18{fill:#01528F;}
	.st19{fill:#0169C2;}
	.st20{fill:#2AC1C2;}
	.st21{fill:#0EA5A3;}
	.st22{fill:#FEFDFE;}
	.st23{fill:#33C0CE;}
	.st24{fill:#33B5FE;}
	.st25{fill:#367D0E;}
</style>
<g>
	<defs>
		<rect id="SVGID_1_" width="1920" height="1080"/>
	</defs>
	<clipPath id="SVGID_00000021834389278907369450000001511110621070188943_">
		<use xlink:href="#SVGID_1_"  style="overflow:visible;"/>
	</clipPath>
	<g style="clip-path:url(#SVGID_00000021834389278907369450000001511110621070188943_);">
		<rect class="st1" width="1920" height="1080"/>
		<path class="st2" d="M-103.4,129.5V0H2044v132v97.8v94.7v88.8v92.1v102.7v91.1v321.1v58.8V1236H-103.4v-155.9v-0.9V967.9V665.1
			v-81.7v-78.2v-92.7v-90.1V129.5z"/>
		<path class="st3" d="M1874.6,867.5c3.1,0,6-0.6,8.6,1.1l0.1,15.5l-46.6,0.1l-10.8-0.2c-2.5-2.9-1.3-12.2-1.3-16.3L1874.6,867.5z"
			/>
		<path class="st3" d="M1740.1,717.2l50.1,0.1c0,4.6,1.1,12.4-1.1,16.3l-4.9,0.3l-52.8,0.3l0.2-15.3
			C1733.9,716.5,1736.9,717.2,1740.1,717.2z"/>
		<path class="st3" d="M1731.7,815.3l58.6-0.2l-0.2,17.1l-58.2,0.3L1731.7,815.3z"/>
		<path class="st3" d="M1824.7,815.3l58.5-0.3l-0.1,17.1l-58.4,0.3L1824.7,815.3z"/>
		<path class="st3" d="M1824.7,716.9l58.6-0.1l0.1,17.2l-58.8,0.1L1824.7,716.9z"/>
		<path class="st3" d="M1731.6,866.9l58.7,0l-0.3,17.4l-58.3,0.4L1731.6,866.9z"/>
		<path class="st3" d="M1824.8,765.2l58.6-0.2l-0.1,17.6l-58.6,0.1L1824.8,765.2z"/>
		<path class="st3" d="M1731.5,765l58.7,0.1l0,18l-58.6,0.2L1731.5,765z"/>
		<path class="st3" d="M1739.7,917l50.1,0.1c0,4.6,1.1,12.4-1.1,16.3l-4.9,0.3L1731,934l0.2-15.3
			C1733.5,916.3,1736.5,917.1,1739.7,917z"/>
		<path class="st3" d="M1731.2,1015.2l58.6-0.2l-0.2,17.1l-58.2,0.3L1731.2,1015.2z"/>
		<path class="st3" d="M1824.3,1015.2l58.5-0.3l-0.1,17.1l-58.4,0.3L1824.3,1015.2z"/>
		<path class="st3" d="M1824.3,916.8l58.6-0.1l0.1,17.2l-58.8,0.1L1824.3,916.8z"/>
		<path class="st3" d="M1824.3,965.1l58.6-0.2l-0.1,17.6l-58.6,0.1L1824.3,965.1z"/>
		<path class="st3" d="M1731,964.9l58.7,0.1l-0.1,18l-58.6,0.2L1731,964.9z"/>
		<path class="st4" d="M1860.4,645.8l1.1,0.1l35.6,0l0,21c-5.3,1.1-12,0.4-17.5,0.4l-38,0.1l-119.7-0.6l-0.4-20.6l18.5-0.1l37.7,0
			l50.4-0.2L1860.4,645.8z"/>
		<path class="st5" d="M1394.2,768.5c0,96.4-1.3,215.7-1.3,312.2c-167.2,0,43.8,0-159.8,0c0-74.7,0-247.2,0-343.6
			C1282.3,737,1394.3,777.8,1394.2,768.5z"/>
		<path class="st6" d="M1685.5,505.5l0.3-39.5l54.1,0.3l-0.1,39.3l0.1,92.2l37.6,0.1l0.1,48.3l-37.7,0l-18.5,0.1l0.4,20.6l-25.9-0.4
			l0.9,279.5c-11.2,1.7-18.3,5.6-27.2,12.4c-3-0.8-6.8-4.1-9.4-5.9L1660,567l25.6,0.1L1685.5,505.5z"/>
		<path class="st7" d="M1739.9,597.8l37.6,0.1l0.1,48.3l-37.7,0L1739.9,597.8z"/>
		<path class="st8" d="M270,949.4l7.2,8.7c7.7-10.9,16.6-17.8,29.9-19.9c11.2-1.8,23.5,1,32.7,7.8c9.4,7,16.7,18.5,18.2,30.3
			c0.7,5.6,0.3,11.5-0.1,17.1c11.1-8.2,21.6-13.8,35.7-12.4c13.5,3.3,24.3,9.3,31.8,21.7c7.1,11.7,9.2,25,5.9,38.3l-1.6,5.7
			c2.7,1.5,5.8,0.6,8.8,0.9c11.3,1,21.3,11,24.3,21.9l2.2,10.6l-357.7,0.1c-1.3-3.4-2.7-7-3.1-10.7c-0.8-6.2,1.8-13.2,5.5-18
			c6.9-8.8,14.5-10.8,25-12c-3-5.6-5.8-11.2-6.5-17.7c-1.2-11.4,2-21.8,9.2-30.5c6.6-8.1,16.2-12.7,26.4-13.4
			c13-0.9,21.7,3.9,31.2,12.3c0.2-4.5,0.7-9.2,1.7-13.6c3.4-14.7,12.5-23.8,24.7-31.4c12.9-5.1,25-7.3,38.2-1.3
			C263.2,945.4,266.8,947.2,270,949.4z"/>
		<path class="st9" d="M252.1,977.6l10.2,0c10.4,0.5,19.8,6.5,26.5,14.3c8.3,9.6,8.6,21.4,7.8,33.5c6.8-5.9,13.3-8.9,22.5-8.3
			c6.6,0.4,13.1,3.7,17.4,9c6,7.4,7.6,14.3,6.6,23.8c-0.1,1.2-0.2,1.4,0.2,2.5c1.7-0.6,3.5-1.3,5.2-1.6c4.5-0.7,9.4-0.7,13.1,2.2
			c4.4,3.4,6.9,8.1,7.5,13.7c0.5,4.2,0.5,9.5-2.3,12.9l-108-0.1l-83.4,0.2l-23.1,0c-3.9,0-8.1,0.5-11.7-1.1c-0.7-1-1.4-2.1-1.7-3.2
			c-1.3-4.1-0.3-9.8,1.6-13.6c2.2-4.5,5.3-8.1,10.1-9.8c6.2-2.2,11.7,0.2,17.1,3.1c0.1-2.9-0.7-5.5-0.9-8.3
			c-0.5-7.3,1-13.3,4.8-19.5c4.6-7.5,11.9-12.8,20.4-14.5c10.4-2.2,17.4,0.2,26,6.1c1.3-8.6,1.8-15.8,6.6-23.4
			C231.2,984.8,240.6,980.2,252.1,977.6z"/>
		<path class="st10" d="M1974.6,413.2c2.4-9.3,5.2-18.3,6.9-27.8l2.5-18.5c0.4-4,0.2-8.6,1.8-12.3c1.7,2.7,1.1,14.4,1.5,18
			c1.4,14.3,4.4,26.8,8.9,40.4l47.8,0.3v92.1v102.7v91.1v321.1v58.8l-123.5,0.8l-0.2-248.5l0-165.2l-23.3,0.6l0-21l-35.6,0l-1.1-0.1
			L1828,646l-50.4,0.2l-0.1-48.3l-37.6-0.1l-0.1-92.2l0.1-39.3l-54.1-0.3l-0.3,39.5l0.2,61.6L1660,567l0.1-61l0-59.9l-44.6-0.3
			l-1.1-0.1l-0.1-24.9c1.4-2.2,1.1-4.8,1.3-7.4c6.1-1.6,14.4-0.1,20.8-0.1l50.7-0.1l208.7-0.6L1974.6,413.2z"/>
		<path class="st11" d="M1614.3,420.7c1.4-2.2,1.1-4.8,1.3-7.4c6.1-1.6,14.4-0.1,20.8-0.1l50.7-0.1l208.7-0.6l78.8,0.8l-13,34.8
			c-1.9,5-4.9,11-5.5,16.4c-1.8,15.9,0.2,34.5,0.4,50.6l0.1,94l0.2,48.4c0,4.8,1,13.5-0.9,17.6l-0.4-66.5c-1.4-10-0.2-21.8-0.2-32
			l0.2-71l-31.1-0.2c-3.9-2.4-10.8-1.3-15.5-1.3l-36.1,0.2c0,4.9,1.3,14.1-1.1,18.1l-9.3,0.5c-2.9,5-1.1,22.4-1.1,29.3l0,93.9
			l-1.1-0.1L1828,646l-50.4,0.2l-0.1-48.3l-37.6-0.1l-0.1-92.2l0.1-39.3l-54.1-0.3l-0.3,39.5l0.2,61.6L1660,567l0.1-61l0-59.9
			l-44.6-0.3l-1.1-0.1L1614.3,420.7z"/>
		<path class="st12" d="M1828.2,633.4l0.6-25l31.6,0.1c0,11.8-1.3,25.6,0,37.3L1828,646L1828.2,633.4z"/>
		<path class="st10" d="M1777.6,597.9l-0.1-15.8l13,0l0-23.1l27.5,0l-0.2,26.4c3.5,2.8,7.9-0.1,10.3,3.2l0.1,44.9L1828,646
			l-50.4,0.2L1777.6,597.9z"/>
		<path class="st13" d="M1546.2,420.6l68.1,0.1l0.1,24.9l1.1,0.1l44.6,0.3l0,59.9l-0.1,61l0.2,385.4c2.6,1.8,6.4,5.2,9.4,5.9
			l0.8,23.8c0,98.2,0,0,0,98.2l-164.8,0.2l-101.7-0.2h-10.7c2.6-2-3-2.8,0-4.1l0-50.5c8.6-9.4,17-19.4,23.5-30.4
			c7-11.8,12.6-25.6,14.7-39.3c1.9-12.7,0.8-27.1,0.8-40v-79.9l-0.1-33.7c0-5.2,0.7-11.4-0.5-16.4l-37.5-13l0-182.4
			c-0.7-9-0.1-18.6-0.1-27.7l-0.1-53.7l0-42.3c0-6.9-0.9-15.2,0.8-21.8l25.1,0.2c3.8,0,8.2-0.4,11.9,0.4l5.4-1.4
			c2.1-4.8,0.7-17.9,0.8-23.6L1546.2,420.6z"/>
		<path class="st14" d="M1554.4,629.8l51.6,0l0,19.8l-51.5-0.1L1554.4,629.8z"/>
		<path class="st14" d="M1554.4,496l51.7,0.1l-0.1,19.7l-51.6,0L1554.4,496z"/>
		<path class="st14" d="M1556.9,562.7l49.1,0.1l0,19.8l-51.5,0l0-18.3L1556.9,562.7z"/>
		<path class="st4" d="M1546.2,420.6l68.1,0.1l0.1,24.9c-8.7-1.1-17.7-0.5-26.4-0.5l-42,0.2L1546.2,420.6z"/>
		<path class="st15" d="M1437.9,420.7l108.3,0l-0.1,24.6l-23.2,0.1l-1.5,570.8l-1,1.1c0.1,1.3,0.2,2.1,0.7,3.3
			c1.9,4.8,0.2,10.9,0.3,16c-1.9,1.9,0,4.6-2.2,5c-1.4,0.2-2.3,0.8-3.5,1.6c-0.9,0.6-0.3,0.2-1.2,0.6c-4,1.6-9.7,8.5-11.4,12.3
			c-0.4,1-0.2,0.9-0.5,1.9c-0.6,2.3-1.5,3.9-1.8,6.4l-0.2,1.1c-0.5,3.8,0,8.6,0.9,12.3c-3.8,0-7.3-0.5-10.5,1.1
			c-0.7,0.3-3.7,0-4.5,0l-18.8,0c-5.4,0-10.5,0.4-15.5-1.1c-2.5-0.7-3.4,1.7-6.9,0.3c-2.4-0.9-6.2-0.4-8.8-0.3l-1.1,1.1l-1-1.1
			c-2.5,1.7-5.4,1.1-8.4,1.1c-6.5,0.1-15.8-0.7-22,1.4h-10.7c2.6-2-3-2.8,0-4.1l0-50.5c8.6-9.4,17-19.4,23.5-30.4
			c7-11.8,12.6-25.6,14.7-39.3c1.9-12.7,0.8-27.1,0.8-40v-79.9l-0.1-33.7c0-5.2,0.7-11.4-0.5-16.4l-37.5-13l0-182.4
			c-0.7-9-0.1-18.6-0.1-27.7l-0.1-53.7l0-42.3c0-6.9-0.9-15.2,0.8-21.8l25.1,0.2c3.8,0,8.2-0.4,11.9,0.4l5.4-1.4
			C1439.2,439.5,1437.8,426.4,1437.9,420.7z"/>
		<path class="st14" d="M1444.2,563.3l52.5-0.1v19.7l-52.5-0.1L1444.2,563.3z"/>
		<path class="st14" d="M1444.1,496h52.9l-0.1,19.8l-52.8,0L1444.1,496z"/>
		<path class="st14" d="M1444.3,629.2l52.6,0l0,19.9l-52.7,0L1444.3,629.2z"/>
		<path class="st13" d="M1394.1,590.6c2.6,15.3,0.8,33.5,0.9,49l0,101.3l127.1,40.2v259.8l-11.8,6.3c-5.6,8-3.1-2.3-5.6,8
			c-3.9,12-3.9,8-2.2,24c-109.4,1.7,0,0-109.4,1.7v-55.2c1-252.8,0,0,1-252.8L1394.1,590.6z"/>
		<path class="st3" d="M541.8,504.2L541.7,382l0-20c0-1.8-0.5-5.9,0-7.4c0.1-0.4,1.3-1.4,1.6-1.8c1,0.6,2.1,1.2,3.3,1.3
			c7.7,0.7,16.5-0.4,24.2-0.5l57.3-0.5l189.6-0.2l39.9,0.1c6.2,0,14.4-1.1,20.3,0.4l-0.2,134.5c0,593,0,0,0,593l-231.4-0.5
			l-0.2-312.6l0-254.5l-0.1-79.8c0-12.4,0.9-25.6-0.1-37.9c-0.1-1.7-0.8-3.2-2-4.5c-2.3-2.4-3.6-2.7-6.7-3.4
			c-2.6,0.8-5.4,1.4-6.8,4.1c-3,6-1.1,24.2-1.1,31.4l0,83.9l0,383l-0.2,125.7c-0.1,21.2,1,43.2-0.4,64.4l-84.9-0.1
			c-2,0-3.7,0.8-5.7,0.9l-39.5-0.4c-7.8,0-16.1,0.7-23.8-0.2l-9.9-0.1l-2.2-10.6c-3-10.9-13-20.8-24.3-21.9c-3-0.3-6.1,0.7-8.8-0.8
			l1.6-5.7c3.3-13.3,1.1-26.6-5.9-38.3c-7.5-12.5-18.3-18.4-31.8-21.7L393.4,585l0.3-1.2c7.6,1.8,17.2,0.7,25.1,0.7l55.7,0.2l7.9,0
			l0.2-0.9c-1.9-5.1-0.6-15.4-0.6-21.2l0.3-58.4l37.7,0.2C527.1,504.3,534.9,505,541.8,504.2z"/>
		<path class="st2" d="M781.5,1080.6c-3.5-0.1-3,0.8-3.5-0.1l1.7-644.9c0-13.4-1.9-30.6,1.4-43.5c2.1-2.8,3.5-3.8,6.8-4.7
			c3.2,0.4,4.6,2,6.8,4.2c3.5,7.5-0.4,672.6-0.4,689H781.5z"/>
		<path class="st6" d="M482.4,504.1l37.7,0.2c7,0,14.8,0.7,21.7-0.1l-0.2,26.9l0,548.5l-27.4,0l0-495l-31.8,0l0.2-0.9
			c-1.9-5.1-0.6-15.4-0.6-21.2L482.4,504.1z"/>
		<path class="st11" d="M482.4,504.1l37.7,0.2c7,0,14.8,0.7,21.7-0.1l-0.2,26.9l-52.8,0l0,40.7c0,2,0.7,8.8,0,10.3
			c-0.3,0.7-1,1.1-1.4,1.7l-4.8-0.1c-1.9-5.1-0.6-15.4-0.6-21.2L482.4,504.1z"/>
		<path class="st13" d="M474.5,584.6l7.9,0l31.8,0l0,495c-12.7,0.1-26.7-0.9-39.2,0.6l-9.9-0.1l-2.2-10.6c-3-10.9-13-20.8-24.3-21.9
			c-3-0.3-6.1,0.7-8.8-0.9l1.6-5.7c3.3-13.3,1.1-26.6-5.9-38.3c-7.5-12.5-19.6-18.5-33.2-21.8l0.3-396l1.1-1.2
			c7.6,1.8,17.2,0.7,25.1,0.7L474.5,584.6z"/>
		<path class="st16" d="M413.4,877.5l57.6,0l-0.1,20l-57.4,0.1L413.4,877.5z"/>
		<path class="st16" d="M413.2,750.1l57.9,0l-0.1,20.2l-57.7,0.1L413.2,750.1z"/>
		<path class="st16" d="M413,685.7l58,0.1l-0.1,20.4l-57.9,0.2L413,685.7z"/>
		<path class="st16" d="M413.5,813.6l57.7,0.1l-0.1,20.9l-57.7-0.2L413.5,813.6z"/>
		<path class="st16" d="M413.4,621.6l57.8,0.1l-0.1,20.8l-57.8,0L413.4,621.6z"/>
		<path class="st10" d="M-103.4,322.4l30.3,1.1l67.9,0.2l311.4-0.2l99.5,0.1c16.8,0,34.1,0.7,50.9-0.5c10.4-0.7,22.3-5.3,32.4-8
			l90.8-23.9l20.8-5.7c6-1.8,12-4.1,18.4-3l-75.4,70.2c-0.3,0.4-1.5,1.4-1.6,1.8c-0.5,1.5,0,5.6,0,7.4l0,20l0.1,122.2
			c-7,0.8-14.7,0.1-21.7,0.1l-37.7-0.2l-0.3,58.4c0,5.8-1.3,16.1,0.6,21.2l-0.2,0.9l-7.9,0l-55.7-0.2c-7.8,0-17.4,1.1-25.1-0.7
			l-0.3,1.2l0.1,396.1c-14.1-1.3-24.6,4.3-35.7,12.4c0.4-5.6,0.8-11.5,0.1-17.1c-1.5-11.9-8.8-23.3-18.2-30.3
			c-9.2-6.8-21.5-9.6-32.7-7.8c-13.3,2.2-22.3,9-29.9,19.9l-7.2-8.7c-3.2-2.2-6.8-4.1-10.3-5.7c-13.2-6-25.3-3.8-38.2,1.4
			c-12.3,7.5-21.3,16.6-24.7,31.4c-1,4.4-1.5,9.1-1.7,13.6c-9.5-8.3-18.1-13.1-31.2-12.3c-10.2,0.7-19.8,5.3-26.4,13.4
			c-7.2,8.8-10.3,19.1-9.2,30.5c0.7,6.4,3.5,12.1,6.5,17.7c-10.5,1.2-18.1,3.2-25,12c-3.8,4.8-6.3,11.8-5.5,18
			c0.4,3.6,1.9,7.3,3.1,10.7l-210.9,0v-0.9V967.9V665.1v-81.7v-78.2v-92.7V322.4z"/>
		<path class="st17" d="M40.4,667.1l0-19.6l153,0.6l-0.1,19.2c-14.4-1.6-30.6-0.1-45.2-0.1H40.4z"/>
		<path class="st12" d="M-37.6,504.4l38,0.5c7.8,0,16.4,0.5,24.1-0.5l-0.2,118.2c0,7.6,1.9,34.8-1.1,40.3c-7,1.5-16.7,0.3-24.1,0.4
			l0-47.3c0-6.1,1.2-15.7-1-21.4c-3.1,0.1-6.3,0.6-9.2-0.7l-1.9-10.1L-37.6,504.4z"/>
		<path class="st11" d="M-12.9,583.8l12.8,0c2.4,2.5,1.4,6.5,1.4,10c4.6,0,18.9-1.5,22.3,0.5l0,48.2c0,6.4,1,14.3-0.2,20.5
			c-7,1.5-16.7,0.3-24.1,0.4l0-47.3c0-6.1,1.2-15.7-1-21.4c-3.1,0.1-6.3,0.6-9.2-0.7L-12.9,583.8z"/>
		<path class="st12" d="M86.6,581c1.8-7.3,0.8-16.6,0.8-24.1l0.1-52.6l142.6,0.6l0,73.5l-53.2,0.1l0-61.3l-42.5,0l0.1,53.7l-32.6,0
			l0.1,23l0.1,53.2c-4.7-0.1-10,0.3-14.6-0.4c-2.2-3.3-1.2-13-1.2-17.3L86.6,581z"/>
		<path class="st11" d="M87.6,646.7l0-53.8l14.6,1l0.1,53.2C97.5,647,92.2,647.4,87.6,646.7z"/>
		<path class="st6" d="M-103.4,967.9l28.7,0.1l-0.6-144.2l18.4,0L-57,851l20.5-0.1l-0.8-27.2l18,0.1l-0.2,27.7l20,0l0.2,227.8
			l-104.2-0.1V967.9z"/>
		<path class="st11" d="M-39,455.4l0-42.6l269.2,0.6l-0.1,91.5l-142.6-0.6l-0.1,52.6c0,7.5,1,16.8-0.8,24.1l0.2-97.3l-62.2,0.2
			l0,20.5c-7.7,1-16.3,0.5-24.1,0.5l-38-0.5L-39,455.4z"/>
		<path class="st15" d="M270,949.4l-0.1-364.7l33.5,0.1l90.7-0.1l0,396.7c-14.1-1.3-25.3,3.8-36.4,12c0.4-5.6,0.8-11.5,0.1-17.1
			c-1.5-11.9-8.8-23.3-18.2-30.3c-9.2-6.8-21.5-9.6-32.7-7.8c-13.3,2.2-22.3,9-29.9,19.9L270,949.4z"/>
		<path class="st14" d="M308.3,750l52.8,0l0,20.6l-52.7,0.1L308.3,750z"/>
		<path class="st14" d="M307.9,685.6l53.4,0l0,20.7l-53.3-0.2L307.9,685.6z"/>
		<path class="st14" d="M307.9,876.3l53.2,0.1l0,20.6l-53.1,0L307.9,876.3z"/>
		<path class="st14" d="M307.9,813.4l53.1,0l-0.1,21l-53.1-0.2L307.9,813.4z"/>
		<path class="st14" d="M307.8,621.9l53.5-0.2l0,20.9l-53.4,0L307.8,621.9z"/>
		<path class="st18" d="M40.4,667.1h107.7c14.6,0.1,30.8-1.4,45.2,0.1l28.2-0.3l0.1,278.2c-12.3,7.5-21.3,16.6-24.7,31.4
			c-1,4.4-1.5,9.1-1.7,13.6c-9.5-8.3-18.1-13.1-31.2-12.3c-10.2,0.7-19.8,5.3-26.4,13.4c-7.2,8.8-10.3,19.1-9.2,30.5
			c0.7,6.4,3.5,12.1,6.5,17.7c-10.5,1.2-18.1,3.2-25,12c-3.8,4.8-6.3,11.8-5.5,18c0.4,3.6,1.9,7.3,3.1,10.7l-210.9,0v-0.9l104.2,0.1
			L0.5,851.5L0.3,666.6L40.4,667.1z"/>
		<path class="st19" d="M130,715.7l53.6,0l-0.1,19.3l-53.5,0.2L130,715.7z"/>
		<path class="st19" d="M129.5,865.2l54.2-0.3l-0.2,19.9l-53.9-0.1L129.5,865.2z"/>
		<path class="st19" d="M41,865.2l50.3,0.1c0,5,1.2,14.2-0.8,18.7l-3.7,0.6l-50.6,0.3c-0.1-4.8-1.5-15.1,0.8-19.1L41,865.2z"/>
		<path class="st19" d="M129.3,762.5l54.5,0.1l0,19.6l-54.4,0.1L129.3,762.5z"/>
		<path class="st19" d="M36.4,762.6l54.9-0.1L91,782.2l-54.5,0L36.4,762.6z"/>
		<path class="st19" d="M36.9,715.7l54.4-0.1l-0.2,19.8l-54.2,0.2L36.9,715.7z"/>
		<path class="st19" d="M129.5,813.6l54-0.2l0.1,20.1l-54.2,0L129.5,813.6z"/>
		<path class="st19" d="M36.2,813.5l54.8-0.1l-0.1,20.2l-54.6,0L36.2,813.5z"/>
		<path class="st19" d="M129.7,915.8l54-0.2l0.1,20.1l-54.2,0L129.7,915.8z"/>
		<path class="st19" d="M36.5,915.6l54.8-0.1l-0.1,20.2l-54.6,0L36.5,915.6z"/>
		<path class="st20" d="M-103.4,322.4l30.3,1.1l67.9,0.2l311.4-0.2l99.5,0.1c16.8,0,34.1,0.7,50.9-0.5c10.4-0.7,22.3-5.3,32.4-8
			l90.8-23.9l20.8-5.7c6-1.8,12-4.1,18.4-3l-75.4,70.2c-0.3,0.4-1.5,1.4-1.6,1.8c-0.5,1.5,0,5.6,0,7.4l0,20l0.1,122.2
			c-7,0.8-14.7,0.1-21.7,0.1l-37.7-0.2l-0.3,58.4c0,5.8-1.3,16.1,0.6,21.2l-0.2,0.9l-7.9,0l-55.7-0.2c-7.8,0-17.4,1.1-25.1-0.7
			l-0.3,1.2l-89.9-0.2l-0.1-28.7l-0.1-6.9l0-24.2l49.5-0.1l-0.1-21.2l0.3-105.1l-23.5,0.3l0.2-18.2l-75.6-0.1l0.2,17.8l-24.1-0.1
			l0.1,15l-269.2-0.6l0,42.6l-1.6,0.2c-1.8-13.1-0.1-29.2-0.1-42.6l-62.7-0.4V322.4z"/>
		<path class="st11" d="M352.7,503.7l71.4,0.1l0.2,20.9l-30.4,0l-41.1,0.2L352.7,503.7z"/>
		<path class="st10" d="M424.1,503.9l-0.1-32.4l10.8-9.6c0.7-0.7,2.5-2.8,3.3-3.1c3.7-1.5,6.1,1.7,8.5-2.7l3.9-107.4
			c2.4,11.2,1.6,23,1.9,34.4l1.6,44.3c0.1,6.2-1.8,26.3,1.3,30.8c2.4,0.1,7-0.3,9.2,0.4c1.1,0.3,3.7,3.3,4.7,4.1l13.1,11.3
			l-0.1,30.1l-0.3,58.4c0,5.8-1.3,16.1,0.6,21.2l-0.2,0.9l-7.9,0l0-28.5l0.1-6.9l0-24.4l-50.3-0.1L424.1,503.9z"/>
		<path class="st17" d="M424.3,524.7l50.3,0.1l0,24.4l-0.1,6.9l0,28.5l-55.7-0.2c-7.8,0-17.4,1.1-25.1-0.7l-0.3,2l-89.9-0.2
			l-0.1-29.5l-0.1-6.9l0-24.2l49.5-0.1l41.1-0.2L424.3,524.7z"/>
		<path class="st5" d="M388.2,549.4l86.4-0.2l-0.1,6.9l-81.2-0.2l-90,0.2l-0.1-6.9l56.9,0C369.3,549.2,379.2,548.4,388.2,549.4z"/>
		<path class="st4" d="M424.3,524.7l50.3,0.1l0,24.4l-86.4,0.2l4.4-0.7c2.6-3.1,1.4-19,1.4-23.9L424.3,524.7z"/>
		<path class="st17" d="M352.8,524.9l41.1-0.2c0,4.9,1.2,20.8-1.4,23.9l-4.4,0.7c-9-1-18.9-0.2-28-0.2l-56.9,0l0-24.2L352.8,524.9z"
			/>
		<path class="st4" d="M393.3,556l81.2,0.2l0,28.5l-55.7-0.2c-7.8,0-17.7,3.1-25.4,1.3L393.3,556z"/>
		<path class="st21" d="M-103.4,129.5V0H2044v132v97.8v94.7v88.8l-47.8-0.3c-4.5-13.6-7.5-26.2-8.9-40.4c-0.4-3.7,0.2-15.3-1.5-18
			c-1.6,3.7-1.4,8.3-1.8,12.3l-2.5,18.5c-1.7,9.5-4.6,18.5-6.9,27.8l-78.8-0.8l-208.7,0.6l-50.7,0.1c-6.4,0-14.7-1.5-20.8,0.1
			c-0.2,2.6,0.1,5.2-1.3,7.4l-68.1-0.1l-108.3,0c-0.1,5.7,1.3,18.8-0.8,23.6l-5.4,1.4c-3.7-0.8-8.1-0.4-11.9-0.4l-25.1-0.2
			c-1.6,6.7-0.8,14.9-0.8,21.8l0,42.3l0.1,53.7c0,9.1-0.6,18.7,0.1,27.7l0,182.4l-107-37c-4.2-1-10.2,2.3-14.2,3.7l-48.9-17.5
			l-15.7,42.1l0.1-31.2l0.1-139.5l-0.1-39c0-7.3,0.7-15.3-1.1-22.3l-0.4-0.5c-2.4-3.1-5.8-5.8-9.6-6.7c-6.1-1.3-13.8,0.2-20,0.2
			c-11.3,0-22.5-0.6-33.8-1.9l-24.3-4.5c-25.2-5.1-48.2-15.1-70.8-27.5c-4-18.2-9.2-31.3-20.9-46c-8-8.2-16.1-14.2-25.8-20.2l-1-0.4
			c-22.9-8.7-45.6-10.9-68.3-0.1c-18.8,9-34.9,25-41.9,45.3l-3.4,11l-9.1,6.9l0.2-134.5c-5.9-1.5-14.1-0.4-20.3-0.4l-39.9-0.1
			l-189.6,0.2l-57.3,0.5c-7.8,0.1-16.6,1.3-24.2,0.5c-1.2-0.1-2.3-0.7-3.3-1.3l75.4-70.2c-6.3-1.1-12.3,1.2-18.4,3l-20.8,5.7
			l-90.8,23.9c-10.1,2.7-22.1,7.2-32.4,8c-16.8,1.2-34.1,0.5-50.9,0.5l-99.5-0.1l-311.4,0.2l-67.9-0.2l-30.3-1.1V129.5z"/>
		<path class="st20" d="M1394.8,444.2c1.9-10,0.3-22.9,0.7-33.3l36,0.9l0.2,33.8c-3.7-0.8-8.1-0.4-11.9-0.4l-25.1-0.2L1394.8,444.2z
			"/>
		<path class="st4" d="M1283.8,246.8l58.9,0l0,26.9l-58.9,0.1V246.8z"/>
		<path class="st22" d="M892,64.5c3.9,0.5,7.9,0.9,11.2,3.3c4.7,3.3,6.4,8.2,7.4,13.7l0.2,1.1c2.4,2.8,10.4,0.5,14.9,3.9
			c3.2,2.4,4.2,5.1,4.8,9c-0.6,2.8-1.1,5-3.2,7c-4.5,4.4-16.4,2.7-22.5,2.6c-7.6,0-28,2.3-33.8-1.6c-3.6-2.5-6.2-5.6-7-10
			c-0.6-2.9-0.3-6.3,1.5-8.7c2.9-4,6.7-4.1,11.1-4.5c0.7-2,1.4-3.9,2.4-5.8C882,68.7,885.9,66.2,892,64.5z"/>
		<path class="st17" d="M1174.2,273.8l0.1-26.8l109.5-0.2v27L1174.2,273.8z"/>
		<path class="st20" d="M1001.8,332l0-17.9l117.3,0.3l0.2,45.6c-10.3-0.7-23-5.3-33.4-7.7L1001.8,332z"/>
		<path class="st17" d="M1283.8,273.8l58.9-0.1l-0.1,5.2c0,8.8,0.8,18.3-0.2,27l-63.1,1.3c-9.3-1.9-21.7-0.4-31.3-0.4l-73.1,0
			l-0.6-3l-0.2-25l0.1-5.1L1283.8,273.8z"/>
		<path class="st2" d="M1283.8,273.8l58.9-0.1l-0.1,5.2l-58.8,0l-109.8,0l0.1-5.1L1283.8,273.8z"/>
		<path class="st4" d="M1283.9,278.9l58.8,0c0,8.8,0.8,18.3-0.2,27l-63.1,1.3l3.4-1.4C1285.6,301.9,1283.9,284.5,1283.9,278.9z"/>
		<path class="st23" d="M1431.6,323.2l0-97.9l45.6,0.2c-3.1,15.3-1.9,29.1,6.7,42.4c7.9,12.4,20,21.1,34.3,23.9
			c3.9,0.8,7.9,1.1,11.9,0.9l-0.1,31.4c-7.8-1.2-17.2-0.2-25.2-0.2C1480.7,324.1,1455.5,325.6,1431.6,323.2z"/>
		<path class="st22" d="M713,130.6c5.3-3.9,10.1-6.1,16.8-4.9c2.9,0.5,5.7,1.6,8.5,2.6c3.1-14.6,8.6-26.9,21.4-35.3
			c10.1-6.7,22.1-9.4,33.9-6.6c12,2.8,23.3,11,29.7,21.8c4.7,8,6.5,16.4,5.7,25.6c-1.3,6.2-3.1,12.4-6.8,17.6
			c-3.9,5.5-11,11.7-17.8,12.5c-13,1.6-27.8,0.3-41,0.3c-13.3,0-28.4,1.3-41.5-0.2c-2.9-0.3-5.8-2.1-8-3.9c-3.8-3.1-6.8-8-7.3-13
			C706,140.3,709.1,135.6,713,130.6z"/>
		<path class="st23" d="M1001.8,332l84,20.3c10.4,2.4,23.1,7,33.4,7.7v52.6l-117.5-0.3L1001.8,332z"/>
		<path class="st12" d="M1001.7,412.3l117.5,0.3l0,61.5l-0.1,44.7c0.1,112.9,0,438.9,0.1,551.8c-4-18.2-39.2,10.3-117.5,0
			c0-203.3,0-377.1,0-645.6L1001.7,412.3z"/>
		<path class="st21" d="M1027.3,445.2l61.6,0.2l-0.1,97.9c8.2-0.2,23.6-7.7,30.8,3.3v450.3c-25.4-17.8-69.7,87.8-92.3,44.3
			C1027.3,445.2,1027.3,1041.2,1027.3,445.2z"/>
		<path class="st22" d="M8.3,232.9c15.6-4.1,30.8-3.1,45,5.3c11.8,7,20.8,20.4,24.2,33.7c5,20.1-2,35.9-11.7,52.9l-78.5,0
			c-11.2,0-27.2,2.1-37.8-1c-6.2-1.8-10.9-7-13.7-12.8c-2.8-5.9-2.6-11.9-0.5-17.9c2.2-6.3,7.5-11.6,13.4-14.3
			c7.8-3.6,14.4-1.4,21.9,1.6c0.8-6.1,2.1-12,4.5-17.6C-18.4,247-6.8,238.9,8.3,232.9z"/>
		<path class="st7" d="M8.3,232.9c10-18.5,27.2-31.2,46.9-37.2c23-6.9,47.3-3.1,68.1,8.7c15.6,8.9,28.5,22.8,36.7,39
			c0.6,1.2,6,15,6,15c0.9,0.5,11.6-2.3,13.6-2.4c17.8-1.2,34.7,8.9,39.7,27c1.4,5,1.3,12.4-0.1,17.4c-2.7,10.2-8.9,17.3-16.1,24.6
			l-137.5-0.1c9.7-17.1,16.7-32.8,11.7-52.9c-3.3-13.3-12.4-26.7-24.2-33.7C39.1,229.8,23.9,228.8,8.3,232.9z"/>
		<path class="st5" d="M999.8,240.1c1.7,5.4,0.9,12.6,0.9,18.3l0,35.3v677.9c-122.7,109.3,0,0-122.7,109.3l-1.6-728.3
			c8.9-5,19.6-15.6,27.1-22.8C913.6,320.4,995.2,241.2,999.8,240.1z"/>
		<path class="st2" d="M619.2,283.3c2.7-1,7.9-7.3,10.2-9.4c12.1-11.3,23.8-23.3,36.5-33.8l244.8,0.1l61.6,0c8.3,0,20-1.5,27.8,0.8
			c-4.6,1-86.2,80.2-96.2,89.7c-7.6,7.2-18.2,17.8-27.1,22.8c-6.1-0.6-12.4,1.5-18.6,1.5l-40.2-0.2H628.8l-57.6,0.4
			c-7.8,0.1-16.8,1-24.5,0.2c-1.2-0.1-2.7-0.5-3.7-1.1L619.2,283.3z"/>
		<path class="st7" d="M1531,129c7.6-11.3,16.6-21.7,26.7-30.8c31.1-27.8,71.4-40,112.4-37c44.5,3.3,78.4,28.9,106.7,62.3
			c-28.4,2.8-53.8,12.3-72.4,35.4c-15.8,19.7-23.5,44.1-21,69.6c2,20.2,11.8,40,27.4,52.7l17.3,11.6l-198.2-0.1
			c-4,0.2-8-0.1-11.9-0.9c-14.3-2.8-26.4-11.5-34.3-23.9c-8.5-13.3-9.8-27.2-6.7-42.4c5.5-14.2,13.6-23.4,27.3-29.7
			c0.8-0.4,4.5-1.7,4.9-2.2c0.3-0.4,0.4-4.6,0.5-5.5c0.5-5.1,1.4-10,2.7-15C1516.5,157.2,1522.8,143.2,1531,129z"/>
		<path class="st3" d="M1174.3,303.8l0.6,3l73.1,0c9.6,0,22-1.6,31.3,0.4l63.1-1.3l1,3.7c5.8,1.1,12.4,0.5,18.2,0.5l32.3-0.1
			l0.1,101.4l0.1,23.4c0,2.9-0.5,7,0.5,9.6l0,0.8c-1.6,6.7-0.8,14.9-0.8,21.8l0,42.3l0.1,53.7c0,9.1-0.6,18.7,0.1,27.7l0,182.4
			l-161.2-37c-24.5-142.4-24.6,58.4-24.5-142.4l-0.1-39c0-7.3,0.7-15.3-1.1-22.3l-0.4-0.5c-2.4-3.1-5.8-5.8-9.6-6.7
			c-6.1-1.3-13.8,0.2-20,0.2c-11.3,0-22.5-0.6-33.8-1.9l-24.3-4.5l0.1-44.7l0-61.5V360l-0.2-45.6l0.4-3.2c2.2-2.2,9.9-1.2,13.2-1.2
			l30.2,0c3.2,0,8.2,0.7,10.8-1.1L1174.3,303.8z"/>
		<path class="st10" d="M1276.8,489.5l61.4,0.1l-0.1,22.9l-62.7,0.3l-0.1-0.9c-1.6-4.1-1.3-17.1,0.2-21.4L1276.8,489.5z"/>
		<path class="st10" d="M1333.5,352.1l4,0.6c2.4,5.2,0.9,17.6,0.9,23.7l-38.7,0c-6.5,0-13.6-0.6-20,0.2c-1.8-0.2-2.6-0.6-4.1-1.5
			c0-5.4-1.6-19.1,1.5-22.8c4.7,1.6,11.8,0.7,16.9,0.7C1307,352.8,1320.4,353.2,1333.5,352.1z"/>
		<path class="st2" d="M1207.2,532.1c4.3-2.1,11.2-3.2,15.8-1.1c3.6,1.6,6.4,6.5,7.6,10.2c1.2,3.9,0.9,8.7,1,12.7l0.5,22.2
			l0.9,123.9l0.2,32.9c0,6.8-1.1,14.7,1.1,21.2l-26.1,10.3l0.1-31.2l0.1-139.5l-0.1-39C1208.3,547.2,1209.1,539.2,1207.2,532.1z"/>
		<path class="st18" d="M1174.9,286.1l0.6,3l0.9,2.9l103.9,0.3l0.2,29.4c0,3.7-0.6,8.7,0.6,12l34.8,0c5.8,0,12.5-0.6,18.2,0.6
			c-13.1,1.1-26.5,0.7-39.6,0.8c-5.1,0-12.1,0.9-16.9-0.7c-3.1,3.8-1.5,17.4-1.5,22.8c0,18.7,0.2,10.2,0,18.7
			c-0.3,9.2,2.2,18.4,2.8,27.5l43.2-0.1c4.1,0,12.6-1.1,15.9,1.3c2.1,6.2,1,15.3,0.9,21.9l-1.6,1.8l-59.6,0.4l0.1,31.2
			c0,3.5,0.6,8.6-0.4,11.8l-1.2,1c-1.4,4.3-1.8,17.3-0.2,21.4l0.1,0.9l-0.1,102c-132-31.2,0,0-132-31.2l-24.3-4.5l0.1-105l0-61.5
			v-52.6l-0.2-45.6l0.4-3.2c2.2-2.2,9.9-1.2,13.2-1.2l30.2,0c3.2,0,8.2,0.7,10.8-1.1L1174.9,286.1z"/>
		<path class="st24" d="M1277.5,445.1l-2.3-1.5l0-19.2l2.4-1.7c1.6,4.4,2.2,16.5,0.7,20.8C1278.2,444,1277.8,444.7,1277.5,445.1z"/>
		<path class="st10" d="M1277.7,422.7l59.8-0.3c2.1,6.2,1,15.3,0.9,21.9c-5.8,2.1-14.7,0.9-20.9,0.9c-13.2,0-26.8,0.7-39.9-0.2
			c0.2-0.4,0.7-1.1,0.9-1.6C1279.9,439.2,1279.2,427.1,1277.7,422.7z"/>
		<path class="st7" d="M1174.7,422.7l61.4-0.3l0,22.8l-61.3,0V422.7z"/>
		<path class="st7" d="M1174.6,489.5l61.4,0.1l0,23.2l-61.4,0L1174.6,489.5z"/>
		<path class="st7" d="M1174.7,352.8l61.7-0.3l0,23.4l-61.6,0.1V352.8z"/>
		<path class="st10" d="M1276.2,729.1l61.4,0.1l-0.1,22.9l-62.7,0.3l-0.1-0.9c-1.6-4.1-1.3-17.1,0.2-21.4L1276.2,729.1z"/>
		<path class="st10" d="M1332.8,591.7l4.1,0.5c2.4,5.2,0.9,17.6,0.9,23.7l-38.7,0c-6.5,0-13.6-0.6-20,0.2c-1.8-0.2-2.7-0.6-4.2-1.5
			c0-5.4-1.6-19.1,1.5-22.8c4.7,1.6,11.8,0.7,16.9,0.7C1306.4,592.4,1319.7,592.8,1332.8,591.7z"/>
		<path class="st10" d="M1277,662.3l59.8-0.3c2.1,6.2,1,15.3,0.9,21.9c-5.8,2.1-14.7,0.9-20.9,0.9c-13.2,0-26.8,0.7-39.9-0.2
			c0.2-0.4,0.7-1.1,0.9-1.6C1279.3,678.8,1278.6,666.7,1277,662.3z"/>
		<path class="st7" d="M1174.1,662.3l61.3-0.3l0,22.8l-61.3,0V662.3z"/>
		<path class="st7" d="M1174,729.1l61.4,0.1l0,23.2l-61.4,0L1174,729.1z"/>
		<path class="st7" d="M1174.1,592.4l61.7-0.3l0,23.4l-61.6,0.1V592.4z"/>
		<path class="st10" d="M1278.2,990.1l61.4,0.1l-0.1,22.9l-62.7,0.3l-0.1-0.9c-1.6-4.1-1.3-17.1,0.2-21.4L1278.2,990.1z"/>
		<path class="st10" d="M1334.8,852.6l4.1,0.5c2.4,5.2,0.9,17.6,0.9,23.7l-38.7,0c-6.5,0-13.6-0.6-20,0.2c-1.8-0.2-2.7-0.6-4.2-1.5
			c0-5.4-1.6-19.1,1.5-22.8c4.7,1.6,11.8,0.7,16.9,0.7C1308.4,853.3,1321.7,853.7,1334.8,852.6z"/>
		<path class="st10" d="M1279,923.2l59.8-0.3c2.1,6.2,1,15.3,0.9,21.9c-5.8,2.1-14.7,0.9-20.9,0.9c-13.2,0-26.8,0.7-39.9-0.2
			c0.2-0.4,0.7-1.1,0.9-1.6C1281.3,939.7,1280.6,927.6,1279,923.2z"/>
		<path class="st7" d="M1176.1,923.2l61.3-0.3l0,22.8l-61.3,0V923.2z"/>
		<path class="st7" d="M1176,990l61.4,0.1l0,23.2l-61.4,0L1176,990z"/>
		<path class="st7" d="M1176.1,853.3l61.7-0.3l0,23.4l-61.6,0.1V853.3z"/>
		<path class="st12" d="M1776.9,123.5c13.9,0.7,26,3.4,39,8.5c24.1,12.3,45,32.5,53.9,59.1l3.8,14.2c11-5.3,21.2-8.1,33.2-4
			c11.8,4,22.6,12.7,28.3,24.1l2.6,5.5l2.2-0.4c10.8-2,22.7-1.2,33.7-1.4c23.4-0.4,47.1-0.9,70.4,0.7v94.7v88.8l-47.8-0.3
			c-4.5-13.6-7.5-26.2-8.9-40.4c-0.4-3.7,0.2-15.3-1.5-18c-1.6,3.7-1.4,8.3-1.8,12.3l-2.5,18.5c-1.7,9.5-4.6,18.5-6.9,27.8
			l-78.8-0.8l-208.7,0.6l-50.7,0.1c-6.4,0-14.7-1.5-20.8,0.1c-0.2,2.6,0.1,5.2-1.3,7.4l-68.1-0.1l-108.3,0
			c-0.1,5.7,1.3,18.8-0.8,23.6l-5.4,1.4l-0.2-33.8l0.4-3.3c-1-9.1-0.3-19.1-0.4-28.2l0.1-57.2c23.9,2.4,49.2,0.9,73.2,0.8
			c8,0,17.3-1,25.2,0.2l0.1-31.4l198.2,0.1l-17.3-11.6c-15.6-12.7-25.4-32.6-27.4-52.7c-2.5-25.5,5.2-49.9,21-69.6
			C1723.1,135.9,1748.6,126.3,1776.9,123.5z"/>
		<path class="st23" d="M1431.8,408.6c1.4,1.9,1.9,2,4,2.9l0.5-2.7c0.5,11.6-0.6,24,0.7,35.4l-5.4,1.4l-0.2-33.8L1431.8,408.6z"/>
		<path class="st17" d="M1546.4,387.9l68-0.3l0.1,28.3l-0.3,4.8l-68.1-0.1l-108.3,0l-0.2-4.5l0.1-28.1L1546.4,387.9z"/>
		<path class="st2" d="M1546.4,416.1l68.1-0.2l-0.3,4.8l-68.1-0.1l-108.3,0l-0.2-4.5L1546.4,416.1z"/>
		<path class="st4" d="M1546.4,387.9l68-0.3l0.1,28.3l-68.1,0.2L1546.4,387.9z"/>
		<path class="st20" d="M1937.7,230.9l2.2-0.4c10.8-2,22.7-1.2,33.7-1.4c23.4-0.4,47.1-0.9,70.4,0.7v94.7l-514-0.4l0.1-31.4
			l198.2,0.1l119.5,0l36.1,0.1c6.2,0,13.3,0.7,19.3-0.7c12.8-3,23.4-10.2,30.2-21.9C1940.8,257.6,1941.2,245,1937.7,230.9z"/>
		<path class="st22" d="M1776.9,123.5c13.9,0.7,26,3.4,39,8.5c24.1,12.3,45,32.5,53.9,59.1l3.8,14.2c11-5.3,21.2-8.1,33.2-4
			c11.8,4,22.6,12.7,28.3,24.1l2.6,5.5c3.4,14.1,3.1,26.7-4.4,39.5c-6.8,11.6-17.4,18.9-30.2,21.9c-6,1.4-13.1,0.7-19.3,0.7
			l-36.1-0.1l-119.5,0l-17.3-11.6c-15.6-12.7-25.4-32.6-27.4-52.7c-2.5-25.5,5.2-49.9,21-69.6
			C1723.1,135.9,1748.6,126.3,1776.9,123.5z"/>
		<path class="st25" d="M27,945.3c13.8-0.5,25.8,1.3,36.4,11.2c9.5,8.9,14.4,19.6,14.8,32.8l-0.3,7.7c8.3-8.6,16.6-13.5,28.8-13.6
			c10.3-0.1,20.8,4.2,28,11.7c8.1,8.4,11.4,18,11.3,29.6c0,2.6-0.1,5.4-0.8,7.9c-0.8,2.8-2.8,5.8-2.1,8.7c9.3,0.8,17.6,2.1,24,9.8
			c4.6,5.6,7.5,12.8,6.8,20.2l-1.4,7.7c-4.5,2.1-11.8,1.1-16.8,1.1l-37.6,0.1c-23.4-1.1-23.4-1.1-23.4-1.1c1.9-4.1,2.3-9.1,1-13.4
			c-1.5-5-3.8-9.2-8.5-11.6c-7.3-3.8-10.9-1.2-17.7,1c1.4-5.6,1.1-12.1-1.2-17.4l-0.3-0.8c-3-7-9.5-14-16.3-17.2
			c-9.3-4.4-16.6-4.1-26.4-2.3l-1.7-8.9c-3.7-12.8-11.8-20.8-22.9-27l-0.8-23.8C8.6,950.8,15.8,946.9,27,945.3z"/>
		<path class="st9" d="M-129,1079.2l-0.4-6.1c-0.1-5.9,2.5-13.1,6.6-17.2c5.5-5.6,9.8-5.5,17.1-5.6l0.8,0l1.2,0l-0.8-3.3
			c-2-7.8-0.9-14.9,2.6-22.1c3.2-6.4,9.4-11.1,15.9-13.2c9.5-3.2,17.4-0.7,25.8,3.9l1.4-5.7c3.1-11,11-22.1,21-27.6
			c12.7-7,25.9-5.5,39.1-1.4c11.1,6.1,19.2,14.2,22.9,27l1.7,8.9c9.8-1.8,17.1-2.1,26.4,2.3c6.8,3.2,13.3,10.3,16.3,17.2l0.3,0.8
			c2.3,5.3,2.6,11.7,1.2,17.4c6.7-2.2,10.4-4.8,17.7-1c4.7,2.5,7.1,6.6,8.5,11.6c1.3,4.3,0.9,9.3-1,13.4c-3.2,1.3-7.4,0.8-10.8,0.8
			l-21.7,0l-97.7,0c-15.4,0-32.2-1.4-47.5,0.2L-129,1079.2z"/>
		<path class="st8" d="M-163.5,1079.2l-2.4-4.9c-2.2-6-0.8-12.7,1.8-18.3c2.9-6,9.4-12.4,15.8-14.1c3.3-0.9,6.7-0.8,9.9-1.9
			c-4.5-7-7.7-13.7-7.8-22.3c-0.2-11.1,3.9-20.7,11.4-28.6c6.4-6.7,14.9-11.1,24.1-11.3c13.2-0.2,21.7,4.2,31.1,13.5
			c0.3-8.9,1.7-17.1,6.1-24.9c5.6-10,15-18.3,26-21.3c14.4-3.9,26-1.6,38.6,6c2.6,1.8,6.4,5.2,9.4,5.9l0.8,23.8
			c-13.2-4.2-26.4-5.6-39.1,1.4c-10,5.5-17.9,16.7-21,27.6l-1.4,5.7c-8.4-4.5-16.3-7-25.8-3.9c-6.5,2.2-12.8,6.8-15.9,13.2
			c-3.5,7.2-4.6,14.3-2.6,22.1l0.8,3.3h-1.2l-0.8,0c-7.3,0.1-11.6,0.1-17.1,5.6c-4.1,4.1-6.7,11.3-6.6,17.2l0.4,6.1L-163.5,1079.2z"
			/>
		<path class="st8" d="M1008,951.4l-7.2,8.7c-7.7-10.9-16.6-17.7-29.9-19.9c-11.2-1.8-23.5,1-32.7,7.8c-9.4,7-16.7,18.5-18.2,30.3
			c-0.7,5.6-0.3,11.5,0.1,17.1c-11.1-8.2-21.6-13.8-35.7-12.4c-13.5,3.3-24.3,9.3-31.8,21.7c-7.1,11.7-9.2,25-5.9,38.3l1.6,5.7
			c-2.7,1.5-5.8,0.6-8.8,0.8c-11.3,1-21.3,11-24.3,21.9l-2.2,10.6l357.7,0.1c1.3-3.4,2.7-7,3.2-10.7c0.8-6.2-1.8-13.2-5.6-18
			c-6.9-8.8-14.5-10.8-25-12c3.1-5.6,5.8-11.2,6.5-17.7c1.2-11.4-2-21.8-9.2-30.5c-6.6-8.1-16.2-12.7-26.4-13.4
			c-13-0.9-21.7,3.9-31.2,12.3c-0.2-4.5-0.7-9.2-1.7-13.6c-3.4-14.7-12.5-23.8-24.7-31.4c-12.9-5.1-25-7.3-38.2-1.4
			C1014.8,947.3,1011.2,949.2,1008,951.4z"/>
		<path class="st9" d="M1025.9,979.5l-10.2,0c-10.4,0.5-19.8,6.5-26.5,14.3c-8.3,9.6-8.6,21.5-7.8,33.5c-6.8-5.9-13.3-8.9-22.5-8.3
			c-6.6,0.4-13.1,3.7-17.4,9c-6,7.4-7.6,14.3-6.6,23.8c0.1,1.2,0.2,1.4-0.2,2.5c-1.7-0.6-3.5-1.3-5.2-1.6c-4.5-0.7-9.4-0.7-13.1,2.2
			c-4.4,3.4-6.9,8.1-7.5,13.7c-0.5,4.2-0.5,9.5,2.3,12.9l108-0.1l83.4,0.2l23.1,0c3.9,0,8.1,0.5,11.7-1.1c0.7-1,1.4-2,1.7-3.2
			c1.3-4.1,0.3-9.8-1.6-13.6c-2.2-4.5-5.4-8.2-10.1-9.8c-6.2-2.2-11.7,0.2-17.1,3.1c-0.1-2.9,0.7-5.5,0.9-8.3
			c0.5-7.3-1-13.4-4.8-19.5c-4.6-7.5-11.9-12.8-20.4-14.6c-10.4-2.2-17.4,0.2-26,6.1c-1.3-8.7-1.8-15.8-6.6-23.4
			C1046.8,986.7,1037.4,982.2,1025.9,979.5z"/>
		<path class="st14" d="M1554.4,829.7l51.6,0l0,19.8l-51.5-0.1L1554.4,829.7z"/>
		<path class="st14" d="M1554.3,695.8l51.7,0.1l-0.1,19.7l-51.6,0L1554.3,695.8z"/>
		<path class="st14" d="M1556.9,762.6l49.1,0.1l0,19.8l-51.5,0l0-18.3L1556.9,762.6z"/>
		<path class="st14" d="M1444.1,763.2l52.6-0.1v19.7l-52.5-0.1L1444.1,763.2z"/>
		<path class="st14" d="M1444.1,695.9h52.9l-0.1,19.8l-52.8,0L1444.1,695.9z"/>
		<path class="st14" d="M1444.3,829l52.6,0l0,20l-52.7,0L1444.3,829z"/>
		<path class="st14" d="M1554.4,1033.4l51.6,0l0,19.8l-51.5-0.1L1554.4,1033.4z"/>
		<path class="st14" d="M1554.3,899.5l51.7,0.1l-0.1,19.7l-51.6,0L1554.3,899.5z"/>
		<path class="st14" d="M1556.9,966.3l49.1,0.1l0,19.8l-51.5,0l0-18.3L1556.9,966.3z"/>
		<path class="st14" d="M1444.1,966.9l52.6-0.1v19.7l-52.5-0.1L1444.1,966.9z"/>
		<path class="st14" d="M1444.1,899.6h52.9l-0.1,19.8l-52.8,0L1444.1,899.6z"/>
		<path class="st14" d="M1444.3,1032.7l52.6,0l0,19.9l-52.7,0L1444.3,1032.7z"/>
	</g>
</g>
</svg>
