<svg width="4295" height="1080" viewBox="0 0 4295 1080" fill="none" xmlns="http://www.w3.org/2000/svg">
<g clip-path="url(#clip0_404_3425)">
<path d="M2147.22 129.498V0H-0.190918V132.046V229.815V324.547V413.384V505.447V608.137V699.28V1020.41V1079.24V1236H2147.22V1080.14V1079.21V967.888V665.102V583.397V505.227V412.561V322.422V129.498Z" fill="#053157"/>
<path d="M169.207 867.454C166.104 867.435 163.26 866.818 160.594 868.527L160.511 884.058L207.152 884.167L217.901 883.966C220.403 881.054 219.176 871.795 219.176 867.656L169.207 867.454Z" fill="#053F6C"/>
<path d="M303.668 717.178L253.569 717.313C253.581 721.908 252.484 729.744 254.667 733.591L259.587 733.858L312.34 734.116L312.186 718.854C309.862 716.468 306.877 717.247 303.668 717.178Z" fill="#053F6C"/>
<path d="M312.162 815.298L253.568 815.051L253.793 832.182L311.962 832.518L312.162 815.298Z" fill="#053F6C"/>
<path d="M219.08 815.333L160.569 815.07L160.663 832.201L219.104 832.49L219.08 815.333Z" fill="#053F6C"/>
<path d="M219.07 716.943L160.441 716.826L160.382 734.04L219.152 734.095L219.07 716.943Z" fill="#053F6C"/>
<path d="M312.221 866.928L253.568 866.96L253.839 884.323L312.185 884.759L312.221 866.928Z" fill="#053F6C"/>
<path d="M218.986 765.226L160.345 765.072L160.451 782.668L219.092 782.763L218.986 765.226Z" fill="#053F6C"/>
<path d="M312.316 765.014L253.664 765.066L253.711 783.074L312.305 783.254L312.316 765.014Z" fill="#053F6C"/>
<path d="M304.136 917.051L254.038 917.186C254.05 921.781 252.952 929.617 255.135 933.464L260.056 933.731L312.809 933.989L312.655 918.728C310.331 916.341 307.346 917.12 304.136 917.051Z" fill="#053F6C"/>
<path d="M312.631 1015.17L254.037 1014.92L254.261 1032.05L312.43 1032.39L312.631 1015.17Z" fill="#053F6C"/>
<path d="M219.549 1015.2L161.038 1014.94L161.132 1032.07L219.572 1032.36L219.549 1015.2Z" fill="#053F6C"/>
<path d="M219.538 916.814L160.909 916.697L160.85 933.911L219.621 933.966L219.538 916.814Z" fill="#053F6C"/>
<path d="M219.454 965.099L160.814 964.945L160.92 982.541L219.561 982.636L219.454 965.099Z" fill="#053F6C"/>
<path d="M312.785 964.885L254.133 964.937L254.18 982.946L312.773 983.125L312.785 964.885Z" fill="#053F6C"/>
<path d="M183.413 645.832L182.316 645.897L146.754 645.936L146.789 666.895C152.11 668.014 158.789 667.25 164.311 667.286L202.303 667.379L322.003 666.822L322.346 646.209L303.904 646.143L266.183 646.18L215.766 645.989L183.413 645.832Z" fill="#4B307D"/>
<path d="M649.661 768.492C649.661 864.938 650.945 984.219 650.945 1080.66C818.192 1080.66 607.138 1080.66 810.744 1080.66C810.742 1005.96 810.745 833.466 810.744 737.02C761.521 737.02 649.519 777.781 649.661 768.492Z" fill="#052748"/>
<path d="M358.343 505.525L358.024 466.027L303.914 466.321L303.997 505.601L303.867 597.759L266.229 597.854L266.181 646.18L303.903 646.144L322.344 646.209L322.002 666.823L347.901 666.396L346.969 958.331C374.213 958.331 346.969 958.331 374.213 958.331C383.783 958.331 374.213 958.331 383.783 958.331L383.782 566.975L358.142 567.102L358.343 505.525Z" fill="#1C92B8"/>
<path d="M303.869 597.758L266.23 597.853L266.183 646.179L303.904 646.143L303.869 597.758Z" fill="#62E2FB"/>
<path d="M69.1636 413.206C66.8038 403.914 63.9249 394.901 62.2258 385.436L59.7599 366.937C59.3823 362.916 59.571 358.319 58.0017 354.609C56.2908 357.343 56.8809 368.967 56.5152 372.633C55.0875 386.895 52.0905 399.443 47.6423 413.047L-0.190687 413.383V505.446V608.137V699.28V1020.41V1079.24L123.321 1080.03L123.474 831.506L123.498 666.261L146.789 666.894L146.754 645.935L182.316 645.896L183.413 645.831L215.766 645.988L266.183 646.179L266.23 597.853L303.868 597.757L303.998 505.599L303.916 466.319L358.026 466.026L358.344 505.523L358.143 567.1L383.783 566.973L383.688 505.934L383.665 446.014L428.288 445.688L429.409 445.587L429.551 420.664C428.111 418.464 428.406 415.841 428.229 413.218C422.153 411.656 413.858 413.095 407.463 413.123L356.728 413.027L148.004 412.455L69.1636 413.206Z" fill="#2599C5"/>
<path d="M47.6387 413.047L-0.194339 413.384V505.446C8.17112 505.247 18.743 503.718 26.8607 505.263C26.7191 492.969 25.2089 478.83 26.8371 466.719C27.4507 462.103 30.5538 456.994 32.2646 452.66L47.6387 413.047Z" fill="#44D1CF"/>
<path d="M119.238 505.201L88.1005 505.447L88.313 576.488C88.3248 586.684 89.4692 598.514 88.0887 608.493L87.723 674.974C91.3453 677.035 102.354 675.88 106.849 675.878L106.825 608.446L106.696 522.807L119.273 522.587L119.238 505.201Z" fill="#44CFD0"/>
<path d="M26.8626 505.264C18.7449 503.719 8.173 505.248 -0.192462 505.447V608.138V699.281L26.9688 699.381V607.683L26.8626 505.264Z" fill="#44CFD0"/>
<path d="M123.473 831.507L113.054 831.488C110.152 827.904 111.898 778.684 111.921 769.981L51.3927 769.912L51.9238 890.721L27.9364 890.423L28.0898 1021.01L-0.19225 1020.41V1079.24L123.319 1080.03L123.473 831.507Z" fill="#1C92B8"/>
<path d="M429.551 420.666C428.111 418.466 428.406 415.843 428.229 413.22C422.153 411.658 413.858 413.097 407.463 413.125L356.728 413.029L148.004 412.457L69.1636 413.208L82.1307 447.996C84.0067 453.039 86.9801 459.005 87.6054 464.351C89.446 480.274 87.4048 498.844 87.1807 514.967L87.0626 608.918L86.8621 657.361C86.8621 662.131 85.8355 670.867 87.7234 674.974L88.0891 608.493C89.4695 598.515 88.3251 586.685 88.3133 576.489L88.1009 505.448L119.238 505.202C123.167 502.809 130.082 503.907 134.73 503.932L170.823 504.124C170.812 509.051 169.514 518.181 171.944 522.197L181.206 522.687C184.121 527.712 182.351 545.109 182.351 552.024L182.316 645.898L183.413 645.833L215.766 645.99L266.183 646.181L266.23 597.855L303.868 597.759L303.998 505.601L303.916 466.321L358.026 466.027L358.344 505.525L358.143 567.102L383.783 566.975L383.688 505.936L383.665 446.016L428.288 445.69L429.409 445.589L429.551 420.666Z" fill="#44D1CF"/>
<path d="M215.622 633.438L215.032 608.439L183.387 608.569C183.411 620.414 184.709 634.169 183.411 645.831L215.764 645.988L215.622 633.438Z" fill="#44CFD0"/>
<path d="M266.23 597.854L266.371 582.043L253.38 582.019L253.404 558.895L225.853 558.916L226.03 585.277C222.503 588.125 218.16 585.134 215.706 588.496L215.624 633.44L215.765 645.989L266.182 646.18L266.23 597.854Z" fill="#2599C5"/>
<path d="M497.654 420.615L429.55 420.666L429.409 445.589L428.288 445.69L383.664 446.016L383.688 505.935L383.782 566.975V958.331C374.213 958.331 383.782 958.331 374.213 958.331L373.458 982.1C373.458 1080.27 373.458 982.1 373.458 1080.27L538.266 1080.46L639.996 1080.27H650.698C648.067 1078.28 653.683 1077.43 650.663 1076.21L650.698 1025.7C642.108 1016.33 633.743 1006.27 627.206 995.276C620.174 983.442 614.652 969.688 612.54 955.965C610.593 943.309 611.75 928.82 611.714 915.98V836.124L611.773 802.4C611.785 797.215 611.077 790.958 612.257 785.997L649.719 772.948L649.695 590.598C650.391 581.562 649.778 571.979 649.789 562.894L649.837 509.203L649.848 466.887C649.848 459.998 650.722 451.728 649.082 445.049L624.009 445.289C620.257 445.326 615.797 444.885 612.127 445.684L606.711 444.24C604.599 439.458 605.98 426.37 605.921 420.656L497.654 420.615Z" fill="#5D3E9A"/>
<path d="M489.383 629.82L437.809 629.779L437.821 649.596L489.347 649.502L489.383 629.82Z" fill="#EB8CD5"/>
<path d="M489.429 495.963L437.762 496.051L437.856 515.717L489.488 515.703L489.429 495.963Z" fill="#EB8CD5"/>
<path d="M486.905 562.744L437.833 562.808L437.845 582.635L489.371 582.676L489.324 564.387L486.905 562.744Z" fill="#EB8CD5"/>
<path d="M497.653 420.615L429.55 420.666L429.408 445.589C438.057 444.513 447.13 445.042 455.838 445.049L497.795 445.213L497.653 420.615Z" fill="#4B307D"/>
<path d="M605.921 420.656L497.654 420.615L497.795 445.213L521.016 445.293L522.502 1016.05L523.541 1017.13C523.399 1018.46 523.328 1019.22 522.833 1020.44C520.886 1025.28 522.62 1031.33 522.502 1036.44C524.355 1038.35 522.443 1041.07 524.697 1041.44C526.136 1041.68 527.033 1042.27 528.225 1043.05C529.098 1043.62 528.484 1043.27 529.464 1043.67C533.428 1045.28 539.174 1052.2 540.85 1056.02C541.286 1057.02 541.086 1056.89 541.369 1057.9C542.018 1060.23 542.903 1061.81 543.21 1064.33L543.363 1065.47C543.835 1069.23 543.316 1074.09 542.431 1077.76C546.218 1077.76 549.711 1077.27 552.908 1078.83C553.569 1079.15 556.601 1078.83 557.427 1078.83L576.247 1078.82C581.615 1078.82 586.736 1079.2 591.715 1077.76C594.205 1077.04 595.125 1079.47 598.641 1078.08C600.989 1077.15 604.883 1077.72 607.443 1077.76L608.493 1078.82L609.531 1077.76C612.033 1079.46 614.971 1078.86 617.956 1078.88C624.434 1078.95 633.802 1078.15 639.996 1080.27H650.698C648.067 1078.28 653.683 1077.43 650.663 1076.21L650.698 1025.7C642.108 1016.33 633.743 1006.27 627.206 995.276C620.174 983.442 614.652 969.688 612.54 955.965C610.593 943.309 611.75 928.82 611.714 915.98V836.124L611.773 802.4C611.785 797.215 611.077 790.958 612.257 785.997L649.719 772.948L649.695 590.598C650.391 581.562 649.778 571.979 649.789 562.894L649.837 509.203L649.848 466.887C649.848 459.998 650.722 451.728 649.082 445.049L624.009 445.289C620.257 445.326 615.797 444.885 612.127 445.684L606.711 444.24C604.599 439.458 605.98 426.37 605.921 420.656Z" fill="#7546AA"/>
<path d="M599.633 563.301L547.08 563.156V582.892L599.597 582.827L599.633 563.301Z" fill="#EB8CD5"/>
<path d="M599.691 496.037H546.784L546.926 515.803L599.762 515.824L599.691 496.037Z" fill="#EB8CD5"/>
<path d="M599.503 629.16L546.927 629.192L546.974 649.141L599.633 649.185L599.503 629.16Z" fill="#EB8CD5"/>
<path d="M649.696 590.598C647.077 605.88 648.858 624.053 648.835 639.632L648.8 740.917L521.729 781.082V1040.87L533.476 1047.17C539.069 1055.18 536.556 1044.89 539.069 1055.18C542.985 1067.19 542.985 1063.19 541.307 1079.21C650.699 1080.93 541.307 1079.21 650.699 1080.93V1025.7C649.72 772.947 650.699 1025.7 649.72 772.947L649.696 590.598Z" fill="#5D3E9A"/>
<path d="M1529.58 530.598C1522.54 530.617 1172.04 531.655 1165.08 530.868L1165.26 557.751L1165.25 1106.26L1529.55 1106.41L1529.58 611.383C1529.58 530.598 1529.58 611.383 1529.58 530.598Z" fill="#1C92B8"/>
<path d="M1561.45 504.066L1523.73 504.305C1516.69 504.325 1169.14 505.037 1162.17 504.25L1162.35 531.133L1389.67 584.602C1561.77 584.602 1389.67 584.602 1561.77 584.602C1563.68 579.529 1561.81 568.253 1561.77 562.485L1561.45 504.066Z" fill="#44D1CF"/>
<path d="M1504.92 457.756L1504.85 437.052C1504.84 435.555 1504.33 431.317 1504.82 430.071C1505.07 429.454 1505.75 429.124 1506.21 428.65L1515.79 428.598L1515.81 448.299L1515.14 555.388L1537.03 555.287L1537.11 583.928L1548.24 584.052L1548.25 606.809L1593.83 606.757L1593.83 1077.09C1585.49 1078.71 1574.49 1077.37 1565.83 1077.38C1565.79 1033.84 1566.73 646.684 1565.29 643.082L1530.56 643.367C1529.38 639.233 1524.85 619.909 1521.53 618.277C1519.31 617.185 1517.46 618.429 1514.95 616.634L1514.62 612.061L1514.97 603.642C1515.01 599.751 1513.97 598.866 1511.42 596.245C1506.56 594.246 1499.4 595.224 1494.12 595.21L1456.28 595.018L1456.04 580.6L1478.32 580.807L1478.13 555.243L1505.54 555.351L1504.92 457.756Z" fill="#1C92B8"/>
<path d="M1569.3 584.608L1561.43 584.564L1529.58 584.581L1529.55 1079.61C1627.39 1080.18 1580.37 1096.84 1650.41 1079.61V584.962L1650.1 583.729C1642.48 585.506 1632.88 584.43 1625.04 584.438L1569.3 584.608Z" fill="#5D3E9A"/>
<path d="M1630.42 877.542L1572.82 877.498L1572.94 897.451L1630.35 897.566L1630.42 877.542Z" fill="#D067BE"/>
<path d="M1630.6 750.075L1572.74 750.061L1572.8 770.301L1630.52 770.362L1630.6 750.075Z" fill="#D067BE"/>
<path d="M1630.77 685.684L1572.73 685.739L1572.78 706.119L1630.72 706.282L1630.77 685.684Z" fill="#D067BE"/>
<path d="M1630.3 813.594L1572.64 813.652L1572.72 834.512L1630.38 834.309L1630.3 813.594Z" fill="#D067BE"/>
<path d="M1630.38 621.627L1572.61 621.68L1572.67 642.46L1630.45 642.439L1630.38 621.627Z" fill="#D067BE"/>
<path d="M2147.22 322.422L2116.92 323.495L2049.07 323.738L1737.67 323.503L1638.19 323.57C1621.36 323.545 1604.07 324.259 1587.3 323.09C1576.93 322.367 1564.96 317.774 1554.87 315.121L1464.11 291.228L1443.32 285.52C1437.29 283.77 1431.27 281.456 1424.94 282.523L1500.39 352.767C1500.74 353.157 1501.88 354.174 1502.02 354.599C1502.52 356.098 1502.04 360.242 1502.04 362.043L1502.09 382.045L1502 504.249C1508.96 505.036 1516.69 504.324 1523.73 504.305L1561.44 504.066L1561.77 562.485C1561.81 568.252 1563.12 578.591 1561.21 583.664L1561.43 584.564L1569.3 584.609L1625.04 584.439C1632.88 584.43 1642.47 585.507 1650.1 583.729L1650.41 584.962L1650.41 1080.14C2147.22 1079.21 1884.94 1080.11 2147.22 1080.14V1079.21V967.888V665.102V583.397V505.227V412.561V322.422Z" fill="#2599C5"/>
<path d="M2147.22 583.396L2109.34 583.907C2109.76 587.312 2109.66 591.817 2112.09 594.355L2120.48 594.6C2122.49 599.501 2121.27 609.006 2121.27 614.424L2121.2 665.121L2147.22 665.102V583.396Z" fill="#44D1CF"/>
<path d="M2003.42 667.056L2003.46 647.416L1850.45 647.97L1850.51 667.199C1864.92 665.639 1881.1 667.123 1895.69 667.056H2003.42Z" fill="#723D95"/>
<path d="M2147.22 505.229L2102.69 505.504C2097.97 505.515 2089.7 504.182 2085.58 506.331L2109.34 583.909L2147.22 583.399V505.229Z" fill="#44CFD0"/>
<path d="M2147.22 412.561L2084.48 412.943C2084.5 426.382 2086.21 442.433 2084.38 455.573L2085.58 506.329C2089.7 504.18 2097.97 505.513 2102.69 505.502L2147.22 505.227V412.561Z" fill="#44D1CF"/>
<path d="M2081.38 504.426L2043.36 504.877C2035.54 504.831 2026.95 505.341 2019.23 504.328L2019.4 622.579C2019.4 630.159 2017.52 657.329 2020.5 662.851C2027.53 664.389 2037.22 663.189 2044.55 663.214L2044.51 615.93C2044.52 609.785 2043.29 600.2 2045.55 594.544C2048.64 594.678 2051.89 595.192 2054.76 593.86L2056.71 583.791L2081.38 504.426Z" fill="#44CFD0"/>
<path d="M2056.71 583.79L2043.94 583.756C2041.55 586.252 2042.52 590.273 2042.54 593.713C2037.95 593.693 2023.61 592.181 2020.28 594.181L2020.33 642.334C2020.31 648.746 2019.32 656.673 2020.5 662.85C2027.53 664.388 2037.22 663.188 2044.55 663.214L2044.51 615.929C2044.52 609.784 2043.29 600.199 2045.55 594.543C2048.64 594.677 2051.89 595.191 2054.76 593.859L2056.71 583.79Z" fill="#44D1CF"/>
<path d="M1957.19 581.027C1955.36 573.717 1956.39 564.43 1956.37 556.886L1956.3 504.27L1813.67 504.837L1813.63 578.323L1866.78 578.405L1866.76 517.141L1909.29 517.146L1909.21 570.893L1941.81 570.861L1941.7 593.883L1941.64 647.119C1946.34 647.031 1951.6 647.432 1956.21 646.68C1958.4 643.339 1957.38 633.639 1957.37 629.349L1957.19 581.027Z" fill="#44CFD0"/>
<path d="M1956.21 646.68L1956.25 592.92L1941.7 593.883L1941.64 647.119C1946.34 647.031 1951.6 647.432 1956.21 646.68Z" fill="#44D1CF"/>
<path d="M2147.22 967.889L2118.47 967.992L2119.03 823.789L2100.59 823.812L2100.77 850.971L2080.29 850.889L2081.11 823.709L2063.1 823.761L2063.29 851.489L2043.27 851.472L2043.06 1079.27L2147.22 1079.21V967.889Z" fill="#1C92B8"/>
<path d="M2082.76 455.366L2082.73 412.752L1813.57 413.348L1813.67 504.838L1956.3 504.27L1956.37 556.887C1956.39 564.431 1955.36 573.718 1957.2 581.028L1957 483.689L2019.22 483.865L2019.23 504.328C2026.95 505.341 2035.54 504.832 2043.36 504.877L2081.38 504.426L2082.76 455.366Z" fill="#44D1CF"/>
<path d="M1773.87 1080.26L1773.87 584.705L1740.35 584.774L1650.41 584.962L1650.41 1080.26C1773.87 1080.26 1650.41 1080.26 1773.87 1080.26Z" fill="#7546AA"/>
<path d="M1735.54 749.963L1682.72 749.989L1682.74 770.619L1735.48 770.671L1735.54 749.963Z" fill="#EB8CD5"/>
<path d="M1735.94 685.603L1682.56 685.586L1682.56 706.273L1735.9 706.104L1735.94 685.603Z" fill="#EB8CD5"/>
<path d="M1735.87 876.33L1682.72 876.413L1682.73 897.061L1735.81 897.092L1735.87 876.33Z" fill="#EB8CD5"/>
<path d="M1735.87 813.392L1682.72 813.391L1682.8 834.382L1735.88 834.174L1735.87 813.392Z" fill="#EB8CD5"/>
<path d="M1735.97 621.94L1682.44 621.77L1682.43 642.701L1735.85 642.68L1735.97 621.94Z" fill="#EB8CD5"/>
<path d="M2003.42 667.057H1895.69C1881.09 667.125 1864.92 665.64 1850.51 667.201L1822.34 666.888V1079.21C2043.06 1079.27 1893.84 1080.11 2147.22 1080.14V1079.21L2043.06 1079.27L2043.27 851.471L2043.52 666.572L2003.42 667.057Z" fill="#01528F"/>
<path d="M1913.81 715.695L1860.18 715.664L1860.23 734.974L1913.73 735.222L1913.81 715.695Z" fill="#0169C2"/>
<path d="M1914.33 865.155L1860.13 864.891L1860.38 884.74L1914.26 884.659L1914.33 865.155Z" fill="#0169C2"/>
<path d="M2002.76 865.221L1952.42 865.31C1952.42 870.335 1951.24 879.554 1953.24 883.962L1956.91 884.565L2007.52 884.872C2007.61 880.041 2009.04 869.783 2006.71 865.794L2002.76 865.221Z" fill="#0169C2"/>
<path d="M1914.5 762.471L1860.01 762.554L1860.01 782.12L1914.45 782.173L1914.5 762.471Z" fill="#0169C2"/>
<path d="M2007.38 762.607L1952.49 762.518L1952.81 782.204L2007.35 782.187L2007.38 762.607Z" fill="#0169C2"/>
<path d="M2006.89 715.748L1952.5 715.619L1952.68 735.453L2006.87 735.652L2006.89 715.748Z" fill="#0169C2"/>
<path d="M1914.34 813.602L1860.29 813.449L1860.23 833.592L1914.43 833.566L1914.34 813.602Z" fill="#0169C2"/>
<path d="M2007.58 813.483L1952.81 813.396L1952.93 833.548L2007.53 833.591L2007.58 813.483Z" fill="#0169C2"/>
<path d="M1914.11 915.761L1860.06 915.607L1860 935.75L1914.2 935.724L1914.11 915.761Z" fill="#0169C2"/>
<path d="M2007.35 915.64L1952.58 915.553L1952.7 935.704L2007.3 935.748L2007.35 915.64Z" fill="#0169C2"/>
<path d="M2799.99 322.418L2116.92 323.491L2049.07 323.734L1737.67 323.498L1638.19 323.566C1621.36 323.541 1604.07 324.255 1587.3 323.085C1502.09 323.085 1126.78 322.561 1041.57 322.561C1038.19 381.681 1042.85 445.891 1042.81 506.047C1049.77 506.834 1516.69 504.32 1523.73 504.301L1561.44 504.062L1561.77 562.481C1561.81 568.248 1563.12 578.586 1561.21 583.659L1561.43 584.56L1569.3 584.605L1625.04 584.434C1632.88 584.426 1642.48 585.503 1650.1 583.725L1650.41 584.958L1740.35 584.77L1740.44 556.102L1740.52 549.239L1740.5 525.017L1691.01 524.916L1691.06 503.741L1690.77 398.655L1714.29 398.947L1714.09 380.716L1789.74 380.648L1789.56 398.466L1813.63 398.374L1813.58 413.344L2082.73 412.747L2082.76 455.362L2084.38 455.569C2086.21 442.43 2084.5 426.378 2084.48 412.939L2799.99 412.557V322.418Z" fill="#2AC1C2"/>
<path d="M1691.06 503.744L1619.67 503.85L1619.47 524.719L1649.86 524.711L1691.01 524.919L1691.06 503.744Z" fill="#44D1CF"/>
<path d="M1619.67 503.85L1619.76 471.42L1608.94 461.784C1608.22 461.099 1606.48 458.984 1605.65 458.64C1601.96 457.119 1599.51 460.319 1597.1 455.989L1593.18 348.609C1590.78 359.829 1591.61 371.606 1591.26 383.03L1589.61 427.351C1589.54 433.598 1591.36 453.696 1588.35 458.111C1585.94 458.214 1581.37 457.813 1579.19 458.502C1578.12 458.839 1575.45 461.784 1574.49 462.629L1561.34 473.949L1561.44 504.065L1561.77 562.484C1561.81 568.252 1563.12 578.59 1561.21 583.663L1561.42 584.563L1569.3 584.608L1569.31 556.152L1569.24 549.217L1569.2 524.86L1619.47 524.719L1619.67 503.85Z" fill="#2599C5"/>
<path d="M1619.47 524.72L1569.2 524.861L1569.24 549.218L1569.31 556.154L1569.3 584.609L1625.04 584.439C1632.88 584.431 1642.48 585.507 1650.1 583.729L1650.41 584.963L1740.35 584.775L1740.44 556.107L1740.52 549.243L1740.5 525.022L1691.01 524.92L1649.86 524.713L1619.47 524.72Z" fill="#723D95"/>
<path d="M1655.64 549.369L1569.24 549.217L1569.31 556.153L1650.48 555.955L1740.44 556.106L1740.52 549.242L1683.6 549.211C1674.52 549.207 1664.62 548.41 1655.64 549.369Z" fill="#052748"/>
<path d="M1619.47 524.72L1569.2 524.861L1569.24 549.218L1655.64 549.37L1651.26 548.621C1648.66 545.491 1649.9 529.628 1649.86 524.713L1619.47 524.72Z" fill="#4B307D"/>
<path d="M1691.01 524.92L1649.86 524.713C1649.9 529.628 1648.66 545.491 1651.26 548.621L1655.64 549.37C1664.62 548.411 1674.52 549.208 1683.6 549.212L1740.52 549.243L1740.5 525.022L1691.01 524.92Z" fill="#723D95"/>
<path d="M1650.48 555.955L1569.31 556.153L1569.3 584.609L1625.04 584.439C1632.88 584.43 1642.47 585.507 1650.1 583.729L1650.48 555.955Z" fill="#4B307D"/>
<path d="M4295 129.678V0H-6.57112e-05V132.23V230.136V325C2328.94 325 -6.57112e-05 325 2328.94 323.541C2502.76 323.06 3005.36 323.541 3175.11 323.541C3208.65 324.712 3243.24 323.997 3276.89 324.022L3475.87 323.954L4098.69 324.19L4234.4 323.947L4295 322.873V129.678Z" fill="#0EA5A3"/>
<path d="M759.957 246.848L701.092 246.801L701.057 273.692L759.957 273.8V246.848Z" fill="#4B307D"/>
<path d="M869.604 273.757L869.485 247L759.956 246.848V273.799L869.604 273.757Z" fill="#723D95"/>
<path d="M1042.04 331.98L1042.08 323.131L924.753 323.472L924.587 360.001C934.911 359.28 947.631 354.701 957.99 352.298L1042.04 331.98Z" fill="#2AC1C2"/>
<path d="M759.957 273.799L701.057 273.691L701.139 278.848C701.139 287.629 700.36 297.192 701.34 305.874L764.417 307.171C773.726 305.223 786.151 306.771 795.767 306.78L868.908 306.824L869.522 303.836L869.723 278.867L869.605 273.757L759.957 273.799Z" fill="#723D95"/>
<path d="M759.957 273.799L701.057 273.691L701.139 278.848L759.886 278.865L869.723 278.867L869.605 273.757L759.957 273.799Z" fill="#053157"/>
<path d="M759.885 278.865L701.138 278.848C701.138 287.629 700.359 297.192 701.339 305.874L764.416 307.171L761.053 305.735C758.21 301.937 759.885 284.495 759.885 278.865Z" fill="#4B307D"/>
<path d="M700.825 323.172L700.826 292.725C602.34 292.724 700.826 292.725 513.772 292.725L513.854 324.167C521.701 322.998 531.045 323.982 539.021 324.003C563.103 324.063 676.897 325.555 700.825 323.172Z" fill="#33C0CE"/>
<path d="M1042.04 331.979L957.991 352.296C947.631 354.7 934.912 359.278 924.588 360V412.591L1042.07 412.299L1042.04 331.979Z" fill="#33C0CE"/>
<path d="M1165.07 412.301L924.589 412.593L924.577 474.08L924.647 518.786C924.577 631.732 924.647 967.237 924.577 1080.18C1164.72 1080.18 1086.97 1090.2 1165.29 1079.9C1165.34 876.653 1165.11 693.532 1165.11 425.053L1165.07 412.301Z" fill="#44CFD0"/>
<path d="M1016.49 445.188L954.879 445.4L954.974 543.329C946.806 543.154 954.974 543.329 924.154 543.329V1080.76C1016.49 1080.76 924.154 1080.76 1016.49 1080.76C1016.49 484.79 1016.49 1080.76 1016.49 445.188Z" fill="#0EA5A3"/>
<path d="M869.521 303.836L868.907 306.825L795.766 306.78C786.15 306.771 773.725 305.223 764.416 307.171L701.339 305.875L700.324 309.536C694.578 310.674 687.947 310.049 682.083 310.035L649.742 309.918L649.612 411.269L649.541 434.62C649.518 437.484 650.072 441.626 649.034 444.239L649.081 445.048C650.721 451.726 649.848 459.997 649.848 466.885L649.836 509.201L649.789 562.893C649.777 571.978 650.391 581.561 649.695 590.596L649.718 772.946L810.915 735.942C835.422 593.494 835.524 794.382 835.422 593.494L835.469 554.469C835.493 547.212 834.738 539.189 836.59 532.146L836.944 531.669C839.327 528.527 842.714 525.822 846.584 524.993C852.672 523.692 860.341 525.215 866.63 525.195C877.922 525.158 889.166 524.591 900.387 523.248L924.646 518.785L924.575 474.079L924.587 412.592V360L924.752 314.447L924.304 311.25C922.074 309.082 914.44 310.053 911.148 310.061L880.931 310.068C877.721 310.059 872.777 310.774 870.111 309L869.521 303.836Z" fill="#053F6C"/>
<path d="M767.024 489.533L705.575 489.601L705.634 512.507L768.31 512.805L768.381 511.945C769.998 507.821 769.655 494.836 768.204 490.498L767.024 489.533Z" fill="#2599C5"/>
<path d="M710.342 352.074L706.295 352.625C703.865 357.811 705.375 370.201 705.422 376.29L744.158 376.337C750.612 376.346 757.774 375.708 764.145 376.523C765.927 376.355 766.788 375.888 768.287 374.984C768.311 369.562 769.88 355.909 766.812 352.153C762.069 353.773 755.048 352.888 749.951 352.866C736.795 352.812 723.451 353.167 710.342 352.074Z" fill="#2599C5"/>
<path d="M836.592 532.148C832.25 530.08 825.347 528.98 820.828 531.053C817.23 532.702 814.386 537.602 813.265 541.212C812.074 545.073 812.392 549.869 812.274 553.892L811.767 576.074L810.847 699.938L810.646 732.803C810.658 739.595 811.767 747.501 809.513 753.969L835.577 764.255L835.495 733.018L835.424 593.496L835.471 554.471C835.495 547.214 834.739 539.191 836.592 532.148Z" fill="#053157"/>
<path d="M868.923 286.109L868.31 289.098L867.401 292.047L763.464 292.309L763.299 321.713C763.275 325.383 763.925 330.4 762.662 333.747L727.914 333.715C722.097 333.718 715.407 333.065 709.744 334.348C722.852 335.441 736.197 335.086 749.353 335.14C754.45 335.162 761.47 336.047 766.214 334.427C769.281 338.183 767.712 351.836 767.688 357.258C767.688 375.948 767.436 367.439 767.688 375.948C767.96 385.128 765.47 394.317 764.88 403.487L721.625 403.414C717.519 403.421 709.071 402.326 705.756 404.685C703.691 410.871 704.8 419.966 704.871 426.584L706.487 428.395L766.095 428.794L766.037 459.973C766.084 463.497 765.47 468.588 766.426 471.806L767.606 472.771C769.057 477.109 769.399 490.094 767.783 494.218L767.712 495.078L767.783 597.057C899.789 565.823 767.768 597.057 899.789 565.823L924.048 561.36L923.977 456.353L923.989 394.865V342.274L924.154 296.72L923.706 293.523C921.476 291.355 913.842 292.327 910.55 292.334L880.333 292.341C877.124 292.333 872.18 293.047 869.513 291.273L868.923 286.109Z" fill="#01528F"/>
<path d="M766.269 445.083L768.57 443.614L768.582 424.371L766.151 422.688C764.594 427.106 763.898 439.155 765.408 443.518C765.573 444.002 766.033 444.69 766.269 445.083Z" fill="#33B5FE"/>
<path d="M766.152 422.687L706.354 422.41C704.29 428.596 705.399 437.691 705.469 444.309C711.31 446.397 720.171 445.245 726.389 445.242C739.545 445.239 753.173 445.963 766.27 445.082C766.034 444.69 765.573 444.002 765.408 443.518C763.898 439.154 764.594 427.105 766.152 422.687Z" fill="#2599C5"/>
<path d="M869.086 422.681L807.731 422.379L807.767 445.176L869.086 445.133V422.681Z" fill="#62E2FB"/>
<path d="M869.18 489.486L807.802 489.624L807.778 512.803L869.191 512.794L869.18 489.486Z" fill="#62E2FB"/>
<path d="M869.133 352.762L807.471 352.422L807.495 375.825L869.133 375.928V352.762Z" fill="#62E2FB"/>
<path d="M767.641 729.135L706.192 729.202L706.251 752.108L768.927 752.406L768.998 751.547C770.615 747.422 770.273 734.437 768.821 730.099L767.641 729.135Z" fill="#2599C5"/>
<path d="M710.959 591.676L706.912 592.226C704.482 597.413 705.992 609.803 706.039 615.891L744.775 615.938C751.229 615.948 758.391 615.309 764.763 616.124C766.544 615.956 767.406 615.489 768.904 614.585C768.928 609.163 770.497 595.511 767.429 591.754C762.686 593.374 755.666 592.489 750.568 592.468C737.413 592.413 724.068 592.768 710.959 591.676Z" fill="#2599C5"/>
<path d="M766.769 662.29L706.972 662.014C704.907 668.2 706.016 677.295 706.087 683.913C711.927 686.001 720.788 684.848 727.006 684.846C740.162 684.842 753.79 685.566 766.887 684.685C766.651 684.293 766.191 683.605 766.025 683.121C764.515 678.758 765.211 666.709 766.769 662.29Z" fill="#2599C5"/>
<path d="M869.703 662.282L808.349 661.98L808.384 684.778L869.703 684.734V662.282Z" fill="#62E2FB"/>
<path d="M869.797 729.088L808.419 729.226L808.395 752.404L869.809 752.396L869.797 729.088Z" fill="#62E2FB"/>
<path d="M869.75 592.364L808.089 592.023L808.112 615.427L869.75 615.529V592.364Z" fill="#62E2FB"/>
<path d="M765.641 990.066L704.192 990.134L704.251 1013.04L766.927 1013.34L766.998 1012.48C768.615 1008.35 768.273 995.369 766.821 991.031L765.641 990.066Z" fill="#2599C5"/>
<path d="M708.959 852.609L704.912 853.16C702.482 858.346 703.992 870.737 704.039 876.825L742.775 876.872C749.229 876.882 756.391 876.243 762.763 877.058C764.544 876.89 765.406 876.423 766.904 875.519C766.928 870.097 768.497 856.444 765.429 852.688C760.686 854.308 753.666 853.423 748.568 853.401C735.413 853.347 722.068 853.702 708.959 852.609Z" fill="#2599C5"/>
<path d="M764.769 923.222L704.972 922.945C702.907 929.131 704.016 938.226 704.087 944.844C709.927 946.933 718.788 945.78 725.006 945.777C738.162 945.774 751.79 946.498 764.887 945.617C764.651 945.225 764.191 944.537 764.025 944.053C762.515 939.689 763.211 927.641 764.769 923.222Z" fill="#2599C5"/>
<path d="M867.703 923.214L806.349 922.912L806.384 945.709L867.703 945.666V923.214Z" fill="#62E2FB"/>
<path d="M867.797 990.021L806.419 990.159L806.395 1013.34L867.809 1013.33L867.797 990.021Z" fill="#62E2FB"/>
<path d="M867.75 853.295L806.089 852.955L806.112 876.358L867.75 876.461V853.295Z" fill="#62E2FB"/>
<path d="M-0.191467 324.547V413.384L47.6415 413.048C52.0897 399.444 55.0867 386.896 56.5144 372.634C56.8802 368.968 56.2901 357.344 58.0009 354.61C59.5702 358.319 59.3815 362.917 59.7591 366.938L62.225 385.437C63.9241 394.902 66.8031 403.915 69.1628 413.207L148.004 412.456L356.727 413.028L407.463 413.124C413.858 413.096 422.152 411.657 428.229 413.219C428.406 415.842 428.111 418.465 429.55 420.665L497.654 420.614L605.921 420.655C605.98 426.37 604.599 439.457 606.711 444.24L649.469 445.683L649.717 411.847L649.304 408.591C650.33 399.511 649.646 389.524 649.669 380.361L649.599 323.172C625.67 325.555 563.102 324.063 539.021 324.002C531.045 323.982 521.7 322.998 513.854 324.167L513.771 292.725C477.705 292.746 513.771 292.724 -0.191467 324.547Z" fill="#44CFD0"/>
<path d="M611.962 408.592C610.522 410.487 610.062 410.612 607.962 411.465L607.443 408.795C606.959 420.371 608.08 432.839 606.711 444.24L612.127 445.684L612.375 411.847L611.962 408.592Z" fill="#33C0CE"/>
<path d="M497.358 387.876L429.396 387.57L429.266 415.915L429.549 420.665L497.653 420.614L605.92 420.655L606.156 416.147L606.026 388.082L497.358 387.876Z" fill="#723D95"/>
<path d="M497.37 416.136L429.266 415.914L429.549 420.664L497.653 420.613L605.92 420.654L606.156 416.146L497.37 416.136Z" fill="#053157"/>
<path d="M497.359 387.876L429.397 387.57L429.268 415.915L497.371 416.137L497.359 387.876Z" fill="#4B307D"/>
<path d="M-0.191589 292.276V324.545L513.854 324.165L513.771 292.723L315.607 292.843L196.084 292.872L159.991 292.937C106.658 292.926 53.2199 292.276 -0.191589 292.276Z" fill="#2AC1C2"/>
<path d="M489.43 829.68L437.856 829.639L437.868 849.456L489.394 849.362L489.43 829.68Z" fill="#EB8CD5"/>
<path d="M489.476 695.82L437.809 695.908L437.903 715.575L489.535 715.56L489.476 695.82Z" fill="#EB8CD5"/>
<path d="M486.95 762.604L437.878 762.667L437.89 782.494L489.416 782.535L489.369 764.246L486.95 762.604Z" fill="#EB8CD5"/>
<path d="M599.678 763.159L547.125 763.014V782.75L599.642 782.685L599.678 763.159Z" fill="#EB8CD5"/>
<path d="M599.738 695.896H546.831L546.973 715.663L599.809 715.683L599.738 695.896Z" fill="#EB8CD5"/>
<path d="M599.548 829.018L546.972 829.049L547.019 848.999L599.678 849.042L599.548 829.018Z" fill="#EB8CD5"/>
<path d="M489.43 1033.39L437.856 1033.35L437.868 1053.16L489.394 1053.07L489.43 1033.39Z" fill="#EB8CD5"/>
<path d="M489.476 899.531L437.809 899.619L437.903 919.286L489.535 919.271L489.476 899.531Z" fill="#EB8CD5"/>
<path d="M486.95 966.312L437.878 966.376L437.89 986.203L489.416 986.244L489.369 967.955L486.95 966.312Z" fill="#EB8CD5"/>
<path d="M599.678 966.869L547.125 966.725V986.461L599.642 986.396L599.678 966.869Z" fill="#EB8CD5"/>
<path d="M599.738 899.607H546.831L546.973 919.374L599.809 919.394L599.738 899.607Z" fill="#EB8CD5"/>
<path d="M599.548 1032.73L546.972 1032.76L547.019 1052.71L599.678 1052.75L599.548 1032.73Z" fill="#EB8CD5"/>
<path d="M649.035 444.239C647.135 434.238 648.693 421.293 648.339 410.939L612.375 411.846L612.128 445.683C615.797 444.884 620.257 445.324 624.009 445.288L649.082 445.048L649.035 444.239Z" fill="#2AC1C2"/>
<path d="M2837.19 452.04L2147.22 505.446V608.137V699.28V1020.41V1079.24V1236H4294.63V1080.14V1079.21V967.888V665.102V583.397V505.227V412.561L2837.19 452.04Z" fill="#053157"/>
<path d="M2316.62 867.454C2313.52 867.435 2310.67 866.818 2308.01 868.527L2307.93 884.058L2354.57 884.167L2365.32 883.966C2367.82 881.054 2366.59 871.795 2366.59 867.656L2316.62 867.454Z" fill="#053F6C"/>
<path d="M2451.08 717.178L2400.98 717.313C2401 721.908 2399.9 729.744 2402.08 733.591L2407 733.858L2459.75 734.116L2459.6 718.854C2457.28 716.468 2454.29 717.247 2451.08 717.178Z" fill="#053F6C"/>
<path d="M2459.58 815.298L2400.98 815.051L2401.21 832.182L2459.38 832.518L2459.58 815.298Z" fill="#053F6C"/>
<path d="M2366.49 815.333L2307.98 815.07L2308.08 832.201L2366.52 832.49L2366.49 815.333Z" fill="#053F6C"/>
<path d="M2366.48 716.943L2307.85 716.826L2307.8 734.04L2366.57 734.095L2366.48 716.943Z" fill="#053F6C"/>
<path d="M2459.64 866.928L2400.98 866.96L2401.26 884.323L2459.6 884.759L2459.64 866.928Z" fill="#053F6C"/>
<path d="M2366.4 765.226L2307.76 765.072L2307.87 782.668L2366.51 782.763L2366.4 765.226Z" fill="#053F6C"/>
<path d="M2459.73 765.014L2401.08 765.066L2401.13 783.074L2459.72 783.254L2459.73 765.014Z" fill="#053F6C"/>
<path d="M2451.55 917.051L2401.45 917.186C2401.46 921.781 2400.37 929.617 2402.55 933.464L2407.47 933.731L2460.22 933.989L2460.07 918.728C2457.74 916.341 2454.76 917.12 2451.55 917.051Z" fill="#053F6C"/>
<path d="M2460.05 1015.17L2401.45 1014.92L2401.68 1032.05L2459.85 1032.39L2460.05 1015.17Z" fill="#053F6C"/>
<path d="M2366.96 1015.2L2308.45 1014.94L2308.55 1032.07L2366.99 1032.36L2366.96 1015.2Z" fill="#053F6C"/>
<path d="M2366.95 916.814L2308.32 916.697L2308.26 933.911L2367.04 933.966L2366.95 916.814Z" fill="#053F6C"/>
<path d="M2366.87 965.099L2308.23 964.945L2308.34 982.541L2366.98 982.636L2366.87 965.099Z" fill="#053F6C"/>
<path d="M2460.2 964.885L2401.55 964.937L2401.59 982.946L2460.19 983.125L2460.2 964.885Z" fill="#053F6C"/>
<path d="M2330.83 645.832L2329.73 645.897L2294.17 645.936L2294.2 666.895C2299.52 668.014 2306.2 667.25 2311.72 667.286L2349.72 667.379L2469.42 666.822L2469.76 646.209L2451.32 646.143L2413.6 646.18L2363.18 645.989L2330.83 645.832Z" fill="#4B307D"/>
<path d="M2797.07 768.492C2797.07 864.938 2798.36 984.219 2798.36 1080.66C2965.6 1080.66 2754.55 1080.66 2958.16 1080.66C2958.15 1005.96 2958.16 833.466 2958.16 737.02C2908.93 737.02 2796.93 777.781 2797.07 768.492Z" fill="#052748"/>
<path d="M2505.76 505.525L2505.44 466.027L2451.33 466.321L2451.41 505.601L2451.28 597.759L2413.64 597.854L2413.6 646.18L2451.32 646.144L2469.76 646.209L2469.42 666.823L2495.32 666.396L2494.38 958.331C2521.63 958.331 2494.38 958.331 2521.63 958.331C2531.2 958.331 2521.63 958.331 2531.2 958.331L2531.2 566.975L2505.56 567.102L2505.76 505.525Z" fill="#1C92B8"/>
<path d="M2451.28 597.758L2413.64 597.853L2413.6 646.179L2451.32 646.143L2451.28 597.758Z" fill="#62E2FB"/>
<path d="M2216.58 413.206C2214.22 403.914 2211.34 394.901 2209.64 385.436L2207.17 366.937C2206.8 362.916 2206.98 358.319 2205.42 354.609C2203.7 357.343 2204.29 368.967 2203.93 372.633C2202.5 386.895 2199.5 399.443 2195.06 413.047L2147.22 413.383V505.446V608.137V699.28V1020.41V1079.24L2270.73 1080.03L2270.89 831.506L2270.91 666.261L2294.2 666.894L2294.17 645.935L2329.73 645.896L2330.83 645.831L2363.18 645.988L2413.6 646.179L2413.64 597.853L2451.28 597.757L2451.41 505.599L2451.33 466.319L2505.44 466.026L2505.76 505.523L2505.56 567.1L2531.2 566.973L2531.1 505.934L2531.08 446.014L2575.7 445.688L2576.82 445.587L2576.96 420.664C2575.53 418.464 2575.82 415.841 2575.64 413.218C2569.57 411.656 2561.27 413.095 2554.88 413.123L2504.14 413.027L2295.42 412.455L2216.58 413.206Z" fill="#2599C5"/>
<path d="M2195.13 412.889H2147.22V505.448C2155.59 505.248 2166.16 503.719 2174.28 505.264C2174.13 492.97 2172.62 478.831 2174.25 466.72C2174.87 462.104 2177.97 456.995 2179.68 452.662L2195.13 412.889Z" fill="#44D1CF"/>
<path d="M2266.68 503L2235 504.001L2235 576.5C2235.01 586.696 2235 598 2235.51 608.496L2234.5 674.5C2238.12 676.561 2249.78 675.881 2254.28 675.878L2254.24 608.446L2254.1 522.807L2266.68 522.586L2266.68 503Z" fill="#44CFD0"/>
<path d="M2174.28 505.264C2166.16 503.719 2155.59 505.248 2147.22 505.447V608.138V665.102L2174.38 665.202V607.683L2174.28 505.264Z" fill="#44CFD0"/>
<path d="M2270.89 831.507L2260.47 831.488C2257.57 827.904 2259.31 778.684 2259.34 769.981L2198.81 769.912L2199.34 890.721L2175.35 890.423L2175.5 1021.01L2147.22 1020.41V1079.24L2270.73 1080.03L2270.89 831.507Z" fill="#1C92B8"/>
<path d="M2576.82 412.626C2504 412.668 2576.82 412.626 2504 412.668L2295.28 412.096L2216.44 412.846L2229.4 447.634C2231.28 452.677 2234.25 458.644 2234.88 463.99C2236.72 479.913 2234.68 498.483 2234.45 514.605L2234.33 608.557L2234.13 657C2234.13 661.77 2233.11 670.505 2235 674.613L2235.36 608.132C2236.74 598.154 2235.6 586.323 2235.59 576.128L2235.37 505.087L2266.51 504.84C2270.44 502.448 2277.35 503.545 2282 503.571L2318.1 503.762C2318.08 508.69 2316.79 517.82 2319.22 521.835L2328.48 522.325C2331.39 527.35 2329.62 544.747 2329.62 551.662L2329.59 645.537L2330.68 645.472L2363.04 645.628L2413.45 645.819L2413.5 597.493L2451.14 597.398L2451.27 505.24L2451.19 465.959L2505.3 465.666L2505.62 505.164L2505.42 566.741L2531.05 566.614L2530.96 505.574L2530.94 445.655L2575.56 445.329L2576.68 445.228C2576.74 434.426 2577.54 423.211 2576.82 412.626Z" fill="#44D1CF"/>
<path d="M2363.04 633.438L2362.45 608.439L2330.8 608.569C2330.83 620.414 2332.12 634.169 2330.83 645.831L2363.18 645.988L2363.04 633.438Z" fill="#44CFD0"/>
<path d="M2413.64 597.854L2413.79 582.043L2400.79 582.019L2400.82 558.895L2373.27 558.916L2373.44 585.277C2369.92 588.125 2365.57 585.134 2363.12 588.496L2363.04 633.44L2363.18 645.989L2413.6 646.18L2413.64 597.854Z" fill="#2599C5"/>
<path d="M2645.07 420.615L2576.96 420.666L2576.82 445.589L2575.7 445.69L2531.08 446.016L2531.1 505.935L2531.2 566.975V958.331C2521.63 958.331 2531.2 958.331 2521.63 958.331L2520.87 982.1C2520.87 1080.27 2520.87 982.1 2520.87 1080.27L2685.68 1080.46L2787.41 1080.27H2798.11C2795.48 1078.28 2801.1 1077.43 2798.08 1076.21L2798.11 1025.7C2789.52 1016.33 2781.16 1006.27 2774.62 995.276C2767.59 983.442 2762.07 969.688 2759.95 955.965C2758.01 943.309 2759.16 928.82 2759.13 915.98V836.124L2759.19 802.4C2759.2 797.215 2758.49 790.958 2759.67 785.997L2797.13 772.948L2797.11 590.598C2797.81 581.562 2797.19 571.979 2797.2 562.894L2797.25 509.203L2797.26 466.887C2797.26 459.998 2798.14 451.728 2796.5 445.049L2771.42 445.289C2767.67 445.326 2763.21 444.885 2759.54 445.684L2754.13 444.24C2752.01 439.458 2753.39 426.37 2753.33 420.656L2645.07 420.615Z" fill="#5D3E9A"/>
<path d="M2636.8 629.82L2585.22 629.779L2585.24 649.596L2636.76 649.502L2636.8 629.82Z" fill="#EB8CD5"/>
<path d="M2636.84 495.963L2585.18 496.051L2585.27 515.717L2636.9 515.703L2636.84 495.963Z" fill="#EB8CD5"/>
<path d="M2634.32 562.744L2585.25 562.808L2585.26 582.635L2636.79 582.676L2636.74 564.387L2634.32 562.744Z" fill="#EB8CD5"/>
<path d="M2645.07 420.615L2576.96 420.666L2576.82 445.589C2585.47 444.513 2594.54 445.042 2603.25 445.049L2645.21 445.213L2645.07 420.615Z" fill="#4B307D"/>
<path d="M2753.93 420.615H2645.07L2645.21 445.213L2668.43 445.293L2669.92 1016.05L2670.95 1017.13C2670.81 1018.46 2670.74 1019.22 2670.25 1020.44C2668.3 1025.28 2670.03 1031.33 2669.92 1036.44C2671.77 1038.35 2669.86 1041.07 2672.11 1041.44C2673.55 1041.68 2674.45 1042.27 2675.64 1043.05C2676.51 1043.62 2675.9 1043.27 2676.88 1043.67C2680.84 1045.28 2686.59 1052.2 2688.26 1056.02C2688.7 1057.02 2688.5 1056.89 2688.78 1057.9C2689.43 1060.23 2690.32 1061.81 2690.62 1064.33L2690.78 1065.47C2691.25 1069.23 2690.73 1074.09 2689.84 1077.76C2693.63 1077.76 2697.12 1077.27 2700.32 1078.83C2700.98 1079.15 2704.02 1078.83 2704.84 1078.83L2723.66 1078.82C2729.03 1078.82 2734.15 1079.2 2739.13 1077.76C2741.62 1077.04 2742.54 1079.47 2746.06 1078.08C2748.4 1077.15 2752.3 1077.72 2754.86 1077.76L2755.91 1078.82L2756.95 1077.76C2759.45 1079.46 2762.38 1078.86 2765.37 1078.88C2771.85 1078.95 2781.22 1078.15 2787.41 1080.27H2798.11C2795.48 1078.28 2801.1 1077.43 2798.08 1076.21L2798.11 1025.7C2789.52 1016.33 2781.16 1006.27 2774.62 995.276C2767.59 983.442 2762.07 969.688 2759.95 955.965C2758.01 943.309 2759.16 928.82 2759.13 915.98V836.124L2759.19 802.4C2759.2 797.215 2758.49 790.958 2759.67 785.997L2797.13 772.948L2797.11 590.598C2797.81 581.562 2797.19 571.979 2797.2 562.894L2797.25 509.203L2797.26 466.887C2797.26 459.998 2798.14 451.728 2796.5 445.049L2771.42 445.289C2767.67 445.326 2763.21 444.885 2759.54 445.684L2755.74 444.247C2753.63 439.465 2753.99 426.329 2753.93 420.615Z" fill="#7546AA"/>
<path d="M2747.05 563.301L2694.49 563.156V582.892L2747.01 582.827L2747.05 563.301Z" fill="#EB8CD5"/>
<path d="M2747.11 496.037H2694.2L2694.34 515.803L2747.18 515.824L2747.11 496.037Z" fill="#EB8CD5"/>
<path d="M2746.92 629.16L2694.34 629.192L2694.39 649.141L2747.05 649.185L2746.92 629.16Z" fill="#EB8CD5"/>
<path d="M2797.11 590.598C2794.49 605.88 2796.27 624.053 2796.25 639.632L2796.21 740.917L2669.14 781.082V1040.87L2680.89 1047.17C2686.48 1055.18 2683.97 1044.89 2686.48 1055.18C2690.4 1067.19 2690.4 1063.19 2688.72 1079.21C2798.11 1080.93 2688.72 1079.21 2798.11 1080.93V1025.7C2797.13 772.947 2798.11 1025.7 2797.13 772.947L2797.11 590.598Z" fill="#5D3E9A"/>
<path d="M3708.86 530.867L3671.14 531.106C3664.1 531.125 3319.45 531.654 3312.49 530.867L3312.67 557.75L3312.66 1106.26L3676.96 1106.41L3676.99 611.382L3708.84 611.365L3708.62 610.465C3710.53 605.392 3709.22 595.053 3709.19 589.286L3708.86 530.867Z" fill="#0EA5A3"/>
<path d="M3708.86 504.066L3671.14 504.305C3664.1 504.325 3316.55 505.037 3309.59 504.25L3311.17 535.318L3703.78 535.274L3702.34 571.765C3702.34 573.762 3701.66 580.517 3702.33 582.058C3702.63 582.746 3703.3 583.197 3703.78 583.767L3708.62 583.664C3710.53 578.591 3709.22 568.253 3709.19 562.485L3708.86 504.066Z" fill="#44D1CF"/>
<path d="M3326.94 505.647L3366.11 505.618L3365.79 412.936L3486.98 413.508L3487.22 534.206L3528.11 534.201L3528.08 510.342L3572.66 510.404L3572.53 533.802L3610.37 533.869L3610.41 486.592L3676.28 486.726V605.501V778.664V1015.08L3566.59 1015.77L3503.25 1015.54C3494.63 1019.82 3480.02 1018 3470.38 1018.05C3460.46 1018.1 3450.23 1018.62 3440.31 1018.01C3442.93 1015.06 3445.2 1012.16 3446.31 1008.31C3447.53 1004.07 3445.06 999.499 3443.1 995.899C3443.27 993.803 3443.3 991.547 3443.77 989.502C3444.53 986.276 3444.03 982.8 3444 979.489C3443.9 968.456 3445.98 961.025 3451.27 951.428C3445.37 953.179 3440.67 956.161 3435.53 959.437C3435.61 948.955 3434.83 939.982 3428.91 930.954C3422.95 921.872 3412.93 915.045 3402.26 912.85C3388.75 910.071 3378.27 914.876 3367.16 922.023L3365.55 923.625C3363.06 922.112 3361.82 918.68 3360.36 916.185C3352.69 903.118 3342.03 894.082 3327.36 889.837C3327.08 881.71 3325.22 845.936 3327.71 840.443L3330.58 839.604C3328.6 839.332 3328.37 839.41 3326.86 837.968L3326.94 559.544V505.647Z" fill="#0EA5A3"/>
<path d="M3716.71 584.608L3708.84 584.564L3676.99 584.581L3676.96 1079.61C3774.81 1080.18 3727.78 1096.84 3797.82 1079.61V584.962L3797.51 583.729C3789.89 585.506 3780.29 584.43 3772.45 584.438L3716.71 584.608Z" fill="#5D3E9A"/>
<path d="M3777.83 877.542L3720.24 877.498L3720.35 897.451L3777.77 897.566L3777.83 877.542Z" fill="#D067BE"/>
<path d="M3778.02 750.075L3720.15 750.061L3720.21 770.301L3777.93 770.362L3778.02 750.075Z" fill="#D067BE"/>
<path d="M3778.18 685.684L3720.14 685.739L3720.19 706.119L3778.13 706.282L3778.18 685.684Z" fill="#D067BE"/>
<path d="M3777.72 813.594L3720.06 813.652L3720.13 834.512L3777.79 834.309L3777.72 813.594Z" fill="#D067BE"/>
<path d="M3777.8 621.627L3720.02 621.68L3720.09 642.46L3777.86 642.439L3777.8 621.627Z" fill="#D067BE"/>
<path d="M4294.63 322.422L4264.33 323.495L4196.48 323.738L3885.09 323.502L3785.6 323.57C3768.78 323.544 3751.48 340.669 3734.71 339.499C3724.34 338.776 3712.37 342.152 3702.28 339.499L3611.53 344.999L3590.73 339.499C3584.7 337.749 3567.5 382.046 3561.17 383.113L3647.8 352.767C3648.15 353.157 3649.29 354.174 3649.43 354.599C3649.94 356.098 3649.45 360.242 3649.46 362.043L3649.5 382.044L3649.41 504.249C3656.37 505.036 3664.11 504.324 3671.14 504.305L3708.86 504.066L3709.19 562.485C3709.22 568.252 3710.53 578.59 3708.62 583.663L3708.84 584.564L3716.71 584.608L3772.45 584.438C3780.29 584.43 3789.89 585.506 3797.51 583.728L3797.82 584.962L3797.82 1080.14C4294.63 1079.21 4032.35 1080.11 4294.63 1080.14V1079.21V967.888V665.102V583.397V505.227V412.561V322.422Z" fill="#2599C5"/>
<path d="M4294.63 583.396L4256.75 583.907C4257.18 587.312 4257.07 591.817 4259.51 594.355L4267.9 594.6C4269.9 599.501 4268.69 609.006 4268.69 614.424L4268.61 699.416L4294.63 699.397V583.396Z" fill="#44D1CF"/>
<path d="M4150.83 667.056L4150.88 647.416L3997.86 647.97L3997.93 667.199C4012.33 665.639 4028.51 667.123 4043.1 667.056H4150.83Z" fill="#723D95"/>
<path d="M4294.63 505.229L4250.11 505.504C4245.38 505.515 4237.12 504.182 4232.99 506.331L4256.75 583.909L4294.63 583.399V505.229Z" fill="#44CFD0"/>
<path d="M4294.63 412.561L4231.89 412.943C4231.91 426.382 4233.63 442.433 4231.79 455.573L4232.99 506.329C4237.12 504.18 4245.38 505.513 4250.11 505.502L4294.63 505.227V412.561Z" fill="#44D1CF"/>
<path d="M4228.8 504.426L4190.78 504.877C4182.95 504.831 4174.36 505.341 4166.65 504.328L4166.82 622.579C4166.82 630.159 4164.93 657.329 4167.91 662.851C4174.95 664.389 4184.64 663.189 4191.96 663.214L4191.93 615.93C4191.93 609.785 4190.71 600.2 4192.97 594.544C4196.06 594.678 4199.3 595.192 4202.18 593.86L4204.13 583.791L4228.8 504.426Z" fill="#44CFD0"/>
<path d="M4204.12 583.79L4191.35 583.756C4188.97 586.252 4189.93 590.273 4189.95 593.713C4185.37 593.693 4171.02 592.181 4167.7 594.181L4167.74 642.334C4167.73 648.746 4166.73 656.673 4167.91 662.85C4174.94 664.388 4184.64 663.188 4191.96 663.214L4191.93 615.929C4191.93 609.784 4190.71 600.199 4192.97 594.543C4196.05 594.677 4199.3 595.191 4202.18 593.859L4204.12 583.79Z" fill="#44D1CF"/>
<path d="M4104.61 581.027C4102.78 573.717 4103.8 564.43 4103.78 556.886L4103.71 504.27L3961.09 504.837L3961.04 578.323L4014.2 578.405L4014.18 517.141L4056.71 517.146L4056.62 570.893L4089.23 570.861L4089.11 593.883L4089.06 647.119C4093.76 647.031 4099.02 647.432 4103.63 646.68C4105.82 643.339 4104.79 633.639 4104.78 629.349L4104.61 581.027Z" fill="#44CFD0"/>
<path d="M4103.63 646.68L4103.67 592.92L4089.11 593.883L4089.06 647.119C4093.76 647.031 4099.02 647.432 4103.63 646.68Z" fill="#44D1CF"/>
<path d="M4294.63 967.889L4265.89 967.992L4266.45 823.789L4248 823.812L4248.19 850.971L4227.7 850.889L4228.52 823.709L4210.51 823.761L4210.7 851.489L4190.69 851.472L4190.48 1079.27L4294.63 1079.21V967.889Z" fill="#1C92B8"/>
<path d="M4230.18 455.366L4230.15 412.752L3960.99 413.348L3961.09 504.838L4103.71 504.27L4103.78 556.887C4103.8 564.431 4102.78 573.718 4104.61 581.028L4104.42 483.689L4166.63 483.865L4166.64 504.328C4174.36 505.341 4182.95 504.832 4190.78 504.877L4228.8 504.426L4230.18 455.366Z" fill="#44D1CF"/>
<path d="M3921.28 1080.26L3921.28 584.705L3887.76 584.774L3797.82 584.962L3797.82 1080.26C3921.28 1080.26 3797.82 1080.26 3921.28 1080.26Z" fill="#7546AA"/>
<path d="M3882.96 749.963L3830.13 749.989L3830.16 770.619L3882.9 770.671L3882.96 749.963Z" fill="#EB8CD5"/>
<path d="M3883.36 685.603L3829.98 685.586L3829.97 706.273L3883.32 706.104L3883.36 685.603Z" fill="#EB8CD5"/>
<path d="M3883.29 876.33L3830.13 876.413L3830.15 897.061L3883.22 897.092L3883.29 876.33Z" fill="#EB8CD5"/>
<path d="M3883.28 813.392L3830.14 813.391L3830.22 834.382L3883.3 834.174L3883.28 813.392Z" fill="#EB8CD5"/>
<path d="M3883.38 621.94L3829.86 621.77L3829.85 642.701L3883.27 642.68L3883.38 621.94Z" fill="#EB8CD5"/>
<path d="M4150.83 667.057H4043.1C4028.51 667.125 4012.33 665.64 3997.93 667.201L3969.75 666.888V1079.21C4190.48 1079.27 4041.25 1080.11 4294.63 1080.14V1079.21L4190.48 1079.27L4190.69 851.471L4190.93 666.572L4150.83 667.057Z" fill="#01528F"/>
<path d="M4061.22 715.695L4007.59 715.664L4007.64 734.974L4061.15 735.222L4061.22 715.695Z" fill="#0169C2"/>
<path d="M4061.74 865.155L4007.55 864.891L4007.79 884.74L4061.67 884.659L4061.74 865.155Z" fill="#0169C2"/>
<path d="M4150.17 865.221L4099.83 865.31C4099.84 870.335 4098.65 879.554 4100.65 883.962L4104.32 884.565L4154.94 884.872C4155.02 880.041 4156.46 869.783 4154.13 865.794L4150.17 865.221Z" fill="#0169C2"/>
<path d="M4061.91 762.471L4007.43 762.554L4007.43 782.12L4061.87 782.173L4061.91 762.471Z" fill="#0169C2"/>
<path d="M4154.79 762.607L4099.9 762.518L4100.22 782.204L4154.77 782.187L4154.79 762.607Z" fill="#0169C2"/>
<path d="M4154.3 715.748L4099.92 715.619L4100.1 735.453L4154.28 735.652L4154.3 715.748Z" fill="#0169C2"/>
<path d="M4061.75 813.602L4007.71 813.449L4007.65 833.592L4061.84 833.566L4061.75 813.602Z" fill="#0169C2"/>
<path d="M4154.99 813.483L4100.22 813.396L4100.34 833.548L4154.94 833.591L4154.99 813.483Z" fill="#0169C2"/>
<path d="M4061.52 915.761L4007.48 915.607L4007.42 935.75L4061.61 935.724L4061.52 915.761Z" fill="#0169C2"/>
<path d="M4154.76 915.64L4099.99 915.553L4100.11 935.704L4154.71 935.748L4154.76 915.64Z" fill="#0169C2"/>
<path d="M4294.63 322.418L4264.33 323.491L4196.48 323.734L3885.09 323.498L3785.6 323.566C3768.78 323.541 3751.48 324.255 3734.71 323.085C3649.5 323.085 3274.19 322.561 3188.98 322.561C3185.61 381.681 3190.27 445.891 3190.22 506.047C3197.19 506.834 3664.11 504.32 3671.14 504.301L3708.86 504.062L3709.19 562.481C3709.22 568.248 3710.53 578.586 3708.62 583.659L3708.84 584.56L3716.71 584.605L3772.45 584.434C3780.29 584.426 3789.89 585.503 3797.51 583.725L3797.82 584.958L3887.76 584.77L3887.85 556.102L3887.93 549.239L3887.91 525.017L3838.42 524.916L3838.48 503.741L3838.18 398.655L3861.7 398.947L3861.51 380.716L3937.15 380.648L3936.98 398.466L3961.04 398.374L3960.99 413.344L4230.15 412.747C4230.18 463.171 4231.98 464.057 4231.89 412.939L4294.63 412.557V322.418Z" fill="#44CFD0"/>
<path d="M3838.48 503.744L3767.09 503.85L3766.88 524.719L3797.27 524.711L3838.42 524.919L3838.48 503.744Z" fill="#44D1CF"/>
<path d="M3767.09 503.85L3767.17 471.42L3756.35 461.784C3755.63 461.099 3753.9 458.984 3753.06 458.64C3749.37 457.119 3746.92 460.319 3744.51 455.989L3740.6 348.609C3738.2 359.829 3739.02 371.606 3738.67 383.03L3737.02 427.351C3736.95 433.598 3738.77 453.696 3735.76 458.111C3733.35 458.214 3728.79 457.813 3726.61 458.502C3725.54 458.839 3722.86 461.784 3721.9 462.629L3708.75 473.949L3708.86 504.065L3709.19 562.484C3709.22 568.252 3710.53 578.59 3708.62 583.663L3708.84 584.563L3716.71 584.608L3716.72 556.152L3716.65 549.217L3716.61 524.86L3766.88 524.719L3767.09 503.85Z" fill="#2599C5"/>
<path d="M3766.88 524.72L3716.61 524.861L3716.65 549.218L3716.72 556.154L3716.71 584.609L3772.45 584.439C3780.29 584.431 3789.89 585.507 3797.51 583.729L3797.82 584.963L3887.76 584.775L3887.86 556.107L3887.93 549.243L3887.91 525.022L3838.42 524.92L3797.27 524.713L3766.88 524.72Z" fill="#723D95"/>
<path d="M3803.06 549.369L3716.65 549.217L3716.72 556.153L3797.89 555.955L3887.86 556.106L3887.93 549.242L3831.01 549.211C3821.93 549.207 3812.03 548.41 3803.06 549.369Z" fill="#052748"/>
<path d="M3766.88 524.72L3716.61 524.861L3716.65 549.218L3803.05 549.37L3798.67 548.621C3796.08 545.491 3797.32 529.628 3797.27 524.713L3766.88 524.72Z" fill="#4B307D"/>
<path d="M3838.42 524.92L3797.27 524.713C3797.32 529.628 3796.08 545.491 3798.67 548.621L3803.06 549.37C3812.03 548.411 3821.93 549.208 3831.01 549.212L3887.93 549.243L3887.91 525.022L3838.42 524.92Z" fill="#723D95"/>
<path d="M3797.89 555.955L3716.72 556.153L3716.71 584.609L3772.45 584.439C3780.29 584.43 3789.89 585.507 3797.51 583.729L3797.89 555.955Z" fill="#4B307D"/>
<path d="M2907.37 246.848L2848.51 246.801L2848.47 273.692L2907.37 273.8V246.848Z" fill="#4B307D"/>
<path d="M3017.02 273.757L3016.9 247L2907.37 246.848V273.799L3017.02 273.757Z" fill="#723D95"/>
<path d="M3189.45 331.98L3189.49 323.131L3072.17 323.472L3072 360.001C3082.33 359.28 3095.04 354.701 3105.4 352.298L3189.45 331.98Z" fill="#2AC1C2"/>
<path d="M2907.37 273.799L2848.47 273.691L2848.55 278.848C2848.55 287.629 2847.77 297.192 2848.75 305.874L2911.83 307.171C2921.14 305.223 2933.56 306.771 2943.18 306.78L3016.32 306.824L3016.94 303.836L3017.14 278.867L3017.02 273.757L2907.37 273.799Z" fill="#723D95"/>
<path d="M2907.37 273.799L2848.47 273.691L2848.55 278.848L2907.3 278.865L3017.14 278.867L3017.02 273.757L2907.37 273.799Z" fill="#053157"/>
<path d="M2907.3 278.865L2848.55 278.848C2848.55 287.629 2847.77 297.192 2848.75 305.874L2911.83 307.171L2908.47 305.735C2905.62 301.937 2907.3 284.495 2907.3 278.865Z" fill="#4B307D"/>
<path d="M3189.45 331.979L3105.4 352.296C3095.05 354.7 3082.33 359.278 3072 360L3072 413.74L3189.49 413.448L3189.45 331.979Z" fill="#33C0CE"/>
<path d="M3326.88 412.301L3072.01 412.593L3071.99 474.08L3072.07 518.786C3071.99 631.732 3072.07 967.237 3071.99 1080.18C3326.5 1080.18 3244.11 1090.2 3327.11 1079.9C3327.16 876.653 3326.93 693.532 3326.93 425.053L3326.88 412.301Z" fill="#44CFD0"/>
<path d="M3327.13 505.922L3156.62 506.114L3156.88 594.685C3134.28 594.527 3156.88 594.685 3071.58 594.685V1080.76C3327.13 1080.76 3071.58 1080.76 3327.13 1080.76C3327.13 541.74 3327.13 1080.76 3327.13 505.922Z" fill="#0EA5A3"/>
<path d="M3016.94 303.836L3016.32 306.825L2943.18 306.78C2933.56 306.771 2921.14 305.223 2911.83 307.171L2848.75 305.875L2847.74 309.536C2841.99 310.674 2835.36 310.049 2829.5 310.035L2797.16 309.918L2797.03 411.269L2796.96 434.62C2796.93 437.484 2797.49 441.626 2796.45 444.239L2796.5 445.048C2798.14 451.726 2797.26 459.997 2797.26 466.885L2797.25 509.201L2797.2 562.893C2797.19 571.978 2797.8 581.561 2797.11 590.596L2797.13 772.946L2958.33 735.942C2982.84 593.494 2982.94 794.382 2982.84 593.494L2982.88 554.469C2982.91 547.212 2982.15 539.189 2984 532.146L2984.36 531.669C2986.74 528.527 2990.13 525.822 2994 524.993C3000.09 523.692 3007.76 525.215 3014.04 525.195C3025.34 525.158 3036.58 524.591 3047.8 523.248L3072.06 518.785L3071.99 474.079L3072 412.592V360L3072.17 314.447L3071.72 311.25C3069.49 309.082 3061.85 310.053 3058.56 310.061L3028.34 310.068C3025.14 310.059 3020.19 310.774 3017.52 309L3016.94 303.836Z" fill="#053F6C"/>
<path d="M2914.44 489.533L2852.99 489.601L2853.05 512.507L2915.72 512.805L2915.8 511.945C2917.41 507.821 2917.07 494.836 2915.62 490.498L2914.44 489.533Z" fill="#2599C5"/>
<path d="M2857.76 352.074L2853.71 352.625C2851.28 357.811 2852.79 370.201 2852.84 376.29L2891.57 376.337C2898.03 376.346 2905.19 375.708 2911.56 376.523C2913.34 376.355 2914.2 375.888 2915.7 374.984C2915.72 369.562 2917.29 355.909 2914.23 352.153C2909.48 353.773 2902.46 352.888 2897.37 352.866C2884.21 352.812 2870.86 353.167 2857.76 352.074Z" fill="#2599C5"/>
<path d="M2984.01 532.148C2979.66 530.08 2972.76 528.98 2968.24 531.053C2964.64 532.702 2961.8 537.602 2960.68 541.212C2959.49 545.073 2959.81 549.869 2959.69 553.892L2959.18 576.074L2958.26 699.938L2958.06 732.803C2958.07 739.595 2959.18 747.501 2956.93 753.969L2982.99 764.255L2982.91 733.018L2982.84 593.496L2982.89 554.471C2982.91 547.214 2982.15 539.191 2984.01 532.148Z" fill="#053157"/>
<path d="M3016.34 286.109L3015.72 289.098L3014.81 292.047L2910.88 292.309L2910.71 321.713C2910.69 325.383 2911.34 330.4 2910.07 333.747L2875.33 333.715C2869.51 333.718 2862.82 333.065 2857.16 334.348C2870.26 335.441 2883.61 335.086 2896.76 335.14C2901.86 335.162 2908.88 336.047 2913.63 334.427C2916.69 338.183 2915.12 351.836 2915.1 357.258C2915.1 375.948 2914.85 367.439 2915.1 375.948C2915.37 385.128 2912.88 394.317 2912.29 403.487L2869.04 403.414C2864.93 403.421 2856.48 402.326 2853.17 404.685C2851.1 410.871 2852.21 419.966 2852.28 426.584L2853.9 428.395L2913.51 428.794L2913.45 459.973C2913.5 463.497 2912.88 468.588 2913.84 471.806L2915.02 472.771C2916.47 477.109 2916.81 490.094 2915.19 494.218L2915.12 495.078L2915.19 597.057C3047.2 565.823 2915.18 597.057 3047.2 565.823L3071.46 561.36L3071.39 456.353L3071.4 394.865V342.274L3071.57 296.72L3071.12 293.523C3068.89 291.355 3061.25 292.327 3057.96 292.334L3027.75 292.341C3024.54 292.333 3019.59 293.047 3016.93 291.273L3016.34 286.109Z" fill="#01528F"/>
<path d="M2913.68 445.083L2915.98 443.614L2916 424.371L2913.57 422.688C2912.01 427.106 2911.31 439.155 2912.82 443.518C2912.99 444.002 2913.45 444.69 2913.68 445.083Z" fill="#33B5FE"/>
<path d="M2913.57 422.687L2853.77 422.41C2851.7 428.596 2852.81 437.691 2852.88 444.309C2858.72 446.397 2867.59 445.245 2873.8 445.242C2886.96 445.239 2900.59 445.963 2913.68 445.082C2913.45 444.69 2912.99 444.002 2912.82 443.518C2911.31 439.154 2912.01 427.105 2913.57 422.687Z" fill="#2599C5"/>
<path d="M3016.5 422.681L2955.15 422.379L2955.18 445.176L3016.5 445.133V422.681Z" fill="#62E2FB"/>
<path d="M3016.59 489.486L2955.22 489.624L2955.19 512.803L3016.61 512.794L3016.59 489.486Z" fill="#62E2FB"/>
<path d="M3016.55 352.762L2954.89 352.422L2954.91 375.825L3016.55 375.928V352.762Z" fill="#62E2FB"/>
<path d="M2915.06 729.135L2853.61 729.202L2853.67 752.108L2916.34 752.406L2916.41 751.547C2918.03 747.422 2917.69 734.437 2916.24 730.099L2915.06 729.135Z" fill="#2599C5"/>
<path d="M2858.37 591.676L2854.33 592.226C2851.9 597.413 2853.41 609.803 2853.45 615.891L2892.19 615.938C2898.64 615.948 2905.81 615.309 2912.18 616.124C2913.96 615.956 2914.82 615.489 2916.32 614.585C2916.34 609.163 2917.91 595.511 2914.84 591.754C2910.1 593.374 2903.08 592.489 2897.98 592.468C2884.83 592.413 2871.48 592.768 2858.37 591.676Z" fill="#2599C5"/>
<path d="M2914.18 662.29L2854.39 662.014C2852.32 668.2 2853.43 677.295 2853.5 683.913C2859.34 686.001 2868.2 684.848 2874.42 684.846C2887.58 684.842 2901.2 685.566 2914.3 684.685C2914.06 684.293 2913.6 683.605 2913.44 683.121C2911.93 678.758 2912.63 666.709 2914.18 662.29Z" fill="#2599C5"/>
<path d="M3017.12 662.282L2955.76 661.98L2955.8 684.778L3017.12 684.734V662.282Z" fill="#62E2FB"/>
<path d="M3017.21 729.088L2955.83 729.226L2955.81 752.404L3017.22 752.396L3017.21 729.088Z" fill="#62E2FB"/>
<path d="M3017.16 592.364L2955.5 592.023L2955.53 615.427L3017.16 615.529V592.364Z" fill="#62E2FB"/>
<path d="M2913.06 990.066L2851.61 990.134L2851.67 1013.04L2914.34 1013.34L2914.41 1012.48C2916.03 1008.35 2915.69 995.369 2914.24 991.031L2913.06 990.066Z" fill="#2599C5"/>
<path d="M2856.37 852.609L2852.33 853.16C2849.9 858.346 2851.41 870.737 2851.45 876.825L2890.19 876.872C2896.64 876.882 2903.81 876.243 2910.18 877.058C2911.96 876.89 2912.82 876.423 2914.32 875.519C2914.34 870.097 2915.91 856.444 2912.84 852.688C2908.1 854.308 2901.08 853.423 2895.98 853.401C2882.83 853.347 2869.48 853.702 2856.37 852.609Z" fill="#2599C5"/>
<path d="M2912.18 923.222L2852.39 922.945C2850.32 929.131 2851.43 938.226 2851.5 944.844C2857.34 946.933 2866.2 945.78 2872.42 945.777C2885.58 945.774 2899.2 946.498 2912.3 945.617C2912.06 945.225 2911.6 944.537 2911.44 944.053C2909.93 939.689 2910.63 927.641 2912.18 923.222Z" fill="#2599C5"/>
<path d="M3015.12 923.214L2953.76 922.912L2953.8 945.709L3015.12 945.666V923.214Z" fill="#62E2FB"/>
<path d="M3015.21 990.021L2953.83 990.159L2953.81 1013.34L3015.22 1013.33L3015.21 990.021Z" fill="#62E2FB"/>
<path d="M3015.16 853.295L2953.5 852.955L2953.53 876.358L3015.16 876.461V853.295Z" fill="#62E2FB"/>
<path d="M2760.02 408.592C2753.5 408.592 2758.57 408.592 2753.5 408.592C2753.5 445.684 2753.5 408.592 2753.5 445.684H2760.02L2760.02 408.592Z" fill="#33C0CE"/>
<path d="M2644.77 387.876L2576.81 387.57L2576.68 415.915L2576.96 420.665L2645.07 420.614L2753.33 420.655L2753.57 416.147L2753.44 388.082L2644.77 387.876Z" fill="#723D95"/>
<path d="M2644.78 416.136L2576.68 415.914L2576.96 420.664L2645.07 420.613L2753.33 420.654L2753.57 416.146L2644.78 416.136Z" fill="#053157"/>
<path d="M2644.77 387.876L2576.81 387.57L2576.68 415.915L2644.79 416.137L2644.77 387.876Z" fill="#4B307D"/>
<path d="M2636.84 829.68L2585.27 829.639L2585.28 849.456L2636.81 849.362L2636.84 829.68Z" fill="#EB8CD5"/>
<path d="M2636.89 695.82L2585.22 695.908L2585.32 715.575L2636.95 715.56L2636.89 695.82Z" fill="#EB8CD5"/>
<path d="M2634.37 762.604L2585.29 762.667L2585.31 782.494L2636.83 782.535L2636.78 764.246L2634.37 762.604Z" fill="#EB8CD5"/>
<path d="M2747.09 763.159L2694.54 763.014V782.75L2747.06 782.685L2747.09 763.159Z" fill="#EB8CD5"/>
<path d="M2747.15 695.896H2694.25L2694.39 715.663L2747.22 715.683L2747.15 695.896Z" fill="#EB8CD5"/>
<path d="M2746.96 829.018L2694.39 829.049L2694.43 848.999L2747.09 849.042L2746.96 829.018Z" fill="#EB8CD5"/>
<path d="M2636.84 1033.39L2585.27 1033.35L2585.28 1053.16L2636.81 1053.07L2636.84 1033.39Z" fill="#EB8CD5"/>
<path d="M2636.89 899.531L2585.22 899.619L2585.32 919.286L2636.95 919.271L2636.89 899.531Z" fill="#EB8CD5"/>
<path d="M2634.37 966.312L2585.29 966.376L2585.31 986.203L2636.83 986.244L2636.78 967.955L2634.37 966.312Z" fill="#EB8CD5"/>
<path d="M2747.09 966.869L2694.54 966.725V986.461L2747.06 986.396L2747.09 966.869Z" fill="#EB8CD5"/>
<path d="M2747.15 899.607H2694.25L2694.39 919.374L2747.22 919.394L2747.15 899.607Z" fill="#EB8CD5"/>
<path d="M2746.96 1032.73L2694.39 1032.76L2694.43 1052.71L2747.09 1052.75L2746.96 1032.73Z" fill="#EB8CD5"/>
<path d="M2797.02 411.846L2759.79 411.846L2759.54 445.683C2763.21 444.884 2767.67 445.324 2771.42 445.288H2797.03C2797.02 411.846 2797.02 445.288 2797.02 411.846Z" fill="#2AC1C2"/>
<path d="M4363.99 412.597C4361.63 403.305 4358.75 394.292 4357.05 384.826L4354.58 366.327C4354.21 362.307 4354.4 357.709 4352.83 354C4351.12 356.734 4351.71 368.358 4351.34 372.023C4349.91 386.286 4346.91 398.834 4342.47 412.437L4294.63 412.774V504.837V607.527V698.67V1019.8V1078.63L4418.15 1079.42L4418.3 830.897L4418.32 665.652L4441.61 666.284L4441.58 645.325L4477.14 645.287L4478.24 645.222L4510.59 645.379L4561.01 645.569L4561.05 597.243L4598.69 597.148L4598.82 504.99L4598.74 465.71L4652.85 465.416L4653.17 504.914L4652.97 566.491L4678.61 566.364L4678.51 505.324L4678.49 445.405L4723.11 445.079L4724.23 444.978L4724.38 420.055C4722.94 417.854 4723.23 415.231 4723.05 412.609C4716.98 411.047 4708.68 412.486 4702.29 412.513L4651.55 412.418L4442.83 411.846L4363.99 412.597Z" fill="#2599C5"/>
<path d="M4342.46 413L4294.63 413.337V505.399C4303 505.2 4313.57 503.671 4321.69 505.216C4321.55 492.922 4320.04 478.783 4321.66 466.672C4322.28 462.056 4325.38 456.947 4327.09 452.614L4342.46 413Z" fill="#44D1CF"/>
<path d="M4321.69 504.683C4313.57 503.138 4303 504.668 4294.63 504.867V607.558V698.7L4321.79 698.801V607.102L4321.69 504.683Z" fill="#44CFD0"/>
<path d="M4418.3 831.595L4407.88 831.575C4404.98 827.992 4406.72 778.772 4406.75 770.069L4346.22 770L4346.75 890.809L4322.76 890.511L4322.92 1021.1L4294.63 1020.5V1079.33L4418.15 1080.12L4418.3 831.595Z" fill="#1C92B8"/>
<path d="M1281.29 225.295C1278.93 214.36 1280.99 200.467 1281.63 189.254C1282.09 181.141 1281.88 171.913 1283.67 164C1284.7 175.327 1289.69 215.877 1286.34 225.385L1301.08 225.367L1301.14 258.018C1301.16 261.41 1300.42 267.389 1302.08 270.271L1302.63 270.419C1308.23 271.767 1315.44 270.965 1321.25 270.903L1321.35 291.98L1351.89 291.92L1352.07 304.659L1351.77 305.791L1351.84 320.488L1352.52 320.619C1359.72 321.869 1367.94 321.12 1375.25 321.072L1375.31 347.384C1369.51 346.343 1361.86 347.242 1355.86 347.224L1284.52 347.918L1193.32 347.936L1193.18 322.627C1197.41 320.093 1210.38 321.512 1215.69 321.499L1215.66 305.623L1215.57 291.765L1240.2 291.802L1240.26 270.952L1265.61 270.876L1265.47 225.477L1281.29 225.295Z" fill="#014580"/>
<path d="M1284.06 306.097L1351.77 306L1351.84 320.697L1351.12 321.164L1283.52 321.015C1283.4 315.958 1283.37 311.129 1284.06 306.097Z" fill="#1D3895"/>
<path d="M1281.29 226L1282.93 226.231C1283.96 231.863 1283.58 237.898 1283.61 243.609L1283.73 272.129L1283.57 306.386L1215.66 306.327L1215.57 292.47L1240.2 292.507L1240.26 271.656L1265.61 271.581L1265.47 226.181L1281.29 226Z" fill="#0659BB"/>
<path d="M1351.84 321L1352.52 321.131C1359.72 322.381 1367.94 321.632 1375.25 321.583L1375.31 347.896C1369.51 346.855 1361.86 347.753 1355.86 347.735L1284.52 348.429L1193.32 348.447L1193.18 323.139C1197.41 320.604 1210.38 322.024 1215.69 322.01L1264.03 321.567C1270 321.574 1277.84 320.649 1283.59 321.905C1291.03 323.424 1300.67 322.363 1308.39 322.371L1336.68 322.346C1341.27 322.329 1346.76 322.909 1351.12 321.467L1351.84 321Z" fill="#0659BB"/>
<path d="M1165.18 501.729L1165.36 348.405L1192.65 348.317C1192.65 340.301 1192 331.627 1193.09 323.705L1193.18 323L1193.32 348.308L1284.52 348.29L1355.86 347.596C1361.86 347.614 1369.51 346.716 1375.31 347.757L1397.28 347.918L1397.12 388.801L1397.28 488.264L1406.3 1080.7H1247.75V722.698L1247.74 590.053L1247.5 572.916C1245.44 570.325 1243.43 567.938 1240.05 567.167C1234.58 565.918 1226.97 567.027 1221.27 567.192C1201.38 567.775 1184.33 567.789 1165.08 561.823L1165.18 501.729Z" fill="#017DC5"/>
<path d="M1311.34 409L1370.85 409.055L1370.88 429.199L1311.32 429.352L1311.34 409Z" fill="#27B8F6"/>
<path d="M1311.31 527.032L1371.43 527L1371.41 547.504L1311.3 547.679L1311.31 527.032Z" fill="#27B8F6"/>
<path d="M1311.13 646L1371.36 646.119L1371.32 666.563L1311.13 666.699V646Z" fill="#27B8F6"/>
<path d="M1311.19 587.317L1371.43 587L1371.41 607.942L1311.29 607.997L1311.19 587.317Z" fill="#27B8F6"/>
<path d="M1311.23 468L1371.42 468.056L1371.43 488.736L1311.2 488.841L1311.23 468Z" fill="#27B8F6"/>
<path d="M1198.54 1061.22C1197.2 1067.38 1199.43 1072.7 1202.2 1078.04L1102.04 1078.22L1016.49 1078.07V891.844V825.609V493.149L1070.89 493L1071.07 623.529L1118.76 623.584L1118.61 556.018L1177.89 556.004C1179.56 558.778 1178.39 571.757 1178.39 575.581L1178.42 645.99C1198.54 1061.22 1178.42 645.99 1198.54 1061.22Z" fill="#0EA5A3"/>
<path d="M1165.18 501.729L1165.36 348.405L1192.65 348.317C1192.65 340.301 1192 331.627 1193.09 323.705L1193.18 323L1193.32 348.308L1284.52 348.29V1079.01C1165.18 1079.01 1284.52 1079.01 1165.18 1079.01L1165.18 501.729Z" fill="#0097F4"/>
<path d="M1197.42 409.085L1256.91 409L1256.78 428.615L1197.46 428.456L1197.42 409.085Z" fill="#00EBF9"/>
<path d="M1197.58 587.085L1257.06 587L1256.94 606.615L1197.61 606.456L1197.58 587.085Z" fill="#00EBF9"/>
<path d="M1207.64 528.066L1252.56 528.189L1255.92 528.478C1257.25 534.344 1256.44 541.902 1256.41 547.958L1242.81 547.849L1205.99 547.881L1198.51 547.768C1195.97 545.069 1197.1 533.627 1197.09 529.415L1198.51 528L1207.64 528.066Z" fill="#33D6FA"/>
<path d="M1207.8 965.066L1252.72 965.189L1256.07 965.478C1257.4 971.344 1256.6 978.902 1256.57 984.958L1242.96 984.849L1206.14 984.881L1198.66 984.768C1196.12 982.069 1197.25 970.627 1197.24 966.415L1198.66 965L1207.8 965.066Z" fill="#33D6FA"/>
<path d="M1252.57 528L1255.92 528.289C1257.25 534.155 1256.45 541.713 1256.42 547.769L1242.81 547.66C1213.96 528 1242.81 547.66 1213.96 528C1252.57 528 1213.96 528 1252.57 528Z" fill="#00EBF9"/>
<path d="M1252.72 965L1256.08 965.289C1257.41 971.155 1256.6 978.713 1256.57 984.769L1242.97 984.66C1214.12 965 1242.97 984.66 1214.12 965C1252.72 965 1214.12 965 1252.72 965Z" fill="#00EBF9"/>
<path d="M1224.3 469.273L1256.51 469L1256.55 489.033L1230.38 489.032L1197.16 488.935L1197.19 469.422L1224.3 469.273Z" fill="#00EBF9"/>
<path d="M1224.45 647.273L1256.66 647L1256.7 667.033L1230.54 667.032L1197.31 666.935L1197.35 647.422L1224.45 647.273Z" fill="#00EBF9"/>
<path d="M1311.34 728L1370.85 728.055L1370.88 748.199L1311.32 748.352L1311.34 728Z" fill="#27B8F6"/>
<path d="M1311.31 845.032L1371.43 845L1371.41 865.504L1311.3 865.679L1311.31 845.032Z" fill="#27B8F6"/>
<path d="M1311.13 965L1371.36 965.119L1371.32 985.563L1311.13 985.699V965Z" fill="#27B8F6"/>
<path d="M1311.19 906.317L1371.43 906L1371.41 926.942L1311.29 926.997L1311.19 906.317Z" fill="#27B8F6"/>
<path d="M1311.23 787L1371.42 787.056L1371.43 807.736L1311.2 807.841L1311.23 787Z" fill="#27B8F6"/>
<path d="M1197.42 728.085L1256.91 728L1256.78 747.615L1197.46 747.456L1197.42 728.085Z" fill="#00EBF9"/>
<path d="M1207.64 846.066L1252.56 846.189L1255.92 846.478C1257.25 852.344 1256.44 859.902 1256.41 865.958L1242.81 865.849L1205.99 865.881L1198.51 865.768C1195.97 863.069 1197.1 851.627 1197.09 847.415L1198.51 846L1207.64 846.066Z" fill="#33D6FA"/>
<path d="M1252.57 846L1255.92 846.289C1257.25 852.155 1256.45 859.713 1256.42 865.769L1242.81 865.66C1213.96 846 1242.81 865.66 1213.96 846C1252.57 846 1213.96 846 1252.57 846Z" fill="#00EBF9"/>
<path d="M1224.3 787.273L1256.51 787L1256.55 807.033L1230.38 807.032L1197.16 806.935L1197.19 787.422L1224.3 787.273Z" fill="#00EBF9"/>
<path d="M1311.34 728L1370.85 728.055L1370.88 748.199L1311.32 748.352L1311.34 728Z" fill="#27B8F6"/>
<path d="M1311.31 845.032L1371.43 845L1371.41 865.504L1311.3 865.679L1311.31 845.032Z" fill="#27B8F6"/>
<path d="M1311.13 965L1371.36 965.119L1371.32 985.563L1311.13 985.699V965Z" fill="#27B8F6"/>
<path d="M1311.19 906.317L1371.43 906L1371.41 926.942L1311.29 926.997L1311.19 906.317Z" fill="#27B8F6"/>
<path d="M1311.23 787L1371.42 787.056L1371.43 807.736L1311.2 807.841L1311.23 787Z" fill="#27B8F6"/>
<path d="M1197.42 728.085L1256.91 728L1256.78 747.615L1197.46 747.456L1197.42 728.085Z" fill="#00EBF9"/>
<path d="M1207.64 846.066L1252.56 846.189L1255.92 846.478C1257.25 852.344 1256.44 859.902 1256.41 865.958L1242.81 865.849L1205.99 865.881L1198.51 865.768C1195.97 863.069 1197.1 851.627 1197.09 847.415L1198.51 846L1207.64 846.066Z" fill="#33D6FA"/>
<path d="M1252.57 846L1255.92 846.289C1257.25 852.155 1256.45 859.713 1256.42 865.769L1242.81 865.66C1213.96 846 1242.81 865.66 1213.96 846C1252.57 846 1213.96 846 1252.57 846Z" fill="#00EBF9"/>
<path d="M1224.3 787.273L1256.51 787L1256.55 807.033L1230.38 807.032L1197.16 806.935L1197.19 787.422L1224.3 787.273Z" fill="#00EBF9"/>
<path d="M1224.14 906.273L1256.35 906L1256.39 926.033L1230.22 926.032L1197 925.935L1197.03 906.422L1224.14 906.273Z" fill="#00EBF9"/>
<path d="M3598.96 644.727H3648.99C3648.98 1078.77 3648.99 644.727 3648.98 1078.77L3589.41 1078.81C3584.75 1080.57 3578.43 1079.85 3573.45 1079.87L3541.45 1079.89H3432.4V992.061C3432.4 961.897 3432.4 992.061 3432.4 961.897L3432.74 721.874L3432.85 644.727L3465.24 644.735C3598.97 644.727 3465.24 644.735 3598.96 644.727Z" fill="#6F3CCE"/>
<path d="M3567.01 688.697L3619.9 688.693L3619.89 705.514L3567.12 705.523L3567.01 688.697Z" fill="#DE5DF0"/>
<path d="M3462.97 688.502L3514.85 688.355L3514.84 705.677L3463.1 705.632L3462.97 688.502Z" fill="#DE5DF0"/>
<path d="M3462.38 797.44L3514.77 797.34L3514.78 814.52L3462.43 814.461L3462.38 797.44Z" fill="#DE5DF0"/>
<path d="M3462.6 852.313L3514.57 852.172L3514.54 869.576L3462.59 869.612L3462.6 852.313Z" fill="#DE5DF0"/>
<path d="M3462.85 742.164L3514.33 742.179L3514.36 759.666L3462.92 759.786L3462.85 742.164Z" fill="#DE5DF0"/>
<path d="M3462.83 906.216L3514.78 906.215L3514.65 923.713L3462.94 923.639L3462.83 906.216Z" fill="#DE5DF0"/>
<path d="M3566.56 906.293L3619.94 906.238L3619.96 923.302L3566.59 923.198L3566.56 906.293Z" fill="#DE5DF0"/>
<path d="M3566.65 742.23L3620.19 742.07L3620.15 759.446L3566.79 759.393L3566.65 742.23Z" fill="#DE5DF0"/>
<path d="M3566.38 797.541L3620.48 797.113L3620.39 814.797L3566.43 814.582L3566.38 797.541Z" fill="#DE5DF0"/>
<path d="M3566.46 852.085L3619.97 851.965L3619.95 869.695L3566.47 869.681L3566.46 852.085Z" fill="#DE5DF0"/>
<path d="M3598.1 618.025C3600.61 619.82 3602.46 618.576 3604.68 619.669C3608 621.3 3612.53 640.624 3613.71 644.759L3541.26 644.628L3465.23 644.736C3468.28 635.919 3471.02 626.953 3475.23 618.608L3486.75 619.126C3598.11 618.026 3486.75 619.126 3598.1 618.025Z" fill="#1D3895"/>
<path d="M3500.14 596.388L3539.43 596.41L3577.27 596.602C3582.55 596.616 3589.7 595.638 3594.56 597.637C3597.11 600.258 3598.16 601.143 3598.11 605.034L3597.77 613.453L3596.86 618.437C3582.32 620.554 3565.29 619.19 3550.5 619.234C3529.42 619.295 3507.75 620.32 3486.75 619.127C3486.65 613.667 3485.22 602.376 3489.06 598.338C3491.48 595.803 3496.79 596.515 3500.14 596.388Z" fill="#6F3CCE"/>
<path d="M3385.66 718.168L3389.72 718.349C3391.28 723.59 3390.33 731.34 3390.33 736.849L3390.35 779.48L3390.79 1079.76C3185.19 1079.76 3347.06 1079.47 3185.19 1079.76C3185.27 978.961 3185.19 949.919 3184.97 827.923L3184.77 718.508L3385.66 718.168Z" fill="#017DC5"/>
<path d="M3304.89 864.034L3356.61 863.969L3356.64 881.14L3304.91 881.049L3304.89 864.034Z" fill="#27B8F6"/>
<path d="M3304.71 915.625L3356.93 915.657L3357.01 932.813L3304.74 932.694L3304.71 915.625Z" fill="#27B8F6"/>
<path d="M3304.98 756.917L3356.76 756.746L3356.77 774.474L3305 774.494L3304.98 756.917Z" fill="#27B8F6"/>
<path d="M3215.04 864.039L3269.48 863.924L3269.45 881.057L3215.19 881.211L3215.04 864.039Z" fill="#27B8F6"/>
<path d="M3304.91 808.249L3356.72 808.193L3356.75 826.339L3304.81 826.218L3304.91 808.249Z" fill="#27B8F6"/>
<path d="M3214.66 757.095L3269.54 756.994L3269.56 774.514L3214.68 774.502L3214.66 757.095Z" fill="#27B8F6"/>
<path d="M3214.92 915.69L3269.33 915.668L3269.35 933.283L3215 933.293L3214.92 915.69Z" fill="#27B8F6"/>
<path d="M3214.95 808.196L3269.57 808.031L3269.49 826.524L3214.81 826.5L3214.95 808.196Z" fill="#27B8F6"/>
<path d="M3305.01 977.618L3356.78 977.447L3356.79 995.176L3305.02 995.196L3305.01 977.618Z" fill="#27B8F6"/>
<path d="M3304.93 1028.95L3356.74 1028.89L3356.77 1047.04L3304.83 1046.92L3304.93 1028.95Z" fill="#27B8F6"/>
<path d="M3214.69 977.797L3269.56 977.695L3269.58 995.215L3214.7 995.203L3214.69 977.797Z" fill="#27B8F6"/>
<path d="M3214.97 1028.9L3269.59 1028.73L3269.52 1047.23L3214.83 1047.2L3214.97 1028.9Z" fill="#27B8F6"/>
<path d="M3385.66 718.168L3389.73 718.349C3391.28 723.59 3390.33 731.34 3390.33 736.849L3390.35 779.48L3389.73 1079.86H3377.4V719.275L3385.66 718.168Z" fill="#0659BB"/>
</g>
<defs>
<clipPath id="clip0_404_3425">
<rect width="4295" height="1080" fill="white"/>
</clipPath>
</defs>
</svg>
