<svg width="4295" height="1080" viewBox="0 0 4295 1080" fill="none" xmlns="http://www.w3.org/2000/svg">
<path d="M3848.09 233.858C3863.69 229.762 3878.91 230.752 3893.08 239.184C3904.88 246.2 3913.93 259.555 3917.24 272.898C3922.23 293.021 3915.21 308.754 3905.49 325.838L3826.95 325.806C3815.75 325.815 3799.79 327.947 3789.14 324.8C3782.94 322.97 3778.19 317.775 3775.43 312.004C3772.62 306.13 3772.82 300.139 3774.95 294.096C3777.15 287.843 3782.45 282.489 3788.33 279.774C3796.09 276.192 3802.7 278.423 3810.23 281.377C3811.06 275.285 3812.36 269.416 3814.74 263.743C3821.39 247.951 3833.07 239.895 3848.09 233.858Z" fill="#FEFDFE"/>
<path d="M3848.09 233.857C3858.14 215.384 3875.31 202.613 3895.03 196.694C3918.07 189.778 3942.3 193.62 3963.09 205.413C3978.71 214.276 3991.59 228.183 3999.76 244.417C4000.37 245.625 4005.73 259.391 4005.8 259.436C4006.73 259.982 4017.43 257.127 4019.43 256.987C4037.19 255.74 4054.13 265.84 4059.14 283.983C4060.53 289.021 4060.39 296.361 4059.07 301.346C4056.37 311.52 4050.14 318.625 4043.01 325.933L3905.49 325.837C3915.21 308.754 3922.23 293.02 3917.24 272.898C3913.93 259.554 3904.88 246.199 3893.08 239.183C3878.91 230.752 3863.69 229.761 3848.09 233.857Z" fill="#62E2FB"/>
<path d="M2947.86 65.4961C2944 66.0196 2939.98 66.4261 2936.69 68.7529C2931.98 72.0861 2930.28 76.9351 2929.33 82.486L2929.15 83.6078C2926.78 86.433 2918.77 84.1243 2914.25 87.4998C2911.07 89.8679 2910 92.6478 2909.45 96.4829C2910.01 99.2395 2910.59 101.465 2912.64 103.471C2917.13 107.845 2929.08 106.184 2935.18 106.088C2942.82 106.123 2963.19 108.404 2968.96 104.469C2972.56 102.016 2975.13 98.8386 2975.96 94.4518C2976.52 91.5123 2976.27 88.1905 2974.47 85.7185C2971.53 81.6832 2967.82 81.648 2963.38 81.1695C2962.7 79.1963 2961.97 77.2343 2960.98 75.4021C2957.86 69.661 2953.93 67.2164 2947.86 65.4961Z" fill="#FEFDFE"/>
<path d="M3126.78 131.608C3121.44 127.686 3116.7 125.516 3110.01 126.713C3107.14 127.225 3104.28 128.334 3101.55 129.331C3098.4 114.693 3092.98 102.482 3080.18 94.0045C3070.08 87.312 3058.08 84.5781 3046.27 87.3647C3034.24 90.2047 3022.93 98.376 3016.57 109.214C3011.9 117.171 3010.11 125.573 3010.85 134.769C3012.16 140.977 3013.93 147.197 3017.67 152.377C3021.62 157.835 3028.63 164.058 3035.46 164.881C3048.42 166.441 3063.27 165.169 3076.43 165.176C3089.77 165.184 3104.8 166.474 3117.94 164.93C3120.81 164.593 3123.72 162.842 3125.95 161.029C3129.72 157.954 3132.78 152.987 3133.22 148.011C3133.81 141.286 3130.75 136.607 3126.78 131.608Z" fill="#FEFDFE"/>
<path d="M4199.86 100.598C4184.26 96.5018 4169.04 97.4927 4154.87 105.924C4143.07 112.94 4134.02 126.295 4130.72 139.639C4125.73 159.761 4132.74 175.495 4142.46 192.578L4221 192.546C4232.2 192.555 4248.16 194.688 4258.82 191.54C4265.01 189.71 4269.76 184.515 4272.52 178.744C4275.33 172.871 4275.14 166.879 4273 160.837C4270.8 154.583 4265.5 149.23 4259.62 146.514C4251.86 142.933 4245.25 145.163 4237.72 148.117C4236.89 142.025 4235.59 136.156 4233.21 130.483C4226.56 114.692 4214.88 106.635 4199.86 100.598Z" fill="#FEFDFE"/>
<path d="M4199.86 100.598C4189.81 82.1241 4172.64 69.3537 4152.92 63.4344C4129.88 56.5181 4105.65 60.3601 4084.86 72.1528C4069.24 81.016 4056.36 94.9235 4048.19 111.157C4047.58 112.365 4042.22 126.131 4042.15 126.176C4041.22 126.723 4030.52 123.867 4028.52 123.727C4010.76 122.48 3993.82 132.58 3988.81 150.723C3987.42 155.761 3987.56 163.101 3988.88 168.086C3991.58 178.261 3997.81 185.365 4004.94 192.674L4142.46 192.577C4132.74 175.494 4125.73 159.76 4130.72 139.638C4134.02 126.294 4143.07 112.94 4154.87 105.923C4169.04 97.492 4184.26 96.501 4199.86 100.598Z" fill="#62E2FB"/>
<path d="M2308.79 130.041C2301.14 118.706 2292.19 108.316 2282.05 99.2585C2250.94 71.4846 2210.61 59.2189 2169.65 62.2114C2125.14 65.4638 2091.26 91.1299 2062.92 124.509C2091.27 127.261 2116.75 136.858 2135.34 159.922C2151.19 179.585 2158.84 204.012 2156.35 229.493C2154.38 249.646 2144.53 269.498 2128.97 282.206L2111.63 293.839L2309.79 293.719C2313.78 293.897 2317.76 293.57 2321.67 292.804C2336 290.005 2348.06 281.334 2355.98 268.916C2364.5 255.581 2365.78 241.754 2362.65 226.468C2357.09 212.235 2349.02 203.064 2335.3 196.802C2334.46 196.422 2330.76 195.109 2330.39 194.632C2330.11 194.253 2330.03 190.075 2329.93 189.137C2329.44 184.041 2328.5 179.09 2327.28 174.129C2323.32 158.161 2317 144.148 2308.79 130.041Z" fill="#62E2FB"/>
<path d="M2062.92 124.51C2048.96 125.172 2036.92 127.91 2023.88 133.029C1999.79 145.352 1978.85 165.528 1969.98 192.157L1966.17 206.361C1955.14 201.054 1944.98 198.288 1933.02 202.337C1921.19 206.333 1910.42 214.989 1904.7 226.425L1902.09 231.923C1898.66 246.019 1899.01 258.631 1906.49 271.411C1913.31 283.039 1923.94 290.32 1936.73 293.272C1942.71 294.652 1949.84 293.932 1956.01 293.933L1992.1 293.868L2111.63 293.839L2128.97 282.206C2144.54 269.498 2154.38 249.646 2156.35 229.494C2158.84 204.012 2151.19 179.585 2135.34 159.923C2116.75 136.859 2091.28 127.262 2062.92 124.51Z" fill="#FEFDFE"/>
<path d="M1027.86 65.4961C1024 66.0196 1019.98 66.4261 1016.69 68.7529C1011.98 72.0861 1010.28 76.9351 1009.33 82.486L1009.15 83.6078C1006.78 86.433 998.773 84.1243 994.245 87.4998C991.069 89.8679 990.001 92.6478 989.45 96.4829C990.007 99.2395 990.585 101.465 992.644 103.471C997.135 107.845 1009.08 106.184 1015.18 106.088C1022.82 106.123 1043.19 108.404 1048.96 104.469C1052.56 102.016 1055.13 98.8386 1055.96 94.4518C1056.52 91.5123 1056.27 88.1905 1054.47 85.7185C1051.53 81.6832 1047.82 81.648 1043.38 81.1695C1042.7 79.1963 1041.97 77.2343 1040.98 75.4021C1037.86 69.661 1033.93 67.2164 1027.86 65.4961Z" fill="#FEFDFE"/>
<path d="M1206.78 131.608C1201.44 127.686 1196.7 125.516 1190.01 126.713C1187.14 127.225 1184.28 128.334 1181.55 129.331C1178.4 114.693 1172.98 102.482 1160.18 94.0045C1150.08 87.312 1138.08 84.5781 1126.27 87.3647C1114.24 90.2047 1102.93 98.376 1096.57 109.214C1091.9 117.171 1090.11 125.573 1090.85 134.769C1092.16 140.977 1093.93 147.197 1097.67 152.377C1101.62 157.835 1108.63 164.058 1115.46 164.881C1128.42 166.441 1143.27 165.169 1156.43 165.176C1169.77 165.184 1184.8 166.474 1197.94 164.93C1200.81 164.593 1203.72 162.842 1205.95 161.029C1209.72 157.954 1212.78 152.987 1213.22 148.011C1213.81 141.286 1210.75 136.607 1206.78 131.608Z" fill="#FEFDFE"/>
<path d="M1911.56 334.718C1895.97 330.621 1880.75 331.612 1866.57 340.043C1854.78 347.059 1845.73 360.414 1842.42 373.758C1837.43 393.88 1844.44 409.614 1854.17 426.697L1932.71 426.666C1943.91 426.674 1959.86 428.807 1970.52 425.659C1976.71 423.829 1981.46 418.634 1984.22 412.863C1987.03 406.99 1986.84 400.998 1984.71 394.956C1982.5 388.702 1977.21 383.349 1971.32 380.633C1963.57 377.052 1956.95 379.282 1949.43 382.236C1948.59 376.144 1947.3 370.275 1944.91 364.602C1938.27 348.811 1926.58 340.754 1911.56 334.718Z" fill="#FEFDFE"/>
<path d="M1911.56 334.717C1901.52 316.243 1884.35 303.473 1864.63 297.554C1841.59 290.637 1817.35 294.479 1796.57 306.272C1780.95 315.135 1768.07 329.043 1759.89 345.276C1759.28 346.484 1753.93 360.25 1753.85 360.295C1752.93 360.842 1742.22 357.986 1740.22 357.846C1722.47 356.599 1705.53 366.7 1700.52 384.842C1699.13 389.881 1699.27 397.221 1700.59 402.206C1703.29 412.38 1709.51 419.484 1716.65 426.793L1854.17 426.696C1844.44 409.613 1837.43 393.879 1842.42 373.757C1845.73 360.413 1854.78 347.059 1866.57 340.042C1880.75 331.611 1895.97 330.62 1911.56 334.717Z" fill="#62E2FB"/>
<path d="M456.788 130.041C449.143 118.706 440.187 108.316 430.052 99.2585C398.938 71.4846 358.609 59.2189 317.655 62.2114C273.137 65.4638 239.263 91.1299 210.922 124.509C239.274 127.261 264.748 136.858 283.344 159.922C299.19 179.585 306.835 204.012 304.346 229.493C302.375 249.646 292.535 269.498 276.972 282.206L259.628 293.839L457.791 293.719C461.779 293.897 465.755 293.57 469.673 292.804C483.997 290.005 496.055 281.334 503.984 268.916C512.503 255.581 513.777 241.754 510.651 226.468C505.093 212.235 497.023 203.064 483.3 196.802C482.463 196.422 478.758 195.109 478.392 194.632C478.109 194.253 478.026 190.075 477.932 189.137C477.436 184.041 476.504 179.09 475.277 174.129C471.325 158.161 465 144.148 456.788 130.041Z" fill="#62E2FB"/>
<path d="M210.922 124.51C196.964 125.172 184.917 127.91 171.879 133.029C147.786 145.352 126.855 165.528 117.982 192.157L114.171 206.361C103.139 201.054 92.9798 198.288 81.0157 202.337C69.1931 206.333 58.4207 214.989 52.6982 226.425L50.0907 231.923C46.6572 246.019 47.0111 258.631 54.4916 271.411C61.3114 283.039 71.9423 290.32 84.7324 293.272C90.7144 294.652 97.841 293.932 104.012 293.933L140.105 293.868L259.628 293.839L276.973 282.206C292.535 269.498 302.376 249.646 304.346 229.494C306.836 204.012 299.19 179.585 283.344 159.923C264.749 136.859 239.275 127.262 210.922 124.51Z" fill="#FEFDFE"/>
<path d="M2060.53 284.37C2074.51 279.404 2085.89 279.131 2099.76 285.184C2110.79 291.469 2118.13 299.049 2123.48 310.645C2125.65 315.348 2137.67 312.986 2142.88 318.25C2149.86 325.308 2150.53 332.866 2150.37 342.22L2122.1 342.703L2020.73 342.655C2017.44 340.58 2014.49 338.569 2012.57 335.088C2010.72 331.748 2010.29 328.2 2011.41 324.542C2013.52 317.68 2019.71 312.69 2026.84 312.364C2028.1 312.306 2031.92 312.68 2032.75 312.286C2033.67 311.855 2038.79 302.371 2040 300.768C2045.5 293.467 2052.47 288.532 2060.53 284.37Z" fill="#FEFFFE"/>
<path d="M2450.24 72.3711C2461.08 71.0193 2471.88 73.1375 2481.63 78.0166C2494.97 84.6959 2502.49 96.6154 2507.2 110.385L2510.3 110.085C2519.83 109.527 2529.16 108.721 2536.7 115.665C2540.86 119.505 2542.87 124.217 2543.01 129.854C2543.13 134.624 2541.19 139.902 2537.85 143.352C2535.71 145.568 2532.22 147.893 2529.21 148.688C2522.56 150.447 2513.49 149.488 2506.54 149.492L2460.3 149.415L2401.29 149.287C2394.88 149.267 2385.17 150.517 2379.1 148.752C2376.82 148.092 2373.58 145.105 2371.87 143.453C2367.98 139.702 2365.79 134.527 2365.86 129.122C2365.94 123.154 2367.73 118.331 2372.08 114.193C2380.62 106.074 2396.92 108.866 2407.84 108.967C2410.49 106.458 2412.53 98.8158 2414.77 95.3375C2423.15 82.3256 2435.36 75.456 2450.24 72.3711Z" fill="#FEFFFE"/>
<path d="M3581.72 104.914C3609.32 105.199 3630.68 114.374 3650.01 134.014C3658.9 143.047 3664.82 153.567 3669.58 165.237C3670.86 168.717 3672.16 172.194 3673.06 175.796C3673.57 177.87 3673.85 181.166 3675.09 182.796C3690.64 174.914 3704.18 170.476 3721.54 176.315C3733.93 180.482 3744.18 188.875 3749.93 200.678L3753.49 209.842C3754.79 222.674 3753.68 234.891 3745.14 245.282C3738.88 252.882 3730.07 258.79 3720.06 259.553L3570.24 259.564L3446.58 259.652C3435.28 258.106 3421.88 259.539 3410.36 259.506C3403.92 259.487 3397.36 259.593 3391.53 256.521C3384.25 252.689 3378.41 245.786 3376.04 237.899C3373.99 231.102 3374.89 222.274 3378.4 216.094C3383.46 207.219 3390.8 202.412 3400.47 199.682C3405.22 199.301 3409.75 199.571 3414.36 200.743C3414.88 200.874 3418.79 202.011 3418.9 201.966C3419.61 201.651 3426.33 189.958 3427.92 188.086C3434.48 180.318 3443.62 174.554 3453.27 171.424C3467.71 166.736 3481.4 169.497 3494.5 176.226C3496.59 162.828 3504.21 149.387 3512.83 139.143C3530.22 118.482 3555.22 107.255 3581.72 104.914Z" fill="#FEFFFE"/>
<path d="M195.692 264.053C209.673 259.088 221.052 258.815 234.923 264.868C245.957 271.153 253.295 278.733 258.643 290.329C259.547 292.289 259.086 292.613 261.298 292.676L262.018 292.001C268.474 291.985 273.373 293.214 278.044 297.933C285.029 304.991 285.694 312.549 285.539 321.903L257.263 322.386L155.898 322.339C152.607 320.263 149.657 318.253 147.73 314.771C145.88 311.431 145.452 307.883 146.576 304.226C148.686 297.364 154.876 292.374 162 292.048C163.268 291.99 167.083 292.363 167.919 291.97C168.839 291.539 173.956 282.055 175.164 280.452C180.665 273.15 187.635 268.215 195.692 264.053Z" fill="#FEFFFE"/>
<path d="M585.405 85.7343C596.248 84.3825 607.045 86.5008 616.791 91.3799C630.134 98.0591 637.651 109.979 642.362 123.748L645.467 123.448C654.991 122.891 664.327 122.085 671.861 129.028C676.027 132.868 678.035 137.58 678.175 143.218C678.294 147.987 676.35 153.266 673.018 156.716C670.879 158.931 667.382 161.256 664.374 162.051C657.719 163.81 648.656 162.852 641.703 162.855L595.468 162.778L536.455 162.65C530.044 162.63 520.338 163.88 514.259 162.116C511.982 161.455 508.746 158.468 507.035 156.817C503.145 153.065 500.956 147.89 501.025 142.486C501.102 136.517 502.89 131.694 507.24 127.556C515.78 119.437 532.082 122.229 543.007 122.331C545.654 119.821 547.69 112.179 549.932 108.701C558.318 95.6889 570.526 88.8193 585.405 85.7343Z" fill="#FEFFFE"/>
<path d="M1648.89 118.279C1676.49 118.565 1697.84 127.739 1717.18 147.38C1726.07 156.412 1731.98 166.933 1736.74 178.603C1738.03 182.082 1739.33 185.559 1740.22 189.161C1740.74 191.235 1741.01 194.532 1742.26 196.161C1757.8 188.279 1771.35 183.841 1788.71 189.68C1801.1 193.847 1811.34 202.24 1817.1 214.043L1820.65 223.208C1821.95 236.039 1820.84 248.257 1812.3 258.647C1806.05 266.247 1797.24 272.155 1787.22 272.918L1637.4 272.929L1513.75 273.018C1502.44 271.471 1489.05 272.905 1477.52 272.871C1471.09 272.852 1464.53 272.958 1458.69 269.886C1451.42 266.054 1445.57 259.151 1443.2 251.265C1441.15 244.467 1442.05 235.639 1445.56 229.459C1450.63 220.585 1457.97 215.777 1467.64 213.047C1472.38 212.666 1476.92 212.936 1481.53 214.108C1482.04 214.24 1485.96 215.377 1486.06 215.331C1486.77 215.016 1493.5 203.324 1495.08 201.452C1501.64 193.684 1510.78 187.919 1520.44 184.79C1534.87 180.101 1548.56 182.863 1561.66 189.592C1563.75 176.193 1571.38 162.752 1579.99 152.509C1597.39 131.847 1622.38 120.62 1648.89 118.279Z" fill="#FEFFFE"/>
<path d="M3988.28 286.346C4002.26 281.381 4013.64 281.108 4027.51 287.161C4038.55 293.446 4045.88 301.026 4051.23 312.622C4053.4 317.325 4065.42 314.962 4070.63 320.226C4077.62 327.284 4078.28 334.842 4078.13 344.196L4049.85 344.679L3948.49 344.632C3945.2 342.556 3942.25 340.546 3940.32 337.064C3938.47 333.724 3938.04 330.176 3939.17 326.518C3941.28 319.657 3947.47 314.667 3954.59 314.341C3955.86 314.283 3959.67 314.656 3960.51 314.263C3961.43 313.832 3966.55 304.348 3967.75 302.745C3973.25 295.443 3980.23 290.508 3988.28 286.346Z" fill="#FEFFFE"/>
</svg>
