<svg width="4295" height="1080" viewBox="0 0 4295 1080" fill="none" xmlns="http://www.w3.org/2000/svg">
<g clip-path="url(#clip0_404_3988)">
<path d="M4081.59 950.045L4088.58 958.71C4096.06 947.808 4104.78 940.96 4117.81 938.808C4128.73 937.005 4140.82 939.781 4149.77 946.628C4158.91 953.628 4166.06 965.083 4167.51 976.969C4168.19 982.534 4167.79 988.499 4167.41 994.079C4178.26 985.885 4188.53 980.303 4202.34 981.632C4215.55 984.958 4226.1 990.897 4233.46 1003.36C4240.36 1015.03 4242.48 1028.37 4239.27 1041.69L4237.74 1047.35C4240.43 1048.85 4243.44 1047.92 4246.38 1048.2C4257.44 1049.23 4267.2 1059.19 4270.15 1070.07L4272.34 1080.66L3922.76 1080.73C3921.53 1077.34 3920.12 1073.69 3919.69 1070.08C3918.95 1063.88 3921.43 1056.93 3925.11 1052.13C3931.86 1043.3 3939.32 1041.34 3949.54 1040.1C3946.57 1034.53 3943.84 1028.85 3943.19 1022.42C3942.04 1011.04 3945.15 1000.68 3952.14 991.905C3958.57 983.841 3967.99 979.18 3977.93 978.498C3990.68 977.624 3999.1 982.442 4008.39 990.753C4008.61 986.239 4009.05 981.514 4010.05 977.117C4013.4 962.381 4022.24 953.284 4034.21 945.739C4046.78 940.635 4058.63 938.434 4071.52 944.389C4074.97 945.984 4078.45 947.844 4081.59 950.045Z" fill="#3F9411"/>
<path d="M4064.05 978.208L4074.04 978.172C4084.19 978.682 4093.37 984.66 4099.93 992.446C4108.04 1002.06 4108.32 1013.9 4107.58 1025.93C4114.25 1019.98 4120.62 1017.06 4129.53 1017.61C4136.03 1018.01 4142.35 1021.31 4146.54 1026.58C4152.44 1033.99 4153.99 1040.9 4152.97 1050.35C4152.84 1051.55 4152.74 1051.73 4153.2 1052.87C4154.86 1052.24 4156.58 1051.6 4158.33 1051.31C4162.7 1050.59 4167.53 1050.62 4171.17 1053.51C4175.43 1056.9 4177.87 1061.64 4178.47 1067.19C4178.92 1071.42 4178.91 1076.72 4176.26 1080.09L4070.71 1080.01L3989.2 1080.18L3966.61 1080.2C3962.8 1080.19 3958.7 1080.71 3955.13 1079.14C3954.43 1078.14 3953.79 1077.09 3953.43 1075.89C3952.2 1071.83 3953.13 1066.05 3954.96 1062.31C3957.14 1057.84 3960.18 1054.16 3964.86 1052.5C3970.9 1050.35 3976.27 1052.74 3981.55 1055.59C3981.69 1052.71 3980.91 1050.09 3980.71 1047.25C3980.2 1039.95 3981.72 1033.89 3985.44 1027.73C3989.94 1020.28 3997.12 1014.97 4005.35 1013.17C4015.5 1010.96 4022.36 1013.43 4030.74 1019.28C4032.03 1010.63 4032.5 1003.49 4037.19 995.873C4043.64 985.378 4052.85 980.859 4064.05 978.208Z" fill="#5CC51D"/>
<path d="M3844.09 945.878C3857.55 945.327 3869.31 947.136 3879.63 957.067C3888.9 965.993 3893.7 976.675 3894.08 989.843L3893.78 997.495C3901.93 988.872 3909.96 983.973 3921.92 983.862C3931.96 983.769 3942.2 988.089 3949.25 995.575C3957.16 1003.96 3960.42 1013.6 3960.26 1025.21C3960.23 1027.81 3960.18 1030.56 3959.48 1033.08C3958.68 1035.87 3956.7 1038.84 3957.42 1041.75C3966.49 1042.52 3974.61 1043.85 3980.86 1051.57C3985.39 1057.18 3988.18 1064.37 3987.51 1071.77L3986.16 1079.42C3981.8 1081.51 3974.61 1080.52 3969.72 1080.54L3932.96 1080.69C3910.09 1079.63 3910.09 1079.63 3910.09 1079.63C3911.91 1075.56 3912.29 1070.53 3911.05 1066.21C3909.61 1061.16 3907.32 1057.03 3902.72 1054.58C3895.61 1050.79 3892.06 1053.36 3885.47 1055.6C3886.81 1049.96 3886.53 1043.53 3884.27 1038.21L3883.94 1037.47C3880.97 1030.49 3874.61 1023.43 3867.97 1020.22C3858.88 1015.84 3851.75 1016.14 3842.2 1017.93L3840.54 1009.01C3836.95 996.248 3829.03 988.191 3818.2 982.054L3817.46 958.285C3826.16 951.452 3833.17 947.548 3844.09 945.878Z" fill="#367D0E"/>
<path d="M3691.62 1079.82L3691.19 1073.73C3691.06 1067.86 3693.63 1060.68 3697.66 1056.53C3703.03 1050.97 3707.2 1051.02 3714.33 1050.91L3715.16 1050.9L3716.32 1050.89L3715.53 1047.57C3713.55 1039.82 3714.67 1032.64 3718.09 1025.49C3721.17 1019.08 3727.24 1014.44 3733.64 1012.25C3742.96 1009.07 3750.65 1011.57 3758.89 1016.11L3760.28 1010.46C3763.27 999.498 3771.05 988.318 3780.78 982.808C3793.15 975.803 3806.05 977.273 3818.95 981.432C3829.78 987.569 3837.7 995.626 3841.29 1008.39L3842.95 1017.31C3852.5 1015.52 3859.63 1015.22 3868.72 1019.6C3875.36 1022.81 3881.72 1029.87 3884.69 1036.84L3885.02 1037.59C3887.28 1042.91 3887.56 1049.33 3886.21 1054.98C3892.81 1052.74 3896.36 1050.17 3903.47 1053.96C3908.07 1056.41 3910.36 1060.54 3911.8 1065.58C3913.04 1069.91 3912.67 1075.75 3910.85 1079.82C3902.8 1079.82 3903.39 1079.82 3900.03 1079.82H3879.03L3784.22 1080C3769.16 1079.99 3784.22 1080 3737.11 1080H3713.39L3691.62 1079.82Z" fill="#5CC51D"/>
<path d="M3554.71 949.559L3547.71 958.223C3540.24 947.321 3531.52 940.474 3518.49 938.322C3507.56 936.518 3495.47 939.295 3486.53 946.142C3477.38 953.142 3470.23 964.596 3468.78 976.483C3468.11 982.048 3468.51 988.013 3468.89 993.593C3458.04 985.398 3447.76 979.817 3433.95 981.146C3420.74 984.471 3410.2 990.411 3402.83 1002.88C3395.93 1014.55 3393.81 1027.89 3397.03 1041.2L3398.55 1046.86C3395.87 1048.37 3392.86 1047.44 3389.91 1047.71C3378.86 1048.75 3369.1 1058.71 3366.15 1069.59L3363.96 1080.18L3713.53 1080.25C3714.76 1076.86 3716.18 1073.21 3716.61 1069.6C3717.35 1063.39 3714.86 1056.45 3711.19 1051.64C3704.43 1042.81 3696.97 1040.85 3686.75 1039.61C3689.73 1034.05 3692.45 1028.37 3693.1 1021.94C3694.25 1010.55 3691.14 1000.19 3684.15 991.419C3677.73 983.355 3668.31 978.693 3658.36 978.011C3645.62 977.137 3637.19 981.956 3627.91 990.266C3627.68 985.753 3627.24 981.028 3626.24 976.63C3622.9 961.895 3614.05 952.798 3602.08 945.252C3589.52 940.149 3577.67 937.947 3564.78 943.903C3561.33 945.497 3557.84 947.358 3554.71 949.559Z" fill="#3F9411"/>
<path d="M3572.25 977.72L3562.26 977.684C3552.11 978.194 3542.93 984.171 3536.37 991.958C3528.26 1001.57 3527.98 1013.41 3528.72 1025.44C3522.05 1019.5 3515.68 1016.58 3506.77 1017.12C3500.28 1017.52 3493.95 1020.82 3489.76 1026.09C3483.86 1033.5 3482.31 1040.41 3483.33 1049.87C3483.46 1051.07 3483.56 1051.24 3483.1 1052.39C3481.44 1051.75 3479.72 1051.11 3477.97 1050.82C3473.6 1050.1 3468.77 1050.13 3465.13 1053.02C3460.87 1056.41 3458.43 1061.15 3457.84 1066.7C3457.38 1070.93 3457.39 1076.23 3460.04 1079.6L3565.59 1079.53L3647.1 1079.69L3669.7 1079.71C3673.5 1079.7 3677.6 1080.22 3681.17 1078.65C3681.87 1077.65 3682.51 1076.6 3682.87 1075.4C3684.1 1071.35 3683.17 1065.56 3681.34 1061.82C3679.16 1057.35 3676.12 1053.67 3671.44 1052.01C3665.4 1049.86 3660.03 1052.25 3654.75 1055.1C3654.61 1052.22 3655.39 1049.6 3655.59 1046.76C3656.1 1039.46 3654.58 1033.41 3650.86 1027.24C3646.36 1019.79 3639.18 1014.48 3630.95 1012.68C3620.8 1010.47 3613.94 1012.94 3605.56 1018.79C3604.27 1010.14 3603.8 1003.01 3599.11 995.385C3592.66 984.89 3583.45 980.37 3572.25 977.72Z" fill="#5CC51D"/>
<path d="M3792.21 945.389C3778.75 944.839 3766.99 946.647 3756.67 956.579C3747.39 965.505 3742.6 976.187 3742.22 989.354L3742.52 997.007C3734.36 988.384 3726.34 983.485 3714.38 983.374C3704.34 983.281 3694.1 987.601 3687.05 995.087C3679.14 1003.47 3675.87 1013.11 3676.04 1024.72C3676.07 1027.32 3676.12 1030.08 3676.82 1032.59C3677.62 1035.38 3679.6 1038.35 3678.87 1041.26C3669.81 1042.03 3661.69 1043.36 3655.44 1051.08C3650.91 1056.69 3648.12 1063.88 3648.79 1071.28L3650.14 1078.94C3654.5 1081.03 3661.69 1080.04 3666.58 1080.06L3703.33 1080.2C3726.21 1079.14 3726.21 1079.14 3726.21 1079.14C3724.39 1075.07 3724.01 1070.04 3725.24 1065.72C3726.68 1060.67 3728.98 1056.55 3733.58 1054.09C3740.68 1050.3 3744.24 1052.88 3750.83 1055.11C3749.48 1049.47 3749.77 1043.04 3752.03 1037.72L3752.35 1036.98C3755.33 1030 3761.68 1022.94 3768.33 1019.73C3777.41 1015.35 3784.55 1015.65 3794.1 1017.44L3795.76 1008.52C3799.35 995.76 3807.27 987.703 3818.1 981.565L3818.83 957.797C3810.14 950.964 3803.13 947.06 3792.21 945.389Z" fill="#367D0E"/>
<path d="M3944.53 1079.34L3945.11 1073.25C3945.24 1067.37 3942.67 1060.2 3938.64 1056.04C3933.27 1050.48 3929.1 1050.54 3921.97 1050.43L3921.14 1050.41L3919.98 1050.4L3920.77 1047.09C3922.75 1039.34 3921.63 1032.16 3918.21 1025C3915.13 1018.59 3909.06 1013.95 3902.66 1011.77C3893.34 1008.58 3885.65 1011.09 3877.41 1015.63L3876.02 1009.97C3873.03 999.012 3865.25 987.831 3855.52 982.321C3843.15 975.317 3830.25 976.787 3817.35 980.945C3806.52 987.083 3798.6 995.14 3795.01 1007.9L3793.35 1016.82C3783.8 1015.03 3776.67 1014.73 3767.58 1019.11C3760.94 1022.32 3754.58 1029.38 3751.61 1036.36L3751.29 1037.1C3749.02 1042.42 3748.74 1048.85 3750.09 1054.49C3743.49 1052.26 3739.94 1049.68 3732.83 1053.47C3728.23 1055.92 3725.94 1060.05 3724.5 1065.1C3723.26 1069.42 3723.64 1075.22 3725.47 1079.29C3728.58 1080.63 3732.67 1080.07 3736.04 1080.08L3757.27 1080.1L3852.8 1079.29C3867.86 1079.27 3895.95 1077.74 3910.89 1079.34H3944.53Z" fill="#5CC51D"/>
<path d="M1677.05 949.313L1670.05 957.977C1662.58 947.075 1653.86 940.228 1640.83 938.076C1629.9 936.272 1617.81 939.048 1608.87 945.896C1599.72 952.896 1592.57 964.35 1591.13 976.237C1590.45 981.801 1590.85 987.767 1591.23 993.347C1580.38 985.152 1570.1 979.571 1556.3 980.9C1543.09 984.225 1532.54 990.165 1525.17 1002.63C1518.27 1014.3 1516.15 1027.64 1519.37 1040.96L1520.89 1046.61C1518.21 1048.12 1515.2 1047.19 1512.25 1047.47C1501.2 1048.5 1491.44 1058.46 1488.49 1069.34L1486.3 1079.93L1835.88 1080C1837.1 1076.61 1838.52 1072.96 1838.95 1069.35C1839.69 1063.15 1837.2 1056.2 1833.53 1051.4C1826.78 1042.57 1819.31 1040.6 1809.09 1039.37C1812.07 1033.8 1814.79 1028.12 1815.44 1021.69C1816.59 1010.3 1813.48 999.946 1806.49 991.173C1800.07 983.109 1790.65 978.447 1780.7 977.765C1767.96 976.891 1759.53 981.71 1750.25 990.02C1750.02 985.507 1749.58 980.782 1748.58 976.384C1745.24 961.649 1736.4 952.552 1724.42 945.006C1711.86 939.903 1700.01 937.701 1687.12 943.657C1683.67 945.251 1680.18 947.111 1677.05 949.313Z" fill="#3F9411"/>
<path d="M1694.84 977.935L1684.86 977.898C1674.71 978.409 1665.53 984.386 1658.97 992.173C1650.86 1001.79 1650.58 1013.62 1651.32 1025.65C1644.64 1019.71 1638.28 1016.79 1629.37 1017.34C1622.87 1017.73 1616.55 1021.04 1612.35 1026.3C1606.46 1033.72 1604.9 1040.63 1605.93 1050.08C1606.06 1051.28 1606.15 1051.46 1605.69 1052.6C1604.04 1051.96 1602.32 1051.33 1600.57 1051.04C1596.19 1050.32 1591.37 1050.35 1587.73 1053.24C1583.47 1056.63 1581.03 1061.37 1580.43 1066.91C1579.98 1071.15 1579.99 1076.44 1582.64 1079.82L1688.19 1079.74L1769.7 1079.91L1792.29 1079.92C1796.1 1079.91 1800.2 1080.44 1803.76 1078.86C1804.47 1077.87 1805.11 1076.81 1805.47 1075.62C1806.7 1071.56 1805.77 1065.77 1803.94 1062.03C1801.75 1057.57 1798.71 1053.89 1794.04 1052.22C1787.99 1050.08 1782.63 1052.47 1777.35 1055.31C1777.21 1052.43 1777.99 1049.81 1778.19 1046.97C1778.7 1039.68 1777.17 1033.62 1773.46 1027.45C1768.96 1020 1761.78 1014.69 1753.55 1012.9C1743.4 1010.69 1736.54 1013.16 1728.16 1019C1726.87 1010.35 1726.39 1003.22 1721.71 995.6C1715.26 985.104 1706.04 980.585 1694.84 977.935Z" fill="#5CC51D"/>
<path d="M1914.8 945.116C1901.35 944.566 1889.58 946.374 1879.26 956.305C1869.99 965.231 1865.2 975.913 1864.81 989.081L1865.11 996.734C1856.96 988.11 1848.94 983.211 1836.98 983.1C1826.93 983.007 1816.69 987.327 1809.65 994.813C1801.74 1003.2 1798.47 1012.84 1798.63 1024.45C1798.67 1027.05 1798.71 1029.8 1799.42 1032.31C1800.21 1035.11 1802.2 1038.08 1801.47 1040.99C1792.41 1041.76 1784.29 1043.09 1778.04 1050.81C1773.51 1056.42 1770.72 1063.61 1771.38 1071.01L1772.73 1078.66C1777.09 1080.75 1784.29 1079.76 1789.18 1079.78L1825.93 1079.92C1853.48 1079.92 1853.22 1079.92 1853.22 1079.92C1851.4 1075.85 1846.61 1069.77 1847.84 1065.44C1849.28 1060.4 1851.58 1056.27 1856.18 1053.82C1863.28 1050.03 1868.03 1054.75 1874.63 1056.99C1873.28 1051.34 1872.37 1042.77 1874.63 1037.45L1874.95 1036.7C1877.93 1029.73 1884.28 1022.67 1890.92 1019.46C1900.01 1015.08 1907.4 1017.67 1916.95 1019.46L1918.36 1008.25C1921.94 995.487 1929.87 987.43 1940.69 981.292L1941.43 957.523C1932.74 950.69 1925.73 946.787 1914.8 945.116Z" fill="#367D0E"/>
<path d="M1965.61 945.116C1979.06 944.566 1990.83 946.374 2001.15 956.305C2010.42 965.231 2015.21 975.913 2015.6 989.081L2015.3 996.734C2023.45 988.11 2031.47 983.211 2043.43 983.1C2053.48 983.007 2063.72 987.327 2070.76 994.813C2078.67 1003.2 2081.94 1012.84 2081.78 1024.45C2081.74 1027.05 2081.7 1029.8 2080.99 1032.31C2080.2 1035.11 2078.21 1038.08 2078.94 1040.99C2088 1041.76 2096.12 1043.09 2102.37 1050.81C2106.9 1056.42 2109.69 1063.61 2109.03 1071.01L2107.68 1079.92C2103.32 1082.02 2096.23 1081.17 2091.34 1081.19L2054.48 1079.92C2031.6 1078.87 2031.6 1078.87 2031.6 1078.87C2033.42 1074.8 2033.8 1069.77 2032.57 1065.44C2031.13 1060.4 2028.83 1056.27 2024.23 1053.82C2017.13 1050.03 2013.58 1052.6 2006.98 1054.84C2008.33 1049.19 2008.04 1042.77 2005.78 1037.45L2005.46 1036.7C2002.48 1029.73 1996.13 1022.67 1989.49 1019.46C1980.4 1015.08 1973.26 1015.38 1963.71 1017.17L1962.05 1008.25C1958.47 995.487 1950.54 987.43 1939.72 981.292L1938.98 957.523C1947.67 950.69 1954.68 946.787 1965.61 945.116Z" fill="#367D0E"/>
<path d="M2118.21 1119.61L2120.53 1114.75C2122.66 1108.75 2121.36 1102.05 2118.75 1096.47C2115.94 1090.43 2109.61 1084.09 2103.29 1082.33C2100.06 1081.43 2096.77 1081.54 2093.58 1080.42C2097.94 1073.4 2101.1 1066.75 2101.23 1058.17C2101.41 1047.08 2097.39 1037.46 2090.09 1029.6C2083.87 1022.91 2075.53 1018.46 2066.5 1018.35C2053.6 1018.19 2045.25 1022.56 2036.09 1031.81C2035.81 1022.89 2034.44 1014.73 2030.14 1006.87C2024.68 996.889 2015.5 988.552 2004.76 985.558C1990.7 981.636 1979.32 984.006 1967.05 991.552C1964.5 993.336 1960.77 996.728 1957.87 997.478L1957.13 1021.25C1970.04 1017.09 1982.93 1015.62 1995.3 1022.62C2005.04 1028.13 2012.81 1039.31 2015.81 1050.27L2017.19 1055.93C2025.44 1051.39 2033.13 1048.88 2042.45 1052.07C2048.85 1054.25 2054.91 1058.89 2057.99 1065.3C2061.42 1072.46 2062.53 1079.64 2060.55 1087.39L2059.77 1090.7L2060.92 1090.71L2061.75 1090.73C2068.89 1090.84 2073.05 1090.79 2078.42 1096.34C2082.45 1100.5 2085.02 1107.67 2084.89 1113.55L2084.47 1119.64L2118.21 1119.61Z" fill="#3F9411"/>
<path d="M2067.31 1079.82L2067.7 1073.73C2067.83 1067.86 2065.26 1060.68 2061.24 1056.53C2055.86 1050.97 2051.7 1051.02 2044.56 1050.91L2043.73 1050.9L2042.58 1050.89L2043.36 1047.57C2045.34 1039.82 2044.23 1032.64 2040.8 1025.49C2037.72 1019.08 2031.66 1014.44 2025.26 1012.25C2015.94 1009.07 2008.25 1011.57 2000 1016.11L1998.62 1010.46C1995.62 999.498 1987.85 988.318 1978.11 982.808C1965.74 975.803 1952.85 977.273 1939.94 981.432C1929.12 987.569 1921.19 995.626 1917.61 1008.39L1915.95 1017.31C1906.4 1015.52 1899.26 1015.22 1890.17 1019.6C1883.53 1022.81 1877.18 1029.87 1874.2 1036.84L1873.88 1037.59C1871.62 1042.91 1871.33 1049.33 1872.68 1054.98C1866.08 1052.74 1862.53 1050.17 1855.43 1053.96C1850.83 1056.41 1848.53 1060.54 1847.09 1065.58C1845.86 1069.91 1846.92 1075.75 1848.74 1079.82C2067.28 1079.82 1848.74 1079.82 2067.31 1079.82Z" fill="#5CC51D"/>
<path d="M956.032 949.098L963.026 957.762C970.503 946.86 979.223 940.013 992.253 937.861C1003.18 936.057 1015.27 938.834 1024.21 945.681C1033.36 952.681 1040.51 964.135 1041.95 976.022C1042.63 981.587 1042.23 987.552 1041.85 993.132C1052.7 984.937 1062.98 979.356 1076.78 980.685C1089.99 984.01 1100.54 989.95 1107.91 1002.42C1114.81 1014.09 1116.93 1027.43 1113.71 1040.74L1112.19 1046.4C1114.87 1047.91 1117.88 1046.98 1120.83 1047.25C1131.88 1048.29 1141.64 1058.25 1144.59 1069.12L1146.78 1079.71L797.205 1079.79C795.978 1076.4 794.563 1072.75 794.133 1069.14C793.392 1062.93 795.875 1055.99 799.55 1051.18C806.303 1042.35 813.768 1040.39 823.986 1039.15C821.009 1033.59 818.286 1027.91 817.637 1021.48C816.487 1010.09 819.596 999.731 826.585 990.958C833.011 982.894 842.431 978.232 852.376 977.55C865.122 976.676 873.547 981.495 882.833 989.805C883.056 985.292 883.497 980.567 884.496 976.169C887.842 961.434 896.683 952.337 908.658 944.792C921.222 939.688 933.07 937.487 945.961 943.442C949.412 945.036 952.897 946.897 956.032 949.098Z" fill="#3F9411"/>
<path d="M938.49 977.259L948.477 977.223C958.628 977.733 967.802 983.711 974.368 991.497C982.475 1001.11 982.756 1012.95 982.012 1024.98C988.69 1019.04 995.057 1016.11 1003.97 1016.66C1010.46 1017.06 1016.79 1020.36 1020.98 1025.63C1026.88 1033.04 1028.43 1039.95 1027.4 1049.41C1027.27 1050.61 1027.18 1050.78 1027.64 1051.92C1029.3 1051.29 1031.01 1050.65 1032.76 1050.36C1037.14 1049.64 1041.96 1049.67 1045.61 1052.56C1049.87 1055.95 1052.31 1060.69 1052.9 1066.24C1053.35 1070.47 1053.35 1075.77 1050.7 1079.14L945.144 1079.06L863.632 1079.23L841.041 1079.25C837.238 1079.24 833.131 1079.76 829.569 1078.19C828.865 1077.19 828.225 1076.14 827.864 1074.94C826.637 1070.88 827.565 1065.1 829.395 1061.36C831.579 1056.89 834.619 1053.21 839.296 1051.55C845.34 1049.4 850.705 1051.79 855.987 1054.64C856.123 1051.76 855.347 1049.14 855.147 1046.3C854.634 1039 856.159 1032.95 859.878 1026.78C864.372 1019.33 871.554 1014.02 879.784 1012.22C889.937 1010.01 896.795 1012.48 905.177 1018.33C906.463 1009.68 906.939 1002.55 911.625 994.924C918.075 984.429 927.289 979.91 938.49 977.259Z" fill="#5CC51D"/>
<path d="M2373.47 1006.07C2383.51 1008.11 2390.77 1011.31 2396.71 1020.25C2401.67 1027.7 2400.97 1034.23 2402.19 1042.56C2409.93 1043.38 2415.78 1044.93 2420.98 1051.32C2424.52 1055.67 2426.05 1061.18 2425.44 1066.77C2424.89 1071.88 2422.92 1076.11 2419.86 1080.13C2415.31 1081.89 2409.13 1081.17 2404.26 1081.19L2372.99 1081.21C2373.99 1073.28 2373.35 1064.49 2373.4 1056.47L2373.47 1006.07Z" fill="#238C18"/>
<path d="M2235.84 950.082C2248.12 951.585 2256.89 954.961 2266.41 963.218C2270.93 969.102 2274.78 974.825 2277.67 981.769C2285.36 973.273 2293.34 967.597 2305.03 967.025C2315.18 966.526 2325.54 970.632 2332.88 977.757C2341.35 985.975 2343.1 995.015 2343.27 1006.5C2343.3 1008.07 2342.88 1009.47 2344 1010.63C2345.31 1011.97 2347.09 1012.32 2348.83 1012.79C2355.96 1010.13 2361.29 1006.29 2369.22 1005.7L2373.47 1006.07L2373.4 1056.47C2373.35 1064.49 2373.99 1073.28 2373 1081.21L2345.79 1081.07L2180.33 1081.12L2122.7 1080.9C2119.99 1075.56 2117.81 1070.24 2119.12 1064.08C2120.21 1058.95 2123.6 1054.03 2127.93 1051.23C2133.51 1047.61 2138.43 1048.31 2144.54 1049.76L2145.31 1048.72L2144.24 1045.45C2142.32 1038.26 2144.45 1028.22 2148.15 1021.95C2152.16 1015.15 2159.26 1010.85 2166.7 1009.14C2178.07 1006.53 2184.31 1009.88 2193.52 1015.89C2188.92 1005.67 2187.62 995.93 2190.19 984.875C2193.34 971.302 2201.93 962.427 2213.12 955.377L2225.74 951.122C2229.06 950.429 2232.47 950.313 2235.84 950.082Z" fill="#238C18"/>
<path d="M2180.33 1081.12C2175.98 1075.44 2173.16 1068.18 2173.95 1060.86C2175.06 1050.73 2180.36 1042.42 2188.06 1036.23C2195.11 1030.55 2205.77 1028.23 2214.51 1029.5C2217.68 1029.96 2220.77 1031.05 2223.78 1032.12C2226.43 1020.49 2230.16 1010.74 2240.57 1003.96C2248.36 998.876 2258.96 997.945 2267.77 1000.15C2276.22 1002.27 2284.02 1007.61 2288.45 1015.37C2291.53 1020.75 2292.68 1026.3 2293.5 1032.4C2300.56 1029.29 2307.66 1026.63 2315.29 1029.69C2319.29 1031.3 2322.13 1034.1 2324.12 1037.94L2324.39 1038.44C2326.19 1041.94 2325.33 1050.48 2327.76 1051.95C2332.96 1050.41 2339.41 1048.8 2344.53 1051.53C2348.9 1053.85 2352.35 1058.54 2353.73 1063.31C2354.75 1066.86 2354.86 1071.7 2352.97 1074.98C2351.39 1077.73 2348.41 1079.51 2345.79 1081.07L2180.33 1081.12Z" fill="#55CA2B"/>
<path d="M3597.34 1013.5C3602.46 1012.67 3607.14 1012.96 3612.24 1013.49C3620.27 1017.07 3625.46 1020.83 3628.85 1029.44C3630.94 1034.73 3631.05 1041.67 3629.95 1047.23C3633.13 1048.17 3636.31 1047.42 3639.54 1047.93C3644.12 1048.65 3648.73 1052.92 3650.85 1056.97C3652.74 1060.61 3653.32 1066.61 3652.05 1070.5C3651.26 1072.95 3649.52 1075.44 3648.14 1077.61C3639.72 1081.89 3625.44 1080.07 3616.02 1080.12C3606.32 1080.17 3596.32 1080.69 3586.63 1080.08C3589.19 1077.13 3591.4 1074.23 3592.48 1070.38C3593.68 1066.14 3591.27 1061.57 3589.35 1057.97C3589.52 1055.87 3589.55 1053.62 3590.01 1051.57C3590.75 1048.34 3590.26 1044.87 3590.23 1041.56C3590.13 1030.52 3592.16 1023.09 3597.34 1013.5Z" fill="#2BA324"/>
<path d="M3422.68 1009.93C3422.4 1005.55 3422.76 1001 3423.25 996.64C3424.82 982.638 3432.43 969.171 3443.29 960.539C3453.31 952.554 3463.87 950.338 3476.23 951.907C3490.57 956.152 3500.99 965.188 3508.48 978.255C3509.92 980.75 3511.12 984.182 3513.56 985.695L3515.13 984.093C3525.99 976.946 3536.23 972.141 3549.44 974.92C3559.87 977.115 3569.66 983.942 3575.49 993.024C3581.27 1002.05 3582.03 1011.03 3581.95 1021.51C3586.98 1018.23 3591.57 1015.25 3597.34 1013.5C3592.16 1023.1 3590.13 1030.53 3590.23 1041.56C3590.26 1044.87 3590.75 1048.35 3590.01 1051.57C3589.55 1053.62 3589.52 1055.87 3589.35 1057.97C3591.27 1061.57 3593.68 1066.14 3592.48 1070.38C3591.4 1074.23 3589.19 1077.13 3586.63 1080.08C3575.43 1082.75 3561.28 1081.28 3549.67 1081.3L3482.9 1081.34L3440.02 1081.31C3432.91 1081.29 3424.82 1082.05 3417.87 1080.56C3405.66 1079.41 3392.39 1080.54 3380.1 1080.54C3371.35 1080.53 3364.13 1081.75 3356.4 1076.86L3353.79 1074.01L3352.87 1073.01C3351.18 1068.88 3349.97 1065.29 3350.71 1060.76C3351.57 1055.58 3354.62 1050.89 3358.83 1047.92C3364.78 1043.74 3369.76 1043.42 3376.63 1044.68C3376.95 1044.28 3377.46 1043.97 3377.6 1043.48C3377.74 1043.03 3375.9 1037.89 3375.75 1036.91C3374.96 1031.84 3375.51 1025.77 3377.3 1020.95C3380.02 1013.68 3385.31 1009.1 3392.13 1005.98C3399.17 1002.74 3407.5 1002.99 3414.65 1005.86C3417.31 1006.93 3419.51 1008.77 3422.24 1009.77L3422.68 1009.93Z" fill="#2BA324"/>
<path d="M3430.75 1025.03C3440.52 1024.35 3445.53 1026.18 3453.71 1031.35C3457.34 1019.86 3462.17 1010.41 3473.14 1004.56C3481.28 1000.22 3492.18 999.37 3500.9 1002.38C3509.34 1005.29 3518.32 1012.64 3522.23 1020.98L3525.74 1029.04C3533.22 1026.58 3541.11 1024.95 3548.47 1028.84C3555.59 1032.6 3558.03 1039.19 3560.45 1046.42C3560.63 1046.98 3561.34 1049.77 3561.64 1050.06C3561.95 1050.36 3562.48 1049.86 3562.9 1049.76C3574.6 1047.07 3581.45 1049.01 3589.35 1057.97C3591.27 1061.57 3593.68 1066.14 3592.49 1070.38C3591.4 1074.23 3589.19 1077.13 3586.63 1080.08C3575.44 1082.74 3561.28 1081.28 3549.68 1081.3L3482.9 1081.34L3440.02 1081.31C3432.91 1081.29 3424.82 1082.05 3417.87 1080.56C3412.53 1075.96 3408 1071.13 3406.02 1064.1C3404.1 1057.25 3405.62 1048.16 3408.95 1041.94C3413.78 1032.95 3421.44 1027.93 3430.75 1025.03Z" fill="#55CA2B"/>
<path d="M281.747 1006.07C291.784 1008.11 299.041 1011.31 304.984 1020.25C309.943 1027.7 309.246 1034.23 310.467 1042.56C318.201 1043.38 324.057 1044.93 329.258 1051.32C332.799 1055.67 334.328 1061.18 333.719 1066.77C333.161 1071.88 331.198 1076.11 328.135 1080.13C323.581 1081.89 317.402 1081.17 312.535 1081.19L281.268 1081.21C282.263 1073.28 281.623 1064.49 281.673 1056.47L281.747 1006.07Z" fill="#238C18"/>
<path d="M144.112 950.082C156.397 951.585 165.16 954.961 174.683 963.218C179.202 969.102 183.057 974.825 185.94 981.769C193.629 973.273 201.617 967.597 213.304 967.025C223.457 966.526 233.812 970.632 241.156 977.757C249.625 985.975 251.373 995.015 251.548 1006.5C251.572 1008.07 251.158 1009.47 252.276 1010.63C253.582 1011.97 255.368 1012.32 257.1 1012.79C264.233 1010.13 269.567 1006.29 277.497 1005.7L281.748 1006.07L281.674 1056.47C281.624 1064.49 282.264 1073.28 281.269 1081.21L254.06 1081.07L88.6059 1081.12L30.9705 1080.9C28.2584 1075.56 26.0814 1070.24 27.3915 1064.08C28.4821 1058.95 31.8745 1054.03 36.2049 1051.23C41.7795 1047.61 46.6995 1048.31 52.8174 1049.76L53.5843 1048.72L52.5164 1045.45C50.595 1038.26 52.7246 1028.22 56.4252 1021.95C60.435 1015.15 67.5362 1010.85 74.9776 1009.14C86.3392 1006.53 92.5858 1009.88 101.789 1015.89C97.1956 1005.67 95.8906 995.93 98.4594 984.875C101.613 971.302 110.203 962.427 121.396 955.377L134.018 951.122C137.335 950.429 140.741 950.313 144.112 950.082Z" fill="#238C18"/>
<path d="M88.6057 1081.12C84.2495 1075.44 81.4323 1068.18 82.2281 1060.86C83.33 1050.73 88.6346 1042.42 96.3336 1036.23C103.385 1030.55 114.039 1028.23 122.785 1029.5C125.955 1029.96 129.039 1031.05 132.057 1032.12C134.699 1020.49 138.431 1010.74 148.839 1003.96C156.633 998.876 167.23 997.945 176.046 1000.15C184.489 1002.27 192.294 1007.61 196.727 1015.37C199.802 1020.75 200.956 1026.3 201.775 1032.4C208.835 1029.29 215.936 1026.63 223.56 1029.69C227.56 1031.3 230.406 1034.1 232.397 1037.94L232.659 1038.44C234.463 1041.94 233.605 1050.48 236.031 1051.95C241.23 1050.41 247.683 1048.8 252.805 1051.53C257.17 1053.85 260.619 1058.54 261.998 1063.31C263.026 1066.86 263.131 1071.7 261.246 1074.98C259.668 1077.73 256.68 1079.51 254.06 1081.07L88.6057 1081.12Z" fill="#55CA2B"/>
<path d="M1505.61 1013.5C1510.74 1012.67 1515.42 1012.96 1520.52 1013.49C1528.55 1017.07 1533.73 1020.83 1537.12 1029.44C1539.22 1034.73 1539.32 1041.67 1538.23 1047.23C1541.4 1048.17 1544.59 1047.42 1547.81 1047.93C1552.39 1048.65 1557.01 1052.92 1559.12 1056.97C1561.02 1060.61 1561.6 1066.61 1560.33 1070.5C1559.53 1072.95 1557.79 1075.44 1556.41 1077.61C1547.99 1081.89 1533.71 1080.07 1524.29 1080.12C1514.59 1080.17 1504.59 1080.69 1494.9 1080.08C1497.46 1077.13 1499.67 1074.23 1500.76 1070.38C1501.95 1066.14 1499.54 1061.57 1497.62 1057.97C1497.79 1055.87 1497.82 1053.62 1498.28 1051.57C1499.03 1048.34 1498.53 1044.87 1498.5 1041.56C1498.41 1030.52 1500.44 1023.09 1505.61 1013.5Z" fill="#2BA324"/>
<path d="M1330.95 1009.93C1330.67 1005.55 1331.04 1001 1331.52 996.64C1333.1 982.638 1340.7 969.171 1351.56 960.539C1361.59 952.554 1372.14 950.338 1384.5 951.907C1398.84 956.152 1409.26 965.188 1416.76 978.255C1418.19 980.75 1419.4 984.182 1421.83 985.695L1423.41 984.093C1434.26 976.946 1444.51 972.141 1457.71 974.92C1468.14 977.115 1477.94 983.942 1483.76 993.024C1489.54 1002.05 1490.31 1011.03 1490.22 1021.51C1495.25 1018.23 1499.84 1015.25 1505.61 1013.5C1500.44 1023.1 1498.41 1030.53 1498.5 1041.56C1498.53 1044.87 1499.03 1048.35 1498.28 1051.57C1497.82 1053.62 1497.79 1055.87 1497.62 1057.97C1499.54 1061.57 1501.95 1066.14 1500.76 1070.38C1499.68 1074.23 1497.46 1077.13 1494.9 1080.08C1483.71 1082.75 1469.55 1081.28 1457.95 1081.3L1391.17 1081.34L1348.29 1081.31C1341.18 1081.29 1333.1 1082.05 1326.14 1080.56C1313.93 1079.41 1300.67 1080.54 1288.37 1080.54C1279.62 1080.53 1272.4 1081.75 1264.67 1076.86L1262.06 1074.01L1261.15 1073.01C1259.46 1068.88 1258.24 1065.29 1258.98 1060.76C1259.85 1055.58 1262.89 1050.89 1267.1 1047.92C1273.05 1043.74 1278.03 1043.42 1284.91 1044.68C1285.23 1044.28 1285.73 1043.97 1285.88 1043.48C1286.01 1043.03 1284.17 1037.89 1284.02 1036.91C1283.24 1031.84 1283.78 1025.77 1285.58 1020.95C1288.3 1013.68 1293.59 1009.1 1300.4 1005.98C1307.44 1002.74 1315.77 1002.99 1322.92 1005.86C1325.58 1006.93 1327.79 1008.77 1330.51 1009.77L1330.95 1009.93Z" fill="#2BA324"/>
<path d="M1339.03 1025.03C1348.8 1024.35 1353.81 1026.18 1361.98 1031.35C1365.61 1019.86 1370.44 1010.41 1381.41 1004.56C1389.56 1000.22 1400.45 999.37 1409.17 1002.38C1417.61 1005.29 1426.59 1012.64 1430.5 1020.98L1434.01 1029.04C1441.5 1026.58 1449.38 1024.95 1456.74 1028.84C1463.87 1032.6 1466.3 1039.19 1468.72 1046.42C1468.91 1046.98 1469.62 1049.77 1469.92 1050.06C1470.23 1050.36 1470.75 1049.86 1471.17 1049.76C1482.87 1047.07 1489.72 1049.01 1497.62 1057.97C1499.54 1061.57 1501.95 1066.14 1500.76 1070.38C1499.68 1074.23 1497.46 1077.13 1494.9 1080.08C1483.71 1082.74 1469.56 1081.28 1457.95 1081.3L1391.17 1081.34L1348.29 1081.31C1341.18 1081.29 1333.1 1082.05 1326.14 1080.56C1320.8 1075.96 1316.28 1071.13 1314.3 1064.1C1312.37 1057.25 1313.89 1048.16 1317.22 1041.94C1322.06 1032.95 1329.72 1027.93 1339.03 1025.03Z" fill="#55CA2B"/>
</g>
<defs>
<clipPath id="clip0_404_3988">
<rect width="4295" height="1080" fill="white"/>
</clipPath>
</defs>
</svg>
