<svg width="17" height="17" viewBox="0 0 17 17" fill="none" xmlns="http://www.w3.org/2000/svg">
<path d="M0.553598 5.72965L0.887029 4.97166C1.95437 2.74346 3.72344 1.25955 5.95384 0.52898C8.61877 -0.344029 10.9909 -0.0489535 13.2751 1.7238C15.425 3.39225 16.2328 5.36336 16.2498 8.00694C16.2633 10.1086 15.4823 12.111 14.0655 13.5814C12.2919 15.4221 10.0629 16.116 7.64361 16.0505C5.55481 15.9939 3.55611 14.9839 2.13395 13.3673C0.888894 11.9515 0.190275 9.88103 0.254013 7.93705L0.553598 5.72965Z" fill="#3F9411"/>
<path d="M7.16739 0.811382C8.32008 0.671634 9.64413 0.681365 10.7045 1.21957C12.2686 2.01339 13.5628 3.94864 14.1084 5.65789C14.6137 7.24022 14.5098 9.16198 13.7772 10.6559C12.8073 12.6333 10.9293 13.7829 9.00217 14.4405C7.51805 14.6723 6.04291 14.4111 4.70486 13.6918C3.27821 12.9252 2.31799 11.6613 1.84007 10.0411C1.3214 8.28258 1.55001 6.1249 2.39259 4.51294C3.50912 2.37692 5.0668 1.48027 7.16739 0.811382Z" fill="#5CC51D"/>
<path d="M5.37184 5.02443C5.38754 4.14383 6.34192 3.59673 7.11784 4.02352L11.5913 6.48413C12.3915 6.92425 12.4016 8.063 11.6094 8.51713L7.04542 11.1335C6.25324 11.5876 5.26508 11.0095 5.28128 10.1014L5.37184 5.02443Z" fill="#FEFDFE"/>
</svg>
