<svg width="535" height="786" viewBox="0 0 535 786" fill="none" xmlns="http://www.w3.org/2000/svg">
<g clip-path="url(#clip0_708_45569)">
<g filter="url(#filter0_d_708_45569)">
<path d="M434.834 457.744C444.588 463.33 454.053 469.685 462.465 477.158C481.215 493.817 494.237 515.488 500.787 539.676L535 785.859H415.996C416.687 782.021 418.003 543.736 419.05 539.981L423.449 522.984C428.504 501.469 432.346 479.701 434.834 457.744Z" fill="#532022"/>
<path d="M182.883 53.3398C182.403 54.4358 181.733 55.4835 181.319 56.5938C180.597 58.5311 180.205 60.6703 179.748 62.6869C177.05 74.6192 181.15 88.705 187.437 98.8841C191.633 105.68 196.789 110.861 203.598 114.991C201.423 118.107 199.651 121.133 197.795 124.437L197.473 124.798C195.649 126.895 194.243 129.854 192.768 132.248L185.821 142.812C174.649 158.933 160.33 174.147 141.88 181.767C136.749 183.887 131.541 185.469 125.99 185.986C121.246 186.428 116.778 186.204 112.098 185.316C110.724 185.056 109.42 184.56 108.051 184.274L106.97 179.643L106.05 173.979C101.762 150.976 106.948 126.147 117.637 105.563C128.92 83.8371 147.69 67.0796 170.229 57.6548C174.35 55.9316 178.632 54.6887 182.883 53.3398Z" fill="#B4DFE2"/>
<path d="M106.05 173.979L106.97 179.642L108.051 184.273L110.975 193.329C113.565 199.685 116.442 205.599 120.074 211.431C121.931 214.414 124.124 217.715 126.567 220.255C129.2 223.618 132.547 227.184 136.165 229.503C142.82 234.477 149 238.021 157.135 240.007C154.98 243.235 152.625 246.363 151.293 250.045C150.654 251.813 150.409 253.627 150.142 255.478C148.643 265.884 153.479 277.669 159.261 286.057C160.736 285.966 162.106 285.852 163.565 286.15L163.954 286.224C165.549 286.547 167.579 287.382 168.842 288.415L168.894 288.496C170.054 289.455 170.909 290.368 171.823 291.556C173.184 293.791 173.945 295.987 174.444 298.545C175.5 300.733 176.422 303.437 177.795 305.399C178.937 309.414 181.742 313.859 183.783 317.485C191.914 331.927 202.613 345.552 215.423 356.127C219.415 359.423 223.755 362.267 228.079 365.102L227.906 365.572C226.16 368.495 221.529 369.698 218.538 370.997L210.247 374.702C209.095 375.151 207.91 375.704 206.708 375.987L193.496 383.071L187.586 387.043C186.856 387.548 185.781 388.432 184.947 388.686C183.719 388.436 182.338 388.578 181.085 388.56L174.941 388.165C161.212 386.647 147.454 382.798 136.269 374.409C127.293 367.678 120.156 358.345 116.669 347.622C115.402 343.725 114.754 339.633 114.189 335.585C109.759 335.57 105.473 334.615 101.248 333.361C92.4551 330.75 83.9965 326.526 76.7203 320.93C61.3084 309.077 51.7616 291.645 49.2907 272.458C45.0379 239.432 64.6295 209.084 88.3586 188.001L97.8582 180.275L103.248 176.315C104.058 175.748 105.253 175.127 105.829 174.311L106.05 173.979Z" fill="#849FAD"/>
<path d="M106.97 179.641L108.051 184.272L110.975 193.328L106.921 201.301C99.253 216.266 92.984 232.205 93.7345 249.324C93.9447 254.119 94.9086 258.933 96.1942 263.549C101.284 281.828 115.877 299.585 132.383 308.767C136.707 311.172 141.564 313.17 146.381 314.352C147.58 314.647 151.508 314.955 152.256 315.606C151.999 319.837 151.905 323.882 152.66 328.081C155.353 343.088 166.616 356.114 178.765 364.639C184.959 368.986 192.163 372.39 199.477 374.368C201.853 375.011 204.374 375.284 206.707 375.986L193.496 383.07C192.964 382.86 193.107 382.868 192.66 382.821L192.292 382.79C176.408 381.301 158.307 372.1 148.137 359.771C145.208 356.22 142.634 352.701 140.527 348.602C137.193 342.118 134.817 334.368 135.911 327.027C136.317 324.3 137.328 321.605 138.17 318.989C121.322 319.908 106.601 312.916 93.9663 302.239C80.7778 291.094 71.0458 275.024 69.6404 257.629C67.8151 235.051 78.9215 213.064 92.6052 195.821C97.0922 190.167 102.325 185.157 106.97 179.641Z" fill="#678293"/>
<path d="M110.973 193.328C113.564 199.684 116.44 205.598 120.072 211.431C121.93 214.413 124.122 217.714 126.566 220.255C129.198 223.617 132.545 227.184 136.163 229.502C142.818 234.476 148.999 238.02 157.133 240.007C154.978 243.234 152.624 246.363 151.291 250.044C150.652 251.812 150.407 253.626 150.14 255.477C148.641 265.883 153.477 277.668 159.259 286.057C160.735 285.966 162.104 285.851 163.564 286.149L163.952 286.224C165.548 286.546 167.578 287.381 168.84 288.414L168.892 288.495C170.052 289.454 170.908 290.367 171.822 291.555C173.182 293.79 173.944 295.986 174.442 298.545C175.499 300.733 176.42 303.436 177.794 305.398C178.935 309.414 181.74 313.858 183.781 317.484C191.912 331.926 202.612 345.551 215.421 356.126C219.413 359.422 223.753 362.266 228.078 365.101L227.904 365.572C226.158 368.494 221.527 369.698 218.537 370.997L210.245 374.701C209.093 375.15 207.909 375.704 206.706 375.986C204.373 375.284 201.852 375.011 199.476 374.369C192.162 372.39 184.957 368.986 178.764 364.64C166.614 356.114 155.352 343.089 152.658 328.082C151.904 323.883 151.998 319.837 152.254 315.606C151.506 314.955 147.578 314.647 146.379 314.353C141.562 313.171 136.706 311.173 132.382 308.767C115.876 299.585 101.283 281.829 96.1927 263.55C94.9071 258.933 93.9431 254.12 93.7329 249.325C92.9825 232.205 99.2515 216.267 106.919 201.301L110.973 193.328Z" fill="#526B7F"/>
<path d="M159.259 286.057C160.734 285.966 162.104 285.851 163.564 286.149L163.952 286.224C165.548 286.546 167.577 287.381 168.84 288.414L168.892 288.495C170.052 289.454 170.907 290.367 171.821 291.555C173.182 293.79 173.943 295.986 174.442 298.545C173.628 302.994 172.239 306.98 168.417 309.684C165.75 311.571 162.356 312.377 159.134 311.816C157.94 311.608 156.867 311.197 155.76 310.718C154.738 310.376 153.86 309.798 153.062 309.075C150.382 306.649 148.758 303.38 148.608 299.751C148.43 295.474 150.256 292.362 153.029 289.306C154.824 287.648 156.963 286.772 159.259 286.057Z" fill="#1B364E"/>
<path d="M168.892 288.496C170.052 289.456 170.907 290.369 171.821 291.557C173.182 293.792 173.943 295.987 174.442 298.546C173.628 302.996 172.239 306.982 168.416 309.686C165.75 311.572 162.355 312.378 159.134 311.818C157.94 311.61 156.866 311.198 155.76 310.719C157.386 310.509 159.144 311.023 160.83 310.93C163.852 310.764 166.95 309.288 168.916 306.981C172.34 302.961 173.018 296.992 170.637 292.29C170.14 291.306 168.886 290.03 168.872 288.973L168.892 288.496Z" fill="#05050E"/>
<path d="M136.165 229.504C142.819 234.478 149 238.022 157.135 240.009C154.98 243.236 152.625 246.365 151.293 250.046C150.654 251.814 150.408 253.628 150.142 255.479C148.643 265.885 153.479 277.67 159.261 286.059C156.965 286.774 154.826 287.65 153.031 289.308C147.096 283.707 142.577 277.476 139.11 270.075C134.817 260.911 132.075 249.415 133.48 239.285C133.957 235.853 135 232.746 136.165 229.504Z" fill="#E4A17E"/>
<path d="M428.481 173.957C431.128 176.394 434.133 178.583 436.92 180.869L449.742 192.162C468.007 209.639 484.873 235.022 486.054 261.03C486.909 279.869 480.465 298.102 467.639 312.01C457.699 322.789 444.494 330.407 430.558 334.701C427.05 335.782 422.942 336.932 419.275 337.057C418.39 349.787 411.999 361.996 402.361 370.358C392.144 379.222 379.037 384.525 366.092 387.944C361.815 389.074 357.249 390.239 352.858 390.763L342.506 383.895L330.475 377.466L322.667 374.42C320 373.344 317.186 372.617 314.424 371.829C312.115 371.171 309.684 370.396 307.284 370.214L307.178 370.048L307.224 368.304C307.238 367.781 307.108 365.486 307.308 365.141C307.676 364.509 312.526 361.654 313.429 361.017C316.732 358.689 319.958 356.193 322.993 353.523C332.15 345.465 340.319 336.078 346.756 325.699C351.853 317.48 355.852 308.67 359.363 299.675L359.765 297.646C360.612 295.137 361.655 293.025 363.143 290.831C363.602 287.019 365.222 283.165 366.134 279.415L370.509 258.803C371.9 253.119 372.383 247.131 374.228 241.57C378.24 240.655 381.994 240.259 385.945 238.912L388.345 237.866L396.476 232.617C404.073 225.692 410.068 217.512 415.194 208.652C417.026 205.485 418.919 202.256 420.167 198.805L420.401 198.432L427.067 180.764L427.078 180.578C427.6 178.868 427.861 177.135 428.092 175.367L428.481 173.957Z" fill="#849FAD"/>
<path d="M427.067 180.762C432.718 185.857 437.559 191.602 442.028 197.744C453.353 213.307 462.332 231.873 463.274 251.373C464.024 266.896 457.974 283.48 447.543 294.942C434.635 309.127 416.515 318.581 397.511 321.208L398.26 326.932C399.705 337.582 395.559 348.669 389.11 357.016C377.597 371.916 360.007 378.875 342.506 383.893L330.475 377.464C337.36 374.967 344.081 372.296 350.458 368.644C366.951 359.196 380.562 343.111 382.766 323.707C382.91 322.441 382.836 315.498 383.287 315.055C383.576 314.772 385.545 314.375 386.03 314.225C388.13 313.573 390.169 312.756 392.183 311.876C407.796 305.063 422.957 293.055 431.464 278.096C440.113 262.885 442.345 245.48 437.627 228.609C434.988 219.171 430.214 210.669 424.38 202.856C423.25 201.344 422.059 199.369 420.4 198.43L427.067 180.762Z" fill="#678293"/>
<path d="M420.401 198.432C422.06 199.371 423.251 201.346 424.381 202.858C430.215 210.671 434.989 219.173 437.628 228.611C442.346 245.482 440.113 262.887 431.464 278.098C422.958 293.057 407.796 305.065 392.184 311.878C390.17 312.757 388.131 313.575 386.031 314.226C385.545 314.377 383.577 314.773 383.288 315.057C382.837 315.499 382.911 322.443 382.767 323.708C380.563 343.113 366.952 359.198 350.459 368.645C344.081 372.298 337.361 374.969 330.475 377.466L322.667 374.42C320 373.344 317.186 372.616 314.424 371.829C312.115 371.17 309.684 370.396 307.284 370.214L307.178 370.047L307.224 368.303C307.238 367.781 307.108 365.485 307.308 365.141C307.676 364.508 312.526 361.653 313.429 361.016C316.732 358.688 319.958 356.192 322.993 353.522C332.15 345.465 340.319 336.078 346.756 325.698C351.853 317.479 355.852 308.67 359.363 299.675L359.765 297.645C360.612 295.137 361.655 293.025 363.143 290.83C363.602 287.018 365.222 283.165 366.134 279.414L370.509 258.802C371.9 253.119 372.383 247.131 374.228 241.57C378.24 240.654 381.994 240.259 385.945 238.912L388.345 237.866L396.476 232.616C404.073 225.692 410.068 217.512 415.194 208.651C417.026 205.484 418.919 202.255 420.167 198.804L420.401 198.432Z" fill="#526B7F"/>
<path d="M396.477 232.615C400.899 244.194 401.46 254.794 396.371 266.324C393.306 273.265 388.276 279.587 382.315 284.285C381.444 284.972 378.674 286.311 378.24 287.035L376.398 286.394C379.576 280.976 382.634 276.149 384.93 270.254C387.645 263.284 389.617 255.847 389.896 248.342C390.037 244.556 389.885 241.369 388.346 237.865L396.477 232.615Z" fill="#E4A17E"/>
<path d="M363.142 290.83C364.168 289.777 365.198 288.825 366.448 288.04C369.439 286.162 372.997 285.588 376.397 286.394L378.238 287.035C381.297 288.172 384.135 290.863 385.516 293.815C386.839 296.644 387.158 299.843 386.328 302.855L386.23 303.218C385.28 306.574 382.623 309.907 379.55 311.593C378 312.443 376.488 312.905 374.738 313.141L374.221 313.215C370.728 313.677 367.434 312.735 364.611 310.637C361.463 308.297 360.006 305.222 359.548 301.392L359.361 299.674L359.763 297.645C360.611 295.136 361.654 293.024 363.142 290.83Z" fill="#1B364E"/>
<path d="M385.947 238.911L388.347 237.865C389.886 241.369 390.038 244.557 389.897 248.342C389.618 255.847 387.646 263.284 384.931 270.254C382.635 276.15 379.577 280.977 376.4 286.394C373 285.588 369.442 286.162 366.451 288.04C365.201 288.825 364.171 289.777 363.145 290.83C363.604 287.018 365.223 283.164 366.136 279.414L370.511 258.802C371.902 253.119 372.385 247.13 374.229 241.57C378.242 240.654 381.996 240.258 385.947 238.911Z" fill="#C3785A"/>
<path d="M374.226 241.568C378.239 240.653 381.992 240.257 385.944 238.91C386.483 244.552 387.12 253.459 383.193 258.044C381.713 259.771 379.727 260.865 377.423 260.966C374.984 261.072 372.564 260.024 370.508 258.801C371.898 253.117 372.381 247.129 374.226 241.568Z" fill="#9B4041"/>
<path d="M188.929 51.8906C192.438 35.7407 203.236 23.4622 216.897 14.7031C243.126 -2.11481 277.95 -2.34514 307.422 4.22801C341.835 11.9033 373.919 31.0009 396.403 58.2627C399.387 61.8811 402.609 65.6016 405.128 69.5571C407.513 72.3009 409.469 75.6569 411.365 78.7467C421.02 94.4859 427.689 112.517 430.284 130.813C430.954 135.534 431.568 140.469 431.486 145.241C431.832 148.427 431.615 151.811 431.403 155.005C430.976 161.448 429.984 167.677 428.478 173.956L428.089 175.366C427.858 177.134 427.597 178.867 427.076 180.577L427.065 180.763L420.398 198.431L420.164 198.804C418.916 202.255 417.024 205.484 415.192 208.651C410.065 217.511 404.07 225.691 396.474 232.616L388.342 237.865L385.943 238.911C381.991 240.258 378.238 240.654 374.225 241.569L372.441 242.02C372.934 232.027 369.033 222.507 365.782 213.275L360.518 197.211C357.729 187.977 355.619 178.652 353.649 169.216L349.781 143.379C348.687 141.747 347.314 140.395 346.008 138.938C338.01 130.009 326.837 122.965 315.964 118.091C295.312 108.832 272.849 105.861 250.668 110.776C243.085 112.456 235.948 115.002 228.705 117.753C226.969 118.673 223.356 121.137 221.562 121.169C219.976 121.124 218.01 120.116 216.5 119.572C211.866 118.652 207.814 117.082 203.595 114.99C196.786 110.86 191.631 105.679 187.434 98.883C181.147 88.7039 177.048 74.6181 179.746 62.6859C180.202 60.6693 180.595 58.5301 181.317 56.5928C181.73 55.4824 182.4 54.4347 182.881 53.3388C184.902 52.8435 186.854 52.1424 188.929 51.8906Z" fill="#B4DFE2"/>
<path d="M428.092 175.366C427.45 173.838 427.151 171.956 426.81 170.331L425.066 161.893C423.498 154.525 421.717 147.23 419.269 140.098C409.016 110.225 387.93 85.3511 359.425 71.5037C341.665 62.876 321.055 59.8144 301.507 62.47C293.82 63.5149 286.32 65.5504 279.004 68.1011C257.592 75.5675 236.555 90.0848 226.44 110.935L226.25 110.807C228.691 102.346 231.812 93.8607 235.792 86.0011C246.408 65.0318 265.043 48.8761 287.327 41.4818C311.725 33.386 339.547 37.6958 362.156 49.1051C366.682 51.3891 370.925 54.1162 375.141 56.9193C379.601 59.886 384.034 62.9187 388.114 66.4006C406.295 81.914 420.518 103.188 427.354 126.137C428.933 131.439 429.965 136.886 430.689 142.367C430.994 144.68 430.595 147.439 431.311 149.628L431.489 145.241C431.834 148.426 431.618 151.81 431.406 155.004C430.979 161.447 429.987 167.676 428.481 173.955L428.092 175.366Z" fill="#93C7C8"/>
<path d="M188.929 51.8906C192.438 35.7407 203.236 23.4622 216.897 14.7031C243.126 -2.11481 277.95 -2.34514 307.422 4.22801C341.835 11.9033 373.919 31.0009 396.403 58.2627C399.387 61.8811 402.608 65.6016 405.128 69.5571L404.399 69.7651C375.77 38.295 334.226 17.4067 291.52 15.4214C277.682 14.7781 264.359 16.032 251.142 20.3163C243.801 22.6958 236.207 26.2818 230.436 31.4959C218.99 41.8386 215.792 56.5966 215.189 71.4645C214.71 83.2603 215.898 95.0849 218.239 106.641L220.369 115.609C220.821 117.347 221.573 119.371 221.562 121.169C219.976 121.124 218.01 120.116 216.5 119.572C211.866 118.652 207.814 117.082 203.595 114.99C196.786 110.86 191.631 105.679 187.434 98.883C181.147 88.7039 177.048 74.6181 179.746 62.6859C180.202 60.6693 180.595 58.5301 181.317 56.5928C181.73 55.4824 182.4 54.4347 182.881 53.3388C184.902 52.8435 186.854 52.1424 188.929 51.8906Z" fill="#CFF7FC"/>
<path d="M188.929 51.8887C186.871 71.5069 191.616 92.8373 204.282 108.364C207.798 112.673 211.886 116.469 216.5 119.57C211.866 118.65 207.814 117.08 203.595 114.988C196.786 110.858 191.631 105.677 187.434 98.881C181.147 88.702 177.048 74.6161 179.746 62.6839C180.202 60.6673 180.595 58.5281 181.317 56.5908C181.73 55.4804 182.4 54.4327 182.881 53.3368C184.902 52.8415 186.854 52.1405 188.929 51.8887Z" fill="#93C7C8"/>
<path d="M228.707 117.752C234.153 113.413 239.934 109.153 245.996 105.715C261.925 96.6803 280.738 91.6998 299.067 93.7231C319.782 96.0104 339.022 105.825 352.06 122.208L371.139 147.866C383.839 163.903 399.646 177.544 420.669 180.124L427.078 180.576L427.067 180.762L420.4 198.43L420.166 198.803C418.918 202.254 417.026 205.483 415.194 208.65C410.067 217.511 404.072 225.69 396.476 232.615L388.344 237.864L385.945 238.91C381.993 240.258 378.24 240.653 374.227 241.569L372.443 242.02C372.936 232.026 369.035 222.506 365.784 213.274L360.52 197.21C357.731 187.976 355.622 178.651 353.651 169.215L349.784 143.378C348.689 141.746 347.316 140.394 346.01 138.937C338.012 130.008 326.839 122.965 315.966 118.09C295.314 108.831 272.851 105.86 250.67 110.775C243.087 112.456 235.95 115.001 228.707 117.752Z" fill="#93C7C8"/>
<path d="M353.652 169.215C354.838 170.158 355.601 173.228 356.257 174.753C357.146 176.819 358.202 178.888 359.287 180.856C362.816 187.264 367.903 193.905 373.77 198.319C379.218 202.419 385.243 205.469 392.072 206.347C400.521 207.434 408.01 204.716 415.555 201.216C417.132 200.484 418.596 199.518 420.168 198.803C418.92 202.254 417.027 205.483 415.195 208.65C410.068 217.511 404.073 225.69 396.477 232.615L388.346 237.864L385.946 238.91C381.995 240.257 378.241 240.653 374.228 241.569L372.445 242.02C372.937 232.026 369.037 222.506 365.785 213.274L360.521 197.21C357.732 187.976 355.623 178.651 353.652 169.215Z" fill="#76A7A7"/>
<path d="M228.707 117.753C235.95 115.002 243.087 112.457 250.67 110.776C272.851 105.861 295.314 108.832 315.966 118.091C326.839 122.966 338.012 130.009 346.01 138.938C347.316 140.395 348.689 141.747 349.783 143.379L353.651 169.216C355.622 178.652 357.731 187.977 360.52 197.211L365.784 213.275C369.035 222.507 372.936 232.027 372.443 242.021L374.227 241.57C372.382 247.13 371.899 253.119 370.509 258.802L366.133 279.414C365.221 283.164 363.601 287.018 363.142 290.83C361.655 293.025 360.611 295.137 359.764 297.645L359.362 299.675C355.852 308.669 351.853 317.479 346.755 325.698C340.319 336.077 332.15 345.464 322.992 353.522C319.957 356.192 316.732 358.688 313.429 361.016C312.525 361.653 307.676 364.508 307.307 365.14C307.107 365.485 307.237 367.78 307.223 368.303L307.177 370.047C306.34 369.17 306.701 366.778 306.707 365.513C299.397 369.311 292.798 373.133 284.751 375.297C271.065 378.978 255.79 377.692 242.634 372.531C237.542 370.534 232.809 367.821 228.079 365.102C223.755 362.267 219.415 359.423 215.423 356.127C202.613 345.552 191.914 331.927 183.782 317.485C181.741 313.859 178.936 309.414 177.795 305.399C176.421 303.437 175.5 300.733 174.443 298.545C173.945 295.987 173.183 293.791 171.823 291.556C170.909 290.368 170.054 289.455 168.893 288.495L168.842 288.415C167.579 287.382 165.549 286.547 163.954 286.224L163.565 286.15C162.105 285.852 160.736 285.966 159.261 286.057C153.479 277.669 148.643 265.884 150.141 255.477C150.408 253.627 150.653 251.813 151.293 250.045C152.625 246.363 154.979 243.235 157.135 240.007C149 238.021 142.819 234.477 136.165 229.503C132.546 227.184 129.199 223.618 126.567 220.255C124.123 217.715 121.931 214.414 120.073 211.431C116.442 205.599 113.565 199.685 110.975 193.329L108.051 184.273C109.419 184.56 110.724 185.055 112.097 185.316C116.778 186.203 121.246 186.427 125.989 185.986C131.541 185.468 136.749 183.886 141.879 181.767C160.329 174.146 174.649 158.932 185.821 142.811L192.767 132.247C194.242 129.853 195.648 126.895 197.473 124.798L197.795 124.437C199.65 121.132 201.422 118.106 203.597 114.99C207.816 117.082 211.868 118.652 216.502 119.572C218.012 120.116 219.978 121.124 221.564 121.169C223.358 121.137 226.971 118.673 228.707 117.753Z" fill="#F7C1A4"/>
<path d="M272.068 240.499C270.997 230.667 270.796 220.68 270.485 210.805C270.426 208.905 269.883 206.074 270.469 204.266C271.347 205.587 270.883 208.847 271.021 210.502L271.818 223.933L272.693 231.702C272.432 232.299 272.303 232.759 272.136 233.381L271.996 233.798C271.903 234.228 272.02 234.558 272.103 234.975C272.508 236.996 272.715 238.525 272.068 240.499Z" fill="#C3785A"/>
<path d="M290.488 304.371C291.735 304.643 293.981 307.261 294.916 308.297C299.478 313.354 305.85 322.416 305.449 329.607C304.739 327.923 304.413 326.167 303.651 324.479C300.475 317.431 295.539 310.237 290.488 304.371Z" fill="#C3785A"/>
<path d="M244.628 303.264L244.737 303.425C238.554 311.017 231.956 318.97 228.227 328.159C227.65 329.58 227.353 331.108 226.847 332.556L226.712 332.936L226.646 332.798C228.22 320.477 236.035 311.622 244.628 303.264Z" fill="#C3785A"/>
<path d="M253.516 287.366C255.094 282.915 256.904 278.698 259.492 274.727L260.318 287.756C258.043 287.265 255.827 287.151 253.516 287.366Z" fill="#FDE4C6"/>
<path d="M264.134 340.886C266.144 340.726 268.291 340.602 270.278 341.006L270.608 341.077C274.161 341.809 277.038 343.754 279.804 346.013C276.936 345.254 274.179 344.539 271.232 344.164C265.298 343.72 260.314 344.509 254.623 346.153C257.641 344.112 260.547 341.815 264.134 340.886Z" fill="#E4A17E"/>
<path d="M252.877 291.539C253.153 291.374 253.419 291.234 253.731 291.144C255.387 290.662 256.833 290.513 258.341 291.413C261.113 293.069 263.808 294.123 267.002 294.576C270.003 295.002 273.602 293.897 276.308 292.674C278.961 291.476 280.752 289.585 281.777 286.852L281.887 286.549L284.691 289.472C283.44 292.784 281.667 295.097 278.408 296.647C273.334 299.062 266.255 299.487 261.013 297.469C257.775 296.223 255.069 294.219 252.877 291.539Z" fill="#C3785A"/>
<path d="M240.926 320.666L243.66 321.444L244.122 321.534C249.189 322.554 255.059 322.163 260.229 322.197C271.34 322.267 282.748 322.787 293.744 321.075L289.294 324C285.153 326.182 280.375 327.637 275.769 328.402C263.257 330.481 251.257 328.078 240.926 320.666Z" fill="#842220"/>
<path d="M272.696 231.701L277.668 264.249L280.009 274.996C280.875 278.522 282.207 282.423 282.161 286.07C283.017 286.373 284.213 286.67 284.601 287.57C284.839 288.125 284.727 288.88 284.693 289.472L281.889 286.549L281.779 286.852C280.754 289.585 278.963 291.475 276.31 292.674C273.604 293.897 270.005 295.002 267.004 294.576C263.81 294.123 261.115 293.069 258.343 291.413C256.835 290.513 255.389 290.662 253.733 291.144C253.422 291.234 253.155 291.374 252.879 291.539L252.108 290.848C251.937 289.778 253.012 288.306 253.517 287.366C255.829 287.15 258.045 287.265 260.319 287.756C263.131 289.876 265.247 290.875 268.84 290.624C271.693 290.424 274.174 289.304 276.024 287.094C276.626 286.375 276.996 285.485 277.052 284.544C277.216 281.834 276.724 279.046 276.416 276.364L274.806 264.569L272.071 240.499C272.718 238.525 272.51 236.995 272.106 234.975C272.022 234.557 271.905 234.228 271.999 233.797L272.138 233.38C272.305 232.758 272.434 232.298 272.696 231.701Z" fill="url(#paint0_linear_708_45569)"/>
<path d="M217.805 157.096C229.156 156.429 240.335 160.37 251.173 163.176C256.733 164.616 262.391 165.934 268.158 165.887C273.637 165.843 279.123 164.339 284.389 162.922C291.555 160.993 298.862 158.63 306.234 157.691C313.379 156.782 321.138 157.392 328.171 158.764C329.316 158.988 330.357 159.32 331.457 159.7L329.336 159.398C325.358 158.643 321.144 158.94 317.129 159.258C305.301 160.333 294.275 164.931 282.648 167.062C269.887 169.401 255.395 168.508 242.895 165.027C236.576 163.268 230.195 160.877 223.698 159.88C218.953 159.152 214.395 158.715 209.591 158.869C208.536 158.903 207.455 158.893 206.41 159.041C205.659 159.147 204.336 159.658 203.701 159.335C208.375 157.879 212.942 157.351 217.805 157.096Z" fill="#E4A17E"/>
<path d="M224.436 143.506C226.508 143.092 229.413 143.438 231.507 143.657C238.061 144.343 244.443 145.984 250.834 147.54C255.292 148.624 259.925 149.828 264.525 150.045C274.445 150.513 283.498 147.386 293.038 145.261C303.087 143.023 313.628 143.09 323.149 147.406C325.599 148.517 327.828 150.003 330.092 151.44L330.025 151.714C327.76 150.695 325.786 149.629 323.394 148.832C316.495 146.532 308.483 145.994 301.325 147.117C295.937 147.958 290.731 149.373 285.493 150.859L273.142 154.09C271.138 154.532 268.926 155.141 266.864 155.03C264.399 154.897 261.576 153.878 259.158 153.292L243.389 149.315C240.384 148.546 237.378 147.628 234.317 147.112C222.133 145.063 208.845 146.294 198.507 153.61L198.205 153.514C205.914 146.833 214.43 144.329 224.436 143.506Z" fill="#E4A17E"/>
<path d="M187.254 192.332C190.566 185.101 196.004 179.21 203.565 176.392C211.187 173.552 219.787 173.636 227.211 177.106C232.892 179.761 237.56 183.989 239.707 190.015C240.371 191.879 240.754 193.656 241.022 195.612C241.361 198.093 241.185 200.688 241.137 203.188C241.017 203.174 240.883 203.205 240.778 203.147C240.61 203.054 240.098 202.233 239.973 202.067L237.684 199.164C236.595 197.844 235.349 196.641 234.106 195.466C227.074 188.825 215.134 182.827 205.36 183.161C199.978 183.345 194.355 185.561 190.259 189.056C189.183 189.975 188.237 191.283 187.254 192.332Z" fill="#849FAD"/>
<path d="M293.64 203.248C292.9 198.117 293.161 192.393 295.528 187.687C298.468 181.843 304.186 177.725 310.313 175.699C318.608 172.955 327.278 173.239 335.148 177.23C344.759 182.105 350.351 191.373 353.644 201.307L353.376 200.968C351.974 199.148 351.062 196.892 349.686 195.002C345.437 189.162 338.47 184.514 331.269 183.433C322.4 182.102 310.126 186.732 303.164 192.118C299.108 195.256 296.302 198.936 293.64 203.248Z" fill="#849FAD"/>
<path d="M157.136 240.006L160.639 240.623C160.959 248.929 162.506 256.923 164.327 265.006C166.299 273.765 168.683 282.74 172.304 290.977L171.824 291.554C170.91 290.366 170.055 289.454 168.895 288.494L168.843 288.413C167.58 287.38 165.55 286.546 163.955 286.223L163.566 286.149C162.107 285.851 160.737 285.965 159.262 286.056C153.48 277.668 148.644 265.883 150.143 255.476C150.41 253.625 150.655 251.811 151.294 250.043C152.626 246.362 154.981 243.233 157.136 240.006Z" fill="#C3785A"/>
<path d="M372.445 242.019L374.228 241.568C372.384 247.129 371.901 253.117 370.51 258.801L366.135 279.413C365.222 283.163 363.603 287.017 363.144 290.829C361.656 293.023 360.613 295.135 359.765 297.644L359.363 299.673C355.853 308.668 351.854 317.478 346.757 325.697C340.32 336.076 332.151 345.463 322.994 353.521C319.959 356.191 316.733 358.687 313.43 361.015C312.527 361.652 307.677 364.507 307.309 365.139C307.109 365.483 307.238 367.779 307.225 368.302L307.178 370.046C306.341 369.169 306.702 366.776 306.708 365.512C299.398 369.31 292.8 373.132 284.752 375.296C271.067 378.976 255.791 377.69 242.635 372.529C237.543 370.532 232.81 367.82 228.08 365.1C223.756 362.266 219.416 359.421 215.424 356.126C202.614 345.551 191.915 331.925 183.784 317.483C181.743 313.858 178.938 309.413 177.796 305.398C176.423 303.436 175.501 300.732 174.445 298.544C173.946 295.986 173.185 293.79 171.824 291.555L172.304 290.977C173.07 291.93 173.346 292.986 173.744 294.11L174.306 295.221L178.429 304.174C178.893 304.501 179.784 306.616 180.119 307.232L186.368 318.32C189.002 322.763 192.059 326.78 195.165 330.888C207.575 347.3 223.587 361.811 242.863 369.656C251.598 373.212 260.223 374.615 269.618 374.516C276.768 374.441 283.526 373.54 290.143 370.689C294.882 368.647 299.79 366.378 304.239 363.759C311.333 359.582 317.776 354.429 323.853 348.904C329.142 344.097 334.23 338.996 338.622 333.34C347.378 322.061 353.854 309.419 359.12 296.203L372.445 242.019Z" fill="#E4A17E"/>
<path d="M187.253 192.331C188.237 191.282 189.182 189.973 190.258 189.055C194.355 185.56 199.977 183.344 205.36 183.16C215.134 182.826 227.074 188.824 234.105 195.465C235.348 196.64 236.594 197.843 237.684 199.162L239.973 202.065C240.098 202.232 240.61 203.053 240.777 203.146C240.882 203.204 241.017 203.173 241.136 203.187L241.166 204.815C241.166 224.313 241.166 204.815 241.166 224.313C240.709 224.43 232.174 208.115 231.807 208.394C224.857 203.671 218.48 202.034 210.108 203.596C204.94 204.561 199.653 208.18 196.331 212.186L196.063 212.504C194.947 213.842 193.937 215.326 193.174 216.894C188.314 213.105 185.116 206.893 183.232 201.169C183.978 198.469 185.451 194.53 187.253 192.331Z" fill="#E4A17E"/>
<path d="M293.64 203.248C296.301 198.937 299.108 195.256 303.164 192.119C310.126 186.733 322.4 182.103 331.268 183.434C338.47 184.515 345.437 189.163 349.686 195.002C351.062 196.893 351.974 199.149 353.376 200.969L353.644 201.308C354.219 202.114 354.199 202.852 354.039 203.846C353.17 209.262 347.721 218.016 342.449 220.414C340.906 215.713 338.387 210.032 334.279 207.086L333.972 206.873L332.447 205.846C327.308 202.71 320.569 201.351 314.677 202.844L314.144 202.982C310.159 203.988 298.8 207.086 294.198 226.957C293.485 204.825 294.198 226.957 293.484 204.825L293.64 203.248Z" fill="#E4A17E"/>
<path d="M296.648 223.433C297.425 217.045 300.58 211.425 305.686 207.474C310.064 204.086 316.16 202.109 321.697 202.835C327.595 203.609 333.714 206.688 337.288 211.541C341.364 217.075 341.835 222.96 341.203 229.562C340.722 230.595 340.798 231.977 340.567 233.105C340.148 235.157 339.174 236.923 338.139 238.712C336.956 240.062 335.76 241.256 334.392 242.419L332.4 243.67C327.252 246.757 320.529 247.939 314.669 246.443C311.789 245.707 309.258 244.693 306.717 243.122C301.453 239.866 298.407 234.989 296.986 229.067C296.552 227.258 296.665 225.291 296.648 223.433Z" fill="#F9FAEB"/>
<path d="M310.727 211.81C313.179 210.689 314.519 209.941 316.263 209.538C320.442 208.571 325.284 209.433 328.829 211.81C338.582 218.352 337.907 231.762 327.69 237.718C323.776 240.001 319.163 240.771 314.765 239.589C310.482 238.439 305.892 235.17 304.054 231.045C300.75 223.628 303.673 215.337 310.727 211.81C308.977 213.098 307.242 218.269 307.633 219.772C306.887 222.843 307.384 227.456 309.04 230.135C310.601 232.661 313.575 234.224 316.445 234.721C319.647 235.275 322.661 234.814 325.259 232.795C327.894 230.748 329.632 227.199 329.865 223.881C330.048 221.288 328.99 218.67 327.18 216.828C324.201 213.799 320.727 213.377 316.722 213.357C315.817 213.039 308.37 217.024 307.426 216.828C306.387 216.614 307.426 214.059 310.727 211.81Z" fill="#1A7A7B"/>
<path d="M327.18 216.827C328.991 218.669 330.048 221.287 329.866 223.88C329.632 227.198 327.895 230.747 325.26 232.794C322.662 234.812 319.648 235.274 316.445 234.72C313.575 234.222 310.602 232.66 309.04 230.134C300.096 215.666 317.496 206.979 327.18 216.827Z" fill="#05050E"/>
<path d="M312.754 218.048C314.86 218.447 316.737 220.122 316.395 222.24C316.207 223.407 315.5 224.405 314.46 225.085C313.372 225.796 311.961 226.123 310.649 225.857C305.213 224.753 307.183 216.992 312.754 218.048Z" fill="#F9FAEB"/>
<path d="M193.172 217.158C193.934 215.591 194.944 214.107 196.061 212.769L196.329 212.45C199.65 208.445 204.938 204.825 210.106 203.861C218.478 202.299 224.854 203.936 231.804 208.659C242.04 218.693 243.335 227.448 235.949 237.813C232.522 242.623 227.289 245.261 221.661 246.523C220.787 246.719 220.026 246.694 219.165 246.827C217.645 247.062 215.886 247.219 214.354 246.94L213.558 246.799L211.96 246.567C205.596 245.2 200.365 241.464 196.799 236.091C195.702 234.436 195.058 232.456 194.554 230.548C194.193 229.183 194.113 227.913 194.048 226.512C191.976 222.121 194.049 226.512 191.976 222.121L192.166 221.4C192.699 220.214 192.83 225.711 193.074 224.4L192.824 224.101L192.612 224.77L191.217 223.582C191.735 221.363 192.294 219.267 193.172 217.158Z" fill="#F9FAEB"/>
<path d="M208.054 207.146C212.556 205.23 217.422 205.089 222.016 206.872C226.222 208.506 229.49 211.61 231.274 215.773C234.44 223.155 230.52 233.414 223.117 237.665C221.856 238.389 220.63 238.911 219.229 239.316L218.738 239.462C214.807 240.562 210.42 239.602 206.983 237.541C203.469 235.434 200.861 231.796 199.973 227.836C198.403 219.597 200.436 211.418 208.054 207.146Z" fill="#1A7A7B"/>
<path d="M223.748 216.618C225.337 218.655 225.721 221.473 225.291 223.964C224.805 226.778 223.076 229.362 220.696 230.932C218.404 232.445 214.935 233.185 212.277 232.44C209.846 231.759 207.656 230.188 206.483 227.933C205.288 225.637 204.81 222.404 205.629 219.912C205.63 216.277 214.654 207.232 223.748 216.618Z" fill="url(#paint1_linear_708_45569)"/>
<path d="M214.43 221.908C214.476 222.918 214.244 223.9 213.605 224.653C212.822 225.573 211.581 225.971 210.455 225.948C209.726 225.934 208.849 225.75 208.234 225.303C206.404 223.912 205.823 221.802 207.184 219.869C209.436 216.671 214.23 217.548 214.43 221.908Z" fill="#F9FAEB"/>
<path d="M193.075 224.136C193.759 222.491 194.304 220.769 195.176 219.212C197.751 214.613 201.949 211.009 206.815 209.029C212.651 206.654 219.19 206.628 225.014 209.078C231.47 211.793 235.654 216.745 238.174 223.138C239.188 225.71 239.976 228.763 239.925 231.544L239.641 231.511C238.654 225.248 235.379 219.467 230.204 215.712C225.231 212.104 218.937 210.119 212.788 211.172C206.927 212.175 201.396 215.924 198.032 220.773C195.491 224.436 195.069 228.024 195.175 232.483C193.103 228.093 195.176 232.483 193.103 228.093C193.075 224.136 192.825 225.481 193.075 224.136Z" fill="#05050E"/>
<path d="M193.172 216.895C193.934 215.327 194.944 213.843 196.061 212.505L196.329 212.187C199.65 208.181 204.938 204.562 210.106 203.597C218.478 202.035 224.854 203.672 231.804 208.395C236.694 212.601 240.119 218.23 241.232 224.644L241.302 225.013C239.923 231.545 241.302 225.013 239.923 231.545C239.975 228.764 239.186 225.711 238.173 223.139C235.652 216.746 231.469 211.794 225.012 209.078C219.188 206.629 212.649 206.655 206.813 209.03C201.948 211.01 197.749 214.614 195.175 219.213C194.303 220.77 193.172 223.139 193.123 228.138L191.217 223.318C191.735 221.099 192.294 219.003 193.172 216.895Z" fill="#C3785A"/>
<path d="M108.051 184.272C109.419 184.559 110.724 185.054 112.097 185.315C116.778 186.202 121.246 186.426 125.989 185.985C131.541 185.467 136.749 183.885 141.879 181.766C160.329 174.145 174.649 158.931 185.821 142.81L192.767 132.246C194.242 129.852 195.648 126.894 197.473 124.797L197.795 124.436L190.541 146.773C186.721 158.899 183.177 170.855 178.066 182.541C175.564 188.264 172.984 193.992 169.195 199.004L162.676 228.582L161.464 236.594C161.292 237.852 161.262 239.498 160.638 240.624L157.135 240.006C149 238.02 142.819 234.476 136.165 229.502C132.546 227.183 129.199 223.617 126.567 220.254C124.123 217.714 121.931 214.413 120.073 211.43C116.442 205.598 113.565 199.684 110.975 193.328L108.051 184.272Z" fill="#93C7C8"/>
<path d="M126.566 220.254L126.919 220.249C140.123 219.986 153.477 213.595 163.294 204.994C165.389 203.16 167.273 201.021 169.194 199.004L162.676 228.582L161.463 236.593C161.292 237.851 161.261 239.498 160.637 240.623L157.134 240.006C148.999 238.019 142.819 234.475 136.164 229.501C132.546 227.183 129.199 223.617 126.566 220.254Z" fill="#76A7A7"/>
<path d="M228.079 365.102C232.808 367.821 237.541 370.534 242.633 372.531C255.789 377.692 271.065 378.978 284.75 375.297C292.798 373.133 299.396 369.311 306.706 365.513C306.7 366.778 306.339 369.17 307.176 370.047L307.282 370.214C309.682 370.395 312.114 371.17 314.423 371.829C317.185 372.616 319.998 373.343 322.665 374.419L330.474 377.465L342.505 383.895L352.857 390.762C360.752 396.273 367.689 402.22 374.505 409.031L369.585 431.667L371.318 432.204C376.111 433.444 380.897 435.173 385.6 436.731C402.4 442.295 419.432 448.959 434.835 457.746C432.346 479.703 428.505 501.471 423.449 522.986L419.051 539.983C418.003 543.738 416.688 782.101 415.997 785.939H0.140625L34.1899 540.072C36.7456 530.889 40.3088 521.843 44.748 513.406C56.3841 491.291 73.6108 473.431 94.7603 460.198C109.425 451.022 125.91 444.043 142.197 438.314L163.568 431.612L164.036 431.038C163.028 427.062 162.405 422.976 161.622 418.95C161.139 416.465 160.424 413.969 160.175 411.449L170.251 400.915C174.858 396.523 179.844 392.487 184.946 388.686C185.78 388.432 186.855 387.548 187.585 387.043L193.495 383.071L206.707 375.987C207.91 375.704 209.094 375.151 210.246 374.702L218.537 370.997C221.528 369.698 226.159 368.495 227.905 365.572L228.079 365.102Z" fill="#532022"/>
<path d="M164.036 431.037L168.331 445.28C174.795 464.847 182.383 483.88 191.631 502.303C195.933 510.876 200.365 519.389 206.243 527.013C213.774 518.672 220.329 509.345 226.204 499.772C228.536 495.973 231.054 491.991 232.762 487.864L237.278 497.012L237.045 497.266C235.783 498.374 235.184 499.74 234.351 501.177L230.991 506.663L222.926 518.873C218.11 525.889 212.724 532.639 207.064 538.995C204.628 536.463 202.512 533.354 200.526 530.459C193.5 520.218 187.939 508.997 182.985 497.632C175.783 481.11 169.96 464.167 165.848 446.607L164.048 437.481C163.736 435.594 163.214 433.516 163.567 431.611L164.036 431.037Z" fill="#3E1316"/>
<path d="M369.584 431.664L371.318 432.201C371.337 436.902 370.399 441.194 369.492 445.782C367.529 455.705 364.527 465.387 361.254 474.946C356.463 488.939 350.97 502.393 343.895 515.397C339.54 523.403 334.477 530.725 329.157 538.1C320.851 529.598 313.622 520.72 307.171 510.712L302.553 503.049C301.358 500.943 300.053 497.488 298.086 496.054L301.808 488.312C303.017 489.631 303.86 492.024 304.716 493.636L309.122 501.123C314.86 510.173 321.228 518.641 328.177 526.786C334.07 519.046 338.726 510.416 343.122 501.767C354.401 479.576 363.419 455.796 369.584 431.664Z" fill="#3E1316"/>
<path d="M271.513 460.992C281.3 460.127 290.788 457.398 299.519 452.86C304.03 450.516 308.394 447.741 312.426 444.647C313.922 443.498 317.375 439.476 319.002 439.273C314.765 456.344 308.708 472.171 301.809 488.313L298.087 496.055C292.751 506.269 287.097 516.252 280.247 525.546C277.724 528.97 275.101 532.517 272.124 535.563L267.132 540.985L263.303 536.907C252.551 525.457 244.363 510.936 237.279 497.012L232.763 487.864L216.107 440.109C217.573 440.301 220.599 443.566 221.903 444.566C226.883 448.38 232.472 451.664 238.119 454.381C246.528 458.428 255.009 460.31 264.247 461.128L271.513 460.992Z" fill="#F9FAEB"/>
<path d="M264.249 461.13L271.514 460.994C271.103 463.459 271.297 466.099 271.292 468.601L271.284 482.285L271.531 526.152L271.726 532.047C271.762 533.22 271.648 534.472 272.125 535.565L267.133 540.987L263.305 536.909C263.535 536.538 263.717 536.271 263.799 535.833C264.076 534.36 263.894 532.571 263.956 531.05L264.24 513.447L264.249 461.13Z" fill="#D7DEC6"/>
<path d="M271.512 460.992C281.299 460.127 290.787 457.398 299.517 452.86C304.029 450.516 308.393 447.741 312.425 444.647C313.921 443.498 317.374 439.476 319.001 439.273C314.764 456.344 308.706 472.171 301.808 488.313L298.086 496.055C292.749 506.269 287.095 516.252 280.246 525.546C277.722 528.97 275.1 532.517 272.123 535.563C271.646 534.47 271.76 533.218 271.723 532.045L271.528 526.15L271.281 482.283L271.29 468.599C271.295 466.097 271.1 463.457 271.512 460.992Z" fill="#F9FAEB"/>
<path d="M210.247 374.701C210.228 386.884 210.132 399.11 211.275 411.247C211.531 413.957 211.668 417.299 212.432 419.904C213.266 425.515 213.946 431.17 215.275 436.692C215.533 437.763 215.654 439.141 216.108 440.11L232.763 487.864C231.055 491.991 228.537 495.973 226.205 499.773C220.33 509.346 213.775 518.672 206.244 527.013C200.366 519.389 195.935 510.876 191.632 502.303C182.385 483.88 174.796 464.847 168.333 445.281L164.037 431.037C163.029 427.061 162.406 422.975 161.623 418.949C161.14 416.464 160.425 413.968 160.176 411.448L170.252 400.914C174.859 396.522 179.845 392.486 184.947 388.685C185.781 388.431 186.856 387.547 187.585 387.042L193.496 383.07L206.707 375.986C207.91 375.703 209.094 375.15 210.247 374.701Z" fill="#9B4041"/>
<path d="M307.282 370.213C309.682 370.395 312.114 371.17 314.422 371.828C317.184 372.616 319.998 373.343 322.665 374.419L330.474 377.465L342.505 383.894L352.856 390.762C360.752 396.273 367.689 402.22 374.505 409.031L369.584 431.666C363.419 455.798 354.402 479.578 343.123 501.769C338.726 510.418 334.07 519.048 328.177 526.788C321.228 518.642 314.861 510.175 309.122 501.125L304.717 493.638C303.861 492.026 303.017 489.633 301.809 488.314C308.707 472.171 314.765 456.345 319.001 439.274L322.669 419.585C317.758 416.724 313.276 413.385 309.084 409.551L307.438 381.48L307.282 370.213Z" fill="#9B4041"/>
<path d="M307.281 370.213C309.681 370.395 312.113 371.17 314.422 371.828C317.184 372.616 319.997 373.343 322.664 374.419C323.37 384.446 324.023 394.422 323.775 404.482L322.668 419.585C317.757 416.724 313.275 413.385 309.083 409.551L307.437 381.48L307.281 370.213Z" fill="#842220"/>
<path d="M228.079 365.102C232.809 367.821 237.541 370.534 242.633 372.531C255.79 377.692 271.065 378.978 284.75 375.297C292.798 373.133 299.396 369.311 306.706 365.513C306.7 366.778 306.339 369.17 307.177 370.047L307.283 370.214L307.439 381.48L309.085 409.552C313.277 413.386 317.759 416.725 322.669 419.586L319.002 439.275C317.375 439.477 313.922 443.5 312.426 444.648C308.394 447.743 304.03 450.517 299.519 452.862C290.788 457.4 281.3 460.128 271.513 460.994L264.247 461.13C255.009 460.312 246.527 458.43 238.119 454.383C232.472 451.665 226.882 448.382 221.903 444.567C220.599 443.568 217.572 440.303 216.107 440.111C215.654 439.142 215.533 437.764 215.275 436.693C213.946 431.171 213.265 425.516 212.432 419.905C211.667 417.3 211.53 413.958 211.275 411.248C210.131 399.111 210.228 386.885 210.246 374.702L218.538 370.997C221.528 369.698 226.159 368.495 227.905 365.572L228.079 365.102Z" fill="#E4A17E"/>
<path d="M227.905 365.572L227.319 381.14L225.983 409.545C221.887 413.354 216.992 416.652 212.432 419.905C211.667 417.3 211.53 413.958 211.275 411.247C210.131 399.111 210.228 386.885 210.246 374.702L218.538 370.997C221.528 369.698 226.159 368.495 227.905 365.572Z" fill="#842220"/>
<path d="M228.08 365.102C232.809 367.821 237.542 370.534 242.634 372.531C255.79 377.692 271.066 378.978 284.751 375.297C292.799 373.133 299.397 369.311 306.707 365.513C306.701 366.778 306.34 369.17 307.178 370.047L307.284 370.214L307.439 381.48C307.267 380.684 307.259 379.886 306.995 379.108L305.168 384.839C301.547 394.747 294.29 402.17 284.75 406.57C275.005 411.065 262.788 411.035 252.826 407.279C243.145 403.629 235.664 397.072 231.1 387.757C229.819 385.145 228.988 382.387 227.795 379.758L227.32 381.14L227.906 365.572L228.08 365.102Z" fill="#C3785A"/>
<path d="M108.201 785.95L127.549 594.564L138.236 785.95H108.201Z" fill="#3E1316"/>
<path d="M402.025 785.95L421.374 594.564L432.06 785.95H402.025Z" fill="#3E1316"/>
<path d="M303.88 208.103C307.19 205.712 310.16 203.988 314.145 202.981L314.677 202.843C320.57 201.35 327.308 202.71 332.447 205.846L333.973 206.872L334.279 207.085C338.388 210.031 341.069 214.433 342.612 219.133L342.451 220.396C343.606 223.392 344.149 225.571 344.197 228.805C343.712 232.555 344.197 228.805 343.712 232.555L340.007 235.817L339.768 235.628C340.4 229.027 341.364 224.576 337.288 219.042C333.714 214.189 327.595 211.11 321.697 210.336C316.16 209.61 310.064 211.587 305.686 214.975C300.58 218.926 299.63 224.546 298.853 230.934L298.425 233.719C297.994 231.957 295.84 230.362 295.912 228.566L295.357 228.679C294.203 226.379 295.358 228.679 294.203 226.379C294.693 219.121 298.483 212.783 303.88 208.103Z" fill="#05050E"/>
<path d="M303.88 208.103C307.19 205.712 310.16 203.988 314.145 202.981L314.678 202.843C320.57 201.35 327.309 202.71 332.448 205.846L333.973 206.872L334.28 207.085C338.388 210.031 341.069 214.433 342.612 219.133L342.451 220.396C339.256 214.25 334.011 209.899 327.387 207.83C321.166 205.887 314.277 206.712 308.563 209.751C302.82 212.806 298.777 218.465 296.946 224.644C296.138 227.71 298.265 230.303 298.423 233.453C298.423 233.453 294.044 228.752 294.203 226.379C294.693 219.121 298.483 212.783 303.88 208.103Z" fill="#C3785A"/>
</g>
</g>
<defs>
<filter id="filter0_d_708_45569" x="0.140625" y="0.21875" width="559.859" height="810.73" filterUnits="userSpaceOnUse" color-interpolation-filters="sRGB">
<feFlood flood-opacity="0" result="BackgroundImageFix"/>
<feColorMatrix in="SourceAlpha" type="matrix" values="0 0 0 0 0 0 0 0 0 0 0 0 0 0 0 0 0 0 127 0" result="hardAlpha"/>
<feOffset dx="25" dy="25"/>
<feComposite in2="hardAlpha" operator="out"/>
<feColorMatrix type="matrix" values="0 0 0 0 0 0 0 0 0 0 0 0 0 0 0 0 0 0 0.25 0"/>
<feBlend mode="normal" in2="BackgroundImageFix" result="effect1_dropShadow_708_45569"/>
<feBlend mode="normal" in="SourceGraphic" in2="effect1_dropShadow_708_45569" result="shape"/>
</filter>
<linearGradient id="paint0_linear_708_45569" x1="286.459" y1="245.686" x2="258.922" y2="294.239" gradientUnits="userSpaceOnUse">
<stop stop-color="#C98767"/>
<stop offset="1" stop-color="#F0A588"/>
</linearGradient>
<linearGradient id="paint1_linear_708_45569" x1="208.693" y1="217.271" x2="222.501" y2="228.3" gradientUnits="userSpaceOnUse">
<stop stop-color="#000003"/>
<stop offset="1" stop-color="#0D0216"/>
</linearGradient>
<clipPath id="clip0_708_45569">
<rect width="534.859" height="785.731" fill="white" transform="translate(0.140625 0.21875)"/>
</clipPath>
</defs>
</svg>
