<svg width="41" height="16" viewBox="0 0 41 16" fill="none" xmlns="http://www.w3.org/2000/svg">
<path d="M21.2773 0.501953C10.9005 0.501965 3.20888 3.57618 0.660156 5.11328C3.38256 8.53967 11.3174 15.385 21.2773 15.3555C31.2373 15.3259 38.5086 8.51503 40.8992 5.11328C38.6823 3.57617 31.6542 0.501941 21.2773 0.501953Z" fill="#9B4041"/>
<path d="M21.0536 5.83132C15.0941 5.832 9.47784 3.66017 7.39062 2.4177C16.1664 -0.366885 27.1948 -0.302175 34.1367 2.23056C32.261 3.47246 27.013 5.83063 21.0536 5.83132Z" fill="#F9FAEB"/>
<path d="M21.1033 15.4776C17.5942 15.478 12.7798 13.9658 11.5508 13.2342C19.6243 12.1151 23.0306 12.1142 30.7305 13.2341C29.6261 13.9654 24.6125 15.4772 21.1033 15.4776Z" fill="#F9FAEB"/>
</svg>
