<svg width="42" height="13" viewBox="0 0 42 13" fill="none" xmlns="http://www.w3.org/2000/svg">
<path d="M21.1029 0.405421C10.8552 0.405433 0.171875 -0.329485 0.171875 3.12091C0.171875 5.30821 4.31061 12.5133 21.1029 12.5133C37.176 12.5133 41.4544 5.03151 41.4544 3.12091C41.4544 0.502105 31.3507 0.405409 21.1029 0.405421Z" fill="#9B4041"/>
<path d="M20.7883 6.57706C10.4354 6.57706 6.77734 2.75578 6.77734 0.434608C14.3183 0.188523 27.2993 0.148381 35.3351 0.804614C35.3351 2.91013 30.5731 6.57706 20.7883 6.57706Z" fill="#F9FAEB"/>
<path d="M20.7903 7.07169C9.7737 7.07169 10.321 8.22592 7.08594 10.1219C14.2391 13.4864 28.2883 13.2533 34.5701 10.1215C31.2554 8.26713 31.2024 7.07169 20.7903 7.07169Z" fill="#F9FAEB"/>
</svg>
