<svg width="42" height="14" viewBox="0 0 42 14" fill="none" xmlns="http://www.w3.org/2000/svg">
<path d="M21.8274 0.78125C11.5796 0.781262 0.597656 2.63771 0.597656 6.0881C0.597656 8.27541 5.03503 12.8891 21.8274 12.8891C37.9005 12.8891 41.8554 7.72157 41.8554 5.81098C41.8554 3.19217 32.0751 0.781238 21.8274 0.78125Z" fill="#9B4041"/>
<path d="M21.5135 7.89653C11.1606 7.89653 6.91016 4.58844 6.91016 2.26727C14.5482 0.185671 27.5358 0.185455 35.4042 2.24444C35.4042 4.34996 31.2983 7.89653 21.5135 7.89653Z" fill="#F9FAEB"/>
<path d="M21.5143 6.43664C10.4977 6.43664 7.15625 8.67939 7.15625 11.1493C14.4905 13.6398 28.5646 13.6385 35.2941 11.1398C35.2941 8.89933 31.9264 6.43664 21.5143 6.43664Z" fill="#F9FAEB"/>
</svg>
