<svg width="43" height="13" viewBox="0 0 43 13" fill="none" xmlns="http://www.w3.org/2000/svg">
<path d="M22.372 0.216797C11.9952 0.216809 0.875 3.88676 0.875 7.33716C0.875 9.52446 5.36826 12.3246 22.372 12.3246C38.6475 12.3246 42.6523 9.24775 42.6523 7.33716C42.6523 4.71835 32.7489 0.216785 22.372 0.216797Z" fill="#9B4041"/>
<path d="M22.0536 7.33331C11.5703 7.33331 8.39062 4.62638 8.39062 2.30521C17.0064 -0.670053 26.9765 -0.669024 35.1663 2.30578C35.1663 4.41129 31.9616 7.33331 22.0536 7.33331Z" fill="#F9FAEB"/>
<path d="M22.0545 5.87187C10.8992 5.87187 7.51562 8.75233 7.51562 11.2223C19.9655 13.3714 32.0111 12.3533 36.0078 11.2217C36.0078 8.9812 32.5977 5.87187 22.0545 5.87187Z" fill="#F9FAEB"/>
</svg>
