<svg width="40" height="14" viewBox="0 0 40 14" fill="none" xmlns="http://www.w3.org/2000/svg">
<path d="M20.3545 0.978516C10.7441 0.978527 0.445312 3.54032 0.445312 6.99071C0.445312 9.17802 4.60667 13.0864 20.3545 13.0864C35.4277 13.0864 39.1367 8.90131 39.1367 6.99071C39.1367 4.37191 29.9648 0.978504 20.3545 0.978516Z" fill="#9B4041"/>
<path d="M19.9345 4.47883C9.60318 4.47883 10.1495 9.91491 10.1495 12.3848C18.9338 13.7066 20.9065 13.7369 28.948 12.5818C28.948 10.3413 29.6989 4.47883 19.9345 4.47883Z" fill="#E76562"/>
<path d="M20.06 6.07591C10.3511 6.07591 7.41797 4.84611 7.41797 2.52494C12.9105 0.306487 25.9402 0.330868 32.277 2.66049C32.277 4.766 29.2361 6.07591 20.06 6.07591Z" fill="#F9FAEB"/>
</svg>
