<svg width="78" height="105" viewBox="0 0 78 105" fill="none" xmlns="http://www.w3.org/2000/svg">
<g filter="url(#filter0_d_217_3)">
<path d="M52.0625 5.61696C52.097 4.21925 51.9072 2.16327 52.9679 1.12162C53.8107 0.29418 54.5381 0.106902 55.6878 0C57.0251 0.479373 57.4796 0.727702 58.4152 1.79798C58.788 3.13888 58.8413 4.27354 58.8169 5.65863C62.2138 5.6136 68.5564 4.62708 71.0958 7.17083C71.7792 7.85517 72.3093 8.74321 72.5821 9.67081C73.1156 11.4843 72.9519 13.7221 72.9628 15.5992L72.9943 26.5915L0.00151397 26.5789L0.040134 15.1161C0.048109 13.4789 -0.164701 11.4018 0.316315 9.84251C0.59376 8.94353 1.35223 7.9284 2.02506 7.27268C4.90655 4.46589 11.4683 5.59129 15.2182 5.65652C15.2111 3.99618 15.0234 2.46758 16.1492 1.13089C17.1225 0.532408 17.9234 0.017684 19.1331 0.302194C20.3532 0.589228 20.9778 1.36446 21.6124 2.35898C21.816 3.47387 21.8647 4.47135 21.8441 5.59844L52.0625 5.61696Z" fill="#BD4A46"/>
<path d="M15.0723 5.49646C15.0652 3.81732 14.8761 2.2714 16.0106 0.919565C16.9917 0.314306 17.7988 -0.206249 19.018 0.0814834C20.2478 0.37177 20.8772 1.15578 21.5169 2.16157C21.722 3.28909 21.7711 4.29786 21.7504 5.43773C21.7698 7.02877 22.1383 10.4594 21.1057 11.655C20.3967 12.4765 19.3467 12.9698 18.2663 12.9545C17.3779 12.9417 16.6473 12.577 16.0474 11.9232C14.6497 10.3994 15.0626 7.45228 15.0723 5.49646Z" fill="#FEFEFE"/>
<path d="M51.9174 5.55309C51.955 4.17127 51.7482 2.13867 52.9041 1.10886C53.8226 0.290835 54.6154 0.105686 55.8683 0C57.3257 0.473922 57.8211 0.719427 58.8407 1.77753C59.2469 3.10318 59.305 4.22494 59.2784 5.59428C59.2752 7.11674 59.6814 10.3859 58.6023 11.5784C57.7172 12.5562 56.6592 13.0148 55.2585 12.9486C54.1296 12.8953 53.4032 12.3344 52.6164 11.6583C51.5277 10.0302 51.9106 7.4184 51.9174 5.55309Z" fill="#FEFEFE"/>
<path d="M0.0898291 26.5918L72.9714 26.6044V99.9824H18.0531C5.14634 100.023 18.0531 99.9824 0.0454102 99.9824V73.2882L0.0898291 26.5918Z" fill="#FEFEFE"/>
</g>
<defs>
<filter id="filter0_d_217_3" x="0" y="0" width="77.9944" height="105" filterUnits="userSpaceOnUse" color-interpolation-filters="sRGB">
<feFlood flood-opacity="0" result="BackgroundImageFix"/>
<feColorMatrix in="SourceAlpha" type="matrix" values="0 0 0 0 0 0 0 0 0 0 0 0 0 0 0 0 0 0 127 0" result="hardAlpha"/>
<feOffset dx="5" dy="5"/>
<feComposite in2="hardAlpha" operator="out"/>
<feColorMatrix type="matrix" values="0 0 0 0 0 0 0 0 0 0 0 0 0 0 0 0 0 0 0.25 0"/>
<feBlend mode="normal" in2="BackgroundImageFix" result="effect1_dropShadow_217_3"/>
<feBlend mode="normal" in="SourceGraphic" in2="effect1_dropShadow_217_3" result="shape"/>
</filter>
</defs>
</svg>
