<svg width="132" height="108" viewBox="0 0 132 108" fill="none" xmlns="http://www.w3.org/2000/svg">
<g filter="url(#filter0_d_207_2)">
<path d="M17.3029 93.5529L33.6849 93.5508L33.6828 100.425L33.6832 101.701C33.6832 101.787 33.7107 102.057 33.6834 102.125C33.6618 102.179 33.4745 102.351 33.4246 102.395C33.2904 102.515 33.057 102.751 32.8968 102.825C32.7657 102.886 32.3307 102.86 32.1656 102.861L29.8451 102.865L18.1847 102.862C17.9157 102.858 17.7424 102.819 17.5573 102.633C17.4061 102.48 17.3029 102.351 17.273 102.139C17.1423 101.209 17.2435 100.145 17.2466 99.1989L17.3029 93.5529Z" fill="#0F0A14"/>
<path d="M91.8297 93.5508L108.924 93.5645C109.033 95.0502 108.921 96.6366 108.919 98.1298L108.911 100.673C108.908 101.066 108.946 101.514 108.883 101.901C108.843 102.149 108.765 102.367 108.588 102.552C108.372 102.778 108.166 102.832 107.858 102.847L98.9578 102.854L94.9595 102.848C94.2986 102.846 93.5925 102.899 92.9393 102.831C92.6362 102.8 92.3598 102.695 92.1372 102.484C92.0087 102.362 91.8912 102.212 91.8498 102.037C91.6821 101.325 91.8167 100.315 91.8178 99.5674L91.8297 93.5508Z" fill="#0F0A14"/>
<path d="M60.8668 0L101.722 0.055881L101.71 11.4486L60.8574 11.4648C61.0317 10.0931 60.8965 8.57697 60.8947 7.18803L60.8668 0Z" fill="#EFE2C8"/>
<path d="M20.8532 11.4616L20.8492 6.18844L20.8508 2.95377C20.8514 2.41641 20.791 1.77367 20.9134 1.25278C20.9734 0.996354 21.1691 0.754154 21.3504 0.577653C21.6139 0.320857 21.9339 0.106923 22.2992 0.0651844C23.52 -0.0748185 24.8784 0.0543291 26.1145 0.0539547L34.3723 0.0517071L60.906 0.0599437L60.9333 7.21039C60.9351 8.59207 61.0676 10.1003 60.8968 11.4648L20.8532 11.4616Z" fill="white"/>
<path d="M22.9017 11.1709L63.6003 11.174L63.6103 18.1103L43.8475 18.0881L37.8038 18.1081C36.8306 18.1128 35.7739 18.0363 34.814 18.153L20.8898 18.1415L16.7132 18.1337C15.8132 18.1332 14.8735 18.0795 13.989 18.263C12.4229 18.5877 11.0409 19.283 9.91236 20.4033C8.87748 21.4304 8.18499 22.5748 7.83765 23.9867C7.32701 26.0623 7.57535 28.5065 7.57847 30.6479L7.595 39.4371L7.58122 62.2984L7.59408 77.2852L63.4631 77.2485L63.7366 77.3896C63.8059 93.5314 63.7366 77.3896 63.8059 93.5314L34.3333 93.4854L18.3319 93.4876C16.3198 93.4919 14.1099 93.6734 12.1232 93.4039C9.98551 93.1142 8.16116 92.2897 6.30761 91.2397L4.207 89.4957C1.55553 86.9247 0.0671372 83.4542 0.0276452 79.7984L0.0276004 46.816L0.00463994 31.6091L0.00096828 27.0063C0.00280512 25.9206 -0.0276886 24.8071 0.147913 23.7329C0.633573 20.7605 2.07274 17.6949 4.22624 15.5511C6.56601 13.2217 9.72206 11.7437 12.9973 11.2845C14.3204 11.0991 15.6802 11.1573 17.0147 11.1565L22.9017 11.1709Z" fill="#5E93B7"/>
<path d="M103.088 11L114.32 11.0748C116.643 11.6453 118.818 12.3873 120.767 13.7738C122.222 14.8084 123.472 16.183 124.539 17.5844C125.646 19.7154 126.486 21.6642 126.723 24.0656C126.837 25.2293 126.781 26.4557 126.794 27.6276L126.843 34.448L126.892 54.9951L126.865 83.3448L126.886 92.301L126.845 80.7204C126.781 81.9667 126.477 83.207 126.07 84.3884C124.834 87.9754 122.002 91.0358 118.508 92.7117C115.465 94.1706 112.448 93.9902 109.148 93.9953L91.5462 93.9816C90.4542 93.8412 89.2892 93.918 88.1846 93.914L82.114 93.9012L61.2162 93.8604C61.2198 70.8123 61.2162 93.8604 61.1984 77.6028L60.9164 77.4609L61.2183 77.4672L119.371 77.4831L119.372 31.058L119.358 27.1732C119.352 26.3603 119.383 25.5084 119.245 24.7051C118.97 23.0992 118.047 21.4085 116.849 20.2726C115.62 19.1082 113.863 18.3457 112.164 18.1053C110.583 17.8814 108.722 18.0415 107.112 18.0392L96.4169 18.0351H60.8575C60.8587 11 60.8572 18.0351 60.8574 11L103.008 11.0071L103.088 11Z" fill="#2C7996"/>
<path d="M62.7099 77.7493L6.53154 77.7866L6.51861 62.5457L6.53246 39.2967L6.51583 30.3584C6.51269 28.1807 6.26298 25.695 6.77645 23.5843C7.12572 22.1485 7.82204 20.9847 8.86264 19.9401C9.99744 18.8009 11.3871 18.0937 12.9619 17.7635C13.8512 17.577 14.7961 17.6315 15.7012 17.632L19.9009 17.64L33.9021 17.6516L62.9182 17.6668L97.3361 17.6465L107.767 17.6505C109.338 17.6529 111.153 17.491 112.696 17.7175C114.352 17.9606 116.066 18.7317 117.265 19.9094C118.434 21.0582 119.334 22.7682 119.602 24.3924C119.736 25.2049 119.707 26.0665 119.712 26.8886L119.726 30.8177L119.725 77.7717L63.0043 77.7556L62.7099 77.7493Z" fill="#0F0A14"/>
</g>
<defs>
<filter id="filter0_d_207_2" x="0" y="0" width="131.892" height="107.866" filterUnits="userSpaceOnUse" color-interpolation-filters="sRGB">
<feFlood flood-opacity="0" result="BackgroundImageFix"/>
<feColorMatrix in="SourceAlpha" type="matrix" values="0 0 0 0 0 0 0 0 0 0 0 0 0 0 0 0 0 0 127 0" result="hardAlpha"/>
<feOffset dx="5" dy="5"/>
<feComposite in2="hardAlpha" operator="out"/>
<feColorMatrix type="matrix" values="0 0 0 0 0 0 0 0 0 0 0 0 0 0 0 0 0 0 0.25 0"/>
<feBlend mode="normal" in2="BackgroundImageFix" result="effect1_dropShadow_207_2"/>
<feBlend mode="normal" in="SourceGraphic" in2="effect1_dropShadow_207_2" result="shape"/>
</filter>
</defs>
</svg>
