<svg width="67" height="105" viewBox="0 0 67 105" fill="none" xmlns="http://www.w3.org/2000/svg">
<g filter="url(#filter0_d_170_16282)">
<path d="M6.52223 0.16662C8.94527 -0.111532 11.5801 0.107722 14.0225 0.105357L29.0056 0.0946119L46.6931 0.0866613C49.5076 0.0868762 52.4891 -0.131521 55.29 0.124276C56.2547 0.212407 57.2175 0.659086 58.0619 1.17433C59.671 2.15582 60.9696 4.15705 61.4627 6.09745C62.0081 8.24635 61.7635 10.8353 61.7655 13.0523L61.7693 24.1416L61.7771 65.7855L61.8489 82.1356C61.878 85.2527 62.0527 88.4826 61.8916 91.5896C61.814 93.1136 61.3967 94.4508 60.7173 95.7674C59.5701 97.9922 57.7028 99.2007 55.5152 99.8393C51.6835 100.119 47.7839 99.952 43.9484 99.9341L27.3538 99.9515L13.4775 99.9159C11.2751 99.9051 8.85287 100.107 6.67052 99.8043C5.53403 99.6465 4.30281 99.0275 3.36818 98.3061C1.65111 96.9807 0.485498 94.8201 0.157845 92.5377C-0.054702 91.0576 0.0155741 89.5411 0.0194562 88.0471L0.0417766 81.3027L0.0345971 60.2771L0.0303202 25.3772L0.0295501 14.0953C0.031103 12.0403 -0.0630471 9.91591 0.076904 7.86803C0.184051 6.30036 0.597698 4.82749 1.44303 3.5498C2.74433 1.58275 4.36997 0.554184 6.52223 0.16662Z" fill="#0F0A14"/>
<path d="M5.3157 68.5071L5.29237 11.8051C5.29123 9.04235 7.5309 6.80232 10.2936 6.80301L37.5942 6.80982L50.2384 6.80763C53.0006 6.80715 55.2399 9.04659 55.2392 11.8088L55.2211 88.8475C55.2204 91.6071 52.9841 93.8445 50.2244 93.8463L10.2909 93.8732C7.52652 93.8751 5.28523 91.6335 5.28749 88.8691L5.29777 76.3021C5.29983 73.8002 5.12231 70.9765 5.3157 68.5071Z" fill="#5E93B7"/>
<path d="M11.9438 44.2178L23.1413 44.2178L23.0776 54.4219L11.9439 54.414C11.949 50.0419 11.9439 54.414 11.9438 44.2178Z" fill="#C7DFE0"/>
<path d="M38.8171 59.9267L46.8923 59.9201C47.7658 59.9205 49.2084 59.7467 50.0145 60.0156L49.9704 70.044L38.8218 70.0693L38.8171 59.9267Z" fill="#C7DFE0"/>
<path d="M38.8171 44.2314L49.8132 44.2178C50.2497 45.039 49.8429 52.8655 49.8269 54.4219L38.8263 54.4L38.8171 44.2314Z" fill="#C7DFE0"/>
<path d="M38.8171 29.252L50.0145 29.2654L49.9845 39.456L38.8472 39.4333L38.8171 29.252Z" fill="#C7DFE0"/>
<path d="M25.3898 44.8975L36.5785 44.9177L36.5631 54.4213L25.3811 54.4106L25.3898 44.8975Z" fill="#C7DFE0"/>
<path d="M25.4017 29.252L36.5785 29.2754L36.562 39.456L25.3811 39.4369L25.4017 29.252Z" fill="#C7DFE0"/>
<path d="M25.3937 59.8652L36.5785 59.8814L36.5645 70.0693L25.3811 70.0682L25.3937 59.8652Z" fill="#C7DFE0"/>
<path d="M11.9438 59.8652L23.1413 59.8682L23.1065 69.9995L11.9541 70.0693L11.9438 59.8652Z" fill="#C7DFE0"/>
<path d="M23.0306 39.456L11.9271 39.4483L11.944 29.252H23.0306C23.0287 31.9545 23.0306 29.252 23.0306 39.456Z" fill="#433360"/>
</g>
<defs>
<filter id="filter0_d_170_16282" x="0" y="0" width="66.959" height="105" filterUnits="userSpaceOnUse" color-interpolation-filters="sRGB">
<feFlood flood-opacity="0" result="BackgroundImageFix"/>
<feColorMatrix in="SourceAlpha" type="matrix" values="0 0 0 0 0 0 0 0 0 0 0 0 0 0 0 0 0 0 127 0" result="hardAlpha"/>
<feOffset dx="5" dy="5"/>
<feComposite in2="hardAlpha" operator="out"/>
<feColorMatrix type="matrix" values="0 0 0 0 0 0 0 0 0 0 0 0 0 0 0 0 0 0 0.25 0"/>
<feBlend mode="normal" in2="BackgroundImageFix" result="effect1_dropShadow_170_16282"/>
<feBlend mode="normal" in="SourceGraphic" in2="effect1_dropShadow_170_16282" result="shape"/>
</filter>
</defs>
</svg>
