<svg width="85" height="19" viewBox="0 0 85 19" fill="none" xmlns="http://www.w3.org/2000/svg">
<path d="M11.6138 2.60984C9.64713 2.59868 8.6586 2.63823 6.72785 3.45064C5.0825 4.14286 3.66662 5.14252 2.35023 6.55494L1.82215 7.15309C1.43017 7.6181 0.921605 8.14814 0.377492 7.59206C-0.815483 6.37263 1.13708 4.78113 1.8489 4.10153C4.29846 1.76289 7.07449 0.565321 10.181 0.315102L11.3591 0.302734C11.8513 0.307159 12.3429 0.365025 12.8308 0.4468L14.3807 0.797511C17.0187 1.54407 19.5294 3.31928 21.4126 5.69351C22.3519 6.87759 21.3633 8.13658 20.5586 7.76127C20.2849 7.63355 20.0404 7.2631 19.8295 7.02052L19.0838 6.19379C17.0569 4.0699 14.2782 2.75648 11.6138 2.60984Z" fill="black"/>
<path d="M11.4134 7.86962C9.06268 7.85223 7.31935 8.36221 5.39399 10.2415C5.01876 10.6078 4.61488 11.3606 4.13871 11.4436C3.16522 11.6136 2.72691 10.3507 3.33135 9.5031C4.99589 7.16915 7.94179 5.78148 10.3918 5.56883L11.3288 5.56641C11.678 5.57029 12.0198 5.60992 12.3649 5.67552L13.3436 5.90758C15.2001 6.46351 17.0466 7.6666 18.3802 9.37749C19.213 10.446 18.3878 11.8943 17.4225 11.3673C17.215 11.2541 17.0699 11.054 16.9107 10.8619C15.4278 9.07263 13.4954 8.00195 11.4134 7.86962Z" fill="black"/>
<path d="M11.4752 13.2257C10.2995 13.062 8.96245 13.435 8.01689 14.332C7.67886 14.6528 7.40371 15.143 6.95449 15.2279C6.11256 15.387 5.64559 14.1306 6.16014 13.3799C7.13395 11.959 8.89812 11.0585 10.36 10.9068L11.2844 10.8965C12.7871 10.9139 14.5076 11.9393 15.5292 13.2345C16.3227 14.2406 15.4549 15.774 14.472 15.132C14.2382 14.9793 14.0698 14.6446 13.8716 14.4293C13.2406 13.7444 12.2985 13.3072 11.4752 13.2257Z" fill="black"/>
<ellipse cx="10.8885" cy="16.7852" rx="1.63462" ry="1.5" fill="black"/>
<rect x="57.6016" width="3.5289" height="18.2852" rx="1.76445" fill="#C8C8C8"/>
<rect x="51.8906" y="3.52344" width="3.5289" height="14.7613" rx="1.76445" fill="black"/>
<rect x="46.1875" y="7.52734" width="3.5289" height="10.7355" rx="1.76445" fill="black"/>
<rect x="40.4727" y="10.9043" width="3.5289" height="7.38063" rx="1.76445" fill="black"/>
<rect x="34.7695" y="14.5723" width="3.5289" height="3.69032" rx="1.76445" fill="black"/>
<path d="M81.2278 1.83986L76.8895 1.84259L76.887 1.21332C76.8869 1.07486 76.8665 0.895144 76.9167 0.764248C77.0847 0.326061 77.3979 0.0589526 77.9001 0.00717635L80.9299 0.00401754C81.0607 0.00397642 81.2067 -0.00976478 81.3347 0.0138151C81.8586 0.110303 82.204 0.536852 82.217 1.04484L82.2184 1.823C82.2184 1.83844 82.2212 1.8316 82.2097 1.84322L81.2278 1.83986Z" fill="#C8C8C8"/>
<path d="M83.8247 18.2711C83.7001 18.2917 83.57 18.2849 83.4438 18.2849L75.9873 18.2838C75.2389 18.2831 74.6102 18.3023 74.2292 17.4973C74.0871 17.1971 74.1092 16.9154 74.1087 16.5913L74.1082 4.20163C74.1082 3.87455 74.0901 3.53789 74.1136 3.21204C74.1569 2.61189 74.6963 2.14198 75.2949 2.0517C75.3965 2.03739 75.521 2.05017 75.6246 2.05025L83.3852 2.04976C83.5454 2.04972 83.7201 2.03653 83.8786 2.05391C84.4031 2.11151 84.8687 2.59257 84.966 3.07433C85.0088 3.2864 84.9926 3.51154 84.9923 3.72693L84.9913 16.1091C84.9912 16.4382 85.0113 16.7799 84.9869 17.1073C84.9442 17.6821 84.392 18.1719 83.8247 18.2711Z" fill="black"/>
<path d="M74.1087 4.16415L74.1082 4.15671C74.1082 3.82962 74.0901 3.49297 74.1136 3.16712C74.1569 2.56697 74.6963 2.09706 75.2949 2.00678C75.3965 1.99247 75.521 2.00525 75.6246 2.00532L83.3852 2.00484C83.5454 2.0048 83.7201 1.99161 83.8786 2.00899C84.4031 2.06659 84.8687 2.54765 84.966 3.02941C85.0088 3.24147 84.9964 3.24511 84.9961 3.46049V4.15671C74.1383 4.15671 84.7971 4.15505 74.1087 4.16415Z" fill="#C8C8C8"/>
</svg>
