<svg width="81" height="81" viewBox="0 0 81 81" fill="none" xmlns="http://www.w3.org/2000/svg">
<mask id="path-1-inside-1_1309_44144" fill="white">
<path fill-rule="evenodd" clip-rule="evenodd" d="M10 0C4.47715 0 0 4.47714 0 9.99999V34.1552C0 38.3543 2.58805 41.9488 6.25603 43.4308L6.25638 54L12.5325 44.1552H44C49.5228 44.1552 54 39.6781 54 34.1552V10C54 4.47715 49.5228 0 44 0H10Z"/>
</mask>
<path fill-rule="evenodd" clip-rule="evenodd" d="M10 0C4.47715 0 0 4.47714 0 9.99999V34.1552C0 38.3543 2.58805 41.9488 6.25603 43.4308L6.25638 54L12.5325 44.1552H44C49.5228 44.1552 54 39.6781 54 34.1552V10C54 4.47715 49.5228 0 44 0H10Z" fill="white"/>
<path d="M6.25603 43.4308L8.25603 43.4307L8.25599 42.0817L7.00525 41.5764L6.25603 43.4308ZM6.25638 54L4.25638 54.0001L4.2566 60.8573L7.94282 55.0751L6.25638 54ZM12.5325 44.1552V42.1552H11.4357L10.8461 43.0801L12.5325 44.1552ZM2 9.99999C2 5.58172 5.58172 2 10 2V-2C3.37259 -2 -2 3.37257 -2 9.99999H2ZM2 34.1552V9.99999H-2V34.1552H2ZM7.00525 41.5764C4.06719 40.3894 2 37.5113 2 34.1552H-2C-2 39.1972 1.10891 43.5083 5.50682 45.2851L7.00525 41.5764ZM8.25638 53.9999L8.25603 43.4307L4.25603 43.4308L4.25638 54.0001L8.25638 53.9999ZM10.8461 43.0801L4.56993 52.9249L7.94282 55.0751L14.219 45.2304L10.8461 43.0801ZM44 42.1552H12.5325V46.1552H44V42.1552ZM52 34.1552C52 38.5735 48.4183 42.1552 44 42.1552V46.1552C50.6274 46.1552 56 40.7827 56 34.1552H52ZM52 10V34.1552H56V10H52ZM44 2C48.4183 2 52 5.58172 52 10H56C56 3.37258 50.6274 -2 44 -2V2ZM10 2H44V-2H10V2Z" fill="black" mask="url(#path-1-inside-1_1309_44144)"/>
<mask id="path-3-inside-2_1309_44144" fill="white">
<path fill-rule="evenodd" clip-rule="evenodd" d="M71 27C76.5228 27 81 31.4772 81 37V61.1549C81 65.354 78.412 68.9485 74.744 70.4305L74.7436 81L68.4672 71.1549H37C31.4772 71.1549 27 66.6778 27 61.1549V37C27 31.4772 31.4772 27 37 27H71Z"/>
</mask>
<path fill-rule="evenodd" clip-rule="evenodd" d="M71 27C76.5228 27 81 31.4772 81 37V61.1549C81 65.354 78.412 68.9485 74.744 70.4305L74.7436 81L68.4672 71.1549H37C31.4772 71.1549 27 66.6778 27 61.1549V37C27 31.4772 31.4772 27 37 27H71Z" fill="white"/>
<path d="M74.744 70.4305L72.744 70.4304L72.744 69.0815L73.9948 68.5761L74.744 70.4305ZM74.7436 81L76.7436 81.0001L76.7434 87.8573L73.0572 82.0751L74.7436 81ZM68.4672 71.1549V69.1549H69.5641L70.1537 70.0798L68.4672 71.1549ZM79 37C79 32.5817 75.4183 29 71 29V25C77.6274 25 83 30.3726 83 37H79ZM79 61.1549V37H83V61.1549H79ZM73.9948 68.5761C76.9328 67.3891 79 64.511 79 61.1549H83C83 66.1969 79.8911 70.508 75.4932 72.2849L73.9948 68.5761ZM72.7436 80.9999L72.744 70.4304L76.744 70.4306L76.7436 81.0001L72.7436 80.9999ZM70.1537 70.0798L76.4301 79.9249L73.0572 82.0751L66.7808 72.2301L70.1537 70.0798ZM37 69.1549H68.4672V73.1549H37V69.1549ZM29 61.1549C29 65.5732 32.5817 69.1549 37 69.1549V73.1549C30.3726 73.1549 25 67.7824 25 61.1549H29ZM29 37V61.1549H25V37H29ZM37 29C32.5817 29 29 32.5817 29 37H25C25 30.3726 30.3726 25 37 25V29ZM71 29H37V25H71V29Z" fill="black" mask="url(#path-3-inside-2_1309_44144)"/>
</svg>
