<svg width="68" height="82" viewBox="0 0 68 82" fill="none" xmlns="http://www.w3.org/2000/svg">
<path d="M43.9101 25.534L43.6138 25.3253C41.907 24.024 40.3552 22.4029 38.9005 20.8239C38.4746 20.3618 37.9836 19.893 37.6432 19.3621C37.482 19.1105 37.3779 18.8212 37.3438 18.5226C37.2792 17.9564 37.4951 17.2085 37.6316 16.6531C38.4942 13.1428 40.3005 9.74892 42.5677 6.96878C45.3367 3.57332 49.3257 0.560938 53.7803 0.167114C56.7707 -0.0972589 59.612 0.834066 61.9074 2.79502C60.2886 3.17681 58.791 4.16525 57.4809 5.16782C53.6727 8.08199 50.5616 11.9812 48.0529 16.0697C46.6894 18.2917 45.516 20.7305 44.6275 23.1874C44.3521 23.9486 44.0621 24.736 43.9101 25.534Z" fill="#F37C48"/>
<path d="M5.41793 77.1556C4.75262 76.8147 4.07966 76.2171 3.56459 75.6766C1.41999 73.4258 0.648803 70.3528 0.723675 67.2906C0.857031 61.8331 3.61944 56.3615 7.49089 52.656C8.95457 51.255 10.5653 50.0722 12.3864 49.1915C13.2743 48.7621 14.1776 48.3765 15.1796 48.4125C15.3296 48.4179 15.4712 48.5248 15.5905 48.615C16.0932 48.995 16.5455 49.5222 16.9969 49.9681L20.8145 53.7868C19.5251 54.9417 18.2219 56.0249 17.0001 57.2617C14.1 60.1974 11.5429 63.4437 9.43472 67.0095C7.82816 69.7267 6.42404 72.6317 5.67464 75.7233C5.56042 76.1948 5.50183 76.678 5.41793 77.1556Z" fill="#F37C48"/>
<path d="M62.1692 2.99414C65.3949 5.42444 66.7671 9.62218 67.3357 13.502C67.7253 16.1598 67.6931 18.8257 67.4554 21.4968C67.227 24.064 66.7914 26.6651 66.1393 29.1576C65.5656 31.3512 64.8096 33.5067 64.0125 35.6259C61.0669 43.4576 56.9318 50.7315 52.0031 57.4466C50.2871 59.7847 48.3633 62.0082 46.3896 64.1246C41.4018 69.4736 35.799 74.2792 29.2829 77.6042C26.2289 79.1627 22.9437 80.3974 19.547 80.8868C15.0649 81.5327 10.2798 80.9301 6.57235 78.0949L5.82422 77.4466C6.68 77.6638 7.47081 78.0117 8.34886 78.181C13.1084 79.0983 18.0433 78.1046 22.4723 76.2528C28.1824 73.8651 33.2245 70.3184 37.86 66.2141C45.5081 59.4426 51.8997 51.3553 56.6706 42.2601C57.7637 40.1763 58.8097 38.0689 59.7054 35.8885C60.8748 33.0422 61.8653 30.1616 62.6843 27.1916C63.1261 25.5899 63.5429 23.9766 63.8494 22.3419C64.5171 18.7815 64.7518 15.0284 64.4146 11.4182C64.275 9.92287 64.0596 8.4011 63.6778 6.9471C63.4367 6.02881 63.1356 5.08276 62.7561 4.21233C62.5752 3.79741 62.3387 3.41244 62.1692 2.99414Z" fill="#BD4A46"/>
<path d="M61.9138 2.79688L62.1733 2.99508C62.3428 3.41338 62.5793 3.79835 62.7602 4.21327C63.1397 5.0837 63.4408 6.02975 63.6819 6.94804C64.0637 8.40204 64.2791 9.9238 64.4187 11.4191C64.7559 15.0294 64.5212 18.7824 63.8535 22.3429C63.547 23.9776 63.1302 25.5909 62.6884 27.1925C61.8694 30.1625 60.8789 33.0432 59.7095 35.8895C58.8138 38.0698 57.7678 40.1773 56.6747 42.261C51.9039 51.3563 45.5122 59.4436 37.8641 66.2151C33.2286 70.3193 28.1865 73.8661 22.4764 76.2537C18.0474 78.1055 13.1125 79.0992 8.35296 78.1819C7.47491 78.0127 6.6841 77.6647 5.82832 77.4475L5.42188 77.1579C5.50577 76.6803 5.56436 76.1971 5.67858 75.7255C6.42798 72.634 7.8321 69.7289 9.43866 67.0117C11.5468 63.4459 14.104 60.1997 17.004 57.2639C18.2258 56.0271 19.5291 54.9439 20.8185 53.789L25.3681 58.3099L26.9602 59.9097C27.2572 60.2074 27.5631 60.5524 27.8988 60.8039C28.2557 61.0714 28.7217 61.1388 29.1521 61.0649C29.6332 60.9824 30.0247 60.7309 30.4256 60.4663C30.9843 60.0977 31.5128 59.6863 32.0396 59.2731C36.815 55.5272 41.0057 50.9896 44.5559 46.0458C47.5463 41.8817 50.2246 37.4634 52.3173 32.7629C52.7271 31.842 53.4775 30.5622 53.2999 29.5149C53.1197 28.4523 52.2092 27.5045 51.1391 27.3703C50.6581 27.3099 50.1868 27.4108 49.7104 27.456C49.1255 27.5115 48.5268 27.5011 47.9474 27.3985C46.4704 27.1367 45.1343 26.394 43.9165 25.5358C44.0685 24.7379 44.3586 23.9504 44.6339 23.1892C45.5225 20.7324 46.6959 18.2936 48.0594 16.0715C50.568 11.9831 53.6792 8.08384 57.4873 5.16967C58.7974 4.1671 60.2951 3.17866 61.9138 2.79688Z" fill="#EE4819"/>
</svg>
