<?xml version="1.0" encoding="utf-8"?>
<!-- Generator: Adobe Illustrator 28.1.0, SVG Export Plug-In . SVG Version: 6.00 Build 0)  -->
<svg version="1.1" id="Слой_1" xmlns="http://www.w3.org/2000/svg" xmlns:xlink="http://www.w3.org/1999/xlink" x="0px" y="0px"
	 width="102px" height="102px" viewBox="0 0 102 102" style="enable-background:new 0 0 102 102;" xml:space="preserve">
<style type="text/css">
	.st0{fill:#BD4A46;}
	.st1{fill:#AA3632;}
	.st2{fill:#FAA073;}
</style>
<path class="st0" d="M0.5,25.2l-0.1-5.6c0.5,0.3,0.9,0.7,1.3,1.1l2.8,2.5l6.5,5.9L31.5,48l6,5.4c0.7,0.6,1.3,1.3,2.1,1.9
	c0.7,0.8,1.5,1.4,2.2,2.1c0.4,0.3,0.7,0.8,1.1,1.1l0.5,1.6l2,7.4C38.6,61.3,45.3,67.5,0.5,25.2z"/>
<path class="st0" d="M36.4,33.1c2.5,0.8,4.9,1.7,7.3,2.7c2.7,1.1,5.4,2.4,7.9,3.9c6.8,4,12.8,9.2,17.6,15.3c2,2.6,3.9,5.3,5.4,8.2
	c2.7,5.1,4.5,10.6,5.3,16.3l0.4,4.4c0,0.2,0.1,0.3,0.2,0.5c0.1,1.8-0.1,3.6-0.2,5.5c0,0.3,0,0.8-0.1,1.1l16.6-5.9l4-1.4
	c-0.2,0.6-0.7,1.2-1,1.7l-2.7,4.9l-0.7,1.3c-0.1,0.2-0.2,0.4-0.3,0.5c-0.2,0.2-21.3,7.7-23.3,8.3c3.7-10.6,1.8-22.9-3-32.9
	C65,57.4,56.5,49,46.3,43.9c-2.6-1.3-5.2-2.4-7.9-3.3c-0.1-0.2-0.1-0.4-0.2-0.6l-0.3-1.1L36.4,33.1z"/>
<path class="st1" d="M100.9,83.7c-0.2,0.6-0.7,1.2-1,1.7c-1.2,0.1-2.4,0.8-3.5,1.2l-6,2.2l-10.2,3.7c0-0.4-0.1-1.2,0.2-1.5l16.6-5.9
	L100.9,83.7z"/>
<path class="st2" d="M100.8,83l-0.2-1.9l-0.5-5.1c-0.3-2.3-0.8-4.6-1.4-6.8l-1-3.6c-1.2-3.8-2.7-7.7-4.6-11.2c-1.1-2-2.2-4.1-3.4-6
	c-8.6-13.5-21.3-24.5-35.9-31c-2.4-1.1-4.9-2.1-7.4-2.9L49,6.3l1.1-3.4c0.2-0.6,0.4-1.2,0.5-1.8l0-0.2c-0.4,0.1-0.8,0.2-1.1,0.4
	l-2.3,0.8l-9.8,3.6L0.3,19.6c0.5,0.3,0.9,0.7,1.3,1.1l2.8,2.5l6.5,5.9L31.5,48l6,5.4c0.7,0.6,1.3,1.3,2.1,2c0.7,0.8,1.5,1.4,2.2,2.1
	c0.4,0.3,0.7,0.8,1.1,1.1l-0.1-0.5c-0.3-1.6-0.8-3.1-1.2-4.7L39.5,45l-0.7-2.8c-0.1-0.5-0.3-1.1-0.3-1.6c-0.1-0.2-0.2-0.4-0.2-0.6
	l-0.3-1l-1.5-5.9c2.5,0.8,4.9,1.7,7.3,2.7c2.7,1.1,5.4,2.4,7.9,3.9c6.8,4,12.8,9.2,17.6,15.3c2,2.6,3.9,5.3,5.4,8.2
	c2.7,5.1,4.5,10.6,5.3,16.3l0.4,4.4c0,0.2,0.1,0.3,0.2,0.5c0.1,1.8-0.1,3.6-0.2,5.5c0,0.3,0,0.8-0.1,1.1l16.6-5.9l4-1.4
	C100.8,83.5,100.8,83.2,100.8,83z"/>
<path class="st1" d="M36.1,31.5c11,3.1,21.5,9.2,29.4,17.5c3.5,3.7,6.5,7.9,9,12.3c3.9,6.9,6.1,15.2,6.1,23.1
	c-0.1-0.2-0.2-0.3-0.2-0.5L80,79.5c-0.8-5.7-2.6-11.2-5.3-16.3c-1.6-2.9-3.4-5.6-5.4-8.2c-4.9-6.1-10.9-11.4-17.6-15.3
	c-2.5-1.5-5.2-2.7-7.9-3.9c-2.4-1-4.9-2-7.3-2.7C36.3,32.6,36.1,32,36.1,31.5z"/>
</svg>
