<svg width="116" height="120" viewBox="0 0 116 120" fill="none" xmlns="http://www.w3.org/2000/svg">
<g filter="url(#filter0_d_342_732)">
<path d="M54.2363 26.931L54.2961 26.7793C54.2602 26.7469 54.231 26.7051 54.1884 26.6822C54.0935 26.6311 53.7579 26.6486 53.6299 26.6428L51.6385 26.5695L30.5143 25.6483L0.000260333 23.2274L0.830857 25.3358C1.31825 25.7193 1.67916 26.3977 2.0666 26.8948L5.40138 31.1887L20.326 50.4386C21.1934 50.0084 22.0332 49.2785 22.8302 48.7195L28.1686 45.0249L28.2741 45.1306L33.6692 48.5276L41.8965 53.6705L72.1913 72.3306L89.3657 82.8558L93.3034 85.2956C93.9631 85.7006 94.7836 86.0893 95.3618 86.5901L95.4313 86.5843C95.4673 86.489 95.4913 86.4232 95.5646 86.3429C95.8371 86.0438 96.3595 85.765 96.697 85.5236L99.47 83.5106L107.451 77.4966L47.8274 42.7525L54.2363 26.931Z" fill="#FAA073"/>
<path d="M54.2823 26.7852C52.7862 27.6034 51.3083 29.1998 49.9136 30.1822L41.872 35.8666L39.6821 37.4581C39.3353 37.7141 38.9233 38.082 38.5348 38.2514L47.827 42.7587L54.2823 26.7852Z" fill="#AA3632"/>
<path d="M0.00026028 23.2278L4.00672 33.3501L14.0487 58.1932L16.6217 64.5146C16.9567 65.3282 17.3 66.5283 17.8152 67.2303L17.8995 67.4917L18.0459 67.5018L27.1171 60.9556L30.0607 58.8269C30.6295 58.4154 31.2529 58.0194 31.7544 57.5268L27.5305 44.3605L27.4257 44.2537L22.1637 47.9439C21.3781 48.5023 20.5511 49.2324 19.6952 49.6608C0.00025969 23.2278 19.6952 49.6608 0.00026028 23.2278Z" fill="#BD4A46"/>
<path d="M27.4162 44.2295C19.6947 49.6409 27.4162 44.2295 19.6947 49.6409C17.8228 67.2275 19.6947 49.6409 17.8228 67.2275L17.9066 67.4888L18.048 67.5002C22.2833 64.3636 27.8582 61.4328 31.5924 57.6469L27.4162 44.2295Z" fill="#AA3632"/>
<path d="M27.417 44.2408C31.6046 57.6408 27.417 44.2408 31.6046 57.6408L38.8823 61.9802L51.7819 69.9882L98.8336 100.272L111.003 90.7508C107.337 77.0697 111.003 90.7508 107.337 77.0697L95.0876 86.2919C94.5018 85.7827 93.6707 85.3873 93.0025 84.9753L89.0136 82.4938L71.6161 71.7883L40.9278 52.8088L32.5936 47.578L27.417 44.2408Z" fill="#BD4A46"/>
</g>
<defs>
<filter id="filter0_d_342_732" x="0.000244141" y="23.2275" width="116.002" height="82.0449" filterUnits="userSpaceOnUse" color-interpolation-filters="sRGB">
<feFlood flood-opacity="0" result="BackgroundImageFix"/>
<feColorMatrix in="SourceAlpha" type="matrix" values="0 0 0 0 0 0 0 0 0 0 0 0 0 0 0 0 0 0 127 0" result="hardAlpha"/>
<feOffset dx="5" dy="5"/>
<feComposite in2="hardAlpha" operator="out"/>
<feColorMatrix type="matrix" values="0 0 0 0 0 0 0 0 0 0 0 0 0 0 0 0 0 0 0.25 0"/>
<feBlend mode="normal" in2="BackgroundImageFix" result="effect1_dropShadow_342_732"/>
<feBlend mode="normal" in="SourceGraphic" in2="effect1_dropShadow_342_732" result="shape"/>
</filter>
</defs>
</svg>
