<svg width="131" height="134" viewBox="0 0 131 134" fill="none" xmlns="http://www.w3.org/2000/svg">
<g filter="url(#filter0_d_233_7228)">
<path d="M64.9979 30.0089L64.9313 29.8397C64.9712 29.8036 65.0038 29.7571 65.0512 29.7316C65.157 29.6747 65.5309 29.6941 65.6736 29.6877L67.8926 29.606L91.4309 28.5795L125.432 25.8819L124.507 28.2313C123.964 28.6587 123.562 29.4146 123.13 29.9685L119.414 34.7531L102.784 56.203C101.817 55.7237 100.881 54.9104 99.9932 54.2875L94.0447 50.1706L93.9271 50.2883L87.9155 54.0736L78.748 59.8043L44.9909 80.5969L25.8536 92.3251L21.4659 95.0437C20.7309 95.495 19.8166 95.9281 19.1723 96.4861L19.0949 96.4796C19.0547 96.3734 19.028 96.3001 18.9463 96.2106C18.6427 95.8774 18.0606 95.5667 17.6846 95.2977L14.5946 93.0547L5.70141 86.3533L72.1392 47.6385L64.9979 30.0089Z" fill="#FAA073"/>
<path d="M64.9465 29.8467C66.6136 30.7584 68.2604 32.5372 69.8146 33.632L78.7752 39.966L81.2154 41.7394C81.6018 42.0246 82.0609 42.4346 82.4938 42.6234L72.1396 47.6457L64.9465 29.8467Z" fill="#AA3632"/>
<path d="M125.432 25.8823L120.968 37.1614L109.778 64.8437L106.911 71.8875C106.538 72.7941 106.155 74.1314 105.581 74.9135L105.487 75.2049L105.324 75.2161L95.2164 67.9217L91.9364 65.5498C91.3026 65.0913 90.608 64.65 90.0492 64.1012L94.7557 49.4301L94.8726 49.3111L100.736 53.4231C101.611 54.0453 102.533 54.8587 103.487 55.3361C125.432 25.8823 103.487 55.3361 125.432 25.8823Z" fill="#BD4A46"/>
<path d="M94.8832 49.2842C103.487 55.3141 94.8832 49.2842 103.487 55.3141C105.573 74.9106 103.487 55.3141 105.573 74.9106L105.48 75.2017L105.322 75.2144C100.603 71.7194 94.3907 68.4536 90.2297 64.2351L94.8832 49.2842Z" fill="#AA3632"/>
<path d="M94.8822 49.2963C90.216 64.2278 94.8822 49.2963 90.216 64.2278L82.1066 69.0631L67.7328 77.9863L15.3037 111.731L1.74392 101.122C5.82863 85.8771 1.74395 101.122 5.8287 85.8771L19.4779 96.1532C20.1306 95.5859 21.0567 95.1452 21.8012 94.6862L26.246 91.9211L45.6318 79.9921L79.8274 58.8435L89.114 53.0149L94.8822 49.2963Z" fill="#BD4A46"/>
</g>
<defs>
<filter id="filter0_d_233_7228" x="1.7439" y="25.8818" width="128.688" height="90.8496" filterUnits="userSpaceOnUse" color-interpolation-filters="sRGB">
<feFlood flood-opacity="0" result="BackgroundImageFix"/>
<feColorMatrix in="SourceAlpha" type="matrix" values="0 0 0 0 0 0 0 0 0 0 0 0 0 0 0 0 0 0 127 0" result="hardAlpha"/>
<feOffset dx="5" dy="5"/>
<feComposite in2="hardAlpha" operator="out"/>
<feColorMatrix type="matrix" values="0 0 0 0 0 0 0 0 0 0 0 0 0 0 0 0 0 0 0.25 0"/>
<feBlend mode="normal" in2="BackgroundImageFix" result="effect1_dropShadow_233_7228"/>
<feBlend mode="normal" in="SourceGraphic" in2="effect1_dropShadow_233_7228" result="shape"/>
</filter>
</defs>
</svg>
