<svg width="323" height="325" viewBox="0 0 323 325" fill="none" xmlns="http://www.w3.org/2000/svg">
<g filter="url(#filter0_d_228_11)">
<path d="M5.65209 106.406L11.8596 92.1932C31.7303 50.4145 64.6651 22.5911 106.188 8.89298C155.802 -7.47593 199.963 -1.94326 242.489 31.296C282.513 62.5794 297.552 99.5377 297.869 149.105C298.12 188.511 283.58 226.056 257.204 253.626C224.184 288.139 182.688 301.149 137.647 299.921C98.7598 298.86 61.5499 279.923 35.0736 249.612C11.8943 223.066 -1.1119 184.244 0.0747013 147.794L5.65209 106.406Z" fill="#3F9411"/>
<path d="M128.782 14.1887C150.242 11.5684 174.892 11.7509 194.632 21.8422C223.752 36.7263 247.845 73.0122 258.003 105.061C267.41 134.729 265.477 170.762 251.837 198.773C233.781 235.85 198.818 257.405 162.94 269.736C135.31 274.081 107.848 269.184 82.9373 255.697C56.3773 241.323 38.5008 217.625 29.6034 187.247C19.9474 154.274 24.2034 113.817 39.8897 83.5929C60.6763 43.5425 89.6756 26.7303 128.782 14.1887Z" fill="#5CC51D"/>
<g filter="url(#filter1_d_228_11)">
<path d="M95.6997 73.3979C95.8333 65.8577 103.947 61.173 110.544 64.8275L229.538 130.747C236.34 134.516 236.427 144.266 229.692 148.155L108.289 218.246C101.554 222.135 93.1533 217.185 93.291 209.409L95.6997 73.3979Z" fill="#FEFDFE"/>
</g>
</g>
<defs>
<filter id="filter0_d_228_11" x="0" y="0" width="322.872" height="325" filterUnits="userSpaceOnUse" color-interpolation-filters="sRGB">
<feFlood flood-opacity="0" result="BackgroundImageFix"/>
<feColorMatrix in="SourceAlpha" type="matrix" values="0 0 0 0 0 0 0 0 0 0 0 0 0 0 0 0 0 0 127 0" result="hardAlpha"/>
<feOffset dx="25" dy="25"/>
<feComposite in2="hardAlpha" operator="out"/>
<feColorMatrix type="matrix" values="0 0 0 0 0 0 0 0 0 0 0 0 0 0 0 0 0 0 0.25 0"/>
<feBlend mode="normal" in2="BackgroundImageFix" result="effect1_dropShadow_228_11"/>
<feBlend mode="normal" in="SourceGraphic" in2="effect1_dropShadow_228_11" result="shape"/>
</filter>
<filter id="filter1_d_228_11" x="93.2893" y="63.5615" width="146.402" height="161.04" filterUnits="userSpaceOnUse" color-interpolation-filters="sRGB">
<feFlood flood-opacity="0" result="BackgroundImageFix"/>
<feColorMatrix in="SourceAlpha" type="matrix" values="0 0 0 0 0 0 0 0 0 0 0 0 0 0 0 0 0 0 127 0" result="hardAlpha"/>
<feOffset dx="5" dy="5"/>
<feComposite in2="hardAlpha" operator="out"/>
<feColorMatrix type="matrix" values="0 0 0 0 0 0 0 0 0 0 0 0 0 0 0 0 0 0 0.25 0"/>
<feBlend mode="normal" in2="BackgroundImageFix" result="effect1_dropShadow_228_11"/>
<feBlend mode="normal" in="SourceGraphic" in2="effect1_dropShadow_228_11" result="shape"/>
</filter>
</defs>
</svg>
