<svg width="159" height="153" viewBox="0 0 159 153" fill="none" xmlns="http://www.w3.org/2000/svg">
<g filter="url(#filter0_d_230_17)">
<path d="M2.20965 58.8424C3.10965 55.5424 4.50965 52.2424 5.20965 50.5424C7.80965 43.8424 11.0096 36.8424 15.1096 31.0424C27.3096 14.0424 48.7096 3.54242 68.7096 0.842416C94.1096 -2.55758 117.21 4.14242 135.51 24.4424C152.21 42.9424 156.51 62.3424 152.71 85.4424C149.51 104.742 139.01 122.242 123.61 133.542C106.91 145.842 83.4096 150.342 63.3096 146.442C44.2096 142.742 25.8096 131.342 14.7096 114.442C3.10964 96.7424 -3.79035 80.3424 2.20965 58.8424Z" fill="#223B54"/>
<path d="M61.9096 5.9428C76.6096 3.1428 86.4096 5.1428 99.6096 12.8428C115.41 22.1428 129.01 35.7428 133.61 54.7428C137.91 72.6428 131.81 96.0428 123.11 111.543C115.01 126.043 102.01 132.043 87.2096 136.243C77.7096 137.543 66.0096 137.443 56.8096 134.343C40.5096 128.843 28.7096 115.943 21.4096 99.9428C13.8096 83.3428 14.6096 65.2428 20.4096 48.2428C27.6096 27.2428 38.9096 10.2428 61.9096 5.9428Z" fill="#0B5681"/>
<g filter="url(#filter1_d_230_17)">
<path d="M109.11 72.8429V70.2429C109.11 69.7429 109.11 69.2429 109.01 68.7429C108.91 68.2429 108.71 67.8429 108.31 67.4429C107.91 66.9429 107.31 66.5429 106.71 66.3429C105.81 66.0429 104.61 66.2429 103.61 66.2429L101.41 66.1429C101.21 65.8429 101.21 65.4429 101.01 65.0429L100.31 63.2429L99.7096 62.1429L99.4096 61.6429C99.5096 61.3429 102.51 58.6429 103.01 57.8429C103.21 57.4429 103.31 57.0429 103.41 56.6429C103.61 55.6429 103.31 54.8429 102.71 54.1429L97.6096 49.0429L96.3096 47.7429C96.0096 47.3429 95.6096 47.0429 95.2096 46.7429C94.7096 46.3429 94.0096 46.1429 93.4096 46.0429C91.7096 45.9429 90.6096 47.6429 89.4096 48.6429C83.2096 47.9429 89.4096 48.6429 83.2096 47.9429C82.7096 47.4429 83.7096 42.8429 83.2096 42.5429H83.1096C82.5096 41.7429 81.9096 41.1429 80.9096 40.9429C80.4096 40.8429 79.8096 40.9429 79.3096 40.9429H76.0096H72.2096C71.5096 40.9429 70.8096 40.9429 70.1096 40.9429C69.6096 41.0429 69.1096 41.2429 68.7096 41.5429C68.0096 42.0429 67.6096 42.7429 67.5096 43.6429V48.0429L64.5096 49.2429C64.0096 49.4429 63.3096 49.9429 62.7096 50.0429L60.2096 47.6429C59.8096 47.2429 59.3096 46.7429 58.8096 46.4429C58.4096 46.2429 57.8096 46.1429 57.3096 46.1429C56.8096 46.1429 56.2096 46.2429 55.7096 46.5429C55.2096 46.8429 54.8096 47.2429 54.5096 47.6429L52.7096 49.4429L47.8096 54.2429C47.1096 54.9429 47.0096 55.6429 47.0096 56.5429C47.0096 57.3429 47.4096 57.6429 47.8096 58.2429L51.0096 61.5429V61.6429L49.3096 65.7429L45.8096 66.2429C45.0096 66.3429 44.2096 66.4429 43.5096 66.7429C43.0096 66.9429 42.6096 67.2429 42.3096 67.7429C42.1096 68.1429 41.8096 68.5429 41.8096 68.9429C41.7096 69.5429 41.8096 70.2429 41.8096 70.8429V74.4429V77.0429C41.8096 77.5429 41.7096 78.1429 41.8096 78.7429V78.8429C41.9096 79.6429 42.4096 80.1429 42.9096 80.6429C42.9096 80.6429 42.9096 80.7429 42.9096 80.8429C43.0096 81.0429 43.2096 81.2429 43.4096 81.3429L49.3096 83.3429L49.9096 87.6429L48.8096 89.0429C48.1096 89.8429 47.4096 90.5429 47.5096 91.6429C47.5096 92.5429 48.0096 93.3429 48.6096 94.0429L52.9096 98.2429C53.9096 99.2429 54.9096 100.443 56.1096 101.143C56.9096 101.443 57.8096 101.543 58.6096 101.143C59.3096 100.843 59.8096 100.343 60.3096 99.8429L62.3096 97.8429C62.5096 97.6429 62.8096 97.2429 63.1096 97.0429C64.6096 97.8429 66.1096 98.4429 67.8096 99.0429V102.443C67.8096 103.043 67.7096 103.743 67.9096 104.243C68.1096 104.843 68.4096 105.443 68.9096 105.843C69.3096 106.243 69.9096 106.543 70.4096 106.643C71.0096 106.743 71.6096 106.743 72.2096 106.743H74.9096H80.0096C80.5096 106.743 81.0096 106.543 81.5096 106.343C82.2096 105.943 82.9096 105.243 83.1096 104.443V104.343C83.2096 103.843 83.2096 103.343 83.2096 102.843C83.2096 102.643 83.2096 102.543 83.2096 102.443V99.2429C85.0096 98.6429 86.6096 98.1429 88.2096 97.2429L90.5096 99.4429C90.6096 99.5429 90.7096 99.6429 90.8096 99.7429C91.2096 100.043 91.5096 100.443 91.9096 100.743C92.6096 101.243 93.5096 101.343 94.3096 101.143C94.8096 101.043 95.3096 100.843 95.7096 100.543C96.0096 100.343 96.3096 100.043 96.5096 99.7429C96.6096 99.6429 96.7096 99.5429 96.8096 99.4429L98.7096 97.6429L101.31 95.0429C101.41 94.9429 101.61 94.7429 101.71 94.6429C102.21 94.2429 102.61 93.8429 102.91 93.3429C103.31 92.7429 103.61 91.8429 103.41 91.0429V90.9429C103.31 90.5429 103.21 90.2429 103.01 89.9429C102.71 89.5429 102.31 89.1429 102.01 88.7429C101.91 88.6429 101.81 88.5429 101.71 88.4429L99.5096 86.2429C100.11 85.1429 100.61 84.0429 101.01 82.9429L101.31 81.9429C101.31 81.9429 101.31 81.9429 101.31 81.8429C101.31 81.7429 101.31 81.6429 101.41 81.6429C101.51 81.5429 102.51 81.5429 103.61 81.5429C104.91 81.5429 106.31 81.5429 106.71 81.4429C107.21 81.3429 107.61 81.0429 108.01 80.7429C108.81 80.0429 109.01 79.2429 109.11 78.2429V78.0429C109.21 76.4429 109.11 74.6429 109.11 72.8429ZM84.8096 81.8429C82.7096 84.2429 79.5096 85.7429 76.3096 85.9429C75.6096 85.9429 74.9096 85.9429 74.2096 85.9429C71.7096 85.6429 69.4096 84.7429 67.4096 83.1429C65.0096 81.0429 63.3096 78.0429 63.0096 74.8429C62.8096 71.6429 63.8096 68.3429 65.9096 65.8429C68.2096 63.2429 71.3096 61.9429 74.7096 61.6429C77.6096 61.5429 80.8096 62.5429 83.1096 64.3429C85.7096 66.4429 87.3096 69.3429 87.7096 72.7429C88.1096 76.1429 87.0096 79.3429 84.8096 81.8429Z" fill="#FEFEFE"/>
</g>
</g>
<defs>
<filter id="filter0_d_230_17" x="0" y="0" width="158.996" height="152.808" filterUnits="userSpaceOnUse" color-interpolation-filters="sRGB">
<feFlood flood-opacity="0" result="BackgroundImageFix"/>
<feColorMatrix in="SourceAlpha" type="matrix" values="0 0 0 0 0 0 0 0 0 0 0 0 0 0 0 0 0 0 127 0" result="hardAlpha"/>
<feOffset dx="5" dy="5"/>
<feComposite in2="hardAlpha" operator="out"/>
<feColorMatrix type="matrix" values="0 0 0 0 0 0 0 0 0 0 0 0 0 0 0 0 0 0 0.25 0"/>
<feBlend mode="normal" in2="BackgroundImageFix" result="effect1_dropShadow_230_17"/>
<feBlend mode="normal" in="SourceGraphic" in2="effect1_dropShadow_230_17" result="shape"/>
</filter>
<filter id="filter1_d_230_17" x="41.7651" y="40.8984" width="72.3889" height="70.8447" filterUnits="userSpaceOnUse" color-interpolation-filters="sRGB">
<feFlood flood-opacity="0" result="BackgroundImageFix"/>
<feColorMatrix in="SourceAlpha" type="matrix" values="0 0 0 0 0 0 0 0 0 0 0 0 0 0 0 0 0 0 127 0" result="hardAlpha"/>
<feOffset dx="5" dy="5"/>
<feComposite in2="hardAlpha" operator="out"/>
<feColorMatrix type="matrix" values="0 0 0 0 0 0 0 0 0 0 0 0 0 0 0 0 0 0 0.25 0"/>
<feBlend mode="normal" in2="BackgroundImageFix" result="effect1_dropShadow_230_17"/>
<feBlend mode="normal" in="SourceGraphic" in2="effect1_dropShadow_230_17" result="shape"/>
</filter>
</defs>
</svg>
