<svg width="155" height="155" viewBox="0 0 155 155" fill="none" xmlns="http://www.w3.org/2000/svg">
<g filter="url(#filter0_d_361_25)">
<path d="M2.15231 59.715C3.02896 56.3661 4.39263 53.0172 5.07447 51.2919C7.607 44.4926 10.724 37.3888 14.7176 31.5028C26.601 14.2507 47.4457 3.59495 66.9268 0.854909C91.6677 -2.59551 114.168 4.20385 131.994 24.8049C148.26 43.5792 152.449 63.2669 148.747 86.7095C145.63 106.296 135.403 124.055 120.402 135.523C104.136 148.005 81.2454 152.572 61.6669 148.614C43.0625 144.859 25.1399 133.29 14.328 116.14C3.02896 98.1771 -3.692 81.5339 2.15231 59.715Z" fill="#223B54"/>
<path d="M60.3032 6.03096C74.6218 3.18943 84.1675 5.21909 97.025 13.0333C112.415 22.4712 125.662 36.2729 130.143 55.5547C134.331 73.7201 128.389 97.4671 119.915 113.197C112.025 127.912 99.3627 134.001 84.9467 138.263C75.6932 139.583 64.2968 139.481 55.3355 136.335C39.4585 130.754 27.9647 117.662 20.8541 101.425C13.4513 84.5788 14.2305 66.2104 19.88 48.9583C26.8932 27.6468 37.9 10.3947 60.3032 6.03096Z" fill="#0B5681"/>
<g filter="url(#filter1_d_361_25)">
<path d="M85.9171 44.3257C85.8334 43.6497 85.5691 43.0087 85.1521 42.4702C84.735 41.9316 84.1806 41.5154 83.5471 41.2651C82.9135 41.0149 82.2243 40.9399 81.5518 41.0482C80.8793 41.1564 80.2483 41.4437 79.7253 41.8801L60.6949 57.7406C60.3544 58.0246 59.925 58.1803 59.4816 58.1805H44.7396C42.1233 58.1805 40 60.3038 40 62.92V79.9825C40 82.5988 42.1233 84.7221 44.7396 84.7221H59.4816C59.925 84.7223 60.3544 84.878 60.6949 85.162L79.7291 101.019C80.2519 101.454 80.8822 101.74 81.5539 101.848C82.2256 101.956 82.9139 101.881 83.5467 101.632C84.1795 101.382 84.7335 100.967 85.1505 100.429C85.5676 99.8916 85.8323 99.2519 85.9171 98.5769L86.2773 95.6725C88.2869 79.5882 88.2869 63.3144 86.2773 47.2301L85.9171 44.3257ZM95.8778 62.738C96.1419 62.4738 96.4555 62.2641 96.8006 62.1211C97.1457 61.9781 97.5157 61.9045 97.8893 61.9045C98.2629 61.9045 98.6328 61.9781 98.9779 62.1211C99.3231 62.2641 99.6367 62.4738 99.9008 62.738L104.595 67.4283L109.285 62.738C109.545 62.4586 109.859 62.2345 110.208 62.0791C110.557 61.9237 110.934 61.8401 111.315 61.8334C111.697 61.8266 112.077 61.8969 112.431 62.0399C112.785 62.1829 113.106 62.3958 113.376 62.6658C113.647 62.9359 113.859 63.2576 114.002 63.6116C114.145 63.9657 114.216 64.345 114.209 64.7268C114.202 65.1087 114.119 65.4852 113.963 65.8341C113.808 66.1829 113.584 66.4969 113.304 66.7572L108.618 71.4513L113.312 76.1416C113.576 76.4057 113.786 76.7193 113.929 77.0645C114.071 77.4096 114.145 77.7795 114.145 78.1531C114.145 78.5266 114.071 78.8965 113.929 79.2417C113.786 79.5868 113.576 79.9004 113.312 80.1645C113.048 80.4287 112.734 80.6382 112.389 80.7812C112.044 80.9241 111.674 80.9977 111.3 80.9977C110.927 80.9977 110.557 80.9241 110.212 80.7812C109.867 80.6382 109.553 80.4287 109.289 80.1645L104.595 75.4742L99.9045 80.1645C99.3655 80.6669 98.6525 80.9403 97.9157 80.9273C97.179 80.9143 96.4761 80.6159 95.9551 80.0949C95.434 79.5738 95.1356 78.8709 95.1226 78.1342C95.1096 77.3975 95.3831 76.6844 95.8854 76.1454L100.568 71.4513L95.874 66.7572C95.3415 66.224 95.0423 65.5012 95.0423 64.7476C95.0423 63.994 95.3453 63.2712 95.8778 62.738Z" fill="white"/>
</g>
</g>
<defs>
<filter id="filter0_d_361_25" x="0" y="0" width="155" height="155" filterUnits="userSpaceOnUse" color-interpolation-filters="sRGB">
<feFlood flood-opacity="0" result="BackgroundImageFix"/>
<feColorMatrix in="SourceAlpha" type="matrix" values="0 0 0 0 0 0 0 0 0 0 0 0 0 0 0 0 0 0 127 0" result="hardAlpha"/>
<feOffset dx="5" dy="5"/>
<feComposite in2="hardAlpha" operator="out"/>
<feColorMatrix type="matrix" values="0 0 0 0 0 0 0 0 0 0 0 0 0 0 0 0 0 0 0.25 0"/>
<feBlend mode="normal" in2="BackgroundImageFix" result="effect1_dropShadow_361_25"/>
<feBlend mode="normal" in="SourceGraphic" in2="effect1_dropShadow_361_25" result="shape"/>
</filter>
<filter id="filter1_d_361_25" x="40" y="41" width="79.2095" height="65.8965" filterUnits="userSpaceOnUse" color-interpolation-filters="sRGB">
<feFlood flood-opacity="0" result="BackgroundImageFix"/>
<feColorMatrix in="SourceAlpha" type="matrix" values="0 0 0 0 0 0 0 0 0 0 0 0 0 0 0 0 0 0 127 0" result="hardAlpha"/>
<feOffset dx="5" dy="5"/>
<feComposite in2="hardAlpha" operator="out"/>
<feColorMatrix type="matrix" values="0 0 0 0 0 0 0 0 0 0 0 0 0 0 0 0 0 0 0.25 0"/>
<feBlend mode="normal" in2="BackgroundImageFix" result="effect1_dropShadow_361_25"/>
<feBlend mode="normal" in="SourceGraphic" in2="effect1_dropShadow_361_25" result="shape"/>
</filter>
</defs>
</svg>
