<svg width="155" height="155" viewBox="0 0 155 155" fill="none" xmlns="http://www.w3.org/2000/svg">
<g filter="url(#filter0_d_362_56)">
<path d="M2.15231 59.715C3.02896 56.3661 4.39263 53.0172 5.07447 51.2919C7.607 44.4926 10.724 37.3888 14.7176 31.5028C26.601 14.2507 47.4457 3.59495 66.9268 0.854909C91.6677 -2.59551 114.168 4.20385 131.994 24.8049C148.26 43.5792 152.449 63.2669 148.747 86.7095C145.63 106.296 135.403 124.055 120.402 135.523C104.136 148.005 81.2454 152.572 61.6669 148.614C43.0625 144.859 25.1399 133.29 14.328 116.14C3.02896 98.1771 -3.692 81.5339 2.15231 59.715Z" fill="#223B54"/>
<path d="M60.3032 6.03096C74.6218 3.18943 84.1675 5.21909 97.025 13.0333C112.415 22.4712 125.662 36.2729 130.143 55.5547C134.331 73.7201 128.389 97.4671 119.915 113.197C112.025 127.912 99.3627 134.001 84.9467 138.263C75.6932 139.583 64.2968 139.481 55.3355 136.335C39.4585 130.754 27.9647 117.662 20.8541 101.425C13.4513 84.5788 14.2305 66.2104 19.88 48.9583C26.8932 27.6468 37.9 10.3947 60.3032 6.03096Z" fill="#0B5681"/>
<g filter="url(#filter1_d_362_56)">
<path fill-rule="evenodd" clip-rule="evenodd" d="M106.467 86.216C105.725 87.1081 104.387 87.0997 103.567 86.2831C102.749 85.4637 102.76 84.1409 103.48 83.2348C106.033 80.0249 107.42 76.0444 107.413 71.9447C107.42 67.845 106.033 63.8646 103.48 60.6547C102.76 59.7486 102.749 58.4258 103.567 57.6064C104.387 56.7898 105.725 56.7842 106.467 57.6735C109.801 61.683 111.622 66.7329 111.613 71.9447C111.613 77.3702 109.681 82.3426 106.467 86.216ZM100.481 80.2452C99.7924 81.1764 98.4485 81.1681 97.6281 80.3486C96.8078 79.5292 96.833 78.212 97.4601 77.236C98.4774 75.6585 99.0169 73.8211 99.014 71.9447C99.014 69.9955 98.4429 68.1777 97.4601 66.6535C96.833 65.6803 96.8078 64.3603 97.6281 63.5408C98.4485 62.7214 99.7924 62.713 100.484 63.6443C102.197 65.9655 103.214 68.8405 103.214 71.9447C103.218 74.9328 102.26 77.8431 100.481 80.2452Z" fill="white"/>
<path d="M85.9171 44.3257C85.8334 43.6497 85.5691 43.0087 85.1521 42.4702C84.735 41.9316 84.1806 41.5154 83.5471 41.2651C82.9135 41.0149 82.2243 40.9399 81.5518 41.0482C80.8793 41.1564 80.2483 41.4437 79.7253 41.8801L60.6949 57.7406C60.3544 58.0246 59.925 58.1803 59.4816 58.1805H44.7396C42.1233 58.1805 40 60.3038 40 62.92V79.9825C40 82.5988 42.1233 84.7221 44.7396 84.7221H59.4816C59.925 84.7223 60.3544 84.878 60.6949 85.162L79.7291 101.019C80.2519 101.454 80.8822 101.74 81.5539 101.848C82.2256 101.956 82.9139 101.881 83.5467 101.632C84.1795 101.382 84.7335 100.967 85.1505 100.429C85.5676 99.8916 85.8323 99.2519 85.9171 98.5769L86.2773 95.6725C88.2869 79.5882 88.2869 63.3144 86.2773 47.2301L85.9171 44.3257Z" fill="white"/>
</g>
</g>
<defs>
<filter id="filter0_d_362_56" x="0" y="0" width="155" height="155" filterUnits="userSpaceOnUse" color-interpolation-filters="sRGB">
<feFlood flood-opacity="0" result="BackgroundImageFix"/>
<feColorMatrix in="SourceAlpha" type="matrix" values="0 0 0 0 0 0 0 0 0 0 0 0 0 0 0 0 0 0 127 0" result="hardAlpha"/>
<feOffset dx="5" dy="5"/>
<feComposite in2="hardAlpha" operator="out"/>
<feColorMatrix type="matrix" values="0 0 0 0 0 0 0 0 0 0 0 0 0 0 0 0 0 0 0.25 0"/>
<feBlend mode="normal" in2="BackgroundImageFix" result="effect1_dropShadow_362_56"/>
<feBlend mode="normal" in="SourceGraphic" in2="effect1_dropShadow_362_56" result="shape"/>
</filter>
<filter id="filter1_d_362_56" x="40" y="41" width="76.613" height="65.8965" filterUnits="userSpaceOnUse" color-interpolation-filters="sRGB">
<feFlood flood-opacity="0" result="BackgroundImageFix"/>
<feColorMatrix in="SourceAlpha" type="matrix" values="0 0 0 0 0 0 0 0 0 0 0 0 0 0 0 0 0 0 127 0" result="hardAlpha"/>
<feOffset dx="5" dy="5"/>
<feComposite in2="hardAlpha" operator="out"/>
<feColorMatrix type="matrix" values="0 0 0 0 0 0 0 0 0 0 0 0 0 0 0 0 0 0 0.25 0"/>
<feBlend mode="normal" in2="BackgroundImageFix" result="effect1_dropShadow_362_56"/>
<feBlend mode="normal" in="SourceGraphic" in2="effect1_dropShadow_362_56" result="shape"/>
</filter>
</defs>
</svg>
