<svg width="25" height="32" viewBox="0 0 25 32" fill="none" xmlns="http://www.w3.org/2000/svg">
<path d="M0 32V10.6667H5.35714V7.11111C5.35714 5.13067 6.05 3.45008 7.43571 2.06933C8.82143 0.688594 10.5095 -0.00118366 12.5 1.52468e-06C14.4905 0.00118671 16.1786 0.690965 17.5643 2.06933C18.95 3.44771 19.6429 5.1283 19.6429 7.11111V10.6667H25V32H0ZM12.5 24C13.2536 24 13.8881 23.7428 14.4036 23.2284C14.919 22.7141 15.1774 22.0824 15.1786 21.3333C15.1798 20.5843 14.9214 19.9526 14.4036 19.4382C13.8857 18.9239 13.2512 18.6667 12.5 18.6667C11.7488 18.6667 11.1143 18.9239 10.5964 19.4382C10.0786 19.9526 9.82024 20.5843 9.82143 21.3333C9.82262 22.0824 10.081 22.7141 10.5964 23.2284C11.1119 23.7428 11.7464 24 12.5 24ZM7.14286 10.6667H17.8571V7.11111C17.8571 5.62963 17.3363 4.37037 16.2946 3.33333C15.253 2.2963 13.9881 1.77778 12.5 1.77778C11.0119 1.77778 9.74702 2.2963 8.70536 3.33333C7.66369 4.37037 7.14286 5.62963 7.14286 7.11111V10.6667Z" fill="white"/>
</svg>
