<svg width="1598" height="536" viewBox="0 0 1598 536" fill="none" xmlns="http://www.w3.org/2000/svg">
<path d="M1011.5 398.308C1010.7 399.108 1009.73 399.508 1008.58 399.508C1007.44 399.508 1006.46 399.108 1005.66 398.308C1004.86 397.508 1004.46 396.535 1004.46 395.388C1004.46 394.242 1004.86 393.268 1005.66 392.468C1006.46 391.668 1007.44 391.268 1008.58 391.268C1009.73 391.268 1010.7 391.668 1011.5 392.468C1012.33 393.268 1012.74 394.242 1012.74 395.388C1012.74 396.535 1012.33 397.508 1011.5 398.308ZM1044.65 405.908H1044.73L1056.57 389.188H1059.85V409.988H1056.81V393.268H1056.77L1044.89 409.988H1041.61V389.188H1044.65V405.908ZM1074.98 391.228C1072.64 391.228 1070.81 391.962 1069.5 393.428C1068.2 394.868 1067.54 396.922 1067.54 399.588C1067.54 402.148 1068.22 404.188 1069.58 405.708C1070.97 407.228 1072.77 407.988 1074.98 407.988C1076.85 407.988 1078.64 407.535 1080.34 406.628L1081.14 408.988C1079.14 409.922 1077.05 410.388 1074.86 410.388C1071.77 410.388 1069.26 409.415 1067.34 407.468C1065.42 405.495 1064.46 402.868 1064.46 399.588C1064.46 396.202 1065.38 393.562 1067.22 391.668C1069.06 389.748 1071.61 388.788 1074.86 388.788C1077.05 388.788 1079.14 389.255 1081.14 390.188L1080.34 392.628C1078.56 391.695 1076.77 391.228 1074.98 391.228ZM1086.76 389.188H1104.36V409.988H1101.44V391.668H1089.68V409.988H1086.76V389.188ZM1123.72 393.428C1122.52 391.935 1120.86 391.188 1118.76 391.188C1116.65 391.188 1114.98 391.935 1113.76 393.428C1112.56 394.895 1111.96 396.948 1111.96 399.588C1111.96 402.228 1112.56 404.295 1113.76 405.788C1114.98 407.255 1116.65 407.988 1118.76 407.988C1120.86 407.988 1122.52 407.255 1123.72 405.788C1124.94 404.295 1125.56 402.228 1125.56 399.588C1125.56 396.948 1124.94 394.895 1123.72 393.428ZM1125.88 407.468C1124.09 409.415 1121.72 410.388 1118.76 410.388C1115.8 410.388 1113.42 409.415 1111.64 407.468C1109.85 405.522 1108.96 402.895 1108.96 399.588C1108.96 396.282 1109.85 393.655 1111.64 391.708C1113.42 389.762 1115.8 388.788 1118.76 388.788C1121.72 388.788 1124.09 389.762 1125.88 391.708C1127.66 393.655 1128.56 396.282 1128.56 399.588C1128.56 402.895 1127.66 405.522 1125.88 407.468ZM1136.53 399.428V389.188H1151.93V409.988H1148.97V391.668H1139.41V399.908C1139.41 403.882 1138.83 406.575 1137.69 407.988C1136.54 409.402 1134.35 410.202 1131.13 410.388L1130.97 407.908C1132.51 407.828 1133.65 407.575 1134.37 407.148C1135.11 406.722 1135.66 405.935 1136.01 404.788C1136.35 403.615 1136.53 401.828 1136.53 399.428ZM1157.93 389.188H1160.85V395.588C1162 395.375 1163.23 395.268 1164.53 395.268C1167.68 395.268 1170.07 395.922 1171.69 397.228C1173.32 398.508 1174.13 400.295 1174.13 402.588C1174.13 407.788 1170.8 410.388 1164.13 410.388C1161.92 410.388 1159.85 410.188 1157.93 409.788V389.188ZM1160.85 397.988V407.628C1161.92 407.868 1163.08 407.988 1164.33 407.988C1168.95 407.988 1171.25 406.188 1171.25 402.588C1171.25 399.308 1168.88 397.668 1164.13 397.668C1162.96 397.668 1161.87 397.775 1160.85 397.988ZM1185.15 391.108C1183.1 391.108 1180.89 391.575 1178.51 392.508L1177.79 390.268C1180.3 389.282 1182.83 388.788 1185.39 388.788C1188.25 388.788 1190.49 389.268 1192.11 390.228C1193.74 391.188 1194.55 392.415 1194.55 393.908C1194.55 395.002 1194.1 396.002 1193.19 396.908C1192.31 397.815 1191.03 398.455 1189.35 398.828V398.908C1191.19 399.228 1192.57 399.908 1193.47 400.948C1194.41 401.962 1194.87 403.108 1194.87 404.388C1194.87 406.255 1194.05 407.722 1192.39 408.788C1190.77 409.855 1188.43 410.388 1185.39 410.388C1182.78 410.388 1180.15 409.895 1177.51 408.908L1178.23 406.668C1180.66 407.548 1183.01 407.988 1185.27 407.988C1189.62 407.988 1191.79 406.682 1191.79 404.068C1191.79 402.735 1191.11 401.735 1189.75 401.068C1188.39 400.402 1186.15 400.068 1183.03 400.068H1181.27V397.708H1183.03C1188.66 397.708 1191.47 396.575 1191.47 394.308C1191.47 392.175 1189.37 391.108 1185.15 391.108ZM1214.57 389.188H1217.77L1209.69 409.988C1208.3 413.562 1206.82 415.988 1205.25 417.268C1203.68 418.548 1201.45 419.188 1198.57 419.188L1198.41 416.748C1200.57 416.748 1202.24 416.282 1203.41 415.348C1204.58 414.442 1205.69 412.655 1206.73 409.988L1198.29 389.188H1201.57L1208.25 406.428H1208.33L1214.57 389.188ZM1222.15 389.188H1225.03V398.388H1230.07C1230.26 395.375 1231.19 393.028 1232.87 391.348C1234.55 389.642 1236.74 388.788 1239.43 388.788C1242.31 388.788 1244.59 389.748 1246.27 391.668C1247.98 393.588 1248.83 396.228 1248.83 399.588C1248.83 402.948 1247.98 405.588 1246.27 407.508C1244.59 409.428 1242.31 410.388 1239.43 410.388C1236.74 410.388 1234.55 409.548 1232.87 407.868C1231.19 406.162 1230.26 403.802 1230.07 400.788H1225.03V409.988H1222.15V389.188ZM1234.71 405.788C1235.86 407.255 1237.43 407.988 1239.43 407.988C1241.43 407.988 1242.99 407.255 1244.11 405.788C1245.26 404.322 1245.83 402.255 1245.83 399.588C1245.83 396.922 1245.26 394.855 1244.11 393.388C1242.99 391.922 1241.43 391.188 1239.43 391.188C1237.43 391.188 1235.86 391.922 1234.71 393.388C1233.57 394.855 1232.99 396.922 1232.99 399.588C1232.99 402.255 1233.57 404.322 1234.71 405.788ZM1270.8 391.628H1263.2V409.988H1260.04V391.628H1252.44V389.188H1270.8V391.628ZM1284.71 391.228C1282.36 391.228 1280.54 391.962 1279.23 393.428C1277.92 394.868 1277.27 396.922 1277.27 399.588C1277.27 402.148 1277.95 404.188 1279.31 405.708C1280.7 407.228 1282.5 407.988 1284.71 407.988C1286.58 407.988 1288.36 407.535 1290.07 406.628L1290.87 408.988C1288.87 409.922 1286.78 410.388 1284.59 410.388C1281.5 410.388 1278.99 409.415 1277.07 407.468C1275.15 405.495 1274.19 402.868 1274.19 399.588C1274.19 396.202 1275.11 393.562 1276.95 391.668C1278.79 389.748 1281.34 388.788 1284.59 388.788C1286.78 388.788 1288.87 389.255 1290.87 390.188L1290.07 392.628C1288.28 391.695 1286.5 391.228 1284.71 391.228ZM1301.25 400.068C1299.65 399.722 1298.33 399.122 1297.29 398.268C1296.27 397.388 1295.77 396.215 1295.77 394.748C1295.77 390.855 1298.9 388.908 1305.17 388.908C1307.38 388.908 1309.54 389.055 1311.65 389.348V409.988H1308.61V401.068H1305.85C1304.38 401.068 1303.35 401.255 1302.77 401.628C1302.21 401.975 1301.57 402.882 1300.85 404.348L1298.17 409.988H1295.09L1298.01 404.108C1298.65 402.828 1299.19 401.908 1299.65 401.348C1300.13 400.788 1300.66 400.388 1301.25 400.148V400.068ZM1308.61 398.828V391.428C1307.54 391.268 1306.43 391.188 1305.29 391.188C1300.89 391.188 1298.69 392.455 1298.69 394.988C1298.69 397.548 1301.03 398.828 1305.73 398.828H1308.61ZM1338.98 410.388C1335.97 410.388 1333.73 409.175 1332.26 406.748H1332.18V418.788H1329.26V389.188H1332.06L1332.1 392.708H1332.18C1333.65 390.095 1335.92 388.788 1338.98 388.788C1341.6 388.788 1343.65 389.722 1345.14 391.588C1346.64 393.428 1347.38 396.095 1347.38 399.588C1347.38 403.002 1346.61 405.655 1345.06 407.548C1343.54 409.442 1341.52 410.388 1338.98 410.388ZM1344.5 399.588C1344.5 396.868 1343.96 394.788 1342.86 393.348C1341.8 391.908 1340.29 391.188 1338.34 391.188C1336.5 391.188 1335.01 391.908 1333.86 393.348C1332.74 394.788 1332.18 396.775 1332.18 399.308V399.868C1332.18 402.455 1332.76 404.455 1333.9 405.868C1335.05 407.282 1336.53 407.988 1338.34 407.988C1340.24 407.988 1341.73 407.268 1342.82 405.828C1343.94 404.362 1344.5 402.282 1344.5 399.588ZM1353.79 398.388H1366.59C1366.56 396.068 1366 394.282 1364.91 393.028C1363.82 391.775 1362.31 391.148 1360.39 391.148C1358.39 391.148 1356.8 391.788 1355.63 393.068C1354.48 394.322 1353.87 396.095 1353.79 398.388ZM1353.79 400.708C1353.84 402.975 1354.54 404.762 1355.87 406.068C1357.2 407.375 1358.94 408.028 1361.07 408.028C1363.12 408.028 1365.16 407.495 1367.19 406.428L1367.99 408.708C1365.75 409.828 1363.35 410.388 1360.79 410.388C1357.8 410.388 1355.39 409.415 1353.55 407.468C1351.71 405.522 1350.79 402.895 1350.79 399.588C1350.79 396.228 1351.64 393.588 1353.35 391.668C1355.08 389.748 1357.43 388.788 1360.39 388.788C1363.27 388.788 1365.5 389.708 1367.07 391.548C1368.67 393.362 1369.47 395.975 1369.47 399.388C1369.47 399.735 1369.44 400.175 1369.39 400.708H1353.79ZM1384.98 409.988V400.388H1382.86L1376.38 409.988H1373.26L1380.58 399.108L1373.46 389.188H1376.62L1382.86 397.908H1384.98V389.188H1387.94V397.908H1390.06L1396.3 389.188H1399.46L1392.34 399.108L1399.66 409.988H1396.54L1390.06 400.388H1387.94V409.988H1384.98ZM1406.25 398.388H1419.05C1419.03 396.068 1418.47 394.282 1417.37 393.028C1416.28 391.775 1414.77 391.148 1412.85 391.148C1410.85 391.148 1409.27 391.788 1408.09 393.068C1406.95 394.322 1406.33 396.095 1406.25 398.388ZM1406.25 400.708C1406.31 402.975 1407 404.762 1408.33 406.068C1409.67 407.375 1411.4 408.028 1413.53 408.028C1415.59 408.028 1417.63 407.495 1419.65 406.428L1420.45 408.708C1418.21 409.828 1415.81 410.388 1413.25 410.388C1410.27 410.388 1407.85 409.415 1406.01 407.468C1404.17 405.522 1403.25 402.895 1403.25 399.588C1403.25 396.228 1404.11 393.588 1405.81 391.668C1407.55 389.748 1409.89 388.788 1412.85 388.788C1415.73 388.788 1417.96 389.708 1419.53 391.548C1421.13 393.362 1421.93 395.975 1421.93 399.388C1421.93 399.735 1421.91 400.175 1421.85 400.708H1406.25ZM1008.46 457.308C1007.66 458.108 1006.68 458.508 1005.54 458.508C1004.39 458.508 1003.42 458.108 1002.62 457.308C1001.82 456.508 1001.42 455.535 1001.42 454.388C1001.42 453.242 1001.82 452.268 1002.62 451.468C1003.42 450.668 1004.39 450.268 1005.54 450.268C1006.68 450.268 1007.66 450.668 1008.46 451.468C1009.28 452.268 1009.7 453.242 1009.7 454.388C1009.7 455.535 1009.28 456.508 1008.46 457.308ZM1041.68 458.988V468.988H1038.56V448.188H1041.68V456.668H1053.48V448.188H1056.6V468.988H1053.48V458.988H1041.68ZM1064.18 457.388H1076.98C1076.96 455.068 1076.4 453.282 1075.3 452.028C1074.21 450.775 1072.7 450.148 1070.78 450.148C1068.78 450.148 1067.2 450.788 1066.02 452.068C1064.88 453.322 1064.26 455.095 1064.18 457.388ZM1064.18 459.708C1064.24 461.975 1064.93 463.762 1066.26 465.068C1067.6 466.375 1069.33 467.028 1071.46 467.028C1073.52 467.028 1075.56 466.495 1077.58 465.428L1078.38 467.708C1076.14 468.828 1073.74 469.388 1071.18 469.388C1068.2 469.388 1065.78 468.415 1063.94 466.468C1062.1 464.522 1061.18 461.895 1061.18 458.588C1061.18 455.228 1062.04 452.588 1063.74 450.668C1065.48 448.748 1067.82 447.788 1070.78 447.788C1073.66 447.788 1075.89 448.708 1077.46 450.548C1079.06 452.362 1079.86 454.975 1079.86 458.388C1079.86 458.735 1079.84 459.175 1079.78 459.708H1064.18ZM1093.65 469.388C1090.75 469.388 1088.48 468.468 1086.85 466.628C1085.25 464.762 1084.45 462.122 1084.45 458.708V449.908C1084.45 446.202 1085.35 443.522 1087.13 441.868C1088.95 440.215 1091.83 439.388 1095.77 439.388C1097.8 439.388 1099.73 439.255 1101.57 438.988V441.388C1099.87 441.655 1097.93 441.788 1095.77 441.788C1092.65 441.788 1090.47 442.388 1089.21 443.588C1087.99 444.762 1087.37 446.828 1087.37 449.788V452.068H1087.45C1088.89 449.748 1091.19 448.588 1094.33 448.588C1096.76 448.588 1098.73 449.535 1100.25 451.428C1101.8 453.295 1102.57 455.815 1102.57 458.988C1102.57 462.295 1101.79 464.855 1100.21 466.668C1098.64 468.482 1096.45 469.388 1093.65 469.388ZM1099.69 458.988C1099.69 456.508 1099.13 454.562 1098.01 453.148C1096.92 451.708 1095.47 450.988 1093.65 450.988C1091.73 450.988 1090.2 451.655 1089.05 452.988C1087.93 454.322 1087.37 456.188 1087.37 458.588V459.108C1087.37 461.508 1087.93 463.428 1089.05 464.868C1090.2 466.282 1091.69 466.988 1093.53 466.988C1095.45 466.988 1096.96 466.295 1098.05 464.908C1099.15 463.495 1099.69 461.522 1099.69 458.988ZM1121.33 452.428C1120.13 450.935 1118.48 450.188 1116.37 450.188C1114.27 450.188 1112.6 450.935 1111.37 452.428C1110.17 453.895 1109.57 455.948 1109.57 458.588C1109.57 461.228 1110.17 463.295 1111.37 464.788C1112.6 466.255 1114.27 466.988 1116.37 466.988C1118.48 466.988 1120.13 466.255 1121.33 464.788C1122.56 463.295 1123.17 461.228 1123.17 458.588C1123.17 455.948 1122.56 453.895 1121.33 452.428ZM1123.49 466.468C1121.71 468.415 1119.33 469.388 1116.37 469.388C1113.41 469.388 1111.04 468.415 1109.25 466.468C1107.47 464.522 1106.57 461.895 1106.57 458.588C1106.57 455.282 1107.47 452.655 1109.25 450.708C1111.04 448.762 1113.41 447.788 1116.37 447.788C1119.33 447.788 1121.71 448.762 1123.49 450.708C1125.28 452.655 1126.17 455.282 1126.17 458.588C1126.17 461.895 1125.28 464.522 1123.49 466.468ZM1134.15 458.428V448.188H1149.55V468.988H1146.59V450.668H1137.03V458.908C1137.03 462.882 1136.45 465.575 1135.31 466.988C1134.16 468.402 1131.97 469.202 1128.75 469.388L1128.59 466.908C1130.13 466.828 1131.27 466.575 1131.99 466.148C1132.73 465.722 1133.28 464.935 1133.63 463.788C1133.97 462.615 1134.15 460.828 1134.15 458.428ZM1155.55 448.188H1158.47V454.588C1159.62 454.375 1160.84 454.268 1162.15 454.268C1165.3 454.268 1167.68 454.922 1169.31 456.228C1170.94 457.508 1171.75 459.295 1171.75 461.588C1171.75 466.788 1168.42 469.388 1161.75 469.388C1159.54 469.388 1157.47 469.188 1155.55 468.788V448.188ZM1158.47 456.988V466.628C1159.54 466.868 1160.7 466.988 1161.95 466.988C1166.56 466.988 1168.87 465.188 1168.87 461.588C1168.87 458.308 1166.5 456.668 1161.75 456.668C1160.58 456.668 1159.48 456.775 1158.47 456.988ZM1200.73 468.988H1176.33V448.188H1179.21V466.508H1187.13V448.188H1189.93V466.508H1197.85V448.188H1200.73V468.988ZM1209.76 464.908H1209.84L1221.68 448.188H1224.96V468.988H1221.92V452.268H1221.88L1210 468.988H1206.72V448.188H1209.76V464.908ZM1232.58 457.388H1245.38C1245.35 455.068 1244.79 453.282 1243.7 452.028C1242.61 450.775 1241.1 450.148 1239.18 450.148C1237.18 450.148 1235.59 450.788 1234.42 452.068C1233.27 453.322 1232.66 455.095 1232.58 457.388ZM1232.58 459.708C1232.63 461.975 1233.33 463.762 1234.66 465.068C1235.99 466.375 1237.73 467.028 1239.86 467.028C1241.91 467.028 1243.95 466.495 1245.98 465.428L1246.78 467.708C1244.54 468.828 1242.14 469.388 1239.58 469.388C1236.59 469.388 1234.18 468.415 1232.34 466.468C1230.5 464.522 1229.58 461.895 1229.58 458.588C1229.58 455.228 1230.43 452.588 1232.14 450.668C1233.87 448.748 1236.22 447.788 1239.18 447.788C1242.06 447.788 1244.29 448.708 1245.86 450.548C1247.46 452.362 1248.26 454.975 1248.26 458.388C1248.26 458.735 1248.23 459.175 1248.18 459.708H1232.58ZM1278.01 452.428C1276.81 450.935 1275.16 450.188 1273.05 450.188C1270.95 450.188 1269.28 450.935 1268.05 452.428C1266.85 453.895 1266.25 455.948 1266.25 458.588C1266.25 461.228 1266.85 463.295 1268.05 464.788C1269.28 466.255 1270.95 466.988 1273.05 466.988C1275.16 466.988 1276.81 466.255 1278.01 464.788C1279.24 463.295 1279.85 461.228 1279.85 458.588C1279.85 455.948 1279.24 453.895 1278.01 452.428ZM1280.17 466.468C1278.39 468.415 1276.01 469.388 1273.05 469.388C1270.09 469.388 1267.72 468.415 1265.93 466.468C1264.15 464.522 1263.25 461.895 1263.25 458.588C1263.25 455.282 1264.15 452.655 1265.93 450.708C1267.72 448.762 1270.09 447.788 1273.05 447.788C1276.01 447.788 1278.39 448.762 1280.17 450.708C1281.96 452.655 1282.85 455.282 1282.85 458.588C1282.85 461.895 1281.96 464.522 1280.17 466.468ZM1296.46 469.388C1293.56 469.388 1291.29 468.468 1289.66 466.628C1288.06 464.762 1287.26 462.122 1287.26 458.708V449.908C1287.26 446.202 1288.16 443.522 1289.94 441.868C1291.76 440.215 1294.64 439.388 1298.58 439.388C1300.61 439.388 1302.54 439.255 1304.38 438.988V441.388C1302.68 441.655 1300.74 441.788 1298.58 441.788C1295.46 441.788 1293.28 442.388 1292.02 443.588C1290.8 444.762 1290.18 446.828 1290.18 449.788V452.068H1290.26C1291.7 449.748 1294 448.588 1297.14 448.588C1299.57 448.588 1301.54 449.535 1303.06 451.428C1304.61 453.295 1305.38 455.815 1305.38 458.988C1305.38 462.295 1304.6 464.855 1303.02 466.668C1301.45 468.482 1299.26 469.388 1296.46 469.388ZM1302.5 458.988C1302.5 456.508 1301.94 454.562 1300.82 453.148C1299.73 451.708 1298.28 450.988 1296.46 450.988C1294.54 450.988 1293.01 451.655 1291.86 452.988C1290.74 454.322 1290.18 456.188 1290.18 458.588V459.108C1290.18 461.508 1290.74 463.428 1291.86 464.868C1293.01 466.282 1294.5 466.988 1296.34 466.988C1298.26 466.988 1299.77 466.295 1300.86 464.908C1301.96 463.495 1302.5 461.522 1302.5 458.988ZM1324.15 452.428C1322.95 450.935 1321.29 450.188 1319.19 450.188C1317.08 450.188 1315.41 450.935 1314.19 452.428C1312.99 453.895 1312.39 455.948 1312.39 458.588C1312.39 461.228 1312.99 463.295 1314.19 464.788C1315.41 466.255 1317.08 466.988 1319.19 466.988C1321.29 466.988 1322.95 466.255 1324.15 464.788C1325.37 463.295 1325.99 461.228 1325.99 458.588C1325.99 455.948 1325.37 453.895 1324.15 452.428ZM1326.31 466.468C1324.52 468.415 1322.15 469.388 1319.19 469.388C1316.23 469.388 1313.85 468.415 1312.07 466.468C1310.28 464.522 1309.39 461.895 1309.39 458.588C1309.39 455.282 1310.28 452.655 1312.07 450.708C1313.85 448.762 1316.23 447.788 1319.19 447.788C1322.15 447.788 1324.52 448.762 1326.31 450.708C1328.09 452.655 1328.99 455.282 1328.99 458.588C1328.99 461.895 1328.09 464.522 1326.31 466.468ZM1343.32 469.388C1340.3 469.388 1338.06 468.175 1336.6 465.748H1336.52V477.788H1333.6V448.188H1336.4L1336.44 451.708H1336.52C1337.98 449.095 1340.25 447.788 1343.32 447.788C1345.93 447.788 1347.98 448.722 1349.48 450.588C1350.97 452.428 1351.72 455.095 1351.72 458.588C1351.72 462.002 1350.94 464.655 1349.4 466.548C1347.88 468.442 1345.85 469.388 1343.32 469.388ZM1348.84 458.588C1348.84 455.868 1348.29 453.788 1347.2 452.348C1346.13 450.908 1344.62 450.188 1342.68 450.188C1340.84 450.188 1339.34 450.908 1338.2 452.348C1337.08 453.788 1336.52 455.775 1336.52 458.308V458.868C1336.52 461.455 1337.09 463.455 1338.24 464.868C1339.38 466.282 1340.86 466.988 1342.68 466.988C1344.57 466.988 1346.06 466.268 1347.16 464.828C1348.28 463.362 1348.84 461.282 1348.84 458.588ZM1369.89 452.428C1368.69 450.935 1367.03 450.188 1364.93 450.188C1362.82 450.188 1361.15 450.935 1359.93 452.428C1358.73 453.895 1358.13 455.948 1358.13 458.588C1358.13 461.228 1358.73 463.295 1359.93 464.788C1361.15 466.255 1362.82 466.988 1364.93 466.988C1367.03 466.988 1368.69 466.255 1369.89 464.788C1371.11 463.295 1371.73 461.228 1371.73 458.588C1371.73 455.948 1371.11 453.895 1369.89 452.428ZM1372.05 466.468C1370.26 468.415 1367.89 469.388 1364.93 469.388C1361.97 469.388 1359.59 468.415 1357.81 466.468C1356.02 464.522 1355.13 461.895 1355.13 458.588C1355.13 455.282 1356.02 452.655 1357.81 450.708C1359.59 448.762 1361.97 447.788 1364.93 447.788C1367.89 447.788 1370.26 448.762 1372.05 450.708C1373.83 452.655 1374.73 455.282 1374.73 458.588C1374.73 461.895 1373.83 464.522 1372.05 466.468ZM1396.5 450.628H1388.9V468.988H1385.74V450.628H1378.14V448.188H1396.5V450.628ZM1420.89 468.988V448.188H1423.77V468.988H1420.89ZM1401.29 448.188H1404.21V454.588C1405.36 454.375 1406.59 454.268 1407.89 454.268C1411.04 454.268 1413.43 454.922 1415.05 456.228C1416.68 457.508 1417.49 459.295 1417.49 461.588C1417.49 466.788 1414.16 469.388 1407.49 469.388C1405.28 469.388 1403.21 469.188 1401.29 468.788V448.188ZM1404.21 456.988V466.628C1405.28 466.868 1406.44 466.988 1407.69 466.988C1412.31 466.988 1414.61 465.188 1414.61 461.588C1414.61 458.308 1412.24 456.668 1407.49 456.668C1406.32 456.668 1405.23 456.775 1404.21 456.988Z" fill="black"/>
<path d="M201.009 398.308C200.209 399.108 199.235 399.508 198.089 399.508C196.942 399.508 195.969 399.108 195.169 398.308C194.369 397.508 193.969 396.535 193.969 395.388C193.969 394.242 194.369 393.268 195.169 392.468C195.969 391.668 196.942 391.268 198.089 391.268C199.235 391.268 200.209 391.668 201.009 392.468C201.835 393.268 202.249 394.242 202.249 395.388C202.249 396.535 201.835 397.508 201.009 398.308ZM244.709 389.188H247.629V409.988H244.709V402.988C242.923 403.842 240.829 404.268 238.429 404.268C235.549 404.268 233.536 403.762 232.389 402.748C231.269 401.708 230.709 399.895 230.709 397.308V389.188H233.589V396.748C233.589 398.748 233.949 400.095 234.669 400.788C235.416 401.455 236.829 401.788 238.909 401.788C241.176 401.788 243.109 401.375 244.709 400.548V389.188ZM261.248 388.788C264.155 388.788 266.235 389.388 267.488 390.588C268.742 391.788 269.368 393.762 269.368 396.508V404.388C269.368 406.282 269.568 408.148 269.968 409.988H267.168C266.955 408.948 266.822 407.722 266.768 406.308H266.688C265.968 407.588 264.928 408.588 263.568 409.308C262.208 410.028 260.675 410.388 258.968 410.388C257.048 410.388 255.515 409.855 254.368 408.788C253.222 407.695 252.648 406.228 252.648 404.388C252.648 402.068 253.662 400.228 255.688 398.868C257.715 397.482 260.595 396.788 264.328 396.788H266.448V396.588C266.448 394.562 266.062 393.162 265.288 392.388C264.542 391.588 263.195 391.188 261.248 391.188C258.742 391.188 256.408 391.802 254.248 393.028L253.728 390.668C256.022 389.415 258.528 388.788 261.248 388.788ZM255.528 404.268C255.528 405.468 255.902 406.415 256.648 407.108C257.395 407.775 258.395 408.108 259.648 408.108C261.488 408.108 263.075 407.455 264.408 406.148C265.768 404.815 266.448 403.188 266.448 401.268V399.028H264.328C261.528 399.028 259.355 399.508 257.808 400.468C256.288 401.402 255.528 402.668 255.528 404.268ZM284.683 391.228C282.336 391.228 280.509 391.962 279.203 393.428C277.896 394.868 277.243 396.922 277.243 399.588C277.243 402.148 277.923 404.188 279.283 405.708C280.669 407.228 282.469 407.988 284.683 407.988C286.549 407.988 288.336 407.535 290.043 406.628L290.843 408.988C288.843 409.922 286.749 410.388 284.563 410.388C281.469 410.388 278.963 409.415 277.043 407.468C275.123 405.495 274.163 402.868 274.163 399.588C274.163 396.202 275.083 393.562 276.923 391.668C278.763 389.748 281.309 388.788 284.563 388.788C286.749 388.788 288.843 389.255 290.843 390.188L290.043 392.628C288.256 391.695 286.469 391.228 284.683 391.228ZM313.621 391.628H306.021V409.988H302.861V391.628H295.261V389.188H313.621V391.628ZM331.774 393.428C330.574 391.935 328.921 391.188 326.814 391.188C324.707 391.188 323.041 391.935 321.814 393.428C320.614 394.895 320.014 396.948 320.014 399.588C320.014 402.228 320.614 404.295 321.814 405.788C323.041 407.255 324.707 407.988 326.814 407.988C328.921 407.988 330.574 407.255 331.774 405.788C333.001 404.295 333.614 402.228 333.614 399.588C333.614 396.948 333.001 394.895 331.774 393.428ZM333.934 407.468C332.147 409.415 329.774 410.388 326.814 410.388C323.854 410.388 321.481 409.415 319.694 407.468C317.907 405.522 317.014 402.895 317.014 399.588C317.014 396.282 317.907 393.655 319.694 391.708C321.481 389.762 323.854 388.788 326.814 388.788C329.774 388.788 332.147 389.762 333.934 391.708C335.721 393.655 336.614 396.282 336.614 399.588C336.614 402.895 335.721 405.522 333.934 407.468ZM355.868 405.908H355.948L367.788 389.188H371.068V409.988H368.028V393.268H367.988L356.108 409.988H352.828V389.188H355.868V405.908ZM386.206 391.228C383.859 391.228 382.033 391.962 380.726 393.428C379.419 394.868 378.766 396.922 378.766 399.588C378.766 402.148 379.446 404.188 380.806 405.708C382.193 407.228 383.993 407.988 386.206 407.988C388.073 407.988 389.859 407.535 391.566 406.628L392.366 408.988C390.366 409.922 388.273 410.388 386.086 410.388C382.993 410.388 380.486 409.415 378.566 407.468C376.646 405.495 375.686 402.868 375.686 399.588C375.686 396.202 376.606 393.562 378.446 391.668C380.286 389.748 382.833 388.788 386.086 388.788C388.273 388.788 390.366 389.255 392.366 390.188L391.566 392.628C389.779 391.695 387.993 391.228 386.206 391.228ZM397.984 389.188H415.584V409.988H412.664V391.668H400.904V409.988H397.984V389.188ZM434.938 393.428C433.738 391.935 432.085 391.188 429.978 391.188C427.871 391.188 426.205 391.935 424.978 393.428C423.778 394.895 423.178 396.948 423.178 399.588C423.178 402.228 423.778 404.295 424.978 405.788C426.205 407.255 427.871 407.988 429.978 407.988C432.085 407.988 433.738 407.255 434.938 405.788C436.165 404.295 436.778 402.228 436.778 399.588C436.778 396.948 436.165 394.895 434.938 393.428ZM437.098 407.468C435.311 409.415 432.938 410.388 429.978 410.388C427.018 410.388 424.645 409.415 422.858 407.468C421.071 405.522 420.178 402.895 420.178 399.588C420.178 396.282 421.071 393.655 422.858 391.708C424.645 389.762 427.018 388.788 429.978 388.788C432.938 388.788 435.311 389.762 437.098 391.708C438.885 393.655 439.778 396.282 439.778 399.588C439.778 402.895 438.885 405.522 437.098 407.468ZM447.751 399.428V389.188H463.151V409.988H460.191V391.668H450.631V399.908C450.631 403.882 450.057 406.575 448.911 407.988C447.764 409.402 445.577 410.202 442.351 410.388L442.191 407.908C443.737 407.828 444.871 407.575 445.591 407.148C446.337 406.722 446.884 405.935 447.231 404.788C447.577 403.615 447.751 401.828 447.751 399.428ZM469.156 389.188H472.076V395.588C473.223 395.375 474.45 395.268 475.756 395.268C478.903 395.268 481.29 395.922 482.916 397.228C484.543 398.508 485.356 400.295 485.356 402.588C485.356 407.788 482.023 410.388 475.356 410.388C473.143 410.388 471.076 410.188 469.156 409.788V389.188ZM472.076 397.988V407.628C473.143 407.868 474.303 407.988 475.556 407.988C480.17 407.988 482.476 406.188 482.476 402.588C482.476 399.308 480.103 397.668 475.356 397.668C474.183 397.668 473.09 397.775 472.076 397.988ZM496.378 391.108C494.324 391.108 492.111 391.575 489.738 392.508L489.018 390.268C491.524 389.282 494.058 388.788 496.618 388.788C499.471 388.788 501.711 389.268 503.338 390.228C504.964 391.188 505.778 392.415 505.778 393.908C505.778 395.002 505.324 396.002 504.418 396.908C503.538 397.815 502.258 398.455 500.578 398.828V398.908C502.418 399.228 503.791 399.908 504.698 400.948C505.631 401.962 506.098 403.108 506.098 404.388C506.098 406.255 505.271 407.722 503.618 408.788C501.991 409.855 499.658 410.388 496.618 410.388C494.004 410.388 491.378 409.895 488.738 408.908L489.458 406.668C491.884 407.548 494.231 407.988 496.498 407.988C500.844 407.988 503.018 406.682 503.018 404.068C503.018 402.735 502.338 401.735 500.978 401.068C499.618 400.402 497.378 400.068 494.258 400.068H492.498V397.708H494.258C499.884 397.708 502.698 396.575 502.698 394.308C502.698 392.175 500.591 391.108 496.378 391.108ZM525.794 389.188H528.994L520.914 409.988C519.527 413.562 518.047 415.988 516.474 417.268C514.901 418.548 512.674 419.188 509.794 419.188L509.634 416.748C511.794 416.748 513.461 416.282 514.634 415.348C515.807 414.442 516.914 412.655 517.954 409.988L509.514 389.188H512.794L519.474 406.428H519.554L525.794 389.188ZM533.375 389.188H536.255V398.388H541.295C541.482 395.375 542.415 393.028 544.095 391.348C545.775 389.642 547.962 388.788 550.655 388.788C553.535 388.788 555.815 389.748 557.495 391.668C559.202 393.588 560.055 396.228 560.055 399.588C560.055 402.948 559.202 405.588 557.495 407.508C555.815 409.428 553.535 410.388 550.655 410.388C547.962 410.388 545.775 409.548 544.095 407.868C542.415 406.162 541.482 403.802 541.295 400.788H536.255V409.988H533.375V389.188ZM545.935 405.788C547.082 407.255 548.655 407.988 550.655 407.988C552.655 407.988 554.215 407.255 555.335 405.788C556.482 404.322 557.055 402.255 557.055 399.588C557.055 396.922 556.482 394.855 555.335 393.388C554.215 391.922 552.655 391.188 550.655 391.188C548.655 391.188 547.082 391.922 545.935 393.388C544.788 394.855 544.215 396.922 544.215 399.588C544.215 402.255 544.788 404.322 545.935 405.788ZM582.019 391.628H574.419V409.988H571.259V391.628H563.659V389.188H582.019V391.628ZM595.933 391.228C593.586 391.228 591.759 391.962 590.453 393.428C589.146 394.868 588.493 396.922 588.493 399.588C588.493 402.148 589.173 404.188 590.533 405.708C591.919 407.228 593.719 407.988 595.933 407.988C597.799 407.988 599.586 407.535 601.293 406.628L602.093 408.988C600.093 409.922 597.999 410.388 595.813 410.388C592.719 410.388 590.213 409.415 588.293 407.468C586.373 405.495 585.413 402.868 585.413 399.588C585.413 396.202 586.333 393.562 588.173 391.668C590.013 389.748 592.559 388.788 595.813 388.788C597.999 388.788 600.093 389.255 602.093 390.188L601.293 392.628C599.506 391.695 597.719 391.228 595.933 391.228ZM612.471 400.068C610.871 399.722 609.551 399.122 608.511 398.268C607.498 397.388 606.991 396.215 606.991 394.748C606.991 390.855 610.124 388.908 616.391 388.908C618.604 388.908 620.764 389.055 622.871 389.348V409.988H619.831V401.068H617.071C615.604 401.068 614.578 401.255 613.991 401.628C613.431 401.975 612.791 402.882 612.071 404.348L609.391 409.988H606.311L609.231 404.108C609.871 402.828 610.418 401.908 610.871 401.348C611.351 400.788 611.884 400.388 612.471 400.148V400.068ZM619.831 398.828V391.428C618.764 391.268 617.658 391.188 616.511 391.188C612.111 391.188 609.911 392.455 609.911 394.988C609.911 397.548 612.258 398.828 616.951 398.828H619.831ZM227.337 457.308C226.537 458.108 225.564 458.508 224.417 458.508C223.27 458.508 222.297 458.108 221.497 457.308C220.697 456.508 220.297 455.535 220.297 454.388C220.297 453.242 220.697 452.268 221.497 451.468C222.297 450.668 223.27 450.268 224.417 450.268C225.564 450.268 226.537 450.668 227.337 451.468C228.164 452.268 228.577 453.242 228.577 454.388C228.577 455.535 228.164 456.508 227.337 457.308ZM266.438 469.388C263.531 469.388 261.264 468.468 259.638 466.628C258.038 464.762 257.238 462.122 257.238 458.708V449.908C257.238 446.202 258.131 443.522 259.918 441.868C261.731 440.215 264.611 439.388 268.558 439.388C270.584 439.388 272.518 439.255 274.358 438.988V441.388C272.651 441.655 270.718 441.788 268.558 441.788C265.438 441.788 263.251 442.388 261.998 443.588C260.771 444.762 260.158 446.828 260.158 449.788V452.068H260.238C261.678 449.748 263.971 448.588 267.118 448.588C269.544 448.588 271.518 449.535 273.038 451.428C274.584 453.295 275.358 455.815 275.358 458.988C275.358 462.295 274.571 464.855 272.998 466.668C271.424 468.482 269.238 469.388 266.438 469.388ZM272.478 458.988C272.478 456.508 271.918 454.562 270.798 453.148C269.704 451.708 268.251 450.988 266.438 450.988C264.518 450.988 262.984 451.655 261.838 452.988C260.718 454.322 260.158 456.188 260.158 458.588V459.108C260.158 461.508 260.718 463.428 261.838 464.868C262.984 466.282 264.478 466.988 266.318 466.988C268.238 466.988 269.744 466.295 270.838 464.908C271.931 463.495 272.478 461.522 272.478 458.988ZM294.118 452.428C292.918 450.935 291.264 450.188 289.158 450.188C287.051 450.188 285.384 450.935 284.158 452.428C282.958 453.895 282.358 455.948 282.358 458.588C282.358 461.228 282.958 463.295 284.158 464.788C285.384 466.255 287.051 466.988 289.158 466.988C291.264 466.988 292.918 466.255 294.118 464.788C295.344 463.295 295.958 461.228 295.958 458.588C295.958 455.948 295.344 453.895 294.118 452.428ZM296.278 466.468C294.491 468.415 292.118 469.388 289.158 469.388C286.198 469.388 283.824 468.415 282.038 466.468C280.251 464.522 279.358 461.895 279.358 458.588C279.358 455.282 280.251 452.655 282.038 450.708C283.824 448.762 286.198 447.788 289.158 447.788C292.118 447.788 294.491 448.762 296.278 450.708C298.064 452.655 298.958 455.282 298.958 458.588C298.958 461.895 298.064 464.522 296.278 466.468ZM306.93 458.428V448.188H322.33V468.988H319.37V450.668H309.81V458.908C309.81 462.882 309.237 465.575 308.09 466.988C306.944 468.402 304.757 469.202 301.53 469.388L301.37 466.908C302.917 466.828 304.05 466.575 304.77 466.148C305.517 465.722 306.064 464.935 306.41 463.788C306.757 462.615 306.93 460.828 306.93 458.428ZM328.336 448.188H331.256V454.588C332.403 454.375 333.629 454.268 334.936 454.268C338.083 454.268 340.469 454.922 342.096 456.228C343.723 457.508 344.536 459.295 344.536 461.588C344.536 466.788 341.203 469.388 334.536 469.388C332.323 469.388 330.256 469.188 328.336 468.788V448.188ZM331.256 456.988V466.628C332.323 466.868 333.483 466.988 334.736 466.988C339.349 466.988 341.656 465.188 341.656 461.588C341.656 458.308 339.283 456.668 334.536 456.668C333.363 456.668 332.269 456.775 331.256 456.988ZM373.517 468.988H349.117V448.188H351.997V466.508H359.917V448.188H362.717V466.508H370.637V448.188H373.517V468.988ZM382.548 464.908H382.628L394.468 448.188H397.748V468.988H394.708V452.268H394.668L382.788 468.988H379.508V448.188H382.548V464.908ZM405.366 457.388H418.166C418.139 455.068 417.579 453.282 416.486 452.028C415.392 450.775 413.886 450.148 411.966 450.148C409.966 450.148 408.379 450.788 407.206 452.068C406.059 453.322 405.446 455.095 405.366 457.388ZM405.366 459.708C405.419 461.975 406.112 463.762 407.446 465.068C408.779 466.375 410.512 467.028 412.646 467.028C414.699 467.028 416.739 466.495 418.766 465.428L419.566 467.708C417.326 468.828 414.926 469.388 412.366 469.388C409.379 469.388 406.966 468.415 405.126 466.468C403.286 464.522 402.366 461.895 402.366 458.588C402.366 455.228 403.219 452.588 404.926 450.668C406.659 448.748 409.006 447.788 411.966 447.788C414.846 447.788 417.072 448.708 418.646 450.548C420.246 452.362 421.046 454.975 421.046 458.388C421.046 458.735 421.019 459.175 420.966 459.708H405.366ZM450.798 452.428C449.598 450.935 447.944 450.188 445.838 450.188C443.731 450.188 442.064 450.935 440.838 452.428C439.638 453.895 439.038 455.948 439.038 458.588C439.038 461.228 439.638 463.295 440.838 464.788C442.064 466.255 443.731 466.988 445.838 466.988C447.944 466.988 449.598 466.255 450.798 464.788C452.024 463.295 452.638 461.228 452.638 458.588C452.638 455.948 452.024 453.895 450.798 452.428ZM452.958 466.468C451.171 468.415 448.798 469.388 445.838 469.388C442.878 469.388 440.504 468.415 438.718 466.468C436.931 464.522 436.038 461.895 436.038 458.588C436.038 455.282 436.931 452.655 438.718 450.708C440.504 448.762 442.878 447.788 445.838 447.788C448.798 447.788 451.171 448.762 452.958 450.708C454.744 452.655 455.638 455.282 455.638 458.588C455.638 461.895 454.744 464.522 452.958 466.468ZM469.25 469.388C466.343 469.388 464.077 468.468 462.45 466.628C460.85 464.762 460.05 462.122 460.05 458.708V449.908C460.05 446.202 460.943 443.522 462.73 441.868C464.543 440.215 467.423 439.388 471.37 439.388C473.397 439.388 475.33 439.255 477.17 438.988V441.388C475.463 441.655 473.53 441.788 471.37 441.788C468.25 441.788 466.063 442.388 464.81 443.588C463.583 444.762 462.97 446.828 462.97 449.788V452.068H463.05C464.49 449.748 466.783 448.588 469.93 448.588C472.357 448.588 474.33 449.535 475.85 451.428C477.397 453.295 478.17 455.815 478.17 458.988C478.17 462.295 477.383 464.855 475.81 466.668C474.237 468.482 472.05 469.388 469.25 469.388ZM475.29 458.988C475.29 456.508 474.73 454.562 473.61 453.148C472.517 451.708 471.063 450.988 469.25 450.988C467.33 450.988 465.797 451.655 464.65 452.988C463.53 454.322 462.97 456.188 462.97 458.588V459.108C462.97 461.508 463.53 463.428 464.65 464.868C465.797 466.282 467.29 466.988 469.13 466.988C471.05 466.988 472.557 466.295 473.65 464.908C474.743 463.495 475.29 461.522 475.29 458.988ZM496.93 452.428C495.73 450.935 494.077 450.188 491.97 450.188C489.864 450.188 488.197 450.935 486.97 452.428C485.77 453.895 485.17 455.948 485.17 458.588C485.17 461.228 485.77 463.295 486.97 464.788C488.197 466.255 489.864 466.988 491.97 466.988C494.077 466.988 495.73 466.255 496.93 464.788C498.157 463.295 498.77 461.228 498.77 458.588C498.77 455.948 498.157 453.895 496.93 452.428ZM499.09 466.468C497.304 468.415 494.93 469.388 491.97 469.388C489.01 469.388 486.637 468.415 484.85 466.468C483.064 464.522 482.17 461.895 482.17 458.588C482.17 455.282 483.064 452.655 484.85 450.708C486.637 448.762 489.01 447.788 491.97 447.788C494.93 447.788 497.304 448.762 499.09 450.708C500.877 452.655 501.77 455.282 501.77 458.588C501.77 461.895 500.877 464.522 499.09 466.468ZM516.103 469.388C513.089 469.388 510.849 468.175 509.383 465.748H509.303V477.788H506.383V448.188H509.183L509.223 451.708H509.303C510.769 449.095 513.036 447.788 516.103 447.788C518.716 447.788 520.769 448.722 522.263 450.588C523.756 452.428 524.503 455.095 524.503 458.588C524.503 462.002 523.729 464.655 522.183 466.548C520.663 468.442 518.636 469.388 516.103 469.388ZM521.623 458.588C521.623 455.868 521.076 453.788 519.983 452.348C518.916 450.908 517.409 450.188 515.463 450.188C513.623 450.188 512.129 450.908 510.983 452.348C509.863 453.788 509.303 455.775 509.303 458.308V458.868C509.303 461.455 509.876 463.455 511.023 464.868C512.169 466.282 513.649 466.988 515.463 466.988C517.356 466.988 518.849 466.268 519.943 464.828C521.063 463.362 521.623 461.282 521.623 458.588ZM542.673 452.428C541.473 450.935 539.819 450.188 537.713 450.188C535.606 450.188 533.939 450.935 532.713 452.428C531.513 453.895 530.913 455.948 530.913 458.588C530.913 461.228 531.513 463.295 532.713 464.788C533.939 466.255 535.606 466.988 537.713 466.988C539.819 466.988 541.473 466.255 542.673 464.788C543.899 463.295 544.513 461.228 544.513 458.588C544.513 455.948 543.899 453.895 542.673 452.428ZM544.833 466.468C543.046 468.415 540.673 469.388 537.713 469.388C534.753 469.388 532.379 468.415 530.593 466.468C528.806 464.522 527.913 461.895 527.913 458.588C527.913 455.282 528.806 452.655 530.593 450.708C532.379 448.762 534.753 447.788 537.713 447.788C540.673 447.788 543.046 448.762 544.833 450.708C546.619 452.655 547.513 455.282 547.513 458.588C547.513 461.895 546.619 464.522 544.833 466.468ZM569.285 450.628H561.685V468.988H558.525V450.628H550.925V448.188H569.285V450.628ZM593.678 468.988V448.188H596.558V468.988H593.678ZM574.078 448.188H576.998V454.588C578.145 454.375 579.371 454.268 580.678 454.268C583.825 454.268 586.211 454.922 587.838 456.228C589.465 457.508 590.278 459.295 590.278 461.588C590.278 466.788 586.945 469.388 580.278 469.388C578.065 469.388 575.998 469.188 574.078 468.788V448.188ZM576.998 456.988V466.628C578.065 466.868 579.225 466.988 580.478 466.988C585.091 466.988 587.398 465.188 587.398 461.588C587.398 458.308 585.025 456.668 580.278 456.668C579.105 456.668 578.011 456.775 576.998 456.988Z" fill="black"/>
<path d="M300.239 56.2523C303.567 56.2523 306.655 55.3403 309.503 53.5163L310.799 56.3963C307.663 58.4443 304.031 59.4683 299.903 59.4683C294.623 59.4683 290.399 57.8363 287.231 54.5723C284.063 51.3083 282.479 46.9403 282.479 41.4683C282.479 35.9323 284.047 31.5483 287.183 28.3163C290.319 25.0843 294.559 23.4683 299.903 23.4683C304.031 23.4683 307.663 24.4923 310.799 26.5403L309.503 29.4203C306.655 27.5963 303.567 26.6843 300.239 26.6843C296.015 26.6843 292.639 28.0283 290.111 30.7163C287.615 33.3723 286.367 36.9563 286.367 41.4683C286.367 45.9803 287.647 49.5803 290.207 52.2683C292.799 54.9243 296.143 56.2523 300.239 56.2523ZM338.126 36.9563H329.006V58.9883H325.214V36.9563H316.094V34.0283H338.126V36.9563ZM361.733 34.0283H365.573L355.877 58.9883C354.213 63.2763 352.437 66.1883 350.549 67.7243C348.661 69.2603 345.989 70.0283 342.533 70.0283L342.341 67.1003C344.933 67.1003 346.933 66.5403 348.341 65.4203C349.749 64.3323 351.077 62.1883 352.325 58.9883L342.197 34.0283H346.133L354.149 54.7163H354.245L361.733 34.0283ZM375.63 56.1083H388.83V36.9083H378.51C378.51 39.9483 378.51 42.0763 378.51 43.2923C378.51 44.5083 378.462 45.9323 378.366 47.5643C378.302 49.1643 378.222 50.2043 378.126 50.6843C378.062 51.1323 377.902 51.7723 377.646 52.6043C377.39 53.4363 377.118 54.0443 376.83 54.4283C376.574 54.7803 376.174 55.3403 375.63 56.1083ZM371.454 56.1083C372.158 55.2443 372.654 54.6363 372.942 54.2843C373.23 53.9003 373.55 53.2923 373.902 52.4603C374.254 51.5963 374.462 50.9403 374.526 50.4923C374.622 50.0123 374.718 49.0043 374.814 47.4683C374.942 45.9003 375.006 44.4923 375.006 43.2443C375.006 41.9643 375.006 39.8523 375.006 36.9083V34.0283H392.334V56.1083H395.694V64.7483H392.19V58.9883H372.654V64.7483H369.15V56.1083H371.454ZM403.125 45.0683H418.485C418.453 42.2843 417.781 40.1403 416.469 38.6363C415.157 37.1323 413.349 36.3803 411.045 36.3803C408.645 36.3803 406.741 37.1483 405.333 38.6843C403.957 40.1883 403.221 42.3163 403.125 45.0683ZM403.125 47.8523C403.189 50.5723 404.021 52.7163 405.621 54.2843C407.221 55.8523 409.301 56.6363 411.861 56.6363C414.325 56.6363 416.773 55.9963 419.205 54.7163L420.165 57.4523C417.477 58.7963 414.597 59.4683 411.525 59.4683C407.941 59.4683 405.045 58.3003 402.837 55.9643C400.629 53.6283 399.525 50.4763 399.525 46.5083C399.525 42.4763 400.549 39.3083 402.597 37.0043C404.677 34.7003 407.493 33.5483 411.045 33.5483C414.501 33.5483 417.173 34.6523 419.061 36.8603C420.981 39.0363 421.941 42.1723 421.941 46.2683C421.941 46.6843 421.909 47.2123 421.845 47.8523H403.125ZM431.434 46.9883V58.9883H427.69V34.0283H431.434V44.2043H445.594V34.0283H449.338V58.9883H445.594V46.9883H431.434ZM477.11 36.9563H467.99V58.9883H464.198V36.9563H455.078V34.0283H477.11V36.9563ZM506.382 58.9883V34.0283H509.838V58.9883H506.382ZM482.862 34.0283H486.366V41.7083C487.742 41.4523 489.214 41.3243 490.782 41.3243C494.558 41.3243 497.422 42.1083 499.374 43.6763C501.326 45.2123 502.302 47.3563 502.302 50.1083C502.302 56.3483 498.302 59.4683 490.302 59.4683C487.646 59.4683 485.166 59.2283 482.862 58.7483V34.0283ZM486.366 44.5883V56.1563C487.646 56.4443 489.038 56.5883 490.542 56.5883C496.078 56.5883 498.846 54.4283 498.846 50.1083C498.846 46.1723 495.998 44.2043 490.302 44.2043C488.894 44.2043 487.582 44.3323 486.366 44.5883Z" fill="black"/>
<path d="M1040.87 23.9483V38.5883H1059.11V23.9483H1062.95V58.9883H1059.11V41.6603H1040.87V58.9883H1037.03V23.9483H1040.87ZM1088.49 34.0283H1092.33L1082.63 58.9883C1080.97 63.2763 1079.19 66.1883 1077.3 67.7243C1075.42 69.2603 1072.74 70.0283 1069.29 70.0283L1069.1 67.1003C1071.69 67.1003 1073.69 66.5403 1075.1 65.4203C1076.5 64.3323 1077.83 62.1883 1079.08 58.9883L1068.95 34.0283H1072.89L1080.9 54.7163H1081L1088.49 34.0283ZM1110.45 58.9883V47.4683H1107.9L1100.13 58.9883H1096.38L1105.17 45.9323L1096.62 34.0283H1100.42L1107.9 44.4923H1110.45V34.0283H1114V44.4923H1116.54L1124.03 34.0283H1127.82L1119.28 45.9323L1128.06 58.9883H1124.32L1116.54 47.4683H1114V58.9883H1110.45ZM1138.85 56.1083H1152.05V36.9083H1141.73C1141.73 39.9483 1141.73 42.0763 1141.73 43.2923C1141.73 44.5083 1141.69 45.9323 1141.59 47.5643C1141.53 49.1643 1141.45 50.2043 1141.35 50.6843C1141.29 51.1323 1141.13 51.7723 1140.87 52.6043C1140.61 53.4363 1140.34 54.0443 1140.05 54.4283C1139.8 54.7803 1139.4 55.3403 1138.85 56.1083ZM1134.68 56.1083C1135.38 55.2443 1135.88 54.6363 1136.17 54.2843C1136.45 53.9003 1136.77 53.2923 1137.13 52.4603C1137.48 51.5963 1137.69 50.9403 1137.75 50.4923C1137.85 50.0123 1137.94 49.0043 1138.04 47.4683C1138.17 45.9003 1138.23 44.4923 1138.23 43.2443C1138.23 41.9643 1138.23 39.8523 1138.23 36.9083V34.0283H1155.56V56.1083H1158.92V64.7483H1155.41V58.9883H1135.88V64.7483H1132.37V56.1083H1134.68ZM1173.55 33.5483C1177.04 33.5483 1179.53 34.2683 1181.04 35.7083C1182.54 37.1483 1183.29 39.5163 1183.29 42.8123V52.2683C1183.29 54.5403 1183.53 56.7803 1184.01 58.9883H1180.65C1180.4 57.7403 1180.24 56.2683 1180.17 54.5723H1180.08C1179.21 56.1083 1177.96 57.3083 1176.33 58.1723C1174.7 59.0363 1172.86 59.4683 1170.81 59.4683C1168.51 59.4683 1166.67 58.8283 1165.29 57.5483C1163.92 56.2363 1163.23 54.4763 1163.23 52.2683C1163.23 49.4843 1164.44 47.2763 1166.88 45.6443C1169.31 43.9803 1172.76 43.1483 1177.24 43.1483H1179.79V42.9083C1179.79 40.4763 1179.32 38.7963 1178.4 37.8683C1177.5 36.9083 1175.88 36.4283 1173.55 36.4283C1170.54 36.4283 1167.74 37.1643 1165.15 38.6363L1164.52 35.8043C1167.28 34.3003 1170.28 33.5483 1173.55 33.5483ZM1166.68 52.1243C1166.68 53.5643 1167.13 54.7003 1168.03 55.5323C1168.92 56.3323 1170.12 56.7323 1171.63 56.7323C1173.84 56.7323 1175.74 55.9483 1177.34 54.3803C1178.97 52.7803 1179.79 50.8283 1179.79 48.5243V45.8363H1177.24C1173.88 45.8363 1171.28 46.4123 1169.42 47.5643C1167.6 48.6843 1166.68 50.2043 1166.68 52.1243ZM1190.73 34.0283H1194.18V45.0683H1200.23C1200.45 41.4523 1201.57 38.6363 1203.59 36.6203C1205.61 34.5723 1208.23 33.5483 1211.46 33.5483C1214.92 33.5483 1217.65 34.7003 1219.67 37.0043C1221.72 39.3083 1222.74 42.4763 1222.74 46.5083C1222.74 50.5403 1221.72 53.7083 1219.67 56.0123C1217.65 58.3163 1214.92 59.4683 1211.46 59.4683C1208.23 59.4683 1205.61 58.4603 1203.59 56.4443C1201.57 54.3963 1200.45 51.5643 1200.23 47.9483H1194.18V58.9883H1190.73V34.0283ZM1205.8 53.9483C1207.17 55.7083 1209.06 56.5883 1211.46 56.5883C1213.86 56.5883 1215.73 55.7083 1217.08 53.9483C1218.45 52.1883 1219.14 49.7083 1219.14 46.5083C1219.14 43.3083 1218.45 40.8283 1217.08 39.0683C1215.73 37.3083 1213.86 36.4283 1211.46 36.4283C1209.06 36.4283 1207.17 37.3083 1205.8 39.0683C1204.42 40.8283 1203.73 43.3083 1203.73 46.5083C1203.73 49.7083 1204.42 52.1883 1205.8 53.9483ZM1231.96 56.0123H1241.47V34.0283H1244.83V56.0123H1254.33V34.0283H1257.79V56.0123H1261.63V64.7483H1258.41V58.9883H1228.51V34.0283H1231.96V56.0123ZM1270.54 54.0923H1270.64L1284.85 34.0283H1288.78V58.9883H1285.14V38.9243H1285.09L1270.83 58.9883H1266.9V34.0283H1270.54V54.0923ZM1297.93 45.0683H1313.29C1313.25 42.2843 1312.58 40.1403 1311.27 38.6363C1309.96 37.1323 1308.15 36.3803 1305.85 36.3803C1303.45 36.3803 1301.54 37.1483 1300.13 38.6843C1298.76 40.1883 1298.02 42.3163 1297.93 45.0683ZM1297.93 47.8523C1297.99 50.5723 1298.82 52.7163 1300.42 54.2843C1302.02 55.8523 1304.1 56.6363 1306.66 56.6363C1309.13 56.6363 1311.57 55.9963 1314.01 54.7163L1314.97 57.4523C1312.28 58.7963 1309.4 59.4683 1306.33 59.4683C1302.74 59.4683 1299.85 58.3003 1297.64 55.9643C1295.43 53.6283 1294.33 50.4763 1294.33 46.5083C1294.33 42.4763 1295.35 39.3083 1297.4 37.0043C1299.48 34.7003 1302.29 33.5483 1305.85 33.5483C1309.3 33.5483 1311.97 34.6523 1313.86 36.8603C1315.78 39.0363 1316.74 42.1723 1316.74 46.2683C1316.74 46.6843 1316.71 47.2123 1316.65 47.8523H1297.93ZM1333.43 36.4763C1330.62 36.4763 1328.43 37.3563 1326.86 39.1163C1325.29 40.8443 1324.51 43.3083 1324.51 46.5083C1324.51 49.5803 1325.32 52.0283 1326.95 53.8523C1328.62 55.6763 1330.78 56.5883 1333.43 56.5883C1335.67 56.5883 1337.82 56.0443 1339.87 54.9563L1340.83 57.7883C1338.43 58.9083 1335.91 59.4683 1333.29 59.4683C1329.58 59.4683 1326.57 58.3003 1324.27 55.9643C1321.96 53.5963 1320.81 50.4443 1320.81 46.5083C1320.81 42.4443 1321.91 39.2763 1324.12 37.0043C1326.33 34.7003 1329.39 33.5483 1333.29 33.5483C1335.91 33.5483 1338.43 34.1083 1340.83 35.2283L1339.87 38.1563C1337.72 37.0363 1335.58 36.4763 1333.43 36.4763ZM1353.28 47.0843C1351.36 46.6683 1349.78 45.9483 1348.53 44.9243C1347.31 43.8683 1346.7 42.4603 1346.7 40.7003C1346.7 36.0283 1350.46 33.6923 1357.98 33.6923C1360.64 33.6923 1363.23 33.8683 1365.76 34.2203V58.9883H1362.11V48.2843H1358.8C1357.04 48.2843 1355.81 48.5083 1355.1 48.9563C1354.43 49.3723 1353.66 50.4603 1352.8 52.2203L1349.58 58.9883H1345.89L1349.39 51.9323C1350.16 50.3963 1350.82 49.2923 1351.36 48.6203C1351.94 47.9483 1352.58 47.4683 1353.28 47.1803V47.0843ZM1362.11 45.5963V36.7163C1360.83 36.5243 1359.5 36.4283 1358.13 36.4283C1352.85 36.4283 1350.21 37.9483 1350.21 40.9883C1350.21 44.0603 1353.02 45.5963 1358.66 45.5963H1362.11Z" fill="black"/>
<path d="M434.937 261.836C436.063 262.003 437.186 262.454 438.26 262.826L445.009 265.372L452.801 269.048L452.826 270.808C456.526 271.289 459.29 272.502 462.452 274.43C463.943 275.061 465.333 276.252 466.589 277.265C469.362 279.501 471.971 281.769 474.321 284.454L476.999 287.782C479.454 291.917 481.842 295.816 483.409 300.409C483.757 301.43 484.175 302.508 484.39 303.565C486.861 312.721 486.186 322.553 486.201 331.959L486.23 354.849L462.496 354.942L456.039 354.951C455.084 354.948 453.876 355.079 452.953 354.865L434.812 354.87L434.836 332.115L434.854 283.682L434.844 269.623C435.002 268.917 434.896 267.99 434.901 267.261L434.937 261.836Z" fill="#38437A"/>
<path d="M444.985 332.102L452.903 332.106L452.953 354.865L434.812 354.869L434.836 332.115L444.985 332.102Z" fill="#B73D2E"/>
<path d="M445.009 265.373L452.801 269.049L452.826 270.808L452.902 332.107L444.984 332.103L445.009 265.373Z" fill="#E3874D"/>
<path d="M434.937 261.836C436.064 262.003 437.186 262.454 438.26 262.826L445.01 265.372L444.985 332.102L434.836 332.115L434.855 283.682L434.844 269.623C435.003 268.917 434.896 267.99 434.901 267.261L434.937 261.836Z" fill="#D8583E"/>
<path d="M462.453 274.43C463.944 275.06 465.334 276.251 466.59 277.264C469.362 279.5 471.972 281.769 474.321 284.454L477 287.781C479.454 291.917 481.842 295.816 483.409 300.408C483.757 301.429 484.175 302.507 484.39 303.564C486.862 312.721 486.187 322.553 486.202 331.958L486.23 354.849L462.496 354.942L456.04 354.951C455.085 354.948 453.877 355.079 452.953 354.865C453.896 354.673 455.016 354.801 455.987 354.803L462.433 354.818L462.453 274.43Z" fill="#677FC2"/>
<path d="M350.313 264.74C352.832 263.428 356.024 262.02 358.797 261.424L359.05 261.589L359.169 262.5L359.231 267.191C359.238 267.923 359.156 268.783 359.277 269.5L359.377 283.491L359.508 332.183L359.537 354.869L341.368 354.843L332.255 354.847L307.839 354.842L307.822 331.248C307.814 322.311 307.049 312.629 309.72 303.99C310.923 299.289 313.072 294.494 315.628 290.375L318.344 286.368L318.41 286.258L322.729 281.477C325.54 278.635 328.895 276.212 332.275 274.095C335.161 272.337 338.377 271.362 341.411 269.924C344.244 267.818 347.129 266.232 350.313 264.74Z" fill="#38437A"/>
<path d="M350.426 332.121L359.509 332.184L359.539 354.869L341.369 354.843L341.363 332.155L350.426 332.121Z" fill="#B73D2E"/>
<path d="M341.413 269.924C344.246 267.819 347.131 266.232 350.315 264.74L350.426 332.121L341.363 332.155L341.413 269.924Z" fill="#D8583E"/>
<path d="M350.312 264.74C352.831 263.428 356.024 262.02 358.796 261.424L359.049 261.589L359.168 262.5L359.231 267.191C359.237 267.923 359.156 268.783 359.276 269.5L359.377 283.491L359.507 332.183L350.423 332.12L350.312 264.74Z" fill="#E3874D"/>
<path d="M318.41 286.259L322.729 281.478C325.54 278.636 328.895 276.213 332.275 274.096L332.255 354.847L307.839 354.842L307.822 331.248C307.814 322.312 307.049 312.63 309.72 303.991C310.923 299.29 313.072 294.495 315.628 290.376L318.344 286.369L318.41 286.259Z" fill="#677FC2"/>
<path d="M416.051 240.703L415.998 247.265C415.994 248.411 415.908 249.614 416.021 250.75L418.489 248.147L430.692 260.388C432.042 261.209 433.399 261.55 434.934 261.837L434.898 267.261C434.893 267.99 435 268.918 434.842 269.623L434.852 283.682L434.833 332.116L434.81 354.87L359.536 354.87L359.506 332.184L359.376 283.492L359.276 269.501C359.155 268.784 359.237 267.924 359.23 267.192L359.168 262.501C360.825 261.684 362.486 261.111 363.955 259.945L375.892 248.299C376.433 249.226 377.211 249.957 377.958 250.717L377.946 241.438C378.776 241.497 379.621 241.793 380.433 241.984L384.765 242.817C391.122 243.723 397.399 244.061 403.809 243.545C408.014 243.206 412.216 242.551 416.051 240.703Z" fill="#E2DEF6"/>
<path d="M393.015 286.828C394.348 286.683 395.736 286.777 397.078 286.786L402.859 286.83C402.688 288.664 403.187 290.966 403.444 292.804L404.642 302.208C404.836 303.685 405.218 305.279 405.284 306.756C405.314 307.447 403.675 309.306 403.183 310.014C401.062 313.068 399.156 316.325 396.695 319.124L387.113 305.262L393.015 286.828Z" fill="#D8583E"/>
<path d="M359.277 269.5L396.971 329.093C397.849 328.251 398.543 326.695 399.212 325.653L404.951 316.779L424.775 285.713L431.049 275.635C432.278 273.639 433.451 271.503 434.843 269.623L434.853 283.682C434.332 284.026 433.986 284.731 433.629 285.243L429.842 291.143L410.748 320.65L403.828 331.404C402.508 333.413 401.208 335.551 399.684 337.414C399.393 337.769 399.175 337.953 398.737 338.096L398.547 338.154C398.287 338.243 398.07 338.328 397.793 338.367C396.708 338.517 395.666 338.394 394.811 337.666C393.386 336.452 392.362 334.484 391.36 332.915L387.626 327.167L374.532 307.019L360.784 285.155C360.404 284.578 360.06 283.955 359.481 283.556L359.378 283.491L359.277 269.5Z" fill="#38437A"/>
<path d="M416.053 240.703L415.999 247.265C415.995 248.411 415.91 249.614 416.022 250.75L418.491 248.147L430.694 260.388C429.583 262.895 428.03 265.158 426.578 267.474L419.05 279.27L414.729 286.208C414.275 286.894 413.854 287.76 413.25 288.31L407.475 282.108C406.777 281.386 406.095 280.531 405.323 279.895C404.618 280.863 403.91 281.931 403.599 283.1C403.431 284.202 403.369 285.833 402.859 286.831L397.078 286.787C395.736 286.779 394.348 286.685 393.016 286.83C392.78 286.76 392.512 286.695 392.321 286.53C391.915 286.18 391.637 285.458 391.36 284.998C390.862 284.173 390.274 283.387 389.716 282.6C389.223 282.127 388.822 281.428 388.419 280.87L379.487 291.034L363.957 259.945L375.893 248.299C376.435 249.226 377.212 249.957 377.96 250.717L377.948 241.438C378.777 241.497 379.623 241.793 380.435 241.984L384.767 242.817C391.124 243.723 397.401 244.061 403.81 243.545C408.016 243.206 412.218 242.551 416.053 240.703Z" fill="#FEFEFE"/>
<path d="M388.418 280.87L397.24 270.742L405.322 279.895C404.616 280.863 403.909 281.931 403.598 283.1C403.43 284.202 403.368 285.833 402.858 286.831L397.077 286.787C395.735 286.778 394.347 286.685 393.015 286.829C392.779 286.76 392.511 286.695 392.32 286.53C391.914 286.18 391.636 285.457 391.359 284.998C390.86 284.172 390.272 283.387 389.715 282.6C389.222 282.127 388.821 281.428 388.418 280.87Z" fill="#D8583E"/>
<path d="M389.715 282.6L398.967 282.552C400.353 282.551 401.935 282.402 403.298 282.622C403.493 282.821 403.522 282.813 403.598 283.1C403.43 284.202 403.368 285.833 402.858 286.831L397.077 286.787C395.735 286.778 394.347 286.684 393.015 286.829C392.779 286.759 392.511 286.695 392.32 286.53C391.914 286.18 391.636 285.457 391.359 284.998C390.861 284.172 390.273 283.386 389.715 282.6Z" fill="#7F222F"/>
<path d="M416.05 240.703L415.997 247.265C415.993 248.411 415.908 249.614 416.02 250.75C414.78 252.568 412.732 254.304 411.192 255.894L402.963 264.534C401.097 266.467 399.035 268.356 397.363 270.458L397.218 270.643L377.957 250.717L377.945 241.438C378.775 241.497 379.621 241.793 380.433 241.984L384.764 242.817C391.121 243.723 397.398 244.061 403.808 243.545C408.014 243.206 412.216 242.551 416.05 240.703Z" fill="#F8B796"/>
<path d="M359.379 283.492L359.482 283.557C360.062 283.955 360.405 284.579 360.785 285.156L374.534 307.02L387.628 327.168L391.361 332.916C392.363 334.485 393.387 336.453 394.812 337.666C395.667 338.395 396.71 338.518 397.794 338.368C398.071 338.329 398.288 338.244 398.549 338.154L398.739 338.097C399.176 337.954 399.394 337.77 399.685 337.415C401.209 335.552 402.509 333.414 403.83 331.405L410.75 320.65L429.844 291.143L433.63 285.244C433.987 284.732 434.333 284.027 434.855 283.682L434.836 332.116L434.813 354.871L359.539 354.87L359.509 332.184L359.379 283.492Z" fill="#435794"/>
<path d="M343.754 175.507C345.699 174.31 348.301 173.267 350.62 173.9C352.141 174.315 353.253 175.654 353.958 176.997C354.457 177.947 354.699 179.044 355.249 179.962C355.076 181.27 355.403 185.411 354.875 186.284C355.316 189.038 355.127 191.962 355.126 194.748C355.137 197.25 354.903 200.14 355.428 202.577C355.786 202.83 355.851 202.772 356.297 202.738L355.705 203.124C354.266 203.311 353.015 203.396 351.6 203.033C347.992 202.107 344.643 200.475 342.146 197.635C339.203 194.288 338.138 189.954 338.434 185.574C338.699 181.657 340.834 178.038 343.754 175.507Z" fill="#F8B796"/>
<path d="M355.125 194.749C353.659 194.811 351.965 195.015 350.537 194.641C348.363 194.071 346.525 192.622 345.404 190.681C344.425 188.985 344.091 186.76 344.636 184.865C345.171 183.004 346.397 181.166 348.164 180.255C348.577 180.041 349.055 179.894 349.509 180.065C352.473 181.18 353.73 183.555 354.873 186.286C355.314 189.04 355.126 191.963 355.125 194.749Z" fill="#F58B7A"/>
<path d="M438.948 178.514L439.029 179.037C439.374 178.785 439.527 178.258 439.727 177.875C440.744 175.929 442.005 174.509 444.031 173.629C445.837 172.845 448.013 173.267 449.771 173.939C453.098 176.483 455.214 179.647 455.761 183.859C456.022 185.876 455.915 187.888 455.521 189.875C454.679 194.117 451.745 198.33 448.201 200.754C445.764 202.421 441.856 203.637 438.911 203.018L438.648 202.957C438.856 202.73 439.1 202.498 439.206 202.203C439.423 201.6 439.304 200.604 439.302 199.954L439.274 194.933L439.26 187.33C439.258 186.067 439.081 184.537 439.393 183.321C439.178 182.198 439.398 180.645 438.988 179.634C438.806 179.185 438.799 178.969 438.815 178.481L438.948 178.514Z" fill="#F8B796"/>
<path d="M439.396 183.321C439.988 182.292 440.589 181.314 441.463 180.491C442.317 179.686 443.256 179.067 444.468 179.184C445.617 179.296 446.974 180.603 447.627 181.469C448.44 182.546 448.886 183.742 449.128 185.059L449.166 185.257C449.36 186.357 449.338 187.694 449.01 188.756C448.816 189.39 448.603 189.958 448.327 190.56C447.554 192.249 446.162 193.643 444.413 194.294C442.731 194.921 441.047 194.967 439.277 194.934L439.263 187.331C439.261 186.068 439.084 184.538 439.396 183.321Z" fill="#F58B7A"/>
<path d="M343.752 175.508C341.635 163.359 341.493 150.741 341.411 138.437C341.39 135.239 341.037 131.751 341.433 128.599L341.638 127.151C342.688 121.174 346.248 115.957 351.206 112.496C356.373 108.89 362.639 107.272 368.863 108.392C370.424 105.952 372.191 103.606 374.253 101.564C381.298 94.5885 390.612 91.9355 400.32 91.9891C406.834 92.025 413.177 93.3954 419.358 95.376C428.355 98.2588 436.864 102.427 444.484 108.042C448.674 111.13 452.38 114.631 456.03 118.324L443.629 126.848L461.913 133.176C459.682 138.064 457.2 142.666 453.898 146.932C453.094 147.971 452.185 148.964 451.265 149.9C450.888 150.282 450.009 150.924 449.806 151.339C449.719 151.515 449.799 152.343 449.798 152.574L449.712 156.343L449.772 173.938C448.013 173.266 445.837 172.845 444.031 173.629C442.005 174.509 440.744 175.929 439.727 177.875C439.527 178.258 439.374 178.785 439.029 179.037L438.948 178.514L438.815 178.481C438.799 178.969 438.806 179.185 438.988 179.634C439.398 180.645 439.178 182.198 439.393 183.32C439.081 184.537 439.258 186.067 439.26 187.33L439.274 194.933L439.302 199.954C439.304 200.604 439.423 201.6 439.206 202.203C439.1 202.498 438.856 202.73 438.649 202.957L438.525 202.972C437.984 203.467 437.798 204.582 437.534 205.291L436.101 208.69C433.16 215.154 428.344 221.259 422.738 225.634C420.682 227.239 418.479 228.558 416.247 229.895L415.99 230.049L416.051 240.703C412.216 242.55 408.014 243.205 403.808 243.544C397.399 244.06 391.121 243.723 384.765 242.817L380.433 241.983C379.621 241.793 378.775 241.497 377.945 241.438L377.994 229.948C377.574 229.721 377.136 229.589 376.684 229.444L376.124 229.011C375.388 228.268 374.257 227.718 373.396 227.12C372.153 226.257 370.949 225.322 369.805 224.333C363.405 218.801 358.77 210.79 356.295 202.739C355.849 202.773 355.784 202.831 355.426 202.577C354.901 200.141 355.135 197.25 355.124 194.749C355.125 191.963 355.313 189.039 354.873 186.285C355.401 185.412 355.074 181.271 355.247 179.963C354.697 179.045 354.455 177.948 353.956 176.998C353.251 175.655 352.139 174.316 350.617 173.901C348.299 173.268 345.697 174.311 343.752 175.508Z" fill="#44243C"/>
<path d="M371.031 139.852L378.837 137.164C379.681 137.713 380.543 139.379 381.273 140.184C382.449 141.48 383.744 142.682 385.1 143.788C391.438 148.958 399.135 152.586 406.956 154.858L414.446 156.662C412.519 153.236 411.339 149.391 410.605 145.544C412.807 147.338 415.118 148.774 417.584 150.164C422.839 153.125 428.202 155.284 434.207 156.08C435.737 156.283 437.434 156.236 438.973 156.133C441.756 155.565 444.308 154.931 446.78 153.454C447.776 152.859 448.69 152.092 449.639 151.421C449.636 152.982 449.469 154.813 449.714 156.344L449.773 173.939C448.015 173.267 445.839 172.845 444.033 173.629C442.007 174.509 440.746 175.93 439.729 177.875C439.529 178.258 439.376 178.785 439.031 179.037L438.95 178.514L438.817 178.481L438.838 160.378C435.503 160.986 432.116 161.438 428.721 161.462L422.861 161.47C421.949 161.482 420.934 161.412 420.034 161.553C419.353 161.66 418.968 161.609 418.464 162.153L418.83 162.189C419.046 162.176 419.201 162.083 419.421 162.145L420.315 162.462L414.217 162.452C413.664 162.045 412.949 162 412.289 161.879L409.416 161.291C397.535 158.603 385.918 153.459 376.542 145.602C374.592 143.968 372.404 142.022 371.031 139.852Z" fill="#F8B796"/>
<path d="M438.972 156.132C441.755 155.564 444.307 154.93 446.779 153.454C447.776 152.858 448.689 152.091 449.639 151.42C449.636 152.982 449.469 154.812 449.713 156.343L449.773 173.938C448.014 173.266 445.838 172.844 444.032 173.628C442.006 174.508 440.745 175.929 439.728 177.874C439.528 178.257 439.376 178.785 439.031 179.036L438.949 178.513L438.972 156.132Z" fill="#371524"/>
<path d="M355.249 179.963C355.038 178.135 355.003 154.477 355.275 153.833C358.114 147.13 364.451 142.485 371.032 139.852C372.404 142.022 374.593 143.968 376.543 145.602C385.918 153.459 397.535 158.603 409.417 161.291L412.29 161.879C412.95 162 413.665 162.045 414.218 162.452L420.316 162.462L419.421 162.145C419.202 162.083 419.046 162.176 418.831 162.189L418.464 162.153C418.968 161.609 419.353 161.66 420.035 161.553C420.935 161.412 421.949 161.482 422.861 161.47L428.722 161.462C432.117 161.438 435.504 160.986 438.838 160.378L438.817 178.481C438.801 178.97 438.808 179.185 438.99 179.635C439.4 180.645 439.18 182.199 439.396 183.321C439.083 184.538 439.26 186.067 439.263 187.33L439.277 194.933L439.305 199.954C439.306 200.604 439.425 201.6 439.209 202.203C439.102 202.498 438.859 202.73 438.651 202.957L438.527 202.972C437.986 203.467 437.8 204.582 437.536 205.291L436.103 208.69C433.162 215.154 428.346 221.259 422.74 225.634C420.684 227.239 418.481 228.558 416.249 229.895L415.992 230.049L416.053 240.703C412.218 242.55 408.016 243.206 403.811 243.544C397.401 244.06 391.124 243.723 384.767 242.817L380.435 241.983C379.623 241.793 378.778 241.497 377.948 241.438L377.997 229.948C377.576 229.721 377.139 229.589 376.686 229.444L376.126 229.011C375.39 228.268 374.26 227.719 373.398 227.12C372.156 226.257 370.951 225.322 369.807 224.333C363.407 218.802 358.773 210.79 356.297 202.74C355.852 202.774 355.786 202.831 355.428 202.578C354.903 200.141 355.137 197.251 355.126 194.749C355.127 191.963 355.316 189.039 354.875 186.286C355.403 185.412 355.076 181.271 355.249 179.963Z" fill="#FDD5BF"/>
<path d="M388.975 209.205C390.404 209.221 391.301 210.246 392.516 210.872C393.467 211.361 394.418 211.655 395.472 211.84C399.073 212.469 402.01 211.329 404.902 209.277C405.442 209.217 405.705 209.226 406.196 209.468C406.458 209.775 406.757 210.063 406.758 210.494C406.758 210.958 406.364 211.26 406.059 211.562C404.361 212.84 402.11 213.926 400.01 214.316C396.254 215.015 392.397 214.102 389.273 211.92C388.901 211.66 388.312 211.265 388.258 210.785C388.177 210.07 388.532 209.708 388.975 209.205Z" fill="#D8583E"/>
<path d="M394.586 192.556C395.401 192.502 396.188 192.482 396.976 192.725L397.208 192.8L397.634 192.936C399.09 193.448 400.522 194.241 401.151 195.723C401.425 196.365 401.426 197.317 401.155 197.96C400.842 198.704 400.187 199.056 399.474 199.347C398.054 199.702 396.266 199.733 394.863 199.288C393.98 199.009 393.179 198.492 392.784 197.625C392.395 196.772 392.732 194.726 393.056 193.877C393.333 193.153 393.914 192.853 394.586 192.556Z" fill="#F58B7A"/>
<path d="M374.588 176.445C375.987 176.366 377.132 176.482 378.361 177.248C379.641 178.045 380.505 179.255 380.851 180.723C381.182 182.123 380.801 183.715 380.032 184.903C379.08 186.374 377.666 187.142 375.999 187.502C374.881 187.59 373.658 187.483 372.65 186.953C371.278 186.232 370.279 184.998 369.834 183.52C369.403 182.09 369.711 180.582 370.437 179.307C371.399 177.616 372.799 176.928 374.588 176.445Z" fill="#2F2056"/>
<path d="M372.554 177.727C372.986 177.688 373.469 177.667 373.899 177.738C374.547 177.845 375.136 178.281 375.455 178.853C375.719 179.326 375.745 180.032 375.566 180.54C375.329 181.206 374.726 181.581 374.134 181.891C373.869 181.932 373.621 181.972 373.352 181.948C372.582 181.879 371.944 181.557 371.48 180.925C371.199 180.543 371.049 179.975 371.155 179.512C371.357 178.63 371.836 178.221 372.554 177.727Z" fill="#FEFEFE"/>
<path d="M418.591 176.02C418.956 176.015 419.35 176.055 419.71 176.116C421.21 176.369 422.591 177.219 423.476 178.459C424.3 179.614 424.603 181.151 424.389 182.549L424.349 182.786C424.209 183.641 423.908 184.419 423.381 185.116C422.31 186.534 420.729 187.113 419.034 187.391C417.845 187.391 416.561 187.129 415.565 186.449C414.355 185.623 413.281 184.109 413.076 182.639C412.857 181.067 413.284 179.485 414.249 178.232C415.413 176.719 416.778 176.25 418.591 176.02Z" fill="#2F2056"/>
<path d="M416.456 177.43C416.839 177.425 417.31 177.454 417.658 177.633C418.121 177.87 418.491 178.38 418.668 178.858C418.87 179.402 418.884 180.246 418.595 180.758C418.235 181.398 417.639 181.598 416.973 181.79L416.665 181.754C415.907 181.647 415.264 181.386 414.82 180.729C414.552 180.332 414.38 179.698 414.517 179.225C414.795 178.26 415.622 177.825 416.456 177.43Z" fill="#FEFEFE"/>
<path d="M414.218 162.451L420.317 162.461C422.573 162.537 424.996 162.829 427.188 163.354C428.095 163.571 429.037 163.847 429.68 164.566C430.195 165.141 430.497 165.961 430.436 166.736C430.369 167.598 429.968 168.444 429.272 168.972C428.989 169.187 428.388 169.569 428.033 169.568C427.102 169.566 426.232 169.309 425.324 169.137C423.965 168.88 422.583 168.724 421.204 168.637C420.032 168.562 418.853 168.507 417.68 168.576C416.624 168.638 415.445 168.85 414.4 168.697L414.214 168.665C413.738 168.586 413.386 168.438 412.996 168.145C412.382 167.682 411.814 166.829 411.748 166.049C411.676 165.196 411.997 163.99 412.598 163.361C413.041 162.896 413.632 162.676 414.218 162.451Z" fill="#2F2056"/>
<path d="M371.343 162.396C371.658 162.345 372.01 162.353 372.329 162.336C374.136 162.243 375.866 162.359 377.664 162.505C378.804 162.598 380.166 162.607 381.045 163.462C381.634 164.033 382.13 165.096 382.099 165.928C382.068 166.759 381.652 167.575 381.039 168.127C380.732 168.403 380.25 168.734 379.825 168.772C379 168.844 378.018 168.63 377.193 168.537C376.009 168.403 374.843 168.365 373.654 168.345C371.452 168.307 369.238 168.675 367.08 169.066C366.011 169.259 365.169 169.48 364.237 168.796C363.558 168.298 363.149 167.582 363.039 166.75C362.927 165.905 363.038 165.145 363.601 164.49C365.106 162.74 369.166 162.617 371.343 162.396Z" fill="#2F2056"/>
<path d="M377.994 229.947C387.219 234.942 397.392 236.584 407.56 233.538C410.38 232.694 413.468 231.575 415.99 230.049L416.05 240.702C412.216 242.55 408.014 243.205 403.808 243.544C397.398 244.06 391.121 243.723 384.764 242.816L380.433 241.983C379.621 241.792 378.775 241.497 377.945 241.437L377.994 229.947Z" fill="#F58B7A"/>
<path d="M1186.5 350.811L1200.61 350.811L1200.22 351.656C1199.45 353.042 1198.13 354.189 1196.58 354.609C1195.04 355.031 1193.08 354.868 1191.48 354.876L1182.85 354.888C1177.57 354.887 1172.12 355.162 1166.86 354.804C1166.3 354.766 1165.87 354.734 1165.39 354.419C1164.41 353.769 1164.08 351.921 1163.89 350.833L1186.5 350.811Z" fill="#77421D"/>
<path d="M1203.75 350.758C1207.52 351.35 1211.28 351.032 1215.08 350.982C1216.65 350.962 1218.61 351.163 1220.15 350.825L1241.06 350.86C1240.96 352.426 1240.67 353.598 1239.79 354.899L1222.09 354.895L1214 354.883C1211.97 354.874 1209.6 355.043 1207.65 354.38C1205.79 353.745 1204.62 352.481 1203.75 350.758Z" fill="#77421D"/>
<path d="M1185.97 306.166C1188.83 306.844 1198.27 309.078 1199.66 311.465C1199.95 311.97 1199.98 312.675 1199.81 313.227C1199.63 313.837 1199.23 314.315 1198.77 314.737C1196.91 315.569 1195.39 314.846 1193.51 314.844C1194.61 316.444 1196.01 317.67 1197.71 318.626L1201.44 318.321L1201.64 322.189L1201.49 329.179L1201.36 341.146C1201.3 344.402 1201.33 347.615 1200.61 350.811L1186.5 350.812L1163.89 350.834C1163.88 349.716 1163.87 348.537 1164.19 347.457L1164.26 347.196C1164.98 344.73 1166.12 342.977 1167.76 341.03L1168.4 340.407C1170.36 338.628 1173.16 336.931 1175.89 337.057C1176.3 336.587 1176.53 336.083 1176.79 335.521L1176.89 335.406C1177.93 331.718 1178.05 327.747 1178.2 323.938L1173.56 319.016C1178.29 316.172 1183.26 310.981 1185.97 306.166Z" fill="#BE7739"/>
<path d="M1176.89 335.406C1179.14 335.657 1180.09 335.992 1181.52 337.828C1182.85 339.544 1183.68 341.5 1183.96 343.661C1182.66 341.735 1181.48 339.71 1179.44 338.454C1178.33 337.768 1177.14 337.396 1175.89 337.057C1176.3 336.587 1176.53 336.083 1176.79 335.522L1176.89 335.406Z" fill="#A15F26"/>
<path d="M1201.49 329.18L1201.36 341.146C1201.3 344.402 1201.33 347.615 1200.61 350.812L1186.5 350.812C1187.31 350.449 1188.22 350.29 1189.08 350.073C1192.25 349.275 1196.56 347.574 1198.01 344.387C1199.68 340.749 1199.38 336.164 1200.49 332.296C1200.76 331.354 1200.8 330.257 1201.33 329.423L1201.49 329.18Z" fill="#A15F26"/>
<path d="M1185.97 306.166C1188.83 306.844 1198.26 309.078 1199.66 311.465C1199.95 311.97 1199.97 312.675 1199.81 313.227C1199.62 313.837 1199.23 314.315 1198.77 314.737C1196.91 315.569 1195.39 314.846 1193.5 314.844C1194.61 316.444 1196.01 317.67 1197.7 318.626C1198.77 319.497 1200.46 320.435 1200.66 321.941C1200.8 322.955 1200.65 323.807 1199.99 324.61C1199.55 325.154 1198.97 325.459 1198.27 325.526C1197.63 325.588 1197.13 325.332 1196.59 324.999L1196.4 325.009C1196.58 325.928 1196.67 326.767 1196.16 327.601C1195.77 328.222 1195.08 328.863 1194.34 328.975C1193.63 329.08 1192.82 329.071 1192.24 328.612L1191.25 327.646L1191.07 327.582C1190.83 328.416 1190.64 329.368 1190.06 330.037C1189.73 330.423 1189.42 330.628 1188.91 330.655C1187.91 330.705 1186.86 330.106 1186 329.649C1183.06 328.087 1180.69 326.105 1178.2 323.938L1173.56 319.016C1178.29 316.172 1183.26 310.981 1185.97 306.166Z" fill="#E8B77B"/>
<path d="M1193.51 314.843C1192.87 314.286 1192.37 313.245 1191.93 312.527C1194.06 313.453 1196.97 313.389 1198.77 314.737C1196.91 315.569 1195.39 314.845 1193.51 314.843Z" fill="#D7965B"/>
<path d="M1191.07 327.582L1190.85 327.362C1190.13 326.713 1188.91 326.376 1188.06 325.847L1187.84 325.715C1186.78 325.052 1183.33 321.464 1183.06 320.314C1185.63 322.266 1188.46 324.844 1191.42 326.139C1191.65 326.238 1191.56 326.192 1191.8 326.371C1191.72 326.845 1191.45 327.212 1191.25 327.646L1191.07 327.582Z" fill="#D7965B"/>
<path d="M1196.4 325.009L1196.24 324.88C1195.08 323.964 1193.74 323.399 1192.49 322.634C1191.47 322.012 1190.57 321.037 1189.71 320.207C1188.96 319.47 1188.02 318.638 1187.48 317.736C1189.21 318.557 1190.69 319.688 1192.31 320.691C1193.77 321.601 1195.81 322.513 1196.92 323.83L1196.59 324.999L1196.4 325.009Z" fill="#D7965B"/>
<path d="M1217.41 305.287C1218.46 306.525 1219.19 308.243 1220.16 309.596C1222.6 312.975 1225.51 315.909 1228.64 318.635L1225.75 321.176L1226.83 329.844L1228.22 334.76L1229.05 337.102C1231.97 336.855 1234.03 338.288 1236.16 340.099L1237.62 341.55C1239.92 344.505 1241.04 347.066 1241.06 350.861L1220.15 350.826C1218.61 351.163 1216.65 350.963 1215.08 350.983C1211.28 351.033 1207.52 351.351 1203.75 350.759C1203.02 348.926 1203.14 346.926 1203.14 344.983L1203.13 338.864L1203.17 325.329L1203.13 324.365L1202.72 323.93C1202.27 323.012 1202.16 322.247 1202.46 321.262L1203.49 320.089L1203.5 319.865C1203.59 319.123 1203.69 318.439 1203.67 317.682C1203.65 316.845 1203.48 315.985 1203.61 315.154C1202.63 314.746 1202.23 314.253 1201.66 313.369C1201.68 312.774 1201.55 312.238 1201.43 311.659L1201.64 311.556C1202.35 311.196 1203 310.941 1203.77 310.728C1206.63 309.92 1209.42 309.106 1212.16 307.944C1213.97 307.18 1215.68 306.208 1217.41 305.287Z" fill="#BE7739"/>
<path d="M1228.21 334.76L1229.05 337.101C1227.85 337.411 1226.63 337.718 1225.53 338.297C1223.25 339.497 1221.72 341.515 1220.16 343.496L1220.91 341.114C1221.99 338.571 1223.38 336.649 1225.96 335.52C1226.64 335.222 1227.39 335.089 1228.08 334.813L1228.21 334.76Z" fill="#A15F26"/>
<path d="M1203.17 325.328L1203.35 327.149C1203.36 327.476 1203.38 327.624 1203.56 327.899C1204.07 328.72 1204.29 330.797 1204.46 331.805L1205.4 337.357C1205.75 339.651 1205.92 342.676 1207.16 344.676C1208.97 347.575 1213.38 349.157 1216.57 349.905C1217.65 350.158 1219.22 350.28 1220.15 350.825C1218.61 351.163 1216.65 350.962 1215.08 350.982C1211.28 351.032 1207.52 351.35 1203.75 350.758C1203.02 348.925 1203.14 346.925 1203.14 344.983L1203.13 338.863L1203.17 325.328Z" fill="#A15F26"/>
<path d="M1217.41 305.287C1218.46 306.525 1219.19 308.243 1220.16 309.596C1222.6 312.975 1225.51 315.909 1228.64 318.635L1225.75 321.176C1225.02 321.838 1224.35 322.516 1223.74 323.288C1222.52 324.804 1220.13 328.809 1218.02 328.67C1217.38 328.629 1217.04 328.322 1216.55 327.942L1215.79 326.771C1215.52 327.522 1215.15 328.183 1214.6 328.772C1214.02 329.392 1213.46 329.828 1212.57 329.805C1212.08 329.792 1211.46 329.519 1211.13 329.156C1210.47 328.454 1210.52 327.763 1210.59 326.857C1210.57 326.705 1210.49 326.55 1210.44 326.405L1209.6 327.032C1209.24 327.412 1208.71 327.682 1208.18 327.693C1207.5 327.709 1207.03 327.587 1206.56 327.057C1205.98 326.413 1205.82 325.812 1205.84 324.966C1205.72 324.638 1205.61 324.547 1205.33 324.348C1204.39 324.77 1204.1 324.662 1203.13 324.365L1202.72 323.93C1202.27 323.012 1202.16 322.247 1202.46 321.262L1203.49 320.089L1203.5 319.865C1203.59 319.123 1203.69 318.439 1203.67 317.682C1203.65 316.845 1203.48 315.985 1203.61 315.154C1202.63 314.746 1202.23 314.253 1201.66 313.369C1201.68 312.774 1201.55 312.238 1201.43 311.659L1201.64 311.556C1202.35 311.196 1203 310.941 1203.77 310.728C1206.63 309.92 1209.42 309.106 1212.16 307.944C1213.97 307.18 1215.68 306.208 1217.41 305.287Z" fill="#E8B77B"/>
<path d="M1215.79 326.771C1215.77 326.594 1215.76 326.578 1215.8 326.376C1215.95 325.713 1216.72 324.804 1217.1 324.208C1217.77 323.172 1219.08 322.154 1220.06 321.412C1219.03 323.466 1217.52 325.141 1216.85 327.353C1216.79 327.581 1216.69 327.75 1216.55 327.942L1215.79 326.771Z" fill="#D7965B"/>
<path d="M1209.6 327.031C1209.62 325.715 1211 324.18 1211.91 323.262L1212.83 322.468L1213.03 322.299C1213.92 321.58 1215 321 1216.03 320.504C1214.81 322.095 1213.49 323.557 1212.15 325.047C1211.61 325.648 1211.18 326.293 1210.59 326.855C1210.56 326.704 1210.49 326.548 1210.44 326.404L1209.6 327.031Z" fill="#D7965B"/>
<path d="M1205.33 324.348C1205.3 323.521 1206.09 322.585 1206.64 321.987C1207.62 320.928 1209.17 319.455 1210.69 319.342L1211.38 319.403L1211.39 319.689C1210.12 320.746 1208.88 321.891 1207.72 323.071C1207.12 323.671 1206.56 324.541 1205.84 324.966C1205.72 324.638 1205.61 324.547 1205.33 324.348Z" fill="#D7965B"/>
<path d="M1203.6 315.153L1203.86 315.17C1205.97 315.3 1208.21 314.897 1210.29 314.52L1203.49 320.088L1203.49 319.865C1203.58 319.122 1203.69 318.438 1203.67 317.681C1203.65 316.844 1203.48 315.984 1203.6 315.153Z" fill="#0F5252"/>
<path d="M1149.45 203.271C1161.09 216.883 1174.07 229.753 1190.86 236.74C1194 238.047 1197.72 239.517 1201.14 239.756C1204.35 239.98 1207.66 238.907 1210.66 237.849C1221.4 234.052 1231.24 227.76 1239.76 220.215C1243.07 217.285 1246.16 214.123 1249.01 210.752C1250.48 209.02 1251.82 206.9 1253.43 205.333C1254.7 206.896 1255.79 208.706 1256.82 210.44C1266.77 227.678 1271.11 248.986 1268.41 268.727C1268.15 275.43 1265.81 281.565 1263.9 287.899L1265.35 307.286C1265.3 307.523 1265.28 307.821 1265.19 308.042C1264.89 310.646 1264.27 313.089 1263.55 315.601C1261.59 322.399 1258.22 329.789 1252.82 334.548C1250.43 336.664 1247.71 338.468 1244.77 339.723C1243.53 340.065 1242.28 340.438 1241.02 340.695C1239.87 340.931 1238.7 341.055 1237.62 341.549L1236.16 340.099C1234.03 338.287 1231.97 336.854 1229.05 337.101L1228.21 334.76L1226.82 329.844L1225.75 321.175L1228.64 318.634C1225.5 315.908 1222.6 312.974 1220.16 309.595C1219.19 308.243 1218.46 306.524 1217.41 305.286C1215.68 306.208 1213.96 307.179 1212.16 307.943C1209.41 309.105 1206.63 309.919 1203.77 310.728C1203 310.94 1202.35 311.196 1201.64 311.555L1201.43 311.658C1201.55 312.237 1201.68 312.774 1201.66 313.368C1202.23 314.252 1202.63 314.745 1203.6 315.153C1203.48 315.984 1203.65 316.844 1203.67 317.681C1203.69 318.438 1203.59 319.122 1203.49 319.865L1203.49 320.088L1202.46 321.261C1202.16 322.247 1202.27 323.011 1202.72 323.929L1202.54 324.125C1202.31 323.744 1202.23 323.344 1201.95 323.009C1201.58 324.977 1202.16 327.2 1201.74 329.158L1201.65 322.408L1201.64 322.189L1201.44 318.321L1197.71 318.626C1196.01 317.67 1194.61 316.444 1193.51 314.844C1195.39 314.845 1196.91 315.569 1198.77 314.737C1199.23 314.315 1199.63 313.837 1199.81 313.226C1199.98 312.675 1199.95 311.97 1199.66 311.465C1198.27 309.078 1188.83 306.844 1185.97 306.166C1183.26 310.981 1178.29 316.172 1173.56 319.016L1178.2 323.938C1178.05 327.747 1177.93 331.718 1176.89 335.406L1176.79 335.521C1176.53 336.083 1176.3 336.587 1175.89 337.056C1173.16 336.931 1170.36 338.628 1168.4 340.407L1167.76 341.029C1166.11 340.375 1163.85 340.46 1162.07 340.33C1157.48 339.12 1152.87 336.971 1149.3 333.787C1141.85 327.136 1138.72 318.606 1138.14 308.787C1137.89 308.094 1138.08 306.836 1138.14 306.078C1138.31 305.565 1138.23 304.781 1138.24 304.236L1138.27 300.1L1138.7 292.512C1138.83 291.152 1138.91 289.779 1139.24 288.448L1138.9 287.305C1137.69 285.19 1136.72 282.85 1135.96 280.535C1134.7 276.665 1134.03 272.494 1133.58 268.461C1132.7 260.432 1133.18 252.27 1134.43 244.305C1136.3 232.498 1139.91 221.055 1145.36 210.413L1149.45 203.271Z" fill="#629757"/>
<path d="M1138.9 287.304C1139.69 287.89 1140.05 288.866 1140.52 289.704C1143.15 294.318 1146.85 298.54 1150.58 302.293C1154.96 306.705 1159.8 310.893 1165.22 313.998C1166.51 314.737 1168.22 315.796 1169.68 316.127C1170.93 316.409 1172.72 315.197 1173.73 314.573C1177.48 312.253 1181.07 308.305 1183.45 304.614C1184.1 303.607 1184.86 302.385 1185.06 301.201C1185.25 300.165 1184.96 299.276 1184.27 298.496C1182.93 296.972 1180.5 296.015 1178.86 294.801C1174.7 291.722 1171.14 287.517 1168.17 283.302C1160.7 272.7 1157.77 260.177 1157.05 247.419C1156.65 240.218 1156.94 233.125 1158.16 226.016C1158.42 228.738 1158.17 231.633 1158.23 234.384C1158.36 240.899 1159.05 247.537 1160.06 253.973C1160.3 255.488 1160.43 257.153 1160.94 258.601L1160.99 258.75C1161.59 261.105 1162 263.497 1162.7 265.83C1165.81 276.165 1171.41 286.218 1180.09 292.854L1184.3 296.016C1185.54 296.934 1186.97 297.872 1187.7 299.277C1188.82 301.449 1186.99 304.266 1185.97 306.165C1183.26 310.98 1178.29 316.171 1173.56 319.015C1172.82 319.339 1171.47 320.055 1170.71 319.827C1168.14 319.061 1165.83 317.671 1163.63 316.171C1159.93 313.651 1156.7 310.747 1153.54 307.598C1150.72 304.789 1147.96 301.904 1145.58 298.706C1143.14 295.428 1141.19 292.027 1139.24 288.447L1138.9 287.304Z" fill="#4E713D"/>
<path d="M1243.11 258.501L1243.2 258.253C1243.71 256.792 1243.67 254.817 1243.83 253.267C1244.43 247.346 1244.63 241.406 1244.59 235.455C1244.56 232.11 1244.21 228.513 1244.51 225.203C1245.31 228.052 1245.6 231.282 1245.98 234.22C1247.92 249.041 1246.6 265.851 1238.97 279.043C1235.54 284.979 1231.2 289.947 1226.13 294.534C1224.4 296.104 1222.36 297.391 1220.8 299.129L1220.64 299.305C1220.16 299.886 1220.19 301.213 1220.3 301.928C1220.51 303.409 1221.58 305.003 1222.41 306.241C1224.14 308.821 1226 310.998 1228.21 313.174C1229.18 314.127 1230.2 315.182 1231.34 315.934C1232.25 316.533 1232.92 316.666 1233.98 316.432L1235.98 315.77C1238.07 314.914 1239.96 313.703 1241.84 312.442C1251.32 306.062 1258.75 295.725 1263.2 285.284L1268.41 268.726C1268.15 275.429 1265.81 281.564 1263.9 287.898C1262.41 291.085 1261.08 294.303 1259.32 297.355C1253.29 307.759 1243.71 316.701 1232.52 321.297L1228.64 318.634C1225.5 315.907 1222.59 312.973 1220.16 309.595C1219.19 308.242 1218.46 306.523 1217.41 305.285C1217.11 304.254 1216.44 303.388 1216.37 302.267C1216.31 301.161 1216.59 300.356 1217.23 299.457C1218.52 297.635 1220.9 296.028 1222.57 294.512C1225.07 292.245 1227.49 289.881 1229.72 287.342C1235.83 280.381 1240.3 272.041 1242.33 262.987C1242.65 261.567 1243.2 259.952 1243.11 258.501Z" fill="#4E713D"/>
<path d="M1149.45 203.271C1161.09 216.883 1174.07 229.753 1190.86 236.74C1194 238.047 1197.71 239.517 1201.14 239.756C1204.35 239.98 1207.66 238.907 1210.66 237.849C1221.4 234.052 1231.24 227.76 1239.76 220.215C1243.06 217.285 1246.16 214.123 1249.01 210.752C1250.48 209.02 1251.82 206.9 1253.43 205.333C1254.7 206.896 1255.79 208.706 1256.82 210.44L1242.57 222.215C1231.79 230.651 1220.7 238.887 1206.83 241.182C1203 241.816 1198.86 242.038 1195 241.544C1183.09 240.017 1173.45 232.741 1164.39 225.436C1158.11 220.365 1151.95 215.08 1145.36 210.413L1149.45 203.271Z" fill="#4E713D"/>
<path d="M1263.91 287.898L1265.35 307.286C1265.3 307.522 1265.28 307.82 1265.19 308.041C1264.9 310.645 1264.28 313.088 1263.55 315.6C1261.59 322.398 1258.22 329.788 1252.83 334.547C1250.43 336.663 1247.71 338.467 1244.77 339.722C1243.53 340.064 1242.28 340.437 1241.03 340.694C1239.87 340.93 1238.7 341.054 1237.62 341.548L1236.16 340.098C1234.04 338.286 1231.97 336.853 1229.05 337.1L1228.22 334.759L1226.83 329.843L1225.75 321.174L1228.64 318.634L1232.52 321.297C1243.71 316.701 1253.29 307.759 1259.32 297.355C1261.09 294.303 1262.42 291.085 1263.91 287.898Z" fill="#0F5252"/>
<path d="M1226.82 329.845C1227.61 330.359 1228.31 330.99 1229.12 331.479C1230.61 332.373 1232.28 332.943 1233.97 333.298C1236.32 333.792 1238.76 333.875 1241.12 333.394C1250.52 331.483 1257.47 324.024 1261.55 315.694L1263.72 310.823C1264.12 309.863 1264.42 308.796 1265 307.926L1265.19 308.043C1264.9 310.646 1264.27 313.09 1263.55 315.602C1261.59 322.399 1258.22 329.789 1252.82 334.549C1250.43 336.665 1247.71 338.469 1244.77 339.723C1243.53 340.066 1242.28 340.438 1241.03 340.696C1239.87 340.932 1238.7 341.055 1237.62 341.55L1236.16 340.1C1234.03 338.288 1231.97 336.855 1229.05 337.102L1228.21 334.76L1226.82 329.845Z" fill="#0C3333"/>
<path d="M1139.24 288.449C1141.19 292.029 1143.14 295.429 1145.58 298.707C1147.97 301.906 1150.72 304.791 1153.54 307.6C1156.7 310.749 1159.93 313.653 1163.63 316.173C1165.83 317.673 1168.14 319.063 1170.71 319.829C1171.47 320.057 1172.82 319.34 1173.57 319.017L1178.2 323.939C1178.05 327.748 1177.93 331.718 1176.89 335.407L1176.79 335.522C1176.53 336.084 1176.3 336.587 1175.89 337.057C1173.16 336.932 1170.36 338.628 1168.4 340.408L1167.76 341.03C1166.11 340.375 1163.86 340.461 1162.08 340.331C1157.48 339.121 1152.87 336.972 1149.3 333.788C1141.85 327.136 1138.72 318.606 1138.14 308.788C1137.89 308.095 1138.08 306.836 1138.14 306.079C1138.31 305.566 1138.23 304.782 1138.24 304.237L1138.27 300.101L1138.7 292.513C1138.83 291.153 1138.91 289.78 1139.24 288.449Z" fill="#0F5252"/>
<path d="M1138.14 308.787L1138.32 308.416C1138.93 309.464 1139.17 311.028 1139.58 312.202C1140.15 313.851 1140.89 315.47 1141.69 317.027C1146.17 325.822 1155.7 331.27 1164.93 333.716C1167.23 334.326 1169.67 334.868 1172.04 335.115C1173.6 335.278 1175.25 335.252 1176.79 335.52C1176.53 336.082 1176.3 336.586 1175.89 337.056C1173.16 336.93 1170.36 338.627 1168.4 340.406L1167.76 341.029C1166.11 340.374 1163.85 340.459 1162.07 340.329C1157.48 339.119 1152.87 336.97 1149.3 333.786C1141.85 327.135 1138.72 318.605 1138.14 308.787Z" fill="#0C3333"/>
<path d="M1203.77 310.727L1208.22 275.868L1209.82 266.842C1210.28 264.33 1210.66 261.639 1211.51 259.225C1212.6 256.116 1214.76 253.231 1217.45 251.337C1220.99 248.846 1225.4 248.066 1229.62 248.812C1235.84 249.908 1239.64 253.469 1243.11 258.501C1243.2 259.952 1242.65 261.567 1242.33 262.986C1240.3 272.041 1235.83 280.381 1229.72 287.342C1227.5 289.881 1225.08 292.245 1222.57 294.512C1220.9 296.028 1218.52 297.635 1217.23 299.457C1216.6 300.356 1216.31 301.161 1216.37 302.267C1216.44 303.388 1217.12 304.254 1217.41 305.285C1215.68 306.207 1213.97 307.178 1212.16 307.942C1209.41 309.104 1206.63 309.918 1203.77 310.727Z" fill="#0F5252"/>
<path d="M1161 258.751C1163.8 253.965 1167.78 250.299 1173.25 248.881C1177.67 247.733 1182.31 248.513 1186.22 250.827C1189.72 252.901 1192.01 256.393 1193 260.291L1201.43 311.658C1201.55 312.237 1201.68 312.773 1201.66 313.368C1202.23 314.252 1202.63 314.745 1203.6 315.153C1203.48 315.984 1203.65 316.844 1203.67 317.681C1203.69 318.438 1203.59 319.121 1203.49 319.864L1203.49 320.088L1202.46 321.261C1202.16 322.246 1202.27 323.01 1202.72 323.929L1202.54 324.124C1202.31 323.743 1202.23 323.344 1201.95 323.009C1201.58 324.977 1202.16 327.199 1201.74 329.158L1201.65 322.408L1201.64 322.189L1201.44 318.321L1197.71 318.626C1196.01 317.67 1194.61 316.444 1193.51 314.843C1195.39 314.845 1196.91 315.569 1198.77 314.737C1199.23 314.314 1199.63 313.837 1199.81 313.226C1199.98 312.674 1199.95 311.97 1199.66 311.464C1198.27 309.078 1188.83 306.843 1185.97 306.166C1186.99 304.266 1188.82 301.449 1187.7 299.278C1186.97 297.872 1185.54 296.935 1184.3 296.017L1180.09 292.855C1171.41 286.219 1165.81 276.165 1162.7 265.831C1162 263.498 1161.59 261.106 1161 258.751Z" fill="#0F5252"/>
<path d="M1201.66 313.369C1202.23 314.253 1202.63 314.746 1203.61 315.154C1203.48 315.985 1203.65 316.845 1203.67 317.682C1203.69 318.439 1203.59 319.123 1203.5 319.865L1203.49 320.089L1202.46 321.262C1202.13 318.809 1201.14 315.816 1201.66 313.369Z" fill="#629757"/>
<path d="M1149.46 203.271C1146.41 199.604 1143.67 195.637 1141.21 191.555C1138.18 186.531 1135.38 181.131 1134.46 175.264C1133.72 170.588 1133.7 165.603 1134.45 160.926C1135.12 156.78 1136.4 152.809 1137.83 148.872C1141.57 138.531 1146.84 128.977 1153.32 120.098C1158.49 113.019 1164.3 106.687 1171.33 101.423C1177.23 97.0074 1183.76 93.5706 1191.13 92.4543C1206.96 90.0572 1221.35 97.2416 1233.79 106.349L1242.66 114.613C1244.6 116.57 1246.6 118.586 1248.2 120.834C1254.41 129.071 1259.92 137.48 1264.06 146.97C1267.64 155.162 1270.12 163.325 1268.86 172.358C1267.95 178.884 1265.15 185.235 1262.17 191.065C1259.65 196.017 1256.8 200.902 1253.43 205.333C1251.82 206.9 1250.48 209.02 1249.02 210.752C1246.16 214.123 1243.07 217.285 1239.76 220.215C1231.24 227.76 1221.4 234.052 1210.66 237.849C1207.66 238.907 1204.36 239.98 1201.14 239.756C1197.72 239.517 1194 238.047 1190.86 236.74C1174.07 229.752 1161.09 216.883 1149.46 203.271Z" fill="#629757"/>
<path d="M1245.74 135.151L1245.89 135.221C1246.87 135.777 1247.88 137.055 1248.68 137.858C1251.69 140.896 1255.01 143.993 1257.33 147.595C1258.39 149.238 1259.15 151.028 1259.76 152.88C1263.36 163.822 1259.39 176.696 1254.3 186.561C1247.79 199.177 1239.22 210.857 1228.66 220.397C1223.77 224.819 1218.19 228.863 1212.73 232.555L1206.15 236.813C1204.74 237.675 1203.25 238.62 1201.66 239.121C1197.47 237.131 1193.49 234.301 1189.74 231.584C1182.5 226.337 1175.61 220.688 1169.34 214.307C1162.78 207.642 1157.08 200.068 1152.45 191.955C1147.06 182.519 1143.16 171.901 1143.28 160.898C1143.39 150.604 1148.47 140.181 1155.77 133.043L1155.44 140.84C1155.45 145.764 1155.98 150.701 1156.94 155.528L1157.17 156.877L1160.18 169.511C1160.43 170.395 1160.62 171.715 1161.18 172.426C1161.46 174.224 1161.98 175.988 1162.6 177.697C1163.07 178.642 1163.53 179.725 1163.75 180.757C1164.05 182.012 1164.86 183.303 1165.49 184.437C1169.11 190.981 1174.58 196.88 1180.99 200.765C1182.71 201.81 1184.53 202.791 1186.43 203.494L1187.37 203.819C1194.2 206.741 1202.02 207.801 1209.36 206.647C1210.68 206.439 1212.16 206.247 1213.41 205.77L1214.02 205.502L1216.16 204.96L1216.71 204.784L1218.76 203.972C1229.01 199.64 1236.82 191.134 1240.94 180.867L1242.03 177.608C1242.69 175.413 1243.12 173.091 1243.42 170.824C1243.51 170.209 1243.73 169.316 1243.58 168.716C1243.4 168.067 1243.49 167.29 1243.5 166.615L1243.68 168.263C1244.23 167.138 1244.33 165.161 1244.54 163.906L1245.68 157.56L1245.91 156.223C1246.83 149.225 1246.99 142.111 1245.74 135.151Z" fill="#4E713D"/>
<path d="M1163.75 180.756C1161.94 180.778 1160.09 180.794 1158.31 180.363C1155.27 179.623 1152.59 177.43 1151.05 174.724C1149.35 171.762 1148.5 168.002 1149.42 164.651L1149.83 163.218C1150.96 159.832 1153.8 157.075 1156.94 155.527L1157.17 156.876C1156.3 157.667 1155.39 158.389 1154.65 159.311L1154.47 159.522C1152.41 162.077 1151.8 165.215 1152.15 168.413C1152.47 171.416 1154.07 174.679 1156.47 176.545C1157.01 176.965 1157.54 177.174 1158.18 177.39L1158.42 177.474C1159.31 177.775 1161.63 178.158 1162.49 177.767L1162.6 177.696C1163.06 178.64 1163.53 179.724 1163.75 180.756Z" fill="#D7965B"/>
<path d="M1245.91 156.223C1248.85 156.717 1251.47 158.283 1253.19 160.747C1254.59 162.766 1254.85 165.216 1254.4 167.591L1254.19 168.476C1253.15 172.695 1250.8 176.846 1247.01 179.163C1245.06 180.348 1243.2 180.764 1240.95 180.866L1242.04 177.608C1243.1 177.461 1244.26 177.123 1245.18 176.553C1248.39 174.547 1250.37 169.18 1251.17 165.622C1251.56 163.855 1251.4 162.165 1250.35 160.637C1249.33 159.142 1247.44 157.943 1245.68 157.559L1245.91 156.223Z" fill="#D7965B"/>
<path d="M1245.68 157.559C1247.44 157.942 1249.33 159.141 1250.35 160.636C1251.4 162.164 1251.56 163.854 1251.17 165.621C1250.37 169.179 1248.39 174.546 1245.18 176.552C1244.26 177.122 1243.1 177.46 1242.04 177.607C1242.69 175.412 1243.12 173.09 1243.43 170.823C1243.51 170.208 1243.73 169.315 1243.58 168.715C1243.41 168.066 1243.49 167.289 1243.5 166.614L1243.68 168.262C1244.23 167.137 1244.33 165.16 1244.54 163.905L1245.68 157.559Z" fill="#BE7739"/>
<path d="M1157.17 156.877L1160.18 169.511C1160.43 170.395 1160.63 171.716 1161.19 172.427C1161.46 174.224 1161.99 175.988 1162.61 177.697L1162.49 177.769C1161.63 178.159 1159.31 177.777 1158.42 177.475L1158.18 177.391C1157.54 177.175 1157.01 176.966 1156.47 176.546C1154.08 174.68 1152.47 171.417 1152.15 168.415C1151.81 165.216 1152.42 162.078 1154.48 159.523L1154.65 159.312C1155.39 158.39 1156.3 157.668 1157.17 156.877Z" fill="#BE7739"/>
<path d="M1186.43 203.492L1187.38 203.817C1186.61 207.903 1186.65 211.618 1189.09 215.154C1191.24 218.286 1194.96 220.507 1198.7 221.161L1199.62 221.292L1199.93 221.334C1203.97 221.846 1208.22 220.651 1211.42 218.148C1214.43 215.799 1216.03 212.324 1216.48 208.581C1216.63 207.357 1216.41 206.157 1216.17 204.959L1216.72 204.782C1217.19 207.031 1217.09 209.085 1216.76 211.346C1215.91 217.205 1213.38 223.534 1209.78 228.239C1208.68 229.683 1207.5 231.077 1206 232.135C1204.33 233.322 1202.19 233.946 1200.15 233.491C1197 232.79 1194.27 229.383 1192.55 226.851C1188.25 220.516 1184.95 211.16 1186.43 203.492Z" fill="#0F5252"/>
<path d="M1187.38 203.818C1194.21 206.74 1202.02 207.801 1209.37 206.646C1210.69 206.439 1212.17 206.247 1213.42 205.77L1214.03 205.502L1216.17 204.96C1216.41 206.159 1216.63 207.358 1216.48 208.583C1216.03 212.325 1214.43 215.801 1211.42 218.15C1208.22 220.652 1203.97 221.847 1199.93 221.336L1199.62 221.293L1198.7 221.162C1194.96 220.508 1191.24 218.287 1189.08 215.155C1186.65 211.619 1186.61 207.904 1187.38 203.818Z" fill="#BE7739"/>
<path d="M1155.78 133.043C1165.33 123.673 1177.67 117.439 1190.76 114.759C1193.74 114.149 1196.89 113.556 1199.95 113.6C1204.49 113.666 1209.04 114.69 1213.36 116.025C1223.56 119.176 1232.93 124.475 1241.16 131.244C1242.72 132.52 1244.29 133.762 1245.75 135.151C1246.99 142.112 1246.83 149.225 1245.91 156.223L1245.68 157.56L1244.54 163.906C1244.33 165.161 1244.23 167.138 1243.68 168.263L1243.5 166.616C1243.49 167.29 1243.41 168.067 1243.58 168.716C1243.73 169.316 1243.51 170.209 1243.43 170.825C1243.12 173.091 1242.69 175.413 1242.04 177.608L1240.95 180.867C1236.82 191.134 1229.01 199.64 1218.76 203.972L1216.72 204.784L1216.16 204.96L1214.02 205.503L1213.42 205.77C1212.17 206.248 1210.68 206.439 1209.36 206.647C1202.02 207.801 1194.2 206.741 1187.37 203.819L1186.43 203.494C1184.53 202.791 1182.72 201.811 1180.99 200.765C1174.58 196.88 1169.12 190.981 1165.49 184.437C1164.86 183.303 1164.06 182.012 1163.75 180.757C1163.54 179.726 1163.07 178.642 1162.61 177.698C1161.99 175.988 1161.46 174.224 1161.18 172.427C1160.63 171.716 1160.43 170.395 1160.18 169.511L1157.17 156.877L1156.94 155.529C1155.99 150.701 1155.45 145.764 1155.44 140.841L1155.78 133.043Z" fill="#E8B77B"/>
<path d="M1201.77 189.496L1202.45 189.441C1204.03 189.353 1206.96 189.401 1208.21 190.523L1208.04 190.912C1207.49 191.056 1206.77 190.69 1206.23 190.535C1205.49 190.323 1204.68 190.201 1203.91 190.15C1202.82 190.078 1201.74 190.314 1200.68 190.521C1199.84 190.798 1199 191.096 1198.24 191.545C1197.67 191.875 1196.73 192.852 1196.2 193.002C1196.07 193.038 1195.93 192.989 1195.79 192.983L1195.7 192.655C1197.15 190.741 1199.5 189.917 1201.77 189.496Z" fill="#0C3333"/>
<path d="M1201.43 175.368C1201.91 175.362 1202.44 175.336 1202.91 175.454C1203.76 175.666 1204.67 176.392 1205.07 177.167C1205.35 177.714 1205.35 178.761 1205.17 179.339C1204.81 180.5 1203.82 181.058 1202.79 181.543C1202.15 181.597 1201.54 181.621 1200.93 181.384C1200.22 181.11 1199.57 180.519 1199.24 179.834L1199.16 179.652L1199 179.299C1198.74 178.636 1198.82 177.642 1199.14 177.013C1199.66 176.026 1200.42 175.714 1201.43 175.368Z" fill="#BE7739"/>
<path d="M1220.54 148.143C1221.2 148.111 1221.73 148.169 1222.35 148.365C1223.72 148.793 1224.99 149.475 1226.26 150.117C1227.7 150.843 1229.96 151.792 1230.7 153.323C1230.92 153.784 1230.96 154.463 1230.77 154.942C1230.54 155.529 1230.05 155.787 1229.52 156.047C1228.56 156.028 1227.64 156.019 1226.71 155.773C1224.48 155.184 1221.11 154.424 1219.72 152.454C1219.16 151.663 1218.8 150.826 1219.03 149.852C1219.23 148.989 1219.83 148.592 1220.54 148.143Z" fill="#50342D"/>
<path d="M1181.8 148.155C1182.3 148.111 1183.02 148.004 1183.49 148.199C1184.21 148.492 1184.78 149.139 1185.02 149.872C1185.25 150.57 1185.14 151.396 1184.77 152.022C1183.82 153.617 1181.92 154.239 1180.29 154.88C1178.91 155.422 1177.57 155.96 1176.13 156.304L1175.97 156.329C1175.52 156.404 1175.05 156.513 1174.6 156.441C1174.02 156.348 1173.52 156.02 1173.24 155.486C1172.91 154.89 1172.82 153.881 1173.11 153.265C1173.45 152.525 1174.26 151.936 1174.92 151.493C1177.01 150.089 1179.41 148.929 1181.8 148.155Z" fill="#50342D"/>
<path d="M1179.88 157.529C1182.05 157.283 1184.22 157.659 1186.09 158.813C1188.04 160.018 1189.49 162.009 1189.98 164.255C1190.52 166.718 1190.12 169.243 1188.73 171.366C1187.27 173.595 1185.26 174.592 1182.71 175.116C1181.83 175.201 1180.91 175.229 1180.03 175.091L1179.78 175.048C1178.5 174.849 1177.42 174.407 1176.33 173.715C1174.38 172.469 1172.94 170.261 1172.47 168.013C1171.96 165.58 1172.45 163.047 1173.85 160.993C1175.26 158.922 1177.5 157.974 1179.88 157.529Z" fill="#FAFBF5"/>
<path d="M1180.03 160.795C1180.54 160.76 1181.02 160.756 1181.53 160.839C1182.02 160.921 1182.4 160.996 1182.7 161.418C1182.36 161.834 1181.93 162.29 1181.86 162.836C1181.77 163.466 1181.97 164.114 1182.35 164.618C1182.74 165.141 1183.39 165.485 1184.04 165.544C1185.14 165.645 1185.63 165.336 1186.45 164.677L1186.64 164.522C1187.14 166.122 1187.32 167.513 1186.76 169.13C1186.15 170.918 1185.03 171.851 1183.4 172.651L1183.1 172.74C1182.08 173.057 1180.76 173.275 1179.71 172.967L1179.53 172.911L1178.47 172.539C1176.86 171.774 1175.55 170.281 1175.03 168.576C1174.52 166.877 1174.89 164.956 1175.81 163.457C1176.8 161.843 1178.26 161.187 1180.03 160.795Z" fill="#14566E"/>
<path d="M1221.59 157.187C1223.73 157.058 1225.64 157.579 1227.43 158.78C1229.61 160.247 1230.94 162.573 1231.39 165.135C1231.79 167.438 1231.08 169.964 1229.72 171.843C1228.17 173.975 1226.07 175.032 1223.52 175.438C1221.55 175.643 1219.36 175.188 1217.66 174.158C1215.53 172.873 1214.23 170.934 1213.72 168.542C1213.17 166.031 1213.69 163.379 1215.14 161.254C1216.68 159.001 1218.96 157.702 1221.59 157.187Z" fill="#FAFBF5"/>
<path d="M1221.83 160.961L1224.87 160.936C1224.26 161.511 1223.54 162.07 1223.47 162.97C1223.42 163.56 1223.71 164.356 1224.12 164.776C1224.6 165.26 1225.2 165.542 1225.89 165.493C1226.94 165.417 1227.66 164.839 1228.34 164.083L1228.48 163.93L1228.78 164.826C1229.19 166.024 1229.37 167.153 1229.13 168.419C1228.75 170.392 1227.57 171.686 1225.96 172.754L1224.26 173.313C1222.66 173.693 1220.91 173.294 1219.53 172.446C1218.04 171.528 1216.9 170.032 1216.53 168.307C1216.21 166.831 1216.61 164.952 1217.43 163.697C1218.46 162.099 1220.04 161.377 1221.83 160.961Z" fill="#14566E"/>
<path d="M1165.21 153.504L1165.46 153.519L1165.49 153.672C1165.59 154.101 1165.48 153.665 1165.62 154.049C1165.88 154.78 1165.7 156.192 1165.71 156.992C1165.72 159.481 1165.66 161.987 1165.84 164.47C1166.67 176.296 1171.15 187.903 1180.3 195.774C1182.41 197.586 1184.78 199.081 1187.22 200.41C1193.23 203.699 1200.95 205.748 1207.82 205.823C1209.86 205.846 1212.01 205.363 1214.02 205.503L1213.42 205.77C1212.17 206.248 1210.68 206.439 1209.36 206.647C1202.02 207.801 1194.2 206.741 1187.37 203.819L1186.43 203.494C1184.53 202.791 1182.72 201.811 1180.99 200.765C1174.58 196.88 1169.12 190.981 1165.49 184.437C1164.86 183.303 1164.06 182.012 1163.75 180.757C1163.54 179.726 1163.07 178.642 1162.61 177.698C1161.99 175.988 1161.46 174.224 1161.18 172.427C1162.26 166.214 1162.66 159.355 1165.21 153.504Z" fill="#D7965B"/>
<path d="M1155.78 133.043C1165.33 123.673 1177.67 117.439 1190.76 114.759C1193.74 114.149 1196.89 113.556 1199.95 113.6C1204.49 113.666 1209.04 114.69 1213.36 116.025C1223.56 119.176 1232.93 124.475 1241.16 131.244C1242.72 132.52 1244.29 133.762 1245.75 135.151C1246.99 142.112 1246.83 149.225 1245.91 156.223L1245.68 157.56L1244.54 163.906C1244.33 165.161 1244.23 167.138 1243.68 168.263L1243.5 166.616C1242.92 161.751 1240.7 157.021 1238.74 152.565L1231.12 136.099C1229.35 132.267 1227.86 128.132 1225.77 124.475C1223.61 128.332 1220.69 131.749 1217.48 134.783C1210.56 141.338 1201.66 146.36 1192.31 148.376C1190.66 148.731 1188.86 149.169 1187.17 149.122C1191.3 145.057 1195.72 140.566 1198.78 135.615C1195.13 138.655 1191.29 141.14 1186.99 143.187C1182.74 145.206 1178.05 146.78 1173.59 148.272L1166.21 150.7L1165.21 153.504C1162.66 159.355 1162.26 166.214 1161.18 172.427C1160.63 171.716 1160.43 170.395 1160.18 169.511L1157.17 156.877L1156.94 155.529C1155.99 150.701 1155.45 145.764 1155.44 140.841L1155.78 133.043Z" fill="#50342D"/>
</svg>
