<svg width="1598" height="536" viewBox="0 0 1598 536" fill="none" xmlns="http://www.w3.org/2000/svg">
<path d="M235.909 435.597C237.109 435.861 238.393 435.993 239.761 435.993C244.825 435.993 247.357 433.905 247.357 429.729C247.357 425.937 244.741 424.041 239.509 424.041C238.213 424.041 237.013 424.137 235.909 424.329V435.597ZM235.909 422.025C237.109 421.833 238.393 421.737 239.761 421.737C243.193 421.737 245.761 422.421 247.465 423.789C249.193 425.157 250.057 427.125 250.057 429.693C250.057 435.453 246.577 438.333 239.617 438.333C237.217 438.333 235.021 438.141 233.029 437.757V411.693H248.509V414.033H235.909V422.025ZM257.384 428.469V419.253H271.244V437.973H268.58V421.485H259.976V428.901C259.976 432.477 259.46 434.901 258.428 436.173C257.396 437.445 255.428 438.165 252.524 438.333L252.38 436.101C253.772 436.029 254.792 435.801 255.44 435.417C256.112 435.033 256.604 434.325 256.916 433.293C257.228 432.237 257.384 430.629 257.384 428.469ZM288.673 423.069C287.593 421.725 286.105 421.053 284.209 421.053C282.313 421.053 280.813 421.725 279.709 423.069C278.629 424.389 278.089 426.237 278.089 428.613C278.089 430.989 278.629 432.849 279.709 434.193C280.813 435.513 282.313 436.173 284.209 436.173C286.105 436.173 287.593 435.513 288.673 434.193C289.777 432.849 290.329 430.989 290.329 428.613C290.329 426.237 289.777 424.389 288.673 423.069ZM290.617 435.705C289.009 437.457 286.873 438.333 284.209 438.333C281.545 438.333 279.409 437.457 277.801 435.705C276.193 433.953 275.389 431.589 275.389 428.613C275.389 425.637 276.193 423.273 277.801 421.521C279.409 419.769 281.545 418.893 284.209 418.893C286.873 418.893 289.009 419.769 290.617 421.521C292.225 423.273 293.029 425.637 293.029 428.613C293.029 431.589 292.225 433.953 290.617 435.705ZM300.024 427.173L309.06 419.253H312.516L302.112 428.217L312.804 437.973H309.384L300.024 429.297H299.988V437.973H297.18V419.253H299.988V427.173H300.024ZM319.85 434.301H319.922L330.578 419.253H333.53V437.973H330.794V422.925H330.758L320.066 437.973H317.114V419.253H319.85V434.301ZM347.694 438.333C344.982 438.333 342.966 437.241 341.646 435.057H341.574V445.893H338.946V419.253H341.466L341.502 422.421H341.574C342.894 420.069 344.934 418.893 347.694 418.893C350.046 418.893 351.894 419.733 353.238 421.413C354.582 423.069 355.254 425.469 355.254 428.613C355.254 431.685 354.558 434.073 353.166 435.777C351.798 437.481 349.974 438.333 347.694 438.333ZM352.662 428.613C352.662 426.165 352.17 424.293 351.186 422.997C350.226 421.701 348.87 421.053 347.118 421.053C345.462 421.053 344.118 421.701 343.086 422.997C342.078 424.293 341.574 426.081 341.574 428.361V428.865C341.574 431.193 342.09 432.993 343.122 434.265C344.154 435.537 345.486 436.173 347.118 436.173C348.822 436.173 350.166 435.525 351.15 434.229C352.158 432.909 352.662 431.037 352.662 428.613ZM371.607 423.069C370.527 421.725 369.039 421.053 367.143 421.053C365.247 421.053 363.747 421.725 362.643 423.069C361.563 424.389 361.023 426.237 361.023 428.613C361.023 430.989 361.563 432.849 362.643 434.193C363.747 435.513 365.247 436.173 367.143 436.173C369.039 436.173 370.527 435.513 371.607 434.193C372.711 432.849 373.263 430.989 373.263 428.613C373.263 426.237 372.711 424.389 371.607 423.069ZM373.551 435.705C371.943 437.457 369.807 438.333 367.143 438.333C364.479 438.333 362.343 437.457 360.735 435.705C359.127 433.953 358.323 431.589 358.323 428.613C358.323 425.637 359.127 423.273 360.735 421.521C362.343 419.769 364.479 418.893 367.143 418.893C369.807 418.893 371.943 419.769 373.551 421.521C375.159 423.273 375.963 425.637 375.963 428.613C375.963 431.589 375.159 433.953 373.551 435.705ZM382.85 436.101C383.738 436.245 384.71 436.317 385.766 436.317C389.774 436.317 391.778 435.009 391.778 432.393C391.778 430.017 389.654 428.829 385.406 428.829H382.85V436.101ZM382.85 427.029H385.37C387.098 427.029 388.442 426.741 389.402 426.165C390.362 425.589 390.842 424.797 390.842 423.789C390.842 421.869 389.078 420.909 385.55 420.909C384.614 420.909 383.714 420.981 382.85 421.125V427.029ZM394.442 432.573C394.442 436.341 391.514 438.225 385.658 438.225C383.522 438.225 381.674 438.093 380.114 437.829V419.397C381.818 419.133 383.57 419.001 385.37 419.001C388.274 419.001 390.338 419.433 391.562 420.297C392.81 421.137 393.434 422.217 393.434 423.537C393.434 424.617 393.062 425.529 392.318 426.273C391.574 426.993 390.53 427.497 389.186 427.785V427.821C390.89 428.085 392.186 428.637 393.074 429.477C393.986 430.293 394.442 431.325 394.442 432.573ZM401.591 427.173L410.627 419.253H414.083L403.679 428.217L414.371 437.973H410.951L401.591 429.297H401.555V437.973H398.747V419.253H401.555V427.173H401.591ZM425.52 418.893C428.136 418.893 430.008 419.433 431.136 420.513C432.264 421.593 432.828 423.369 432.828 425.841V432.933C432.828 434.637 433.008 436.317 433.368 437.973H430.848C430.656 437.037 430.536 435.933 430.488 434.661H430.416C429.768 435.813 428.832 436.713 427.608 437.361C426.384 438.009 425.004 438.333 423.468 438.333C421.74 438.333 420.36 437.853 419.328 436.893C418.296 435.909 417.78 434.589 417.78 432.933C417.78 430.845 418.692 429.189 420.516 427.965C422.34 426.717 424.932 426.093 428.292 426.093H430.2V425.913C430.2 424.089 429.852 422.829 429.156 422.133C428.484 421.413 427.272 421.053 425.52 421.053C423.264 421.053 421.164 421.605 419.22 422.709L418.752 420.585C420.816 419.457 423.072 418.893 425.52 418.893ZM420.372 432.825C420.372 433.905 420.708 434.757 421.38 435.381C422.052 435.981 422.952 436.281 424.08 436.281C425.736 436.281 427.164 435.693 428.364 434.517C429.588 433.317 430.2 431.853 430.2 430.125V428.109H428.292C425.772 428.109 423.816 428.541 422.424 429.405C421.056 430.245 420.372 431.385 420.372 432.825ZM457.053 421.089C454.941 421.089 453.297 421.749 452.121 423.069C450.945 424.365 450.357 426.213 450.357 428.613C450.357 430.917 450.969 432.753 452.193 434.121C453.441 435.489 455.061 436.173 457.053 436.173C458.733 436.173 460.341 435.765 461.877 434.949L462.597 437.073C460.797 437.913 458.913 438.333 456.945 438.333C454.161 438.333 451.905 437.457 450.177 435.705C448.449 433.929 447.585 431.565 447.585 428.613C447.585 425.565 448.413 423.189 450.069 421.485C451.725 419.757 454.017 418.893 456.945 418.893C458.913 418.893 460.797 419.313 462.597 420.153L461.877 422.349C460.269 421.509 458.661 421.089 457.053 421.089ZM479.893 419.253H482.521V437.973H479.893V431.673C478.285 432.441 476.401 432.825 474.241 432.825C471.649 432.825 469.837 432.369 468.805 431.457C467.797 430.521 467.293 428.889 467.293 426.561V419.253H469.885V426.057C469.885 427.857 470.209 429.069 470.857 429.693C471.529 430.293 472.801 430.593 474.673 430.593C476.713 430.593 478.453 430.221 479.893 429.477V419.253ZM489.378 427.533H500.898C500.874 425.445 500.37 423.837 499.386 422.709C498.402 421.581 497.046 421.017 495.318 421.017C493.518 421.017 492.09 421.593 491.034 422.745C490.002 423.873 489.45 425.469 489.378 427.533ZM489.378 429.621C489.426 431.661 490.05 433.269 491.25 434.445C492.45 435.621 494.01 436.209 495.93 436.209C497.778 436.209 499.614 435.729 501.438 434.769L502.158 436.821C500.142 437.829 497.982 438.333 495.678 438.333C492.99 438.333 490.818 437.457 489.162 435.705C487.506 433.953 486.678 431.589 486.678 428.613C486.678 425.589 487.446 423.213 488.982 421.485C490.542 419.757 492.654 418.893 495.318 418.893C497.91 418.893 499.914 419.721 501.33 421.377C502.77 423.009 503.49 425.361 503.49 428.433C503.49 428.745 503.466 429.141 503.418 429.621H489.378ZM523.246 421.449H516.406V437.973H513.562V421.449H506.722V419.253H523.246V421.449ZM539.583 423.069C538.503 421.725 537.015 421.053 535.119 421.053C533.223 421.053 531.723 421.725 530.619 423.069C529.539 424.389 528.999 426.237 528.999 428.613C528.999 430.989 529.539 432.849 530.619 434.193C531.723 435.513 533.223 436.173 535.119 436.173C537.015 436.173 538.503 435.513 539.583 434.193C540.687 432.849 541.239 430.989 541.239 428.613C541.239 426.237 540.687 424.389 539.583 423.069ZM541.527 435.705C539.919 437.457 537.783 438.333 535.119 438.333C532.455 438.333 530.319 437.457 528.711 435.705C527.103 433.953 526.299 431.589 526.299 428.613C526.299 425.637 527.103 423.273 528.711 421.521C530.319 419.769 532.455 418.893 535.119 418.893C537.783 418.893 539.919 419.769 541.527 421.521C543.135 423.273 543.939 425.637 543.939 428.613C543.939 431.589 543.135 433.953 541.527 435.705ZM550.827 436.101C551.715 436.245 552.687 436.317 553.743 436.317C557.751 436.317 559.755 435.009 559.755 432.393C559.755 430.017 557.631 428.829 553.383 428.829H550.827V436.101ZM550.827 427.029H553.347C555.075 427.029 556.419 426.741 557.379 426.165C558.339 425.589 558.819 424.797 558.819 423.789C558.819 421.869 557.055 420.909 553.527 420.909C552.591 420.909 551.691 420.981 550.827 421.125V427.029ZM562.419 432.573C562.419 436.341 559.491 438.225 553.635 438.225C551.499 438.225 549.651 438.093 548.091 437.829V419.397C549.795 419.133 551.547 419.001 553.347 419.001C556.251 419.001 558.315 419.433 559.539 420.297C560.787 421.137 561.411 422.217 561.411 423.537C561.411 424.617 561.039 425.529 560.295 426.273C559.551 426.993 558.507 427.497 557.163 427.785V427.821C558.867 428.085 560.163 428.637 561.051 429.477C561.963 430.293 562.419 431.325 562.419 432.573Z" fill="black"/>
<path d="M834.668 411.708L842.372 427.656H842.444L849.968 411.708H853.244L844.172 430.176C842.612 433.32 840.932 435.468 839.132 436.62C837.356 437.772 834.836 438.348 831.572 438.348L831.392 435.936C834.056 435.936 836.048 435.564 837.368 434.82C838.688 434.052 839.876 432.588 840.932 430.428L831.284 411.708H834.668ZM857.013 419.268H870.693V421.536H859.785V437.988H857.013V419.268ZM886.861 423.084C885.781 421.74 884.293 421.068 882.397 421.068C880.501 421.068 879.001 421.74 877.897 423.084C876.817 424.404 876.277 426.252 876.277 428.628C876.277 431.004 876.817 432.864 877.897 434.208C879.001 435.528 880.501 436.188 882.397 436.188C884.293 436.188 885.781 435.528 886.861 434.208C887.965 432.864 888.517 431.004 888.517 428.628C888.517 426.252 887.965 424.404 886.861 423.084ZM888.805 435.72C887.197 437.472 885.061 438.348 882.397 438.348C879.733 438.348 877.597 437.472 875.989 435.72C874.381 433.968 873.577 431.604 873.577 428.628C873.577 425.652 874.381 423.288 875.989 421.536C877.597 419.784 879.733 418.908 882.397 418.908C885.061 418.908 887.197 419.784 888.805 421.536C890.413 423.288 891.217 425.652 891.217 428.628C891.217 431.604 890.413 433.968 888.805 435.72ZM898.392 428.484V419.268H912.252V437.988H909.588V421.5H900.984V428.916C900.984 432.492 900.468 434.916 899.436 436.188C898.404 437.46 896.436 438.18 893.532 438.348L893.388 436.116C894.78 436.044 895.8 435.816 896.448 435.432C897.12 435.048 897.612 434.34 897.924 433.308C898.236 432.252 898.392 430.644 898.392 428.484ZM929.681 423.084C928.601 421.74 927.113 421.068 925.217 421.068C923.321 421.068 921.821 421.74 920.717 423.084C919.637 424.404 919.097 426.252 919.097 428.628C919.097 431.004 919.637 432.864 920.717 434.208C921.821 435.528 923.321 436.188 925.217 436.188C927.113 436.188 928.601 435.528 929.681 434.208C930.785 432.864 931.337 431.004 931.337 428.628C931.337 426.252 930.785 424.404 929.681 423.084ZM931.625 435.72C930.017 437.472 927.881 438.348 925.217 438.348C922.553 438.348 920.417 437.472 918.809 435.72C917.201 433.968 916.397 431.604 916.397 428.628C916.397 425.652 917.201 423.288 918.809 421.536C920.417 419.784 922.553 418.908 925.217 418.908C927.881 418.908 930.017 419.784 931.625 421.536C933.233 423.288 934.037 425.652 934.037 428.628C934.037 431.604 933.233 433.968 931.625 435.72ZM940.924 436.116C941.812 436.26 942.784 436.332 943.84 436.332C947.848 436.332 949.852 435.024 949.852 432.408C949.852 430.032 947.728 428.844 943.48 428.844H940.924V436.116ZM940.924 427.044H943.444C945.172 427.044 946.516 426.756 947.476 426.18C948.436 425.604 948.916 424.812 948.916 423.804C948.916 421.884 947.152 420.924 943.624 420.924C942.688 420.924 941.788 420.996 940.924 421.14V427.044ZM952.516 432.588C952.516 436.356 949.588 438.24 943.732 438.24C941.596 438.24 939.748 438.108 938.188 437.844V419.412C939.892 419.148 941.644 419.016 943.444 419.016C946.348 419.016 948.412 419.448 949.636 420.312C950.884 421.152 951.508 422.232 951.508 423.552C951.508 424.632 951.136 425.544 950.392 426.288C949.648 427.008 948.604 427.512 947.26 427.8V427.836C948.964 428.1 950.26 428.652 951.148 429.492C952.06 430.308 952.516 431.34 952.516 432.588ZM959.629 428.988V437.988H956.821V419.268H959.629V426.9H970.249V419.268H973.057V437.988H970.249V428.988H959.629ZM990.466 423.084C989.386 421.74 987.898 421.068 986.002 421.068C984.106 421.068 982.606 421.74 981.502 423.084C980.422 424.404 979.882 426.252 979.882 428.628C979.882 431.004 980.422 432.864 981.502 434.208C982.606 435.528 984.106 436.188 986.002 436.188C987.898 436.188 989.386 435.528 990.466 434.208C991.57 432.864 992.122 431.004 992.122 428.628C992.122 426.252 991.57 424.404 990.466 423.084ZM992.41 435.72C990.802 437.472 988.666 438.348 986.002 438.348C983.338 438.348 981.202 437.472 979.594 435.72C977.986 433.968 977.182 431.604 977.182 428.628C977.182 425.652 977.986 423.288 979.594 421.536C981.202 419.784 983.338 418.908 986.002 418.908C988.666 418.908 990.802 419.784 992.41 421.536C994.018 423.288 994.822 425.652 994.822 428.628C994.822 431.604 994.018 433.968 992.41 435.72ZM1000.41 427.548H1011.93C1011.91 425.46 1011.41 423.852 1010.42 422.724C1009.44 421.596 1008.08 421.032 1006.35 421.032C1004.55 421.032 1003.13 421.608 1002.07 422.76C1001.04 423.888 1000.49 425.484 1000.41 427.548ZM1000.41 429.636C1000.46 431.676 1001.09 433.284 1002.29 434.46C1003.49 435.636 1005.05 436.224 1006.97 436.224C1008.81 436.224 1010.65 435.744 1012.47 434.784L1013.19 436.836C1011.18 437.844 1009.02 438.348 1006.71 438.348C1004.03 438.348 1001.85 437.472 1000.2 435.72C998.541 433.968 997.713 431.604 997.713 428.628C997.713 425.604 998.481 423.228 1000.02 421.5C1001.58 419.772 1003.69 418.908 1006.35 418.908C1008.95 418.908 1010.95 419.736 1012.37 421.392C1013.81 423.024 1014.53 425.376 1014.53 428.448C1014.53 428.76 1014.5 429.156 1014.45 429.636H1000.41ZM1032.09 428.988V437.988H1029.28V419.268H1032.09V426.9H1042.71V419.268H1045.51V437.988H1042.71V428.988H1032.09ZM1057.74 418.908C1060.36 418.908 1062.23 419.448 1063.36 420.528C1064.48 421.608 1065.05 423.384 1065.05 425.856V432.948C1065.05 434.652 1065.23 436.332 1065.59 437.988H1063.07C1062.88 437.052 1062.76 435.948 1062.71 434.676H1062.64C1061.99 435.828 1061.05 436.728 1059.83 437.376C1058.6 438.024 1057.22 438.348 1055.69 438.348C1053.96 438.348 1052.58 437.868 1051.55 436.908C1050.52 435.924 1050 434.604 1050 432.948C1050 430.86 1050.91 429.204 1052.74 427.98C1054.56 426.732 1057.15 426.108 1060.51 426.108H1062.42V425.928C1062.42 424.104 1062.07 422.844 1061.38 422.148C1060.7 421.428 1059.49 421.068 1057.74 421.068C1055.48 421.068 1053.38 421.62 1051.44 422.724L1050.97 420.6C1053.04 419.472 1055.29 418.908 1057.74 418.908ZM1052.59 432.84C1052.59 433.92 1052.93 434.772 1053.6 435.396C1054.27 435.996 1055.17 436.296 1056.3 436.296C1057.96 436.296 1059.38 435.708 1060.58 434.532C1061.81 433.332 1062.42 431.868 1062.42 430.14V428.124H1060.51C1057.99 428.124 1056.04 428.556 1054.64 429.42C1053.28 430.26 1052.59 431.4 1052.59 432.84ZM1073.47 427.188L1082.5 419.268H1085.96L1075.55 428.232L1086.25 437.988H1082.83L1073.47 429.312H1073.43V437.988H1070.62V419.268H1073.43V427.188H1073.47ZM1097.4 418.908C1100.01 418.908 1101.88 419.448 1103.01 420.528C1104.14 421.608 1104.7 423.384 1104.7 425.856V432.948C1104.7 434.652 1104.88 436.332 1105.24 437.988H1102.72C1102.53 437.052 1102.41 435.948 1102.36 434.676H1102.29C1101.64 435.828 1100.71 436.728 1099.48 437.376C1098.26 438.024 1096.88 438.348 1095.34 438.348C1093.62 438.348 1092.24 437.868 1091.2 436.908C1090.17 435.924 1089.66 434.604 1089.66 432.948C1089.66 430.86 1090.57 429.204 1092.39 427.98C1094.22 426.732 1096.81 426.108 1100.17 426.108H1102.08V425.928C1102.08 424.104 1101.73 422.844 1101.03 422.148C1100.36 421.428 1099.15 421.068 1097.4 421.068C1095.14 421.068 1093.04 421.62 1091.1 422.724L1090.63 420.6C1092.69 419.472 1094.95 418.908 1097.4 418.908ZM1092.25 432.84C1092.25 433.92 1092.58 434.772 1093.26 435.396C1093.93 435.996 1094.83 436.296 1095.96 436.296C1097.61 436.296 1099.04 435.708 1100.24 434.532C1101.46 433.332 1102.08 431.868 1102.08 430.14V428.124H1100.17C1097.65 428.124 1095.69 428.556 1094.3 429.42C1092.93 430.26 1092.25 431.4 1092.25 432.84ZM1116.07 420.996C1114.23 420.996 1112.23 421.416 1110.1 422.256L1109.45 420.24C1111.71 419.352 1113.99 418.908 1116.29 418.908C1118.86 418.908 1120.87 419.34 1122.34 420.204C1123.8 421.068 1124.53 422.172 1124.53 423.516C1124.53 424.5 1124.13 425.4 1123.31 426.216C1122.52 427.032 1121.37 427.608 1119.85 427.944V428.016C1121.51 428.304 1122.75 428.916 1123.56 429.852C1124.4 430.764 1124.82 431.796 1124.82 432.948C1124.82 434.628 1124.08 435.948 1122.59 436.908C1121.13 437.868 1119.03 438.348 1116.29 438.348C1113.94 438.348 1111.57 437.904 1109.2 437.016L1109.85 435C1112.03 435.792 1114.14 436.188 1116.18 436.188C1120.09 436.188 1122.05 435.012 1122.05 432.66C1122.05 431.46 1121.44 430.56 1120.21 429.96C1118.99 429.36 1116.97 429.06 1114.17 429.06H1112.58V426.936H1114.17C1119.23 426.936 1121.76 425.916 1121.76 423.876C1121.76 421.956 1119.87 420.996 1116.07 420.996ZM1136 418.908C1138.61 418.908 1140.49 419.448 1141.61 420.528C1142.74 421.608 1143.31 423.384 1143.31 425.856V432.948C1143.31 434.652 1143.49 436.332 1143.85 437.988H1141.33C1141.13 437.052 1141.01 435.948 1140.97 434.676H1140.89C1140.25 435.828 1139.31 436.728 1138.09 437.376C1136.86 438.024 1135.48 438.348 1133.95 438.348C1132.22 438.348 1130.84 437.868 1129.81 436.908C1128.77 435.924 1128.26 434.604 1128.26 432.948C1128.26 430.86 1129.17 429.204 1130.99 427.98C1132.82 426.732 1135.41 426.108 1138.77 426.108H1140.68V425.928C1140.68 424.104 1140.33 422.844 1139.63 422.148C1138.96 421.428 1137.75 421.068 1136 421.068C1133.74 421.068 1131.64 421.62 1129.7 422.724L1129.23 420.6C1131.29 419.472 1133.55 418.908 1136 418.908ZM1130.85 432.84C1130.85 433.92 1131.19 434.772 1131.86 435.396C1132.53 435.996 1133.43 436.296 1134.56 436.296C1136.21 436.296 1137.64 435.708 1138.84 434.532C1140.07 433.332 1140.68 431.868 1140.68 430.14V428.124H1138.77C1136.25 428.124 1134.29 428.556 1132.9 429.42C1131.53 430.26 1130.85 431.4 1130.85 432.84ZM1151.69 428.988V437.988H1148.88V419.268H1151.69V426.9H1162.31V419.268H1165.12V437.988H1162.31V428.988H1151.69ZM1173.24 434.316H1173.31L1183.96 419.268H1186.92V437.988H1184.18V422.94H1184.14L1173.45 437.988H1170.5V419.268H1173.24V434.316ZM1193.77 427.548H1205.29C1205.27 425.46 1204.76 423.852 1203.78 422.724C1202.8 421.596 1201.44 421.032 1199.71 421.032C1197.91 421.032 1196.48 421.608 1195.43 422.76C1194.4 423.888 1193.84 425.484 1193.77 427.548ZM1193.77 429.636C1193.82 431.676 1194.44 433.284 1195.64 434.46C1196.84 435.636 1198.4 436.224 1200.32 436.224C1202.17 436.224 1204.01 435.744 1205.83 434.784L1206.55 436.836C1204.54 437.844 1202.38 438.348 1200.07 438.348C1197.38 438.348 1195.21 437.472 1193.56 435.72C1191.9 433.968 1191.07 431.604 1191.07 428.628C1191.07 425.604 1191.84 423.228 1193.38 421.5C1194.94 419.772 1197.05 418.908 1199.71 418.908C1202.3 418.908 1204.31 419.736 1205.72 421.392C1207.16 423.024 1207.88 425.376 1207.88 428.448C1207.88 428.76 1207.86 429.156 1207.81 429.636H1193.77ZM1222.82 428.7V426.396H1233.51V428.7H1222.82ZM1251.66 411.708L1259.36 427.656H1259.43L1266.96 411.708H1270.23L1261.16 430.176C1259.6 433.32 1257.92 435.468 1256.12 436.62C1254.34 437.772 1251.82 438.348 1248.56 438.348L1248.38 435.936C1251.04 435.936 1253.04 435.564 1254.36 434.82C1255.68 434.052 1256.86 432.588 1257.92 430.428L1248.27 411.708H1251.66ZM1277.31 425.172H1277.24V437.988H1274.36V411.708H1277.24V423.408H1277.31L1288.98 411.708H1292.47L1279.83 424.308L1292.83 437.988H1289.37L1277.31 425.172ZM1307.58 411.924C1310.08 411.54 1312.52 411.348 1314.89 411.348C1318.16 411.348 1320.63 412.044 1322.31 413.436C1324.01 414.804 1324.86 416.772 1324.86 419.34C1324.86 422.124 1324.01 424.236 1322.31 425.676C1320.6 427.116 1318.13 427.836 1314.89 427.836C1313.31 427.836 1311.83 427.764 1310.46 427.62V437.988H1307.58V411.924ZM1310.46 425.244C1311.86 425.436 1313.26 425.532 1314.68 425.532C1317.05 425.532 1318.86 425.016 1320.11 423.984C1321.38 422.952 1322.02 421.476 1322.02 419.556C1322.02 417.636 1321.4 416.184 1320.15 415.2C1318.92 414.192 1317.1 413.688 1314.68 413.688C1313.36 413.688 1311.95 413.808 1310.46 414.048V425.244ZM1340.69 432.048C1343.07 431.832 1344.91 431.088 1346.23 429.816C1347.58 428.52 1348.25 426.804 1348.25 424.668C1348.25 422.532 1347.58 420.828 1346.23 419.556C1344.91 418.26 1343.07 417.504 1340.69 417.288V432.048ZM1340.69 414.876C1343.93 415.116 1346.47 416.112 1348.32 417.864C1350.19 419.616 1351.13 421.884 1351.13 424.668C1351.13 427.452 1350.19 429.72 1348.32 431.472C1346.47 433.224 1343.93 434.22 1340.69 434.46V437.988H1337.81V434.46C1334.57 434.22 1332.01 433.224 1330.14 431.472C1328.29 429.72 1327.37 427.452 1327.37 424.668C1327.37 421.884 1328.29 419.616 1330.14 417.864C1332.01 416.112 1334.57 415.116 1337.81 414.876V411.708H1340.69V414.876ZM1337.81 417.288C1335.43 417.504 1333.57 418.26 1332.23 419.556C1330.91 420.828 1330.25 422.532 1330.25 424.668C1330.25 426.804 1330.91 428.52 1332.23 429.816C1333.57 431.088 1335.43 431.832 1337.81 432.048V417.288ZM1377.61 435.936C1380.1 435.936 1382.42 435.252 1384.56 433.884L1385.53 436.044C1383.18 437.58 1380.45 438.348 1377.36 438.348C1373.4 438.348 1370.23 437.124 1367.85 434.676C1365.48 432.228 1364.29 428.952 1364.29 424.848C1364.29 420.696 1365.46 417.408 1367.82 414.984C1370.17 412.56 1373.35 411.348 1377.36 411.348C1380.45 411.348 1383.18 412.116 1385.53 413.652L1384.56 415.812C1382.42 414.444 1380.1 413.76 1377.61 413.76C1374.44 413.76 1371.91 414.768 1370.01 416.784C1368.14 418.776 1367.2 421.464 1367.2 424.848C1367.2 428.232 1368.16 430.932 1370.08 432.948C1372.03 434.94 1374.54 435.936 1377.61 435.936ZM1406.02 421.464H1399.18V437.988H1396.34V421.464H1389.5V419.268H1406.02V421.464ZM1417.18 418.908C1419.79 418.908 1421.66 419.448 1422.79 420.528C1423.92 421.608 1424.48 423.384 1424.48 425.856V432.948C1424.48 434.652 1424.66 436.332 1425.02 437.988H1422.5C1422.31 437.052 1422.19 435.948 1422.14 434.676H1422.07C1421.42 435.828 1420.49 436.728 1419.26 437.376C1418.04 438.024 1416.66 438.348 1415.12 438.348C1413.4 438.348 1412.02 437.868 1410.98 436.908C1409.95 435.924 1409.44 434.604 1409.44 432.948C1409.44 430.86 1410.35 429.204 1412.17 427.98C1414 426.732 1416.59 426.108 1419.95 426.108H1421.86V425.928C1421.86 424.104 1421.51 422.844 1420.81 422.148C1420.14 421.428 1418.93 421.068 1417.18 421.068C1414.92 421.068 1412.82 421.62 1410.88 422.724L1410.41 420.6C1412.47 419.472 1414.73 418.908 1417.18 418.908ZM1412.03 432.84C1412.03 433.92 1412.36 434.772 1413.04 435.396C1413.71 435.996 1414.61 436.296 1415.74 436.296C1417.39 436.296 1418.82 435.708 1420.02 434.532C1421.24 433.332 1421.86 431.868 1421.86 430.14V428.124H1419.95C1417.43 428.124 1415.47 428.556 1414.08 429.42C1412.71 430.26 1412.03 431.4 1412.03 432.84ZM1445.5 421.464H1438.66V437.988H1435.82V421.464H1428.98V419.268H1445.5V421.464ZM1449.82 419.268H1452.45V425.028C1453.48 424.836 1454.58 424.74 1455.76 424.74C1458.59 424.74 1460.74 425.328 1462.2 426.504C1463.67 427.656 1464.4 429.264 1464.4 431.328C1464.4 436.008 1461.4 438.348 1455.4 438.348C1453.41 438.348 1451.55 438.168 1449.82 437.808V419.268ZM1452.45 427.188V435.864C1453.41 436.08 1454.45 436.188 1455.58 436.188C1459.73 436.188 1461.81 434.568 1461.81 431.328C1461.81 428.376 1459.67 426.9 1455.4 426.9C1454.34 426.9 1453.36 426.996 1452.45 427.188ZM1472.8 429.06C1471.36 428.748 1470.18 428.208 1469.24 427.44C1468.33 426.648 1467.87 425.592 1467.87 424.272C1467.87 420.768 1470.69 419.016 1476.33 419.016C1478.32 419.016 1480.27 419.148 1482.16 419.412V437.988H1479.43V429.96H1476.94C1475.62 429.96 1474.7 430.128 1474.17 430.464C1473.67 430.776 1473.09 431.592 1472.44 432.912L1470.03 437.988H1467.26L1469.89 432.696C1470.46 431.544 1470.96 430.716 1471.36 430.212C1471.8 429.708 1472.28 429.348 1472.8 429.132V429.06ZM1479.43 427.944V421.284C1478.47 421.14 1477.47 421.068 1476.44 421.068C1472.48 421.068 1470.5 422.208 1470.5 424.488C1470.5 426.792 1472.61 427.944 1476.84 427.944H1479.43ZM1506.51 437.988V415.164H1506.44L1499.35 421.716L1498.23 419.376L1506.51 411.708H1509.39V437.988H1506.51ZM1522.5 413.076C1524.04 411.924 1526.12 411.348 1528.76 411.348C1531.4 411.348 1533.48 411.924 1534.99 413.076C1536.53 414.228 1537.3 415.752 1537.3 417.648C1537.3 420.552 1535.62 422.604 1532.26 423.804V423.876C1536.26 425.052 1538.27 427.392 1538.27 430.896C1538.27 433.176 1537.42 434.988 1535.71 436.332C1534.03 437.676 1531.72 438.348 1528.76 438.348C1525.81 438.348 1523.5 437.676 1521.82 436.332C1520.14 434.988 1519.3 433.176 1519.3 430.896C1519.3 429.36 1519.81 427.992 1520.84 426.792C1521.88 425.592 1523.35 424.692 1525.27 424.092V424.02C1523.66 423.42 1522.42 422.568 1521.53 421.464C1520.66 420.36 1520.23 419.088 1520.23 417.648C1520.23 415.752 1520.99 414.228 1522.5 413.076ZM1528.76 422.868C1530.61 422.484 1532.05 421.86 1533.08 420.996C1534.12 420.108 1534.63 419.076 1534.63 417.9C1534.63 416.604 1534.12 415.572 1533.08 414.804C1532.05 414.036 1530.61 413.652 1528.76 413.652C1526.94 413.652 1525.52 414.036 1524.52 414.804C1523.53 415.548 1523.04 416.58 1523.04 417.9C1523.04 419.1 1523.53 420.144 1524.52 421.032C1525.52 421.896 1526.94 422.508 1528.76 422.868ZM1528.66 425.136C1526.47 425.568 1524.82 426.276 1523.69 427.26C1522.58 428.244 1522.03 429.42 1522.03 430.788C1522.03 432.42 1522.63 433.704 1523.83 434.64C1525.03 435.576 1526.68 436.044 1528.76 436.044C1530.85 436.044 1532.48 435.576 1533.66 434.64C1534.84 433.68 1535.42 432.396 1535.42 430.788C1535.42 427.884 1533.17 426 1528.66 425.136ZM1542.77 411.708H1559.69V414.12C1555.49 421.008 1552.01 428.964 1549.25 437.988H1546.26C1549.05 429.228 1552.59 421.296 1556.88 414.192V414.12H1542.77V411.708ZM1565.71 437.988V432.948H1569.06V437.988H1565.71ZM828.19 464.708V475.688H841.87V464.708H844.75V490.988H841.87V477.992H828.19V490.988H825.31V464.708H828.19ZM851.949 480.548H863.469C863.445 478.46 862.941 476.852 861.957 475.724C860.973 474.596 859.617 474.032 857.889 474.032C856.089 474.032 854.661 474.608 853.605 475.76C852.573 476.888 852.021 478.484 851.949 480.548ZM851.949 482.636C851.997 484.676 852.621 486.284 853.821 487.46C855.021 488.636 856.581 489.224 858.501 489.224C860.349 489.224 862.185 488.744 864.009 487.784L864.729 489.836C862.713 490.844 860.553 491.348 858.249 491.348C855.561 491.348 853.389 490.472 851.733 488.72C850.077 486.968 849.249 484.604 849.249 481.628C849.249 478.604 850.017 476.228 851.553 474.5C853.113 472.772 855.225 471.908 857.889 471.908C860.481 471.908 862.485 472.736 863.901 474.392C865.341 476.024 866.061 478.376 866.061 481.448C866.061 481.76 866.037 482.156 865.989 482.636H851.949ZM870.372 472.268H886.212V490.988H883.584V474.5H873V490.988H870.372V472.268ZM900.354 491.348C897.642 491.348 895.626 490.256 894.306 488.072H894.234V498.908H891.606V472.268H894.126L894.162 475.436H894.234C895.554 473.084 897.594 471.908 900.354 471.908C902.706 471.908 904.554 472.748 905.898 474.428C907.242 476.084 907.914 478.484 907.914 481.628C907.914 484.7 907.218 487.088 905.826 488.792C904.458 490.496 902.634 491.348 900.354 491.348ZM905.322 481.628C905.322 479.18 904.83 477.308 903.846 476.012C902.886 474.716 901.53 474.068 899.778 474.068C898.122 474.068 896.778 474.716 895.746 476.012C894.738 477.308 894.234 479.096 894.234 481.376V481.88C894.234 484.208 894.75 486.008 895.782 487.28C896.814 488.552 898.146 489.188 899.778 489.188C901.482 489.188 902.826 488.54 903.81 487.244C904.818 485.924 905.322 484.052 905.322 481.628ZM919.083 471.908C921.699 471.908 923.571 472.448 924.699 473.528C925.827 474.608 926.391 476.384 926.391 478.856V485.948C926.391 487.652 926.571 489.332 926.931 490.988H924.411C924.219 490.052 924.099 488.948 924.051 487.676H923.979C923.331 488.828 922.395 489.728 921.171 490.376C919.947 491.024 918.567 491.348 917.031 491.348C915.303 491.348 913.923 490.868 912.891 489.908C911.859 488.924 911.343 487.604 911.343 485.948C911.343 483.86 912.255 482.204 914.079 480.98C915.903 479.732 918.495 479.108 921.855 479.108H923.763V478.928C923.763 477.104 923.415 475.844 922.719 475.148C922.047 474.428 920.835 474.068 919.083 474.068C916.827 474.068 914.727 474.62 912.783 475.724L912.315 473.6C914.379 472.472 916.635 471.908 919.083 471.908ZM913.935 485.84C913.935 486.92 914.271 487.772 914.943 488.396C915.615 488.996 916.515 489.296 917.643 489.296C919.299 489.296 920.727 488.708 921.927 487.532C923.151 486.332 923.763 484.868 923.763 483.14V481.124H921.855C919.335 481.124 917.379 481.556 915.987 482.42C914.619 483.26 913.935 484.4 913.935 485.84ZM934.702 489.116C935.59 489.26 936.562 489.332 937.618 489.332C941.626 489.332 943.63 488.024 943.63 485.408C943.63 483.032 941.506 481.844 937.258 481.844H934.702V489.116ZM934.702 480.044H937.222C938.95 480.044 940.294 479.756 941.254 479.18C942.214 478.604 942.694 477.812 942.694 476.804C942.694 474.884 940.93 473.924 937.402 473.924C936.466 473.924 935.566 473.996 934.702 474.14V480.044ZM946.294 485.588C946.294 489.356 943.366 491.24 937.51 491.24C935.374 491.24 933.526 491.108 931.966 490.844V472.412C933.67 472.148 935.422 472.016 937.222 472.016C940.126 472.016 942.19 472.448 943.414 473.312C944.662 474.152 945.286 475.232 945.286 476.552C945.286 477.632 944.914 478.544 944.17 479.288C943.426 480.008 942.382 480.512 941.038 480.8V480.836C942.742 481.1 944.038 481.652 944.926 482.492C945.838 483.308 946.294 484.34 946.294 485.588ZM962.622 476.084C961.542 474.74 960.054 474.068 958.158 474.068C956.262 474.068 954.762 474.74 953.658 476.084C952.578 477.404 952.038 479.252 952.038 481.628C952.038 484.004 952.578 485.864 953.658 487.208C954.762 488.528 956.262 489.188 958.158 489.188C960.054 489.188 961.542 488.528 962.622 487.208C963.726 485.864 964.278 484.004 964.278 481.628C964.278 479.252 963.726 477.404 962.622 476.084ZM964.566 488.72C962.958 490.472 960.822 491.348 958.158 491.348C955.494 491.348 953.358 490.472 951.75 488.72C950.142 486.968 949.338 484.604 949.338 481.628C949.338 478.652 950.142 476.288 951.75 474.536C953.358 472.784 955.494 471.908 958.158 471.908C960.822 471.908 962.958 472.784 964.566 474.536C966.174 476.288 966.978 478.652 966.978 481.628C966.978 484.604 966.174 486.968 964.566 488.72ZM989.31 475.868L982.794 485.444H980.382L973.866 475.868H973.794V490.988H971.13V472.268H974.298L981.57 483.428H981.606L988.878 472.268H992.082V490.988H989.382V475.868H989.31ZM998.937 480.548H1010.46C1010.43 478.46 1009.93 476.852 1008.94 475.724C1007.96 474.596 1006.6 474.032 1004.88 474.032C1003.08 474.032 1001.65 474.608 1000.59 475.76C999.561 476.888 999.009 478.484 998.937 480.548ZM998.937 482.636C998.985 484.676 999.609 486.284 1000.81 487.46C1002.01 488.636 1003.57 489.224 1005.49 489.224C1007.34 489.224 1009.17 488.744 1011 487.784L1011.72 489.836C1009.7 490.844 1007.54 491.348 1005.24 491.348C1002.55 491.348 1000.38 490.472 998.721 488.72C997.065 486.968 996.237 484.604 996.237 481.628C996.237 478.604 997.005 476.228 998.541 474.5C1000.1 472.772 1002.21 471.908 1004.88 471.908C1007.47 471.908 1009.47 472.736 1010.89 474.392C1012.33 476.024 1013.05 478.376 1013.05 481.448C1013.05 481.76 1013.02 482.156 1012.98 482.636H998.937ZM1026.11 491.348C1023.4 491.348 1021.38 490.256 1020.06 488.072H1019.99V498.908H1017.36V472.268H1019.88L1019.92 475.436H1019.99C1021.31 473.084 1023.35 471.908 1026.11 471.908C1028.46 471.908 1030.31 472.748 1031.65 474.428C1033 476.084 1033.67 478.484 1033.67 481.628C1033.67 484.7 1032.97 487.088 1031.58 488.792C1030.21 490.496 1028.39 491.348 1026.11 491.348ZM1031.08 481.628C1031.08 479.18 1030.58 477.308 1029.6 476.012C1028.64 474.716 1027.28 474.068 1025.53 474.068C1023.88 474.068 1022.53 474.716 1021.5 476.012C1020.49 477.308 1019.99 479.096 1019.99 481.376V481.88C1019.99 484.208 1020.5 486.008 1021.54 487.28C1022.57 488.552 1023.9 489.188 1025.53 489.188C1027.24 489.188 1028.58 488.54 1029.56 487.244C1030.57 485.924 1031.08 484.052 1031.08 481.628ZM1040.8 481.988V490.988H1038V472.268H1040.8V479.9H1051.42V472.268H1054.23V490.988H1051.42V481.988H1040.8ZM1077.26 490.988V472.268H1079.85V490.988H1077.26ZM1059.62 472.268H1062.25V478.028C1063.28 477.836 1064.38 477.74 1065.56 477.74C1068.39 477.74 1070.54 478.328 1072 479.504C1073.47 480.656 1074.2 482.264 1074.2 484.328C1074.2 489.008 1071.2 491.348 1065.2 491.348C1063.21 491.348 1061.35 491.168 1059.62 490.808V472.268ZM1062.25 480.188V488.864C1063.21 489.08 1064.25 489.188 1065.38 489.188C1069.53 489.188 1071.61 487.568 1071.61 484.328C1071.61 481.376 1069.47 479.9 1065.2 479.9C1064.14 479.9 1063.16 479.996 1062.25 480.188ZM1087.98 487.316H1088.05L1098.71 472.268H1101.66V490.988H1098.93V475.94H1098.89L1088.2 490.988H1085.25V472.268H1087.98V487.316ZM1090.39 466.76C1091.23 467.384 1092.25 467.696 1093.45 467.696C1094.65 467.696 1095.67 467.384 1096.51 466.76C1097.35 466.112 1097.8 465.344 1097.85 464.456H1100.11C1100.11 465.92 1099.48 467.168 1098.21 468.2C1096.96 469.232 1095.37 469.748 1093.45 469.748C1091.53 469.748 1089.94 469.232 1088.67 468.2C1087.42 467.168 1086.79 465.92 1086.79 464.456H1089.1C1089.15 465.344 1089.58 466.112 1090.39 466.76ZM1129.54 476.084C1128.46 474.74 1126.98 474.068 1125.08 474.068C1123.18 474.068 1121.68 474.74 1120.58 476.084C1119.5 477.404 1118.96 479.252 1118.96 481.628C1118.96 484.004 1119.5 485.864 1120.58 487.208C1121.68 488.528 1123.18 489.188 1125.08 489.188C1126.98 489.188 1128.46 488.528 1129.54 487.208C1130.65 485.864 1131.2 484.004 1131.2 481.628C1131.2 479.252 1130.65 477.404 1129.54 476.084ZM1131.49 488.72C1129.88 490.472 1127.74 491.348 1125.08 491.348C1122.42 491.348 1120.28 490.472 1118.67 488.72C1117.06 486.968 1116.26 484.604 1116.26 481.628C1116.26 478.652 1117.06 476.288 1118.67 474.536C1120.28 472.784 1122.42 471.908 1125.08 471.908C1127.74 471.908 1129.88 472.784 1131.49 474.536C1133.1 476.288 1133.9 478.652 1133.9 481.628C1133.9 484.604 1133.1 486.968 1131.49 488.72ZM1146.15 491.348C1143.54 491.348 1141.5 490.52 1140.03 488.864C1138.59 487.184 1137.87 484.808 1137.87 481.736V473.816C1137.87 470.48 1138.68 468.068 1140.28 466.58C1141.92 465.092 1144.51 464.348 1148.06 464.348C1149.88 464.348 1151.62 464.228 1153.28 463.988V466.148C1151.74 466.388 1150 466.508 1148.06 466.508C1145.25 466.508 1143.28 467.048 1142.16 468.128C1141.05 469.184 1140.5 471.044 1140.5 473.708V475.76H1140.57C1141.87 473.672 1143.93 472.628 1146.76 472.628C1148.95 472.628 1150.72 473.48 1152.09 475.184C1153.48 476.864 1154.18 479.132 1154.18 481.988C1154.18 484.964 1153.47 487.268 1152.06 488.9C1150.64 490.532 1148.67 491.348 1146.15 491.348ZM1151.59 481.988C1151.59 479.756 1151.08 478.004 1150.08 476.732C1149.09 475.436 1147.78 474.788 1146.15 474.788C1144.42 474.788 1143.04 475.388 1142.01 476.588C1141 477.788 1140.5 479.468 1140.5 481.628V482.096C1140.5 484.256 1141 485.984 1142.01 487.28C1143.04 488.552 1144.39 489.188 1146.04 489.188C1147.77 489.188 1149.13 488.564 1150.11 487.316C1151.1 486.044 1151.59 484.268 1151.59 481.988ZM1171.06 476.084C1169.98 474.74 1168.5 474.068 1166.6 474.068C1164.7 474.068 1163.2 474.74 1162.1 476.084C1161.02 477.404 1160.48 479.252 1160.48 481.628C1160.48 484.004 1161.02 485.864 1162.1 487.208C1163.2 488.528 1164.7 489.188 1166.6 489.188C1168.5 489.188 1169.98 488.528 1171.06 487.208C1172.17 485.864 1172.72 484.004 1172.72 481.628C1172.72 479.252 1172.17 477.404 1171.06 476.084ZM1173.01 488.72C1171.4 490.472 1169.26 491.348 1166.6 491.348C1163.94 491.348 1161.8 490.472 1160.19 488.72C1158.58 486.968 1157.78 484.604 1157.78 481.628C1157.78 478.652 1158.58 476.288 1160.19 474.536C1161.8 472.784 1163.94 471.908 1166.6 471.908C1169.26 471.908 1171.4 472.784 1173.01 474.536C1174.62 476.288 1175.42 478.652 1175.42 481.628C1175.42 484.604 1174.62 486.968 1173.01 488.72ZM1188.32 491.348C1185.61 491.348 1183.59 490.256 1182.27 488.072H1182.2V498.908H1179.57V472.268H1182.09L1182.13 475.436H1182.2C1183.52 473.084 1185.56 471.908 1188.32 471.908C1190.67 471.908 1192.52 472.748 1193.86 474.428C1195.21 476.084 1195.88 478.484 1195.88 481.628C1195.88 484.7 1195.18 487.088 1193.79 488.792C1192.42 490.496 1190.6 491.348 1188.32 491.348ZM1193.29 481.628C1193.29 479.18 1192.8 477.308 1191.81 476.012C1190.85 474.716 1189.5 474.068 1187.74 474.068C1186.09 474.068 1184.74 474.716 1183.71 476.012C1182.7 477.308 1182.2 479.096 1182.2 481.376V481.88C1182.2 484.208 1182.72 486.008 1183.75 487.28C1184.78 488.552 1186.11 489.188 1187.74 489.188C1189.45 489.188 1190.79 488.54 1191.78 487.244C1192.78 485.924 1193.29 484.052 1193.29 481.628ZM1212.23 476.084C1211.15 474.74 1209.66 474.068 1207.77 474.068C1205.87 474.068 1204.37 474.74 1203.27 476.084C1202.19 477.404 1201.65 479.252 1201.65 481.628C1201.65 484.004 1202.19 485.864 1203.27 487.208C1204.37 488.528 1205.87 489.188 1207.77 489.188C1209.66 489.188 1211.15 488.528 1212.23 487.208C1213.34 485.864 1213.89 484.004 1213.89 481.628C1213.89 479.252 1213.34 477.404 1212.23 476.084ZM1214.18 488.72C1212.57 490.472 1210.43 491.348 1207.77 491.348C1205.1 491.348 1202.97 490.472 1201.36 488.72C1199.75 486.968 1198.95 484.604 1198.95 481.628C1198.95 478.652 1199.75 476.288 1201.36 474.536C1202.97 472.784 1205.1 471.908 1207.77 471.908C1210.43 471.908 1212.57 472.784 1214.18 474.536C1215.78 476.288 1216.59 478.652 1216.59 481.628C1216.59 484.604 1215.78 486.968 1214.18 488.72ZM1236.18 474.464H1229.34V490.988H1226.5V474.464H1219.66V472.268H1236.18V474.464ZM1259.15 474.104C1257.03 474.104 1255.39 474.764 1254.21 476.084C1253.04 477.38 1252.45 479.228 1252.45 481.628C1252.45 483.932 1253.06 485.768 1254.29 487.136C1255.53 488.504 1257.15 489.188 1259.15 489.188C1260.83 489.188 1262.43 488.78 1263.97 487.964L1264.69 490.088C1262.89 490.928 1261.01 491.348 1259.04 491.348C1256.25 491.348 1254 490.472 1252.27 488.72C1250.54 486.944 1249.68 484.58 1249.68 481.628C1249.68 478.58 1250.51 476.204 1252.16 474.5C1253.82 472.772 1256.11 471.908 1259.04 471.908C1261.01 471.908 1262.89 472.328 1264.69 473.168L1263.97 475.364C1262.36 474.524 1260.75 474.104 1259.15 474.104ZM1278.49 491.348C1275.78 491.348 1273.77 490.256 1272.45 488.072H1272.37V498.908H1269.75V472.268H1272.27L1272.3 475.436H1272.37C1273.69 473.084 1275.73 471.908 1278.49 471.908C1280.85 471.908 1282.69 472.748 1284.04 474.428C1285.38 476.084 1286.05 478.484 1286.05 481.628C1286.05 484.7 1285.36 487.088 1283.97 488.792C1282.6 490.496 1280.77 491.348 1278.49 491.348ZM1283.46 481.628C1283.46 479.18 1282.97 477.308 1281.99 476.012C1281.03 474.716 1279.67 474.068 1277.92 474.068C1276.26 474.068 1274.92 474.716 1273.89 476.012C1272.88 477.308 1272.37 479.096 1272.37 481.376V481.88C1272.37 484.208 1272.89 486.008 1273.92 487.28C1274.95 488.552 1276.29 489.188 1277.92 489.188C1279.62 489.188 1280.97 488.54 1281.95 487.244C1282.96 485.924 1283.46 484.052 1283.46 481.628ZM1291.82 480.548H1303.34C1303.32 478.46 1302.82 476.852 1301.83 475.724C1300.85 474.596 1299.49 474.032 1297.76 474.032C1295.96 474.032 1294.54 474.608 1293.48 475.76C1292.45 476.888 1291.9 478.484 1291.82 480.548ZM1291.82 482.636C1291.87 484.676 1292.5 486.284 1293.7 487.46C1294.9 488.636 1296.46 489.224 1298.38 489.224C1300.22 489.224 1302.06 488.744 1303.88 487.784L1304.6 489.836C1302.59 490.844 1300.43 491.348 1298.12 491.348C1295.44 491.348 1293.26 490.472 1291.61 488.72C1289.95 486.968 1289.12 484.604 1289.12 481.628C1289.12 478.604 1289.89 476.228 1291.43 474.5C1292.99 472.772 1295.1 471.908 1297.76 471.908C1300.36 471.908 1302.36 472.736 1303.78 474.392C1305.22 476.024 1305.94 478.376 1305.94 481.448C1305.94 481.76 1305.91 482.156 1305.86 482.636H1291.82ZM1313.85 488.828H1323.75V474.428H1316.01C1316.01 476.708 1316.01 478.304 1316.01 479.216C1316.01 480.128 1315.97 481.196 1315.9 482.42C1315.85 483.62 1315.79 484.4 1315.72 484.76C1315.67 485.096 1315.55 485.576 1315.36 486.2C1315.17 486.824 1314.96 487.28 1314.75 487.568C1314.55 487.832 1314.25 488.252 1313.85 488.828ZM1310.71 488.828C1311.24 488.18 1311.61 487.724 1311.83 487.46C1312.05 487.172 1312.29 486.716 1312.55 486.092C1312.81 485.444 1312.97 484.952 1313.02 484.616C1313.09 484.256 1313.16 483.5 1313.23 482.348C1313.33 481.172 1313.38 480.116 1313.38 479.18C1313.38 478.22 1313.38 476.636 1313.38 474.428V472.268H1326.37V488.828H1328.89V495.308H1326.27V490.988H1311.61V495.308H1308.99V488.828H1310.71ZM1341.24 474.104C1339.12 474.104 1337.48 474.764 1336.3 476.084C1335.13 477.38 1334.54 479.228 1334.54 481.628C1334.54 483.932 1335.15 485.768 1336.38 487.136C1337.62 488.504 1339.24 489.188 1341.24 489.188C1342.92 489.188 1344.52 488.78 1346.06 487.964L1346.78 490.088C1344.98 490.928 1343.1 491.348 1341.13 491.348C1338.34 491.348 1336.09 490.472 1334.36 488.72C1332.63 486.944 1331.77 484.58 1331.77 481.628C1331.77 478.58 1332.6 476.204 1334.25 474.5C1335.91 472.772 1338.2 471.908 1341.13 471.908C1343.1 471.908 1344.98 472.328 1346.78 473.168L1346.06 475.364C1344.45 474.524 1342.84 474.104 1341.24 474.104ZM1367.28 474.464H1360.44V490.988H1357.6V474.464H1350.76V472.268H1367.28V474.464ZM1374.33 489.116C1375.22 489.26 1376.19 489.332 1377.25 489.332C1381.25 489.332 1383.26 488.024 1383.26 485.408C1383.26 483.032 1381.13 481.844 1376.89 481.844H1374.33V489.116ZM1374.33 480.044H1376.85C1378.58 480.044 1379.92 479.756 1380.88 479.18C1381.84 478.604 1382.32 477.812 1382.32 476.804C1382.32 474.884 1380.56 473.924 1377.03 473.924C1376.09 473.924 1375.19 473.996 1374.33 474.14V480.044ZM1385.92 485.588C1385.92 489.356 1382.99 491.24 1377.14 491.24C1375 491.24 1373.15 491.108 1371.59 490.844V472.412C1373.3 472.148 1375.05 472.016 1376.85 472.016C1379.75 472.016 1381.82 472.448 1383.04 473.312C1384.29 474.152 1384.91 475.232 1384.91 476.552C1384.91 477.632 1384.54 478.544 1383.8 479.288C1383.05 480.008 1382.01 480.512 1380.67 480.8V480.836C1382.37 481.1 1383.67 481.652 1384.55 482.492C1385.47 483.308 1385.92 484.34 1385.92 485.588ZM1400.67 472.268H1416.51V490.988H1413.88V474.5H1403.3V490.988H1400.67V472.268ZM1424.93 481.484V472.268H1438.79V490.988H1436.12V474.5H1427.52V481.916C1427.52 485.492 1427 487.916 1425.97 489.188C1424.94 490.46 1422.97 491.18 1420.07 491.348L1419.92 489.116C1421.32 489.044 1422.34 488.816 1422.98 488.432C1423.66 488.048 1424.15 487.34 1424.46 486.308C1424.77 485.252 1424.93 483.644 1424.93 481.484ZM1451.03 471.908C1453.65 471.908 1455.52 472.448 1456.65 473.528C1457.78 474.608 1458.34 476.384 1458.34 478.856V485.948C1458.34 487.652 1458.52 489.332 1458.88 490.988H1456.36C1456.17 490.052 1456.05 488.948 1456 487.676H1455.93C1455.28 488.828 1454.34 489.728 1453.12 490.376C1451.9 491.024 1450.52 491.348 1448.98 491.348C1447.25 491.348 1445.87 490.868 1444.84 489.908C1443.81 488.924 1443.29 487.604 1443.29 485.948C1443.29 483.86 1444.2 482.204 1446.03 480.98C1447.85 479.732 1450.44 479.108 1453.8 479.108H1455.71V478.928C1455.71 477.104 1455.36 475.844 1454.67 475.148C1454 474.428 1452.78 474.068 1451.03 474.068C1448.78 474.068 1446.68 474.62 1444.73 475.724L1444.26 473.6C1446.33 472.472 1448.58 471.908 1451.03 471.908ZM1445.88 485.84C1445.88 486.92 1446.22 487.772 1446.89 488.396C1447.56 488.996 1448.46 489.296 1449.59 489.296C1451.25 489.296 1452.68 488.708 1453.88 487.532C1455.1 486.332 1455.71 484.868 1455.71 483.14V481.124H1453.8C1451.28 481.124 1449.33 481.556 1447.94 482.42C1446.57 483.26 1445.88 484.4 1445.88 485.84ZM1479.36 474.464H1472.52V490.988H1469.67V474.464H1462.83V472.268H1479.36V474.464ZM1485.11 480.548H1496.63C1496.61 478.46 1496.1 476.852 1495.12 475.724C1494.14 474.596 1492.78 474.032 1491.05 474.032C1489.25 474.032 1487.82 474.608 1486.77 475.76C1485.74 476.888 1485.18 478.484 1485.11 480.548ZM1485.11 482.636C1485.16 484.676 1485.78 486.284 1486.98 487.46C1488.18 488.636 1489.74 489.224 1491.66 489.224C1493.51 489.224 1495.35 488.744 1497.17 487.784L1497.89 489.836C1495.88 490.844 1493.72 491.348 1491.41 491.348C1488.72 491.348 1486.55 490.472 1484.9 488.72C1483.24 486.968 1482.41 484.604 1482.41 481.628C1482.41 478.604 1483.18 476.228 1484.72 474.5C1486.28 472.772 1488.39 471.908 1491.05 471.908C1493.64 471.908 1495.65 472.736 1497.06 474.392C1498.5 476.024 1499.22 478.376 1499.22 481.448C1499.22 481.76 1499.2 482.156 1499.15 482.636H1485.11ZM1513.18 490.988V482.348H1511.28L1505.44 490.988H1502.64L1509.22 481.196L1502.82 472.268H1505.66L1511.28 480.116H1513.18V472.268H1515.85V480.116H1517.76L1523.37 472.268H1526.22L1519.81 481.196L1526.4 490.988H1523.59L1517.76 482.348H1515.85V490.988H1513.18ZM1532.33 480.548H1543.85C1543.82 478.46 1543.32 476.852 1542.34 475.724C1541.35 474.596 1540 474.032 1538.27 474.032C1536.47 474.032 1535.04 474.608 1533.98 475.76C1532.95 476.888 1532.4 478.484 1532.33 480.548ZM1532.33 482.636C1532.38 484.676 1533 486.284 1534.2 487.46C1535.4 488.636 1536.96 489.224 1538.88 489.224C1540.73 489.224 1542.56 488.744 1544.39 487.784L1545.11 489.836C1543.09 490.844 1540.93 491.348 1538.63 491.348C1535.94 491.348 1533.77 490.472 1532.11 488.72C1530.46 486.968 1529.63 484.604 1529.63 481.628C1529.63 478.604 1530.4 476.228 1531.93 474.5C1533.49 472.772 1535.6 471.908 1538.27 471.908C1540.86 471.908 1542.86 472.736 1544.28 474.392C1545.72 476.024 1546.44 478.376 1546.44 481.448C1546.44 481.76 1546.42 482.156 1546.37 482.636H1532.33ZM1553.49 487.316H1553.56L1564.21 472.268H1567.17V490.988H1564.43V475.94H1564.39L1553.7 490.988H1550.75V472.268H1553.49V487.316ZM1555.9 466.76C1556.74 467.384 1557.76 467.696 1558.96 467.696C1560.16 467.696 1561.18 467.384 1562.02 466.76C1562.86 466.112 1563.3 465.344 1563.35 464.456H1565.62C1565.62 465.92 1564.98 467.168 1563.71 468.2C1562.46 469.232 1560.88 469.748 1558.96 469.748C1557.04 469.748 1555.44 469.232 1554.17 468.2C1552.92 467.168 1552.3 465.92 1552.3 464.456H1554.6C1554.65 465.344 1555.08 466.112 1555.9 466.76ZM1573.3 490.988V485.948H1576.65V490.988H1573.3Z" fill="black"/>
<path d="M486.16 132.746C538.873 91.9883 521.397 104.859 538.873 91.9883L575.444 120.301L582.865 126.101C585.102 127.808 683.592 201.35 685.52 203.352C681.577 201.939 676.976 201.58 673.19 200.073C630.051 182.925 670.822 201.137 558.035 115.964C556.568 115.522 555.548 113.766 554.098 113.266C549.34 111.622 544.608 110.55 539.536 110.232C534.205 110.237 529.19 110.777 524.137 112.442C522.353 113.03 520.568 113.978 518.749 114.409L495.367 126.632C492.425 128.146 489.378 131.825 486.16 132.746Z" fill="#61BFC3"/>
<path d="M539.367 100.01L555.749 112.861C556.565 113.506 557.868 114.05 558.413 114.903C556.946 114.461 555.547 113.769 554.097 113.269C549.339 111.625 544.607 110.553 539.535 110.235L539.367 100.01Z" fill="#3BA4A6"/>
<path d="M472.896 171.404C473.383 170.702 461.333 157.707 462.025 157.161L533.155 103.575L536.865 100.927C537.482 100.496 538.184 99.9072 538.916 99.668L539.369 100.005L539.537 110.23C473.143 170.889 539.289 110.745 472.896 171.404Z" fill="#1C9693"/>
<path d="M393.547 349.311L437.123 349.348L437.111 355.465L393.562 355.489L393.547 349.311Z" fill="#1C9693"/>
<path d="M434.415 325.06L437.452 325.094L437.317 328.838L437.251 332.598C437.228 333.449 437.16 334.322 437.248 335.17C437.288 335.561 437.29 336.135 437.122 336.502L437.12 349.344L393.544 349.306L393.505 349.211C393.778 346.241 393.517 343.042 393.517 340.048C393.517 338.944 393.373 337.679 393.658 336.615C393.758 336.161 393.91 335.907 394.265 335.574C395.493 334.425 397.504 334.722 399.101 334.735L403.615 334.785L403.612 332.651L403.55 328.796C403.703 327.711 404.226 326.8 405.129 326.085C407.08 324.541 410.352 324.913 412.762 325.059L434.415 325.06Z" fill="#3BA4A6"/>
<path d="M437.257 332.588C437.234 333.439 437.167 334.313 437.254 335.161C437.295 335.551 437.297 336.125 437.128 336.493C435.472 336.718 433.662 336.601 431.983 336.606L422.734 336.637L402.573 336.629L393.664 336.605C393.764 336.151 393.916 335.897 394.272 335.564C395.499 334.415 397.51 334.712 399.108 334.725L403.621 334.775L403.619 332.641L437.257 332.588Z" fill="#61BFC3"/>
<path d="M453.52 349.311L409.944 349.348L409.955 355.465L453.505 355.489L453.52 349.311Z" fill="#1C9693"/>
<path d="M412.651 325.06L409.614 325.094L409.749 328.838L409.816 332.598C409.838 333.449 409.906 334.322 409.819 335.17C409.778 335.561 409.776 336.135 409.945 336.502L409.947 349.344L453.522 349.306L453.562 349.211C453.288 346.241 453.55 343.042 453.55 340.048C453.55 338.944 453.693 337.679 453.409 336.615C453.309 336.161 453.157 335.907 452.801 335.574C451.574 334.425 449.562 334.722 447.965 334.735L443.451 334.785L443.454 332.651L443.516 328.796C443.364 327.711 442.841 326.8 441.937 326.085C439.986 324.541 436.714 324.913 434.304 325.059L412.651 325.06Z" fill="#3BA4A6"/>
<path d="M409.813 332.588C409.836 333.439 409.904 334.313 409.816 335.161C409.776 335.551 409.773 336.125 409.942 336.493C411.598 336.718 413.408 336.601 415.087 336.606L424.336 336.637L444.497 336.629L453.406 336.605C453.306 336.151 453.154 335.897 452.799 335.564C451.571 334.415 449.56 334.712 447.962 334.725L443.449 334.775L443.452 332.641L409.813 332.588Z" fill="#61BFC3"/>
<path d="M437.244 332.588C437.163 335.626 437.244 332.588 436.928 334.861L403.608 334.775L403.605 332.641L437.244 332.588Z" fill="#127B78"/>
<path d="M434.416 325.06L437.453 325.094L437.318 328.838L437.251 332.598L403.613 332.651L403.551 328.796C403.703 327.711 404.226 326.8 405.13 326.085C407.081 324.541 410.353 324.913 412.763 325.059L434.416 325.06Z" fill="#3BA4A6"/>
<path d="M434.416 325.06L437.453 325.094L437.318 328.838L403.551 328.796C403.703 327.711 404.226 326.8 405.13 326.085C407.081 324.541 410.353 324.913 412.763 325.059L434.416 325.06Z" fill="#61BFC3"/>
<path d="M409.619 332.65C409.7 335.688 409.619 332.65 409.812 334.838H443.255L443.258 332.703L409.619 332.65Z" fill="#127B78"/>
<path d="M412.443 325.117L409.406 325.15L409.541 328.895L409.608 332.654L443.246 332.707L443.309 328.853C443.156 327.767 442.633 326.857 441.729 326.142C439.779 324.598 436.506 324.97 434.097 325.116L412.443 325.117Z" fill="#3BA4A6"/>
<path d="M412.443 325.003L409.406 325.037L409.541 328.781L443.309 328.739C443.156 327.654 442.633 326.744 441.729 326.028C439.779 324.484 436.506 324.856 434.097 325.002L412.443 325.003Z" fill="#61BFC3"/>
<path d="M622.758 349.311L666.334 349.348L666.322 355.465L622.773 355.489L622.758 349.311Z" fill="#1C9693"/>
<path d="M663.622 325.06L666.659 325.094L666.524 328.838L666.458 332.598C666.435 333.449 666.367 334.322 666.455 335.17C666.495 335.561 666.497 336.135 666.329 336.502L666.327 349.344L622.751 349.306L622.712 349.211C622.985 346.241 622.724 343.042 622.724 340.048C622.724 338.944 622.58 337.679 622.865 336.615C622.965 336.161 623.117 335.907 623.472 335.574C624.7 334.425 626.711 334.722 628.308 334.735L632.822 334.785L632.819 332.651L632.757 328.796C632.91 327.711 633.433 326.8 634.336 326.085C636.287 324.541 639.559 324.913 641.969 325.059L663.622 325.06Z" fill="#3BA4A6"/>
<path d="M666.464 332.588C666.441 333.439 666.374 334.313 666.461 335.161C666.502 335.551 666.504 336.125 666.335 336.493C664.679 336.718 662.869 336.601 661.19 336.606L651.941 336.637L631.78 336.629L622.871 336.605C622.971 336.151 623.123 335.897 623.479 335.564C624.706 334.415 626.718 334.712 628.315 334.725L632.829 334.775L632.826 332.641L666.464 332.588Z" fill="#61BFC3"/>
<path d="M682.727 349.311L639.151 349.348L639.162 355.465L682.712 355.489L682.727 349.311Z" fill="#1C9693"/>
<path d="M641.858 325.06L638.821 325.094L638.956 328.838L639.023 332.598C639.045 333.449 639.113 334.322 639.026 335.17C638.985 335.561 638.983 336.135 639.152 336.502L639.154 349.344L682.729 349.306L682.769 349.211C682.495 346.241 682.757 343.042 682.757 340.048C682.757 338.944 682.9 337.679 682.616 336.615C682.516 336.161 682.364 335.907 682.008 335.574C680.781 334.425 678.769 334.722 677.172 334.735L672.658 334.785L672.661 332.651L672.723 328.796C672.571 327.711 672.048 326.8 671.144 326.085C669.193 324.541 665.921 324.913 663.511 325.059L641.858 325.06Z" fill="#3BA4A6"/>
<path d="M639.02 332.588C639.043 333.439 639.111 334.313 639.023 335.161C638.983 335.551 638.98 336.125 639.149 336.493C640.805 336.718 642.615 336.601 644.294 336.606L653.543 336.637L673.704 336.629L682.613 336.605C682.513 336.151 682.361 335.897 682.006 335.564C680.778 334.415 678.767 334.712 677.169 334.725L672.656 334.775L672.659 332.641L639.02 332.588Z" fill="#61BFC3"/>
<path d="M666.451 332.588C666.37 335.626 666.451 332.588 666.135 334.861L632.815 334.775L632.812 332.641L666.451 332.588Z" fill="#127B78"/>
<path d="M663.627 325.06L666.664 325.094L666.529 328.838L666.462 332.598L632.824 332.651L632.762 328.796C632.914 327.711 633.437 326.8 634.341 326.085C636.292 324.541 639.564 324.913 641.974 325.059L663.627 325.06Z" fill="#3BA4A6"/>
<path d="M663.627 325.06L666.664 325.094L666.529 328.838L632.762 328.796C632.914 327.711 633.437 326.8 634.341 326.085C636.292 324.541 639.564 324.913 641.974 325.059L663.627 325.06Z" fill="#61BFC3"/>
<path d="M638.826 332.65C638.907 335.688 638.826 332.65 639.019 334.838H672.462L672.465 332.703L638.826 332.65Z" fill="#127B78"/>
<path d="M641.65 325.117L638.613 325.15L638.748 328.895L638.815 332.654L672.454 332.707L672.516 328.853C672.363 327.767 671.84 326.857 670.936 326.142C668.986 324.598 665.713 324.97 663.304 325.116L641.65 325.117Z" fill="#3BA4A6"/>
<path d="M641.65 325.003L638.613 325.037L638.748 328.781L672.516 328.739C672.363 327.654 671.84 326.744 670.936 326.028C668.986 324.484 665.713 324.856 663.304 325.002L641.65 325.003Z" fill="#61BFC3"/>
<path d="M573.277 349.311L616.853 349.348L616.842 355.465L573.292 355.489L573.277 349.311Z" fill="#1C9693"/>
<path d="M614.142 325.06L617.179 325.094L617.044 328.838L616.977 332.598C616.955 333.449 616.887 334.322 616.974 335.17C617.015 335.561 617.017 336.135 616.848 336.502L616.846 349.344L573.271 349.306L573.231 349.211C573.505 346.241 573.243 343.042 573.243 340.048C573.243 338.944 573.1 337.679 573.384 336.615C573.484 336.161 573.636 335.907 573.992 335.574C575.219 334.425 577.231 334.722 578.828 334.735L583.342 334.785L583.339 332.651L583.277 328.796C583.429 327.711 583.952 326.8 584.856 326.085C586.807 324.541 590.079 324.913 592.489 325.059L614.142 325.06Z" fill="#3BA4A6"/>
<path d="M616.984 332.588C616.961 333.439 616.893 334.313 616.981 335.161C617.021 335.551 617.023 336.125 616.855 336.493C615.199 336.718 613.389 336.601 611.71 336.606L602.461 336.637L582.3 336.629L573.391 336.605C573.491 336.151 573.643 335.897 573.998 335.564C575.226 334.415 577.237 334.712 578.834 334.725L583.348 334.775L583.345 332.641L616.984 332.588Z" fill="#61BFC3"/>
<path d="M633.246 349.311L589.67 349.348L589.682 355.465L633.231 355.489L633.246 349.311Z" fill="#1C9693"/>
<path d="M592.378 325.06L589.341 325.094L589.476 328.838L589.542 332.598C589.565 333.449 589.633 334.322 589.545 335.17C589.505 335.561 589.503 336.135 589.671 336.502L589.673 349.344L633.249 349.306L633.288 349.211C633.015 346.241 633.276 343.042 633.276 340.048C633.276 338.944 633.42 337.679 633.135 336.615C633.035 336.161 632.883 335.907 632.528 335.574C631.3 334.425 629.289 334.722 627.692 334.735L623.178 334.785L623.181 332.651L623.243 328.796C623.09 327.711 622.567 326.8 621.664 326.085C619.713 324.541 616.441 324.913 614.031 325.059L592.378 325.06Z" fill="#3BA4A6"/>
<path d="M589.54 332.588C589.562 333.439 589.63 334.313 589.543 335.161C589.502 335.551 589.5 336.125 589.669 336.493C591.324 336.718 593.135 336.601 594.814 336.606L604.063 336.637L624.224 336.629L633.133 336.605C633.033 336.151 632.881 335.897 632.525 335.564C631.298 334.415 629.286 334.712 627.689 334.725L623.175 334.775L623.178 332.641L589.54 332.588Z" fill="#61BFC3"/>
<path d="M616.97 332.588C616.89 335.626 616.97 332.588 616.655 334.861L583.335 334.775L583.332 332.641L616.97 332.588Z" fill="#127B78"/>
<path d="M614.146 325.06L617.183 325.094L617.048 328.838L616.982 332.598L583.343 332.651L583.281 328.796C583.434 327.711 583.957 326.8 584.86 326.085C586.811 324.541 590.083 324.913 592.493 325.059L614.146 325.06Z" fill="#3BA4A6"/>
<path d="M614.146 325.06L617.183 325.094L617.048 328.838L583.281 328.796C583.434 327.711 583.957 326.8 584.86 326.085C586.811 324.541 590.083 324.913 592.493 325.059L614.146 325.06Z" fill="#61BFC3"/>
<path d="M589.346 332.65C589.427 335.688 589.346 332.65 589.538 334.838H622.982L622.984 332.703L589.346 332.65Z" fill="#127B78"/>
<path d="M592.17 325.117L589.133 325.15L589.268 328.895L589.335 332.654L622.973 332.707L623.035 328.853C622.883 327.767 622.36 326.857 621.456 326.142C619.505 324.598 616.233 324.97 613.823 325.116L592.17 325.117Z" fill="#3BA4A6"/>
<path d="M592.17 325.003L589.133 325.037L589.268 328.781L623.035 328.739C622.883 327.654 622.36 326.744 621.456 326.028C619.505 324.484 616.233 324.856 613.823 325.002L592.17 325.003Z" fill="#61BFC3"/>
<path d="M443.762 349.311L487.337 349.348L487.326 355.465L443.777 355.489L443.762 349.311Z" fill="#1C9693"/>
<path d="M484.626 325.06L487.663 325.094L487.528 328.838L487.462 332.598C487.439 333.449 487.371 334.322 487.459 335.17C487.499 335.561 487.501 336.135 487.333 336.502L487.331 349.344L443.755 349.306L443.715 349.211C443.989 346.241 443.728 343.042 443.728 340.048C443.728 338.944 443.584 337.679 443.869 336.615C443.969 336.161 444.121 335.907 444.476 335.574C445.704 334.425 447.715 334.722 449.312 334.735L453.826 334.785L453.823 332.651L453.761 328.796C453.914 327.711 454.437 326.8 455.34 326.085C457.291 324.541 460.563 324.913 462.973 325.059L484.626 325.06Z" fill="#3BA4A6"/>
<path d="M487.468 332.588C487.445 333.439 487.378 334.313 487.465 335.161C487.506 335.551 487.508 336.125 487.339 336.493C485.683 336.718 483.873 336.601 482.194 336.606L472.945 336.637L452.784 336.629L443.875 336.605C443.975 336.151 444.127 335.897 444.483 335.564C445.71 334.415 447.721 334.712 449.319 334.725L453.832 334.775L453.83 332.641L487.468 332.588Z" fill="#61BFC3"/>
<path d="M503.73 349.311L460.155 349.348L460.166 355.465L503.716 355.489L503.73 349.311Z" fill="#1C9693"/>
<path d="M462.862 325.06L459.825 325.094L459.96 328.838L460.027 332.598C460.049 333.449 460.117 334.322 460.03 335.17C459.989 335.561 459.987 336.135 460.155 336.502L460.158 349.344L503.733 349.306L503.773 349.211C503.499 346.241 503.761 343.042 503.761 340.048C503.761 338.944 503.904 337.679 503.62 336.615C503.52 336.161 503.368 335.907 503.012 335.574C501.785 334.425 499.773 334.722 498.176 334.735L493.662 334.785L493.665 332.651L493.727 328.796C493.575 327.711 493.052 326.8 492.148 326.085C490.197 324.541 486.925 324.913 484.515 325.059L462.862 325.06Z" fill="#3BA4A6"/>
<path d="M460.024 332.588C460.047 333.439 460.114 334.313 460.027 335.161C459.986 335.551 459.984 336.125 460.153 336.493C461.809 336.718 463.619 336.601 465.298 336.606L474.547 336.637L494.708 336.629L503.617 336.605C503.517 336.151 503.365 335.897 503.01 335.564C501.782 334.415 499.771 334.712 498.173 334.725L493.66 334.775L493.663 332.641L460.024 332.588Z" fill="#61BFC3"/>
<path d="M487.455 332.588C487.374 335.626 487.455 332.588 487.139 334.861L453.819 334.775L453.816 332.641L487.455 332.588Z" fill="#127B78"/>
<path d="M484.627 325.06L487.664 325.094L487.529 328.838L487.462 332.598L453.824 332.651L453.762 328.796C453.914 327.711 454.437 326.8 455.341 326.085C457.292 324.541 460.564 324.913 462.974 325.059L484.627 325.06Z" fill="#3BA4A6"/>
<path d="M484.627 325.06L487.664 325.094L487.529 328.838L453.762 328.796C453.914 327.711 454.437 326.8 455.341 326.085C457.292 324.541 460.564 324.913 462.974 325.059L484.627 325.06Z" fill="#61BFC3"/>
<path d="M459.83 332.65C459.911 335.688 459.83 332.65 460.023 334.838H493.466L493.469 332.703L459.83 332.65Z" fill="#127B78"/>
<path d="M462.654 325.117L459.617 325.15L459.752 328.895L459.819 332.654L493.457 332.707L493.52 328.853C493.367 327.767 492.844 326.857 491.94 326.142C489.989 324.598 486.717 324.97 484.308 325.116L462.654 325.117Z" fill="#3BA4A6"/>
<path d="M462.654 325.003L459.617 325.037L459.752 328.781L493.52 328.739C493.367 327.654 492.844 326.744 491.94 326.028C489.989 324.484 486.717 324.856 484.308 325.002L462.654 325.003Z" fill="#61BFC3"/>
<path d="M412.702 232.541L434.399 232.582L434.464 266.421L434.467 276.094C434.468 277.447 434.64 279.016 434.437 280.335L434.406 325.064L412.753 325.063C412.642 324.523 412.738 323.789 412.739 323.232L412.752 319.517L412.815 304.647L412.808 248.934C412.699 248.696 412.762 248.207 412.762 247.934L412.758 245.246L412.702 232.541Z" fill="#E6A656"/>
<path d="M412.715 232.541L434.412 232.582L434.477 266.421L434.481 276.094C434.481 277.447 434.654 279.016 434.451 280.335C434.07 279.823 434.304 239.916 434.303 235.754L412.85 235.783L412.821 248.934C412.713 248.696 412.776 248.207 412.775 247.934L412.771 245.246L412.715 232.541Z" fill="#C37D2E"/>
<path d="M484.729 325.043C462.854 325.043 484.729 325.043 462.854 325.043L462.788 247.395L462.766 232.687L484.729 232.674C484.759 282.875 484.699 274.842 484.729 325.043Z" fill="#E6A656"/>
<path d="M462.766 232.687L484.729 232.674L484.71 237.944L484.624 235.643L462.931 235.704L462.916 243.49C462.904 244.737 463.006 246.17 462.788 247.395L462.766 232.687Z" fill="#C37D2E"/>
<path d="M459.326 153.959L463.234 158.624C464.766 160.055 466.316 161.511 468.167 162.588C469.315 163.282 470.623 163.94 471.666 164.756C472.108 164.997 472.537 165.163 472.741 165.628L472.889 171.375C473.072 176.115 473.766 180.741 474.759 185.389C475.212 187.512 475.639 189.71 476.297 191.786C473.525 192.591 471.18 194.231 469.808 196.67C469.397 197.4 469.112 198.161 468.816 198.934C468.468 200.647 468.318 202.227 468.282 203.972C468.458 205.426 468.857 206.757 469.316 208.15L471.058 211.541C473.186 214.669 475.083 217.105 478.779 218.727C482.124 219.324 484.393 218.656 487.443 217.38L490.132 225.45L488.288 225.402L488.286 229.411L488.283 232.697L484.729 232.668L462.766 232.682L458.067 232.698L458.036 229.322L458.037 225.509L437.803 225.566L437.786 230.34C437.783 230.995 437.914 231.958 437.642 232.552C436.846 232.814 435.297 232.599 434.413 232.583L412.715 232.541L408.185 232.512L408.196 229.13L408.232 225.625C407.089 225.724 404.984 225.917 403.927 225.618L403.952 218.459L403.988 211.288C403.244 211.13 402.465 211.188 401.706 211.195C401.308 211.2 400.491 211.309 400.134 211.214C399.703 211.099 397.144 208.636 396.6 208.167L393.116 205.135C392.484 204.591 391.807 204.225 391.605 203.435C393.102 202.064 394.841 200.883 396.487 199.672L404.894 193.566L426.304 177.897L446.398 163.25C450.637 160.13 454.857 156.776 459.326 153.959Z" fill="#1C9693"/>
<path d="M539.545 107.953C539.545 110.235 539.545 107.953 539.545 110.235C534.236 113.163 461.368 171.584 456.483 175.089L437.106 188.787L425.969 196.541C425.058 197.22 423.897 197.916 423.127 198.726L423.029 198.752L416.793 198.762L539.545 107.953Z" fill="#0F414A"/>
<path d="M539.558 110.23L472.887 171.369C470.009 172.483 467.257 174.789 464.772 176.529L454.733 183.534L441.998 192.538L433.411 198.772L423.125 198.723C539.558 110.23 423.125 198.723 539.558 110.23Z" fill="#127B78"/>
<path d="M472.887 171.371C539.549 110.231 472.887 171.371 539.549 110.23C643.217 198.774 548.361 110.322 652.028 198.866C651.618 199.595 469.11 198.157 468.814 198.93L433.41 198.774L441.997 192.54L454.733 183.536L464.771 176.531C467.256 174.791 470.008 172.485 472.887 171.371Z" fill="#3BA4A6"/>
<path d="M534.993 94.9961L538.901 99.6609L406.314 198.88L416.321 198.848L420.947 198.881C421.586 198.879 422.434 198.981 423.028 198.75L423.126 198.725L433.412 198.773L611.057 198.889C610.709 200.602 610.558 202.182 610.523 203.927C610.698 205.38 468.857 206.752 469.316 208.146L471.058 211.537L423.524 211.508L410.825 211.44C408.629 211.429 406.148 211.617 403.988 211.284C403.244 211.125 402.465 211.183 401.706 211.191C401.308 211.195 400.491 211.305 400.134 211.21C399.703 211.095 397.144 208.631 396.6 208.162L393.116 205.131C392.484 204.587 391.807 204.22 391.605 203.431C393.102 202.059 394.841 200.879 396.487 199.668L404.894 193.562L426.304 177.892L446.398 163.246C450.637 160.125 446.398 163.246 534.993 94.9961Z" fill="#61BFC3"/>
<path d="M391.605 203.438L467.994 203.449C468.241 203.766 468.143 203.592 468.282 203.975C468.458 205.428 468.857 206.759 469.316 208.153L471.058 211.544L423.524 211.515L410.825 211.447C408.629 211.436 406.148 211.624 403.988 211.291C403.244 211.132 402.465 211.19 401.706 211.198C401.308 211.202 400.491 211.312 400.134 211.217C399.703 211.102 397.144 208.638 396.6 208.169L393.116 205.138C392.484 204.594 391.807 204.227 391.605 203.438Z" fill="#1C9693"/>
<path d="M396.598 208.167L469.313 208.15L471.056 211.541L423.521 211.512L410.822 211.445C408.627 211.434 406.146 211.622 403.986 211.288C403.241 211.13 402.463 211.188 401.703 211.195C401.305 211.2 400.489 211.31 400.132 211.214C399.7 211.099 397.142 208.636 396.598 208.167Z" fill="#0F414A"/>
<path d="M403.998 211.281C406.158 211.615 408.639 211.427 410.835 211.438L423.534 211.505L471.068 211.534C473.196 214.662 475.093 217.098 478.789 218.72C482.134 219.317 487.091 219.996 490.142 218.72V225.443L488.298 225.395L488.296 229.404L488.293 232.69L484.739 232.661L462.776 232.675L458.077 232.691L458.046 229.315L458.047 225.502L437.814 225.558L437.796 230.333C437.793 230.988 437.924 231.951 437.652 232.545C436.856 232.807 435.307 232.592 434.423 232.576L412.725 232.534L408.195 232.505L408.206 229.123L408.242 225.618C407.099 225.717 404.994 225.91 403.938 225.611L403.962 218.452L403.998 211.281Z" fill="#61BFC3"/>
<path d="M408.224 225.624L437.795 225.564L437.778 230.339C437.774 230.994 437.905 231.957 437.633 232.551C436.837 232.813 435.288 232.598 434.404 232.582L412.707 232.54L408.176 232.511L408.187 229.129L408.224 225.624Z" fill="#127B78"/>
<path d="M408.187 229.129L437.658 229.212L437.633 232.551C436.837 232.813 435.288 232.598 434.404 232.582L412.707 232.54L408.176 232.511L408.187 229.129Z" fill="#3BA4A6"/>
<path d="M458.028 225.508L488.279 225.4L488.277 229.409L488.274 232.695L484.72 232.667L462.757 232.68L458.058 232.696L458.027 229.321L458.028 225.508Z" fill="#127B78"/>
<path d="M522.973 224.769L553.935 224.717L553.933 226.667L553.93 228.265L550.293 228.251L527.813 228.258L523.004 228.266L522.973 226.624L522.973 224.769Z" fill="#127B78"/>
<path d="M458.027 229.322L488.277 229.411L488.274 232.697L484.72 232.668L462.757 232.682L458.058 232.698L458.027 229.322Z" fill="#3BA4A6"/>
<path d="M403.989 211.281C406.149 211.615 408.63 211.427 410.825 211.438L423.524 211.505L471.059 211.534C473.187 214.662 475.084 217.098 478.78 218.72L403.953 218.452L403.989 211.281Z" fill="#127B78"/>
<path d="M599.395 139.703L685.362 203.316L685.668 203.602C685.466 204.183 684.893 204.628 684.448 205.066C683.426 206.071 681.995 207.801 680.68 208.399L680.368 208.509L680.245 208.592C679.346 209.212 678.581 209.978 677.755 210.677C677.59 210.817 677.163 211.229 676.977 211.276C676.695 211.347 676.197 211.286 675.892 211.29C675.143 211.3 674.568 211.064 674.205 211.735L674.238 220.516L674.224 225.441L671.589 225.442L671.624 227.499L668.801 227.948C668.535 229.035 668.3 230.58 667.209 231.186C666.353 231.66 665.437 231.794 664.465 231.915L641.966 231.701C640.818 231.684 639.328 231.907 638.41 231.248C637.154 230.346 636.845 229.106 636.65 227.728C635.298 227.375 633.585 227.536 632.179 227.527L624.245 227.478C622.51 227.464 620.791 227.515 619.076 227.266L618.757 227.23C618.725 227.494 618.712 227.711 618.724 227.979C619.125 228.791 619.159 229.735 618.848 230.589C618.614 231.232 618.219 231.798 617.52 232.061C616.67 232.381 615.329 232.221 614.415 232.208L592.177 232.213C591.278 232.28 589.976 232.352 589.091 232.209C588.576 232.126 588.115 231.665 587.84 231.275C587.219 230.396 587.512 229.148 587.688 228.171L587.367 227.69L588.369 225.545L589.967 221.917L595.243 220.907L595.013 220.175L597.067 219.798C601.65 218.755 604.591 215.574 606.896 211.923L608.479 208.395L609.512 203.606L609.216 198.88H651.27C651.65 195.605 603.973 166.952 604.088 163.653C604.639 161.059 603.984 159.828 604.088 157.202C604.093 155.01 603.706 152.774 603.388 150.607C602.502 146.695 601.232 143.306 599.395 139.703Z" fill="#61BFC3"/>
<path d="M685.377 203.316L685.683 203.602C685.481 204.184 684.908 204.628 684.463 205.066C683.441 206.071 682.01 207.801 680.696 208.4L680.383 208.509L680.26 208.592C679.361 209.212 678.596 209.978 677.77 210.677C677.605 210.817 677.178 211.23 676.992 211.276C676.71 211.348 676.212 211.286 675.907 211.29C675.158 211.3 674.583 211.064 674.22 211.735C672.772 212.086 670.834 211.879 669.328 211.889L658.738 211.957L469.099 211.407L469.274 208.142L467.535 203.45L685.377 203.316Z" fill="#1C9693"/>
<path d="M469.252 208.135L659.309 208.379L673.052 208.379C675.411 208.38 678.068 208.164 680.383 208.512L680.26 208.595C679.361 209.215 678.596 209.981 677.77 210.68C677.605 210.82 677.177 211.233 676.992 211.279C676.71 211.351 676.211 211.29 675.906 211.293C675.158 211.303 674.583 211.067 674.22 211.738C672.772 212.089 670.834 211.882 669.327 211.892L658.738 211.96L467.641 211.536L469.252 208.135Z" fill="#0F414A"/>
<path d="M606.896 211.926L658.723 211.96L669.313 211.891C670.819 211.882 672.757 212.089 674.205 211.738L674.238 220.519L674.224 225.444L671.589 225.446L671.624 227.502L668.801 227.952C668.535 229.038 668.3 230.583 667.209 231.189C666.353 231.664 665.437 231.797 664.465 231.918L641.966 231.704C640.818 231.687 639.328 231.91 638.41 231.251C637.154 230.349 636.845 229.109 636.65 227.731C635.298 227.378 633.585 227.539 632.179 227.53L624.245 227.481C622.51 227.468 620.791 227.518 619.076 227.269L618.757 227.234C618.725 227.497 618.712 227.714 618.724 227.982C619.125 228.794 619.159 229.739 618.848 230.592C618.614 231.235 618.219 231.801 617.52 232.064C616.67 232.384 615.329 232.224 614.415 232.211L592.177 232.216C591.278 232.283 589.976 232.355 589.091 232.212C588.576 232.129 588.115 231.668 587.84 231.278C587.219 230.399 587.512 229.151 587.688 228.174L587.367 227.693L588.369 225.548L589.967 221.92L595.243 220.911L595.013 220.178L597.067 219.801C601.65 218.758 604.591 215.577 606.896 211.926Z" fill="#0F414A"/>
<path d="M636.664 227.725C638.418 227.95 640.252 227.89 642.024 227.918L651.048 228.043L663.35 228.094C665.124 228.076 667.065 228.181 668.815 227.945C668.549 229.032 668.314 230.577 667.223 231.183C666.368 231.657 665.451 231.791 664.479 231.912L641.98 231.698C640.833 231.681 639.342 231.903 638.425 231.244C637.169 230.342 636.859 229.103 636.664 227.725Z" fill="#3BA4A6"/>
<path d="M618.722 227.979C619.123 228.791 619.157 229.735 618.846 230.589C618.612 231.232 618.217 231.798 617.518 232.061C616.668 232.381 615.327 232.221 614.413 232.207L592.175 232.213C591.276 232.28 589.974 232.352 589.089 232.209C588.573 232.126 588.113 231.665 587.838 231.275C587.217 230.396 587.51 229.148 587.686 228.171L618.722 227.979Z" fill="#3BA4A6"/>
<path d="M674.246 220.521L674.232 225.446L671.597 225.447L615.949 225.512L597.304 225.488C594.427 225.484 597.304 225.488 489.311 225.442L478.758 218.721C543.947 219.947 609.055 220.42 674.246 220.521Z" fill="#61BFC3"/>
<path d="M471.066 211.537L658.725 211.96L669.314 211.892C670.821 211.882 672.758 212.089 674.207 211.739L674.24 220.519L616.046 220.429L603.749 220.519C601.04 220.545 603.749 220.519 477.589 218.745C472.997 216.097 472.848 216.127 471.066 211.537Z" fill="#1C9693"/>
<path d="M538.969 99.6348C539.998 100.061 605.366 151.852 606.243 152.505L610.677 155.771L621.739 163.755L669.792 198.848L659.14 198.869C656.625 198.907 653.786 199.107 651.294 198.83C604.334 159.998 651.294 198.83 604.334 159.998C539.502 107.921 604.334 159.998 539.502 107.921C539.507 105.729 539.287 101.802 538.969 99.6348Z" fill="#1C9693"/>
<path d="M539.54 107.945L616.966 168.948L640.112 185.477L652.707 194.303C654.706 195.695 657.197 197.125 658.936 198.773L651.381 198.706C650.905 197.856 649.032 196.849 648.198 196.266L637.498 188.907L604.075 165.14L539.541 110.234C539.539 107.945 539.538 110.232 539.54 107.945Z" fill="#0F414A"/>
<path d="M641.969 231.703L664.468 231.917L664.602 235.346L664.697 325.152L641.922 325.178C641.969 231.703 641.922 325.178 641.969 231.703Z" fill="#E6A656"/>
<path d="M641.969 231.703L664.468 231.917L664.602 235.346L664.344 234.676C662.881 234.436 661.201 234.584 659.713 234.589L651.573 234.605C648.565 234.611 645.242 234.304 642.274 234.641L642.023 235.108L641.969 231.703Z" fill="#C37D2E"/>
<path d="M592.183 232.214L614.421 232.209L614.491 243.864L614.431 276.758L614.407 286.548C614.405 288.265 614.265 323.276 614.491 324.975H592.182C592.234 275.28 592.131 278.181 592.183 232.214Z" fill="#E6A656"/>
<path d="M497.223 349.311L556.506 349.348L556.491 355.465L497.243 355.489L497.223 349.311Z" fill="#1C9693"/>
<path d="M552.815 325.06L556.947 325.094L556.763 328.838L556.673 332.598C556.642 333.449 556.55 334.322 556.669 335.17C556.724 335.561 556.727 336.135 556.497 336.502L556.495 349.344L497.211 349.306L497.158 349.211C497.53 346.241 497.174 343.042 497.174 340.048C497.174 338.944 496.979 337.679 497.366 336.615C497.502 336.161 497.709 335.907 498.192 335.574C499.863 334.425 502.599 334.722 504.772 334.735L510.913 334.785L510.909 332.651L510.824 328.796C511.032 327.711 511.743 326.8 512.973 326.085C515.627 324.541 520.078 324.913 523.357 325.059L552.815 325.06Z" fill="#3BA4A6"/>
<path d="M556.682 332.588C556.651 333.439 556.559 334.313 556.678 335.161C556.733 335.551 556.736 336.125 556.506 336.493C554.254 336.718 551.791 336.601 549.507 336.606L536.924 336.637L509.495 336.629L497.375 336.605C497.511 336.151 497.718 335.897 498.201 335.564C499.872 334.415 502.608 334.712 504.781 334.725L510.922 334.775L510.918 332.641L556.682 332.588Z" fill="#61BFC3"/>
<path d="M578.801 349.311L519.518 349.348L519.533 355.465L578.781 355.489L578.801 349.311Z" fill="#1C9693"/>
<path d="M523.208 325.06L519.076 325.094L519.26 328.838L519.351 332.598C519.382 333.449 519.474 334.322 519.355 335.17C519.3 335.561 519.297 336.135 519.526 336.502L519.529 349.344L578.812 349.306L578.866 349.211C578.494 346.241 578.849 343.042 578.849 340.048C578.849 338.944 579.044 337.679 578.657 336.615C578.521 336.161 578.314 335.907 577.831 335.574C576.161 334.425 573.425 334.722 571.251 334.735L565.111 334.785L565.115 332.651L565.199 328.796C564.992 327.711 564.28 326.8 563.051 326.085C560.397 324.541 555.945 324.913 552.667 325.059L523.208 325.06Z" fill="#3BA4A6"/>
<path d="M519.342 332.588C519.373 333.439 519.465 334.313 519.346 335.161C519.291 335.551 519.288 336.125 519.517 336.493C521.77 336.718 524.233 336.601 526.517 336.606L539.099 336.637L566.528 336.629L578.648 336.605C578.512 336.151 578.305 335.897 577.822 335.564C576.152 334.415 573.416 334.712 571.242 334.725L565.102 334.775L565.106 332.641L519.342 332.588Z" fill="#61BFC3"/>
<path d="M556.666 332.588C556.556 335.626 556.666 332.588 556.237 334.861L510.906 334.775L510.902 332.641L556.666 332.588Z" fill="#127B78"/>
<path d="M552.811 325.06L556.943 325.094L556.759 328.838L556.669 332.598L510.905 332.651L510.82 328.796C511.028 327.711 511.739 326.8 512.969 326.085C515.623 324.541 520.074 324.913 523.353 325.059L552.811 325.06Z" fill="#3BA4A6"/>
<path d="M552.811 325.06L556.943 325.094L556.759 328.838L510.82 328.796C511.028 327.711 511.739 326.8 512.969 326.085C515.623 324.541 520.074 324.913 523.353 325.059L552.811 325.06Z" fill="#61BFC3"/>
<path d="M519.076 332.65C519.186 335.688 519.076 332.65 519.338 334.838H564.836L564.84 332.703L519.076 332.65Z" fill="#127B78"/>
<path d="M522.923 325.117L518.791 325.15L518.975 328.895L519.066 332.654L564.83 332.707L564.914 328.853C564.707 327.767 563.995 326.857 562.766 326.142C560.112 324.598 555.66 324.97 552.382 325.116L522.923 325.117Z" fill="#3BA4A6"/>
<path d="M522.923 325.003L518.791 325.037L518.975 328.781L564.914 328.739C564.707 327.654 563.995 326.744 562.766 326.028C560.112 324.484 555.66 324.856 552.382 325.002L522.923 325.003Z" fill="#61BFC3"/>
<path d="M553.968 227.979C554.369 228.791 554.403 229.735 554.092 230.589C553.858 231.232 553.463 231.798 552.764 232.061C551.914 232.381 550.573 232.221 549.659 232.207L527.421 232.213C526.522 232.28 525.22 232.352 524.335 232.209C523.82 232.126 523.359 231.665 523.084 231.275C522.463 230.396 522.756 229.148 522.932 228.171L553.968 227.979Z" fill="#3BA4A6"/>
<path d="M527.421 232.214L549.66 232.209L549.729 243.864L549.67 276.758L549.646 286.548C549.643 288.265 549.504 323.276 549.729 324.975H527.42C527.473 275.28 527.369 278.181 527.421 232.214Z" fill="#E6A656"/>
<path d="M592.186 232.214L614.424 232.209L614.494 243.864C614.233 242.941 614.356 241.829 614.351 240.876L614.327 234.993L592.184 235.008L592.186 232.214Z" fill="#C37D2E"/>
<rect x="517.77" y="135.537" width="40.6468" height="48.0298" fill="white"/>
<path d="M518.005 185.291C516.063 183.384 514.195 181.488 512.611 179.252C507.387 171.879 505.446 162.961 506.872 154.001C508.219 145.541 512.959 137.286 519.796 132.294C526.735 127.227 535.232 124.804 543.696 126.253C552.394 127.743 560.092 132.996 565.134 140.318C570.298 147.816 572.594 156.834 571.059 165.948L557.895 150.387L556.265 147.848C555.953 147.296 555.627 146.958 555.154 146.542C553.689 143.049 551.404 140.439 547.909 138.984L545.945 138.348L545.646 138.264C543.565 137.718 540.995 138.007 538.836 138.006L527.135 138.008L526.973 158.586L521.572 158.578L521.595 163.943L525.474 163.925C525.97 163.924 526.524 163.83 526.965 164.095C527.262 165.462 527.1 167.095 527.099 168.5L525.098 168.508L521.45 168.553L521.433 173.991L526.26 174.022L526.952 174.039C527.286 174.604 527.139 175.668 527.139 176.344L527.14 182.242C527.246 182.649 527.212 182.678 527.522 182.994C528.094 183.749 528.929 184.696 529.281 185.578C530.807 188.016 532.736 189.979 534.447 192.249L534.306 192.499L534.119 192.876C527.931 191.96 522.86 189.222 518.005 185.291Z" fill="#F16938"/>
<path d="M526.966 164.096C527.262 165.463 527.101 167.095 527.099 168.5L525.099 168.509C524.239 166.983 523.025 165.519 521.969 164.115L526.966 164.096Z" fill="#D63220"/>
<path d="M526.255 174.02L526.947 174.037C527.281 174.602 527.134 175.666 527.134 176.342L527.135 182.239L524.736 178.746C524.156 177.965 523.043 176.908 522.689 176.021C522.515 175.584 522.561 174.597 522.516 174.091L526.043 174.038L526.255 174.02Z" fill="#D63220"/>
<path d="M535.188 158.589C534.459 158.597 533.416 158.75 532.741 158.503L532.711 143.167L539.265 143.169C541.577 143.17 543.694 142.989 545.869 143.962C547.727 144.794 549.103 146.161 549.833 148.106L549.688 148.057C548.645 147.679 547.904 146.856 546.837 146.443L546.614 146.352C545.212 145.803 543.602 145.921 542.129 145.929L535.221 146.047L535.188 158.589Z" fill="#D63220"/>
<path d="M555.15 146.541C555.623 146.957 555.95 147.295 556.261 147.847L557.892 150.386C558.229 154.11 558.21 158.665 555.689 161.696C553.182 164.712 549.961 165.945 546.183 166.172L535.468 166.058L535.377 168.306L532.727 168.325L532.756 163.901L540.638 163.907C543.033 163.906 545.299 163.955 547.642 163.352C550.407 162.641 552.91 160.576 554.316 158.05C556.389 154.326 556.234 150.538 555.15 146.541Z" fill="#D63220"/>
<path d="M535.191 158.587L535.224 146.045L542.132 145.926C543.605 145.918 545.216 145.8 546.617 146.349L546.84 146.441C547.908 146.853 548.648 147.676 549.692 148.054L549.836 148.103C550.714 149.797 550.769 152.111 550.202 153.93C549.664 155.654 548.54 157.094 546.931 157.873C545.12 158.749 543.107 158.57 541.159 158.579L535.191 158.587Z" fill="#F14A34"/>
<path d="M557.897 150.391L571.06 165.952C570.515 168.423 569.901 170.843 568.913 173.173C566.977 177.738 564.013 181.505 560.556 184.94C553.72 190.793 545.496 194.037 536.506 193.198L534.12 192.88L534.307 192.503L534.448 192.253C532.737 189.983 530.808 188.02 529.282 185.582C528.93 184.7 528.095 183.753 527.523 182.998L532.795 183.088L532.71 173.993L545.932 173.864L545.934 169.908L545.883 168.17C544.966 167.965 543.515 168.237 542.544 168.257L535.381 168.31L535.473 166.063L546.188 166.177C549.966 165.949 553.187 164.716 555.694 161.701C558.215 158.67 558.234 154.115 557.897 150.391Z" fill="#F14A34"/>
<path d="M545.934 169.904C546.547 170.423 548.28 171.9 548.33 172.687L548.309 176.177L535.028 176.076L535.021 185.433L529.282 185.578C528.93 184.696 528.095 183.75 527.523 182.995L532.795 183.084L532.71 173.99L545.932 173.861L545.934 169.904Z" fill="#D63220"/>
<path d="M371.964 230.14C375.767 230.946 378.908 233.214 381.172 236.097C383.473 239.026 384.423 242.907 383.84 246.316C383.209 250.018 381.095 253.199 377.706 255.264C374.269 257.358 370.445 257.781 366.317 257.006C363.061 256.168 360.386 254.9 358.015 252.613C355.39 250.08 353.63 246.232 353.706 242.831C353.793 238.98 355.4 235.502 358.431 232.951C361.313 230.525 365.156 229.502 369.156 229.712C370.116 229.762 371.02 229.948 371.964 230.14Z" fill="#FAA506"/>
<path d="M112.391 111.88C112.913 108.78 114.433 105.325 116.436 102.823C120.431 97.8308 125.674 94.7876 132.642 94.0419C137.011 93.5741 141.521 93.9379 145.939 94.0178L349.726 92.6464L359.688 92.8164C361.28 92.8501 365.291 92.4897 366.879 92.6488C371.357 93.0978 375.593 94.4838 379.271 97.0497C384.669 100.815 387.785 105.958 388.835 111.878L112.391 111.88Z" fill="#1A3C77"/>
<path d="M388.836 111.721L388.836 132.689L112.462 132.691L112.26 120.362C112.158 117.46 112.004 114.597 112.312 111.721L388.836 111.721Z" fill="#24A48D"/>
<path d="M388.784 132.408C388.784 248.181 388.784 132.408 388.784 248.181C388.019 252.528 385.529 256.292 382.095 259.234C377.287 263.352 371.513 265.657 364.817 266.307C141.974 266.307 370.823 266.307 141.974 266.307C129.747 266.307 111.191 259.234 112.492 242.259C112.489 132.404 112.492 242.259 112.489 132.404L388.784 132.408Z" fill="#1A3C77"/>
<path d="M131.372 146.885C130.925 145.465 130.957 144.522 131.523 143.196C132.194 141.623 133.331 140.563 135.08 139.977C135.96 139.681 136.541 139.68 137.434 140.035C134.852 141.055 133.317 142.062 132.072 144.416C131.886 144.767 131.578 145.179 131.482 145.556L131.372 146.885Z" fill="#0A215C"/>
<path d="M187.732 146.287C188.505 146.567 188.59 146.757 188.933 147.453C189.444 148.489 189.697 149.631 189.795 150.738C189.992 152.945 189.814 155.193 189.762 157.393L189.667 164.775C189.622 166.829 189.904 168.959 189.764 170.993C189.713 171.738 189.511 172.576 189.195 173.251L188.982 173.667C187.827 175.919 186.361 177.589 183.671 178.386C180.942 179.195 177.239 178.688 174.335 178.636L155.945 178.084L147.977 177.935C146.392 177.913 144.756 177.982 143.173 177.794C141.376 177.581 139.444 177.05 137.818 176.255C136.874 175.792 135.98 175.159 135.363 174.356L135.356 174.11C136.458 174.862 137.766 175.622 139.076 176.012C140.554 176.452 142.147 176.452 143.663 176.499L149.466 176.682L149.881 176.722L170.277 177.183L171.024 177.267L178.952 177.483C181.72 177.542 184.053 176.705 185.941 174.952C188.661 172.427 188.568 169.198 188.447 165.818L188.446 165.117L188.435 153.367L188.454 152.717C188.493 150.45 188.415 148.522 187.732 146.287Z" fill="#0A215C"/>
<path d="M174.61 212.001L175.137 211.982C175.563 212.311 175.635 212.43 175.675 212.93L176.108 220.517C172.003 221.033 167.631 220.769 163.457 220.725L146.044 220.571C141.106 220.495 136.016 220.235 131.116 220.607L130.331 218.06L174.651 218.577L174.61 212.001Z" fill="#0A215C"/>
<path d="M276.767 213.533L279.142 213.661L279.045 222.861L188.976 221.668C188.885 220.862 188.72 220.047 188.935 219.266L276.858 220.756L276.767 213.533Z" fill="#0A215C"/>
<path d="M130.42 218.091C130.076 217.078 130.181 215.853 130.159 214.806C130.114 212.581 130.185 210.39 129.809 208.167C131.479 208.026 133.232 208.12 134.92 208.136L143.348 208.236L152.905 208.317L174.576 208.602L174.7 212.032L174.74 218.608L130.42 218.091Z" fill="#CECECF"/>
<path d="M338.33 215.811L350.315 216.089C352.435 216.155 354.657 216.1 356.763 216.437C360.876 217.095 364.865 219.17 367.468 222.265C369.947 225.212 371.252 228.986 370.947 232.578C370.626 236.449 368.694 239.982 365.42 242.37C363.842 243.521 361.856 244.431 359.847 244.837C356.331 245.548 351.925 245.073 348.282 244.93L339.929 244.617L339.849 244.295C340.12 243.795 341.028 243.583 341.564 243.353C344.803 241.959 347.301 238.979 348.33 235.861C350.328 229.812 348.074 222.681 342.346 218.495C341.618 217.964 340.839 217.468 340.025 217.056C339.719 216.901 338.891 216.617 338.676 216.415C338.502 216.251 338.446 216.012 338.33 215.811Z" fill="#F8A615"/>
<path d="M149.078 139.928L149.847 139.871L149.987 156.151L150.123 170.681C150.118 172.583 150.302 174.921 149.92 176.759L149.505 176.72L143.702 176.536C142.185 176.49 140.593 176.489 139.115 176.049C137.805 175.659 136.496 174.9 135.395 174.147C134.799 173.431 134.018 172.853 133.444 172.121C131.649 169.83 131.746 166.927 131.641 164.328L131.643 163.366L131.461 152.612L131.467 150.976L131.436 146.924L131.546 145.596C131.642 145.219 131.95 144.806 132.136 144.456C133.381 142.102 134.915 141.094 137.498 140.075C138.326 139.962 139.125 139.704 139.97 139.668C142.93 139.546 146.101 139.807 149.078 139.928Z" fill="#FDCF54"/>
<path d="M149.119 139.945L149.888 139.888L150.028 156.167L150.164 170.698C150.159 172.6 150.343 174.938 149.961 176.776L149.546 176.736L149.481 168.75C149.476 167.675 149.7 165.944 149.368 164.92L131.682 164.344L131.684 163.382C133.656 163.835 136.008 163.668 138.027 163.758L145.3 164.027C146.657 164.072 148.06 164.239 149.399 164.094L149.309 156.331L149.181 152.798L131.503 152.629L131.508 150.993L132.243 151.77L149.177 152.029L149.032 142.8C149.02 142.036 148.765 140.898 149.02 140.196L149.119 139.945Z" fill="#EE871F"/>
<path d="M131.686 164.336L149.372 164.911C149.703 165.936 149.479 167.667 149.484 168.741L149.549 176.728L143.747 176.545C142.23 176.498 140.638 176.498 139.159 176.058C137.85 175.668 136.541 174.908 135.439 174.156C134.843 173.44 134.062 172.861 133.489 172.129C131.693 169.839 131.79 166.935 131.686 164.336Z" fill="#FDCF54"/>
<path d="M137.497 140.049C138.325 139.935 139.124 139.677 139.969 139.642C142.93 139.52 146.1 139.78 149.078 139.902L148.978 140.152C148.724 140.855 148.978 141.993 148.99 142.757L149.135 151.985L132.201 151.727L131.466 150.95L131.435 146.898L131.546 145.569C131.641 145.192 131.949 144.78 132.135 144.429C133.381 142.075 134.915 141.068 137.497 140.049Z" fill="#FDCF54"/>
<path d="M170.227 140.301L170.608 140.327L180.727 140.681C182.642 140.878 184.847 142.452 186.052 143.815C186.616 144.452 187.031 145.102 187.427 145.828C187.601 146.147 187.511 146.007 187.755 146.313C188.438 148.548 188.515 150.476 188.477 152.743L188.458 153.393L188.469 165.143L188.47 165.844C188.59 169.224 188.684 172.453 185.964 174.978C184.076 176.731 181.743 177.568 178.975 177.509L171.047 177.293L170.3 177.209C169.641 169.875 169.801 162.557 169.696 155.234L169.598 146.043C169.582 144.112 169.479 142.277 169.697 140.363L170.227 140.301Z" fill="#FDCF54"/>
<path d="M169.695 140.36L170.226 140.298L170.523 152.304L181.376 152.566C183.7 152.62 186.167 152.439 188.475 152.741L188.457 153.391L170.5 153.101L170.628 164.715L182.673 165.069C184.51 165.13 186.684 165.401 188.467 165.141L188.468 165.841L188.223 165.864C186.232 166.037 184.233 165.89 182.227 165.849L170.526 165.386L171.045 177.29L170.299 177.206C169.639 169.872 169.8 162.555 169.695 155.231L169.596 146.04C169.581 144.109 169.477 142.274 169.695 140.36Z" fill="#EE871F"/>
<path d="M171.006 177.268L170.486 165.364L182.187 165.826C184.193 165.868 186.193 166.014 188.183 165.842L188.429 165.819C188.549 169.199 188.643 172.428 185.923 174.953C184.035 176.706 181.702 177.544 178.934 177.484L171.006 177.268Z" fill="#FDCF54"/>
<path d="M170.248 140.305L170.629 140.332L180.747 140.685C182.662 140.882 184.867 142.456 186.073 143.819C186.636 144.456 187.052 145.106 187.447 145.832C187.621 146.151 187.532 146.011 187.775 146.317C188.458 148.553 188.536 150.48 188.497 152.748C186.189 152.446 183.722 152.627 181.398 152.572L170.545 152.311L170.248 140.305Z" fill="#FDCF54"/>
<path d="M149.799 139.814C152.366 140.116 155.099 139.984 157.673 140.026L169.665 140.317C169.447 142.231 169.55 144.066 169.566 145.997L169.664 155.188C169.769 162.511 169.609 169.829 170.268 177.163L149.872 176.702C150.254 174.863 150.07 172.526 150.075 170.624L149.939 156.093L149.799 139.814Z" fill="#FDCF54"/>
<path d="M188.931 219.284L187.025 219.388L186.639 209.195C187.283 208.918 197.206 209.353 198.831 209.382L248.821 210.2L266.529 210.519C269.911 210.582 273.337 210.785 276.705 210.682L276.762 213.55L276.853 220.774L188.931 219.284Z" fill="#CECECF"/>
<path d="M338.346 215.818C338.462 216.019 338.518 216.258 338.693 216.422C338.908 216.624 339.735 216.908 340.041 217.063C340.855 217.475 341.634 217.971 342.362 218.502C348.09 222.688 350.344 229.819 348.347 235.868C347.317 238.986 344.819 241.967 341.58 243.36C341.045 243.591 340.136 243.802 339.865 244.302L339.945 244.625C339.365 244.615 338.665 244.669 338.108 244.513L322.421 243.884C318.075 243.415 314.185 241.137 311.204 238.225C309.697 236.562 308.629 234.892 307.95 232.842C306.849 229.515 306.99 225.516 308.827 222.562C309.614 221.296 310.384 220.089 311.529 219.063C315.774 215.255 320.699 215.304 326.435 215.441L336.961 215.802L338.346 215.818Z" fill="#D94B24"/>
<path d="M338.389 215.823C338.505 216.025 338.561 216.263 338.736 216.427C338.951 216.63 339.778 216.914 340.084 217.069C340.898 217.48 341.677 217.976 342.405 218.508C348.133 222.694 350.387 229.824 348.39 235.874C347.36 238.992 344.862 241.972 341.623 243.366C341.088 243.596 340.179 243.808 339.908 244.307L339.988 244.63C339.408 244.62 338.708 244.675 338.151 244.519C337.889 244.307 337.749 244.221 337.41 244.133C336.388 243.867 335.272 243.478 334.342 242.989C330.511 240.973 327.468 237.446 326.185 233.652C324.965 230.043 325.36 225.813 327.326 222.623C329.586 218.957 332.474 217.522 336.845 216.516L337.004 215.807L338.389 215.823Z" fill="#EE871F"/>
<path d="M300.743 149.754L300.747 109.004C300.743 100.603 300.291 91.8866 301.025 83.5224C302.85 62.7131 312.276 43.0434 326.816 28.1569C343.711 10.8579 367.588 1.24535 391.63 0.988281C394.594 1.01219 397.607 0.952414 400.56 1.21709C421.986 3.1383 442.185 12.6998 457.253 28.0276L464.64 36.1836C467.049 39.7624 469.585 43.2059 471.727 46.9662C477.159 56.5011 480.806 67.9957 481.965 78.9028C482.957 88.2431 482.511 97.8687 482.514 107.252L482.45 149.712L459.824 149.746L459.718 111.025L459.718 94.5567C459.717 91.5545 459.867 88.4523 459.621 85.4659C458.49 71.8022 452.477 57.5609 443.054 47.5537C433.512 37.42 421.55 29.7618 407.861 26.664C403.236 25.6172 398.602 25.2759 393.879 25.1368C388.436 25.1688 383.1 25.396 377.737 26.44C363.954 29.1238 351.833 36.3738 342.041 46.2624C332.233 56.1663 325.723 69.9598 324.32 83.8469C323.968 87.3339 324.051 90.8893 324.042 94.3921L324.041 110.242L324.029 149.753L300.743 149.754Z" fill="#0F0A14"/>
<path d="M324.007 149.762L391.672 149.642L459.802 149.755L482.429 149.721C486.38 149.701 490.759 149.338 494.652 149.955C499.559 150.732 504.554 153.446 508.056 156.924C513.659 162.488 515.348 169.07 515.316 176.772L515.294 178.75L515.417 328.987C515.452 336.838 514.815 343.152 509.059 349.038C503.852 354.363 498.31 355.424 491.147 355.442L391.958 355.445L317.731 355.413L298.301 355.385C294.159 355.373 289.113 355.882 285.117 354.744L284.683 354.613C282.459 353.96 280.515 353.031 278.497 351.911C278.436 351.711 276.921 350.671 276.666 350.452C275.466 349.422 274.274 348.258 273.312 347C271.412 344.513 270.144 341.622 269.477 338.57L269.364 338.038C268.702 335.098 268.848 332.068 268.841 329.068L268.922 178.716L268.931 171.228C268.967 165.188 270.039 159.943 274.525 155.576C276.871 153.292 279.81 151.395 282.981 150.501C288.389 148.978 295.129 149.725 300.721 149.763L324.007 149.762Z" fill="#D63220"/>
<path d="M391.509 196.977C393.332 196.969 395.249 196.877 397.059 197.098C403.846 197.925 410.702 201.419 415.542 206.209C420.768 211.38 423.527 217.581 425.085 224.672C426.869 232.794 424.604 242.038 420.126 248.906C416.429 254.575 411.422 258.441 405.073 260.752L409.621 304.36L391.739 304.343L391.538 304.255L375.003 304.336C374.534 303.28 375.398 299.247 375.524 297.892L379.636 260.849C375.681 259.53 371.985 257.547 368.857 254.768C362.175 248.834 358.223 240.941 357.769 231.975C357.317 223.048 360.515 214.681 366.47 208.068C373.109 200.695 381.817 197.526 391.509 196.977Z" fill="#0F0A14"/>
<path d="M1140.14 141.624C1140.55 137.034 1142.02 132.084 1142.97 127.547L1149.08 99.4258C1151.02 100.355 1153.34 100.604 1155.43 101.121L1169.3 104.173C1171.7 104.626 1174.04 105.198 1176.49 105.323L1170.77 137.911C1170 141.848 1169.55 146.338 1167.98 150.031L1167.82 149.651C1166.46 147.208 1155.94 145.961 1153.37 145.39C1148.88 144.39 1144.54 142.974 1140.14 141.624Z" fill="#E3BB7C"/>
<path d="M1176.49 105.323L1176.69 103.759C1177.9 103.361 1185.96 105.466 1187.86 105.863L1208.77 110.133C1215.66 111.734 1218.69 110.877 1219.11 118.273C1219.1 120.227 1219.03 122.165 1218.76 124.102L1214.62 147.474C1214.43 148.659 1213.46 151.95 1214.03 152.863C1213.13 153.624 1212.82 157.378 1212.54 158.649C1207.17 158.675 1201.32 156.738 1196.06 155.588L1177.82 151.914C1174.83 151.342 1171.64 150.472 1168.59 150.573L1167.98 150.031C1169.55 146.338 1170 141.849 1170.77 137.912L1176.49 105.323Z" fill="#8D5641"/>
<path d="M1079.11 25.9066C1058.56 24.6108 1065.73 0.117947 1077.03 1.01218C1080.49 1.28539 1084.06 2.45457 1087.45 3.19701L1160.88 18.9375C1166.07 20.2065 1173.56 20.3678 1177.17 24.904C1183.25 32.5574 1178.73 46.611 1167.13 43.8381L1160.53 42.1624L1159.57 47.1652C1142.41 48.5408 1104.51 38.137 1088.12 33.5124L1082 31.6866C1080.38 31.2451 1079.45 30.9129 1078.48 30.278L1078.12 30.0456L1079.11 25.9066Z" fill="#E3BB7C"/>
<path d="M1079.11 25.9058C1082.25 23.2968 1097.83 27.9241 1101.81 28.7931L1127.01 34.3068C1133.83 35.8273 1155.78 38.5551 1160.54 42.1615L1159.57 47.1643C1142.41 48.5399 1104.51 38.1362 1088.12 33.5115L1082 31.6857C1080.38 31.2443 1079.45 30.9121 1078.48 30.2772L1078.12 30.0447L1079.11 25.9058Z" fill="#744332"/>
<path d="M1053.43 144.937C1056.86 144.752 1059.76 145.709 1063.06 146.422L1128.98 160.915C1131.1 161.479 1133.31 161.895 1135.36 162.648L1135.56 163.248L1134.46 171.103C1151.97 169.324 1149.86 196.06 1135.65 194.577C1128.94 193.877 1122.07 191.933 1115.49 190.44L1052.31 176.811C1047.77 175.813 1042.9 175.133 1038.5 173.758L1038.11 173.634C1026.06 169.946 1028.43 152.161 1038.71 150.049C1041.93 149.388 1048.33 150.867 1050.97 152.816L1051.3 153.069C1052.26 150.495 1052.74 147.604 1053.43 144.937Z" fill="#E3BB7C"/>
<path d="M1053.43 144.937C1056.86 144.752 1059.76 145.709 1063.06 146.422L1128.98 160.915C1131.1 161.479 1133.31 161.895 1135.36 162.648L1135.56 163.248L1134.46 171.103C1133.39 171.396 1132.03 171.144 1130.95 170.965L1055.28 154.875C1053.98 154.535 1051.98 154.232 1051.3 153.069C1052.27 150.495 1052.74 147.604 1053.43 144.937Z" fill="#744332"/>
<path d="M1027.48 306.951L1027.3 294.841C1027.31 292.676 1027.23 290.212 1027.91 288.147L1028.2 287.232C1032.23 273.741 1048.38 276.625 1059.12 276.622L1151.69 276.616C1154.78 276.583 1158.63 276.025 1161.56 277.01L1161.98 277.156C1167.15 278.88 1172.22 283.21 1172.87 288.897L1172.92 289.36C1173.58 295.155 1172.94 301.152 1172.8 306.974C1181.94 306.951 1181.94 306.951 1181.94 313.731L1021.77 313.391C1020.64 313.397 1018.66 312.72 1017.76 313.483C1017.71 314.843 1017.76 306.974 1027.48 306.951Z" fill="#E17F04"/>
<path d="M1219.11 118.273C1225.44 118.848 1231.77 120.662 1237.96 122.056L1391.39 154.787C1393.5 155.142 1395.96 155.423 1397.87 156.46L1398.21 156.644C1404.88 160.394 1401.45 171.844 1399.78 178.277C1399.01 181.256 1399.12 184.859 1397.19 187.409L1396.99 187.683C1394.45 191.016 1390.95 190.553 1387.39 189.804L1231.5 156.269C1225.93 155.212 1219.46 153.71 1214.03 152.864C1213.46 151.951 1214.43 148.66 1214.62 147.475L1218.76 124.103C1219.03 122.166 1219.1 120.228 1219.11 118.273Z" fill="#242324"/>
<path d="M1014.39 316.457C1016.43 316.449 1017.67 315.604 1017.76 313.482C1018.65 312.72 1020.64 313.396 1021.77 313.39L1181.94 313.73C1181.94 317.384 1183.59 317.384 1186.39 317.384C1199.64 317.025 1199.72 328.101 1199.7 337.432L1199.66 355.213L1000.93 355.488C999.647 349.949 999.879 327.976 1002.42 323.467C1005.02 318.858 1009.41 317.971 1014 316.577L1014.39 316.457Z" fill="#8D5641"/>
<path d="M1078.12 30.0449L1078.48 30.2774C1079.45 30.9123 1080.38 31.2445 1082 31.6859L1088.12 33.5117C1104.51 38.1364 1142.41 48.5401 1159.57 47.1645L1149.08 99.4254L1142.97 127.546C1142.02 132.083 1140.55 137.033 1140.14 141.623L1135.56 163.246L1135.36 162.646C1133.31 161.893 1131.1 161.477 1128.98 160.913L1063.07 146.421C1059.76 145.708 1056.86 144.75 1053.43 144.936L1078.12 30.0449Z" fill="#8D5641"/>
</svg>
