<svg width="234" height="487" viewBox="0 0 234 487" fill="none" xmlns="http://www.w3.org/2000/svg">
<g filter="url(#filter0_d_170_16302)">
<path fill-rule="evenodd" clip-rule="evenodd" d="M161.645 234.523L153.553 231.816L142.112 244.738L137.809 249.601C137.636 249.798 137.449 249.997 137.259 250.2C136.711 250.786 136.135 251.402 135.774 252.065L136.414 252.695L151.763 270.506C144.73 278.442 139.002 288.131 135.598 298.167C134.447 301.562 133.392 304.991 132.933 308.56C132.291 313.564 132.396 318.827 132.5 323.997C132.537 325.859 132.574 327.709 132.576 329.53L132.615 360.555C132.615 360.724 132.63 361.059 132.648 361.481C132.708 362.87 132.809 365.198 132.569 365.585C132.489 365.715 132.355 365.795 132.221 365.876C132.154 365.916 132.087 365.956 132.027 366.002L127.552 366.252L124.3 366.461L122.106 366.816C123.341 368.648 123.271 370.58 123.195 372.644C123.179 373.084 123.163 373.529 123.159 373.981C123.156 374.34 123.162 374.713 123.169 375.093C123.186 376.067 123.204 377.08 123.059 377.987C122.914 378.891 122.179 379.856 121.613 380.559C124.762 380.77 128.053 380.44 131.264 380.119C132.242 380.021 133.212 379.924 134.169 379.843L135.54 379.844C136.115 379.431 137.367 379.288 138.327 379.178C138.598 379.148 138.847 379.119 139.05 379.088L146.749 377.783L153.155 375.722C155.87 378.045 158.734 380.458 161.893 382.143C162.515 382.475 163.182 382.719 163.846 382.962C164.514 383.207 165.178 383.45 165.787 383.779L166.141 382.539L170.695 386.088C187.15 376.21 189.768 376.365 191.562 375.224C192.41 374.685 193.075 373.856 194.931 371.539L203.003 361.174L216.552 344.335L227.635 330.165L208.405 282.052L203.54 269.202C204.145 268.891 201.362 269.045 198.702 269.192C196.216 269.329 193.838 269.46 194.43 269.202L191.049 261.903L189.356 239.815L186.57 239.515C185.768 239.851 175.202 239.166 174.342 239.021C173.292 238.843 172.096 238.338 170.982 237.868C170.518 237.672 170.068 237.482 169.649 237.325L161.645 234.523ZM161.917 282.212C161.917 282.212 194.397 318.477 194.398 324.153C194.398 328.331 194.398 330.149 193.644 331.566C191.73 335.165 184.955 336.179 160.971 366.725L161.917 282.212Z" fill="#08192B"/>
<path d="M27.7418 271.17L24.1086 269.977L35.7966 237.685L40.0724 239.438L55.2903 246.039L51.6196 255.778L42.0454 276.838L32.073 272.997C30.6774 272.45 29.0065 271.957 27.7418 271.17Z" fill="#0B5681"/>
<path d="M30.508 261.825L30.6713 261.847C32.839 262.477 35.1289 263.872 37.1949 264.813C38.1205 265.234 39.8218 265.78 40.2882 266.705L39.8207 267.219L39.3723 267.283C38.4451 267.315 37.2016 266.776 36.3412 266.447C34.344 265.683 31.7392 264.863 30.0842 263.485C30.0559 262.705 30.153 262.533 30.508 261.825Z" fill="#223B54"/>
<path d="M34.1272 244.873L34.4816 244.87C35.4493 245.076 36.5999 245.731 37.5328 246.111L43.6084 248.641C44.6727 249.103 45.7715 249.387 46.4449 250.391L46.0714 250.988C43.8021 250.788 35.4242 248.163 33.7106 246.7C33.632 245.909 33.8035 245.57 34.1272 244.873Z" fill="#223B54"/>
<path d="M33.8763 249.239L33.9821 249.218C34.2066 249.169 34.4321 249.102 34.6648 249.101C36.4277 249.09 45.9228 252.787 46.946 253.862L46.9039 255.007L46.3281 255.3L45.4867 255.156C43.4675 254.723 34.0417 251.689 33.1489 250.267L33.8763 249.239Z" fill="#223B54"/>
<path d="M51.229 166.229L49.3465 166.563C44.1474 167.273 39.3699 166.421 35.1505 163.21C28.9255 158.471 23.5942 150.199 22.4073 142.408C22.1734 140.871 22.1581 139.226 22.3467 137.68C22.9201 132.984 25.1945 128.266 29.0363 125.379C32.4202 122.838 36.3851 122.302 40.4799 122.836L43.8591 132.701L44.9772 136.225L46.9437 142.013C47.2125 142.804 47.4154 143.837 47.9229 144.496L48.1143 143.887C48.3482 145.039 48.2991 146.207 48.2981 147.378C48.8123 152.327 48.914 157.143 50.0564 162.028C50.3706 163.373 50.6714 164.969 51.229 166.229Z" fill="url(#paint0_linear_170_16302)"/>
<path d="M38.1273 149.756C38.7807 151.046 39.2302 152.335 39.6396 153.715C38.4895 152.857 37.25 151.813 36.4091 150.64C35.0551 148.749 34.4875 146.633 34.9416 144.323C35.8117 139.89 38.584 137.27 42.174 134.889C40.821 134.579 39.4341 134.263 38.0421 134.22C33.6127 134.081 31.2339 135.897 28.1735 138.801L27.8972 138.564C27.8145 137.432 27.8571 136.973 28.5367 136.006C29.9986 133.921 32.3003 132.345 34.8317 131.937C37.3435 131.532 40.2519 132.043 42.3168 133.577L42.5398 133.747L43.0704 133.602L44.2734 137.4C41.4621 138.728 38.9333 141.435 37.8032 144.323C37.6543 144.704 37.5839 145.079 37.5104 145.479L37.4416 145.835C37.1858 147.289 37.4478 148.465 38.1273 149.756Z" fill="#9D6040"/>
<path d="M30.1623 68.2588C30.4967 68.4766 30.6113 68.5639 30.8486 68.9019C35.2168 73.0056 40.8707 75.4039 46.5349 77.1879C47.8463 77.6008 49.3493 78.2013 50.7039 78.3647L48.3698 104.951L47.6481 145.661L47.4421 146.317C46.896 145.607 46.6777 144.494 46.3885 143.64L44.2728 137.401L43.0697 133.603L39.434 122.968L21.1074 70.5297L26.3961 69.2584C27.4687 69.0457 28.8263 68.9456 29.8033 68.4509L30.1623 68.2588Z" fill="#4F270F"/>
<path d="M180.592 122.033C185.03 121.861 188.699 123.246 191.937 126.331C195.93 130.135 197.511 135.731 197.549 141.178C197.595 147.824 194.47 154.444 189.84 159.026C185.796 163.029 180.207 165.646 174.505 165.533C173.069 165.504 171.796 165.205 170.43 164.776C172.253 156.622 172.749 148.766 172.773 140.43C176.162 134.725 178.431 128.294 180.592 122.033Z" fill="url(#paint1_linear_170_16302)"/>
<path d="M180.476 132.191L183.45 132.109C186.784 132.212 189.628 135.138 191.783 137.404L190.183 136.636C187.855 135.561 184.909 135.173 182.457 136.133L182.155 136.258C180.556 136.91 179.757 137.732 178.67 139.05L179.715 139.536C183.107 141.097 184.691 143.903 186.011 147.264C186.276 148.571 186.479 149.677 186.29 151.01C185.768 150.395 185.403 149.71 184.956 149.045C183.998 147.617 182.419 146.327 180.694 146.024L180.357 145.972C179.327 145.806 178.455 145.752 177.419 145.923C177.132 145.97 175.901 146.14 175.71 146.315C175.039 146.932 174.165 148.765 173.591 149.573C173.474 146.945 174.707 143.87 175.534 141.379L177.678 134.701C178.196 133.228 179.154 132.819 180.476 132.191Z" fill="#9D6040"/>
<path d="M52.042 254.463C53.868 254.551 60.1134 256.282 61.6364 257.301C62.0663 258.132 62.6928 259.228 62.8978 260.139L63.2131 260.77C64.0042 264.361 63.4504 276.331 63.5285 280.006C34.2014 322.893 63.5285 280.006 34.2014 322.893C34.2014 333.614 63.1512 366.726 63.1512 366.726C63.1512 366.726 63.5148 354.045 63.1512 357.961C64.4425 358.177 65.5788 359.163 66.7499 359.736L72.7172 362.326C76.2486 363.735 79.7857 364.679 83.46 365.623C84.7298 365.95 86.0766 366.087 87.3192 366.485L92.1394 367.426L95.4875 367.357L95.5173 367.293L96.2467 367.269C97.4487 367.174 98.2911 366.78 99.3554 366.243L99.3621 375.29C99.3662 377.206 99.2404 379.202 99.5578 381.094C97.7096 381.288 95.6945 381.07 93.8325 380.997L92.858 380.807C90.5923 380.969 88.1734 380.586 85.9086 380.394C81.9698 380.243 78.443 379.34 74.6542 378.399L74.815 378.65C76.8404 381.727 80.1366 383.494 82.3551 386.372L80.3646 391.675C76.9431 397.426 73.7645 401.531 67.2769 403.8C66.2049 403.776 65.2125 403.673 64.2155 403.246C59.8955 401.395 56.0071 389.107 54.2088 384.722L53.4444 384.712C45.3622 379.94 40.711 381.871 34.698 373.978L9.91992 330.761L18.9308 280.006L24.1104 269.599C25.3751 270.386 41.186 275.044 42.5816 275.591L46.3658 267.077L52.042 254.463Z" fill="#08192B"/>
<path d="M74.0498 377.034C74.2892 376.913 74.5023 376.705 74.7684 376.672C75.3509 376.6 76.4291 376.995 77.0229 377.159L81.8031 378.431C85.484 379.257 89.2399 379.645 92.9609 380.241L91.5884 380.481C92.0564 380.637 92.4766 380.679 92.964 380.736L92.9913 380.806C90.7255 380.968 88.3066 380.586 86.0419 380.394C82.1031 380.242 78.5762 379.34 74.7874 378.399L74.0498 377.034Z" fill="#081015"/>
<path d="M67.9719 374.582L68.3566 374.445L69.8057 375.299C71.2255 375.751 73.0295 375.977 74.0506 377.032L74.7882 378.397L74.949 378.648C76.9744 381.725 80.2706 383.492 82.4891 386.37L80.4987 391.673C77.0771 397.424 73.8986 401.529 67.411 403.798C66.3389 403.774 65.3465 403.67 64.3495 403.243C60.0296 401.393 56.1411 389.104 54.3428 384.72L55.1883 384.312C59.6073 382.235 64.9556 378.44 67.9719 374.582Z" fill="#E7A87A"/>
<path d="M67.9709 374.582L68.3556 374.445L69.8047 375.299L69.6182 375.454C69.3115 375.77 69.4014 375.704 69.2535 376.152C68.9186 377.168 68.0315 377.969 67.2764 378.695C64.5786 381.291 61.359 383.553 57.9883 385.183C57.3508 385.492 56.7524 385.787 56.0451 385.904C55.6994 385.391 55.4544 384.868 55.1873 384.312C59.6063 382.235 64.9546 378.44 67.9709 374.582Z" fill="#C2895C"/>
<path d="M18.9658 279.825C23.4404 280.399 27.7711 281.868 32.054 283.237C34.5561 284.037 38.3793 284.883 40.041 287.045C41.1023 288.427 41.1439 290.208 40.9323 291.875C40.1325 298.177 37.653 304.744 35.4545 310.667C34.5885 312.999 33.838 315.697 32.3581 317.725L19.2088 321.33C17.4613 321.809 15.4431 322.197 13.7983 322.931C18.5261 324.755 23.6294 325.869 28.4548 327.495C29.007 327.681 30.924 328.149 31.2979 328.504C31.5501 328.743 31.8075 329.462 31.9934 329.811L33.914 333.384L44.0728 351.998C45.827 355.183 47.4759 358.467 49.4134 361.544L41.7726 367.776C39.7118 369.585 37.7604 371.531 35.6107 373.228L35.4591 373.378L34.6106 373.724C34.6106 373.724 3.50646 351.998 0.14353 330.761C-1.92085 317.725 18.9658 279.825 18.9658 279.825Z" fill="#0D273E"/>
<path d="M146.747 377.784L153.154 375.724C155.868 378.047 158.732 380.459 161.892 382.145C163.138 382.81 164.572 383.125 165.785 383.78C165.756 386.228 165.796 388.612 165.275 391.013L165.178 391.494C164.12 396.615 161.01 400.256 157.089 403.509C156.618 403.9 156.287 404.222 155.659 404.304C156.415 405.486 156.249 406.615 156.298 407.992L156.44 414.03L156.428 415.853L156.403 480.305L121.413 480.462L98.5909 476.625C98.4928 478.106 98.6479 480.276 98.2405 481.644C98.1856 481.05 98.1892 480.867 97.8502 480.355L77.5778 480.28C74.2097 480.274 70.3438 479.89 67.0322 480.438L67.4843 415.003L67.5659 414.254C67.3348 413.076 67.4724 411.722 67.4771 410.522L67.4082 403.801C73.8958 401.532 77.0744 397.427 80.4959 391.677L82.4864 386.373C80.2679 383.495 76.9717 381.728 74.9463 378.651L74.7855 378.4C78.5743 379.341 82.1011 380.244 86.0399 380.395C88.3047 380.588 90.7236 380.97 92.9893 380.808L93.9637 380.998C95.8258 381.071 97.8409 381.289 99.6891 381.096C101.755 381.66 104.317 381.365 106.482 381.359L115.259 381.311C117.359 381.294 119.686 381.52 121.611 380.561C125.72 380.836 130.069 380.191 134.167 379.844L135.538 379.845C136.276 379.316 138.126 379.23 139.048 379.09L146.747 377.784Z" fill="#223B54"/>
<path d="M88.8598 388.588L89.4078 388.051L90.1044 388.188L90.4228 389.29C90.4567 397.117 89.7725 403.975 83.9635 409.848C81.3941 412.445 78.8196 413.924 75.282 414.787C72.6895 415.42 70.1161 415.569 67.4861 415.003L67.5678 414.254C72.0449 414.316 75.8573 413.645 79.7016 411.224C85.1834 407.772 87.5032 402.186 88.7704 396.126C89.1089 393.682 88.9188 391.057 88.8598 388.588Z" fill="#081015"/>
<path d="M134.17 379.844L135.541 379.845L133.707 385.839C133.308 387.345 133.269 388.798 133.234 390.347C133.958 397.985 136.989 405.26 143.073 410.173C147.11 413.432 151.454 414.062 156.443 414.029L156.43 415.852L156.097 415.891C151.123 416.422 145.49 414.597 141.624 411.444C135.533 406.475 132.192 398.112 131.438 390.472C131.356 386.582 132.451 383.291 134.17 379.844Z" fill="#081015"/>
<path d="M80.4986 391.675L80.7796 391.766C81.3318 391.936 81.0513 391.856 81.6317 391.96C82.9863 392.202 84.3691 393.164 85.6707 393.662C86.5773 394.009 88.012 394.2 88.7286 394.736C88.7316 395.184 88.6859 395.687 88.7712 396.125C87.504 402.185 85.1843 407.771 79.7024 411.223C75.8581 413.643 72.0457 414.314 67.5686 414.252C67.3374 413.075 67.4751 411.72 67.4797 410.52L67.4109 403.799C73.8985 401.531 77.0771 397.425 80.4986 391.675Z" fill="#223B54"/>
<path d="M133.234 390.347C135.29 390.201 138.374 390.402 140.225 389.582C141.381 391.267 142.918 392.709 144.356 394.154C147.913 397.73 151.863 400.982 155.661 404.303C156.418 405.486 156.252 406.615 156.3 407.991L156.443 414.029C151.454 414.062 147.11 413.432 143.073 410.173C136.989 405.26 133.958 397.986 133.234 390.347Z" fill="#223B54"/>
<path d="M74.7869 378.399C78.5757 379.34 82.1025 380.243 86.0413 380.394C88.3061 380.587 90.7249 380.969 92.9907 380.807L93.9651 380.998C95.8272 381.07 97.8423 381.288 99.6905 381.095C101.756 381.659 104.319 381.364 106.484 381.358L115.261 381.31C117.361 381.293 119.687 381.519 121.613 380.56C125.721 380.835 130.071 380.19 134.168 379.843C132.45 383.291 131.355 386.581 131.437 390.472C117.53 391.575 104.07 393.145 90.4224 389.29L90.1039 388.187L89.4074 388.05L88.8593 388.587C88.9184 391.056 89.1084 393.681 88.7699 396.126C88.6846 395.687 88.7303 395.185 88.7273 394.737C88.0107 394.201 86.576 394.01 85.6694 393.663C84.3678 393.165 82.985 392.203 81.6304 391.961C81.05 391.857 81.3305 391.937 80.7783 391.767L80.4973 391.676L82.4878 386.373C80.2692 383.494 76.973 381.727 74.9477 378.65L74.7869 378.399Z" fill="#0D273E"/>
<path d="M146.749 377.784L153.156 375.724C155.87 378.047 158.735 380.459 161.894 382.145C163.141 382.81 164.575 383.125 165.787 383.78C165.759 386.228 165.799 388.612 165.277 391.013L165.181 391.494C164.123 396.615 161.013 400.256 157.092 403.509C156.62 403.9 156.29 404.222 155.661 404.304C151.863 400.982 147.913 397.731 144.356 394.154C142.918 392.71 141.381 391.267 140.225 389.582C138.374 390.402 135.29 390.201 133.234 390.348C133.269 388.799 133.308 387.345 133.707 385.839L135.541 379.845C136.279 379.316 138.129 379.23 139.05 379.09L146.749 377.784Z" fill="#E7A87A"/>
<path d="M135.541 379.844C136.279 379.314 138.129 379.229 139.05 379.088L146.749 377.783L140.225 389.581C138.374 390.401 135.29 390.2 133.234 390.346C133.269 388.798 133.308 387.344 133.707 385.838L135.541 379.844Z" fill="#0D273E"/>
<path d="M153.156 375.723L153.38 375.57C154.208 374.995 154.862 374.368 155.547 373.633L155.818 373.967C158.731 377.524 162.744 379.577 166.142 382.54L165.787 383.78C164.575 383.124 163.141 382.809 161.894 382.144C158.735 380.458 155.87 378.046 153.156 375.723Z" fill="#C2895C"/>
<path d="M200.142 261.903L203.523 269.201C202.298 269.737 200.921 270.079 199.751 270.68C197.985 271.165 196.251 272.008 194.557 272.705L185.63 276.283C185.161 276.024 184.958 275.328 184.712 274.846L182.104 269.567L200.142 261.903Z" fill="#223B54"/>
<path d="M174.968 255.396L170.43 246.529C176.711 244.508 183.442 241.712 189.2 238.477L200.142 261.903L182.104 269.566L174.968 255.396Z" fill="#0B5681"/>
<path d="M189.146 252.065C189.787 252.019 189.513 251.922 189.977 252.322C190.12 252.99 190.283 253.156 189.998 253.801C186.784 255.704 182.62 256.863 179.017 257.796L178.247 257.673L177.98 256.945C179.019 255.389 186.928 252.821 189.146 252.065Z" fill="#223B54"/>
<path d="M209.252 282.227C209.252 282.227 232.748 320.62 228.482 330.339C225.659 336.772 217.399 344.51 217.399 344.51L203.849 361.348L195.778 371.713C195.067 372.601 194.167 374.086 193.297 374.77C192.08 373.596 190.505 372.577 189.181 371.492L176.737 361.648C177.242 359.269 178.981 356.43 180.119 354.266L190.661 335.879C192.058 333.6 193.93 329.827 195.944 328.139C200.101 324.656 206.25 323.761 210.579 320.62C208.464 320.953 206.388 321.291 204.316 321.847L198.995 323.3C198.054 323.56 196.987 323.986 196.02 324.03L191.192 304.44C190.211 300.794 188.782 296.864 188.24 293.159C188.131 292.417 188.086 291.387 188.418 290.696C189.072 289.333 190.6 287.848 191.923 287.128C194.056 285.966 197.076 285.504 199.44 284.916L209.252 282.227Z" fill="#0D273E"/>
<path d="M153.553 231.816L161.645 234.523L169.65 237.325C171.073 237.86 172.855 238.768 174.343 239.021C180.205 239.641 174.343 239.021 180.205 239.641C174.448 242.877 167.618 244.508 161.337 246.529L165.876 255.397L165.696 255.538C163.446 257.218 161.108 256.795 160.565 260.134L160.503 260.541L160.431 260.962C159.654 265.922 160.371 271.615 160.518 276.657C160.636 280.71 160.316 285.54 161.195 289.476C160.959 291.755 161.171 294.083 161.239 296.369L161.576 307.253L161.74 328.459C161.691 331.649 160.92 351.725 161.573 352.65L161.088 352.809C160.925 352.23 160.94 351.671 160.936 351.075L160.65 351.203C159.733 353.676 157.77 361.145 155.157 362.247C153.824 362.809 152.012 362.959 150.58 363.237L132.028 366.002C132.209 365.863 132.45 365.779 132.57 365.585C132.882 365.08 132.616 361.278 132.615 360.555L132.576 329.53C132.57 322.653 132.06 315.366 132.934 308.56C133.393 304.991 134.448 301.562 135.599 298.167C139.002 288.131 144.731 278.442 151.763 270.506L136.414 252.695L135.774 252.065C136.26 251.171 137.137 250.364 137.81 249.601L142.113 244.738L153.553 231.816Z" fill="#0D273E"/>
<path d="M153.552 231.816L161.644 234.523C157.524 237.936 140.482 252.346 136.413 252.695L135.773 252.065C136.259 251.171 137.136 250.364 137.809 249.601L142.112 244.738L153.552 231.816Z" fill="#08192B"/>
<path d="M13.6917 41.0198L12.6094 38.5342C22.009 41.2001 31.4943 41.854 41.0773 39.6591C56.1883 36.1975 69.5323 26.9817 83.9432 21.5136C78.6468 20.334 73.1069 19.8415 67.6898 19.6606C78.3299 15.0215 88.972 10.6786 100.837 10.9317C103.599 10.9906 106.161 11.4523 108.865 11.9487L91.0118 0.63636C96.149 0.25938 101.193 -0.157666 106.352 0.0599235C123.332 0.776077 142.097 6.64646 155.089 17.9001C158.394 20.7634 161.535 24.0634 163.754 27.8583C164.929 29.8679 165.79 32.0985 166.703 34.2379C167.229 26.0925 165.539 18.4587 163.918 10.5307C170.338 16.9418 177.821 26.6241 177.69 36.197L177.474 39.467C181.278 37.0214 183.052 34.2887 184.002 29.9035L184.291 28.7558C185.431 33.0569 186.163 37.1899 185.018 41.5905L184.923 41.9706C184.01 45.4959 181.656 48.4798 178.529 50.3249C175.927 51.8607 173.596 51.5171 170.901 52.2383L187.605 65.7318L193.665 70.4745C194.501 71.1258 195.953 72.0226 196.522 72.8907C196.733 73.6844 196.409 74.4528 196.2 75.2207L194.59 80.7909L186.917 105.202C185.209 110.68 183.822 116.532 181.747 121.858C179.287 128.881 176.705 136.094 172.846 142.493C173.028 140.495 172.873 138.341 172.864 136.321L172.513 121.186L171.679 90.6918L155.487 74.5011C153.626 75.494 152.018 76.7992 150.267 77.9586C148.183 79.3383 145.905 80.5942 143.71 81.7941C134.179 87.0058 124.294 90.0945 113.563 91.7772C109.319 92.4429 104.886 93.0182 100.58 92.9073C99.0687 92.8688 93.0603 92.9006 92.2533 92.0582C92.4809 91.7659 92.691 91.5029 92.9925 91.2821C93.3022 91.0555 93.6038 90.8948 93.8411 90.5819C94.1411 90.1869 93.7445 90.5871 94.3157 90.0862L95.8942 89.2341C95.7612 89.1488 95.5408 88.9911 95.3769 88.932C94.6912 88.686 93.6392 88.8175 92.9155 88.836C89.3229 88.9279 85.7365 89.6316 82.1274 89.7965C74.8318 90.1294 67.3903 89.9481 60.104 89.5001C57.2249 89.3229 54.3443 88.854 51.4621 88.7923C50.613 93.8134 50.4301 99.0466 49.334 104.001L49.242 104.467C49.1367 104.965 49.2158 104.774 48.9569 105.159L48.8182 104.726L48.6497 104.834L48.3698 104.951L50.7039 78.3649C49.3494 78.2015 47.8464 77.6011 46.535 77.1881C40.8708 75.4041 35.2169 73.0058 30.8486 68.9021C30.6113 68.5641 30.4968 68.4768 30.1624 68.259C21.2816 61.457 17.6202 51.1092 13.6917 41.0198Z" fill="#4F270F"/>
<path d="M65.833 83.2103C67.2549 83.5535 68.8164 83.4605 70.2757 83.4605C74.4894 83.46 78.591 82.9448 82.7296 82.1866C90.394 80.7822 97.2884 78.7666 104.452 75.6785C107.832 74.2217 111.235 72.6689 114.32 70.6456C118.14 68.1399 121.506 64.9505 124.997 62.0154C131.285 56.7278 138.751 52.0842 146.846 50.3604C145.713 51.0297 144.412 51.3949 143.221 51.9594C141.891 52.5897 140.584 53.4495 139.384 54.3038C133.651 58.3848 129.287 63.7198 124.304 68.5965L117.451 74.8504C115.338 76.827 113.3 78.9649 111.055 80.7889L104.312 85.7622L113.718 84.2387C126.639 81.7058 138.3 75.869 148.996 68.3495C152.078 66.1828 155.799 63.5821 157.884 60.4123L158.002 60.2279C158.828 62.7906 158.662 64.8298 160.337 67.1994L160.576 67.5307C163.378 71.5142 167.81 74.835 171.771 77.6294C175.251 80.0847 178.6 82.4676 182.661 83.8555C185.071 83.2088 187.132 81.6252 189.032 80.0713L196.264 73.0957L196.521 72.8908C196.732 73.6844 196.409 74.4528 196.2 75.2208L194.589 80.791L186.917 105.202C185.208 110.68 183.821 116.532 181.746 121.858C179.287 128.881 176.704 136.094 172.845 142.493C173.027 140.495 172.872 138.341 172.863 136.321L172.512 121.186L171.678 90.6919L155.486 74.5011C153.625 75.4941 152.018 76.7993 150.266 77.9586C148.182 79.3383 145.904 80.5942 143.709 81.7942C134.178 87.0058 124.293 90.0945 113.562 91.7773C109.318 92.443 104.886 93.0183 100.579 92.9073C99.0678 92.8688 93.0594 92.9007 92.2524 92.0583C92.48 91.766 92.6901 91.503 92.9916 91.2821C93.3013 91.0556 93.6029 90.8948 93.8402 90.582C94.1402 90.187 93.7436 90.5871 94.3148 90.0863L95.8933 89.2341C95.7603 89.1488 95.5399 88.9912 95.376 88.9321C94.6903 88.686 93.6383 88.8175 92.9146 88.836C89.322 88.928 85.7356 89.6317 82.1265 89.7966C74.8309 90.1294 67.3894 89.9481 60.1031 89.5002C57.224 89.323 54.3434 88.854 51.4612 88.7924C50.6121 93.8134 50.4292 99.0467 49.3331 104.001L49.2411 104.467C49.1358 104.965 49.2149 104.774 48.956 105.159L48.8173 104.726L48.6489 104.834L48.3689 104.951L50.703 78.3649L73.01 78.8077C70.7884 80.5352 68.2863 81.845 65.833 83.2103Z" fill="#321504"/>
<path d="M94.3165 90.0867C95.4199 90.6266 97.4001 90.3754 98.6401 90.3564C108.295 90.209 118.645 88.6403 127.794 85.5506C135.158 83.0639 142.026 79.0758 148.524 74.8509C150.814 73.3623 153.579 70.8499 156.077 69.8555C159.786 74.5781 163.803 78.746 168.591 82.3879C169.248 82.8877 171.161 83.9906 171.548 84.5967C171.62 84.7092 171.573 85.755 171.577 85.9302L171.679 90.6924L155.488 74.5016C153.627 75.4945 152.019 76.7997 150.268 77.9591C148.184 79.3388 145.906 80.5947 143.711 81.7946C134.18 87.0063 124.295 90.095 113.564 91.7777C109.32 92.4434 104.887 93.0187 100.581 92.9078C99.0695 92.8693 93.0611 92.9011 92.2542 92.0587C92.4817 91.7664 92.6918 91.5034 92.9933 91.2826C93.3031 91.056 93.6046 90.8953 93.8419 90.5824C94.1419 90.1874 93.7453 90.5876 94.3165 90.0867Z" fill="#C2895C"/>
<path d="M50.703 78.3652L73.01 78.808C70.7884 80.5355 68.2863 81.8453 65.833 83.2106L58.5395 86.645C69.1693 87.7032 79.5921 87.7612 90.1279 85.7569C95.7572 84.6859 101.084 82.9949 106.464 81.0666C104.328 83.3483 101.97 85.141 99.4243 86.9388C98.3784 87.6775 97.0742 88.747 95.8933 89.2344C95.7603 89.1492 95.5399 88.9915 95.376 88.9324C94.6903 88.6863 93.6383 88.8178 92.9146 88.8363C89.322 88.9283 85.7355 89.632 82.1265 89.7969C74.8309 90.1297 67.3894 89.9484 60.1031 89.5005C57.224 89.3233 54.3434 88.8543 51.4612 88.7927C50.6121 93.8138 50.4292 99.047 49.3331 104.001L49.2411 104.467C49.1358 104.965 49.2149 104.774 48.956 105.16L48.8173 104.727L48.6489 104.834L48.3689 104.952L50.703 78.3652Z" fill="#C2895C"/>
<path d="M13.6914 41.0195C15.7666 41.2208 18.3663 43.089 20.2627 44.0162C27.8532 47.7254 36.2326 49.9979 44.74 49.4087C50.6492 48.9993 56.3309 47.3396 61.6679 44.8006C67.0629 42.2338 72.0218 38.8385 77.3547 36.1463C87.907 30.8187 99.9165 28.3261 111.699 28.5008C116.656 28.5743 122.087 29.129 126.814 30.6589C107.268 31.6454 87.1945 36.1222 71.0823 47.6627C68.5967 49.4431 66.0895 51.0873 63.9275 53.2663C81.5241 46.6714 100.533 42.3499 119.388 43.0639C124.424 43.255 129.513 43.6541 134.372 45.0636C128.665 45.4288 123.203 46.1089 117.735 47.8826C105.486 51.8568 95.6459 60.2393 86.161 68.6178L80.5102 73.42C79.8927 73.9337 78.7981 75.0453 78.0661 75.318C76.5287 76.5287 74.81 78.0281 73.0106 78.8074L50.7036 78.3646C49.3491 78.2012 47.8461 77.6008 46.5347 77.1878C40.8705 75.4038 35.2166 73.0055 30.8484 68.9018C30.6111 68.5638 30.4965 68.4765 30.1621 68.2587C21.2813 61.4567 17.6199 51.1089 13.6914 41.0195Z" fill="#321504"/>
<path d="M131.929 280.648C133.49 277.085 135.696 274.369 139.422 272.929C142.586 271.706 145.909 271.908 148.978 273.3C151.832 274.595 154.15 276.88 155.224 279.856C156.384 283.069 156.317 286.884 154.811 289.978C153.354 292.971 150.865 295.076 147.714 296.125C144.36 297.241 140.983 296.898 137.871 295.265C137.04 294.829 136.27 294.261 135.556 293.655C134.627 292.906 133.943 291.923 133.22 290.983L131.976 288.452C131.51 287.036 131.357 285.582 131.326 284.099L131.929 280.648Z" fill="#37E6F4"/>
<path d="M143.098 273.899C145.69 273.749 148.22 274.198 150.352 275.785C152.673 277.511 154.159 280.284 154.517 283.126C154.866 285.898 154.191 288.824 152.415 291.02C150.338 293.588 147.634 294.852 144.388 295.24C141.792 295.441 139.169 294.523 137.095 292.992C134.766 291.274 133.279 288.857 132.904 285.974C132.549 283.238 133.382 280.177 135.081 278.002C137.135 275.372 139.851 274.247 143.098 273.899Z" fill="#0456A6"/>
<path d="M143.201 275.388C145.277 275.238 147.396 275.678 149.136 276.85C151.127 278.192 152.484 280.237 152.894 282.615C153.343 285.211 152.862 288.104 151.267 290.24C149.559 292.528 147.342 293.494 144.601 293.892C142.124 293.897 139.788 293.578 137.803 291.936C135.818 290.294 134.672 287.874 134.411 285.33C134.154 282.822 134.945 280.552 136.536 278.62C138.247 276.541 140.606 275.657 143.201 275.388Z" fill="#37E6F4"/>
<path d="M139.308 203.489L145.882 209.695L157.476 220.315C158.796 221.446 160.054 222.657 161.485 223.648L153.555 231.816L142.115 244.737L137.812 249.601C137.14 250.364 136.263 251.171 135.776 252.065L136.416 252.694L151.766 270.506C144.733 278.441 139.005 288.13 135.601 298.166C134.45 301.562 133.395 304.99 132.936 308.56C132.062 315.365 132.572 322.653 132.579 329.53L132.618 360.555C132.618 361.278 132.884 365.08 132.572 365.585C132.452 365.779 132.211 365.863 132.03 366.002L127.555 366.252L124.303 366.46L122.109 366.816C123.607 369.038 123.184 371.406 123.162 373.98C123.15 375.261 123.263 376.726 123.062 377.987C122.917 378.891 122.182 379.855 121.616 380.559C119.691 381.518 117.364 381.292 115.264 381.309L106.487 381.357C104.322 381.363 101.76 381.658 99.6939 381.094C99.3764 379.201 99.5023 377.206 99.4981 375.29L99.4915 366.242C98.4271 366.779 97.5847 367.173 96.3828 367.268L95.6534 367.292L95.6236 367.356L92.2755 367.425L87.4552 366.484C86.2127 366.086 84.8658 365.949 83.5961 365.622C79.9218 364.678 76.3847 363.734 72.8532 362.325L66.886 359.735C65.7148 359.162 64.5786 358.176 63.2872 357.96C63.6509 354.044 63.2549 349.884 63.1681 345.945L62.4448 319.997L61.8823 296.793C61.8079 294.557 62.1438 290.774 61.3045 288.73C61.2485 288.561 61.5176 287.866 61.5695 287.695C62.0765 286.025 62.829 284.438 63.1819 282.72L63.2487 282.371C63.8985 279.16 63.2513 275.567 63.1824 272.319C63.1044 268.644 63.5682 264.244 62.7772 260.653L62.6575 260.155C62.4525 259.244 62.1392 258.557 61.7092 257.727C60.1862 256.708 57.8758 255.865 56.0497 255.777L59.7203 246.039L44.5024 239.438L63.7295 233.041L67.376 231.64L59.7594 223.906L78.4733 207.021L81.7885 204.09C82.8538 206.776 84.4616 209.529 86.1998 211.841L90.8495 207.339L95.7679 209.268C102.732 211.746 110.139 212.883 117.493 211.556C119.851 211.131 122.097 210.36 124.419 209.798C126.756 209.245 128.935 208.401 131.153 207.492L139.308 203.489Z" fill="#0B5681"/>
<path d="M124.636 256.067C125.459 255.811 125.989 255.248 126.612 254.683L137.67 267.732C138.359 268.524 141.045 271.117 141.078 271.997C137.356 277.519 134.673 283.464 132.399 289.696C130.065 296.093 128.262 302.48 127.76 309.307C127.54 312.295 127.663 315.373 127.656 318.374L127.635 333.958L127.552 366.252L124.3 366.461L124.287 353.941L124.082 270.895L124.346 256.141L124.636 256.067Z" fill="#223B54"/>
<path d="M124.416 209.8C126.752 209.247 128.932 208.404 131.15 207.494L131.419 207.913C132.231 209.087 134.274 210.297 135.398 211.351L143.48 219.289C146.219 221.845 149.154 224.205 151.789 226.871L146.54 232.457C145.71 233.389 144.543 235.22 143.445 235.757L143.527 236.263L126.612 254.685C125.988 255.25 125.459 255.813 124.635 256.069L124.346 256.143L124.321 240.132L124.376 236.199L124.441 231.32C124.67 230.328 124.581 229.205 124.593 228.184L124.55 223.975L124.416 209.8Z" fill="#0D273E"/>
<path d="M124.635 256.067L124.66 252.417L143.067 235.701L143.445 235.754L143.526 236.26L126.612 254.682C125.988 255.247 125.459 255.81 124.635 256.067Z" fill="#081015"/>
<path d="M124.083 270.896L124.288 353.941L124.301 366.461L122.107 366.816C123.605 369.038 123.182 371.406 123.16 373.981C123.148 375.261 123.261 376.727 123.06 377.987C122.915 378.891 122.18 379.855 121.614 380.559C119.689 381.519 117.362 381.292 115.262 381.309L106.485 381.357C104.32 381.364 101.758 381.658 99.6918 381.094C99.3744 379.202 99.5002 377.206 99.4961 375.29L99.4894 366.243C98.4251 366.78 97.5827 367.174 96.3807 367.268C96.3638 362.03 95.9949 356.447 96.5584 351.251L96.8594 321.761C99.6898 318.561 102.058 314.88 104.387 311.304C112.672 298.581 118.988 285.173 124.083 270.896Z" fill="#5093AC"/>
<path d="M96.3807 367.268C96.3638 362.03 95.9949 356.447 96.5584 351.251L96.618 354.629L124.288 353.942L124.301 366.461L122.107 366.816L120.663 365.608C118.573 365.111 115.555 365.474 113.353 365.478C109.02 365.484 104.07 365.036 99.8105 365.681L99.4894 366.243C98.4251 366.78 97.5827 367.174 96.3807 367.268Z" fill="#4E7788"/>
<path d="M99.4879 366.243L99.809 365.681C104.068 365.036 109.019 365.484 113.352 365.478C115.553 365.474 118.572 365.111 120.661 365.608L122.105 366.816C123.604 369.038 123.181 371.406 123.158 373.981C123.147 375.261 123.26 376.727 123.059 377.987C122.914 378.891 122.178 379.855 121.613 380.559C119.687 381.519 117.36 381.292 115.261 381.309L106.484 381.357C104.318 381.364 101.756 381.658 99.6903 381.094C99.3729 379.202 99.4987 377.206 99.4946 375.29L99.4879 366.243Z" fill="#A48E31"/>
<path d="M103.925 370.145L104.087 368.796C104.975 368.281 117.03 368.142 118.612 368.489C119.198 368.617 119.311 368.883 119.673 369.328L119.685 370.098C118.119 370.593 115.822 370.315 114.155 370.29L103.925 370.145Z" fill="#081015"/>
<path d="M119.685 370.098L119.691 378.289L103.999 378.427L103.945 370.459L103.925 370.145L114.155 370.29C115.822 370.315 118.119 370.593 119.685 370.098Z" fill="#0D273E"/>
<path d="M95.7664 209.27C102.73 211.748 110.137 212.884 117.492 211.557C119.85 211.132 122.095 210.361 124.418 209.8L124.552 223.974L124.595 228.183C124.583 229.204 124.672 230.327 124.443 231.319L124.378 236.199L124.323 240.131L124.348 256.143L124.084 270.897C118.989 285.174 112.672 298.582 104.387 311.305C102.059 314.881 99.6903 318.562 96.86 321.762L96.336 256.534L96.3237 252.838L96.2996 244.272C95.8552 241.597 96.1465 238.323 96.11 235.58L96.0078 231.088C95.4027 227.385 95.8342 223.007 95.827 219.225L95.8213 216.08L95.7664 209.27Z" fill="#74C7DE"/>
<path d="M96.1101 235.579L96.4487 235.671C97.3286 235.935 98.1489 236.818 98.8968 237.346C101.436 239.142 104.801 240.721 107.933 241.058L108.455 241.12C113.723 241.723 118.652 240.851 122.847 237.484L124.378 236.198L124.323 240.13L124.024 240.256C122.906 240.746 122.004 241.774 120.922 242.373C117.372 244.335 112.713 244.774 108.789 243.847C104.247 242.773 99.9472 241.013 96.4307 237.876C96.4225 239.929 96.6325 242.255 96.2997 244.271C95.8554 241.596 96.1466 238.322 96.1101 235.579Z" fill="#56B3C8"/>
<path d="M95.7664 209.27C102.73 211.748 110.137 212.884 117.492 211.557C119.85 211.132 122.095 210.361 124.418 209.8L124.552 223.974L124.595 228.183C124.583 229.204 124.672 230.327 124.443 231.319L124.378 236.199L122.847 237.485C118.652 240.852 113.723 241.724 108.455 241.121L107.933 241.059C104.801 240.722 101.436 239.143 98.8966 237.347C98.1487 236.818 97.3284 235.936 96.4485 235.671L96.11 235.58L96.0078 231.088C95.4027 227.385 95.8342 223.007 95.827 219.225L95.8213 216.08L95.7664 209.27Z" fill="#F2C38F"/>
<path d="M96.0066 231.088C99.8283 235.22 104.425 237.811 110.152 238.067C114.713 238.27 118.767 237.064 122.179 233.907L124.442 231.32L124.377 236.199L122.846 237.485C118.651 240.852 113.721 241.724 108.454 241.121L107.931 241.06C104.8 240.722 101.435 239.144 98.8954 237.347C98.1476 236.819 97.3272 235.936 96.4473 235.672L96.1088 235.58L96.0066 231.088Z" fill="#5093AC"/>
<path d="M95.7646 209.27C102.728 211.748 110.136 212.884 117.49 211.557C119.848 211.132 122.094 210.361 124.416 209.8L124.55 223.974L124.594 228.183C123.433 228.241 121.669 227.627 120.529 227.341C115.348 226.041 110.532 224.392 105.805 221.864L101.529 220.201L95.8253 219.225L95.8196 216.08L95.7646 209.27Z" fill="#C2895C"/>
<path d="M95.8198 216.08C97.6459 217.215 100.006 218.689 101.529 220.201L95.8255 219.225L95.8198 216.08Z" fill="#E7A87A"/>
<path d="M105.806 221.864C110.266 222.093 114.384 223.367 118.939 222.758C119.908 222.628 123.678 221.237 124.311 221.504L124.55 223.974L124.594 228.184C123.434 228.242 121.67 227.628 120.529 227.342C115.349 226.041 110.532 224.393 105.806 221.864Z" fill="#E7A87A"/>
<path d="M81.7842 204.092C82.8496 206.778 84.4574 209.531 86.1956 211.844L90.8453 207.341L95.7637 209.27L95.8186 216.081L95.8243 219.226C95.8315 223.008 95.4 227.386 96.0051 231.088L96.1073 235.581C96.1438 238.324 95.8525 241.597 96.2969 244.272L96.321 252.839L96.3333 256.535L96.8573 321.763L96.5563 351.253C95.9928 356.449 96.3616 362.032 96.3785 367.27L95.6491 367.294L95.6193 367.358L92.2712 367.427L87.451 366.486L87.5599 327.153L87.5301 314.471C87.5065 311.741 87.5774 308.859 87.1731 306.156C86.3579 300.704 84.3911 295.377 81.9234 290.463C79.3284 285.295 75.9325 280.414 72.4288 275.824C71.081 274.058 68.9482 272.128 67.9235 270.22L67.7452 269.875L82.6996 253.556C82.9939 253.481 84.1322 252.076 84.4224 251.772C84.2878 251.079 83.8918 250.844 83.4131 250.351L67.3718 231.642L59.7551 223.909L78.469 207.023L81.7842 204.092Z" fill="url(#paint2_linear_170_16302)"/>
<path d="M81.7864 204.092C82.8517 206.778 84.4595 209.531 86.1978 211.844L83.7193 214.303C83.6993 213.514 82.9658 212.723 82.5024 212.103L78.4712 207.023L81.7864 204.092Z" fill="#223B54"/>
<path d="M90.8479 207.338L95.7662 209.267L95.8212 216.078L95.8268 219.223C95.834 223.005 95.4026 227.383 96.0077 231.085L96.1099 235.578C96.1464 238.321 95.8551 241.594 96.2994 244.269L96.3236 252.836L96.3359 256.532C95.457 256.349 94.1477 254.856 93.4286 254.237L76.5942 235.313L76.4801 235.276C74.7388 233.939 72.9939 231.662 71.4986 230.039C71.0121 229.511 69.2441 227.931 69.22 227.297L83.7197 214.301L86.1982 211.841L90.8479 207.338Z" fill="#0D273E"/>
<path d="M76.5938 235.314C78.5395 235.887 80.6943 238.762 82.1876 240.181L90.3503 247.724C92.3274 249.528 94.0805 251.336 96.3232 252.838L96.3355 256.533C95.4566 256.351 94.1473 254.858 93.4281 254.239L76.5938 235.314Z" fill="#081015"/>
<path d="M93.4272 254.239C94.1463 254.858 95.4556 256.351 96.3345 256.534L96.8585 321.762L96.5575 351.252C95.994 356.448 96.3628 362.031 96.3797 367.269L95.6503 367.294L95.6205 367.357L92.2724 367.426L92.4414 329.958C92.4738 320.302 93.3034 310.168 91.1501 300.714C88.8504 290.618 84.213 281.282 79.5864 272.09C79.9301 270.932 81.4197 269.619 82.1727 268.628L88.5494 260.499C90.149 258.414 91.6576 256.18 93.4272 254.239Z" fill="#223B54"/>
<path d="M67.374 231.643L83.4152 250.351C83.894 250.844 84.29 251.08 84.4246 251.772C84.1344 252.076 82.9961 253.482 82.7018 253.556L67.7474 269.875L67.9256 270.22C68.9504 272.129 71.0831 274.059 72.431 275.824C75.9347 280.414 79.3306 285.295 81.9256 290.464C84.3933 295.377 86.3601 300.704 87.1753 306.156C87.5795 308.859 87.5086 311.742 87.5323 314.471L87.5621 327.154L87.4532 366.486C86.2106 366.088 84.8638 365.951 83.594 365.625C79.9197 364.68 76.3826 363.736 72.8512 362.327L66.8839 359.738C65.7127 359.164 64.5765 358.179 63.2852 357.962C63.6488 354.047 63.2528 349.887 63.166 345.948L62.4427 319.999L61.8803 296.795C61.7901 294.089 60.9481 285.348 61.7072 282.845C63.3681 277.373 63.3038 278.144 63.1804 272.321C63.1023 268.646 63.5661 264.247 62.7751 260.655L62.6554 260.157C62.4505 259.246 62.1371 258.56 61.7072 257.729C60.1842 256.71 53.3714 255.183 51.5453 255.095L55.0141 246.265L41.1389 239.959L63.7274 233.043L67.374 231.643Z" fill="#0D273E"/>
<path d="M67.7473 269.873L67.5233 269.935C66.8222 270.093 65.8852 270.276 65.2632 269.915C65.5159 268.65 67.5865 267.015 68.5558 266.022C72.1186 262.371 75.6999 258.37 79.5688 255.058C80.4898 254.27 81.4329 253.459 82.7016 253.555L67.7473 269.873Z" fill="#08192B"/>
<path d="M67.3741 231.643L83.4153 250.351C82.3135 250.277 80.3554 247.945 79.476 247.132L68.329 236.565C66.8624 235.241 65.4134 234.076 63.7275 233.043L67.3741 231.643Z" fill="#08192B"/>
<path d="M94.3158 90.0861C93.7446 90.5869 94.1412 90.1868 93.8412 90.5818C93.6039 90.8946 93.3023 91.0554 92.9926 91.2819C92.6911 91.5028 92.481 91.7658 92.2534 92.0581C93.0604 92.9005 99.0688 92.8687 100.58 92.9072C104.887 93.0181 109.319 92.4428 113.563 91.7771C124.294 90.0943 134.179 87.0057 143.71 81.794C145.905 80.5941 148.183 79.3382 150.267 77.9585C152.019 76.7991 153.626 75.4939 155.487 74.501L171.679 90.6917L172.513 121.186L172.864 136.321C172.873 138.34 173.028 140.495 172.846 142.492C172.82 151.842 172.255 160.654 170.179 169.8C164.923 184.356 152.114 195.537 139.305 203.49L131.151 207.492C128.933 208.402 126.753 209.245 124.417 209.799C122.094 210.36 119.849 211.131 117.491 211.556C110.136 212.883 102.729 211.747 95.7654 209.269L90.847 207.339L86.1973 211.842C84.4591 209.529 82.8513 206.777 81.786 204.09L82.6268 203.208C69.5355 195.381 56.248 184.605 50.9994 169.746C50.3994 168.387 50.0758 166.667 49.7378 165.217C48.5086 159.95 48.3992 154.76 47.846 149.424C47.847 148.162 47.8999 146.903 47.6482 145.661L48.3699 104.951L48.6498 104.833L48.8183 104.726L48.957 105.159C49.2159 104.773 49.1368 104.965 49.2421 104.467L49.3341 104.001C50.4302 99.0465 50.6131 93.8133 51.4622 88.7922C54.3444 88.8538 57.225 89.3228 60.1041 89.5C67.3904 89.948 74.8319 90.1293 82.1275 89.7964C85.7365 89.6315 89.323 88.9278 92.9156 88.8359C93.6393 88.8174 94.6913 88.6859 95.377 88.9319C95.5409 88.991 95.7613 89.1487 95.8943 89.234L94.3158 90.0861Z" fill="#F2C38F"/>
<path d="M82.626 203.207L90.8462 207.338L86.1965 211.841C84.4583 209.529 82.8505 206.776 81.7852 204.09L82.626 203.207Z" fill="#08192B"/>
<path d="M99.9268 158.406C101.614 155.22 105.888 151.602 109.328 150.472C111.049 149.907 112.418 150.288 113.954 151.126C116.634 152.589 120.28 155.878 121.454 158.729C119.793 158.577 117.937 159.126 116.253 159.189C110.701 159.393 105.418 159.327 99.9268 158.406Z" fill="#E7A87A"/>
<path d="M99.9282 158.407C105.42 159.328 110.703 159.394 116.255 159.19C117.939 159.127 119.795 158.578 121.455 158.73C121.534 159.41 121.461 159.985 121.253 160.633C120.172 164.015 115.222 166.925 112.23 168.362C109.326 168.193 106.7 167.267 104.335 165.582C102.04 163.947 99.9955 161.84 99.5137 158.964L99.9282 158.407Z" fill="#C2895C"/>
<path d="M152.061 154.702C155.537 154.472 159.131 154.875 162.127 156.807C163.152 157.468 164.197 158.631 164.412 159.863C164.593 160.9 164.458 161.754 163.857 162.618C162.212 164.983 158.668 165.458 156.033 165.884C152.637 165.944 149.32 165.928 146.302 164.15C145.146 163.468 143.621 162.329 143.346 160.922C143.134 159.839 143.698 158.721 144.365 157.905C146.328 155.505 149.164 155.007 152.061 154.702Z" fill="#E7A87A"/>
<path d="M66.0544 154.189C69.327 153.887 73.5216 154.802 76.0945 156.871C76.976 157.579 78.0454 158.757 78.1353 159.943C78.2103 160.929 77.9371 161.715 77.3089 162.469C75.209 164.991 71.5568 165.666 68.463 165.931C64.9603 165.945 61.6857 165.742 58.5975 163.884C57.4053 163.166 55.9984 161.961 55.7528 160.503C55.5561 159.335 55.8217 158.442 56.5644 157.543C58.823 154.81 62.7767 154.444 66.0544 154.189Z" fill="#E7A87A"/>
<path d="M57.6184 132.386L56.6106 132.124C54.8908 127.839 55.0131 121.559 56.7667 117.286C58.1038 114.028 60.1277 111.671 63.4131 110.349C69.0629 108.075 76.5039 108.765 82.0196 111.172C86.2075 113 88.9623 116.208 90.5799 120.44C92.1517 124.552 92.4876 129.261 91.5908 133.578L91.2004 133.108C90.8115 133.901 91.0494 134.854 90.6949 135.705L90.603 130.937C90.0539 125.828 87.1722 120.853 83.0916 117.772C79.8463 115.322 75.5238 113.954 71.471 114.507C67.0508 115.11 63.1259 117.224 60.4492 120.833C57.8947 124.277 57.0318 128.197 57.6184 132.386Z" fill="#C2895C"/>
<path d="M132.374 138.512C131.685 137.184 131.755 135.969 131.242 134.685C129.637 130.665 130.218 124.49 131.493 120.45C132.789 116.345 135.183 113.349 139.066 111.424C143.74 109.107 150.87 108.648 155.801 110.43C159.874 111.902 162.152 114.88 163.957 118.666C166.172 123.313 167.051 130.028 165.334 134.943L164.678 135.432L164.598 131.482C164.283 127.079 161.599 122.592 158.333 119.727C155.146 116.931 150.618 115.284 146.374 115.601C142.343 115.903 138.6 117.79 135.994 120.875C133.527 123.796 131.623 128.337 131.967 132.19L132.374 138.512Z" fill="#C2895C"/>
<path d="M144.805 95.3763L144.816 95.367C148.324 95.141 152.207 94.7696 155.544 96.0887C161.892 98.5985 166.283 107.379 168.954 113.202C167.974 112.526 167.161 111.627 166.165 110.952C162.929 108.757 159.285 107.935 155.477 107.397C147.217 106.334 138.881 108.527 130.919 110.473L128.053 97.903C133.376 96.5505 139.344 95.9166 144.805 95.3763Z" fill="#4F270F"/>
<path d="M70.4622 95.0592C73.7712 94.8738 77.2734 95.4296 80.5603 95.8379C84.8269 96.3686 89.1864 96.8791 93.3794 97.8335L90.207 110.405C88.0671 110.309 85.5475 109.332 83.3804 108.893C80.3061 108.269 77.1804 107.973 74.0609 107.672C66.244 106.943 59.6259 108.588 52.939 112.614C53.9637 109.792 55.0378 107.267 56.7206 104.755C59.8986 100.011 64.8016 96.1975 70.4622 95.0592Z" fill="#4F270F"/>
<path d="M63.1043 145.837C62.3943 145.433 61.7213 144.483 61.2341 143.822C57.8904 139.285 56.2653 133.631 57.1385 128.015C57.7666 123.975 60.1941 119.975 63.4921 117.563C67.0853 114.936 71.5254 113.976 75.9153 114.667C80.3057 115.358 84.6694 118.076 87.2796 121.659C89.241 124.352 91.0786 128.772 90.541 132.162C89.6188 129.397 88.1839 127.249 86.4769 124.928L85.6923 125.467C83.6019 122.953 80.9809 120.823 77.5909 120.476C76.3213 120.347 75.1007 120.403 73.8783 120.769L73.5972 120.851C70.7786 121.697 68.9095 123.385 66.9529 125.499L64.1139 122.19C60.7243 125.526 59.2998 128.83 59.246 133.624C59.1941 138.262 60.7988 141.9 63.1043 145.837Z" fill="#050613"/>
<path d="M64.1155 122.191C66.6824 119.843 70.2311 118.366 73.7364 118.492C78.5832 118.666 82.7132 120.767 85.9586 124.307L86.4785 124.929L85.6939 125.468C83.6035 122.954 80.9824 120.824 77.5924 120.477C76.3229 120.348 75.1023 120.404 73.8799 120.77L73.5988 120.852C70.7802 121.698 68.9111 123.386 66.9545 125.499L64.1155 122.191Z" fill="#37E6F4"/>
<path d="M130.543 133.348C130.188 129.239 132.177 124.422 134.794 121.326C137.508 118.114 141.747 115.844 145.96 115.537C151.077 115.163 155.201 116.403 159.061 119.82C162.456 122.824 164.677 127.613 164.917 132.13C165.003 133.752 164.994 135.356 164.63 136.942C163.906 140.088 162.596 143.456 159.98 145.519C162.185 141.746 163.181 137.93 162.555 133.544C161.743 132.317 161.376 131.096 160.346 129.963C159.451 128.979 158.091 128.922 156.816 128.87C155.681 126.921 154.648 125.427 152.929 123.949C150.113 122.255 147.007 121.128 143.682 121.9C140.786 122.573 138.551 124.215 136.679 126.469C136.016 126.403 135.379 126.199 134.739 126.022C133.933 127.186 133.103 128.358 132.452 129.62C131.821 130.842 131.332 132.218 130.543 133.348Z" fill="#050613"/>
<path d="M152.928 123.949C153.125 123.728 153.258 123.655 153.529 123.515C154.217 123.16 154.837 122.677 155.475 122.238C158.907 124.57 161.642 127.912 162.416 132.07C162.509 132.567 162.562 133.039 162.553 133.544C161.741 132.318 161.375 131.096 160.344 129.963C159.449 128.979 158.089 128.923 156.814 128.87C155.679 126.922 154.646 125.427 152.928 123.949Z" fill="#83F9FB"/>
<path d="M134.738 126.022C136.773 123.214 139.973 120.982 143.383 120.24C147.675 119.307 151.742 119.869 155.475 122.238C154.838 122.676 154.218 123.16 153.53 123.514C153.259 123.655 153.126 123.728 152.929 123.949C150.113 122.255 147.007 121.128 143.681 121.9C140.786 122.573 138.551 124.215 136.678 126.469C136.016 126.403 135.378 126.199 134.738 126.022Z" fill="#37E6F4"/>
<path d="M64.114 122.19L66.953 125.499C66.1151 126.749 65.4629 128.128 65.0647 129.582C64.041 133.321 64.3532 137.377 66.3168 140.762C67.9312 143.545 70.8544 145.835 73.9863 146.62C76.6982 147.299 79.5765 146.685 81.9302 145.223C84.8367 143.42 86.8348 140.101 87.5979 136.812C88.5463 132.725 87.9245 129.01 85.6924 125.467L86.477 124.928C88.184 127.249 89.6189 129.397 90.5411 132.162C91.4291 136.637 90.5018 141.302 87.9731 145.109C85.8292 148.337 82.2924 150.335 78.5313 151.057C74.1283 151.903 69.5566 151.074 65.8307 148.534C65.2964 148.17 64.7503 147.767 64.3124 147.288C63.8771 146.813 63.6313 146.223 63.1044 145.837C60.7989 141.9 59.1942 138.262 59.2461 133.624C59.2999 128.83 60.7244 125.526 64.114 122.19Z" fill="#FEFEFE"/>
<path d="M66.9537 125.497C68.9103 123.383 70.7794 121.695 73.598 120.849L73.8791 120.767C75.1015 120.401 76.3221 120.345 77.5917 120.475C80.9817 120.821 83.6027 122.951 85.6931 125.465C87.9252 129.008 88.547 132.723 87.5985 136.811C86.8355 140.099 84.8374 143.418 81.9309 145.222C79.5772 146.683 76.6988 147.297 73.987 146.618C70.855 145.833 67.9318 143.543 66.3175 140.76C64.3539 137.375 64.0417 133.32 65.0654 129.58C65.4636 128.126 66.1158 126.747 66.9537 125.497Z" fill="#1A355D"/>
<path d="M67.5393 131.613C67.2431 130.847 66.9694 130.107 67.087 129.268C67.242 128.163 68.0714 127.103 68.9386 126.45C69.7603 125.831 70.7684 125.682 71.7647 125.816C72.8655 125.963 73.4984 126.617 74.1447 127.465C74.6964 128.842 75.0991 130.003 74.4309 131.45C73.8748 132.655 72.8715 133.302 71.6564 133.729L70.7239 133.667C69.2927 133.509 68.4144 132.681 67.5393 131.613Z" fill="#FEFEFE"/>
<path d="M67.5408 131.614C68.4158 132.682 69.2942 133.51 70.7254 133.668L71.6579 133.731L70.4684 133.766C70.0854 135.322 70.5489 137.234 71.3954 138.56C72.2493 139.897 73.7313 141.17 75.3059 141.529C76.8662 141.885 78.6945 141.535 80.0174 140.659C81.5483 139.645 82.4564 137.896 82.8353 136.14C83.3407 136.662 83.8631 137.066 84.4608 137.478L84.4152 137.731C83.9706 139.944 82.2035 142.045 80.3326 143.209C78.7264 144.209 76.1176 144.75 74.2589 144.266C71.8262 143.632 69.8507 141.754 68.6086 139.625C67.662 138.001 66.7529 135.807 67.2327 133.93C67.4314 133.153 67.4866 132.411 67.5408 131.614Z" fill="#1299D3"/>
<path d="M74.1457 127.466C74.697 127.024 75.5083 127.07 76.215 127.165C76.5794 127.213 76.8924 127.337 77.2346 127.459L77.4726 127.539C79.4444 128.215 81.097 129.516 82.0299 131.4C82.7814 132.918 82.9509 134.466 82.8348 136.139C82.4559 137.896 81.5478 139.644 80.0169 140.658C78.694 141.534 76.8657 141.884 75.3055 141.528C73.7308 141.169 72.2488 139.896 71.3949 138.559C70.5484 137.233 70.0849 135.321 70.4679 133.766L71.6574 133.73C72.8724 133.302 73.8758 132.655 74.4319 131.451C75.1001 130.004 74.6974 128.842 74.1457 127.466Z" fill="#050613"/>
<path d="M136.678 126.47C138.55 124.216 140.785 122.575 143.68 121.902C147.006 121.129 150.112 122.256 152.928 123.95C154.646 125.428 155.679 126.922 156.814 128.871C158.089 128.924 159.449 128.98 160.344 129.964C161.375 131.097 161.742 132.319 162.554 133.545C163.179 137.931 162.184 141.747 159.979 145.52C158.342 148.211 154.157 150.374 151.164 151.084L150.836 151.16C148.611 151.684 145.944 151.739 143.692 151.37C139.572 150.695 135.517 148.107 133.163 144.657C130.863 141.29 129.764 137.39 130.542 133.35C131.331 132.22 131.82 130.844 132.451 129.621C133.101 128.359 133.932 127.188 134.738 126.023C135.378 126.2 136.015 126.404 136.678 126.47Z" fill="#1A355D"/>
<path d="M138.552 132.219L138.446 131.959C138.053 130.934 138.02 129.545 138.515 128.557C139.148 127.294 140.159 126.806 141.442 126.376C142.303 126.515 143.17 126.741 143.89 127.254C145.207 128.193 145.588 129.432 145.874 130.931C145.564 132.216 145.194 133.505 143.984 134.235C143.287 134.657 142.404 134.746 141.627 134.533L140.421 134.112C139.62 133.553 139.121 133.02 138.552 132.219Z" fill="#FEFEFE"/>
<path d="M153.038 136.595C156.038 136.522 153.038 136.595 156.038 136.522C155.669 139.206 153.861 142.157 151.697 143.794C149.76 145.261 147.548 145.75 145.168 145.381C142.946 145.036 141.172 144.001 139.839 142.177C139.078 141.136 138.447 139.572 138.358 138.282L138.34 138.266C137.906 136.355 138 134.093 138.551 132.219C139.121 133.019 139.619 133.552 140.421 134.112C140.176 134.875 140.331 135.726 140.389 136.514C140.721 138.595 141.465 140.595 143.233 141.879C144.484 142.788 146.109 143.155 147.632 142.89C149.346 142.592 151 141.398 151.914 139.929C152.541 138.922 152.925 137.771 153.038 136.595Z" fill="url(#paint3_linear_170_16302)"/>
<path d="M145.873 130.931C147.903 130.956 150.295 130.582 151.828 132.161C152.977 133.343 153.056 135.03 153.037 136.594C152.924 137.771 152.54 138.922 151.914 139.929C151 141.398 149.345 142.592 147.631 142.89C146.108 143.154 144.484 142.788 143.232 141.879C141.464 140.595 140.72 138.595 140.389 136.514C140.33 135.725 140.175 134.875 140.42 134.112L141.626 134.532C142.403 134.745 143.286 134.656 143.983 134.235C145.193 133.504 145.563 132.215 145.873 130.931Z" fill="#050613"/>
<path d="M134.738 126.022C135.378 126.2 136.015 126.404 136.678 126.47C134.656 129.83 133.971 133.958 134.933 137.78C135.772 141.112 137.714 144.293 140.733 146.064C143.363 147.608 146.471 147.941 149.404 147.151C152.373 146.351 154.902 144.25 156.379 141.578C158.111 138.445 158.736 134.734 157.708 131.27L156.814 128.871C158.089 128.923 159.449 128.98 160.344 129.964C161.375 131.097 161.742 132.318 162.554 133.545C163.179 137.931 162.184 141.747 159.979 145.52C158.342 148.21 154.157 150.373 151.164 151.084L150.836 151.16C148.611 151.684 145.944 151.738 143.692 151.369C139.572 150.695 135.517 148.106 133.163 144.657C130.863 141.289 129.764 137.39 130.542 133.349C131.331 132.219 131.82 130.843 132.451 129.62C133.101 128.359 133.932 127.187 134.738 126.022Z" fill="#FEFEFE"/>
<path d="M124.781 183.39L125.428 183.279C125.832 183.464 125.818 183.443 125.987 183.853C125.9 184.012 125.865 184.103 125.706 184.227C124.671 185.038 122.915 185.568 121.671 185.983C115.079 188.184 108.228 189.095 101.303 189.036C100.993 188.99 100.722 188.907 100.424 188.816C102.594 188.242 105.224 188.244 107.474 187.895C113.302 186.993 119.302 185.583 124.781 183.39Z" fill="#AD5E46"/>
</g>
<defs>
<filter id="filter0_d_170_16302" x="0" y="0" width="234" height="486.644" filterUnits="userSpaceOnUse" color-interpolation-filters="sRGB">
<feFlood flood-opacity="0" result="BackgroundImageFix"/>
<feColorMatrix in="SourceAlpha" type="matrix" values="0 0 0 0 0 0 0 0 0 0 0 0 0 0 0 0 0 0 127 0" result="hardAlpha"/>
<feOffset dx="5" dy="5"/>
<feComposite in2="hardAlpha" operator="out"/>
<feColorMatrix type="matrix" values="0 0 0 0 0 0 0 0 0 0 0 0 0 0 0 0 0 0 0.25 0"/>
<feBlend mode="normal" in2="BackgroundImageFix" result="effect1_dropShadow_170_16302"/>
<feBlend mode="normal" in="SourceGraphic" in2="effect1_dropShadow_170_16302" result="shape"/>
</filter>
<linearGradient id="paint0_linear_170_16302" x1="57.4302" y1="156.364" x2="22.8385" y2="132.847" gradientUnits="userSpaceOnUse">
<stop stop-color="#B37853"/>
<stop offset="1" stop-color="#D69D72"/>
</linearGradient>
<linearGradient id="paint1_linear_170_16302" x1="168.314" y1="162.305" x2="194.876" y2="129.163" gradientUnits="userSpaceOnUse">
<stop stop-color="#BC825D"/>
<stop offset="1" stop-color="#EAB17F"/>
</linearGradient>
<linearGradient id="paint2_linear_170_16302" x1="38.4951" y1="254.933" x2="126.549" y2="317.342" gradientUnits="userSpaceOnUse">
<stop stop-color="#0D5278"/>
<stop offset="1" stop-color="#0B6BA4"/>
</linearGradient>
<linearGradient id="paint3_linear_170_16302" x1="139.638" y1="130.922" x2="153.815" y2="141.334" gradientUnits="userSpaceOnUse">
<stop stop-color="#0F75B0"/>
<stop offset="1" stop-color="#0CC3E8"/>
</linearGradient>
</defs>
</svg>
