<svg width="210" height="211" viewBox="0 0 210 211" fill="none" xmlns="http://www.w3.org/2000/svg">
<path d="M87.6349 0.600073L88.2667 0.582533C94.2703 0.42917 100.355 0.541083 106.301 1.46008C151.017 8.37105 183.599 46.4338 184.652 91.2149C184.881 91.6485 185.005 91.7458 185.39 92.0211C187.014 93.1839 188.476 95.242 189.747 96.79C197.404 106.118 200.079 114.012 202.256 125.386L202.309 125.659C202.677 127.935 202.605 130.365 202.605 132.666C202.604 146.107 197.789 158.232 189.828 169.032C190.583 169.915 191.227 170.915 191.929 171.843L201.658 183.693C204.191 186.713 207.262 189.846 208.54 193.647C212.206 204.548 198.973 215.337 189.118 208.685C183.494 204.89 174.291 191.28 168.892 185.645C167.376 185.875 165.734 186.787 164.266 187.31C162.137 188.07 159.961 188.673 157.768 189.21C144.519 192.302 130.929 190.833 118.783 184.67L111.042 180.023C109.936 179.325 109.636 179.467 108.306 179.538L101.088 180.085C96.3388 180.319 91.3278 180.392 86.5873 180.038C49.515 177.275 16.3886 151.902 4.77048 116.415C-2.27556 94.8938 0.367119 70.8078 10.8226 50.8488C23.8866 25.9094 46.3378 8.79907 73.6093 2.6129C78.1993 1.57173 82.9297 0.791612 87.6349 0.600073Z" fill="#0F0A14"/>
<path d="M100.446 170L100.79 169.988C101.152 170.37 101.73 170.965 101.764 171.494L101.219 171.579C99.644 171.608 99.5406 171.165 100.446 170Z" fill="#433360"/>
<path d="M184.621 175.16C186.222 176.812 187.608 178.87 189.078 180.661L196.306 189.428C197.955 191.438 200.177 193.66 201.23 196.048C203.151 200.404 197.214 203.782 193.513 202.193C191.618 201.027 190.217 199.06 188.823 197.359L175.674 181.517C178.861 179.598 181.766 177.549 184.621 175.16Z" fill="#F2C38F"/>
<path d="M68.2148 139.805L86.1345 139.872C86.4325 140.265 86.3889 142.084 86.4774 142.707C87.5281 150.127 90.2973 156.778 94.588 162.845L92.7699 166.488L92.0705 168.149C91.5443 167.906 91.0753 167.427 90.6381 167.05L87.8584 164.564C79.6523 156.977 73.9218 149.409 68.2148 139.805Z" fill="#5E93B7"/>
<path d="M89.1174 10.7461L89.2907 49.4829L62.6322 49.4843L62.1557 49.3691C62.017 48.9096 62.678 47.4707 62.8542 46.9668L66.8962 36.9089C70.8025 28.3586 79.6609 14.2889 89.1174 10.7461Z" fill="#5E93B7"/>
<path d="M97.0566 10.0651C99.4083 9.42683 104.634 14.4876 106.093 15.937C115.457 25.2391 119.911 37.2394 123.883 49.5367L97.1173 49.4521L97.0566 10.0651Z" fill="#5E93B7"/>
<path d="M64.8855 149.31C65.5247 149.978 66.0387 150.912 66.5675 151.676L69.5427 155.816C74.0576 161.906 78.8605 167.191 84.9335 171.71C67.1596 171.941 45.2717 159.352 33.1213 147.39C31.0428 145.344 28.6583 143.096 26.9977 140.688L26.3516 139.869C28.1282 139.665 30.0685 139.815 31.8608 139.815L42.238 139.853L59.4705 139.932C60.0377 140.747 60.6773 142.602 61.4404 143.861L64.8855 149.31Z" fill="#5E93B7"/>
<path d="M133.613 57.3316L169.03 57.3281C169.333 57.6322 169.431 58.1514 169.577 58.5555L170.346 60.5433C173.509 68.6909 175.841 76.596 176.646 85.3592C166.948 79.0877 156.273 76.0982 144.814 76.1051L136.469 76.3551L134.912 64.2676C134.593 61.9526 134.29 59.5721 133.613 57.3316Z" fill="#8EDCE8"/>
<path d="M114.973 57.2748L122.139 57.2417C127.189 57.2124 126.128 57.5789 126.964 63.3085L128.842 77.986C120.976 79.9193 114.274 83.9857 107.495 88.2476C103.005 91.0517 102.418 90.8754 97.1104 90.9134C96.9193 90.6294 97.0397 60.459 97.0157 57.2809L114.973 57.2748Z" fill="#5E93B7"/>
<path d="M111.148 10.1758C133.909 15.9516 152.788 29.4196 165.091 49.5431L133.206 49.5339C131.469 49.5584 132.058 49.2809 131.555 47.6386C127.506 34.4272 121.632 19.7231 111.148 10.1758Z" fill="#8EDCE8"/>
<path d="M75.53 10.1853C77.8359 9.93874 75.6544 11.1238 74.564 12.1844L71.2913 15.6457C65.7977 21.9386 61.5585 29.3632 58.3499 37.0493L55.0025 45.9369C54.6247 47.0172 54.3843 48.5552 53.8223 49.5028L21.898 49.4836L20.4473 49.3462L27.4068 39.7142C37.6195 27.1734 50.197 18.1016 65.6105 12.8389C68.8314 11.7389 72.1281 10.5356 75.53 10.1853Z" fill="#5E93B7"/>
<path d="M64.256 98.3301L89.2914 98.3964L89.2953 106.373C89.3171 108.897 89.4384 110.76 88.7059 113.182L87.7333 116.725C87.0946 119.406 86.8049 122.056 86.3197 124.748C86.1351 125.774 86.1796 131.644 85.9637 131.991L81.4972 132.037L64.0094 132.086C63.6687 131.608 63.6255 131.145 63.4453 130.603L62.3153 127.571C59.5373 120.06 57.7105 112.695 56.7933 104.716L56.3086 98.3379L64.256 98.3301Z" fill="#5E93B7"/>
<path d="M61.6916 57.2402L89.224 57.2895L89.2755 90.5328C88.8484 90.6929 88.1079 90.5939 87.6406 90.5917L83.3251 90.5655L55.9297 90.5817L56.0798 83.5178C56.5519 74.7227 57.7495 65.7605 60.1545 57.2865L61.6916 57.2402Z" fill="#5E93B7"/>
<path d="M8.94141 98.2949L48.6953 98.3595L48.9414 103.413C49.8816 113.251 51.9384 122.951 55.592 132.156L20.9421 132.023C19.7719 131.28 16.0039 123.388 15.2526 121.737C11.89 114.35 9.66393 106.388 8.94141 98.2949Z" fill="#5E93B7"/>
<path d="M21.113 90.5645L8.36313 90.3555C8.3291 89.9157 8.41811 89.3982 8.44036 88.9545L8.69778 85.1769C9.59353 76.5376 11.4827 67.5431 15.1639 59.6393C15.5356 58.8409 15.7328 57.9377 16.2904 57.2505L25.9451 57.2754L49.9295 57.2649C50.6145 57.2645 51.5189 57.158 52.1677 57.3216C51.4181 60.0403 50.9456 62.9121 50.4718 65.6948L48.5084 81.9696C48.4303 83.0704 48.4883 90.1762 48.254 90.5754L21.113 90.5645Z" fill="#5E93B7"/>
<path d="M142.428 83.9942L142.53 83.9816C167.176 82.526 186.604 97.2777 193.233 120.414C197.702 136.014 193.488 153.197 182.689 165.296C172.702 176.486 161.359 182.14 146.43 182.983L146.078 182.988C142.839 183.027 139.604 182.923 136.405 182.388C118.478 179.389 101.15 165.16 95.6687 147.621C91.5098 134.312 92.9885 119.556 100.573 107.815C109.912 93.3583 124.855 84.1434 142.428 83.9942Z" fill="#BD4A46"/>
<path d="M142.161 93.0903C177.507 90.8045 197.248 132.434 174.845 158.958C167.609 167.525 157.52 171.982 146.453 172.882C133.014 173.24 120.826 167.674 112.516 157.121C102.851 144.848 101.578 126.725 109.171 113.086C115.904 100.991 128.561 93.9751 142.161 93.0903Z" fill="#0F0A14"/>
<path d="M142.429 101.001L142.596 100.982C162.664 99.5497 179.35 117.72 176.425 137.412C174.215 152.293 161.548 164.096 146.487 165.078C128.801 166.002 113.259 151.968 112.1 134.305C110.904 116.093 124.66 102.145 142.429 101.001Z" fill="white"/>
</svg>
