<svg width="209" height="150" viewBox="0 0 209 150" fill="none" xmlns="http://www.w3.org/2000/svg">
<path d="M11.3476 0.839695L191.152 0.764879C193.495 0.76576 195.91 0.649131 198.244 0.818569C203.028 1.16669 207.405 5.26225 208.31 9.89914L208.353 10.1328C208.608 11.4597 208.457 12.9803 208.455 14.3318L208.448 137.04C208.447 138.208 208.493 139.42 208.26 140.571L208.213 140.787C207.237 145.517 203.268 149.131 198.409 149.632L196.696 149.745L17.1992 149.817C13.9926 149.815 10.5013 150.184 7.44788 149.005L7.21295 148.912C3.8674 147.606 0.446994 143.616 0.259072 139.872L0.208636 13.9151C0.2089 12.5921 0.037086 10.9651 0.397792 9.69142L0.451572 9.51406C1.8187 4.34421 6.19016 1.46508 11.3476 0.839695Z" fill="#0F0A14"/>
<path d="M8.92996 126.929L8.91016 29.8535L32.3169 46.9628L98.7965 97.8247C99.958 98.6679 101.001 99.1305 102.413 99.3959L103.474 99.5732C103.691 100.275 103.57 101.324 103.573 102.071L103.575 131.748L103.58 140.963L14.4919 141.004C8.54487 141.017 8.92644 140.533 8.92204 135.448L8.92996 126.929Z" fill="#8EDCE8"/>
<path d="M102.449 99.3938C107.339 99.4308 108.936 98.3495 112.533 95.2833L195.013 33.121C196.14 32.3231 199.099 30.6265 199.792 29.9219L199.795 138.094C199.722 139.869 199.378 140.849 197.389 140.978C193.828 141.208 190.122 141 186.549 140.995L103.573 140.977L103.568 131.746L103.572 102.069C103.57 101.322 103.691 100.273 103.474 99.5712L102.449 99.3938Z" fill="#5E93B7"/>
<path d="M97.0183 9.60034L186.732 9.59946C190.29 9.60078 194.044 9.35345 197.574 9.68352C199.853 9.89653 199.977 11.8528 199.859 13.7404L199.846 13.7963L199.883 17.6273C199.921 19.4031 199.469 19.1699 198.1 20.2239L146.091 58.5914L107.778 87.8091C106.714 88.6788 105.414 90.0017 104.173 90.5928C101.709 89.2958 99.6158 87.4584 97.4514 85.727L62.8644 59.0024L12.2745 21.3906C11.1342 20.5025 9.90983 19.6703 8.81926 18.7276L8.76953 18.1075L8.91784 12.979C8.93941 9.0018 10.8059 9.60254 14.3487 9.59946L97.0183 9.60034Z" fill="#BD4A46"/>
</svg>
