<svg width="126" height="126" viewBox="0 0 126 126" fill="none" xmlns="http://www.w3.org/2000/svg">
<g filter="url(#filter0_d_394_1715)">
<path d="M71.0324 119.457C63.9683 120.653 56.6557 120.608 49.6093 119.296C33.9057 116.371 20.0149 107.072 10.9995 93.9199C5.7377 86.2438 2.35993 77.1889 1.22754 67.953C0.814835 64.587 0.751037 61.1324 0.916983 57.7484C1.05248 54.9856 1.30085 52.2367 1.80883 49.5151C2.39705 46.3636 3.15628 43.2901 4.22284 40.2635C7.24436 31.6893 12.4515 23.5699 18.9982 17.266C21.7005 14.6639 24.6535 12.3669 27.7472 10.2521C29.9778 8.72726 32.4579 7.40108 34.8917 6.23074C44.7437 1.49322 55.8601 -0.484632 66.7472 0.614789C68.5846 0.800337 70.4072 1.11053 72.2213 1.45061C74.4971 1.87721 76.7491 2.50633 78.9523 3.21496C91.859 7.36631 102.857 15.7501 110.489 26.9371C114.834 33.3059 117.965 40.7485 119.481 48.303C120.05 51.1374 120.357 53.9753 120.536 56.8569C120.735 60.0555 120.752 63.2269 120.457 66.4218C120.265 68.5032 119.916 70.5814 119.529 72.6345C119.015 74.8797 118.485 77.109 117.759 79.2975C113.41 92.414 104.624 103.596 92.916 110.946C86.1334 115.203 78.8833 117.922 71.0324 119.457Z" fill="#BD4A46"/>
<path d="M56.0787 41.5194L56.0682 29.4712L56.0658 25.9382C56.0646 25.2627 56.0173 24.5469 56.1105 23.8789L56.1275 23.7655C56.2469 22.894 56.6408 22.179 57.2666 21.5608C58.2361 20.6032 59.2644 20.2619 60.6101 20.2748L60.8213 20.3783L60.7925 67.3453C59.5699 67.3034 58.4303 66.792 57.5476 65.9464C56.8131 65.2428 56.3511 64.3661 56.171 63.3667C56.0232 62.547 56.0874 61.6577 56.091 60.8263L56.1017 56.9458L56.0787 41.5194Z" fill="#FDFDFC"/>
<path d="M60.6094 20.2744C61.8882 20.3784 63.0317 20.3021 64.0875 21.171C64.3904 21.4202 64.6193 21.7215 64.8986 21.9918C65.253 22.5751 65.5653 23.1987 65.6283 23.8911C65.7571 25.3063 65.6483 26.8351 65.648 28.2621L65.6549 36.9408L65.6511 55.3539L65.6562 60.0519C65.6583 61.2441 65.78 62.57 65.4861 63.7302C65.1866 64.9118 64.3594 65.9918 63.3069 66.6023C62.5014 67.0696 61.7173 67.261 60.7918 67.345L60.8205 20.378L60.6094 20.2744Z" fill="#D8D7D6"/>
<path d="M59.9395 88.3101C61.0788 88.3077 62.2024 88.2901 63.3357 88.1562C68.5803 87.5367 73.5239 85.3852 77.4994 81.8986C82.5102 77.504 85.8247 71.1253 86.2197 64.4344C86.3566 62.1159 86.2548 59.7778 85.7992 57.4959C84.7306 52.143 81.7651 46.9325 77.6264 43.3587C76.8422 42.6815 76.0121 42.0598 75.1453 41.4924C74.3948 41.001 73.361 40.5837 72.7772 39.9076C72.1309 39.1592 71.9131 38.1906 72.0131 37.2226C72.1183 36.2045 72.7694 35.1828 73.566 34.561C74.5762 33.7725 75.6497 33.6853 76.8657 33.8422C79.1291 34.5891 81.1636 36.0023 82.9401 37.5704L84.755 39.3047C89.6215 44.5676 92.8914 51.0732 93.8222 58.2203C94.1025 60.3723 94.1348 62.5578 94.0495 64.7239C93.9667 66.8272 93.5857 68.9446 93.0454 70.9757C91.3699 77.2743 87.9094 82.91 83.1198 87.3169C78.8617 91.2347 73.2258 94.0613 67.5481 95.1528C65.3045 95.5842 63.0666 95.7374 60.7869 95.7515L60.775 88.3778C60.5136 88.375 60.2652 88.3639 60.0069 88.3216L59.9395 88.3101Z" fill="#D8D7D6"/>
<path d="M40.2694 88.885C39.661 88.2944 38.8811 87.8182 38.2346 87.2556C36.6766 85.8999 35.2213 84.2844 33.9847 82.6332C28.4577 75.254 26.546 66.2369 27.866 57.1762C29.0388 49.1268 33.6184 41.3158 40.1593 36.4607L42.3679 34.9709C43.4512 34.2947 44.6275 33.5619 45.9648 33.7908C47.2437 34.0098 48.1111 34.6396 48.8579 35.6641C49.409 36.7261 49.6726 37.6433 49.3065 38.8324C48.7899 40.5112 47.5246 40.9026 46.2086 41.8002C45.1879 42.4965 44.2198 43.2136 43.3245 44.0668C36.7614 50.3204 33.9392 59.4697 35.9128 68.3506C36.4068 70.5733 37.2293 72.6727 38.2699 74.6929C41.318 80.6109 46.8617 85.1583 53.1854 87.1659C55.3424 87.8507 57.6739 88.2974 59.9422 88.3105L60.0096 88.322C60.268 88.3643 60.5163 88.3754 60.7777 88.3782L60.7897 95.7519C54.6758 95.6812 48.4917 94.1436 43.2365 90.9708C42.1998 90.3449 41.261 89.576 40.2694 88.885Z" fill="#FDFDFC"/>
</g>
<defs>
<filter id="filter0_d_394_1715" x="0.832031" y="0.318359" width="124.85" height="125" filterUnits="userSpaceOnUse" color-interpolation-filters="sRGB">
<feFlood flood-opacity="0" result="BackgroundImageFix"/>
<feColorMatrix in="SourceAlpha" type="matrix" values="0 0 0 0 0 0 0 0 0 0 0 0 0 0 0 0 0 0 127 0" result="hardAlpha"/>
<feOffset dx="5" dy="5"/>
<feComposite in2="hardAlpha" operator="out"/>
<feColorMatrix type="matrix" values="0 0 0 0 0 0 0 0 0 0 0 0 0 0 0 0 0 0 0.25 0"/>
<feBlend mode="normal" in2="BackgroundImageFix" result="effect1_dropShadow_394_1715"/>
<feBlend mode="normal" in="SourceGraphic" in2="effect1_dropShadow_394_1715" result="shape"/>
</filter>
</defs>
</svg>
