<svg width="45" height="60" viewBox="0 0 45 60" fill="none" xmlns="http://www.w3.org/2000/svg">
<path d="M32.1514 5.58567V5.58576L32.1493 8.88486V8.88551C32.1493 8.90774 32.148 9.00315 32.1461 9.15644C32.1376 9.82688 32.115 11.6047 32.1182 13.2119C32.1202 14.2379 32.1321 15.2722 32.1638 16.0759C32.1796 16.4753 32.2009 16.835 32.2306 17.1142C32.2452 17.2513 32.2642 17.3921 32.2911 17.5177C32.3044 17.5796 32.3242 17.6598 32.3548 17.7437C32.3764 17.8031 32.4417 17.9772 32.5939 18.1392C32.9555 18.5238 33.4633 18.6706 33.8093 18.7416C34.1968 18.8211 34.6243 18.8502 35.0162 18.8593C35.4141 18.8685 35.8132 18.8575 36.1517 18.8452C36.2492 18.8417 36.3391 18.8382 36.422 18.8349C36.6432 18.8262 36.8141 18.8195 36.9433 18.8196H36.9446L43.0262 18.8159L43.0256 17.8159L43.0427 18.8158C43.3867 18.8099 43.6145 18.9204 43.7515 19.0525C43.8865 19.1827 43.9996 19.3971 43.9995 19.7298L43.9909 55.001C43.9904 57.2097 42.1997 59 39.9909 59H5.00005C2.79476 59 1.00003 57.1981 1.00006 54.9851C1.00039 29.1347 1.00111 19.2423 1.00148 14.1335C1.00178 9.94795 1.00185 8.97322 1.00129 5.06418C1.00097 2.86286 2.79973 1.0679 5.00991 1.06283C18.6824 1.03143 23.2103 1.02301 25.7694 1.01825C26.5642 1.01677 27.1691 1.01565 27.7991 1.0143C30.147 1.00926 32.1455 3.02749 32.1512 5.40209L32.1514 5.58567Z" fill="#F2C38F" stroke="#433360" stroke-width="2"/>
<path d="M5.97439 10.3279L27.2517 10.3114C27.5681 10.3111 28.0734 10.2583 28.3652 10.3559L28.4162 10.3747C29.2274 10.6696 29.0918 11.5895 28.2865 11.8496L5.93375 11.8361C5.07354 11.7774 4.77744 10.6521 5.97439 10.3279Z" fill="#433360"/>
<path d="M21.4317 22.8549L36.8494 22.8555C37.5891 22.8552 38.3664 22.8112 39.1022 22.8634C40.171 22.939 40.4016 24.2404 39.3486 24.3555C38.7785 24.4177 38.1664 24.3818 37.5919 24.3823L23.7131 24.3853L8.21826 24.388C7.581 24.3879 5.48519 24.6448 5.28095 23.8605L5.24123 23.6889C5.05156 22.6365 7.42291 22.8584 8.06983 22.8574L21.4317 22.8549Z" fill="#433360"/>
<path d="M10.9478 29.1928L35.951 29.1964C36.9529 29.1972 38.0089 29.14 39.0061 29.2126C40.0774 29.2906 40.3395 30.6295 39.3161 30.7404C38.7821 30.7983 38.1785 30.7492 37.6382 30.7477L34.1932 30.7429L6.08827 30.7426C5.18313 30.7045 4.99836 29.8722 5.6853 29.4463L5.75231 29.4055C6.24008 29.1036 7.78509 29.1983 8.40825 29.1968L10.9478 29.1928Z" fill="#433360"/>
<path d="M7.04825 16.6895L38.6632 16.6999C39.4846 16.7363 40.5943 17.2214 39.7485 17.9376C39.3242 18.2968 38.6802 18.2239 38.1415 18.2286L6.46005 18.2222C6.18972 18.2191 5.82217 18.2403 5.56641 18.1651C4.75648 17.9272 5.12158 16.9711 5.83306 16.8031L5.8947 16.7898C6.26945 16.7043 6.66322 16.7046 7.04825 16.6895Z" fill="#433360"/>
<path d="M5.97439 35.5486L27.2517 35.5321C27.5681 35.5318 28.0734 35.479 28.3652 35.5766L28.4162 35.5954C29.2274 35.8903 29.0918 36.8102 28.2865 37.0703L5.93375 37.0568C5.07354 36.9981 4.77744 35.8728 5.97439 35.5486Z" fill="#433360"/>
<path d="M21.4317 48.0756L36.8494 48.0762C37.5891 48.0759 38.3664 48.0319 39.1022 48.0841C40.171 48.1598 40.4016 49.4611 39.3486 49.5762C38.7785 49.6384 38.1664 49.6026 37.5919 49.603L23.7131 49.606L8.21826 49.6087C7.581 49.6086 5.48519 49.8655 5.28095 49.0812L5.24123 48.9096C5.05156 47.8572 7.42291 48.0791 8.06983 48.0781L21.4317 48.0756Z" fill="#433360"/>
<path d="M7.04825 41.9102L38.6632 41.9206C39.4846 41.957 40.5943 42.4421 39.7485 43.1583C39.3242 43.5175 38.6802 43.4446 38.1415 43.4493L6.46005 43.4429C6.18972 43.4398 5.82217 43.461 5.56641 43.3858C4.75648 43.1479 5.12158 42.1918 5.83306 42.0238L5.8947 42.0105C6.26945 41.925 6.66322 41.9253 7.04825 41.9102Z" fill="#433360"/>
<path d="M32.6619 4.76562C42.4466 17.5059 32.6619 4.76562 42.4466 17.5059C42.208 17.5059 41.5839 18.7422 41.342 18.7443L35.4642 18.7607C34.921 18.7618 34.209 18.8924 33.6911 18.669L33.6202 18.6373C31.9634 17.9377 31.5713 15.9707 31.5703 13.726L32.6619 4.76562Z" fill="#D2A574" stroke="#433360" stroke-width="2"/>
</svg>
