<svg width="209" height="201" viewBox="0 0 209 201" fill="none" xmlns="http://www.w3.org/2000/svg">
<path d="M14.6652 0.764153L14.6767 0.763594L75.8597 0.736205L93.1289 0.76052C95.9322 0.770021 99.1583 0.488324 101.9 0.984925C104.968 1.54105 107.891 3.05768 109.993 5.38419C112.046 7.6562 113.469 10.7646 115.012 13.4019L124.581 29.9127C124.812 30.3087 125.713 32.1595 125.993 32.3241C126.212 32.453 176.406 32.3694 182.686 32.3784L191.91 32.3932C193.293 32.3957 194.834 32.2649 196.201 32.437C196.966 32.5332 197.714 33.0287 198.257 33.5507C198.753 34.028 199.208 34.7577 199.342 35.4373C199.485 36.1656 199.403 37.0233 199.406 37.7683L199.413 42.475L199.381 59.7059C200.914 59.9138 202.469 60.7329 203.707 61.6451C206.417 63.6416 208.293 66.6419 208.735 69.9954C208.955 71.6699 208.794 73.5769 208.794 75.2774L208.786 85.9492L208.766 121.408L208.768 165.543L208.778 179.575C208.778 181.932 208.954 184.441 208.722 186.775C208.435 189.667 207.368 192.488 205.57 194.778C203.085 197.943 199.408 200.031 195.427 200.53L180.496 200.548L151.946 200.524L65.4587 200.535L29.291 200.564L18.6749 200.556C16.6491 200.537 14.464 200.705 12.4854 200.237C10.21 199.698 7.97492 198.718 6.1738 197.206C3.11148 194.633 1.06695 190.788 0.791125 186.785C0.568116 183.547 0.751998 180.205 0.737746 176.952L0.696945 156.248L0.708681 95.6847L0.600531 39.366L0.606122 22.2164C0.604166 19.4564 0.381435 16.5232 0.649996 13.7912C0.942032 10.8177 2.40445 7.82387 4.35927 5.59211C7.04292 2.52811 10.6594 1.01902 14.6652 0.764153Z" fill="#0F0A14"/>
<path d="M8.33398 104.141C8.62378 103.176 9.0726 102.237 9.66394 101.421C10.7049 99.9846 12.3445 98.9545 14.0738 98.5845C15.6301 98.2516 17.4097 98.3922 19.001 98.3917L26.5397 98.3925L63.7758 98.4028L73.3462 98.3894C74.7128 98.3861 76.3795 98.561 77.715 98.3081L77.8799 98.2734C78.7825 98.0901 79.3627 97.7441 79.9817 97.0533C80.6706 96.2845 81.2183 95.3167 81.7842 94.4546L84.7909 89.8787L93.7624 76.4616L98.3657 69.5838C99.3653 68.1778 100.454 66.8574 102.298 66.6366C103.644 66.4753 105.125 66.6022 106.491 66.6005L114.404 66.5709L143.337 66.5687L178.818 66.6078L190.436 66.6268C192.426 66.6321 194.48 66.5405 196.463 66.6777C197.567 66.7542 198.689 67.21 199.515 67.9495C201.155 69.4169 201.328 71.0663 201.387 73.1145C200.593 72.332 200.157 71.8488 199.043 71.5406C198.057 71.3089 196.954 71.4073 195.942 71.4106L190.21 71.4718L174.671 71.5498L102.117 71.6904C100.081 74.2223 98.5208 77.2055 96.7487 79.9305L85.8347 96.4245C84.4676 98.4752 83.2737 100.987 81.6068 102.8C80.9338 103.533 79.653 104.258 78.6484 104.348C77.0124 104.495 75.3119 104.42 73.6679 104.429L64.6916 104.431L38.6845 104.383L18.1285 104.389L12.0203 104.374C10.8634 104.369 9.62593 104.448 8.48014 104.293L8.33398 104.141Z" fill="#8EDCE8"/>
<path d="M199.041 71.5391C200.154 71.8473 200.591 72.3305 201.385 73.113L201.5 150.694L201.525 174.89L201.528 182.197C201.527 183.586 201.609 185.058 201.461 186.438C201.269 188.239 200.395 189.875 199.116 191.139C198.281 191.965 197.206 192.628 196.089 192.988L195.897 193.052C194.31 193.539 191.987 193.24 190.303 193.236L180.038 193.207L143.723 193.172L45.3483 193.153L25.0556 193.141L18.5204 193.134C17.0608 193.132 15.4276 193.288 14.0211 192.859L13.7992 192.794C11.834 192.197 9.95717 190.672 9.04333 188.814C8.4981 187.705 8.29857 186.514 8.28711 185.284L170.151 185.545L178.635 185.567C180.832 185.568 183.292 185.802 185.405 185.162C187.153 184.632 188.688 183.54 189.968 182.263C191.797 180.437 192.973 177.964 193.329 175.405C193.504 174.154 193.431 172.822 193.434 171.561L193.461 165.381L193.547 144.763L193.304 71.5455L199.041 71.5391Z" fill="#258192"/>
<path d="M11.3874 91.6305C10.0862 92.0463 9.01619 92.584 7.87767 93.34L7.86146 35.2117L7.8447 20.6731L7.85196 16.5603C7.85671 15.8351 7.78936 15.0126 7.94866 14.3031C8.44554 12.0895 9.58043 10.3903 11.5037 9.17133C12.638 8.45256 13.708 8.18148 15.0388 8.13006L23.0096 8.10742L39.2566 8.18372L76.0056 8.24157L94.0316 8.22843L97.6998 8.18595C98.7441 8.15158 99.8391 8.02973 100.864 8.27203C103.23 8.83122 104.883 10.5608 106.072 12.5802L117.711 32.3975L93.8449 32.3389L58.0908 32.3193L36.7437 32.2821L29.9947 32.2642C28.8783 32.262 27.6783 32.1748 26.5696 32.2768C25.7145 32.3553 24.8219 32.8718 24.2121 33.4578C23.2656 34.3677 22.9766 35.1335 22.9635 36.4293L22.864 91.0604C19.1553 91.0473 14.955 90.6451 11.3874 91.6305Z" fill="#BD4A46"/>
<path d="M35.487 91.1071L30.1191 91.1091L30.2195 39.8047L191.597 39.8715C191.997 40.5713 191.757 56.802 191.753 58.8317L126.155 58.7937L110.278 58.7993L105.328 58.8055C103.935 58.8091 102.58 58.7599 101.214 59.0805C98.9689 59.6075 96.831 60.5222 95.104 62.0863C92.3781 64.5551 90.5993 68.0777 88.5537 71.1062L77.3015 87.8978C77.0494 88.2731 75.3556 91.0183 75.1567 91.1144C74.8562 91.2597 39.2497 91.1077 35.487 91.1071Z" fill="#F2C38F"/>
<path d="M8.33165 104.14L8.47781 104.293C9.62359 104.447 10.861 104.368 12.018 104.374L18.1262 104.389L38.6821 104.383L64.6893 104.43L73.6655 104.429C75.3096 104.42 77.0101 104.495 78.646 104.348C79.6507 104.257 80.9315 103.533 81.6044 102.8C83.2714 100.987 84.4652 98.4749 85.8324 96.4242L96.7464 79.9302C98.5185 77.2052 100.078 74.2219 102.114 71.69L174.668 71.5495L190.207 71.4715L195.94 71.4103C196.952 71.4069 198.055 71.3086 199.041 71.5402L193.304 71.5467L193.546 144.764L193.461 165.382L193.434 171.562C193.431 172.824 193.504 174.155 193.329 175.406C192.973 177.965 191.797 180.438 189.968 182.264C188.687 183.541 187.153 184.633 185.405 185.163C183.292 185.803 180.831 185.569 178.635 185.568L170.151 185.546L8.28694 185.286L8.20897 123.849L8.17851 111.036L8.16705 106.778C8.16649 105.893 8.10976 105.004 8.33165 104.14Z" fill="#5E93B7"/>
</svg>
