<svg width="45" height="60" viewBox="0 0 45 60" fill="none" xmlns="http://www.w3.org/2000/svg">
<path d="M32.1514 5.58567V5.58576L32.1493 8.88486V8.88551C32.1493 8.90774 32.148 9.00315 32.1461 9.15644C32.1376 9.82688 32.115 11.6047 32.1182 13.2119C32.1202 14.2379 32.1321 15.2722 32.1638 16.0759C32.1796 16.4753 32.2009 16.835 32.2306 17.1142C32.2452 17.2513 32.2642 17.3921 32.2911 17.5177C32.3044 17.5796 32.3242 17.6598 32.3548 17.7437C32.3764 17.8031 32.4417 17.9772 32.5939 18.1392C32.9555 18.5238 33.4633 18.6706 33.8093 18.7416C34.1968 18.8211 34.6243 18.8502 35.0162 18.8593C35.4141 18.8685 35.8132 18.8575 36.1517 18.8452C36.2492 18.8417 36.3391 18.8382 36.422 18.8349C36.6432 18.8262 36.8141 18.8195 36.9433 18.8196H36.9446L43.0262 18.8159L43.0256 17.8159L43.0427 18.8158C43.3867 18.8099 43.6145 18.9204 43.7515 19.0525C43.8865 19.1827 43.9996 19.3971 43.9995 19.7298L43.9909 55.001C43.9904 57.2097 42.1997 59 39.9909 59H5.00005C2.79476 59 1.00003 57.1981 1.00006 54.9851C1.00039 29.1347 1.00111 19.2423 1.00148 14.1335C1.00178 9.94795 1.00185 8.97322 1.00129 5.06418C1.00097 2.86286 2.79973 1.0679 5.00991 1.06283C18.6824 1.03143 23.2103 1.02301 25.7694 1.01825C26.5642 1.01677 27.1691 1.01565 27.7991 1.0143C30.147 1.00926 32.1455 3.02749 32.1512 5.40209L32.1514 5.58567Z" fill="#8EDCE8" stroke="#433360" stroke-width="2"/>
<path d="M32.6619 4.76562C42.4466 17.5059 32.6619 4.76562 42.4466 17.5059C42.208 17.5059 41.5839 18.7422 41.342 18.7443L35.4642 18.7607C34.921 18.7618 34.209 18.8924 33.6911 18.669L33.6202 18.6373C31.9634 17.9377 31.5713 15.9707 31.5703 13.726L32.6619 4.76562Z" fill="#4DBDCE" stroke="#433360" stroke-width="2"/>
<path d="M18.7207 16.0225C23.5835 15.5672 24.9208 22.1631 19.6429 22.9868C13.893 23.3378 13.7617 16.586 18.7207 16.0225Z" fill="#433360"/>
<path d="M18.8973 17.0067C20.0282 16.9193 21.3825 17.7022 21.7389 18.6876L21.851 19.0167C22.214 20.5169 20.8482 21.7292 19.3392 21.983C15.6698 22.3191 15.0491 17.5758 18.8973 17.0067Z" fill="#F7AC14"/>
<path d="M30.3252 22.321C30.6868 22.1958 31.3754 23.902 31.6207 24.38L42.0023 44.7645C42.2751 45.2763 43.1969 46.41 42.7484 47.1207C42.4287 47.2158 42.0668 47.1632 41.7397 47.1595L6.4701 47.1501L1.67577 46.9984C0.484621 46.8976 1.13419 45.597 1.61296 44.7312L11.765 28.333C12.2262 27.614 12.6831 26.7803 13.2396 26.2289L22.0094 37.2076L29.3121 24.0274C29.6099 23.4869 29.9426 22.7061 30.3252 22.321Z" fill="#433360"/>
<path d="M30.3472 24.1172L36.0022 35.0576L40.9524 44.9641C41.0571 45.1955 41.0861 45.5129 41.2324 45.6929L37.1175 45.8083L31.3049 45.7726L26.2773 31.7207L30.3472 24.1172Z" fill="#0FA7EB"/>
<path d="M13.2505 27.9375L23.0614 40.067C23.5725 40.7028 25.5311 43.8005 26.0778 42.9149L26.0809 42.6408C26.0038 41.6576 24.472 40.2031 23.9209 39.5767L22.7215 38.1472L25.5483 32.814L30.2912 45.8895L29.4238 45.9393L2.24219 45.7605C2.44502 45.2506 2.73924 44.8022 2.99665 44.3528L13.2505 27.9375Z" fill="#0FA7EB"/>
</svg>
