<svg width="1025" height="1025" viewBox="0 0 1025 1025" fill="none" xmlns="http://www.w3.org/2000/svg">
<g filter="url(#filter0_d_591_2)">
<path d="M499.561 0.136635L500.353 0.0117517C502.121 -0.100769 503.577 0.608973 505.052 1.53016C509.342 4.20964 513.264 7.60504 517.369 10.5788C523.984 15.4815 991.957 343.881 997.747 349.684C1000.41 352.347 999.959 355.012 999.988 358.5L999.83 586.234L999.872 986.276C999.862 989.861 1000.53 994.621 997.693 997.315C996.273 998.663 994.876 999.414 992.927 999.528C974.998 1000.57 956.422 999.568 938.441 999.533L826.155 999.256L500.878 999.471L151.177 999.417L47.4364 999.528L18.5093 999.512C14.3922 999.505 9.54861 1000.02 5.50478 999.385C3.55856 999.077 1.57082 997.457 0.661205 995.719C-0.132422 994.203 0.0153213 991.636 0.00433261 989.948L0.0763672 852.309L0.0739267 583.235L0.0543926 434.059L0.176487 357.982C0.232652 356.673 0.217993 353.966 0.697832 352.779C1.53664 350.709 467.666 22.5245 484.431 10.2252C489.177 6.7395 493.971 2.06432 499.561 0.136635Z" fill="#0F0A14"/>
<path d="M974 350.382H29.3301L500.5 17L974 350.382Z" fill="#1D3E6B"/>
<path d="M958.265 366L564 659.615L502.5 699L421 659.615L29 366H958.265Z" fill="#1D3E6B"/>
<path d="M980.692 351.93C988.611 346.056 999.841 351.709 999.841 361.568V580.619L999.884 985.114C999.874 988.739 1000.54 993.552 997.705 996.276C996.285 997.639 994.888 998.399 992.939 998.514C975.009 999.566 956.433 998.554 938.452 998.519L826.164 998.239L500.884 998.456L151.179 998.401L47.4369 998.514L18.5095 998.498C14.3924 998.49 9.54873 999.015 5.50484 998.369C3.5586 998.057 1.57084 996.42 0.661213 994.662C-0.132424 993.129 0.0153215 990.533 0.00433266 988.827L0.0763684 849.656L0.0739275 577.587L0.0543934 426.75L0.0707064 357.661C0.0730403 347.777 11.3561 342.134 19.2665 348.061L432.571 657.758L494.018 610.856C497.868 607.917 503.187 607.842 507.118 610.672L570.433 656.241L980.692 351.93Z" fill="#0F0A14"/>
<path d="M405.809 656.412L421.15 667.571L17.1584 970.186L17.0742 946.869L405.809 656.412Z" fill="#5E93B7"/>
<path d="M950.561 961.709C951.257 961.681 974.814 980.517 977.519 982.738L26.4941 982.191L54.3666 961.646C60.2853 962.865 66.9791 962.286 73.0223 962.285L105.601 962.236L224.279 962.076L719.667 962.08L881.764 962.461L924.89 962.491L947.639 962.53C948.706 962.48 949.605 962.172 950.561 961.709Z" fill="#8EDCE8"/>
<path d="M969.154 381.402L987.283 368.322L986.551 970.076L897.353 902.922L680.361 739.233L610.665 687.279L593.28 674.23C590.302 671.987 586.594 669.787 584.221 666.935L599.178 655.805L971.06 935.816C969.677 929.02 969.822 922.28 969.776 915.375L969.704 890.153L969.666 807.757L969.205 517.358L969.294 429.249C969.332 413.407 970.057 397.201 969.154 381.402Z" fill="#5E93B7"/>
<path d="M969.149 381.4C970.053 397.199 969.328 413.405 969.29 429.247L969.201 517.356L969.662 807.756L969.7 890.152L969.772 915.374C969.818 922.279 969.673 929.018 971.056 935.814L599.174 655.803L969.149 381.4Z" fill="#8EDCE8"/>
<path d="M17.0742 946.873L17.1292 366.469L405.809 656.416L17.0742 946.873Z" fill="#8EDCE8"/>
<path d="M54.3711 961.648L501.891 624.895L950.565 961.711C949.61 962.173 948.71 962.482 947.643 962.531L924.895 962.493L881.769 962.462L719.671 962.082L224.284 962.078L105.606 962.237L73.0268 962.287C66.9836 962.288 60.2898 962.866 54.3711 961.648Z" fill="#8EDCE8"/>
</g>
<defs>
<filter id="filter0_d_591_2" x="0" y="0" width="1025" height="1025" filterUnits="userSpaceOnUse" color-interpolation-filters="sRGB">
<feFlood flood-opacity="0" result="BackgroundImageFix"/>
<feColorMatrix in="SourceAlpha" type="matrix" values="0 0 0 0 0 0 0 0 0 0 0 0 0 0 0 0 0 0 127 0" result="hardAlpha"/>
<feOffset dx="25" dy="25"/>
<feComposite in2="hardAlpha" operator="out"/>
<feColorMatrix type="matrix" values="0 0 0 0 0 0 0 0 0 0 0 0 0 0 0 0 0 0 0.25 0"/>
<feBlend mode="normal" in2="BackgroundImageFix" result="effect1_dropShadow_591_2"/>
<feBlend mode="normal" in="SourceGraphic" in2="effect1_dropShadow_591_2" result="shape"/>
</filter>
</defs>
</svg>
