<svg width="1025" height="1025" viewBox="0 0 1025 1025" fill="none" xmlns="http://www.w3.org/2000/svg">
<path d="M980.692 351.93C988.611 346.056 999.841 351.709 999.841 361.568V580.619L999.884 985.114C999.874 988.739 1000.54 993.552 997.705 996.276C996.285 997.639 994.888 998.399 992.939 998.514C975.009 999.566 956.433 998.554 938.452 998.519L826.164 998.239L500.884 998.456L151.179 998.401L47.4369 998.514L18.5095 998.498C14.3924 998.49 9.54873 999.015 5.50484 998.369C3.5586 998.057 1.57084 996.42 0.661213 994.662C-0.132424 993.129 0.0153215 990.533 0.00433266 988.827L0.0763684 849.656L0.0739275 577.587L0.0543934 426.75L0.0707064 357.661C0.0730403 347.777 11.3561 342.134 19.2665 348.061L432.571 657.758L494.018 610.856C497.868 607.917 503.187 607.842 507.118 610.672L570.433 656.241L980.692 351.93Z" fill="#0F0A14"/>
<path d="M405.809 656.412L421.15 667.571L17.1584 970.186L17.0742 946.869L405.809 656.412Z" fill="#5E93B7"/>
<path d="M950.561 961.709C951.257 961.681 974.814 980.517 977.519 982.738L26.4941 982.191L54.3666 961.646C60.2853 962.865 66.9791 962.286 73.0223 962.285L105.601 962.236L224.279 962.076L719.667 962.08L881.764 962.461L924.89 962.491L947.639 962.53C948.706 962.48 949.605 962.172 950.561 961.709Z" fill="#8EDCE8"/>
<path d="M969.154 381.402L987.283 368.322L986.551 970.076L897.353 902.922L680.361 739.233L610.665 687.279L593.28 674.23C590.302 671.987 586.594 669.787 584.221 666.935L599.178 655.805L971.06 935.816C969.677 929.02 969.822 922.28 969.776 915.375L969.704 890.153L969.666 807.757L969.205 517.358L969.294 429.249C969.332 413.407 970.057 397.201 969.154 381.402Z" fill="#5E93B7"/>
<path d="M969.149 381.4C970.053 397.199 969.328 413.405 969.29 429.247L969.201 517.356L969.662 807.756L969.7 890.152L969.772 915.374C969.818 922.279 969.673 929.018 971.056 935.814L599.174 655.803L969.149 381.4Z" fill="#8EDCE8"/>
<path d="M17.0742 946.873L17.1292 366.469L405.809 656.416L17.0742 946.873Z" fill="#8EDCE8"/>
<path d="M54.3711 961.648L501.891 624.895L950.565 961.711C949.61 962.173 948.71 962.482 947.643 962.531L924.895 962.493L881.769 962.462L719.671 962.082L224.284 962.078L105.606 962.237L73.0268 962.287C66.9836 962.288 60.2898 962.866 54.3711 961.648Z" fill="#8EDCE8"/>
</svg>
