<svg width="209" height="203" viewBox="0 0 209 203" fill="none" xmlns="http://www.w3.org/2000/svg">
<path d="M203.353 54.2766L203.407 42.7705L203.407 42.7478L203.414 10.5328C203.414 10.5324 203.414 10.532 203.414 10.5316V10.5293L208.414 10.5304C208.414 10.0971 208.434 9.63326 208.455 9.15479C208.522 7.61509 208.595 5.9242 208.019 4.61567L203.353 54.2766ZM203.353 54.2766C203.267 54.3951 203.189 54.5126 203.118 54.6277C202.933 54.5842 202.715 54.5346 202.504 54.4867C202.378 54.4579 202.254 54.4298 202.141 54.4039C201.739 54.3113 201.336 54.2151 200.959 54.1145C200.615 54.0229 200.351 53.9427 200.166 53.8783L199.445 53.3298C199.442 53.1888 199.437 53.0549 199.432 52.9297C199.424 52.7125 199.41 52.4505 199.384 52.1954C199.379 52.1466 199.373 52.0858 199.364 52.016L199.334 49.7168L199.256 43.8126L193.445 44.8625L190.657 45.3664L190.554 45.2498L190.548 45.386L131.702 56.0194L131.661 18.3635L197.106 6.40974C197.753 6.30071 198.401 6.15981 198.949 6.039C199.029 6.02133 199.107 6.00403 199.183 5.9871C199.68 5.8773 200.107 5.78265 200.536 5.70011C201.581 5.49891 202.094 5.48607 202.315 5.51448L202.345 5.51829L202.374 5.52174L202.508 5.53733C202.529 5.54267 202.639 5.57518 202.814 5.72152C203.034 5.90469 203.238 6.17412 203.365 6.45881L203.37 6.46959L203.375 6.48035L203.431 6.60457" fill="#0F0A14" stroke="black" stroke-width="10"/>
<path d="M199.339 111.743L199.365 67.7887L199.406 67.791C199.727 66.5096 199.76 65.0562 199.749 64.1137C200.046 64.183 200.318 64.2451 200.531 64.2934C200.708 64.3337 200.843 64.3646 200.916 64.3822L200.94 64.388L200.964 64.3936L201.139 64.4342C201.912 64.6336 202.631 64.6992 203.27 64.6919C203.266 65.2503 203.274 65.826 203.307 66.3955L203.413 66.3927L203.429 138.808C203.429 138.808 203.429 138.808 203.429 138.808C203.429 140.046 203.447 141.221 203.464 142.346C203.521 146.115 203.57 149.332 202.917 152.51C200.065 166.407 188.024 177.122 173.844 179.045C163.272 180.477 151.87 176.265 144.231 168.62L144.231 168.62C131.751 156.129 131.645 139.515 139.046 126.688C146.48 113.806 161.132 105.373 177.782 109.215L177.783 109.215C179.494 109.61 182.263 110.526 184.972 111.74C187.826 113.019 189.876 114.305 190.721 115.191L199.332 124.217L199.339 111.743Z" fill="url(#paint0_linear_285_255)" stroke="black" stroke-width="10"/>
<path d="M130.214 18.6454L76.3819 28.6653L76.319 28.6771L76.2558 28.6872C75.637 28.786 75.0357 28.8648 74.5044 28.933C74.4302 28.9425 74.3576 28.9518 74.2866 28.9609C73.8271 29.0197 73.43 29.0705 73.0412 29.1278C72.1284 29.2625 71.5893 29.3905 71.2307 29.5264C71.0708 29.587 70.9864 29.6352 70.9486 29.6597C70.9164 29.6805 70.9071 29.6909 70.9026 29.696L70.9023 29.6963C70.8976 29.7016 70.8621 29.7412 70.8084 29.849C70.7524 29.9617 70.6688 30.165 70.5882 30.4978L70.578 30.5399L70.567 30.5818L70.5523 30.6382C70.5491 30.6715 70.5389 30.7805 70.5362 30.9972C70.5341 31.167 70.5364 31.3539 70.5408 31.5992C70.5413 31.6276 70.5418 31.6573 70.5424 31.6883C70.5462 31.8958 70.551 32.1569 70.5508 32.4095V32.4067L65.5508 32.4114L70.5508 32.4184L130.214 18.6454ZM130.214 18.6454V18.7578V18.9874V19.2152V19.4409V19.6647V19.8865V20.1064V20.3243V20.5403V20.7544V20.9666V21.1768V21.3852V21.5917V21.7963V21.9991V22.2V22.399V22.5962V22.7916V22.9851V23.1768V23.3667V23.5548V23.7411V23.9257V24.1084V24.2894V24.4687V24.6462V24.8219V24.9959V25.1682V25.3388V25.5077V25.6748V25.8403V26.0041V26.1663V26.3267V26.4856V26.6427V26.7983V26.9522V27.1045V27.2551V27.4042V27.5517V27.6976V27.8419V27.9846V28.1258V28.2655V28.4036V28.5401V28.6751V28.8087V28.9407V29.0712V29.2002V29.3277V29.4538V29.5784V29.7015V29.8232V29.9434V30.0622V30.1796V30.2956V30.4102V30.5234V30.6351V30.7455V30.8546V30.9623V31.0686V31.1735V31.2772V31.3795V31.4805V31.5801V31.6785V31.7756V31.8714V31.9659V32.0591V32.1511V32.2418V32.3313V32.4196V32.5066V32.5924V32.677V32.7604V32.8427V32.9237V33.0035V33.0822V33.1598V33.2362V33.3114V33.3855V33.4585V33.5304V33.6011V33.6708V33.7394V33.8069V33.8733V33.9387V34.003V34.0663V34.1285V34.1897V34.2499V34.3091V34.3673V34.4244V34.4806V34.5358V34.5901V34.6434V34.6957V34.7471V34.7975V34.8471V34.8957V34.9434V34.9902V35.0361V35.0811V35.1253V35.1686V35.211V35.2526V35.2933V35.3332V35.3723V35.4106V35.4481V35.4847V35.5206V35.5557V35.59V35.6236V35.6564V35.6885V35.7198V35.7504V35.7803V35.8095V35.8379V35.8657V35.8928V35.9192V35.945V35.97V35.9945V36.0183V36.0414V36.0639V36.0859V36.1072V36.1279V36.148V36.1675V36.1865V36.2048V36.2227V36.24V36.2567V36.2729V36.2886V36.3038V36.3184V36.3326V36.3463V36.3595V36.3722V36.3845V36.3963V36.4077V36.4186V36.4291V36.4392V36.4489V36.4581V36.467V36.4755V36.4836V36.4913V36.4987V36.5057V36.5124V36.5188V36.5248V36.5305V36.5359V36.541V36.5458V36.5504V36.5546V36.5586V36.5623V36.5658V36.5691V36.5721V36.5749V36.5774V36.5798V36.582V36.5839V36.5857V36.5874V36.5888V36.5902V36.5913V36.5924V36.5933V36.594V36.5947V36.5953V36.5957V36.5961V36.5964V36.5967V36.5969V36.597V36.5971V36.5974V36.5975V36.5977V36.5979V36.5982V36.5986V36.5991V36.5996V36.6003V36.6011V36.602V36.603V36.6042V36.6055V36.607V36.6086V36.6104V36.6124V36.6146V36.6169V36.6195V36.6223V36.6253V36.6285V36.632V36.6357V36.6397V36.644V36.6485V36.6533V36.6584V36.6638V36.6695V36.6756V36.6819V36.6886V36.6956V36.703V36.7108V36.7189V36.7274V36.7362V36.7455V36.7552V36.7653V36.7758V36.7867V36.7981V36.8099V36.8221V36.8349V36.8481V36.8617V36.8759V36.8906V36.9058V36.9214V36.9377V36.9544V36.9717V36.9895V37.0079V37.0269V37.0464V37.0665V37.0872V37.1085V37.1304V37.1529V37.1761V37.1999V37.2243V37.2494V37.2751V37.3015V37.3286V37.3564V37.3849V37.414V37.4439V37.4745V37.5059V37.5379V37.5707V37.6043V37.6386V37.6737V37.7096V37.7463V37.7838V37.822V37.8611V37.901V37.9418V37.9834V38.0258V38.0691V38.1132V38.1583V38.2042V38.251V38.2987V38.3473V38.3968V38.4473V38.4987V38.551V38.6043V38.6585V38.7137V38.7699V38.8271V38.8853V38.9444V39.0046V39.0658V39.1281V39.1913V39.2556V39.321V39.3875V39.455V39.5235V39.5932V39.664V39.7359V39.8088V39.883V39.9582V40.0346V40.1121V40.1908V40.2707V40.3517V40.4339V40.5173V40.6019V40.6877V40.7748V40.863V40.9525V41.0432V41.1352V41.2285V41.323V41.4188V41.5158V41.6142V41.7139V41.8149V41.9172V42.0208V42.1258V42.2321V42.3398V42.4488V42.5592V42.671V42.7842V42.8987V43.0147V43.1321V43.2509V43.3712V43.4929V43.616V43.7406V43.8666V43.9942V44.1232V44.2537V44.3857V44.5192V44.6542V44.7908V44.9289V45.0685V45.2097V45.3525V45.4968V45.6427V45.7901V45.9392V46.0899V46.2422V46.3961V46.5516V46.7088V46.8676V47.0281V47.1902V47.354V47.5195V47.6867V47.8556V48.0261V48.1984V48.3724V48.5482V48.7257V48.9049V49.0859V49.2687V49.4532V49.6395V49.8276V50.0175V50.2093V50.4028V50.5981V50.7953V50.9944V51.1953V51.398V51.6026V51.8091V52.0175V52.2278V52.44V52.654V52.8701V53.088V53.3079V53.5297V53.7535V53.9792V54.2069V54.4366V54.6683V54.902V55.1376V55.3753V55.615V55.8568V56.1006V56.3464V56.3976L78.1955 65.9198L74.09 66.6713L74.0958 70.845L74.2142 155.891C74.2142 155.891 74.2142 155.892 74.2142 155.893L130.214 18.6454ZM73.994 168.661L78.9526 169.303L73.9941 168.661C73.994 168.661 73.994 168.661 73.994 168.661Z" fill="#433360" stroke="black" stroke-width="10"/>
<defs>
<linearGradient id="paint0_linear_285_255" x1="213.304" y1="59.9062" x2="150.669" y2="179.128" gradientUnits="userSpaceOnUse">
<stop stop-color="#251E37"/>
<stop offset="1" stop-color="#4B3868"/>
</linearGradient>
</defs>
</svg>
