<svg width="189" height="183" viewBox="0 0 189 183" fill="none" xmlns="http://www.w3.org/2000/svg">
<mask id="path-1-inside-1_480_3727" fill="white">
<path fill-rule="evenodd" clip-rule="evenodd" d="M122.299 11.6001L177.228 1.56705C177.756 1.47941 178.318 1.35494 178.896 1.22703C180.358 0.903342 181.92 0.557622 183.267 0.730859L183.442 0.75131C185.364 0.999744 186.978 2.48459 187.748 4.21316L187.826 4.38516C188.345 5.56285 188.279 7.08466 188.219 8.4704V8.4708C188.2 8.90127 188.182 9.31859 188.182 9.70839L188.176 38.7255L188.174 39.1702L188.192 125.158C188.192 126.092 188.207 127.033 188.223 127.979V127.979C188.279 131.467 188.336 135.007 187.64 138.395C184.666 152.887 172.21 163.86 157.67 165.831C146.649 167.324 135.016 162.961 127.231 155.17C101.454 129.371 127.196 86.1963 161.622 94.1399C165.37 95.0041 172.708 97.8587 175.512 100.797L175.543 47.4685L175.542 47.4659L175.51 45.0356L122.299 54.6506V54.7386L71.7929 63.9839L71.8994 140.532C71.8992 141.558 71.9174 142.597 71.9357 143.643C71.9883 146.64 72.0416 149.687 71.664 152.603C69.8704 166.443 58.7044 178.19 45.3173 181.602C27.3722 186.176 8.78687 176.223 2.69251 158.755C-5.51453 135.232 13.5366 111.066 38.1911 112.493C45.8764 112.938 54.4272 115.613 59.6889 121.48L59.6023 29.3999C59.6026 29.2184 59.5992 29.0294 59.5956 28.8366C59.583 28.1416 59.5694 27.3959 59.7246 26.7636L59.7626 26.6178C60.7317 22.6189 63.6484 22.2459 66.8976 21.8303C67.434 21.7617 67.9796 21.6919 68.5269 21.6045L114.6 13.0288L114.6 13.0065L121.024 11.833L122.299 11.5957V11.6001ZM187.994 52.3296C188.043 52.6239 188.08 52.9187 188.106 53.2139L188.106 53.2165C188.08 52.9205 188.043 52.6248 187.994 52.3297L187.962 52.122C187.914 51.9315 187.778 51.7968 187.643 51.6635C187.621 51.6416 187.598 51.6198 187.577 51.5978C187.57 51.5977 187.563 51.5975 187.556 51.5975C187.563 51.5975 187.57 51.5975 187.577 51.5977C187.599 51.6197 187.621 51.6415 187.643 51.6633C187.778 51.7967 187.915 51.9314 187.963 52.1219L187.994 52.3296ZM188.076 59.7282C188.026 58.8672 188.051 58.0015 188.088 57.1345L188.088 57.1409C188.051 58.0045 188.026 58.8666 188.076 59.7242L188.076 59.7282ZM186.319 53.5312L186.443 53.548L186.443 53.5481L186.318 53.5313C186.218 53.5183 186.119 53.5119 186.023 53.511C186.12 53.5119 186.218 53.5182 186.319 53.5312ZM182.715 53.8536C182.826 53.884 182.934 53.9068 183.039 53.9229C182.934 53.9068 182.826 53.8842 182.715 53.8537L182.49 53.8016C182.331 53.7633 182.136 53.7188 181.915 53.6687L181.914 53.6684C180.762 53.4066 178.94 52.9926 178.312 52.5146L178.191 52.5126C178.118 52.5109 178.05 52.5107 177.985 52.5121C178.05 52.5107 178.118 52.5108 178.191 52.5125L178.312 52.5145C178.94 52.9925 180.762 53.4065 181.914 53.6683L181.915 53.6685C182.136 53.7186 182.332 53.7632 182.49 53.8015L182.715 53.8536ZM175.706 60.151C175.577 59.1471 175.597 55.8547 175.615 52.8743L175.615 52.8903C175.597 55.866 175.577 59.1476 175.706 60.1503L175.706 60.151ZM176.631 52.7745C176.501 52.7461 176.356 52.6225 176.087 52.3154L176.086 52.3152L176.087 52.3151C176.356 52.6222 176.501 52.746 176.631 52.7745Z"/>
</mask>
<path fill-rule="evenodd" clip-rule="evenodd" d="M122.299 11.6001L177.228 1.56705C177.756 1.47941 178.318 1.35494 178.896 1.22703C180.358 0.903342 181.92 0.557622 183.267 0.730859L183.442 0.75131C185.364 0.999744 186.978 2.48459 187.748 4.21316L187.826 4.38516C188.345 5.56285 188.279 7.08466 188.219 8.4704V8.4708C188.2 8.90127 188.182 9.31859 188.182 9.70839L188.176 38.7255L188.174 39.1702L188.192 125.158C188.192 126.092 188.207 127.033 188.223 127.979V127.979C188.279 131.467 188.336 135.007 187.64 138.395C184.666 152.887 172.21 163.86 157.67 165.831C146.649 167.324 135.016 162.961 127.231 155.17C101.454 129.371 127.196 86.1963 161.622 94.1399C165.37 95.0041 172.708 97.8587 175.512 100.797L175.543 47.4685L175.542 47.4659L175.51 45.0356L122.299 54.6506V54.7386L71.7929 63.9839L71.8994 140.532C71.8992 141.558 71.9174 142.597 71.9357 143.643C71.9883 146.64 72.0416 149.687 71.664 152.603C69.8704 166.443 58.7044 178.19 45.3173 181.602C27.3722 186.176 8.78687 176.223 2.69251 158.755C-5.51453 135.232 13.5366 111.066 38.1911 112.493C45.8764 112.938 54.4272 115.613 59.6889 121.48L59.6023 29.3999C59.6026 29.2184 59.5992 29.0294 59.5956 28.8366C59.583 28.1416 59.5694 27.3959 59.7246 26.7636L59.7626 26.6178C60.7317 22.6189 63.6484 22.2459 66.8976 21.8303C67.434 21.7617 67.9796 21.6919 68.5269 21.6045L114.6 13.0288L114.6 13.0065L121.024 11.833L122.299 11.5957V11.6001ZM187.994 52.3296C188.043 52.6239 188.08 52.9187 188.106 53.2139L188.106 53.2165C188.08 52.9205 188.043 52.6248 187.994 52.3297L187.962 52.122C187.914 51.9315 187.778 51.7968 187.643 51.6635C187.621 51.6416 187.598 51.6198 187.577 51.5978C187.57 51.5977 187.563 51.5975 187.556 51.5975C187.563 51.5975 187.57 51.5975 187.577 51.5977C187.599 51.6197 187.621 51.6415 187.643 51.6633C187.778 51.7967 187.915 51.9314 187.963 52.1219L187.994 52.3296ZM188.076 59.7282C188.026 58.8672 188.051 58.0015 188.088 57.1345L188.088 57.1409C188.051 58.0045 188.026 58.8666 188.076 59.7242L188.076 59.7282ZM186.319 53.5312L186.443 53.548L186.443 53.5481L186.318 53.5313C186.218 53.5183 186.119 53.5119 186.023 53.511C186.12 53.5119 186.218 53.5182 186.319 53.5312ZM182.715 53.8536C182.826 53.884 182.934 53.9068 183.039 53.9229C182.934 53.9068 182.826 53.8842 182.715 53.8537L182.49 53.8016C182.331 53.7633 182.136 53.7188 181.915 53.6687L181.914 53.6684C180.762 53.4066 178.94 52.9926 178.312 52.5146L178.191 52.5126C178.118 52.5109 178.05 52.5107 177.985 52.5121C178.05 52.5107 178.118 52.5108 178.191 52.5125L178.312 52.5145C178.94 52.9925 180.762 53.4065 181.914 53.6683L181.915 53.6685C182.136 53.7186 182.332 53.7632 182.49 53.8015L182.715 53.8536ZM175.706 60.151C175.577 59.1471 175.597 55.8547 175.615 52.8743L175.615 52.8903C175.597 55.866 175.577 59.1476 175.706 60.1503L175.706 60.151ZM176.631 52.7745C176.501 52.7461 176.356 52.6225 176.087 52.3154L176.086 52.3152L176.087 52.3151C176.356 52.6222 176.501 52.746 176.631 52.7745Z" fill="#433360"/>
<path d="M177.228 1.56705L175.589 -8.29763L175.51 -8.28454L175.431 -8.27019L177.228 1.56705ZM122.299 11.6001H112.299V23.5921L124.096 21.4374L122.299 11.6001ZM178.896 1.22703L181.057 10.9907L181.057 10.9907L178.896 1.22703ZM183.267 0.730859L181.991 10.6491L182.05 10.6568L182.109 10.6637L183.267 0.730859ZM183.442 0.75131L184.724 -9.16619L184.662 -9.17423L184.599 -9.18149L183.442 0.75131ZM187.748 4.21316L178.613 8.28166L178.623 8.30286L178.632 8.32401L187.748 4.21316ZM187.826 4.38516L196.977 0.353076L196.959 0.313617L196.942 0.27431L187.826 4.38516ZM188.219 8.4704L178.228 8.03685L178.219 8.25352V8.4704H188.219ZM188.219 8.4708L198.209 8.90427L198.219 8.68764V8.4708H188.219ZM188.182 9.70839L198.182 9.71055V9.7037L188.182 9.70839ZM188.176 38.7255L198.176 38.7732L198.176 38.7504V38.7276L188.176 38.7255ZM188.174 39.1702L178.174 39.1225L178.174 39.1475V39.1724L188.174 39.1702ZM188.192 125.158L198.192 125.157V125.156L188.192 125.158ZM188.223 127.979H198.223V127.898L198.221 127.818L188.223 127.979ZM188.223 127.979H178.223V128.059L178.224 128.14L188.223 127.979ZM187.64 138.395L177.844 136.384V136.384L187.64 138.395ZM157.67 165.831L159.013 175.74L159.013 175.74L157.67 165.831ZM127.231 155.17L134.306 148.102L134.305 148.101L127.231 155.17ZM161.622 94.1399L159.374 103.884L159.375 103.884L161.622 94.1399ZM175.512 100.797L168.276 107.7L185.497 125.751L185.512 100.803L175.512 100.797ZM175.543 47.4685L185.543 47.4745L185.545 45.0741L184.457 42.9347L175.543 47.4685ZM175.542 47.4659L165.543 47.598L165.574 49.9253L166.629 51.9998L175.542 47.4659ZM175.51 45.0356L185.509 44.9035L185.353 33.0951L173.732 35.195L175.51 45.0356ZM122.299 54.6506L120.521 44.81L112.299 46.2957V54.6506H122.299ZM122.299 54.7386L124.1 64.5751L132.299 63.0742V54.7386H122.299ZM71.7929 63.9839L69.9923 54.1474L61.7813 55.6504L61.7929 63.9978L71.7929 63.9839ZM71.8994 140.532L81.8994 140.534V140.526L81.8994 140.518L71.8994 140.532ZM71.9357 143.643L61.9373 143.818V143.818L71.9357 143.643ZM71.664 152.603L81.5811 153.888L81.5812 153.887L71.664 152.603ZM45.3173 181.602L47.7873 191.292L47.7874 191.292L45.3173 181.602ZM2.69251 158.755L12.1344 155.46L12.1343 155.46L2.69251 158.755ZM38.1911 112.493L38.7692 102.51H38.7692L38.1911 112.493ZM59.6889 121.48L52.2445 128.157L69.7135 147.634L69.6889 121.47L59.6889 121.48ZM59.6023 29.3999L49.6024 29.3858L49.6023 29.3976L49.6024 29.4093L59.6023 29.3999ZM59.5956 28.8366L49.5973 29.0187V29.0187L59.5956 28.8366ZM59.7246 26.7636L50.0482 24.2402L50.03 24.3101L50.0127 24.3803L59.7246 26.7636ZM59.7626 26.6178L69.439 29.1412L69.4609 29.0573L69.4813 28.9731L59.7626 26.6178ZM66.8976 21.8303L68.1662 31.7495L68.1662 31.7495L66.8976 21.8303ZM68.5269 21.6045L70.1046 31.4792L70.231 31.459L70.3568 31.4356L68.5269 21.6045ZM114.6 13.0288L116.43 22.86L124.608 21.3377L124.6 13.0186L114.6 13.0288ZM114.6 13.0065L112.803 3.16923L104.591 4.66914L104.6 13.0167L114.6 13.0065ZM121.024 11.833L122.821 21.6702L122.838 21.6672L122.854 21.6641L121.024 11.833ZM122.299 11.5957H132.299V-0.437381L120.469 1.76456L122.299 11.5957ZM188.106 53.2139L198.106 53.2719L198.108 52.7982L198.066 52.3264L188.106 53.2139ZM187.994 52.3296L178.109 53.8405L178.119 53.9057L178.13 53.9709L187.994 52.3296ZM188.106 53.2165L178.145 54.1021L198.106 53.2745L188.106 53.2165ZM187.994 52.3297L178.109 53.8406L178.119 53.9058L178.13 53.9709L187.994 52.3297ZM187.962 52.122L197.847 50.6111L197.776 50.1454L197.662 49.6885L187.962 52.122ZM187.643 51.6635L194.664 44.5435L194.663 44.5423L187.643 51.6635ZM187.577 51.5978L194.7 44.5794L191.859 41.6957L187.812 41.6006L187.577 51.5978ZM187.556 51.5975L187.479 41.5978L187.628 61.5973L187.556 51.5975ZM187.577 51.5977L194.702 44.5806L191.859 41.6946L187.81 41.6004L187.577 51.5977ZM187.643 51.6633L194.665 44.5435L194.665 44.5434L187.643 51.6633ZM187.963 52.1219L197.848 50.611L197.777 50.1453L197.662 49.6884L187.963 52.1219ZM188.088 57.1345L198.088 57.1817L178.096 56.7163L188.088 57.1345ZM188.076 59.7282L178.092 60.3037L198.075 59.7661L188.076 59.7282ZM188.088 57.1409L198.079 57.5585L198.087 57.3734L198.087 57.1881L188.088 57.1409ZM188.076 59.7242L198.075 59.762L198.077 59.4564L198.059 59.1513L188.076 59.7242ZM186.443 53.548L195.24 58.3032L202.116 45.5822L187.787 43.6387L186.443 53.548ZM186.319 53.5312L187.663 43.6219L187.631 43.6177L187.6 43.6136L186.319 53.5312ZM186.443 53.5481L185.098 63.4574L191.951 64.387L195.24 58.3033L186.443 53.5481ZM186.318 53.5313L187.663 43.6221L187.631 43.6178L187.599 43.6137L186.318 53.5313ZM186.023 53.511L186.112 43.5114L185.932 63.5106L186.023 53.511ZM183.039 53.9229L181.527 63.8079L184.553 44.0382L183.039 53.9229ZM182.715 53.8536L185.357 44.2091L185.166 44.1566L184.972 44.1117L182.715 53.8536ZM182.715 53.8537L185.357 44.2093L185.166 44.1567L184.972 44.1119L182.715 53.8537ZM182.49 53.8016L180.136 63.5208L180.184 63.5324L180.232 63.5435L182.49 53.8016ZM181.915 53.6687L184.131 43.9173L184.12 43.9149L184.11 43.9126L181.915 53.6687ZM181.914 53.6684L179.698 63.4198L179.709 63.4222L179.719 63.4245L181.914 53.6684ZM178.312 52.5146L184.367 44.5563L181.755 42.5691L178.474 42.5159L178.312 52.5146ZM178.191 52.5126L177.953 62.5098L177.991 62.5107L178.029 62.5113L178.191 52.5126ZM177.985 52.5121L177.778 42.5142L178.192 62.5099L177.985 52.5121ZM178.191 52.5125L177.954 62.5097L177.991 62.5106L178.029 62.5112L178.191 52.5125ZM178.312 52.5145L184.367 44.5561L181.755 42.569L178.474 42.5158L178.312 52.5145ZM181.914 53.6683L179.698 63.4197L179.709 63.4221L179.719 63.4244L181.914 53.6683ZM181.915 53.6685L184.131 43.9172L184.121 43.9148L184.11 43.9124L181.915 53.6685ZM182.49 53.8015L180.137 63.5206L180.185 63.5323L180.233 63.5434L182.49 53.8015ZM175.615 52.8743L185.615 52.9314L165.616 52.8126L175.615 52.8743ZM175.706 60.151L165.789 61.432L185.384 62.6705L175.706 60.151ZM175.615 52.8903L185.615 52.9512L185.615 52.9475L175.615 52.8903ZM175.706 60.1503L185.384 62.6699L185.872 60.7937L185.624 58.8709L175.706 60.1503ZM176.087 52.3154L183.604 45.7207L183.582 45.6962L183.561 45.6718L176.087 52.3154ZM176.631 52.7745L174.491 62.5428L178.781 43.0083L176.631 52.7745ZM176.086 52.3152L171.496 43.4309L160.061 49.339L168.612 58.9588L176.086 52.3152ZM176.087 52.3151L183.604 45.7205L178.446 39.8403L171.496 43.4308L176.087 52.3151ZM175.431 -8.27019L120.502 1.76289L124.096 21.4374L179.025 11.4043L175.431 -8.27019ZM176.734 -8.53662C176.097 -8.39554 175.805 -8.33356 175.589 -8.29763L178.868 11.4317C179.706 11.2924 180.539 11.1054 181.057 10.9907L176.734 -8.53662ZM184.542 -9.18743C181.117 -9.62807 177.71 -8.75247 176.734 -8.53661L181.057 10.9907C181.438 10.9064 181.717 10.8448 181.983 10.7913C182.24 10.7394 182.412 10.71 182.529 10.6934C182.647 10.6767 182.657 10.6805 182.586 10.6831C182.516 10.6857 182.305 10.6896 181.991 10.6491L184.542 -9.18743ZM184.599 -9.18149L184.424 -9.20194L182.109 10.6637L182.285 10.6841L184.599 -9.18149ZM196.883 0.144665C195.059 -3.95059 190.909 -8.36674 184.724 -9.16619L182.16 10.6688C180.941 10.5112 180.093 10.0004 179.615 9.60106C179.149 9.21165 178.83 8.76863 178.613 8.28166L196.883 0.144665ZM196.942 0.27431L196.864 0.102316L178.632 8.32401L178.71 8.496L196.942 0.27431ZM198.209 8.90395C198.24 8.20274 198.625 4.09305 196.977 0.353076L178.675 8.41723C178.455 7.91915 178.355 7.51602 178.308 7.28245C178.262 7.05048 178.255 6.91804 178.256 6.93147C178.257 6.94376 178.261 7.02882 178.257 7.22942C178.253 7.43987 178.244 7.67056 178.228 8.03685L198.209 8.90395ZM198.219 8.4708V8.4704H178.219V8.4708H198.219ZM198.182 9.7037C198.182 9.57381 198.188 9.38435 198.209 8.90427L178.228 8.03733C178.211 8.41818 178.182 9.06338 178.182 9.71309L198.182 9.7037ZM198.176 38.7276L198.182 9.71055L178.182 9.70624L178.176 38.7233L198.176 38.7276ZM198.173 39.2179L198.176 38.7732L178.176 38.6778L178.174 39.1225L198.173 39.2179ZM198.192 125.156L198.174 39.1681L178.174 39.1724L178.192 125.16L198.192 125.156ZM198.221 127.818C198.206 126.859 198.192 125.997 198.192 125.157L178.192 125.159C178.192 126.186 178.209 127.208 178.224 128.139L198.221 127.818ZM198.223 127.979V127.979H178.223V127.979H198.223ZM197.436 140.405C198.39 135.758 198.274 131.103 198.221 127.818L178.224 128.14C178.283 131.832 178.281 134.255 177.844 136.384L197.436 140.405ZM159.013 175.74C177.503 173.233 193.556 159.309 197.436 140.405L177.844 136.384C175.775 146.466 166.917 154.486 156.327 155.921L159.013 175.74ZM120.157 162.238C129.963 172.052 144.644 177.687 159.013 175.74L156.327 155.921C148.654 156.961 140.069 153.87 134.306 148.102L120.157 162.238ZM163.871 84.3959C141.706 79.2816 122.541 90.7975 113.189 107.004C103.772 123.322 103.588 145.655 120.158 162.238L134.305 148.101C125.097 138.886 124.896 126.732 130.512 117C136.193 107.154 147.112 101.055 159.374 103.884L163.871 84.3959ZM182.747 93.8944C179.922 90.9329 175.853 88.8386 173.01 87.5649C169.877 86.161 166.486 84.999 163.87 84.3957L159.375 103.884C160.506 104.145 162.658 104.842 164.832 105.816C165.885 106.288 166.792 106.758 167.487 107.181C168.254 107.648 168.421 107.852 168.276 107.7L182.747 93.8944ZM165.543 47.4626L165.512 100.791L185.512 100.803L185.543 47.4745L165.543 47.4626ZM166.629 51.9998L166.63 52.0024L184.457 42.9347L184.455 42.932L166.629 51.9998ZM165.511 45.1678L165.543 47.598L185.541 47.3337L185.509 44.9035L165.511 45.1678ZM124.077 64.4913L177.288 54.8763L173.732 35.195L120.521 44.81L124.077 64.4913ZM112.299 54.6506V54.7386H132.299V54.6506H112.299ZM120.498 44.902L69.9923 54.1474L73.5935 73.8205L124.1 64.5751L120.498 44.902ZM61.7929 63.9978L61.8994 140.546L81.8994 140.518L81.7929 63.97L61.7929 63.9978ZM61.8994 140.53C61.8992 141.66 61.9192 142.788 61.9373 143.818L81.9342 143.467C81.9156 142.406 81.8993 141.456 81.8994 140.534L61.8994 140.53ZM61.9373 143.818C61.9923 146.956 62.0139 149.256 61.7468 151.318L81.5812 153.887C82.0693 150.118 81.9843 146.325 81.9342 143.467L61.9373 143.818ZM61.7469 151.318C60.5187 160.795 52.5667 169.434 42.8472 171.912L47.7874 191.292C64.8421 186.945 79.222 172.092 81.5811 153.888L61.7469 151.318ZM42.8473 171.912C29.9164 175.208 16.5143 168.014 12.1344 155.46L-6.74934 162.049C1.05945 184.431 24.828 197.145 47.7873 191.292L42.8473 171.912ZM12.1343 155.46C6.37511 138.953 19.7747 121.444 37.613 122.477L38.7692 102.51C7.29849 100.688 -17.4042 131.51 -6.74932 162.049L12.1343 155.46ZM37.6129 122.477C43.9009 122.841 49.4292 125.018 52.2445 128.157L67.1334 114.803C59.4252 106.209 47.8519 103.036 38.7692 102.51L37.6129 122.477ZM69.6889 121.47L69.6023 29.3905L49.6024 29.4093L49.6889 121.489L69.6889 121.47ZM69.6023 29.414C69.6028 29.1169 69.5971 28.8276 69.594 28.6544L49.5973 29.0187C49.6012 29.2313 49.6025 29.3199 49.6024 29.3858L69.6023 29.414ZM69.594 28.6545C69.5906 28.469 69.5889 28.3651 69.5886 28.273C69.5883 28.1874 69.5896 28.1665 69.5888 28.1855C69.5881 28.2043 69.5839 28.2987 69.566 28.4473C69.5484 28.5946 69.5124 28.8374 69.4364 29.1468L50.0127 24.3803C49.4873 26.5213 49.5908 28.6595 49.5973 29.0187L69.594 28.6545ZM69.401 29.2869L69.439 29.1412L50.0862 24.0945L50.0482 24.2402L69.401 29.2869ZM69.4813 28.9731C69.4587 29.0662 69.3041 29.6192 68.7809 30.3053C68.2343 31.022 67.5775 31.5016 67.0423 31.7764C66.588 32.0096 66.3425 32.0324 66.5951 31.9796C66.8845 31.9191 67.2722 31.8639 68.1662 31.7495L65.6289 11.9111C64.4649 12.06 61.0266 12.3831 57.9078 13.9843C53.8653 16.0597 51.1585 19.6635 50.0439 24.2625L69.4813 28.9731ZM68.1662 31.7495C68.6784 31.684 69.3779 31.5953 70.1046 31.4792L66.9492 11.7297C66.5812 11.7885 66.1897 11.8394 65.6289 11.9111L68.1662 31.7495ZM70.3568 31.4356L116.43 22.86L112.77 3.19767L66.697 11.7733L70.3568 31.4356ZM104.6 13.0167L104.6 13.0391L124.6 13.0186L124.6 12.9962L104.6 13.0167ZM119.227 1.99574L112.803 3.16923L116.396 22.8437L122.821 21.6702L119.227 1.99574ZM122.854 21.6641L124.129 21.4269L120.469 1.76456L119.194 2.00184L122.854 21.6641ZM112.299 11.5957V11.6001H132.299V11.5957H112.299ZM198.066 52.3264C198.02 51.8063 197.954 51.2583 197.859 50.6883L178.13 53.9709C178.133 53.9894 178.139 54.0311 178.145 54.1014L198.066 52.3264ZM198.106 53.2745L198.106 53.2719L178.106 53.1559L178.106 53.1586L198.106 53.2745ZM178.13 53.9709C178.133 53.9894 178.139 54.0312 178.145 54.1021L198.067 52.331C198.02 51.8097 197.954 51.2602 197.858 50.6884L178.13 53.9709ZM178.077 53.6329L178.109 53.8406L197.879 50.8188L197.847 50.6111L178.077 53.6329ZM180.621 58.7835C180.778 58.938 180.34 58.5291 179.908 57.9669C179.396 57.3012 178.665 56.1565 178.263 54.5556L197.662 49.6885C197.212 47.897 196.389 46.5897 195.763 45.7757C195.458 45.3797 195.181 45.0751 195.001 44.8852C194.833 44.708 194.678 44.5566 194.664 44.5435L180.621 58.7835ZM180.453 58.6162C180.534 58.6983 180.608 58.7704 180.622 58.7846L194.663 44.5423C194.658 44.5366 194.655 44.5343 194.654 44.5327C194.652 44.5314 194.654 44.5327 194.656 44.5356C194.662 44.5409 194.678 44.5569 194.7 44.5794L180.453 58.6162ZM187.628 61.5973C187.526 61.598 187.446 61.597 187.402 61.5962C187.362 61.5956 187.327 61.5947 187.342 61.5951L187.812 41.6006C187.812 41.6006 187.812 41.6006 187.811 41.6006C187.811 41.6006 187.811 41.6006 187.81 41.6006C187.81 41.6005 187.808 41.6005 187.807 41.6005C187.803 41.6004 187.798 41.6003 187.791 41.6001C187.779 41.5998 187.757 41.5994 187.731 41.599C187.679 41.5981 187.592 41.597 187.484 41.5978L187.628 61.5973ZM187.81 41.6004C187.703 41.5979 187.593 41.597 187.479 41.5978L187.632 61.5972C187.533 61.598 187.437 61.5971 187.345 61.595L187.81 41.6004ZM194.665 44.5434C194.658 44.5371 194.656 44.5348 194.654 44.5329C194.653 44.5313 194.654 44.5326 194.657 44.5354C194.662 44.5407 194.679 44.5572 194.702 44.5806L180.452 58.6148C180.534 58.6978 180.609 58.7715 180.621 58.7833L194.665 44.5434ZM197.662 49.6884C197.212 47.8968 196.389 46.5894 195.763 45.7755C195.458 45.3795 195.181 45.0749 195.001 44.8851C194.833 44.708 194.678 44.5566 194.665 44.5435L180.621 58.7832C180.778 58.9378 180.34 58.5289 179.908 57.9668C179.396 57.3012 178.665 56.1565 178.263 54.5554L197.662 49.6884ZM197.879 50.8187L197.848 50.611L178.077 53.6328L178.109 53.8405L197.879 50.8187ZM178.096 56.7163C178.059 57.6176 178.012 58.9091 178.092 60.3037L198.059 59.1527C198.04 58.8252 198.044 58.3854 198.079 57.5526L178.096 56.7163ZM198.087 57.1881L198.088 57.1817L178.088 57.0873L178.088 57.0938L198.087 57.1881ZM198.059 59.1513C198.04 58.8248 198.044 58.3862 198.079 57.5585L178.096 56.7234C178.059 57.6227 178.012 58.9084 178.092 60.2971L198.059 59.1513ZM198.075 59.7661L198.075 59.762L178.076 59.6864L178.076 59.6904L198.075 59.7661ZM187.787 43.6387L187.663 43.6219L184.975 63.4405L185.099 63.4573L187.787 43.6387ZM195.24 58.3033L195.24 58.3032L177.646 48.7928L177.645 48.793L195.24 58.3033ZM184.974 63.4405L185.098 63.4574L187.787 43.6389L187.663 43.6221L184.974 63.4405ZM185.932 63.5106C185.643 63.508 185.344 63.4885 185.037 63.4489L187.599 43.6137C187.092 43.5482 186.596 43.5158 186.113 43.5114L185.932 63.5106ZM187.6 43.6136C187.084 43.547 186.587 43.5156 186.112 43.5114L185.933 63.5106C185.652 63.5081 185.352 63.4894 185.037 63.4488L187.6 43.6136ZM184.553 44.0382C184.829 44.0804 185.098 44.1379 185.357 44.2091L180.072 63.4982C180.554 63.6302 181.039 63.7331 181.525 63.8076L184.553 44.0382ZM180.072 63.4982C180.562 63.6326 181.048 63.7346 181.527 63.8079L184.551 44.0379C184.82 44.0789 185.089 44.1358 185.357 44.2093L180.072 63.4982ZM180.232 63.5435L180.457 63.5956L184.972 44.1119L184.747 44.0597L180.232 63.5435ZM179.699 63.4201C179.943 63.4756 180.062 63.5027 180.136 63.5208L184.843 44.0825C184.601 44.0239 184.328 43.962 184.131 43.9173L179.699 63.4201ZM179.719 63.4245L179.72 63.4248L184.11 43.9126L184.109 43.9124L179.719 63.4245ZM172.257 60.4729C173.504 61.4218 174.739 61.936 175.285 62.153C175.974 62.4269 176.633 62.633 177.14 62.7793C178.142 63.0692 179.169 63.2996 179.698 63.4198L184.13 43.9171C183.835 43.85 183.573 43.7902 183.31 43.7267C183.048 43.663 182.844 43.6094 182.693 43.5659C182.621 43.5449 182.58 43.5319 182.567 43.5274C182.55 43.522 182.589 43.5343 182.67 43.5665C182.744 43.5957 182.922 43.6689 183.166 43.7939C183.292 43.8586 183.457 43.9483 183.65 44.0657C183.84 44.1818 184.087 44.3435 184.367 44.5563L172.257 60.4729ZM178.029 62.5113L178.15 62.5133L178.474 42.5159L178.353 42.514L178.029 62.5113ZM178.192 62.5099C178.093 62.512 178.012 62.5112 177.953 62.5098L178.428 42.5155C178.224 42.5106 178.007 42.5095 177.778 42.5142L178.192 62.5099ZM178.428 42.5154C178.213 42.5102 177.996 42.5097 177.778 42.5142L178.192 62.5099C178.104 62.5118 178.024 62.5114 177.954 62.5097L178.428 42.5154ZM178.474 42.5158L178.353 42.5138L178.029 62.5112L178.15 62.5132L178.474 42.5158ZM184.13 43.9169C183.835 43.8498 183.573 43.7901 183.311 43.7265C183.048 43.6629 182.844 43.6093 182.693 43.5657C182.621 43.5448 182.58 43.5318 182.567 43.5273C182.551 43.5219 182.589 43.5342 182.67 43.5664C182.744 43.5956 182.922 43.6688 183.166 43.7938C183.292 43.8584 183.457 43.9481 183.65 44.0656C183.84 44.1817 184.087 44.3433 184.367 44.5561L172.257 60.4729C173.504 61.4217 174.739 61.9359 175.285 62.1529C175.975 62.4268 176.634 62.6329 177.14 62.7792C178.143 63.069 179.169 63.2995 179.698 63.4197L184.13 43.9169ZM184.11 43.9124L184.109 43.9122L179.719 63.4244L179.72 63.4246L184.11 43.9124ZM184.843 44.0824C184.601 44.0238 184.328 43.9618 184.131 43.9172L179.699 63.4199C179.944 63.4755 180.062 63.5026 180.137 63.5206L184.843 44.0824ZM184.972 44.1117L184.747 44.0596L180.233 63.5434L180.458 63.5955L184.972 44.1117ZM165.616 52.8126C165.606 54.2848 165.596 55.9223 165.606 57.3207C165.613 58.4407 165.629 60.1955 165.789 61.432L185.624 58.8699C185.659 59.1378 185.645 59.1639 185.63 58.6866C185.617 58.3121 185.609 57.8089 185.605 57.187C185.597 55.9431 185.606 54.4442 185.615 52.936L165.616 52.8126ZM185.615 52.9475L185.615 52.9314L165.616 52.8171L165.615 52.8331L185.615 52.9475ZM185.624 58.8709C185.659 59.1376 185.645 59.1633 185.63 58.6877C185.618 58.3145 185.61 57.8128 185.605 57.1926C185.597 55.9521 185.606 54.457 185.615 52.9512L165.615 52.8294C165.606 54.2992 165.596 55.9329 165.606 57.3278C165.613 58.4455 165.629 60.1954 165.789 61.4298L185.624 58.8709ZM185.384 62.6705L185.384 62.6699L166.029 57.6308L166.029 57.6314L185.384 62.6705ZM168.569 58.9101C168.778 59.1479 169.281 59.7171 169.96 60.2898C170.641 60.8649 172.176 62.0356 174.491 62.5428L178.771 43.0062C180.957 43.485 182.354 44.5797 182.863 45.0091C183.151 45.252 183.352 45.4539 183.446 45.5511C183.546 45.6538 183.604 45.7205 183.604 45.7207L168.569 58.9101ZM168.612 58.9588L168.613 58.9591L183.561 45.6718L183.56 45.6715L168.612 58.9588ZM171.496 43.4308L171.496 43.4309L180.677 61.1994L180.677 61.1993L171.496 43.4308ZM178.781 43.0083C180.965 43.4891 182.361 44.5849 182.867 45.0121C183.153 45.2544 183.354 45.4556 183.447 45.5523C183.5 45.6065 183.539 45.6488 183.563 45.6748C183.587 45.7011 183.601 45.7174 183.604 45.7205L168.569 58.9096C168.777 59.1467 169.279 59.7147 169.956 60.2864C170.634 60.8594 172.167 62.0314 174.482 62.5408L178.781 43.0083Z" fill="black" mask="url(#path-1-inside-1_480_3727)"/>
</svg>
