<svg width="233" height="248" viewBox="0 0 233 248" fill="none" xmlns="http://www.w3.org/2000/svg">
<path d="M8.2089 0.849944L110.675 0.771537C123.491 0.776942 120.98 -1.12097 129.883 8.41447L159.554 39.7095C162.417 42.6961 162.9 43.6696 162.902 47.7561L162.944 81.2149C164.563 82.6334 167.291 84.1385 169.335 85.8121C194.724 106.602 199.915 147.795 179.673 174.715L182.414 177.046C188.253 173.033 191.142 165.889 198.699 174.568C200.678 176.841 202.447 179.314 204.271 181.728L231.107 216.921C231.655 217.705 232.222 218.541 232.538 219.467L232.672 219.87C234.307 225.054 229.464 228.628 226.353 231.431L219.824 237.393C215.973 240.879 212.265 245.498 207.366 247.24L205.795 247.381C200.848 247.352 197.766 241.003 194.931 237.473L170.896 206.872C164.14 197.873 164.091 196.697 171.711 188.536C171.248 187.46 170.83 186.53 170.088 185.642C167.79 186.973 165.797 188.888 163.469 190.158C162.423 190.728 162.858 192.155 162.859 193.166L162.903 203.685C162.918 206.036 163.297 209.193 162.625 211.447L162.555 211.672C161.78 214.23 160.619 215.155 158.764 216.587L158.504 216.774C157.651 217.242 156.106 217.189 155.164 217.197L10.0587 217.214C8.75964 217.213 7.16075 217.379 5.90863 216.998L4.97444 216.692C-1.56112 214.199 0.223249 203.167 0.220804 197.188L0.215912 18.6946C0.213955 11.3733 -1.73905 1.07875 8.2089 0.849944Z" fill="#0F0A14"/>
<path d="M126.602 26.627L137.211 38.3225C136.021 38.3199 134.704 38.4432 133.503 38.45L126.638 38.4878L126.602 26.627Z" fill="#433360"/>
<path d="M191.211 189.631C192.25 190.574 193.069 191.832 193.894 192.986L206.551 209.687C209.397 213.37 212.26 217.196 215.391 220.597L207.092 228.129C206.82 228.377 206.974 228.32 206.637 228.319L183.117 197.713C185.478 194.893 188.331 191.788 191.211 189.631Z" fill="#433360"/>
<path d="M131.757 89.3975L131.894 89.3765C141.642 88.2623 154.058 92.8973 161.426 99.5244C190.738 125.888 177.641 177.853 137.518 181.137C134.634 181.181 131.715 181.294 128.845 180.958C95.4267 177.038 80.4433 133.361 101.709 105.98C109.433 96.035 119.763 90.5405 131.757 89.3975Z" fill="white"/>
<path d="M14.9714 16.6738L111.717 16.7342L111.743 44.2297C111.771 51.4577 114.02 54.2475 121.416 54.3015L148.053 54.3703L148.133 74.9222C147.099 74.5302 145.835 74.4022 144.751 74.2075C109.303 67.8239 76.1226 97.0339 76.7985 136.207C77.1028 153.836 83.6974 169.159 95.4956 181.322C104.506 190.404 116.893 196.281 129.185 197.34C133.568 197.718 143.463 197.613 147.899 196.392L148.059 201.232C147.383 201.431 146.36 201.293 145.645 201.289L15.0218 201.249C14.8174 199.432 14.9724 197.396 14.971 195.553L14.9714 16.6738Z" fill="#BD4A46"/>
<path d="M28.9932 162.058L60.5607 162.031L60.5861 178.296C60.5881 178.817 60.6702 179.475 60.4628 179.944C59.0537 179.602 57.6651 179.717 56.4688 179.715L28.9805 179.723L28.9932 162.058Z" fill="#F2C38F"/>
<path d="M28.9742 127.214L60.5651 127.174L60.5612 145.44L28.9355 145.427L28.9742 127.214Z" fill="#F2C38F"/>
<path d="M41.8342 71.3357L76.9526 71.4285L76.8651 89.1403L64.4505 89.145L28.9863 89.0947L28.9785 71.4144C30.3348 71.2155 31.8667 71.3535 33.2421 71.3504L41.8342 71.3357Z" fill="#F2C38F"/>
<path d="M33.0293 36.4013L88.9915 36.3809L88.991 54.7329L85.2386 54.7093L28.9775 54.6962C28.9785 53.0625 28.8498 36.8395 29.1159 36.4669L33.0293 36.4013Z" fill="#F2C38F"/>
</svg>
