<svg width="572" height="800" viewBox="0 0 572 800" fill="none" xmlns="http://www.w3.org/2000/svg">
<g id="Frame 157" clip-path="url(#clip0_1368_44568)">
<g id="Group 356" filter="url(#filter0_d_1368_44568)">
<path id="Union" fill-rule="evenodd" clip-rule="evenodd" d="M173.054 412.131C177.348 407.674 183.457 402.468 189.283 400.234C189.446 400.823 189.608 401.444 189.774 402.082C190.606 405.274 191.558 408.925 193.44 411.358C194.111 412.407 194.757 413.461 195.402 414.512C196.855 416.879 198.298 419.231 199.986 421.487C215.608 442.361 238.649 460.047 264.42 465.658C268.908 466.635 273.772 467.366 278.372 467.13C283.71 466.858 289.229 465.497 294.318 463.913C305.231 460.515 315.725 455.424 325.335 449.25C325.585 449.089 325.836 448.928 326.09 448.766C329.203 446.771 332.553 444.625 335.216 442.144L335.707 441.949C338.699 443.494 341.912 444.687 345.091 445.868C345.956 446.189 346.818 446.509 347.673 446.835L361.814 452.342C361.939 452.375 362.07 452.407 362.204 452.44C363.217 452.692 364.442 452.997 365.192 453.654L365.388 453.563L410.942 469.168C416.999 471.486 423.13 473.783 429.257 476.078C476.022 493.599 522.54 511.027 533.974 537.093C534.149 537.093 534.324 537.092 534.5 537.091L534.78 539.104C535.991 542.442 536.633 545.922 536.634 549.559H536.233L571.023 799.905H443.981C444.31 798.078 444.771 746.512 445.28 689.562L445.28 689.56L445.28 689.558C445.772 634.641 446.308 574.717 446.813 549.559H446.778C446.273 574.721 445.737 634.669 445.246 689.608L445.246 689.61C444.737 746.58 444.276 798.164 443.947 799.991H-0.00188973L34.6794 549.559H34.4096L36.1124 535.25C37.6338 524.711 39.9164 514.129 43.543 504.1C46.2 496.752 49.6937 489.517 55.0524 483.737C62.804 475.377 72.0995 469.378 81.6834 463.389L122.053 440.662L168.913 416.727L170.418 415.382L170.533 415.035C170.914 414.259 171.792 413.389 172.52 412.667C172.712 412.476 172.894 412.296 173.054 412.131Z" fill="#16494E"/>
<path id="Vector 53" d="M115.367 800L136.022 595.686L147.431 800H115.367Z" fill="#0B282C"/>
<path id="Vector 54" d="M429.016 800L449.671 595.686L461.079 800H429.016Z" fill="#0B282C"/>
<g id="Group 165">
<path id="Vector" d="M176.942 223.452L170.36 206.76C169.602 204.892 168.88 202.021 167.527 200.558C165.133 199.65 162.065 200.313 159.652 200.899C157.781 201.699 156.082 202.545 154.433 203.753C148.902 208.536 145.897 213.987 145.398 221.381C144.545 234.022 150.206 247.695 158.499 257.078C166.155 265.738 176.374 272.588 186.416 278.201C187.041 278.587 187.243 278.561 187.989 278.585C188.418 278.213 188.798 277.863 189.3 277.59L189.586 277.45C186.774 267.515 183.563 257.952 181.656 247.774L179.476 232.192C179.267 230.46 179.21 228.721 178.888 227.003L178.837 226.743C178.042 225.839 177.516 224.522 176.942 223.452Z" fill="#F8C39E"/>
<path id="Vector_2" d="M176.94 223.453C175.438 223.174 173.917 220.411 173.071 219.188C171.847 217.416 170.56 215.695 169.109 214.101C167.948 212.826 166.621 211.787 165.092 210.985L164.786 210.819C163.342 210.093 160.778 210.305 159.225 210.613L158.807 210.693C157.301 211.008 155.528 211.804 154.393 212.856C150.768 222.415 153.951 231.542 157.68 240.449C157.281 237.001 157.182 233.891 157.873 230.462C158.565 227.025 160.103 221.755 163.235 219.754C164.322 219.06 165.514 219.447 166.666 219.766C169.637 220.589 172.368 222.302 174.833 224.113C175.564 224.651 176.444 225.173 176.975 225.914C173.833 227.319 170.733 228.91 169.376 232.322C167.572 236.857 168.027 242.239 170.012 246.631C171.992 251.013 175.915 255.056 180.26 257.104C181.058 257.48 181.534 257.589 181.955 258.365C182.58 258.751 182.782 258.726 183.528 258.749C183.957 258.378 184.337 258.027 184.839 257.754L185.125 257.615C182.313 247.68 183.561 257.953 181.654 247.775L179.474 232.194C179.265 230.461 179.208 228.722 178.886 227.004L178.835 226.745C178.04 225.84 177.514 224.524 176.94 223.453Z" fill="#C59171"/>
<path id="Vector_3" d="M389.827 415.047C385.835 429.58 375.846 442.926 365.392 453.567L410.947 469.172C473.166 491.447 512.08 523.492 536.68 549.563L530.903 523.492C526.833 509.834 521.715 494.723 512.08 483.849C507.074 478.2 500.734 474.309 494.335 470.445L473.166 458.42L412.573 426.385L389.827 415.047Z" fill="#0B282C"/>
<path id="Vector_4" d="M345.376 321.735C345.041 321.257 347.791 307.282 348.134 305.164L337.345 313.967C335.324 315.526 333.28 317.225 331.067 318.508C325.641 322.801 319.776 326.339 313.834 329.857C304.632 335.305 294.287 341.2 283.892 343.877C279.774 344.937 275.392 345.194 271.16 345.376C267.814 345.519 264.41 345.69 261.077 345.297C257.732 344.904 254.453 344.312 251.298 343.098C242.095 339.554 233.715 331.975 226.383 325.508C225.902 326.387 225.822 330.068 226.114 331.12C226.156 336.225 226.37 341.579 225.764 346.643L223.344 378.422L189.28 400.233C190.26 403.763 191.178 408.436 193.438 411.357C195.618 414.769 197.546 418.228 199.984 421.485C215.606 442.359 238.646 460.045 264.418 465.657C268.905 466.634 273.77 467.364 278.369 467.129C283.707 466.857 289.227 465.496 294.316 463.911C305.228 460.514 315.723 455.423 325.332 449.249C328.65 447.117 332.334 444.825 335.214 442.143L335.705 441.948C339.51 443.913 343.674 445.309 347.67 446.834L361.812 452.341C362.882 452.617 364.34 452.908 365.19 453.652L365.386 453.561C375.839 442.921 385.829 429.575 389.82 415.042C387.401 413.342 385.197 410.858 383.031 408.823L369.813 396.689C367.48 394.266 363.6 392.749 360.631 391.236L344.264 382.977C343.483 380.367 343.593 376.995 343.423 374.259C342.664 362.041 342.995 349.61 343.916 337.412L345.376 321.735Z" fill="#AE7B63"/>
<path id="Vector_5" d="M369.82 396.69C367.487 394.268 363.607 392.75 360.638 391.237L344.271 382.979C345.716 390.883 352.062 398.219 357.953 403.415C360.679 405.82 363.701 407.868 366.38 410.332C367.16 409.537 367.535 408.288 367.889 407.243C369.059 403.799 369.553 400.304 369.82 396.69Z" fill="#370807"/>
<path id="Vector_6" d="M389.82 415.046C387.401 413.347 385.197 410.862 383.031 408.828L369.813 396.693C369.546 400.307 369.052 403.802 367.882 407.246C367.528 408.291 367.153 409.54 366.373 410.335C364.378 413.117 362.586 415.985 360.44 418.67C353.478 427.375 344.704 435.391 335.705 441.952C339.51 443.917 343.674 445.313 347.67 446.838L361.812 452.346C362.882 452.621 364.34 452.913 365.19 453.657L365.386 453.566C375.839 442.925 385.829 429.579 389.82 415.046Z" fill="#620E12"/>
<path id="Vector_7" d="M345.391 321.735C345.056 321.257 347.805 307.282 348.148 305.164L337.359 313.967C335.338 315.526 333.294 317.225 331.082 318.508C325.655 322.801 319.791 326.339 313.849 329.857C304.647 335.305 294.301 341.2 283.906 343.877C279.789 344.937 275.406 345.194 271.174 345.376C267.828 345.519 264.424 345.69 261.092 345.297C257.746 344.904 254.467 344.312 251.312 343.098C242.109 339.554 233.729 331.975 226.397 325.508C225.917 326.387 225.836 330.068 226.128 331.12L248.511 350.53C256.31 356.768 264.48 363.246 274.672 364.611C288.75 366.497 302.912 356.757 313.504 348.7L329.941 335.185C334.914 330.768 339.791 325.961 345.098 321.953L345.391 321.735Z" fill="#362624"/>
<path id="Vector_8" d="M225.761 346.643L223.341 378.422L189.278 400.233C190.257 403.762 191.176 408.436 193.435 411.356C195.615 414.769 197.543 418.228 199.981 421.485C215.603 442.359 238.643 460.045 264.415 465.656C268.902 466.634 273.767 467.364 278.366 467.129C283.704 466.856 289.224 465.495 294.313 463.911C305.225 460.513 315.72 455.422 325.329 449.248C328.647 447.117 332.331 444.825 335.211 442.142C287.691 415.171 307.982 446.619 225.761 346.643Z" fill="#F8C39E"/>
<path id="Vector_9" d="M223.352 378.426L189.288 400.237C190.268 403.767 191.186 408.44 193.445 411.36C199.356 408.655 205.609 405.465 210.819 401.577C214.847 398.57 219.226 394.069 221.028 389.255C222.33 385.777 222.804 382.079 223.352 378.426Z" fill="#370807"/>
<path id="Vector_10" d="M170.421 415.383L168.916 416.727C169.581 419.981 171.935 423.586 173.539 426.512C183.756 445.158 198.973 460.81 216.657 472.48C240.038 487.91 268.68 495.629 296.468 489.866C318.086 485.382 337.232 476.006 354.679 462.555C358.156 459.875 362.302 456.944 365.195 453.654C364.346 452.91 362.887 452.618 361.817 452.343L355.445 457.675C337.446 471.417 317.256 482.089 294.947 486.694C285.647 488.614 276.741 489.472 267.291 488.197C233.886 483.689 204.396 464.802 184.41 437.892C180.861 433.113 177.716 428.163 174.739 423.015C173.373 420.652 172.226 417.702 170.576 415.576L170.421 415.383Z" fill="#710303"/>
<path id="Vector_11" d="M189.289 400.234C183.463 402.468 177.354 407.674 173.06 412.131C172.297 412.922 171.021 414.054 170.539 415.035L170.424 415.382L170.579 415.576C172.229 417.701 173.376 420.652 174.742 423.014C177.72 428.163 180.864 433.113 184.413 437.891C204.399 464.802 233.889 483.688 267.294 488.196C276.744 489.471 285.651 488.613 294.95 486.694C317.26 482.089 337.45 471.417 355.448 457.675L361.82 452.342L347.679 446.835C343.683 445.31 339.519 443.914 335.714 441.949L335.223 442.144C332.342 444.827 328.659 447.118 325.341 449.25C315.731 455.424 305.237 460.515 294.324 463.913C289.235 465.497 283.716 466.858 278.378 467.13C273.778 467.366 268.914 466.635 264.426 465.658C238.655 460.047 215.614 442.361 199.993 421.487C197.555 418.229 195.627 414.77 193.446 411.358C191.187 408.438 190.269 403.764 189.289 400.234Z" fill="#A62322"/>
<path id="Vector_12" d="M336.659 7.10174C327.758 4.30705 318.739 2.09148 309.472 0.924521C303.061 0.117298 296.61 -0.049892 290.155 0.0115241C267.054 0.231317 243.796 5.35032 223.236 16.0641C207.071 24.4876 193.683 36.4068 184.171 52.0081C181.944 55.6605 179.623 59.6751 178.278 63.755L177.908 65.2174L177.221 66.9918C163.387 73.7527 154.931 87.3387 150.061 101.526C141.639 126.066 142.927 155.275 148.412 180.336L151.931 194.596C152.766 197.577 154.042 200.684 154.429 203.752C156.078 202.545 157.777 201.699 159.648 200.899C162.061 200.313 165.129 199.65 167.522 200.557C168.876 202.021 169.598 204.892 170.356 206.76L176.937 223.452C177.511 224.522 178.037 225.839 178.833 226.743L178.884 227.002C179.206 228.721 179.262 230.459 179.472 232.192L181.652 247.774C183.559 257.951 186.77 267.515 189.582 277.45C195.152 292.907 205 305.488 216.739 316.792L223.169 322.695C224.073 323.485 225.727 324.562 226.39 325.511C233.722 331.977 242.103 339.557 251.305 343.1C254.461 344.315 257.739 344.906 261.085 345.3C264.417 345.693 267.822 345.522 271.167 345.378C275.399 345.197 279.782 344.94 283.899 343.88C294.294 341.202 304.64 335.308 313.842 329.86C319.784 326.342 325.649 322.804 331.075 318.511C333.287 317.228 335.331 315.529 337.352 313.969L348.142 305.167C350.784 302.017 354.289 299.379 357.121 296.342C363.625 289.366 368.949 281.648 373.987 273.579C375.767 275.352 377.603 276.638 380.14 276.966C387.467 277.913 394.535 273.486 399.984 269.087C412.575 258.923 423.914 242.315 425.463 225.9C426.206 218.031 424.759 210.676 419.618 204.558L426.54 193.432C432.266 183.828 436.47 174.04 438.501 163.002L438.753 163.003C443.612 166.189 447.426 170.896 449.682 176.229L450.107 173.795C453.231 152.713 451.766 131.299 439.492 113.141C437.668 110.444 435.682 107.845 433.537 105.395C431.829 103.447 429.889 101.61 428.346 99.5326C432.067 100.674 435.844 101.794 439.367 103.469C442.239 104.835 444.93 106.564 447.81 107.89C446.528 103.269 444.068 98.7628 441.758 94.5821C436.789 85.5912 431.118 76.8247 424.453 68.9923C401.794 42.363 370.786 22.6806 336.096 16.575C331.933 15.8422 327.665 15.5673 323.455 15.2322C328.757 11.8548 334.902 9.75453 341.092 8.80347C339.684 8.07209 338.158 7.61356 336.659 7.10174Z" fill="#1E100E"/>
<path id="Vector_13" d="M177.226 66.9902C163.392 73.7512 154.936 87.3371 150.067 101.525C141.644 126.065 142.932 155.274 148.417 180.334L151.936 194.595C152.772 197.576 154.047 200.682 154.434 203.751C156.083 202.543 157.782 201.697 159.653 200.897L159.378 199.235L158.261 166.869C158.275 150.461 158.937 133.333 164.949 117.868C167.817 110.491 172.206 103.47 177.3 97.439C172.483 110.984 168.428 125.307 167.095 139.649L167.258 139.537C169.199 137.176 170.767 134.34 172.681 131.898C179.977 122.592 188 114.504 193.212 103.721C193.431 103.268 194.501 101.42 194.484 101.033C194.482 100.984 193.903 100.229 193.825 100.124L189.686 94.948C186.146 90.3318 183.078 85.4385 180.552 80.1984C178.476 75.8913 176.866 71.8371 177.226 66.9902Z" fill="#362624"/>
<path id="Vector_14" d="M419.629 204.558L417.949 203.273C414.602 201.007 410.667 199.862 406.644 200.696C395.327 203.04 390.196 218.954 385.823 228.018C384.05 231.691 381.917 235.272 379.657 238.667C385.148 212.845 388.341 186.84 386.676 160.392L346.941 153.077C321.622 147.339 297.094 138.562 275.827 123.402C282.654 133.334 290.093 140.966 300.431 147.316C275.255 146.687 249.975 138.502 228.359 125.662C221.597 121.646 215.387 117.025 208.909 112.607C208.295 115.885 207.792 119.07 206.774 122.257C202.779 134.763 194.407 146.731 184.738 155.544L178.836 160.79C178.49 161.114 177.394 161.931 177.213 162.326C176.557 163.756 176.684 166.901 176.549 168.558C176.99 168.387 177.432 168.225 177.836 167.976C180.941 166.063 183.736 163.227 186.501 160.849C198.913 150.167 209.478 138.236 213.164 121.832C215.447 123.127 217.268 124.74 219.363 126.277C221.558 127.886 223.913 129.332 226.24 130.744C232.442 134.508 238.607 138.186 245.199 141.241C258.289 147.306 272.667 150.926 286.907 153.048C293.225 153.99 299.711 154.137 306.075 154.74C307.721 154.896 309.499 154.894 311.113 155.168C312.626 155.425 313.766 154.834 315.271 155.264C318.959 156.318 322.936 156.888 326.7 157.654C328.117 157.941 329.703 158.123 331.059 158.611C331.47 158.759 331.34 158.668 331.532 159.056L330.894 159.295C336.57 160.059 341.821 160.388 347.197 162.656C349.637 163.685 351.971 165.098 354.128 166.627C354.467 166.866 356.366 168.41 356.615 168.415C358.9 168.217 364.116 172.149 365.969 173.702C369.715 176.844 371.449 181.89 372.714 186.468C374.095 191.465 375.027 196.483 375.413 201.656C376.081 210.583 375.164 219.606 373.783 228.427C368.758 260.512 354.776 290.74 333.478 315.269C332.565 316.319 331.719 317.249 331.086 318.51C333.299 317.228 335.342 315.529 337.364 313.969L348.153 305.167C350.796 302.017 354.3 299.379 357.132 296.342C363.636 289.366 368.96 281.648 373.998 273.579C375.778 275.352 377.614 276.638 380.151 276.966C387.478 277.913 394.546 273.486 399.995 269.087C412.587 258.923 423.925 242.315 425.474 225.9C426.217 218.031 424.77 210.676 419.629 204.558Z" fill="url(#paint0_linear_1368_44568)"/>
<path id="Vector_15" d="M408.603 210.49C406.747 210.435 405.424 210.509 403.762 211.459L403.485 211.622C401.596 212.696 399.778 214.676 398.548 216.462C396.825 218.966 395.17 221.392 393.814 224.128C390.176 231.464 387.949 239.655 385.128 247.334L376.662 267.591C383.568 263.385 391.995 259.541 396.757 252.7C398.597 250.056 399.933 247.455 401.006 244.425L401.301 243.317C402.295 239.332 402.346 234.398 400.048 230.811C398.544 228.462 396.751 228.175 394.215 227.684C394.466 226.816 395.328 225.829 395.834 225.065C396.891 223.468 398.577 220.094 400.337 219.304C401.693 218.696 404.013 219.172 405.346 219.637C407.489 220.387 409.155 222.828 410.013 224.82C412.361 230.267 412.548 236.675 411.524 242.477C411.123 244.746 410.351 246.927 409.922 249.192C410.569 248.332 411.028 247.135 411.53 246.171C413.607 242.185 415.099 238.049 415.83 233.6C416.651 228.603 416.832 222.743 415.053 217.937C413.732 214.367 412.104 212.083 408.603 210.49Z" fill="#AE7B63"/>
<path id="Vector_16" d="M336.671 7.10174C327.77 4.30705 318.752 2.09148 309.484 0.924521C303.074 0.117298 296.622 -0.049892 290.168 0.0115241C267.066 0.231317 243.808 5.35032 223.248 16.0641C207.083 24.4876 193.695 36.4068 184.183 52.0081C181.956 55.6605 179.635 59.6751 178.291 63.755L177.92 65.2174C179.106 66.321 179.864 68.0971 180.687 69.4925L184.937 76.1899C188.284 81.1439 192.011 85.8562 195.962 90.3402C211.735 108.245 232.121 121.342 253.847 130.82C261.883 134.325 269.822 137.431 278.232 139.929L288.238 142.838C290.031 143.307 291.825 143.881 293.683 143.999L288.809 141.419C282.995 137.627 277.874 132.395 273.235 127.269C259.016 111.559 245.923 92.0064 241.502 71.0007C251.691 84.6514 264.622 97.2843 279.473 105.824C305.19 120.61 335.922 124.581 364.648 129.806C362.449 128.051 359.586 126.781 357.164 125.307C352.837 122.674 348.527 119.732 344.522 116.621C333.411 107.991 322.852 98.2018 313.291 87.8842L302.257 75.2026C316.1 83.7442 331.164 90.4856 346.111 96.8797C362.684 103.969 379.267 110.288 393.439 121.82C403.643 130.124 412.32 140.696 419.867 151.428C418.924 148.293 417.5 145.299 416.274 142.266C414.291 137.359 412.387 132.468 409.987 127.741C406.978 121.814 403.408 116.113 399.724 110.586C386.246 90.3649 369.439 72.2714 349.43 58.3781C336.539 49.4267 322.913 42.5147 307.43 39.4427C311.603 38.848 316.336 39.3975 320.502 39.8256C337.186 41.5382 354.811 46.1481 369.922 53.5467C373.851 55.4704 377.621 57.7164 381.345 60.0094C383.443 61.3007 385.437 62.7711 387.623 63.9136C384.086 60.0472 380.042 56.4875 376.062 53.083C366.087 44.55 355.318 37.1732 343.696 31.0608C337.898 28.0112 331.811 25.2649 325.5 23.4665C309.569 18.9272 292.953 20.1021 277.286 24.9684C291.178 13.7553 306.171 7.89516 324.091 7.32141L330.841 7.43869C333.06 7.54172 334.486 7.91881 336.671 7.10174Z" fill="#362624"/>
<path id="Vector_17" d="M331.344 159.463L331.981 159.223C331.79 158.836 331.92 158.926 331.508 158.779C330.153 158.291 328.567 158.109 327.15 157.821C323.386 157.056 319.408 156.485 315.721 155.432C314.216 155.002 313.076 155.593 311.562 155.336C309.949 155.062 308.171 155.064 306.524 154.908C300.161 154.305 293.675 154.157 287.357 153.216C273.117 151.094 258.739 147.473 245.648 141.408C239.057 138.354 232.891 134.675 226.69 130.912C224.363 129.5 222.008 128.054 219.812 126.445C217.718 124.908 215.897 123.294 213.614 122C209.928 138.403 199.363 150.335 186.951 161.016C184.186 163.395 181.391 166.231 178.286 168.143C177.881 168.392 177.44 168.554 176.999 168.725L179.294 226.91L179.345 227.17C179.666 228.888 179.723 230.627 179.933 232.36L182.113 247.941C184.02 258.119 187.231 267.683 190.043 277.617C195.612 293.074 205.461 305.656 217.2 316.96L223.63 322.862C224.534 323.653 226.188 324.729 226.851 325.678C234.183 332.145 242.563 339.724 251.766 343.268C254.922 344.483 258.2 345.074 261.546 345.468C264.878 345.86 268.283 345.689 271.628 345.546C275.86 345.365 280.243 345.108 284.36 344.048C294.755 341.37 305.101 335.476 314.303 330.027C320.245 326.509 326.109 322.971 331.536 318.678C332.168 317.417 333.014 316.487 333.927 315.436C355.226 290.908 369.208 260.68 374.233 228.595C375.614 219.774 376.531 210.751 375.863 201.824C375.477 196.651 374.544 191.633 373.163 186.635C371.898 182.057 370.165 177.012 366.418 173.87C364.566 172.317 359.35 168.385 357.065 168.582C356.816 168.577 354.916 167.034 354.578 166.794C352.42 165.265 350.087 163.852 347.647 162.823C342.27 160.555 337.019 160.226 331.344 159.463Z" fill="#F8C39E"/>
<path id="mouth" d="M243 280L245.734 280.778L246.196 280.868C251.263 281.888 257.133 281.497 262.303 281.531C273.414 281.601 284.822 282.121 295.818 280.409L291.368 283.334C287.227 285.516 282.449 286.971 277.843 287.736C265.331 289.815 253.331 287.412 243 280Z" fill="#F7C1A4"/>
<path id="Vector_18" d="M316.306 188.559C319.821 187.532 323.463 186.24 327.076 185.662C333.75 184.594 340.971 185.758 346.322 190.054C350.355 193.292 352.46 197.063 353.228 202.161C353.057 202.61 354.471 198.935 354.106 199.29C354.386 200.275 354.654 201.131 354.602 202.161L354.926 201.268C356.104 198.82 356.031 195.337 355.496 192.672C354.69 188.653 352.161 184.772 348.716 182.52C327.106 168.392 302.451 179.402 302.451 205.705L303.089 205.73C314.984 203.084 304.411 191.205 316.306 188.559Z" fill="#C59171"/>
<path id="Vector_19" d="M235.666 188C232.151 186.974 228.509 185.682 224.896 185.104C218.222 184.036 215.34 184.751 209.99 189.047C205.957 192.285 203.851 196.056 203.084 201.154C203.254 201.603 201.84 197.928 202.206 198.283C201.926 199.268 201.658 200.124 201.709 201.154L198.078 198.392C198.076 171.371 249.522 165.757 249.522 205.147L248.883 205.172C236.988 202.525 247.561 190.647 235.666 188Z" fill="#C59171"/>
<path id="Vector_20" d="M288.932 247.326C287.22 247.639 285.678 248.524 284.12 249.269L274.903 254.084C278.838 253.526 285.617 253.903 288.14 250.486C288.774 249.628 288.914 248.684 289.078 247.655L288.932 247.326Z" fill="#1E100E"/>
<path id="Vector_21" d="M254.773 246.766L254.339 247.518C254.934 249.574 256.665 251.513 258.398 252.755C261.79 252.872 265.163 253.725 268.539 254.099C264.591 251.608 259.414 247.395 254.773 246.766Z" fill="#1E100E"/>
<path id="Vector_22" d="M330.89 159.294C324.937 159.068 304.501 158.543 300.166 162.265C299.129 163.155 298.709 164.571 298.638 165.899C298.525 168.02 299.252 172.033 300.454 173.802C301.686 174.065 303.144 173.892 304.405 173.852L315.018 173.033C322.093 171.656 329.598 170.946 336.795 170.905C339.546 170.889 342.395 170.771 345.127 171.123C351.784 171.98 357.876 173.763 363.107 178.184C364.995 179.78 366.569 181.756 368.164 183.638C365.49 176.833 362.156 173.049 356.611 168.414C356.363 168.409 354.463 166.865 354.125 166.626C351.967 165.097 349.633 163.684 347.193 162.654C341.817 160.387 336.566 160.058 330.89 159.294Z" fill="#1E100E"/>
<path id="Vector_23" d="M251.193 173.836C251.92 171.253 253.158 166.317 251.634 163.859C249.874 161.019 240.968 159.839 237.79 159.327C224.388 157.162 209.894 156.998 198.477 165.358C192.784 169.526 188.638 175.022 185.673 181.367C187.231 179.608 188.789 177.599 190.591 176.1C194.879 172.531 200.362 171.683 205.737 171.344C220.186 170.434 234.657 172.015 248.872 174.43L250.794 174.546L251.193 173.836Z" fill="#1E100E"/>
<path id="Vector_24" d="M249.189 203.003C249.389 199.629 246.751 194.511 244.791 191.795C241.598 187.369 237.376 184.272 231.869 183.46C222.422 182.067 213.435 185.209 205.867 190.762C203.589 192.433 201.433 194.442 199.465 196.463C198.862 197.083 198.187 197.53 198.058 198.397C198.761 199.029 199.187 199.255 200.091 199.536L200.443 199.951C201.686 201.437 202.646 203.157 203.872 204.672C208.803 210.767 215.452 216.009 223.484 216.787C232.525 217.663 241.343 211.939 248.018 206.408L249.508 205.136L249.189 203.003Z" fill="url(#paint1_linear_1368_44568)"/>
<path id="Vector_25" d="M223.528 191.107C222.858 191.118 222.19 191.14 221.546 191.347C220.26 191.761 219.539 192.525 218.916 193.683C218.828 194.457 218.72 195.254 219.055 195.986C219.581 197.139 220.604 197.595 221.715 198.035C222.533 198.056 223.737 198.046 224.462 197.621C225.342 197.106 225.91 196.316 226.17 195.329C226.418 194.385 226.39 193.477 225.85 192.633C225.252 191.699 224.562 191.379 223.528 191.107Z" fill="#FEFEFE"/>
<path id="Vector_26" d="M230.908 188.246H230.122C230.401 188.659 230.251 188.529 230.669 188.792C231.847 189.533 232.812 190.22 233.668 191.337C234.984 193.051 235.939 195.314 235.602 197.509C235.275 199.64 234.241 201.543 232.458 202.798C230.704 204.034 228.073 204.851 225.928 204.32C223.32 203.674 222.109 201.19 220.607 199.264C219.845 198.287 219.094 197.417 218.403 196.369C217.725 199.734 217.537 201.767 218.763 205.048C219.693 206.541 220.75 207.702 222.312 208.55C224.996 210.007 228.722 210.425 231.644 209.452L232.063 209.303L233.148 208.893C236.096 207.577 238.616 205.006 239.709 201.944L239.845 201.554L240.222 200.421C240.808 197.953 240.057 194.585 238.586 192.539C236.84 190.111 233.812 188.574 230.908 188.246Z" fill="#16494E"/>
<path id="Vector_27" d="M249.189 202.999C246.857 197.696 244.129 193.65 239.345 190.356C240.82 193.125 241.766 196.247 241.524 199.412C241.259 202.879 239.112 206.257 236.466 208.408C234.032 210.385 230.083 211.801 226.948 211.429C223.204 210.986 220.141 209.589 217.811 206.546C215.586 203.64 215.237 200.123 215.798 196.634C216.423 192.745 218.809 190.459 221.83 188.229C214.121 188.754 205.762 194.63 200.091 199.532L200.443 199.947C201.686 201.433 202.646 203.153 203.872 204.668C208.803 210.763 215.452 216.005 223.484 216.783C232.525 217.659 241.343 211.935 248.018 206.404L249.508 205.132L249.189 202.999Z" fill="#FEFEFE"/>
<path id="Vector_28" d="M354.107 199.291C350.851 192.708 346.305 188.279 339.28 185.867C331.949 183.35 322.584 183.893 315.637 187.39C310.251 190.101 305.318 195.158 303.411 200.932C303.091 201.901 302.888 202.831 302.802 203.845C302.577 204.495 302.49 205.021 302.45 205.706C303.575 208.605 306.283 211.285 308.782 213.057C314.473 217.093 321.209 219.874 328.314 218.849L331.641 218.262C340.982 216.051 347.888 210.129 352.854 202.046L354.104 202.711L354.603 202.163C354.654 201.132 354.387 200.276 354.107 199.291Z" fill="#1E100E"/>
<path id="Vector_29" d="M326.732 190.665C326.097 190.662 325.447 190.658 324.83 190.826C323.67 191.144 322.659 191.836 322.13 192.941C321.758 193.72 321.835 194.498 322.162 195.278C322.73 196.628 323.637 197.172 324.926 197.748C325.308 197.795 325.685 197.854 326.071 197.795C327.357 197.602 328.796 196.751 329.491 195.646C329.932 194.944 330.153 194.023 329.833 193.217C329.326 191.941 327.899 191.196 326.732 190.665Z" fill="#FEFEFE"/>
<path id="Vector_30" d="M337.649 195.686L337.064 195.739C337.242 196.799 337.471 197.857 337.204 198.92C336.618 201.247 335.145 203.219 333.005 204.332C331.41 205.162 330.768 205.287 329.089 204.689C325.906 203.556 325.38 202.096 323.938 199.406C323.595 198.764 322.88 198.403 322.191 198.251C321.197 198.031 320.059 198.005 319.186 198.516C318.901 201.009 319.869 203.33 321.13 205.431C321.919 206.579 322.993 207.769 324.102 208.618C326.5 210.451 329.512 211.17 332.483 210.678C335.406 210.195 338.123 208.414 339.831 206.034C341.144 204.203 342.631 201.647 341.901 199.298C341.344 197.507 339.203 196.41 337.649 195.686Z" fill="#16494E"/>
<path id="Vector_31" d="M352.867 202.046C349.486 197.647 347.181 193.608 342.046 190.986C343.97 195.281 344.802 199.21 343.013 203.773C341.639 207.275 338.668 209.934 335.232 211.349C331.906 212.719 328.503 212.452 325.208 211.033C322.069 209.682 319.677 206.723 318.524 203.559C317.178 199.87 317.783 195.762 319.47 192.255C320.35 190.423 321.886 188.899 323.579 187.803C320.496 188.645 317.347 189.513 314.505 191.014C309.931 193.429 306.13 197.811 303.616 202.271L302.815 203.845C302.59 204.494 302.503 205.02 302.463 205.706C303.588 208.605 306.297 211.285 308.795 213.057C314.486 217.092 321.223 219.874 328.327 218.848L331.655 218.262C340.995 216.051 347.901 210.129 352.867 202.046Z" fill="#FEFEFE"/>
<path id="Vector_32" d="M290.438 235.148L291.533 237.281C293.002 240.458 294.203 246.466 292.565 249.786L292.313 250.179L291.684 251.119C289.916 253.33 286.853 254.667 284.097 254.996L282.511 255.346L281.984 254.996C284.574 253.007 287.865 253.021 290.108 250.158C292.849 246.659 291.019 239.341 290.438 235.148Z" fill="#C59171"/>
<path id="Vector_33" d="M262.832 190.664C276.548 204.235 259.283 228.075 253.741 242.455C252.513 245.637 252.798 250.953 256.212 252.81C257.408 253.514 258.851 254.07 259.919 254.934C259.919 256.408 255.263 254.007 254.622 253.646C250.123 251.065 250.337 245.266 251.816 240.418C257.209 222.725 269.952 211.125 262.832 190.664Z" fill="#C59171"/>
</g>
</g>
</g>
<defs>
<filter id="filter0_d_1368_44568" x="0" y="0" width="591.023" height="820" filterUnits="userSpaceOnUse" color-interpolation-filters="sRGB">
<feFlood flood-opacity="0" result="BackgroundImageFix"/>
<feColorMatrix in="SourceAlpha" type="matrix" values="0 0 0 0 0 0 0 0 0 0 0 0 0 0 0 0 0 0 127 0" result="hardAlpha"/>
<feOffset dx="20" dy="20"/>
<feComposite in2="hardAlpha" operator="out"/>
<feColorMatrix type="matrix" values="0 0 0 0 0 0 0 0 0 0 0 0 0 0 0 0 0 0 0.25 0"/>
<feBlend mode="normal" in2="BackgroundImageFix" result="effect1_dropShadow_1368_44568"/>
<feBlend mode="normal" in="SourceGraphic" in2="effect1_dropShadow_1368_44568" result="shape"/>
</filter>
<linearGradient id="paint0_linear_1368_44568" x1="367.563" y1="138.442" x2="241.209" y2="243.925" gradientUnits="userSpaceOnUse">
<stop stop-color="#B58467"/>
<stop offset="1" stop-color="#D19F7D"/>
</linearGradient>
<linearGradient id="paint1_linear_1368_44568" x1="211.597" y1="184.929" x2="235.958" y2="208.967" gradientUnits="userSpaceOnUse">
<stop stop-color="#0F0704"/>
<stop offset="1" stop-color="#301910"/>
</linearGradient>
<clipPath id="clip0_1368_44568">
<rect width="571.025" height="800" fill="white"/>
</clipPath>
</defs>
</svg>
