<?xml version="1.0" encoding="utf-8"?>
<!-- Generator: Adobe Illustrator 28.1.0, SVG Export Plug-In . SVG Version: 6.00 Build 0)  -->
<svg version="1.1" id="Слой_1" xmlns="http://www.w3.org/2000/svg" xmlns:xlink="http://www.w3.org/1999/xlink" x="0px" y="0px"
	 width="100px" height="100px" viewBox="0 0 100 100" style="enable-background:new 0 0 100 100;" xml:space="preserve">
<style type="text/css">
	.st0{fill:#BD4A46;}
	.st1{fill:#AA3632;}
	.st2{fill:#FAA073;}
</style>
<path class="st0" d="M23.3,99.3h-5.6c0.3-0.5,0.7-0.9,1.1-1.3l2.6-2.7l6.1-6.4l19.3-20.2l5.6-5.8c0.6-0.7,1.4-1.3,2-2
	c0.8-0.7,1.4-1.5,2.1-2.2c0.3-0.4,0.8-0.7,1.1-1.1l1.6-0.4l7.4-1.9C60.1,61.9,66.5,55.2,23.3,99.3z"/>
<path class="st0" d="M31.8,63.4c0.8-2.5,1.8-4.9,2.9-7.3c1.2-2.7,2.5-5.3,4-7.8c4.1-6.7,9.4-12.6,15.7-17.3c2.6-2,5.3-3.8,8.3-5.3
	c5.2-2.6,10.7-4.3,16.4-5l4.4-0.4c0.2,0,0.3-0.1,0.5-0.2c1.8,0,3.6,0.1,5.4,0.4c0.3,0,0.8,0,1.1,0.1L85.1,4.1L83.7,0
	c0.6,0.3,1.2,0.7,1.7,1l4.9,2.8l1.3,0.7c0.2,0.1,0.4,0.2,0.5,0.3c0.2,0.2,7.3,21.4,7.9,23.4c-10.5-3.9-22.9-2.3-32.9,2.3
	c-10.4,4.8-18.9,13.1-24.3,23.2c-1.4,2.5-2.5,5.2-3.5,7.9c-0.2,0.1-0.4,0.1-0.6,0.2l-1.1,0.2L31.8,63.4z"/>
<path class="st1" d="M83.7,0c0.6,0.3,1.2,0.7,1.7,1c0,1.2,0.7,2.4,1.1,3.6l2.1,6.1l3.5,10.3c-0.4,0-1.2,0-1.5-0.2L85.1,4.1L83.7,0z"
	/>
<path class="st2" d="M90.6,20.7c-0.3-0.1-0.8-0.1-1.1-0.1c-1.8-0.2-3.6-0.4-5.4-0.3c-0.2,0.1-0.3,0.1-0.5,0.2l-4.4,0.4
	c-5.8,0.7-11.3,2.3-16.5,5C59.7,27.2,57,29,54.4,31c-6.2,4.7-11.6,10.6-15.7,17.3c-1.5,2.5-2.8,5.1-4,7.8c-1.1,2.4-2,4.8-2.8,7.3
	l5.9-1.4l1.1-0.2c0.2,0,0.4,0,0.6-0.2c0.5,0,1.1-0.2,1.6-0.3l2.8-0.7l8.4-1.9c1.6-0.4,3.1-0.8,4.7-1.1l0.5-0.1
	c-0.3,0.4-0.7,0.7-1.1,1.1c-0.7,0.7-1.3,1.5-2.1,2.2c-0.6,0.7-1.3,1.3-2,2l-5.6,5.8L27.4,88.9l-6.1,6.4L18.8,98
	c-0.4,0.4-0.8,0.8-1.1,1.3L4.5,61.8L1.1,52l-0.8-2.3C0.2,49.4,0,49,0,48.6l0.2,0c0.6,0.1,1.2,0.4,1.8,0.6l3.4,1.2l7.9,2.6
	c0.8-2.5,2-4.9,3.1-7.3c6.8-14.5,18.1-27,31.7-35.3c2-1.2,4-2.3,6.1-3.3c3.6-1.8,7.5-3.3,11.3-4.4l3.6-0.9c2.3-0.5,4.6-1,6.9-1.2
	l5.1-0.4L83,0.1c0.2,0,0.5,0,0.8-0.1L85,4.1L90.6,20.7z"/>
<path class="st1" d="M30.2,63.8c3.4-10.9,9.6-21.3,18.1-29c3.8-3.5,8-6.4,12.5-8.8c7-3.7,15.3-5.8,23.2-5.7
	c-0.2,0.1-0.3,0.1-0.5,0.2l-4.4,0.4c-5.8,0.7-11.3,2.3-16.4,5C59.7,27.3,57,29,54.4,31c-6.2,4.7-11.6,10.6-15.7,17.3
	c-1.5,2.5-2.8,5.1-4,7.8c-1.1,2.4-2,4.8-2.9,7.3C31.3,63.6,30.8,63.7,30.2,63.8z"/>
</svg>
