<?xml version="1.0" encoding="utf-8"?>
<!-- Generator: Adobe Illustrator 28.1.0, SVG Export Plug-In . SVG Version: 6.00 Build 0)  -->
<svg version="1.1" id="Слой_1" xmlns="http://www.w3.org/2000/svg" xmlns:xlink="http://www.w3.org/1999/xlink" x="0px" y="0px"
	 width="142px" height="142px" viewBox="0 0 142 142" style="enable-background:new 0 0 142 142;" xml:space="preserve">
<style type="text/css">
	.st0{fill:#BD4A46;}
	.st1{fill:#AA3632;}
	.st2{fill:#FAA073;}
</style>
<g>
	<path class="st0" d="M129.2,83l-4,4c-61.7-0.6-52.5-0.3-61.7-0.6l6.6-3.9l1.5-0.8c0.5,0.1,1,0,1.5,0c1,0,2,0.1,3,0.1
		c0.9,0.1,1.9,0,2.8,0l8.1,0.2l27.9,0.7l8.8,0.2l3.8,0.1C128.1,82.9,128.7,82.8,129.2,83z"/>
	<path class="st0" d="M93.9,67.7l-5.1,3.2l-0.9,0.6c-0.2,0.1-0.3,0.3-0.6,0.3c-2.6-1.2-5.3-2.3-8-3.1c-10.9-3.3-22.8-3.2-33.5,0.8
		C35.3,73.2,25.5,80.8,20.8,91c-1-1.8-11-21.9-11-22.1c0-0.2,0.1-0.4,0.2-0.6l0.4-1.4l1.5-5.4v0c0.2-0.6,0.3-1.3,0.5-1.9l1.9,3.8
		L22.1,79c0.2-0.3,0.5-0.6,0.7-0.9c0.9-1.1,1.7-2.1,2.7-3.1c0.3-0.3,0.6-0.7,0.9-1h0c0.2-0.1,0.3-0.1,0.5-0.2l3.4-2.9h0
		c0.3-0.2,0.6-0.4,0.8-0.7c0,0,0,0,0,0c0.6-0.4,1.2-0.9,1.8-1.3c0,0,0,0,0,0c0.3-0.2,0.6-0.4,0.9-0.6c0,0,0,0,0,0
		c0.4-0.2,0.7-0.5,1.1-0.7c0.2-0.2,0.5-0.3,0.8-0.5c0.4-0.2,0.8-0.4,1.1-0.6c0.2-0.1,0.3-0.2,0.5-0.3c0.7-0.4,1.4-0.8,2.1-1.1
		c0.6-0.3,1.3-0.6,2-0.9c1.3-0.6,2.7-1.1,4.1-1.5c0.8-0.2,1.6-0.5,2.4-0.7c1.9-0.5,3.8-0.9,5.8-1.2c0.5-0.1,0.9-0.1,1.4-0.2
		c7.8-1.1,15.7-0.7,23.3,1.2c2.9,0.7,5.7,1.6,8.4,2.7C89.1,65.5,91.5,66.5,93.9,67.7z"/>
	<path class="st1" d="M22.1,79c-0.1,0.4-0.7,0.9-1,1.2l-4.8-9.7l-2.8-5.8c-0.5-1.1-0.9-2.4-1.8-3.3v0c0.2-0.6,0.3-1.3,0.5-1.9
		l1.9,3.8L22.1,79z"/>
	<path class="st2" d="M112,47.2l-4.5-9.4l-1.1-2.2c-0.2-0.3-0.3-0.7-0.5-1l-0.1,0.1c-0.3,0.5-0.6,1.1-0.9,1.7l-1.6,3.2l-3.7,7.4
		c-2.4-1.2-4.9-2.1-7.3-3c-15-5.4-31.9-6.3-47.4-2.5c-2.2,0.5-4.5,1.3-6.6,2c-3.8,1.3-7.6,3-11.1,4.9l-3.2,2c-2,1.2-3.9,2.5-5.7,4
		l-3.9,3.3L12.9,59c-0.2,0.2-0.4,0.4-0.6,0.5l1.9,3.8L22.1,79c0.2-0.3,0.5-0.6,0.7-0.9c0.9-1.1,1.7-2.1,2.7-3.1
		c0.3-0.3,0.6-0.7,0.9-1h0c5.5-5.7,12.9-10.1,20.4-12.4c4.9-1.5,10-2.4,15.1-2.6c11.5-0.5,23.2,2.4,33.3,7.8
		c-0.4,0.4-0.9,0.6-1.4,0.9l-5.1,3.2l-0.9,0.6c-0.2,0.1-0.3,0.3-0.6,0.3c-0.4,0.4-0.9,0.6-1.4,0.9l-2.5,1.5l-7.3,4.6
		c-1.4,0.8-2.8,1.6-4.1,2.5h0l-0.4,0.3c0.5,0.1,1,0,1.5,0c1,0,2,0.1,3,0.1c0.9,0.1,1.9,0,2.8,0l8.1,0.2l27.9,0.7l8.8,0.2l3.8,0.1
		c0.5,0,1.1,0,1.7,0.1L112,47.2z"/>
	<path class="st2" d="M26.4,74L26.4,74c-0.3,0.3-0.6,0.6-0.9,1C25.8,74.7,26.1,74.3,26.4,74z"/>
	<path class="st2" d="M95.2,66.7c-0.4,0.4-0.9,0.6-1.4,0.9c-2.3-1.2-4.8-2.2-7.2-3.1c-2.7-1.1-5.5-2-8.4-2.7
		C70.7,60,62.7,59.6,55,60.7c-0.5,0.1-0.9,0.1-1.4,0.2c-2,0.3-3.9,0.7-5.8,1.2c-0.8,0.2-1.6,0.4-2.4,0.7c-1.4,0.5-2.7,1-4.1,1.5
		c-0.7,0.3-1.3,0.6-2,0.9c-1.3,0.6-2.6,1.3-3.8,2c-0.6,0.4-1.2,0.8-1.8,1.1c0,0,0,0,0,0v0c-0.3,0.2-0.6,0.4-0.9,0.6c0,0,0,0,0,0v0
		c-0.6,0.4-1.2,0.8-1.8,1.2c0,0,0,0,0,0v0c-0.3,0.2-0.6,0.4-0.8,0.6h0v0l-3.4,2.9c-0.1,0.1-0.3,0.2-0.5,0.2
		c5.5-5.7,12.9-10.1,20.4-12.4c4.9-1.5,10-2.4,15.1-2.6C73.4,58.5,85.1,61.4,95.2,66.7z"/>
	<path class="st1" d="M95.2,66.7c-0.4,0.4-0.9,0.6-1.4,0.9c-2.3-1.2-4.8-2.2-7.2-3.1c-2.7-1.1-5.5-2-8.4-2.7
		C70.7,60,62.7,59.6,55,60.7c-0.5,0.1-0.9,0.1-1.4,0.2c-2,0.3-3.9,0.7-5.8,1.2c-0.8,0.2-1.6,0.4-2.4,0.7c-1.4,0.5-2.7,1-4.1,1.5
		c-0.7,0.3-1.3,0.6-2,0.9c-0.7,0.3-1.4,0.7-2.1,1.1c-0.2,0.1-0.3,0.2-0.5,0.3c-0.6,0.3-1.2,0.7-1.7,1c-0.4,0.2-0.8,0.5-1.2,0.8
		c0,0,0,0,0,0c-0.3,0.2-0.6,0.4-0.9,0.6c0,0,0,0,0,0c-0.6,0.4-1.2,0.8-1.8,1.2l0,0c-0.3,0.2-0.6,0.4-0.8,0.6l0,0l-3.4,2.9
		c-0.1,0.1-0.3,0.2-0.5,0.2c5.5-5.7,12.9-10.1,20.4-12.4c4.9-1.5,10-2.4,15.1-2.6C73.4,58.5,85.1,61.4,95.2,66.7z"/>
</g>
</svg>
